<svg xmlns="http://www.w3.org/2000/svg" width="32" height="32" viewBox="0 0 32 32">
  <g id="Group_40027" data-name="Group 40027" transform="translate(-10177 -197)">
    <g id="Group_40037" data-name="Group 40037" transform="translate(10177 197)" opacity="0">
      <rect id="Rectangle_18689" data-name="Rectangle 18689" width="32" height="32" fill="#e3e3e3"/>
      <rect id="Rectangle_18690" data-name="Rectangle 18690" width="28.343" height="28.343" transform="translate(1.829 1.829)" fill="#b5b5b5"/>
    </g>
    <g id="Group_40036" data-name="Group 40036" transform="translate(10178.828 198.829)">
      <path id="Path_43919" data-name="Path 43919" d="M14.95,21.8H3.023a1.42,1.42,0,0,1-1.415-1.415V6.13A1.42,1.42,0,0,1,3.023,4.715H6.13V5.825a.8.8,0,1,0,1.609,0V4.715H15.2V5.825a.8.8,0,0,0,1.609,0V4.715h3.106A1.42,1.42,0,0,1,21.329,6.13v9.042a7.836,7.836,0,0,1,.8-.055,7.836,7.836,0,0,1,.8.055V6.13a3.03,3.03,0,0,0-3.023-3.023H16.836V.8a.8.8,0,0,0-1.609,0v2.3H7.738V.8A.8.8,0,0,0,6.13.8v2.3H3.023A3.03,3.03,0,0,0,0,6.13V20.386a3.03,3.03,0,0,0,3.023,3.023H15.005a6.491,6.491,0,0,1-.083-1.054A3.536,3.536,0,0,1,14.95,21.8Z" transform="translate(0 0)" fill="#007c3d"/>
      <path id="Path_43920" data-name="Path 43920" d="M16.372,64.2H13.4a.8.8,0,1,0,0,1.609h2.968a.8.8,0,1,0,0-1.609Z" transform="translate(-9.105 -46.393)" fill="#007c3d"/>
      <path id="Path_43921" data-name="Path 43921" d="M16.372,50.7H13.4a.8.8,0,1,0,0,1.609h2.968a.8.8,0,1,0,0-1.609Z" transform="translate(-9.105 -36.638)" fill="#007c3d"/>
      <path id="Path_43922" data-name="Path 43922" d="M36.9,37.2h-3a.8.8,0,1,0,0,1.609h2.968a.8.8,0,0,0,.8-.8A.782.782,0,0,0,36.9,37.2Z" transform="translate(-29.605 -26.882)" fill="#007c3d"/>
      <path id="Path_43923" data-name="Path 43923" d="M36.9,64.2h-3a.8.8,0,1,0,0,1.609h2.968a.8.8,0,0,0,.8-.8A.782.782,0,0,0,36.9,64.2Z" transform="translate(-23.919 -46.393)" fill="#007c3d"/>
      <path id="Path_43924" data-name="Path 43924" d="M36.9,50.7h-3a.8.8,0,1,0,0,1.609h2.968a.8.8,0,0,0,.8-.8A.782.782,0,0,0,36.9,50.7Z" transform="translate(-23.919 -36.638)" fill="#007c3d"/>
      <path id="Path_43925" data-name="Path 43925" d="M57.472,37.2H54.5a.8.8,0,1,0,0,1.609h2.968a.8.8,0,0,0,0-1.609Z" transform="translate(-44.52 -26.882)" fill="#007c3d"/>
      <path id="Path_43926" data-name="Path 43926" d="M57.472,50.7H54.5a.8.8,0,1,0,0,1.609h2.968a.8.8,0,0,0,0-1.609Z" transform="translate(-38.806 -36.638)" fill="#007c3d"/>
      <path id="Path_43928" data-name="Path 43928" d="M57.472,50.7H54.5a.8.8,0,1,0,0,1.609h2.968a.8.8,0,0,0,0-1.609Z" transform="translate(-38.806 -40.382)" fill="#007c3d"/>
      <path id="Path_43927" data-name="Path 43927" d="M65.588,60.3a5.988,5.988,0,1,0,5.988,5.988A5.992,5.992,0,0,0,65.588,60.3Zm0,10.264a4.277,4.277,0,1,1,4.277-4.277A4.28,4.28,0,0,1,65.588,70.564Z" transform="translate(-43.426 -43.932)" fill="#007c3d"/>
      <path id="Union_40" data-name="Union 40" d="M2.006,4.9c-.059,0-.059,0-.208-.2q-.114-.151-.339-.453c-.3-.4-.751-1.009-1.345-1.81L.089,2.408V2.233h.3c.6,0,.954-.209,1.074-.64l0-.033H.142A.141.141,0,0,1,0,1.413v-.3A.142.142,0,0,1,.142.982H1.411a.722.722,0,0,0-.2-.243A1.171,1.171,0,0,0,.667.577H.142A.141.141,0,0,1,0,.431v-.3A.141.141,0,0,1,.142,0h2.9a.143.143,0,0,1,.127.146V.431a.141.141,0,0,1-.141.146H2.224a1.356,1.356,0,0,1,.193.4l0,.008h.627a.143.143,0,0,1,.127.146v.284a.141.141,0,0,1-.141.146H2.454a1.445,1.445,0,0,1-.6.9l-.013.009a2.8,2.8,0,0,1-.588.282L2.713,4.713V4.9Z" transform="translate(20.574 19.905)" fill="#007c3d"/>
    </g>
  </g>
</svg>
