<svg xmlns="http://www.w3.org/2000/svg" width="60" height="60" viewBox="0 0 60 60">
  <g id="cardless-cash" transform="translate(13293 -13063)">
    <g id="Group_39998" data-name="Group 39998" transform="translate(-445 184)" opacity="0">
      <rect id="Rectangle_18667" data-name="Rectangle 18667" width="60" height="60" transform="translate(-12848 12879)" fill="#adadad"/>
      <rect id="Rectangle_18668" data-name="Rectangle 18668" width="52" height="52" transform="translate(-12844 12883)" fill="#7c0000"/>
    </g>
    <g id="noun_cash_520919" transform="translate(-13291.37 13033.221)">
      <g id="Group_40007" data-name="Group 40007" transform="translate(2.4 37.78)">
        <path id="Subtraction_17" data-name="Subtraction 17" d="M39.953,44.623H4.083A4.088,4.088,0,0,1,0,40.538V18.125a4.09,4.09,0,0,1,4.083-4.088h7.164L16.491,3.159A5.638,5.638,0,0,1,21.562,0a5.527,5.527,0,0,1,2.3.5L33.93,5.085,38.686.752A1.068,1.068,0,0,1,39.4.48a1.034,1.034,0,0,1,.751.309l11.511,11.5a1.066,1.066,0,0,1,0,1.5l-7.629,7.744V40.538A4.088,4.088,0,0,1,39.953,44.623ZM4.083,16.163a1.964,1.964,0,0,0-1.962,1.962V40.538A1.964,1.964,0,0,0,4.083,42.5h35.87a1.964,1.964,0,0,0,1.962-1.962V18.125a1.964,1.964,0,0,0-1.962-1.962H20.822l-1.508,2.809a4.684,4.684,0,0,1-4.142,2.484,4.819,4.819,0,0,1-2.432-.676,4.685,4.685,0,0,1-2.278-4.2l.017-.418ZM21.552,2.122A3.5,3.5,0,0,0,18.4,4.087L12.833,15.634a2.571,2.571,0,0,0,1,3.336l.014.007a2.694,2.694,0,0,0,1.317.345,2.551,2.551,0,0,0,2.281-1.354l3.642-6.788A3.332,3.332,0,0,1,23.99,9.411a3.486,3.486,0,0,1,2.391.981l3.659,3.645h9.914A4.094,4.094,0,0,1,44,17.613l.1.825,5.315-5.385L39.374,3.007,34.851,7.134a1.071,1.071,0,0,1-.72.273,1.052,1.052,0,0,1-.439-.093L22.975,2.43A3.382,3.382,0,0,0,21.552,2.122Zm2.454,9.421a1.237,1.237,0,0,0-1.008.59l-.013.019-1.021,1.885h5.089l-2.185-2.164-.024-.021A1.433,1.433,0,0,0,24.007,11.543Z" transform="translate(0 0)" fill="#007c3d"/>
        <path id="Subtraction_18" data-name="Subtraction 18" d="M1.06,4.263A1.061,1.061,0,0,1,0,3.2V1.064A1.061,1.061,0,0,1,1.82.319a1.044,1.044,0,0,1,.3.737V3.2A1.063,1.063,0,0,1,1.06,4.263Z" transform="translate(35.319 27.193)" fill="#007c3d"/>
        <path id="Subtraction_19" data-name="Subtraction 19" d="M1.06,4.263A1.061,1.061,0,0,1,0,3.2V1.064a1.062,1.062,0,1,1,2.123,0V3.2A1.063,1.063,0,0,1,1.06,4.263Z" transform="translate(6.598 27.193)" fill="#007c3d"/>
      </g>
      <path id="Union_42" data-name="Union 42" d="M5.126,12.15,2.166,8.125a4.358,4.358,0,0,0-.8-.888A1.053,1.053,0,0,0,.713,7H.455V5.253H1.673A5.835,5.835,0,0,0,2.6,5.181a2.573,2.573,0,0,0,.763-.242A1.563,1.563,0,0,0,3.9,4.488a1.205,1.205,0,0,0,.2-.442H0L.75,2.535H3.995a1.692,1.692,0,0,0-.106-.219A1.59,1.59,0,0,0,3.543,1.9a1.49,1.49,0,0,0-.49-.273,2.383,2.383,0,0,0-.668-.116H0L.75,0H8.473l-.75,1.511H5.7a2.952,2.952,0,0,1,.17.334,3.274,3.274,0,0,1,.208.689h2.4l-.75,1.511H6.095a3.24,3.24,0,0,1-.295.908,3.481,3.481,0,0,1-.643.893,3.657,3.657,0,0,1-.875.646,4.918,4.918,0,0,1-.635.282L7.628,12.15ZM.713,6.734a1.308,1.308,0,0,1,.806.292,4.582,4.582,0,0,1,.855.942l2.881,3.919h0L2.373,7.968a4.582,4.582,0,0,0-.855-.942A1.308,1.308,0,0,0,.713,6.734Zm4.859-1.9a3.2,3.2,0,0,1-.594.825,3.387,3.387,0,0,1-.814.6,4.592,4.592,0,0,1-.944.375,4.592,4.592,0,0,0,.944-.375,3.387,3.387,0,0,0,.814-.6,3.2,3.2,0,0,0,.594-.825,3.062,3.062,0,0,0,.3-1.051H7.565L8.054,2.8l-.488.984H5.872A3.062,3.062,0,0,1,5.571,4.833ZM.42,3.782h0ZM4.342,2.8a1.933,1.933,0,0,0-.635-1.1,2.1,2.1,0,0,0-1.318-.45h0a2.1,2.1,0,0,1,1.318.45A1.933,1.933,0,0,1,4.342,2.8ZM7.565,1.248,8.054.264l-.488.984h0Z" transform="translate(21.121 61.965)" fill="#007c3d"/>
    </g>
  </g>
</svg>
