<svg xmlns="http://www.w3.org/2000/svg" width="32" height="32" viewBox="0 0 32 32">
  <g id="Group_40065" data-name="Group 40065" transform="translate(-10167 -620)">
    <g id="Group_40049" data-name="Group 40049" transform="translate(10167 620)" opacity="0">
      <rect id="Rectangle_18705" data-name="Rectangle 18705" width="32" height="32" fill="#e3e3e3"/>
      <rect id="Rectangle_18706" data-name="Rectangle 18706" width="28.343" height="28.343" transform="translate(1.829 1.829)" fill="#b5b5b5"/>
    </g>
    <g id="apply-for-products-green" transform="translate(10169.254 625)">
      <path id="Path_20016" data-name="Path 20016" d="M318.773,326.222H307.1a.7.7,0,0,1-.7-.7V311.1a.7.7,0,0,1,.7-.7h22.652a.7.7,0,0,1,.7.7v4.119a.7.7,0,1,1-1.407,0v-3.415H307.807v13.008h10.966a.7.7,0,1,1,0,1.407Z" transform="translate(-306.4 -310.4)" fill="#007c3d"/>
      <path id="Path_20017" data-name="Path 20017" d="M325.837,334.431a.7.7,0,0,1-.5-.206l-.632-.632a.7.7,0,0,1-.191-.642l.173-.825a6.687,6.687,0,0,1,1.822-3.365l8.556-8.557a2.589,2.589,0,0,1,3.662,3.661l-8.558,8.557a6.685,6.685,0,0,1-3.364,1.821l-.825.173A.7.7,0,0,1,325.837,334.431Zm.135-1.564.094.094.452-.095a5.282,5.282,0,0,0,2.658-1.439l8.557-8.557a1.182,1.182,0,0,0-1.671-1.671l-8.556,8.557a5.283,5.283,0,0,0-1.439,2.658Z" transform="translate(-312.076 -313.237)" fill="#007c3d"/>
      <path id="Line_565" data-name="Line 565" d="M2.769,3.473a.7.7,0,0,1-.5-.206L-.394.6a.7.7,0,0,1,1-1L3.267,2.272a.7.7,0,0,1-.5,1.2Z" transform="translate(22.905 7.841)" fill="#007c3d"/>
      <path id="Line_566" data-name="Line 566" d="M2.769,3.473a.7.7,0,0,1-.5-.206L-.394.6a.7.7,0,0,1,1-1L3.267,2.272a.7.7,0,0,1-.5,1.2Z" transform="translate(18.204 12.542)" fill="#007c3d"/>
      <path id="Path_20018" data-name="Path 20018" d="M338.825,332.275a.7.7,0,0,1-.5-1.2l4.028-4.028a.26.26,0,0,0-.368-.368l-1.1,1.1a.7.7,0,0,1-1-.995l1.1-1.1a1.667,1.667,0,1,1,2.358,2.357l-4.028,4.028A.7.7,0,0,1,338.825,332.275Z" transform="translate(-316.347 -315.039)" fill="#007c3d"/>
      <path id="Line_567" data-name="Line 567" d="M.1,1.929a.7.7,0,0,1-.5-1.2L.728-.394a.7.7,0,0,1,1,1L.6,1.723A.7.7,0,0,1,.1,1.929Z" transform="translate(12.219 20.071)" fill="#007c3d"/>
      <path id="Line_570" data-name="Line 570" d="M10.4.807H.1A.7.7,0,0,1,.1-.6H10.4a.7.7,0,1,1,0,1.407Z" transform="translate(10.21 6.778)" fill="#007c3d"/>
      <path id="Line_571" data-name="Line 571" d="M6.281.807H.1A.7.7,0,0,1,.1-.6H6.281a.7.7,0,1,1,0,1.407Z" transform="translate(10.21 4.032)" fill="#007c3d"/>
      <path id="Line_572" data-name="Line 572" d="M6.968.807H.1A.7.7,0,0,1,.1-.6H6.968a.7.7,0,0,1,0,1.407Z" transform="translate(10.21 9.524)" fill="#007c3d"/>
      <path id="Union_5" data-name="Union 5" d="M2.241,5.3c-.059,0-.059,0-.223-.209L1.637,4.6Q1.13,3.945.125,2.632L.1,2.6V2.429H.427c.685,0,1.085-.231,1.221-.707,0-.02,0-.038.006-.055H.146A.142.142,0,0,1,0,1.523V1.2a.144.144,0,0,1,.145-.13H1.6A.789.789,0,0,0,1.351.778,1.352,1.352,0,0,0,.735.6H.146A.142.142,0,0,1,0,.455V.131A.144.144,0,0,1,.146,0H3.41a.144.144,0,0,1,.13.145V.455A.141.141,0,0,1,3.4.6H2.456a1.4,1.4,0,0,1,.233.451l0,.019H3.41a.143.143,0,0,1,.13.143v.309a.141.141,0,0,1-.145.145H2.732a1.545,1.545,0,0,1-.674.986l-.013.008a3.02,3.02,0,0,1-.68.311L3.022,5.118V5.3Z" transform="translate(4.125 4.86)" fill="#007b3c"/>
    </g>
  </g>
</svg>
