<svg xmlns="http://www.w3.org/2000/svg" width="32" height="32" viewBox="0 0 32 32">
  <g id="favorites" transform="translate(11559.851 -13098)">
    <g id="fd-rd" transform="translate(-11559.851 13098)" opacity="0">
      <g id="Group_39998" data-name="Group 39998" transform="translate(0 0)">
        <rect id="Rectangle_18667" data-name="Rectangle 18667" width="32" height="32" fill="#efefef"/>
      </g>
    </g>
    <rect id="Rectangle_18707" data-name="Rectangle 18707" width="27.733" height="27.733" transform="translate(-11557.717 13100)" fill="#7c0000" opacity="0"/>
    <g id="noun_payday_4227743" transform="translate(-11558.037 13100.25)">
      <g id="Group_40246" data-name="Group 40246" transform="translate(3.562 2.75)">
        <path id="Path_44130" data-name="Path 44130" d="M21.677,4.9H19.2V4.258a1.508,1.508,0,1,0-3.015,0V4.9h-4V4.258a1.508,1.508,0,1,0-3.016,0V4.9H6.7A3.136,3.136,0,0,0,3.562,8.032V21.618A3.136,3.136,0,0,0,6.7,24.75H21.677a3.136,3.136,0,0,0,3.133-3.132V8.032A3.136,3.136,0,0,0,21.677,4.9Zm-4.795-.641a.813.813,0,1,1,1.626,0V6.365a.813.813,0,0,1-1.626,0V4.258Zm-7.018,0a.813.813,0,1,1,1.626,0V6.365a.813.813,0,0,1-1.626,0V4.258ZM4.257,8.032A2.441,2.441,0,0,1,6.7,5.594H9.169v.772a1.508,1.508,0,0,0,3.016,0V5.594h4v.772a1.508,1.508,0,0,0,3.015,0V5.594h2.474a2.441,2.441,0,0,1,2.438,2.438v1.18H4.257V8.032ZM24.115,21.618a2.44,2.44,0,0,1-2.438,2.437H6.7a2.44,2.44,0,0,1-2.438-2.437V9.906H24.115Z" transform="translate(-3.562 -2.75)" fill="#007c3d" stroke="#357a44" stroke-width="0.5"/>
        <path id="Path_44131" data-name="Path 44131" d="M20.187,32.608a5.449,5.449,0,1,0-5.446-5.446A5.452,5.452,0,0,0,20.187,32.608Zm0-10.2a4.754,4.754,0,1,1-4.751,4.757A4.76,4.76,0,0,1,20.187,22.406Z" transform="translate(-9.564 -12.929)" fill="#007c3d" stroke="#357a44" stroke-width="0.5"/>
        <path id="Path_44134" data-name="Path 44134" d="M3.785-10.786H2.906a1.517,1.517,0,0,1,.3.738h.749l-.171.589H3.219a1.335,1.335,0,0,1-.525,1,2.122,2.122,0,0,1-1.274.335L3.256-6v.045H2.41L.436-8.25l0-.466H1.36a1.33,1.33,0,0,0,.756-.2.871.871,0,0,0,.369-.542H.328L.5-10.049H2.477q-.179-.708-1.1-.738H.336l.175-.589H3.956Z" transform="translate(8.482 23.33)" fill="#007c3d"/>
      </g>
    </g>
  </g>
</svg>
