<svg xmlns="http://www.w3.org/2000/svg" width="32" height="32" viewBox="0 0 32 32">
  <g id="Group_40258" data-name="Group 40258" transform="translate(-283 -277)">
    <g id="my-cards" transform="translate(13131 -12602)">
      <g id="Group_39984" data-name="Group 39984" transform="translate(-12848 12879)" opacity="0">
        <rect id="Rectangle_18667" data-name="Rectangle 18667" width="32" height="32" fill="#e6e6e6"/>
        <rect id="Rectangle_18668" data-name="Rectangle 18668" width="27.733" height="27.733" transform="translate(2 2)" fill="#ad1c29" opacity="0"/>
      </g>
    </g>
    <g id="Group_40257" data-name="Group 40257">
      <g id="noun_NFC_1546351" transform="translate(290.031 280)">
        <g id="Group_40249" data-name="Group 40249" transform="translate(-0.031)">
          <path id="Path_44133" data-name="Path 44133" d="M2.061,0h8.025a2.117,2.117,0,0,1,1.456.572,1.892,1.892,0,0,1,.605,1.376v8.618a3.943,3.943,0,0,1,1.983,1.96,3.516,3.516,0,0,0,1.138,1.345,4.284,4.284,0,0,1,1.263,1.006,2.242,2.242,0,0,1,.52,1.531,18.494,18.494,0,0,0,.449,5c.109.569.232,1.215.361,1.982a1.1,1.1,0,0,1-.383,1.266,3.965,3.965,0,0,1-1.209.7,9.327,9.327,0,0,1-1.549.454c-1.564.321-3.241.252-3.7-.423a.5.5,0,0,1-.054-.107c-.036-.1-.085-.218-.142-.356l-.156-.37a18.212,18.212,0,0,1-1.724-1.5,7.522,7.522,0,0,1-1.311-1.712,3.685,3.685,0,0,0-1.3.062c-.215.036-.462.078-.7.112a1.51,1.51,0,0,1-1.579-.759,1.726,1.726,0,0,1-.222-.694,1.577,1.577,0,0,1,.095-.726l.021-.046c.019-.044.04-.087.063-.129H2.061A2.116,2.116,0,0,1,.605,18.6,1.89,1.89,0,0,1,0,17.225V1.948A1.89,1.89,0,0,1,.605.572,2.116,2.116,0,0,1,2.061,0ZM12.147,15.842l1.009.953a.52.52,0,0,1,0,.764.6.6,0,0,1-.808,0l-1.182-1.116c-.6-.484-1.245-.963-1.914-1.439-.717-.509-1.478-1.023-2.275-1.541a1.051,1.051,0,0,0-.96-.182.718.718,0,0,0-.277.2.756.756,0,0,0-.161.316.827.827,0,0,0,.287.807c.723.663,1.356,1.278,1.944,1.923a19.236,19.236,0,0,1,1.528,1.907.486.486,0,0,1,.2.324.475.475,0,0,1,.026.153.625.625,0,0,1,0,.064,5.215,5.215,0,0,0,.441,1.756A5.025,5.025,0,0,0,11.2,22.227a.473.473,0,0,1,.01.695.542.542,0,0,1-.735.01,5.936,5.936,0,0,1-1.413-1.787,5.682,5.682,0,0,1-.492-1.732l-3.22.023a.449.449,0,0,0-.436.23l-.009.025a.643.643,0,0,0-.037.294.772.772,0,0,0,.1.312.5.5,0,0,0,.516.254c.3-.043.5-.076.668-.1a4.517,4.517,0,0,1,1.932-.021.517.517,0,0,1,.379.283A6.219,6.219,0,0,0,9.7,22.393a17.551,17.551,0,0,0,1.7,1.466.5.5,0,0,1,.181.216l.209.495.13.326c.266.26,1.423.191,2.572-.045a8.248,8.248,0,0,0,1.366-.4,2.962,2.962,0,0,0,.883-.5c.1-.093.153-.175.135-.233a.455.455,0,0,1-.04-.126c-.136-.8-.258-1.447-.366-2.015a19.216,19.216,0,0,1-.466-5.206,1.328,1.328,0,0,0-.308-.907,3.333,3.333,0,0,0-.969-.755,4.256,4.256,0,0,1-1.509-1.7,4.014,4.014,0,0,0-1.078-1.326ZM5.056,8.82a.38.38,0,0,1,.05.556.434.434,0,0,1-.588.048,2.174,2.174,0,0,1-.6-.736,2.034,2.034,0,0,1,.042-1.9,2.192,2.192,0,0,1,.713-.766.432.432,0,0,1,.581.1.381.381,0,0,1-.1.549,1.382,1.382,0,0,0-.447.484,1.293,1.293,0,0,0-.028,1.2A1.368,1.368,0,0,0,5.056,8.82ZM7.091,6.7a.381.381,0,0,1-.051-.557A.436.436,0,0,1,7.629,6.1a2.178,2.178,0,0,1,.6.736,2.03,2.03,0,0,1-.042,1.9,2.2,2.2,0,0,1-.713.766.433.433,0,0,1-.582-.1.381.381,0,0,1,.1-.549,1.384,1.384,0,0,0,.448-.484,1.291,1.291,0,0,0,.027-1.2A1.366,1.366,0,0,0,7.091,6.7Zm-3.1,3.313a.382.382,0,0,1,.052.558.436.436,0,0,1-.59.05A3.752,3.752,0,0,1,2.42,9.35a3.516,3.516,0,0,1,.074-3.28A3.777,3.777,0,0,1,3.726,4.745a.434.434,0,0,1,.582.1.382.382,0,0,1-.1.55,2.965,2.965,0,0,0-.966,1.043,2.78,2.78,0,0,0-.061,2.58A2.952,2.952,0,0,0,3.992,10.018Zm4.163-4.51A.381.381,0,0,1,8.1,4.95a.436.436,0,0,1,.59-.05A3.754,3.754,0,0,1,9.727,6.175a3.518,3.518,0,0,1-.075,3.28A3.767,3.767,0,0,1,8.42,10.779a.434.434,0,0,1-.582-.1.382.382,0,0,1,.1-.55,2.955,2.955,0,0,0,.966-1.043,2.78,2.78,0,0,0,.061-2.58A2.95,2.95,0,0,0,8.155,5.507Zm-2.8,2.255a.717.717,0,1,1,.716.677A.7.7,0,0,1,5.357,7.762ZM11.1,15.119V1.948a.934.934,0,0,0-.3-.679,1.045,1.045,0,0,0-.718-.283H2.061a1.044,1.044,0,0,0-.718.283.932.932,0,0,0-.3.679V17.225a.932.932,0,0,0,.3.679,1.046,1.046,0,0,0,.718.283H7.883c-.278-.353-.563-.689-.861-1.016l-.011-.013a1.5,1.5,0,0,1-1.96-.074,1.313,1.313,0,0,1-.037-1.9,1.714,1.714,0,0,1-.082-2.315,1.759,1.759,0,0,1,.685-.49,2.094,2.094,0,0,1,1.954.278c.8.519,1.57,1.04,2.308,1.564Q10.513,14.672,11.1,15.119ZM6.549,16.668c-.327-.337-.673-.673-1.043-1.02a.685.685,0,0,0,.035.971.771.771,0,0,0,.532.208A.78.78,0,0,0,6.549,16.668Z" transform="translate(0 0)" fill="#007c3d"/>
        </g>
      </g>
    </g>
  </g>
</svg>
