<svg xmlns="http://www.w3.org/2000/svg" width="32" height="32" viewBox="0 0 32 32">
  <g id="Group_40202" data-name="Group 40202" transform="translate(-10171 -198)">
    <g id="Group_40026" data-name="Group 40026" transform="translate(10171 198)" opacity="0">
      <rect id="Rectangle_18673" data-name="Rectangle 18673" width="32" height="32" fill="#fff"/>
      <rect id="Rectangle_18674" data-name="Rectangle 18674" width="28.343" height="28.343" transform="translate(1.829 1.829)" fill="#bcbcbc"/>
    </g>
    <g id="send-money-green" transform="translate(10175 202)">
      <path id="Path_19955" data-name="Path 19955" d="M59.171,266a.7.7,0,0,1-.59-1.061,6.97,6.97,0,0,0,1.042-3.675v-8.385a2.011,2.011,0,0,0-1.436,1.924V260l-1.149-.988a2.118,2.118,0,0,0-1.666-.566,3.322,3.322,0,0,0-3.455,3.037.7.7,0,0,1-1.39,0,4.188,4.188,0,0,1,1.528-3.2,5.173,5.173,0,0,1,3.318-1.222,4.2,4.2,0,0,1,1.424.2V254.8a3.4,3.4,0,0,1,3.4-3.4h.819v9.858a8.359,8.359,0,0,1-1.25,4.408A.7.7,0,0,1,59.171,266Z" transform="translate(-41.252 -244.335)" fill="#007c3d"/>
      <path id="Path_19956" data-name="Path 19956" d="M44.725,268.138a.7.7,0,0,1-.623-.386,6.681,6.681,0,0,1-.7-3v-4.607a.7.7,0,1,1,1.39,0v4.607a5.3,5.3,0,0,0,.557,2.38.7.7,0,0,1-.622,1Z" transform="translate(-39.161 -246.697)" fill="#007c3d"/>
      <path id="Path_19957" data-name="Path 19957" d="M58.226,273.91a.7.7,0,0,1-.7-.7v-1.424H44.791v1.424a.7.7,0,0,1-1.39,0V270.4H58.921v2.815A.7.7,0,0,1,58.226,273.91Z" transform="translate(-39.161 -249.91)" fill="#007c3d"/>
      <path id="Path_19958" data-name="Path 19958" d="M60.7,255.508H56.465a.7.7,0,1,1,0-1.39H60.01V242.791H38.79v11.327H53.639a.7.7,0,1,1,0,1.39H38.1a.7.7,0,0,1-.7-.7V242.1a.7.7,0,0,1,.7-.7H60.7a.7.7,0,0,1,.7.7v12.718A.7.7,0,0,1,60.7,255.508Z" transform="translate(-37.4 -241.4)" fill="#007c3d"/>
      <path id="Ellipse_2276" data-name="Ellipse 2276" d="M3.981-.6A4.581,4.581,0,1,1-.6,3.981,4.586,4.586,0,0,1,3.981-.6Zm0,7.772A3.191,3.191,0,1,0,.79,3.981,3.194,3.194,0,0,0,3.981,7.172Z" transform="translate(7.665 3.426)" fill="#007c3d"/>
      <path id="Path_19959" data-name="Path 19959" d="M67.015,247.046a2.968,2.968,0,0,1-2.98-2.951.7.7,0,0,1,1.39,0,1.576,1.576,0,0,0,1.589,1.56.7.7,0,0,1,0,1.391Z" transform="translate(-45.216 -241.987)" fill="#007c3d"/>
      <path id="Path_19960" data-name="Path 19960" d="M42.4,257.768a.7.7,0,0,1-.7-.7,1.6,1.6,0,0,0-1.607-1.578.7.7,0,1,1,0-1.39,2.987,2.987,0,0,1,3,2.969A.7.7,0,0,1,42.4,257.768Z" transform="translate(-37.987 -245.128)" fill="#007c3d"/>
      <path id="Path_19961" data-name="Path 19961" d="M40.1,247.046a.7.7,0,0,1,0-1.391,1.577,1.577,0,0,0,1.589-1.56.7.7,0,0,1,1.39,0A2.968,2.968,0,0,1,40.1,247.046Z" transform="translate(-37.987 -241.987)" fill="#007c3d"/>
      <path id="Path_19962" data-name="Path 19962" d="M64.7,257.768a.7.7,0,0,1-.7-.7,2.987,2.987,0,0,1,3-2.969.7.7,0,1,1,0,1.39,1.6,1.6,0,0,0-1.607,1.578A.7.7,0,0,1,64.7,257.768Z" transform="translate(-45.208 -245.128)" fill="#007c3d"/>
    </g>
  </g>
</svg>
