<svg xmlns="http://www.w3.org/2000/svg" width="32" height="32" viewBox="0 0 32 32">
  <g id="Group_40239" data-name="Group 40239" transform="translate(-45 -405)">
    <g id="Group_40205" data-name="Group 40205" transform="translate(0 -1)">
      <rect id="Rectangle_18707" data-name="Rectangle 18707" width="32" height="32" transform="translate(45 406)" fill="#fff" opacity="0"/>
    </g>
    <g id="noun_Payment_History_3820910" data-name="noun_Payment History_3820910" transform="translate(44.5 405.4)">
      <path id="Path_44109" data-name="Path 44109" d="M21,2.6H6.5a.908.908,0,0,0-.7.3.779.779,0,0,0-.3.7l.1,24a1.923,1.923,0,0,0,1.9,2h18a1.025,1.025,0,0,0,1-1V8.4A5.612,5.612,0,0,0,21,2.6Zm3.5,24.9H7.6L7.5,4.6H21a3.743,3.743,0,0,1,3.5,3.8Z" fill="#007c3d" stroke="#fff" stroke-width="0.5"/>
      <path id="Path_44110" data-name="Path 44110" d="M20,23H11a1,1,0,0,1,0-2h9a.945.945,0,0,1,1,1A1.075,1.075,0,0,1,20,23Z" fill="#007c3d" stroke="#fff" stroke-width="0.5"/>
      <path id="Path_44111" data-name="Path 44111" d="M18,26H11a1,1,0,0,1,0-2h7a.945.945,0,0,1,1,1A1.075,1.075,0,0,1,18,26Z" fill="#007c3d" stroke="#fff" stroke-width="0.5"/>
      <path id="Path_44112" data-name="Path 44112" d="M18.2,15.3a1.421,1.421,0,0,1-.6-.2l-2.2-1.8a1.234,1.234,0,0,1-.4-.8V9.2a1.075,1.075,0,0,1,1-1h0a1,1,0,0,1,1,1V12l1.8,1.5a1.075,1.075,0,0,1,.2,1.4A.909.909,0,0,1,18.2,15.3Z" fill="#007c3d" stroke="#fff" stroke-width="0.5"/>
      <path id="Path_44113" data-name="Path 44113" d="M17.4,18.8a5.7,5.7,0,0,1-1.3.1h-.2a1.075,1.075,0,0,1-1-1,1,1,0,0,1,1-1,4.1,4.1,0,0,0,1.1-.1,4.738,4.738,0,0,0,3.7-5.5,4.414,4.414,0,0,0-2-3,4.355,4.355,0,0,0-3.5-.7,4.687,4.687,0,0,0-3.7,5.5,4.418,4.418,0,0,0,.6,1.6,1.013,1.013,0,0,1,.9-.6.945.945,0,0,1,1,1l.1,2a.987.987,0,0,1-.9,1l-2,.1H11a.969.969,0,0,1-.3-1.9,7.19,7.19,0,0,1-1.3-2.8,6.322,6.322,0,0,1,1-5,7.345,7.345,0,0,1,4.4-2.9,6.749,6.749,0,0,1,5,1,6.356,6.356,0,0,1,2.8,4.3A6.671,6.671,0,0,1,17.4,18.8Z" fill="#007c3d" stroke="#fff" stroke-width="0.5"/>
    </g>
  </g>
</svg>
