<svg xmlns="http://www.w3.org/2000/svg" width="32" height="32" viewBox="0 0 32 32">
  <g id="favorites" transform="translate(11559.851 -13098)">
    <g id="fd-rd" transform="translate(-11559.851 13098)" opacity="0">
      <g id="Group_39998" data-name="Group 39998" transform="translate(0 0)" opacity="0.36">
        <rect id="Rectangle_18667" data-name="Rectangle 18667" width="32" height="32" fill="#adadad"/>
      </g>
    </g>
    <rect id="Rectangle_18707" data-name="Rectangle 18707" width="27.733" height="27.733" transform="translate(-11557.717 13100.134)" fill="#7c0000" opacity="0"/>
    <g id="noun_payment_window_2564323" data-name="noun_payment window_2564323" transform="translate(-11556.65 13104.934)">
      <path id="Path_43223" data-name="Path 43223" d="M42.971,53.851a3.3,3.3,0,0,0,3.291-3.291V48.731a.731.731,0,1,0-1.463,0V50.56a1.831,1.831,0,0,1-1.829,1.829H32.731a.731.731,0,0,0,0,1.463Z" transform="translate(-22.126 -34.834)" fill="#007c3d"/>
      <path id="Path_43224" data-name="Path 43224" d="M9.731,22.606a.731.731,0,0,0,.731-.731V17.851a4.394,4.394,0,0,1,4.389-4.389H28.383a1.831,1.831,0,0,1,1.829,1.829v3.291H28.749a2.926,2.926,0,1,0,0,5.851h2.194a2.2,2.2,0,0,0,2.194-2.194V20.777a2.194,2.194,0,0,0-1.463-2.066V15.291A3.3,3.3,0,0,0,28.383,12H14.851A5.858,5.858,0,0,0,9,17.851v4.023A.731.731,0,0,0,9.731,22.606Zm21.943-.366a.731.731,0,0,1-.731.731H28.749a1.463,1.463,0,1,1,0-2.926h2.194a.731.731,0,0,1,.731.731Z" transform="translate(-7.537 -12)" fill="#007c3d"/>
      <circle id="Ellipse_2637" data-name="Ellipse 2637" cx="0.543" cy="0.543" r="0.543" transform="translate(20.403 8.872)" fill="#007c3d"/>
      <path id="Path_43225" data-name="Path 43225" d="M9.754,51.509A4.754,4.754,0,1,0,5,46.754a4.754,4.754,0,0,0,4.754,4.754Zm0-8.046a3.291,3.291,0,1,1-3.291,3.291,3.291,3.291,0,0,1,3.291-3.291Z" transform="translate(-5 -31.029)" fill="#007c3d"/>
      <path id="Path_43226" data-name="Path 43226" d="M17.311,52.174a.731.731,0,1,0,1.034-1.034l-.883-.883V48.731a.731.731,0,1,0-1.463,0V50.56a.731.731,0,0,0,.214.517Z" transform="translate(-11.977 -34.834)" fill="#007c3d"/>
      <path id="Path_43227" data-name="Path 43227" d="M5.982-10.412H4.544a2.48,2.48,0,0,1,.493,1.206H6.262l-.28.963H5.056A2.184,2.184,0,0,1,4.2-6.611a3.471,3.471,0,0,1-2.084.548l3,3.485V-2.5H3.734L.5-6.264.5-7.025H2.016a2.176,2.176,0,0,0,1.237-.332,1.424,1.424,0,0,0,.6-.886H.328l.28-.963H3.843q-.292-1.158-1.791-1.206H.34l.286-.963H6.262Z" transform="translate(9.961 16.53)" fill="#007c3d"/>
    </g>
  </g>
</svg>
