<svg xmlns="http://www.w3.org/2000/svg" width="48.762" height="49.5" viewBox="0 0 48.762 49.5"><defs><style>.a{fill:#5a934a;opacity:0.15;}.b,.c{fill:none;stroke:#444;stroke-linecap:round;stroke-width:1.5px;}.b{stroke-miterlimit:10;}.c{stroke-linejoin:round;}.d{fill:#0075b0;}</style></defs><g transform="translate(0.75 0.75)"><path class="a" d="M0,0H42.83V22.792H36.743L34,11.326l-4.12,4.987.335,6.48H0Z" transform="translate(2.954 3.054)"/><path class="b" d="M51.126,271.616c0-4.519,4.268-7.8,8.675-7.8a5.828,5.828,0,0,1,4.431,1.535v-7.7A5.648,5.648,0,0,1,69.881,252h.258v19.154a16.036,16.036,0,0,1-2.4,8.448" transform="translate(-31.74 -236.492)"/><path class="b" d="M45.316,275.3A12.6,12.6,0,0,1,44,269.681v-9.63" transform="translate(-35.138 -232.653)"/><path class="b" d="M73.538,275.431V271H44v4.431" transform="translate(-35.138 -227.431)"/><path class="c" d="M70.492,268.585H38V242H85.262v26.585H76.4" transform="translate(-38 -242)"/><path class="c" d="M69.41,248.714A4.745,4.745,0,0,1,64.635,244" transform="translate(-25.297 -240.308)"/><path class="c" d="M40,254.7a4.783,4.783,0,0,1,4.813,4.753" transform="translate(-37.046 -235.203)"/><path class="c" d="M40,248.714A4.744,4.744,0,0,0,44.775,244" transform="translate(-37.046 -240.308)"/><path class="c" d="M69.422,254.7a4.783,4.783,0,0,0-4.813,4.753" transform="translate(-25.31 -235.203)"/><circle class="d" cx="6.646" cy="6.646" r="6.646" transform="translate(16.246 6.646)"/></g></svg>