<svg xmlns="http://www.w3.org/2000/svg" width="28.59" height="26.444" viewBox="0 0 28.59 26.444"><defs><style>.a{fill:#08c866;}.b{opacity:0.5;}.c{fill:#007c3d;}.d{fill:#f3f3f1;}.e{fill:#d5dbe1;}.f{fill:#a4afc1;}.g{fill:#0b0b0b;}</style></defs><g transform="translate(-3.5 -3.556)"><path class="a" d="M29.25,12.75v1.5H6.75v-1.5L18,6.75Z"/><g class="b"><path class="c" d="M9,13.5,19.828,7.725,18,6.75l-11.25,6v1.5H9Z"/></g><path class="d" d="M9.75,14.25h16.5v15H9.75Z"/><path class="e" d="M9.75,14.25H12v15H9.75Z"/><path class="f" d="M30.033,4.379h2v1h-2Z" transform="translate(5.64 23.373) rotate(-45)"/><path class="f" d="M30.533,8.121h1v2h-1Z" transform="translate(2.64 24.615) rotate(-45)"/><path class="f" d="M26.467,4.056h1v2h-1Z" transform="translate(4.324 20.549) rotate(-45)"/><path class="f" d="M5,6.556a1.5,1.5,0,1,1,1.5-1.5A1.5,1.5,0,0,1,5,6.556Zm0-2a.5.5,0,1,0,.5.5A.5.5,0,0,0,5,4.556Z"/><path d="M29.25,15H6.75A.75.75,0,0,1,6,14.25v-1.5a.75.75,0,0,1,.4-.662l11.25-6a.752.752,0,0,1,.7,0l11.25,6a.749.749,0,0,1,.4.662v1.5A.75.75,0,0,1,29.25,15ZM7.5,13.5h21v-.3L18,7.6,7.5,13.2Z"/><path d="M6.75,28.5h22.5V30H6.75Z"/><path d="M9,14.25h1.5v15H9Z"/><path d="M25.5,14.25H27v15H25.5Z"/><g transform="translate(15.5 17.896)"><path class="g" d="M76.788,1.359a.143.143,0,0,0-.1-.038h-.766a1.442,1.442,0,0,0-.287-.614h1.044a.144.144,0,0,0,.1-.038.13.13,0,0,0,.04-.1V.136a.13.13,0,0,0-.04-.1.144.144,0,0,0-.1-.038H72.949a.144.144,0,0,0-.1.038.13.13,0,0,0-.04.1V.7a.128.128,0,0,0,.043.1.141.141,0,0,0,.1.04H73.6q.945,0,1.2.482h-1.85a.143.143,0,0,0-.1.038.13.13,0,0,0-.04.1v.435a.129.129,0,0,0,.04.1.143.143,0,0,0,.1.038h1.913a.843.843,0,0,1-.459.533,2.109,2.109,0,0,1-.952.183h-.5a.141.141,0,0,0-.1.04.128.128,0,0,0-.043.1v.541a.124.124,0,0,0,.04.094q.86.869,2.231,2.433A.135.135,0,0,0,75.189,6h.873a.131.131,0,0,0,.13-.077.112.112,0,0,0-.018-.145q-1.308-1.526-2.056-2.284a2.336,2.336,0,0,0,1.236-.469,1.574,1.574,0,0,0,.578-1h.753a.143.143,0,0,0,.1-.038.129.129,0,0,0,.04-.1V1.457A.129.129,0,0,0,76.788,1.359Z" transform="translate(-71.806 0)"/></g></g></svg>