<svg xmlns="http://www.w3.org/2000/svg" width="49.5" height="41.811" viewBox="0 0 49.5 41.811"><defs><style>.a{fill:#ff8223;opacity:0.3;}.b{fill:none;stroke:#444;stroke-linecap:round;stroke-linejoin:round;stroke-width:1.5px;}.c{fill:#f35b2b;}</style></defs><g transform="translate(0.75 1.061)"><g transform="translate(0)"><g transform="translate(0)"><rect class="a" width="6" height="20" transform="translate(8 20)"/><rect class="a" width="6" height="27" transform="translate(37 13)"/><rect class="b" width="8" height="21.333" transform="translate(4.962 18.667)"/><rect class="b" width="8" height="29.333" transform="translate(34.296 10.667)"/><rect class="b" width="8" height="18.667" transform="translate(19.629 21.333)"/><path class="b" d="M195,311h5.333v5.333" transform="translate(-164.704 -311)"/><path class="b" d="M176,321.667h10.667l4.667,4.667L206.667,311" transform="translate(-171.038 -311)"/><line class="b" x2="48" transform="translate(0 40)"/></g><path class="c" d="M1,0H9.667a1,1,0,0,1,1,1V20a0,0,0,0,1,0,0H0a0,0,0,0,1,0,0V1A1,1,0,0,1,1,0Z" transform="translate(18.296 20)"/></g></g></svg>