<svg xmlns="http://www.w3.org/2000/svg" width="28.255" height="27.182" viewBox="0 0 28.255 27.182">
  <g id="_029-receipt" data-name="029-receipt" transform="translate(-3.379 -6)">
    <g id="color">
      <g id="Group_34803" data-name="Group 34803">
        <path id="Path_27198" data-name="Path 27198" d="M27.25,6.75H8.75a2.006,2.006,0,0,0-2,2v4.5a2.006,2.006,0,0,0,2,2h18.5a2.006,2.006,0,0,0,2-2V8.75A2.006,2.006,0,0,0,27.25,6.75Z" fill="#f3f3f1"/>
      </g>
      <g id="Group_34804" data-name="Group 34804">
        <path id="Path_27199" data-name="Path 27199" d="M9,13.25V8.75a2.006,2.006,0,0,1,2-2H8.75a2.006,2.006,0,0,0-2,2v4.5a2.006,2.006,0,0,0,2,2H11A2.006,2.006,0,0,1,9,13.25Z" fill="#d5dbe1"/>
      </g>
      <g id="Group_34805" data-name="Group 34805">
        <path id="Path_27200" data-name="Path 27200" d="M26.25,29.25V11.75H9.75v17.5l3-2.5,2.75,2.5,2.5-2.5,2.5,2.5,2.75-2.5Z" fill="#08c866"/>
      </g>
      <g id="Group_34810" data-name="Group 34810">
        <g id="Group_34806" data-name="Group 34806">
          <path id="Path_27201" data-name="Path 27201" d="M15,26.75l-1.174.978L15.5,29.25l1.071-1.071Z" fill="#00b871"/>
        </g>
        <g id="Group_34807" data-name="Group 34807" opacity="0.5">
          <path id="Path_27202" data-name="Path 27202" d="M12,11.75H9.75v17.5L12,27.375Z" fill="#007c3d"/>
        </g>
        <g id="Group_34808" data-name="Group 34808">
          <path id="Path_27203" data-name="Path 27203" d="M20.25,26.75l-1.125,1.125L20.5,29.25l1.179-1.071Z" fill="#00b871"/>
        </g>
        <g id="Group_34809" data-name="Group 34809">
          <path id="Path_27204" data-name="Path 27204" d="M25.5,26.75l-1.076.978L26.25,29.25V27.375Z" fill="#00b871"/>
        </g>
      </g>
      <g id="Group_34814" data-name="Group 34814">
        <g id="Group_34811" data-name="Group 34811">
          <path id="Path_27205" data-name="Path 27205" d="M25.514,31.445h2v1h-2Z" transform="translate(-14.823 28.104) rotate(-45)" fill="#a4afc1"/>
        </g>
        <g id="Group_34812" data-name="Group 34812">
          <path id="Path_27206" data-name="Path 27206" d="M29.58,27.379h2v1h-2Z" transform="translate(-10.757 29.788) rotate(-45)" fill="#a4afc1"/>
        </g>
        <g id="Group_34813" data-name="Group 34813">
          <path id="Path_27207" data-name="Path 27207" d="M30.079,31.121h1v2h-1Z" transform="translate(-13.757 31.031) rotate(-45)" fill="#a4afc1"/>
        </g>
      </g>
      <g id="Group_34815" data-name="Group 34815">
        <path id="Path_27208" data-name="Path 27208" d="M4.879,30.75a1.5,1.5,0,1,1,1.5-1.5A1.5,1.5,0,0,1,4.879,30.75Zm0-2a.5.5,0,1,0,.5.5A.5.5,0,0,0,4.879,28.75Z" fill="#a4afc1"/>
      </g>
    </g>
    <g id="line">
      <g id="Group_34816" data-name="Group 34816">
        <path id="Path_27209" data-name="Path 27209" d="M27.25,16h-1V14.5h1a1.252,1.252,0,0,0,1.25-1.25V8.75A1.252,1.252,0,0,0,27.25,7.5H8.75A1.251,1.251,0,0,0,7.5,8.75v4.5A1.252,1.252,0,0,0,8.75,14.5h1V16h-1A2.752,2.752,0,0,1,6,13.25V8.75A2.753,2.753,0,0,1,8.75,6h18.5A2.754,2.754,0,0,1,30,8.75v4.5A2.753,2.753,0,0,1,27.25,16Z"/>
      </g>
      <g id="Group_34817" data-name="Group 34817">
        <path id="Path_27210" data-name="Path 27210" d="M26.25,30a.746.746,0,0,1-.48-.174l-2.5-2.082L21,29.805a.753.753,0,0,1-1.035-.025L18,27.811l-1.97,1.97A.75.75,0,0,1,15,29.806l-2.267-2.061-2.5,2.082A.749.749,0,0,1,9,29.25V11.75A.75.75,0,0,1,9.75,11h16.5a.75.75,0,0,1,.75.75v17.5a.749.749,0,0,1-.432.679A.741.741,0,0,1,26.25,30ZM18,26a.744.744,0,0,1,.53.22l1.994,1.994,2.221-2.019a.75.75,0,0,1,.984-.021l1.77,1.475V12.5h-15V27.649l1.77-1.475a.752.752,0,0,1,.984.021l2.221,2.019,1.994-1.994A.752.752,0,0,1,18,26Z"/>
      </g>
    </g>
    <g id="signs_3_" data-name="signs (3)" transform="translate(14.436 16.754)">
      <path id="Path_12624" data-name="Path 12624" d="M76.788,1.359a.143.143,0,0,0-.1-.038h-.766a1.442,1.442,0,0,0-.287-.614h1.044a.144.144,0,0,0,.1-.038.13.13,0,0,0,.04-.1V.136a.13.13,0,0,0-.04-.1.144.144,0,0,0-.1-.038H72.949a.144.144,0,0,0-.1.038.13.13,0,0,0-.04.1V.7a.128.128,0,0,0,.043.1.141.141,0,0,0,.1.04H73.6q.945,0,1.2.482h-1.85a.143.143,0,0,0-.1.038.13.13,0,0,0-.04.1v.435a.129.129,0,0,0,.04.1.143.143,0,0,0,.1.038h1.913a.843.843,0,0,1-.459.533,2.109,2.109,0,0,1-.952.183h-.5a.141.141,0,0,0-.1.04.128.128,0,0,0-.043.1v.541a.124.124,0,0,0,.04.094q.86.869,2.231,2.433A.135.135,0,0,0,75.189,6h.873a.131.131,0,0,0,.13-.077.112.112,0,0,0-.018-.145q-1.308-1.526-2.056-2.284a2.336,2.336,0,0,0,1.236-.469,1.574,1.574,0,0,0,.578-1h.753a.143.143,0,0,0,.1-.038.129.129,0,0,0,.04-.1V1.457A.129.129,0,0,0,76.788,1.359Z" transform="translate(-71.806 0)" fill="#0b0b0b"/>
    </g>
  </g>
</svg>
