<svg xmlns="http://www.w3.org/2000/svg" width="26.931" height="28.979" viewBox="0 0 26.931 28.979">
  <g id="_022-growth" data-name="022-growth" transform="translate(-5.944 -4.771)">
    <g id="color">
      <g id="Group_34698" data-name="Group 34698">
        <g id="Group_34694" data-name="Group 34694">
          <path id="Path_27106" data-name="Path 27106" d="M30.875,29.5h2v1h-2Z" fill="#a4afc1"/>
        </g>
        <g id="Group_34695" data-name="Group 34695">
          <path id="Path_27107" data-name="Path 27107" d="M25.125,29.5h2v1h-2Z" fill="#a4afc1"/>
        </g>
        <g id="Group_34696" data-name="Group 34696">
          <path id="Path_27108" data-name="Path 27108" d="M28.625,26h1v2h-1Z" fill="#a4afc1"/>
        </g>
        <g id="Group_34697" data-name="Group 34697">
          <path id="Path_27109" data-name="Path 27109" d="M28.625,31.75h1v2h-1Z" fill="#a4afc1"/>
        </g>
      </g>
      <g id="Group_34699" data-name="Group 34699">
        <path id="Path_27110" data-name="Path 27110" d="M30.944,7.771a1.5,1.5,0,1,1,1.5-1.5A1.5,1.5,0,0,1,30.944,7.771Zm0-2a.5.5,0,1,0,.5.5A.5.5,0,0,0,30.944,5.771Z" fill="#a4afc1"/>
      </g>
      <g id="Group_34700" data-name="Group 34700">
        <circle id="Ellipse_2604" data-name="Ellipse 2604" cx="7.75" cy="7.75" r="7.75" transform="translate(7.75 7.71)" fill="#08c866"/>
      </g>
      <g id="Group_34701" data-name="Group 34701">
        <path id="Path_27111" data-name="Path 27111" d="M10,15.46A7.744,7.744,0,0,1,16.625,7.8a7.75,7.75,0,1,0,0,15.318A7.744,7.744,0,0,1,10,15.46Z" fill="#007c3d" opacity="0.5"/>
      </g>
    </g>
    <g id="line">
      <g id="Group_34704" data-name="Group 34704">
        <path id="Path_27114" data-name="Path 27114" d="M12.265,23.364a8.5,8.5,0,1,1,8.521-1.206l-.932-1.176a7,7,0,1,0-7.019,1Z"/>
      </g>
    </g>
    <g id="signs_3_" data-name="signs (3)" transform="translate(12.899 12.748)">
      <path id="Path_12624" data-name="Path 12624" d="M76.788,1.359a.143.143,0,0,0-.1-.038h-.766a1.442,1.442,0,0,0-.287-.614h1.044a.144.144,0,0,0,.1-.038.13.13,0,0,0,.04-.1V.136a.13.13,0,0,0-.04-.1.144.144,0,0,0-.1-.038H72.949a.144.144,0,0,0-.1.038.13.13,0,0,0-.04.1V.7a.128.128,0,0,0,.043.1.141.141,0,0,0,.1.04H73.6q.945,0,1.2.482h-1.85a.143.143,0,0,0-.1.038.13.13,0,0,0-.04.1v.435a.129.129,0,0,0,.04.1.143.143,0,0,0,.1.038h1.913a.843.843,0,0,1-.459.533,2.109,2.109,0,0,1-.952.183h-.5a.141.141,0,0,0-.1.04.128.128,0,0,0-.043.1v.541a.124.124,0,0,0,.04.094q.86.869,2.231,2.433A.135.135,0,0,0,75.189,6h.873a.131.131,0,0,0,.13-.077.112.112,0,0,0-.018-.145q-1.308-1.526-2.056-2.284a2.336,2.336,0,0,0,1.236-.469,1.574,1.574,0,0,0,.578-1h.753a.143.143,0,0,0,.1-.038.129.129,0,0,0,.04-.1V1.457A.129.129,0,0,0,76.788,1.359Z" transform="translate(-71.806 0)" fill="#0b0b0b"/>
    </g>
    <path id="Path_43222" data-name="Path 43222" d="M2927.776,2244.371l10.76-7.143,4.559,4.381,6.215-6.623-2.159-.182.174-1.774,5.216.295-.188,4.872-1.929-.119v-1.521l-7.329,7.711-4.717-4.46-9.246,6.263Z" transform="translate(-2921.101 -2215.592)" fill="#fff" stroke="#000" stroke-width="1"/>
  </g>
</svg>
