<svg xmlns="http://www.w3.org/2000/svg" width="36.839" height="45.811" viewBox="0 0 36.839 45.811"><defs><style>.a{fill:none;stroke:#444;stroke-linecap:round;stroke-linejoin:round;stroke-width:1.5px;}.b{fill:#fff200;opacity:0.2;}.c{fill:#e8e800;}</style></defs><g transform="translate(0.75 0.75)"><path class="a" d="M182.8,210.3H176a2,2,0,0,1-2-2V176a2,2,0,0,1,2-2h5.7" transform="translate(-174 -169.6)"/><path class="a" d="M194,174h5.7a2,2,0,0,1,2,2v11.2" transform="translate(-172 -169.6)"/><path class="a" d="M194.2,175.5H181v-3.371A2.128,2.128,0,0,1,183.129,170h8.943a2.128,2.128,0,0,1,2.129,2.129Z" transform="translate(-173.3 -170)"/><path class="b" d="M0,0H25V11.667L11.209,25.648,8.3,30H0Z" transform="translate(3 9)"/><line class="a" x2="17.6" transform="translate(5.6 23)"/><line class="a" x2="16.594" transform="translate(6.906 13.2)"/><line class="a" x2="13.2" transform="translate(5.6 27.4)"/><line class="a" x2="14.558" transform="translate(6.906 17.6)"/><g transform="translate(12.02 20.951)"><path class="a" d="M188.436,210.527l-1.322.277-1.013-1.013.277-1.322a9.623,9.623,0,0,1,2.613-4.827L202.7,189.93a3.021,3.021,0,0,1,4.271,0h0a3.022,3.022,0,0,1,0,4.272l-13.713,13.712A9.615,9.615,0,0,1,188.436,210.527Z" transform="translate(-184.81 -189.046)"/><line class="a" x2="4.272" y2="4.272" transform="translate(17.125 1.653)"/><line class="a" x2="4.272" y2="4.272" transform="translate(9.591 9.186)"/><path class="a" d="M202.23,197.01l1.762-1.763a1.544,1.544,0,0,1,2.184,0h0a1.544,1.544,0,0,1,0,2.184l-6.455,6.455" transform="translate(-183.448 -188.471)"/><line class="a" x1="1.798" y2="1.798" transform="translate(0 21.251)"/></g><rect class="c" width="20" height="8" rx="1" transform="translate(4.984 12)"/></g></svg>