<svg xmlns="http://www.w3.org/2000/svg" width="68.324" height="48" viewBox="0 0 68.324 48"><defs><style>.a{fill:none;stroke:#444;stroke-linecap:round;stroke-linejoin:round;stroke-width:1.5px;}.b,.d{fill:#007c3d;}.b{opacity:0.1;}.c{fill:#444;}</style></defs><rect class="a" width="49.171" height="28.924" transform="translate(7.942 9.599)"/><path class="a" d="M138.733,122.5a5.618,5.618,0,0,1-5.617-5.618" transform="translate(-84.512 -104.561)"/><path class="a" d="M107,129.116a5.449,5.449,0,0,1,5.449,5.449" transform="translate(-96.165 -99.103)"/><rect class="b" width="47" height="26" transform="translate(10.053 12)"/><path class="a" d="M107,122.5a5.618,5.618,0,0,0,5.617-5.618" transform="translate(-96.165 -104.561)"/><path class="a" d="M138.682,129.116a5.451,5.451,0,0,0-5.451,5.449" transform="translate(-84.461 -99.103)"/><path class="c" d="M536.406,247.139a.976.976,0,0,0-.312-.744l-3.118-3.191-1.455,1.489,1.351,1.382H518.735V248.2h14.137l-1.351,1.383,1.455,1.489,3.118-3.191A.976.976,0,0,0,536.406,247.139Z" transform="translate(-468.082 -203.074)"/><path class="c" d="M483.372,212.931a.976.976,0,0,0,.312.745l3.118,3.191,1.455-1.489-1.351-1.383h14.137v-2.127H486.906l1.351-1.383L486.8,209l-3.118,3.191A.976.976,0,0,0,483.372,212.931Z" transform="translate(-483.372 -208.996)"/><rect class="c" width="2.081" height="2.133" transform="translate(21.249 2.867)"/><rect class="c" width="2.081" height="2.133" transform="translate(25.711 2.867)"/><rect class="c" width="2.081" height="2.133" transform="translate(45.004 43)"/><rect class="c" width="2.081" height="2.133" transform="translate(40.528 43)"/><circle class="d" cx="8.182" cy="8.182" r="8.182" transform="translate(24.137 15.477)"/></svg>