<svg xmlns="http://www.w3.org/2000/svg" width="186.442" height="24.834" viewBox="0 0 186.442 24.834">
  <g id="BOM-BHIM-UPI-LOGO" transform="translate(2145 447)">
    <g id="Group_2129" data-name="Group 2129" transform="translate(-2145 -447)">
      <path id="Path_15517" data-name="Path 15517" d="M580.11,374.441l5.2,9.508-10.925,9.5Z" transform="translate(-479.223 -373.707)" fill="#257b33"/>
      <path id="Path_15518" data-name="Path 15518" d="M574.857,374.441l5.195,9.508-10.931,9.5Z" transform="translate(-477.615 -373.707)" fill="#ee6212"/>
      <path id="Path_15519" data-name="Path 15519" d="M463.254,392.853a2.515,2.515,0,0,0,1.008-1.339l1.731-5.7a1.316,1.316,0,0,0-.208-1.3,1.608,1.608,0,0,0-1.3-.526,2.782,2.782,0,0,0,1.629-.541,2.49,2.49,0,0,0,1-1.318l1.73-5.689a1.435,1.435,0,0,0-.171-1.371,1.558,1.558,0,0,0-1.314-.542H444.811l-5.729,18.867h22.544a2.77,2.77,0,0,0,1.628-.539m-15.463-14.641h14.848a1.479,1.479,0,0,1,.944.664,2.424,2.424,0,0,1,.114.719,2.545,2.545,0,0,1-.033.39l-.042.125-.142.476a2.776,2.776,0,0,1-2.233,1.542H446.6Zm13.358,10.048a2.789,2.789,0,0,1-2.169,1.443H444.3l1.18-3.887H460.3a1.421,1.421,0,0,1,1.084,1.014,2.113,2.113,0,0,1,.03.34l-.01.176-.006.074Z" transform="translate(-437.853 -373.733)" fill="#fff"/>
      <path id="Path_15520" data-name="Path 15520" d="M504.539,374.547l-2.266,7.578H486.012l2.264-7.578h-4.043l-5.625,18.805h4.045l2.258-7.546h16.263l-2.259,7.546h4.045l5.625-18.805Z" transform="translate(-449.939 -373.739)" fill="#fff"/>
      <path id="Path_15521" data-name="Path 15521" d="M521.689,393.442h-4.072l5.661-18.8h4.071Z" transform="translate(-461.866 -373.768)" fill="#fff"/>
      <path id="Path_15522" data-name="Path 15522" d="M558.668,374.616l-16.891,13.164-5.89-9-2.72-4.159h-.078l-1.281,4.272-4.344,14.474h4.043l3.045-10.146L541,393.388l10.678-9L549,393.363h4.045L557,380.2l1.677-5.586Z" transform="translate(-464.877 -373.76)" fill="#fff"/>
      <path id="Path_15523" data-name="Path 15523" d="M437.312,407.766l.723-2.781h.808a2.767,2.767,0,0,1,.5.031.6.6,0,0,1,.252.107.445.445,0,0,1,.167.248.644.644,0,0,1-.006.342.761.761,0,0,1-.217.371.838.838,0,0,1-.4.208.507.507,0,0,1,.382.223.584.584,0,0,1,.042.463,1,1,0,0,1-.154.32.939.939,0,0,1-.26.258,1.034,1.034,0,0,1-.367.166,3.41,3.41,0,0,1-.666.046Zm.607-.377h.18a3.055,3.055,0,0,0,.414-.021.758.758,0,0,0,.233-.065.564.564,0,0,0,.188-.149.543.543,0,0,0,.105-.2.38.38,0,0,0,0-.233.3.3,0,0,0-.14-.153l-.158-.049a1.912,1.912,0,0,0-.249-.014h-.339Zm.318-1.23h.2a1.3,1.3,0,0,0,.551-.088.447.447,0,0,0,.231-.3c.042-.153.021-.26-.058-.32a.946.946,0,0,0-.516-.092h-.2Z" transform="translate(-437.312 -383.046)" fill="#fff"/>
      <path id="Path_15524" data-name="Path 15524" d="M442.982,407.766l.724-2.781h.521l-.269,1.025h1.579l.266-1.025h.521l-.725,2.781h-.521l.351-1.352h-1.574l-.353,1.352Z" transform="translate(-439.046 -383.046)" fill="#fff"/>
      <path id="Path_15525" data-name="Path 15525" d="M451.684,407.717l-.176-.716h-1.273l-.554.716h-.55l2.306-2.891.8,2.891Zm-1.156-1.093h.893l-.163-.633-.023-.141c-.007-.052-.012-.11-.017-.176l-.1.169-.1.147Z" transform="translate(-440.926 -382.997)" fill="#fff"/>
      <path id="Path_15526" data-name="Path 15526" d="M456.8,406.522l-.325,1.244h-.489l.725-2.781h.726a2.608,2.608,0,0,1,.487.034.668.668,0,0,1,.269.119.5.5,0,0,1,.164.262.736.736,0,0,1-.012.35.956.956,0,0,1-.321.522,1.122,1.122,0,0,1-.608.229l.775,1.265h-.59l-.742-1.244Zm.124-.353h.1a1.316,1.316,0,0,0,.569-.084.436.436,0,0,0,.214-.3q.059-.23-.061-.325a.933.933,0,0,0-.514-.094h-.1Z" transform="translate(-443.021 -383.046)" fill="#fff"/>
      <path id="Path_15527" data-name="Path 15527" d="M463.475,407.717,463.3,407h-1.269l-.558.716h-.546l2.3-2.891.8,2.891Zm-1.157-1.093h.9l-.163-.633-.024-.141c-.007-.052-.011-.11-.017-.176l-.1.169-.1.147Z" transform="translate(-444.532 -382.997)" fill="#fff"/>
      <path id="Path_15528" data-name="Path 15528" d="M469.207,405.367l-.627,2.4h-.517l.621-2.4h-.849l.1-.382h2.219l-.1.382Z" transform="translate(-446.645 -383.046)" fill="#fff"/>
      <path id="Path_15529" data-name="Path 15529" d="M476.566,407.766l.724-2.781h.521l-.726,2.781Z" transform="translate(-449.314 -383.046)" fill="#fff"/>
      <path id="Path_15530" data-name="Path 15530" d="M480.345,407.717l.754-2.891,1.594,1.7.126.152c.043.057.085.118.13.187l.5-1.929h.482l-.752,2.888-1.625-1.728-.124-.149-.1-.164-.5,1.934Z" transform="translate(-450.47 -382.997)" fill="#fff"/>
      <path id="Path_15531" data-name="Path 15531" d="M489.264,405.367l-.622,2.4h-.523l.626-2.4h-.851l.1-.382h2.215l-.1.382Z" transform="translate(-452.778 -383.046)" fill="#fff"/>
      <path id="Path_15532" data-name="Path 15532" d="M492.711,407.766l.726-2.781h1.789l-.1.382h-1.267l-.183.7h1.266l-.1.4h-1.266l-.233.9h1.267l-.106.4Z" transform="translate(-454.251 -383.046)" fill="#fff"/>
      <path id="Path_15533" data-name="Path 15533" d="M498.912,406.522l-.326,1.244H498.1l.725-2.781h.727a2.561,2.561,0,0,1,.485.034.672.672,0,0,1,.271.119.506.506,0,0,1,.163.262.757.757,0,0,1-.013.35.942.942,0,0,1-.322.522,1.113,1.113,0,0,1-.606.229l.772,1.265h-.588l-.74-1.244Zm.123-.353h.1a1.3,1.3,0,0,0,.569-.084.428.428,0,0,0,.212-.3q.063-.23-.06-.325a.93.93,0,0,0-.514-.094h-.093Z" transform="translate(-455.898 -383.046)" fill="#fff"/>
      <path id="Path_15534" data-name="Path 15534" d="M503.665,407.766l.726-2.781h1.785l-.1.382H504.81l-.178.695H505.9l-.1.4h-1.266l-.34,1.307Z" transform="translate(-457.6 -383.046)" fill="#fff"/>
      <path id="Path_15535" data-name="Path 15535" d="M510.7,407.717l-.179-.716h-1.266l-.558.716h-.548l2.3-2.891.8,2.891Zm-1.155-1.093h.893l-.162-.633-.024-.141a1.541,1.541,0,0,1-.017-.176l-.1.169-.1.147Z" transform="translate(-458.971 -382.997)" fill="#fff"/>
      <path id="Path_15536" data-name="Path 15536" d="M518.082,405.63a1.243,1.243,0,0,0-.4-.245,1.451,1.451,0,0,0-.5-.082,1.558,1.558,0,0,0-.93.294,1.323,1.323,0,0,0-.526.757.786.786,0,0,0,.128.744.9.9,0,0,0,.731.293,1.938,1.938,0,0,0,.565-.087,2.394,2.394,0,0,0,.559-.264l-.13.511a2.066,2.066,0,0,1-.508.2,2.291,2.291,0,0,1-.553.065,1.9,1.9,0,0,1-.651-.1,1.213,1.213,0,0,1-.471-.308,1.02,1.02,0,0,1-.237-.471,1.325,1.325,0,0,1,.026-.577,1.7,1.7,0,0,1,.275-.573,2.107,2.107,0,0,1,.489-.474,2.265,2.265,0,0,1,1.318-.414,1.807,1.807,0,0,1,.524.071,1.558,1.558,0,0,1,.439.214Z" transform="translate(-461.107 -383.017)" fill="#fff"/>
      <path id="Path_15537" data-name="Path 15537" d="M521.469,407.766l.724-2.781h1.786l-.1.382h-1.266l-.183.7H523.7l-.1.4H522.33l-.238.9h1.27l-.1.4Z" transform="translate(-463.044 -383.046)" fill="#fff"/>
      <path id="Path_15538" data-name="Path 15538" d="M530.752,407.766l.724-2.781h1.788l-.1.382H531.9l-.18.695h1.268l-.1.4h-1.267l-.339,1.307Z" transform="translate(-465.883 -383.046)" fill="#fff"/>
      <path id="Path_15539" data-name="Path 15539" d="M539.813,406.353a1.658,1.658,0,0,1-.276.562,2.115,2.115,0,0,1-.5.469,2.415,2.415,0,0,1-.642.318,2.168,2.168,0,0,1-.679.109,1.678,1.678,0,0,1-.63-.111,1.213,1.213,0,0,1-.474-.316.991.991,0,0,1-.248-.468,1.172,1.172,0,0,1,.017-.564,1.659,1.659,0,0,1,.274-.564,2.088,2.088,0,0,1,.495-.471A2.407,2.407,0,0,1,537.8,405a2.194,2.194,0,0,1,.686-.107,1.715,1.715,0,0,1,.628.107,1.23,1.23,0,0,1,.472.316,1.008,1.008,0,0,1,.248.476,1.162,1.162,0,0,1-.016.56m-.546,0a.856.856,0,0,0,.017-.4.736.736,0,0,0-.165-.337.837.837,0,0,0-.317-.226,1.188,1.188,0,0,0-.432-.078,1.451,1.451,0,0,0-.468.078,1.631,1.631,0,0,0-.438.226,1.44,1.44,0,0,0-.342.335,1.2,1.2,0,0,0-.192.4.863.863,0,0,0-.018.4.743.743,0,0,0,.167.337.851.851,0,0,0,.321.226,1.173,1.173,0,0,0,.431.078,1.52,1.52,0,0,0,.465-.078,1.672,1.672,0,0,0,.436-.226,1.549,1.549,0,0,0,.346-.339,1.138,1.138,0,0,0,.188-.4" transform="translate(-467.592 -383.019)" fill="#fff"/>
      <path id="Path_15540" data-name="Path 15540" d="M544.445,406.522l-.324,1.244h-.486l.723-2.781h.725a2.6,2.6,0,0,1,.487.034.679.679,0,0,1,.269.119.5.5,0,0,1,.162.262.693.693,0,0,1-.01.35.955.955,0,0,1-.324.522,1.113,1.113,0,0,1-.608.229l.775,1.265h-.59l-.741-1.244Zm.123-.353h.1a1.327,1.327,0,0,0,.571-.084.441.441,0,0,0,.213-.3c.039-.153.021-.262-.061-.325a.938.938,0,0,0-.514-.094h-.1Z" transform="translate(-469.822 -383.046)" fill="#fff"/>
      <path id="Path_15541" data-name="Path 15541" d="M555.928,406.339c0-.021.012-.08.021-.178.01-.082.018-.146.023-.2a1.719,1.719,0,0,1-.106.188,2.129,2.129,0,0,1-.141.2l-1.225,1.484-.444-1.513a1.423,1.423,0,0,1-.044-.181l-.022-.174c-.017.058-.04.119-.063.182a1.656,1.656,0,0,1-.1.2l-.7,1.37h-.48l1.516-2.9.483,1.756a1.069,1.069,0,0,1,.033.138c.014.065.031.147.046.241a3.715,3.715,0,0,1,.225-.306l.058-.075,1.381-1.754.021,2.9h-.485Z" transform="translate(-472.579 -382.993)" fill="#fff"/>
      <path id="Path_15542" data-name="Path 15542" d="M564.338,406.353a1.6,1.6,0,0,1-.274.562,2.13,2.13,0,0,1-.494.469,2.492,2.492,0,0,1-.64.318,2.207,2.207,0,0,1-.683.109,1.7,1.7,0,0,1-.632-.111,1.222,1.222,0,0,1-.471-.316,1.019,1.019,0,0,1-.249-.468,1.175,1.175,0,0,1,.019-.564,1.642,1.642,0,0,1,.273-.564,2.1,2.1,0,0,1,.495-.471,2.42,2.42,0,0,1,.638-.316,2.207,2.207,0,0,1,.688-.107,1.7,1.7,0,0,1,.626.107,1.228,1.228,0,0,1,.474.316,1.037,1.037,0,0,1,.249.476,1.163,1.163,0,0,1-.019.56m-.542,0a.864.864,0,0,0,.017-.4.746.746,0,0,0-.167-.337.84.84,0,0,0-.32-.226,1.157,1.157,0,0,0-.427-.078,1.458,1.458,0,0,0-.471.078,1.691,1.691,0,0,0-.439.226,1.482,1.482,0,0,0-.339.335,1.186,1.186,0,0,0-.194.4.888.888,0,0,0-.017.4.743.743,0,0,0,.167.337.862.862,0,0,0,.321.226,1.167,1.167,0,0,0,.428.078,1.518,1.518,0,0,0,.469-.078,1.7,1.7,0,0,0,.437-.226,1.521,1.521,0,0,0,.344-.339,1.133,1.133,0,0,0,.192-.4" transform="translate(-475.091 -383.019)" fill="#fff"/>
      <path id="Path_15543" data-name="Path 15543" d="M568.159,407.717l.751-2.891,1.594,1.7.127.152c.044.057.088.118.133.187l.5-1.929h.481l-.753,2.888-1.625-1.728-.121-.149-.108-.164-.5,1.934Z" transform="translate(-477.32 -382.997)" fill="#fff"/>
      <path id="Path_15544" data-name="Path 15544" d="M575.294,407.766l.723-2.781h1.788l-.1.382h-1.269l-.179.7h1.267l-.1.4h-1.268l-.233.9h1.269l-.105.4Z" transform="translate(-479.502 -383.046)" fill="#fff"/>
      <path id="Path_15545" data-name="Path 15545" d="M581.516,407.766l.332-1.274-.687-1.507h.547l.427.943.036.094.037.128.1-.126.1-.109.93-.93h.521l-1.5,1.507-.33,1.274Z" transform="translate(-481.296 -383.046)" fill="#fff"/>
      <path id="Path_15546" data-name="Path 15546" d="M605.171,404.113h.526l-.489,2.043a.877.877,0,0,0,.042.683.619.619,0,0,0,.558.228.969.969,0,0,0,.664-.228,1.277,1.277,0,0,0,.369-.683l.489-2.043h.532l-.5,2.094a1.8,1.8,0,0,1-.581,1.021,1.674,1.674,0,0,1-1.093.339,1.1,1.1,0,0,1-.93-.338,1.214,1.214,0,0,1-.089-1.022Z" transform="translate(-488.464 -382.779)" fill="#fff"/>
      <path id="Path_15547" data-name="Path 15547" d="M609.2,407.419l.837-3.5,1.591,2.056c.043.058.085.12.128.186s.085.14.131.223l.558-2.332h.493l-.836,3.494-1.625-2.093a1.719,1.719,0,0,1-.121-.179,1.82,1.82,0,0,1-.1-.2l-.56,2.339Z" transform="translate(-489.868 -382.721)" fill="#fff"/>
      <path id="Path_15548" data-name="Path 15548" d="M614.516,407.477l.805-3.364h.532l-.8,3.364Z" transform="translate(-491.495 -382.78)" fill="#fff"/>
      <path id="Path_15549" data-name="Path 15549" d="M616.387,407.477l.805-3.364h1.829l-.111.464h-1.3l-.2.839h1.3l-.114.48h-1.3l-.378,1.581Z" transform="translate(-492.067 -382.78)" fill="#fff"/>
      <path id="Path_15550" data-name="Path 15550" d="M619.868,407.477l.805-3.364h.533l-.805,3.364Z" transform="translate(-493.131 -382.78)" fill="#fff"/>
      <path id="Path_15551" data-name="Path 15551" d="M621.74,407.477l.805-3.364h1.829l-.111.464h-1.3l-.2.843h1.3l-.115.48h-1.3l-.26,1.087h1.3l-.117.489Z" transform="translate(-493.704 -382.78)" fill="#fff"/>
      <path id="Path_15552" data-name="Path 15552" d="M625.256,407.477l.8-3.364h.719a4.288,4.288,0,0,1,.969.073.992.992,0,0,1,.443.242,1.02,1.02,0,0,1,.294.573,1.949,1.949,0,0,1-.044.8,2.458,2.458,0,0,1-.337.794,2.03,2.03,0,0,1-.568.571,1.764,1.764,0,0,1-.548.242,3.912,3.912,0,0,1-.871.072h-.862Zm.651-.494h.448a2.4,2.4,0,0,0,.566-.051,1.068,1.068,0,0,0,.362-.169,1.423,1.423,0,0,0,.376-.406,1.885,1.885,0,0,0,.228-.564,1.538,1.538,0,0,0,.042-.564.754.754,0,0,0-.182-.406.613.613,0,0,0-.292-.17,2.492,2.492,0,0,0-.594-.05h-.385Z" transform="translate(-494.779 -382.779)" fill="#fff"/>
      <path id="Path_15553" data-name="Path 15553" d="M633,405.968l-.362,1.51h-.5l.805-3.364h.806a2.392,2.392,0,0,1,.518.04.61.61,0,0,1,.262.133.565.565,0,0,1,.167.316,1.025,1.025,0,0,1-.017.437,1.347,1.347,0,0,1-.194.442,1.059,1.059,0,0,1-.317.316,1.017,1.017,0,0,1-.326.131,2.7,2.7,0,0,1-.537.039H633Zm.141-.448h.137a1.341,1.341,0,0,0,.615-.1.514.514,0,0,0,.231-.35c.044-.178.021-.305-.067-.378a.94.94,0,0,0-.555-.11h-.137Z" transform="translate(-496.884 -382.78)" fill="#fff"/>
      <path id="Path_15554" data-name="Path 15554" d="M637.265,407.419l-.165-.866h-1.3l-.589.866h-.559l2.424-3.5.749,3.5Zm-1.157-1.321h.914l-.152-.768c-.008-.049-.015-.1-.02-.169s-.01-.135-.012-.212c-.035.073-.072.142-.107.205s-.069.122-.1.176Z" transform="translate(-497.652 -382.721)" fill="#fff"/>
      <path id="Path_15555" data-name="Path 15555" d="M640.194,407.477l.369-1.539-.668-1.824h.56l.415,1.142.033.115.039.154.1-.152.1-.131.975-1.128h.533l-1.566,1.824-.369,1.539Z" transform="translate(-499.255 -382.78)" fill="#fff"/>
      <path id="Path_15556" data-name="Path 15556" d="M646.159,405.753c0-.026.008-.1.022-.216.011-.1.021-.179.027-.244a2.1,2.1,0,0,1-.112.23c-.044.077-.093.155-.149.235l-1.287,1.792-.419-1.829a2.05,2.05,0,0,1-.041-.219c-.009-.07-.016-.139-.019-.209a2.27,2.27,0,0,1-.069.221c-.028.078-.062.158-.1.243l-.748,1.656h-.49l1.614-3.507.46,2.123c.007.034.017.09.028.168s.026.175.041.29c.055-.1.133-.219.236-.367l.063-.092,1.452-2.121-.046,3.507h-.5Z" transform="translate(-500.134 -382.717)" fill="#fff"/>
      <path id="Path_15557" data-name="Path 15557" d="M648.927,407.477l.805-3.364h1.829l-.11.464h-1.3l-.2.843h1.3l-.115.48h-1.3l-.26,1.087h1.3l-.117.489Z" transform="translate(-502.016 -382.78)" fill="#fff"/>
      <path id="Path_15558" data-name="Path 15558" d="M652.443,407.419l.837-3.5,1.591,2.056c.042.058.085.12.128.186s.086.14.131.223l.558-2.332h.493l-.837,3.494-1.624-2.093a2.011,2.011,0,0,1-.226-.376l-.56,2.339Z" transform="translate(-503.091 -382.721)" fill="#fff"/>
      <path id="Path_15559" data-name="Path 15559" d="M659.657,404.577l-.694,2.9h-.533l.694-2.9h-.871l.111-.464h2.271l-.11.464Z" transform="translate(-504.868 -382.779)" fill="#fff"/>
      <path id="Path_15560" data-name="Path 15560" d="M661.073,406.771l.473-.2a.454.454,0,0,0,.14.344.559.559,0,0,0,.383.118.634.634,0,0,0,.637-.5c.048-.2-.071-.374-.353-.528l-.092-.051a1.638,1.638,0,0,1-.6-.491.705.705,0,0,1-.052-.536,1.155,1.155,0,0,1,.432-.667,1.242,1.242,0,0,1,.774-.255,1,1,0,0,1,.573.144.545.545,0,0,1,.24.412l-.468.221a.522.522,0,0,0-.162-.233.42.42,0,0,0-.252-.073.6.6,0,0,0-.369.115.526.526,0,0,0-.2.308c-.049.2.092.39.42.565l.06.033a1.4,1.4,0,0,1,.56.449.728.728,0,0,1,.051.548,1.328,1.328,0,0,1-.476.759,1.36,1.36,0,0,1-.861.281.923.923,0,0,1-.638-.2.707.707,0,0,1-.215-.565" transform="translate(-505.73 -382.746)" fill="#fff"/>
      <path id="Path_15561" data-name="Path 15561" d="M666.744,407.477l.805-3.364h.533l-.805,3.364Z" transform="translate(-507.464 -382.78)" fill="#fff"/>
      <path id="Path_15562" data-name="Path 15562" d="M668.615,407.419l.837-3.5,1.591,2.056c.042.058.085.12.128.186s.085.14.13.223l.558-2.332h.493l-.837,3.494-1.625-2.093a1.97,1.97,0,0,1-.121-.179,1.853,1.853,0,0,1-.1-.2l-.559,2.339Z" transform="translate(-508.036 -382.721)" fill="#fff"/>
      <path id="Path_15563" data-name="Path 15563" d="M675.83,404.577l-.694,2.9H674.6l.694-2.9h-.871l.11-.464h2.271l-.11.464Z" transform="translate(-509.813 -382.779)" fill="#fff"/>
      <path id="Path_15564" data-name="Path 15564" d="M677.284,407.477l.805-3.364h1.829l-.11.464h-1.3l-.2.843h1.3l-.115.48h-1.3l-.26,1.087h1.3l-.117.489Z" transform="translate(-510.687 -382.78)" fill="#fff"/>
      <path id="Path_15565" data-name="Path 15565" d="M681.66,405.972l-.36,1.505h-.5l.806-3.364h.743a2.13,2.13,0,0,1,.5.044.588.588,0,0,1,.273.144.581.581,0,0,1,.16.315,1,1,0,0,1-.018.423,1.238,1.238,0,0,1-.342.633,1.082,1.082,0,0,1-.628.274l.762,1.53h-.6l-.73-1.505Zm.135-.425h.1a1.19,1.19,0,0,0,.586-.1.545.545,0,0,0,.225-.358.391.391,0,0,0-.055-.391.824.824,0,0,0-.525-.114h-.1Z" transform="translate(-511.762 -382.779)" fill="#fff"/>
      <path id="Path_15566" data-name="Path 15566" d="M684.5,407.477l.805-3.364h1.829l-.11.464h-1.3l-.2.839h1.3l-.115.48h-1.3l-.378,1.581Z" transform="translate(-512.894 -382.78)" fill="#fff"/>
      <path id="Path_15567" data-name="Path 15567" d="M689.7,407.419l-.165-.866h-1.3l-.588.866h-.56l2.424-3.5.749,3.5Zm-1.157-1.321h.914l-.152-.768c-.008-.049-.015-.1-.02-.169s-.009-.135-.012-.212c-.035.073-.071.142-.106.205s-.07.122-.1.176Z" transform="translate(-513.686 -382.721)" fill="#fff"/>
      <path id="Path_15568" data-name="Path 15568" d="M695.321,404.9a1.178,1.178,0,0,0-.407-.3,1.276,1.276,0,0,0-.506-.1,1.45,1.45,0,0,0-.959.353,1.67,1.67,0,0,0-.557.917,1.082,1.082,0,0,0,.114.9.838.838,0,0,0,.742.353,1.665,1.665,0,0,0,.58-.105,2.366,2.366,0,0,0,.582-.319l-.148.618a2.008,2.008,0,0,1-1.091.315,1.654,1.654,0,0,1-.666-.126,1.155,1.155,0,0,1-.471-.372,1.229,1.229,0,0,1-.233-.569,1.809,1.809,0,0,1,.038-.7,2.289,2.289,0,0,1,.3-.695,2.374,2.374,0,0,1,.51-.571,2.245,2.245,0,0,1,.65-.376,2.041,2.041,0,0,1,.714-.128,1.563,1.563,0,0,1,.53.086,1.424,1.424,0,0,1,.446.261Z" transform="translate(-515.273 -382.744)" fill="#fff"/>
      <path id="Path_15569" data-name="Path 15569" d="M696.735,407.477l.805-3.364h1.83l-.111.464h-1.3l-.2.843h1.3l-.115.48h-1.3l-.26,1.087h1.3l-.117.489Z" transform="translate(-516.634 -382.78)" fill="#fff"/>
      <path id="Path_15570" data-name="Path 15570" d="M681.118,391.786h-3.664l5.1-18.4h3.664Z" transform="translate(-510.739 -373.383)" fill="#fff"/>
      <path id="Path_15571" data-name="Path 15571" d="M668.352,373.989a1.358,1.358,0,0,0-1.178-.527H647.027l-1,3.6H649.7v0h14.662l-1.067,3.852H648.628v-.009h-3.665l-3.041,10.98h3.666l2.041-7.369h16.482a2.34,2.34,0,0,0,1.454-.527,2.444,2.444,0,0,0,.9-1.3l2.041-7.371a1.5,1.5,0,0,0-.154-1.329" transform="translate(-499.875 -373.407)" fill="#fff"/>
      <path id="Path_15572" data-name="Path 15572" d="M629.2,390.661a1.683,1.683,0,0,1-1.622,1.233h-18.9a1.322,1.322,0,0,1-1.15-.526,1.465,1.465,0,0,1-.162-1.3l4.613-16.6h3.667l-4.12,14.83h14.669l4.12-14.83h3.666Z" transform="translate(-489.282 -373.407)" fill="#fff"/>
      <path id="Path_15573" data-name="Path 15573" d="M696.935,373.433l4.639,9.226-9.751,9.222Z" transform="translate(-515.132 -373.398)" fill="#236f30"/>
      <path id="Path_15574" data-name="Path 15574" d="M692.248,373.433l4.635,9.226-9.755,9.222Z" transform="translate(-513.697 -373.398)" fill="#e35f17"/>
      <line id="Line_211" data-name="Line 211" y2="18.587" transform="translate(110.743 2.596)" fill="#5a5c5e"/>
      <line id="Line_212" data-name="Line 212" y2="18.587" transform="translate(110.743 2.596)" fill="none" stroke="#5a5c5e" stroke-miterlimit="10" stroke-width="0.8"/>
    </g>
  </g>
</svg>
