<svg id="Component_117_1" data-name="Component 117 – 1" xmlns="http://www.w3.org/2000/svg" width="51.11" height="26.15" viewBox="0 0 51.11 26.15">
  <g id="Group_2132" data-name="Group 2132" transform="translate(0 8.092)">
    <path id="Path_15575" data-name="Path 15575" d="M382.793,516.578h.383l-.356,1.486a.641.641,0,0,0,.031.495.452.452,0,0,0,.4.165.71.71,0,0,0,.483-.165.921.921,0,0,0,.271-.495l.355-1.486h.385l-.361,1.52a1.321,1.321,0,0,1-.425.744,1.225,1.225,0,0,1-.794.246.806.806,0,0,1-.677-.246.89.89,0,0,1-.063-.744Z" transform="translate(-382.384 -501.064)" fill="#323133"/>
    <path id="Path_15576" data-name="Path 15576" d="M384.374,519.037l.607-2.545,1.158,1.5.091.132.1.164.405-1.694h.359l-.608,2.542-1.181-1.522-.091-.134-.075-.143-.4,1.7Z" transform="translate(-382.056 -501.078)" fill="#323133"/>
    <path id="Path_15577" data-name="Path 15577" d="M386.679,519.023l.586-2.444h.385l-.582,2.444Z" transform="translate(-381.676 -501.064)" fill="#323133"/>
    <path id="Path_15578" data-name="Path 15578" d="M387.49,519.023l.585-2.444h1.33l-.082.335h-.939l-.149.608h.941l-.083.353h-.941l-.276,1.148Z" transform="translate(-381.543 -501.064)" fill="#323133"/>
    <path id="Path_15579" data-name="Path 15579" d="M389,519.023l.586-2.444h.387l-.587,2.444Z" transform="translate(-381.295 -501.064)" fill="#323133"/>
    <path id="Path_15580" data-name="Path 15580" d="M389.808,519.023l.587-2.444h1.33l-.08.335h-.94l-.149.613h.943l-.085.349h-.943l-.189.791h.941l-.084.356Z" transform="translate(-381.161 -501.064)" fill="#323133"/>
    <path id="Path_15581" data-name="Path 15581" d="M391.335,519.024l.582-2.446h.524a3.044,3.044,0,0,1,.7.052.7.7,0,0,1,.324.175.734.734,0,0,1,.214.418,1.429,1.429,0,0,1-.031.579,1.884,1.884,0,0,1-.246.578,1.475,1.475,0,0,1-.415.413,1.357,1.357,0,0,1-.4.178,3.008,3.008,0,0,1-.636.052h-.623Zm.472-.36h.326a1.684,1.684,0,0,0,.411-.038l.263-.121a1.015,1.015,0,0,0,.275-.3,1.461,1.461,0,0,0,.164-.412,1.1,1.1,0,0,0,.03-.408.53.53,0,0,0-.133-.292l-.21-.126a1.89,1.89,0,0,0-.433-.035h-.282Z" transform="translate(-380.91 -501.064)" fill="#323133"/>
    <path id="Path_15582" data-name="Path 15582" d="M394.942,517.924l-.262,1.1h-.366l.588-2.445h.583a1.757,1.757,0,0,1,.378.029l.192.093.12.233a.732.732,0,0,1-.012.319,1.078,1.078,0,0,1-.137.319l-.234.231-.236.094a1.854,1.854,0,0,1-.389.028h-.226Zm.1-.326h.1a.952.952,0,0,0,.448-.072.38.38,0,0,0,.167-.254c.033-.129.015-.224-.049-.274a.665.665,0,0,0-.4-.079h-.1Z" transform="translate(-380.42 -501.064)" fill="#323133"/>
    <path id="Path_15583" data-name="Path 15583" d="M397.3,519.037l-.12-.631h-.943l-.424.631h-.406l1.76-2.543.545,2.543Zm-.839-.96h.663l-.106-.558L397,517.4l-.01-.155-.076.148-.076.13Z" transform="translate(-380.24 -501.078)" fill="#323133"/>
    <path id="Path_15584" data-name="Path 15584" d="M397.9,519.023l.267-1.118-.486-1.326h.409l.3.829.024.083.024.113.077-.111.075-.1.71-.819h.389l-1.139,1.326-.269,1.118Z" transform="translate(-379.866 -501.064)" fill="#323133"/>
    <path id="Path_15585" data-name="Path 15585" d="M401.388,517.829l.017-.157.017-.176-.083.165-.107.17-.936,1.3-.305-1.331-.031-.156-.01-.153-.052.161-.072.175-.544,1.205h-.358l1.174-2.546.333,1.541.023.122.027.211.175-.267.042-.069,1.059-1.538-.035,2.546h-.359Z" transform="translate(-379.661 -501.078)" fill="#323133"/>
    <path id="Path_15586" data-name="Path 15586" d="M401.59,519.023l.587-2.444h1.332l-.084.335h-.939l-.149.613h.942l-.084.349h-.942l-.189.791h.941l-.085.356Z" transform="translate(-379.222 -501.064)" fill="#323133"/>
    <path id="Path_15587" data-name="Path 15587" d="M403.115,519.037l.607-2.545,1.159,1.5.094.132.093.164.405-1.694h.359l-.607,2.542-1.181-1.522-.089-.134-.076-.143-.41,1.7Z" transform="translate(-378.971 -501.078)" fill="#323133"/>
    <path id="Path_15588" data-name="Path 15588" d="M406.655,516.914l-.5,2.109h-.39l.505-2.109h-.632l.079-.335h1.653l-.079.335Z" transform="translate(-378.556 -501.064)" fill="#323133"/>
    <path id="Path_15589" data-name="Path 15589" d="M406.857,518.542l.341-.148a.322.322,0,0,0,.1.25.4.4,0,0,0,.277.086.461.461,0,0,0,.3-.1.48.48,0,0,0,.167-.266c.034-.142-.051-.273-.256-.382l-.066-.036a1.225,1.225,0,0,1-.441-.358.5.5,0,0,1-.036-.39.828.828,0,0,1,.314-.484.881.881,0,0,1,.562-.187.742.742,0,0,1,.419.107.408.408,0,0,1,.17.3l-.34.163-.116-.169-.185-.054-.266.086-.147.219c-.036.148.069.285.3.415l.044.021a1.006,1.006,0,0,1,.406.33.5.5,0,0,1,.035.4.964.964,0,0,1-.342.553,1.006,1.006,0,0,1-.627.2.688.688,0,0,1-.466-.143.512.512,0,0,1-.154-.412" transform="translate(-378.355 -501.072)" fill="#323133"/>
    <path id="Path_15590" data-name="Path 15590" d="M409.314,519.023l.587-2.444h.388l-.588,2.444Z" transform="translate(-377.95 -501.064)" fill="#323133"/>
    <path id="Path_15591" data-name="Path 15591" d="M410.125,519.037l.61-2.545,1.155,1.5.09.132.1.164.4-1.694h.359l-.608,2.542-1.181-1.522-.089-.134-.078-.143-.405,1.7Z" transform="translate(-377.817 -501.078)" fill="#323133"/>
    <path id="Path_15592" data-name="Path 15592" d="M413.664,516.914l-.5,2.109h-.39l.505-2.109h-.632l.079-.335h1.651l-.079.335Z" transform="translate(-377.402 -501.064)" fill="#323133"/>
    <path id="Path_15593" data-name="Path 15593" d="M413.883,519.023l.586-2.444H415.8l-.083.335h-.942l-.147.613h.945l-.085.349h-.941l-.191.791h.942l-.085.356Z" transform="translate(-377.198 -501.064)" fill="#323133"/>
    <path id="Path_15594" data-name="Path 15594" d="M416.031,517.929l-.262,1.095h-.363l.586-2.447h.54a1.717,1.717,0,0,1,.361.031l.2.106.115.227a.751.751,0,0,1-.013.311.915.915,0,0,1-.247.458.779.779,0,0,1-.455.2l.554,1.115h-.441l-.531-1.095Zm.1-.31h.071a.861.861,0,0,0,.427-.076.388.388,0,0,0,.164-.259.282.282,0,0,0-.041-.285.615.615,0,0,0-.383-.082H416.3Z" transform="translate(-376.948 -501.064)" fill="#323133"/>
    <path id="Path_15595" data-name="Path 15595" d="M417.01,519.023l.583-2.444h1.333l-.083.335h-.94l-.148.608h.942l-.083.353h-.946l-.274,1.148Z" transform="translate(-376.684 -501.064)" fill="#323133"/>
    <path id="Path_15596" data-name="Path 15596" d="M420.03,519.037l-.116-.631h-.946l-.431.631h-.405l1.764-2.543.544,2.543Zm-.841-.96h.664l-.109-.558-.014-.123-.009-.155-.077.148-.075.13Z" transform="translate(-376.499 -501.078)" fill="#323133"/>
    <path id="Path_15597" data-name="Path 15597" d="M422.594,517.179a.881.881,0,0,0-.3-.214.922.922,0,0,0-.37-.073,1.04,1.04,0,0,0-.7.26,1.2,1.2,0,0,0-.406.665.8.8,0,0,0,.082.653.618.618,0,0,0,.544.259,1.217,1.217,0,0,0,.419-.078,1.634,1.634,0,0,0,.422-.233l-.107.45a1.4,1.4,0,0,1-.381.17,1.466,1.466,0,0,1-.413.061,1.214,1.214,0,0,1-.483-.092.893.893,0,0,1-.344-.273.863.863,0,0,1-.163-.414,1.179,1.179,0,0,1,.022-.507,1.671,1.671,0,0,1,.586-.921,1.749,1.749,0,0,1,.47-.273,1.485,1.485,0,0,1,.521-.091,1.11,1.11,0,0,1,.387.062,1.019,1.019,0,0,1,.324.19Z" transform="translate(-376.128 -501.072)" fill="#323133"/>
    <path id="Path_15598" data-name="Path 15598" d="M422.312,519.023l.587-2.444h1.33l-.082.335H423.2l-.144.613H424l-.083.349h-.943l-.191.791h.945l-.086.356Z" transform="translate(-375.811 -501.064)" fill="#323133"/>
    <path id="Path_15599" data-name="Path 15599" d="M416.619,516.637h-2.665l3.708-13.38h2.663Z" transform="translate(-377.186 -503.257)" fill="#5a5c5e"/>
    <path id="Path_15600" data-name="Path 15600" d="M417.771,503.676a.981.981,0,0,0-.857-.381H402.268l-.729,2.618h2.668v0h10.659l-.774,2.8h-10.66v-.007h-2.664l-2.21,7.982h2.663l1.486-5.357h11.982a1.692,1.692,0,0,0,1.059-.384A1.785,1.785,0,0,0,416.4,510l1.481-5.357a1.092,1.092,0,0,0-.112-.968" transform="translate(-379.721 -503.251)" fill="#5a5c5e"/>
    <path id="Path_15601" data-name="Path 15601" d="M399.475,515.8a1.222,1.222,0,0,1-1.179.9H384.553a.95.95,0,0,1-.834-.385,1.063,1.063,0,0,1-.118-.947l3.354-12.072h2.665l-2.993,10.783H397.29l3-10.783h2.666Z" transform="translate(-382.192 -503.251)" fill="#5a5c5e"/>
    <path id="Path_15602" data-name="Path 15602" d="M423.9,503.282l3.372,6.7-7.091,6.707Z" transform="translate(-376.162 -503.253)" fill="#247b33"/>
    <path id="Path_15603" data-name="Path 15603" d="M421.873,503.282l3.368,6.7-7.094,6.707Z" transform="translate(-376.496 -503.253)" fill="#f16112"/>
  </g>
  <path id="Path_15604" data-name="Path 15604" d="M1.217-1.853V0H.643V-4.9H1.989a1.777,1.777,0,0,1,1.219.383,1.367,1.367,0,0,1,.432,1.08A1.485,1.485,0,0,1,3.16-2.3a1.835,1.835,0,0,1-1.3.444Zm0-2.529v2.01h.6a1.345,1.345,0,0,0,.907-.272.962.962,0,0,0,.313-.767q0-.971-1.148-.971ZM6.539.082A2.151,2.151,0,0,1,4.869-.6a2.548,2.548,0,0,1-.627-1.788,2.7,2.7,0,0,1,.639-1.887,2.232,2.232,0,0,1,1.74-.7A2.1,2.1,0,0,1,8.256-4.3a2.557,2.557,0,0,1,.62,1.788,2.709,2.709,0,0,1-.636,1.9A2.191,2.191,0,0,1,6.539.082ZM6.58-4.464a1.58,1.58,0,0,0-1.254.557,2.157,2.157,0,0,0-.482,1.463,2.172,2.172,0,0,0,.47,1.458,1.533,1.533,0,0,0,1.225.552A1.609,1.609,0,0,0,7.81-.96a2.151,2.151,0,0,0,.465-1.473,2.248,2.248,0,0,0-.451-1.5A1.547,1.547,0,0,0,6.58-4.464Zm8.9-.437L14.1,0h-.673L12.414-3.582a2.242,2.242,0,0,1-.079-.5h-.014a2.532,2.532,0,0,1-.089.492L11.218,0h-.667L9.116-4.9h.632l1.042,3.76a2.468,2.468,0,0,1,.082.492h.017A2.905,2.905,0,0,1,11-1.142L12.079-4.9h.55l1.039,3.787a2.77,2.77,0,0,1,.082.458h.014a2.746,2.746,0,0,1,.092-.472l1-3.773ZM18.806,0h-2.6V-4.9H18.7v.52H16.782v1.63h1.771v.516H16.782V-.52h2.023Zm4.457,0h-.684l-.82-1.374A2.993,2.993,0,0,0,21.54-1.7a1.247,1.247,0,0,0-.217-.22.752.752,0,0,0-.239-.125.984.984,0,0,0-.289-.039h-.472V0h-.574V-4.9h1.463a2.085,2.085,0,0,1,.593.08,1.327,1.327,0,0,1,.472.244,1.136,1.136,0,0,1,.313.408A1.354,1.354,0,0,1,22.7-3.6a1.379,1.379,0,0,1-.077.47,1.227,1.227,0,0,1-.219.381,1.326,1.326,0,0,1-.342.285,1.745,1.745,0,0,1-.449.183v.014a1.034,1.034,0,0,1,.214.125A1.176,1.176,0,0,1,22-1.972a2.2,2.2,0,0,1,.162.217q.08.121.179.282ZM20.323-4.382V-2.6H21.1a1.182,1.182,0,0,0,.4-.065.922.922,0,0,0,.316-.186.845.845,0,0,0,.208-.3,1,1,0,0,0,.075-.395.768.768,0,0,0-.255-.614,1.094,1.094,0,0,0-.737-.22ZM26.534,0h-2.6V-4.9h2.488v.52H24.51v1.63h1.771v.516H24.51V-.52h2.023Zm.943,0V-4.9h1.354q2.591,0,2.591,2.389A2.408,2.408,0,0,1,30.7-.689,2.669,2.669,0,0,1,28.776,0Zm.574-4.382V-.52h.731a2.076,2.076,0,0,0,1.5-.516A1.935,1.935,0,0,0,30.82-2.5q0-1.883-2-1.883ZM34.3,0V-4.9H35.7a1.524,1.524,0,0,1,1.008.311,1,1,0,0,1,.373.81,1.192,1.192,0,0,1-.226.725,1.216,1.216,0,0,1-.622.438V-2.6a1.247,1.247,0,0,1,.793.374,1.151,1.151,0,0,1,.3.822A1.281,1.281,0,0,1,36.87-.39,1.679,1.679,0,0,1,35.731,0Zm.574-4.382V-2.8h.588a1.116,1.116,0,0,0,.742-.227.792.792,0,0,0,.27-.641q0-.714-.94-.714Zm0,2.1V-.52h.779a1.168,1.168,0,0,0,.784-.239.82.82,0,0,0,.279-.656q0-.868-1.183-.868Zm6.4-2.618-1.617,3.09V0h-.574V-1.8L37.509-4.9h.653l1.1,2.215q.021.041.12.3h.01a1.8,1.8,0,0,1,.13-.3L40.667-4.9Z" transform="translate(4 4.983)" fill="#323133"/>
</svg>
