<svg xmlns="http://www.w3.org/2000/svg" width="953.231" height="250" viewBox="0 0 953.231 250">
  <g id="Group_40287" data-name="Group 40287" transform="translate(-11329.33 -2709.453)">
    <g id="Group_40130" data-name="Group 40130" transform="translate(11329.33 2709.453)">
      <g id="Group_40122" data-name="Group 40122" transform="translate(0 0)">
        <g id="wi-fi" transform="translate(781.521 0)">
          <g id="Group_39658" data-name="Group 39658" transform="translate(0)">
            <path id="Path_43342" data-name="Path 43342" d="M31.716,12.806c-.081-.083-.166-.157-.249-.233l-.244-.231a1.19,1.19,0,0,0-.137-.114A17.725,17.725,0,0,0,6.6,12.8l-.786.788L4.728,14.68A3.411,3.411,0,0,0,9.552,19.5l1.877-1.877a10.95,10.95,0,0,1,15.462,0l1.355,1.312a3.384,3.384,0,0,0,5.765-2.4,3.322,3.322,0,0,0-.983-2.381Z" transform="translate(11.697 17.442)" fill="#fff200"/>
            <path id="Path_43343" data-name="Path 43343" d="M45.605,12.329,44.477,11.2s-.007-.011-.016-.013l-.891-.9a3.215,3.215,0,0,0-.506-.405,29.579,29.579,0,0,0-39.955.92c-.054.049-.114.083-.168.137L.9,12.983a3.111,3.111,0,0,0,4.4,4.4l2.038-2.036A.265.265,0,0,1,7.38,15.3,23.351,23.351,0,0,1,39.6,15.124l1.6,1.606a3.111,3.111,0,0,0,4.4-4.4Z" transform="translate(7.063 11.202)" fill="#fff"/>
            <path id="Path_44029" data-name="Path 44029" d="M59.458,15.293l-1.472-1.472c-.006-.006-.009-.015-.02-.018L56.8,12.636a4.191,4.191,0,0,0-.66-.529,38.563,38.563,0,0,0-52.091,1.2c-.07.064-.149.108-.219.178l-2.657,2.66a4.056,4.056,0,0,0,5.738,5.735l2.657-2.654a.344.344,0,0,1,.05-.058,30.443,30.443,0,0,1,42.011-.231l2.091,2.094a4.056,4.056,0,0,0,5.735-5.738Z" transform="translate(0 -2.569)" fill="#fff200"/>
          </g>
        </g>
        <g id="Group_40119" data-name="Group 40119" transform="translate(0 42.169)">
          <circle id="Ellipse_2679" data-name="Ellipse 2679" cx="62.504" cy="62.504" r="62.504" transform="translate(14.889 99.627) rotate(-45)" fill="#fff200"/>
          <g id="Group_39529" data-name="Group 39529" transform="translate(0 6.91)">
            <path id="Path_28512" data-name="Path 28512" d="M532.443,475.614c-29.643,16.7-49.751,49.11-49.751,86.338,0,54.254,42.71,98.19,95.394,98.132,46.1-.05,82.881-34.784,82.881-82.257,0-3.745-.556-8.629-1.747-10.724l.035,2.456c0,45.112-35.472,83.894-79.229,83.941-50.009.054-92.729-43.87-92.729-95.426C487.3,524.142,507.538,494.016,532.443,475.614Z" transform="translate(-482.692 -475.614)" fill="#fff200" fill-rule="evenodd"/>
          </g>
          <g id="Group_39530" data-name="Group 39530" transform="translate(49.704 18.777)">
            <path id="Path_28513" data-name="Path 28513" d="M603.972,678.21c29.33,17.236,67.551,18.385,99.9-.227,47.144-27.127,63.968-85.959,37.576-131.4-23.094-39.764-71.667-54.143-112.919-30.407-3.254,1.872-7.22,4.795-8.445,6.87l2.117-1.258c39.2-22.556,90.636-11.33,112.556,26.414C759.807,591.335,743,650.168,698.2,675.946,668.715,692.912,632.415,690.5,603.972,678.21Z" transform="translate(-603.972 -504.668)" fill="#fff200" fill-rule="evenodd"/>
          </g>
          <g id="Group_39531" data-name="Group 39531" transform="translate(16.113)">
            <path id="Path_28514" data-name="Path 28514" d="M716.734,558.352c.313-33.933-17.8-67.5-50.148-86.109-47.144-27.128-106.678-12.232-132.971,33.269-23.006,39.814-11.213,88.928,30.038,112.664,3.254,1.873,7.776,3.835,10.191,3.854l-2.15-1.2c-39.2-22.556-55.164-72.564-33.326-110.355,24.957-43.189,84.484-58.1,129.285-32.321C697.138,495.122,713.2,527.655,716.734,558.352Z" transform="translate(-522.007 -458.697)" fill="#fff200" fill-rule="evenodd"/>
          </g>
          <g id="Group_39532" data-name="Group 39532" transform="translate(80.802 48.88)">
            <path id="Path_28515" data-name="Path 28515" d="M710.175,805.475l-.934.958-.95-.972.935-.957.948.972Zm6.882-6.6,2.418-.006a2.693,2.693,0,0,0-.664-1.595,1.367,1.367,0,0,0-1.146-.583c-.931.126-1.183,1.437-.608,2.184Zm-3.859,3.116a1.3,1.3,0,0,0-.4.423,1.225,1.225,0,0,0-.264.711,1.093,1.093,0,0,0,.336.906,1.473,1.473,0,0,0,.846.266,1,1,0,0,0,.409-.042l.439-.226-1.368-2.038Zm1.9,1.708-1.345-2.037a.941.941,0,0,1,.4-.106h.438a1.08,1.08,0,0,1,.744.283,1.233,1.233,0,0,1,.379.972,1.124,1.124,0,0,1-.617.888Zm1.4-4.792a2.749,2.749,0,0,1-.564-1.16,1.633,1.633,0,0,1,.491-1.481,2.044,2.044,0,0,1,1.192-.411,1.8,1.8,0,0,1,1.446.777,4.425,4.425,0,0,1,.846,2.238h1.152l.454.891H720.16v6.953l-1.249-.523v-6.43h-1.569v6.953l-1.129-.523V804.23a2.244,2.244,0,0,1-.686.5,3.259,3.259,0,0,1-1.5.352,2.627,2.627,0,0,1-.964-.145,2.89,2.89,0,0,1-.916-.558,2.6,2.6,0,0,1-.759-1.714,2.072,2.072,0,0,1,.562-1.294,2.818,2.818,0,0,1,2.043-.724,3.14,3.14,0,0,1,1.391.38,2.286,2.286,0,0,1,.83.741v-2.007h-5.148l-.423-.891,5.858.037Zm-13.625.854a2.917,2.917,0,0,1,.156,2.619l.458.251a1.615,1.615,0,0,0,.8.18,1.972,1.972,0,0,0,.286-.022c.1-.014.057-.07.236-.142a2.362,2.362,0,0,0,.7-.389v-2.5Zm-.726,0h-3.2v3.828a.6.6,0,0,1-.659.612h-.351a.989.989,0,0,0-.19-.029l-.54-.1-.766-.748.827.044c.275.015.414-.094.414-.284v-3.32h-2.082v3.814a1.24,1.24,0,0,0,.052.344.349.349,0,0,0,.139.225l3.84,2.482a2.591,2.591,0,0,1,.606.479.849.849,0,0,1,.169.433,2.347,2.347,0,0,1-.483.958l-.744-.673a1.276,1.276,0,0,0,.183-.247.524.524,0,0,0,.08-.247c0-.119-.115-.281-.379-.432l-4.287-2.439a1.05,1.05,0,0,1-.453-.987v-3.709h-.955l-.436-.891h14.322l.422.891h-.93v6.953l-1.234-.523v-2.84a1.26,1.26,0,0,0-.25.09,3.4,3.4,0,0,1-.439.143c-.176.043-.139.067-.247.067a2.174,2.174,0,0,1-.932-.2,2.56,2.56,0,0,1-.8-.605l-.305.328a2.458,2.458,0,0,1-.351.3,2.42,2.42,0,0,0-.343.194.293.293,0,0,0-.073.09.178.178,0,0,0-.022.06c.166.188.312.359.438.508l.729.778,1.14,1.2-.32.67c-1.265-1.436-2.357-2.525-2.736-3.012a4.641,4.641,0,0,1-.753-1.178c-.09-.281.3-.906.835-.969a.554.554,0,0,1,.681.287c0-.056.266-.024.355-.2.551-.454.983-.859.03-2.135Zm-16.2-.882,2.039-.009a2.844,2.844,0,0,0-.731-1.636,1.39,1.39,0,0,0-1.146-.521c-.521.025-.948.338-.824,1.254a1.73,1.73,0,0,0,.662.911Zm-1.042.9h-2.379v2.393q0,1.135.774,1.137a2.28,2.28,0,0,0,.774-.179,3.949,3.949,0,0,0,.422-.187,3.164,3.164,0,0,0,.409-.247v-2.916Zm7.294,5.7-.934.958-.95-.972.935-.957.949.972Zm-6.9-6.6a2.15,2.15,0,0,1-.987-1.644,1.556,1.556,0,0,1,1.749-1.412,1.8,1.8,0,0,1,1.446.777,4.567,4.567,0,0,1,.958,2.279h1.154l.408.891h-1.358v6.953l-1.2-.523v-6.43l-1.372.015v6.939l-1.191-.523V803.71c-.107.06-.2.107-.271.143a2.381,2.381,0,0,1-.244.1,2.782,2.782,0,0,1-.648.1,2.832,2.832,0,0,1-1.536-.6,1.811,1.811,0,0,1-.824-1.316v-2.363h-1.089l-.438-.905Z" transform="translate(-679.854 -707.001)" fill="#ad1c29" fill-rule="evenodd"/>
            <path id="Path_28516" data-name="Path 28516" d="M683.41,618.867l.1-1.094.1-.742.127-.731.153-.723.181-.711.206-.7.233-.69.257-.681.282-.666.306-.653.329-.642.353-.627.374-.612.4-.6.417-.583.439-.568.458-.548.478-.533.5-.515.517-.5.532-.478.551-.459.567-.438.584-.419.6-.4.614-.376.63-.353.643-.333.657-.307.669-.285.683-.26.954-.323v-4.189l.246,0,.614-.038.6-.071.591-.1.58-.126.567-.152.557-.179.543-.2.531-.227.518-.249.507-.271.493-.292.483-.309.469-.33.456-.346.444-.36.432-.377.418-.392.406-.4.393-.417.381-.427.369-.437.354-.447.672-.917.621-.94.57-.957.518-.966.224-.453.854-1.174.847-1.082.419-.5.415-.473.415-.447.413-.421.416-.4.417-.372.421-.349.425-.327.432-.3.442-.284.449-.265.459-.243.472-.224.486-.207.5-.19.515-.172.533-.156.551-.141.572-.124.595-.112.616-.1.641-.082.664-.07,1.413-.1c.654-.031,1.306-.054,1.961-.065v9.721l-.416-.067-.428-.047-.422-.024-.414,0-.406.017-.4.038-.392.057-.382.076-.374.094-.366.113-.357.128-.349.146-.339.159-.33.176-.32.188-.311.2-.3.215-.575.465-.536.509-.495.543-.455.576-.414.6-.373.624-.325.631c-.585,1.081-1.152,2.167-1.787,3.218-.224.36-.454.711-.7,1.059-.186.255-.377.5-.574.748s-.414.48-.634.711l-.462.452c-.252.223-.5.435-.767.642l-.567.406-.618.386-.328.186-1.013.532,1.323.615.625.317.611.339.6.36.585.38.57.4.555.419.54.437.521.457.507.474.488.492.473.507.453.525.435.541.416.554.4.57.377.586.355.6.333.611.313.624.29.636.269.649.244.66.221.67.2.681.173.691.147.7.121.71.1.717.068.726.042.732.014.74-.015.754-.044.748-.072.739-.1.732-.127.722-.152.714-.18.7-.2.693-.23.683-.255.671-.278.66-.3.647-.325.634-.347.621-.369.607-.391.593-.411.578-.431.561-.453.545-.469.528-.49.512-.507.495-.525.475-.542.456-.558.437-.575.418-.59.4-.6.377-.62.355-.634.33-.646.311-2.117.922,2.246.113.646.065.635.095.626.125.613.156.6.184.59.211.576.238.563.266.547.291.531.316.514.338.5.363.479.384.46.407.441.427.419.448.4.467.377.484.353.5.329.519.305.536.28.551.254.565.228.578.2.592.171.605.143.614.11.626.082.636.048.645.017.653-.017.665-.05.654-.083.646-.114.636-.145.624-.176.613-.2.6-.234.588-.261.572-.289.557-.313.541-.339.524-.364.508-.388.488-.41.47-.432.449-.453.429-.473.407-.492.384-.51.361-.529.336-.546.312-.561.286-.576.259-.592.233-.6.2-.616.175-.63.145-.64.114-.651.083-.659.05-.669.017-.653-.016-.645-.049-.636-.078-.626-.109-.616-.139-.6-.166-.592-.2-.579-.221-.567-.249-.551-.273-.537-.3-.521-.324-.5-.346-.487-.368-.469-.391-.45-.411-.429-.43-.409-.451-.388-.47-.366-.487-.343-.505-.319-.52-.295-.537-.271-.55-.243-.566-.217-.579-.189-.59-.162-.6-.132-.614-.1-.624-.071-.633-.053-.822V618.867h8.866v10.8l.866-.349.694-.326.663-.375.632-.422.6-.466.563-.508.521-.545.481-.584.437-.619.391-.651.341-.681.291-.709.126-.364.21-.745.085-.38.068-.386.054-.391.04-.4.024-.4.008-.406-.014-.52-.039-.514-.066-.508-.091-.5-.115-.49-.138-.483-.162-.472-.184-.461-.205-.45-.228-.438-.247-.427-.268-.412-.286-.4-.3-.384-.323-.37-.339-.354-.357-.335-.372-.321-.387-.3-.4-.285-.416-.263-.429-.246-.441-.226-.455-.2-.464-.182-.476-.161-.486-.137-.495-.113-.5-.09-.513-.065-.518-.04-.525-.013-.48.011-.474.032-.468.054-.462.076-.455.1-.447.115-.439.135-.431.152-.422.172-.412.188-.4.208-.392.223-.38.239-.368.256-.356.271-.346.284-.331.3-.318.315-.3.328-.289.34-.275.353-.258.365-.244.376-.227.388-.209.4-.193.408-.175.417-.155.427-.138.435-.118.443-.1.45-.082.48v46.084h-9.478V618.867Zm26.912,28.593-.425.021-.411.063-.4.1c-.2.065-.379.138-.567.221s-.349.19-.521.3-.318.236-.471.367a5.939,5.939,0,0,0-.414.43c-.125.159-.237.316-.347.486a5.937,5.937,0,0,0-.276.534c-.076.19-.14.377-.2.575l-.082.4-.043.416v.423l.043.415.082.4c.058.2.121.384.2.576s.174.358.276.534.222.327.347.485.267.29.414.43.3.25.471.368.34.205.521.3a5.761,5.761,0,0,0,.567.221l.4.1.411.064.425.021.423-.021.413-.064a5.96,5.96,0,0,0,.591-.167,6.025,6.025,0,0,0,.553-.248c.176-.1.34-.205.507-.323s.306-.251.452-.389.267-.291.392-.449.223-.327.324-.5.176-.36.25-.549a5.682,5.682,0,0,0,.168-.587l.064-.409.02-.421-.02-.422-.064-.408a5.567,5.567,0,0,0-.168-.588,5.825,5.825,0,0,0-.25-.548c-.1-.176-.207-.339-.324-.5s-.253-.3-.392-.448-.294-.266-.452-.389-.331-.222-.507-.322-.362-.173-.553-.249-.389-.12-.591-.166l-.413-.063Z" transform="translate(-681.939 -578.369)" fill="#ad1c29" fill-rule="evenodd"/>
          </g>
        </g>
      </g>
    </g>
    <g id="Group_40131" data-name="Group 40131" transform="translate(11588.367 2749.081)">
      <path id="Path_44042" data-name="Path 44042" d="M4.656-35.3h35.3a60.976,60.976,0,0,1,16.378,2.118A41.736,41.736,0,0,1,69.6-27.019,29.724,29.724,0,0,1,78.5-17.042,27.757,27.757,0,0,1,81.746-3.488,26.789,26.789,0,0,1,78.593,9.784a27.992,27.992,0,0,1-8.33,9.319,37.663,37.663,0,0,1-11.719,5.506,49.416,49.416,0,0,1-13.413,1.835q-2.918,0-6.118-.141t-6.165-.424q-2.965-.282-5.459-.612a37.323,37.323,0,0,1-4-.706V76.144H4.656ZM23.387,18.256q3.106.847,6.73,1.694a32.353,32.353,0,0,0,7.389.847A28.247,28.247,0,0,0,48.1,18.962a21.121,21.121,0,0,0,7.53-4.942A20.376,20.376,0,0,0,60.1,6.678,26.774,26.774,0,0,0,61.6-2.358a25.99,25.99,0,0,0-1.93-10.213,22.669,22.669,0,0,0-5.318-7.765A23.8,23.8,0,0,0,46.4-25.278a27.1,27.1,0,0,0-9.742-1.741H23.387ZM124.86,71.625a30.33,30.33,0,0,0,8.189-1.13,23.355,23.355,0,0,0,7.2-3.341,17.575,17.575,0,0,0,5.083-5.459,14.368,14.368,0,0,0,1.93-7.483,16.139,16.139,0,0,0-2.636-9.083,31,31,0,0,0-6.918-7.342,66.487,66.487,0,0,0-9.789-6.259q-5.506-2.918-11.3-5.883t-11.3-6.212a57.206,57.206,0,0,1-9.789-7.2,33.826,33.826,0,0,1-6.918-8.848,23.457,23.457,0,0,1-2.636-11.3,29.139,29.139,0,0,1,2.4-11.86,26.732,26.732,0,0,1,7.06-9.507,33.22,33.22,0,0,1,11.436-6.306,49.055,49.055,0,0,1,15.531-2.259q15.813,0,24.991,6.636t13.225,19.155l-9.6,4.424a44.546,44.546,0,0,0-4.283-9.413,28.984,28.984,0,0,0-6.212-7.248,26.7,26.7,0,0,0-8.33-4.659A32.076,32.076,0,0,0,121.565-30.6a26.6,26.6,0,0,0-9.224,1.459,19.87,19.87,0,0,0-6.589,3.859,15.933,15.933,0,0,0-3.953,5.412,15.133,15.133,0,0,0-1.318,6.118A13.209,13.209,0,0,0,103.163-5.7a32.672,32.672,0,0,0,7.154,6.871,86.4,86.4,0,0,0,10.119,6.259q5.648,3.012,11.53,6.118T143.5,20.044a66.185,66.185,0,0,1,10.119,7.389,34.545,34.545,0,0,1,7.154,8.754,21.168,21.168,0,0,1,2.683,10.589A30.78,30.78,0,0,1,160.91,59.2a28.306,28.306,0,0,1-7.53,10.166,36.806,36.806,0,0,1-12.519,6.871,54.433,54.433,0,0,1-17.413,2.541,53.006,53.006,0,0,1-14.354-1.788,36.807,36.807,0,0,1-11.154-5.13A33.473,33.473,0,0,1,89.7,63.672a46.483,46.483,0,0,1-5.695-11.06L94.08,48.47Q97.563,59.483,105.7,65.554A31.154,31.154,0,0,0,124.86,71.625ZM180.775-35.3h44.9a63.279,63.279,0,0,1,16.284,1.977,41.324,41.324,0,0,1,12.754,5.6,27.145,27.145,0,0,1,8.283,8.66,21.577,21.577,0,0,1,2.965,11.154A32.423,32.423,0,0,1,265.018.23a18.5,18.5,0,0,1-3.294,6.683,28.118,28.118,0,0,1-6.259,5.789,69.545,69.545,0,0,1-9.836,5.553v.377a39.7,39.7,0,0,1,10.73,3.2,27.992,27.992,0,0,1,8.236,5.789,24.594,24.594,0,0,1,5.271,8.142,27.525,27.525,0,0,1,1.835,10.26,25.87,25.87,0,0,1-2.777,11.813,28.594,28.594,0,0,1-7.86,9.554,38.912,38.912,0,0,1-12.284,6.4,51.482,51.482,0,0,1-16.049,2.353H180.775Zm18.731,50.169H223.32a29.092,29.092,0,0,0,10.024-1.6,21.377,21.377,0,0,0,7.389-4.424A18.533,18.533,0,0,0,245.3,2.16a22.231,22.231,0,0,0,1.553-8.377,21.08,21.08,0,0,0-1.835-8.895,17.263,17.263,0,0,0-5.742-6.824,29.323,29.323,0,0,0-9.93-4.377,58.3,58.3,0,0,0-14.4-1.553H199.506Zm0,53.087h20.237A56.828,56.828,0,0,0,233.909,66.4a29.337,29.337,0,0,0,9.883-4.377,17.856,17.856,0,0,0,5.789-6.73,19.8,19.8,0,0,0,1.883-8.707,27.659,27.659,0,0,0-1.694-9.789,19.407,19.407,0,0,0-5.506-7.86,27.308,27.308,0,0,0-9.977-5.271,51.125,51.125,0,0,0-15.107-1.93H199.506Z" transform="translate(-4.656 37.844)" fill="#fff200"/>
      <path id="Path_44041" data-name="Path 44041" d="M41.97-9.794H59.007V5.925A56.734,56.734,0,0,1,75.2-7.253a36.911,36.911,0,0,1,17.131-4.33,17.714,17.714,0,0,1,8.424,2.071,22.982,22.982,0,0,1,6.871,5.6,26.648,26.648,0,0,1,4.659,8.283,29.913,29.913,0,0,1,1.694,10.119V76.144H96.846V17.314q0-8.566-3.812-12.9A12.5,12.5,0,0,0,83.2.089a20.177,20.177,0,0,0-5.742.894A36.814,36.814,0,0,0,71.29,3.478a46.226,46.226,0,0,0-6.259,3.859,56.226,56.226,0,0,0-6.024,5.083V76.144H41.97Zm91.777-19.484h18.731V76.144H133.747ZM193.71,20.8a59.52,59.52,0,0,0,3.483,21.037,45.128,45.128,0,0,0,9.648,15.672,42.063,42.063,0,0,0,14.59,9.836,48.02,48.02,0,0,0,18.308,3.436,29.269,29.269,0,0,0,11.3-2.259,42.588,42.588,0,0,0,10.119-5.93,53.711,53.711,0,0,0,14.448-17.6l7.813,5.083A68.459,68.459,0,0,1,275.317,60.9a54.548,54.548,0,0,1-10.825,9.13,55.787,55.787,0,0,1-13.884,6.354,58.68,58.68,0,0,1-17.366,2.4,65.674,65.674,0,0,1-25.179-4.659,59.637,59.637,0,0,1-19.39-12.566A55.928,55.928,0,0,1,176.2,43.105,57.066,57.066,0,0,1,171.778,20.8a56.711,56.711,0,0,1,4.518-22.4A57.4,57.4,0,0,1,189-20.289a60.973,60.973,0,0,1,19.672-12.8,66.091,66.091,0,0,1,25.508-4.753,53.216,53.216,0,0,1,16.331,2.4,57.924,57.924,0,0,1,13.648,6.354,57.6,57.6,0,0,1,11.013,9.13,64.124,64.124,0,0,1,8.236,10.825l-8.095,5.459q-6.965-13.554-15.625-19.861a32.866,32.866,0,0,0-19.861-6.306,46.955,46.955,0,0,0-18.119,3.483,41.871,41.871,0,0,0-14.637,10.072A47.8,47.8,0,0,0,197.286-.334,58.874,58.874,0,0,0,193.71,20.8Z" transform="translate(410.783 37.844)" fill="#fff200"/>
    </g>
    <path id="Path_44043" data-name="Path 44043" d="M52.494,65.6a32.505,32.505,0,0,0,12.864-2.422,26.819,26.819,0,0,0,9.606-6.808,30.21,30.21,0,0,0,6.014-10.441,40.915,40.915,0,0,0,2.088-13.406V-37.054h17.708V32.521a55.155,55.155,0,0,1-3.341,19.462,44.466,44.466,0,0,1-9.606,15.453,44,44,0,0,1-15.2,10.191A52.5,52.5,0,0,1,52.494,81.3a52.5,52.5,0,0,1-20.131-3.675,44,44,0,0,1-15.2-10.191A44.466,44.466,0,0,1,7.555,51.983,55.155,55.155,0,0,1,4.214,32.521V-37.054H22.005V32.438a42.061,42.061,0,0,0,2.046,13.448,29.634,29.634,0,0,0,5.972,10.483,26.819,26.819,0,0,0,9.606,6.808A32.5,32.5,0,0,0,52.494,65.6Z" transform="translate(11922.146 2784.401)" fill="#fff200"/>
    <path id="Path_44148" data-name="Path 44148" d="M.615-20.548H9.808L26.53,6.926,43.251-20.548h9.233L30.492,13.581V36.619H22.607V13.581ZM69.323,32.1q7.093,0,9.728-5.273A25.878,25.878,0,0,0,81.686,15.1a20.571,20.571,0,0,0-1.9-9.5Q76.772-.156,69.4-.156q-6.538,0-9.51,4.9a22.408,22.408,0,0,0-2.972,11.83,19.5,19.5,0,0,0,2.972,11.091Q62.864,32.1,69.323,32.1ZM69.6-6.266A19.406,19.406,0,0,1,83.469-.9q5.666,5.37,5.666,15.8,0,10.079-4.993,16.656T68.649,38.137q-8.757,0-13.908-5.818T49.59,16.694q0-10.507,5.429-16.734T69.6-6.266ZM106.37-5.06V22.609a11.487,11.487,0,0,0,1.03,5.215q1.9,3.736,7.093,3.736,7.449,0,10.144-6.538A25.516,25.516,0,0,0,126.1,15.41V-5.06h7.132V36.619H126.5l.079-6.149a14.2,14.2,0,0,1-3.447,4.008,15.348,15.348,0,0,1-9.906,3.269q-9.074,0-12.363-5.954a17.466,17.466,0,0,1-1.783-8.522V-5.06Zm81.742,6.732A30.035,30.035,0,0,0,193.3-2.569a8.668,8.668,0,0,0,2.338-5.876,6.175,6.175,0,0,0-1.7-4.359,5.978,5.978,0,0,0-4.6-1.829q-4.4,0-6.1,2.88a6.246,6.246,0,0,0-.872,3.23,8.626,8.626,0,0,0,1.327,4.553A42.2,42.2,0,0,0,188.113,1.673Zm-1.823,30.12a13.971,13.971,0,0,0,7.568-1.985,16.414,16.414,0,0,0,4.874-4.436L185.577,9.612a39.948,39.948,0,0,0-7.291,5.6,10.29,10.29,0,0,0-2.615,7.122,8.126,8.126,0,0,0,3.388,7A12.114,12.114,0,0,0,186.29,31.793ZM181.614,4.825a29.36,29.36,0,0,1-4.933-7,13.611,13.611,0,0,1-1.248-5.487,12.147,12.147,0,0,1,3.8-9.165q3.8-3.639,10.184-3.639,6.063,0,9.47,3.386A11.011,11.011,0,0,1,202.3-8.99,14.339,14.339,0,0,1,198.772.622a33.058,33.058,0,0,1-6.895,5.565L202.5,18.64q1.07-3.113,1.486-4.65a43.106,43.106,0,0,0,.852-4.3h6.776a41.863,41.863,0,0,1-2.694,10.527q-2.021,5.04-2.021,4.067l10.342,12.336h-9.193l-5.468-6.538a28.48,28.48,0,0,1-5.944,5.059,20.846,20.846,0,0,1-10.857,2.8q-9.074,0-13.195-4.806A16.211,16.211,0,0,1,168.459,22.3a15.445,15.445,0,0,1,4-10.857Q174.918,8.794,181.614,4.825Zm71.2-25.373h7.965V36.619h-7.965ZM323.9-22.1q11.055,0,17.157,5.721t6.776,13h-7.687a15.658,15.658,0,0,0-5.211-8.756q-3.9-3.23-10.956-3.23a17.715,17.715,0,0,0-13.888,5.935Q304.8-3.5,304.8,8.755q0,10.04,4.775,16.286t14.245,6.246q8.717,0,13.274-6.577A24.754,24.754,0,0,0,340.7,15.6h7.687a25.582,25.582,0,0,1-6.815,15.138q-6.934,7.355-18.7,7.355-10.144,0-17.039-6.032-9.074-7.978-9.074-24.633,0-12.647,6.815-20.742Q310.943-22.1,323.9-22.1ZM375.489,32.1q7.093,0,9.728-5.273A25.879,25.879,0,0,0,387.852,15.1a20.571,20.571,0,0,0-1.9-9.5Q382.939-.156,375.569-.156q-6.538,0-9.51,4.9a22.407,22.407,0,0,0-2.972,11.83,19.5,19.5,0,0,0,2.972,11.091Q369.031,32.1,375.489,32.1Zm.277-38.371A19.406,19.406,0,0,1,389.635-.9q5.666,5.37,5.666,15.8,0,10.079-4.993,16.656t-15.493,6.577q-8.757,0-13.908-5.818t-5.151-15.625q0-10.507,5.429-16.734T375.767-6.266ZM405.4-5.06h6.776V.856A18.93,18.93,0,0,1,418.56-4.4a17.273,17.273,0,0,1,7.489-1.6q9.034,0,12.2,6.188Q440,3.58,440,9.884V36.619h-7.251V10.351A14,14,0,0,0,431.6,4.2Q429.694.311,424.7.311a14.28,14.28,0,0,0-4.161.506,10.726,10.726,0,0,0-5.151,3.425A10.251,10.251,0,0,0,413.072,8.5a28.185,28.185,0,0,0-.535,6.285V36.619H405.4Zm46.755,0h6.776V.856a18.932,18.932,0,0,1,6.38-5.254,17.273,17.273,0,0,1,7.489-1.6q9.035,0,12.2,6.188,1.744,3.386,1.744,9.69V36.619H479.5V10.351A14,14,0,0,0,478.352,4.2Q476.45.311,471.457.311A14.28,14.28,0,0,0,467.3.817a10.726,10.726,0,0,0-5.151,3.425A10.251,10.251,0,0,0,459.827,8.5a28.187,28.187,0,0,0-.535,6.285V36.619H452.16Zm64.428-.934a19.645,19.645,0,0,1,8.757,2.082,16.073,16.073,0,0,1,6.459,5.39,18.4,18.4,0,0,1,2.853,7.355,47.283,47.283,0,0,1,.634,9.184H504.185q.2,6.343,3.051,10.176t8.836,3.833a11.525,11.525,0,0,0,8.915-3.619,12.136,12.136,0,0,0,2.695-4.864H534.7a14.333,14.333,0,0,1-1.843,5.117,18.234,18.234,0,0,1-3.507,4.611,16.718,16.718,0,0,1-8.044,4.2,24.863,24.863,0,0,1-5.825.623,18.028,18.028,0,0,1-13.433-5.662q-5.508-5.662-5.508-15.858,0-10.04,5.547-16.306A18.45,18.45,0,0,1,516.588-5.994ZM527.96,12.452a17.9,17.9,0,0,0-2.021-7.277Q523.007.116,516.152.116A10.943,10.943,0,0,0,507.91,3.6a13.03,13.03,0,0,0-3.527,8.853ZM562.036-6.266q7.172,0,11.669,3.425T579.114,8.95H572.18a12.466,12.466,0,0,0-2.893-6.4Q567.029,0,562.036,0q-6.815,0-9.748,6.538a25.562,25.562,0,0,0-1.9,10.468,19.425,19.425,0,0,0,2.694,10.546q2.694,4.281,8.48,4.281a9.363,9.363,0,0,0,7.033-2.666,14.556,14.556,0,0,0,3.586-7.3h6.934q-1.189,8.289-5.944,12.122t-12.165,3.833a16.36,16.36,0,0,1-13.274-5.974q-4.953-5.974-4.953-14.924,0-10.974,5.429-17.084A17.68,17.68,0,0,1,562.036-6.266ZM589.3-16.7h7.212V-5.06h6.776V.661h-6.776v27.2a2.931,2.931,0,0,0,1.506,2.919,6.5,6.5,0,0,0,2.774.428q.515,0,1.109-.019t1.387-.1v5.526a16.18,16.18,0,0,1-2.556.506,24.735,24.735,0,0,1-2.873.156q-4.993,0-6.776-2.51a11.006,11.006,0,0,1-1.783-6.518V.661H583.55V-5.06H589.3Zm40.415,10.7a19.644,19.644,0,0,1,8.757,2.082,16.073,16.073,0,0,1,6.459,5.39,18.4,18.4,0,0,1,2.853,7.355,47.272,47.272,0,0,1,.634,9.184H617.309q.2,6.343,3.051,10.176t8.836,3.833a11.526,11.526,0,0,0,8.916-3.619,12.137,12.137,0,0,0,2.694-4.864h7.014a14.336,14.336,0,0,1-1.843,5.117,18.234,18.234,0,0,1-3.507,4.611,16.717,16.717,0,0,1-8.044,4.2,24.862,24.862,0,0,1-5.825.623,18.027,18.027,0,0,1-13.433-5.662q-5.508-5.662-5.508-15.858,0-10.04,5.547-16.306A18.45,18.45,0,0,1,629.711-5.994Zm11.372,18.446a17.9,17.9,0,0,0-2.021-7.277Q636.131.116,629.276.116A10.943,10.943,0,0,0,621.034,3.6a13.031,13.031,0,0,0-3.526,8.853Zm22.228,3.814A20.374,20.374,0,0,0,666.2,27.474q2.893,4.514,9.272,4.514a9.82,9.82,0,0,0,8.143-4.183q3.19-4.183,3.19-12.005,0-7.9-3.289-11.694A10.333,10.333,0,0,0,675.4.311a10.8,10.8,0,0,0-8.737,4.047Q663.312,8.405,663.312,16.266ZM674.05-5.8a15.313,15.313,0,0,1,8.163,2.024A19.035,19.035,0,0,1,686.532.311V-20.742h6.855V36.619h-6.419v-5.8a15.316,15.316,0,0,1-5.9,5.565,17.155,17.155,0,0,1-7.806,1.712q-7.093,0-12.284-5.857t-5.191-15.586A26.561,26.561,0,0,1,660.518.875Q665.253-5.8,674.05-5.8Z" transform="translate(11587.752 2921.317)" fill="#fff"/>
  </g>
</svg>
