<?xml version="1.0" encoding="utf-8"?>
<!-- Generator: Adobe Illustrator 23.0.1, SVG Export Plug-In . SVG Version: 6.00 Build 0)  -->
<svg version="1.1" id="Layer_1" xmlns="http://www.w3.org/2000/svg" xmlns:xlink="http://www.w3.org/1999/xlink" x="0px" y="0px"
	 viewBox="0 0 32 32" style="enable-background:new 0 0 32 32;" xml:space="preserve">
<style type="text/css">
	.st0{fill:#026A35;fill-opacity:0;}
	.st1{fill:#026A35;}
</style>
<g transform="translate(-0.478)">
	<rect x="-3.3" y="-3.9" class="st0" width="40.5" height="39.9"/>
	<g transform="translate(4.138 3.796)">
		<path class="st1" d="M18.4,15.4c2.4-2.3,3.9-5.4,4.1-8.8c0.2-3.2-0.9-6.3-3.2-8.5c-1.3-1.3-3.5-1.4-6.2-0.4
			c-2.8,1.2-5.4,2.9-7.5,5C4,4.2,2.7,5.9,1.6,7.7l-1.8-1.8L1.7,4L0.4,2.7l-3.2,3.2l3.5,3.5c-0.1,0.2-0.2,0.5-0.3,0.7
			c-1,2.7-0.9,4.8,0.4,6.1c2.1,2.1,5,3.2,8,3.2c1.2,0,2.5-0.2,3.7-0.5v3.2H8v3.6H6.1v1.8h14.5v-1.8h-1.8v-3.6h-4.5v-3.9
			C15.8,17.5,17.2,16.5,18.4,15.4z M2.1,14.9c-0.7-0.7-0.7-2.3,0-4.2l2.1,2.1l1.3-1.3L2.9,9C4,7.2,5.3,5.5,6.8,4
			c1.9-2,4.3-3.6,6.9-4.6c0.8-0.3,1.7-0.5,2.6-0.5c0.6,0,1.2,0.2,1.7,0.6l0,0c0.7,0.7,0.8,2.3,0,4.2c-1.1,2.5-2.7,4.8-4.7,6.7
			c-3.5,3.5-7.2,5.2-9.4,5.2C3.2,15.5,2.6,15.3,2.1,14.9z M17,23.9v1.8H9.8v-1.8H17z M8.8,17.6c-1.1,0-2.2-0.2-3.2-0.5
			c0.5-0.1,1-0.3,1.4-0.4c2.8-1.2,5.4-2.9,7.5-5c2.2-2.1,3.9-4.6,5.1-7.4c0.2-0.5,0.3-0.9,0.4-1.4c0.4,1.2,0.6,2.5,0.5,3.7
			c-0.2,2.9-1.4,5.6-3.5,7.6C14.9,16.3,11.9,17.5,8.8,17.6z"/>
	</g>
</g>
</svg>
