<?xml version="1.0" encoding="utf-8"?>
<!-- Generator: Adobe Illustrator 23.0.1, SVG Export Plug-In . SVG Version: 6.00 Build 0)  -->
<svg version="1.1" id="Layer_1" xmlns="http://www.w3.org/2000/svg" xmlns:xlink="http://www.w3.org/1999/xlink" x="0px" y="0px"
	 viewBox="0 0 32 32" style="enable-background:new 0 0 32 32;" xml:space="preserve">
<style type="text/css">
	.st0{fill:#026A35;fill-opacity:0;}
	.st1{fill:#026A35;}
</style>
<g transform="translate(-0.262)">
	<rect x="-1.7" y="-2.5" class="st0" width="36.6" height="37"/>
	<g transform="translate(3.425 3.415)">
		<g transform="translate(12.042 2.997)">
			<path class="st1" d="M1-1.5c-0.5,0-0.9,0.4-0.9,0.9S0.6,0.3,1,0.3c2.8,0,5.1,2.3,5.1,5.2l0,0c0,0.5,0.4,0.9,0.9,0.9
				s0.9-0.4,0.9-0.9C7.9,1.6,4.8-1.5,1-1.5L1-1.5z"/>
		</g>
		<g transform="translate(3.798)">
			<path class="st1" d="M7.1-1.7C1.5-0.5-2,5.1-0.8,10.7c0.4,1.7,1.2,3.4,2.4,4.7c1.1,1.2,1.7,2.8,1.7,4.4v1.7
				c0,1.1,0.7,2.1,1.8,2.5c0.4,2.4,2.6,4,4.9,3.6c1.8-0.3,3.3-1.7,3.6-3.6c1.1-0.3,1.8-1.3,1.8-2.5v-1.7c0-1.7,0.6-3.3,1.7-4.5
				c3.7-4.3,3.3-10.9-1-14.7C13.6-1.6,10.2-2.4,7.1-1.7L7.1-1.7z M9.3,25.9c-1.1,0-2.1-0.7-2.4-1.8h4.8
				C11.3,25.2,10.4,25.9,9.3,25.9z M13.6,21.5c0,0.5-0.4,0.9-0.9,0.9H5.8C5.4,22.4,5,22,5,21.5v-0.9h8.6V21.5z M15.7,14.2
				c-1.2,1.3-1.9,3-2.1,4.8H4.9c-0.2-1.8-0.9-3.4-2.1-4.7C-0.3,10.6,0,5.1,3.6,2c3.5-3.2,9-2.9,12.1,0.7
				C18.6,5.9,18.6,10.9,15.7,14.2L15.7,14.2z"/>
		</g>
		<g transform="translate(0 8.993)">
			<path class="st1" d="M1-0.5h-1.7c-0.5,0-0.9,0.4-0.9,0.9s0.4,0.9,0.9,0.9H1c0.5,0,0.9-0.4,0.9-0.9S1.5-0.5,1-0.5L1-0.5z"/>
		</g>
		<g transform="translate(0.22 3.966)">
			<path class="st1" d="M1.2,0.2l-1.2-1.2c-0.3-0.3-0.9-0.3-1.2,0c-0.3,0.3-0.3,0.9,0,1.2l1.2,1.2c0.3,0.3,0.9,0.3,1.2,0
				C1.5,1,1.5,0.5,1.2,0.2L1.2,0.2z"/>
		</g>
		<g transform="translate(0.22 12.961)">
			<path class="st1" d="M1.2,0.3C0.8,0,0.3,0-0.1,0.3l-1.2,1.2c-0.3,0.4-0.3,0.9,0,1.2c0.3,0.3,0.8,0.3,1.2,0l1.2-1.2
				C1.5,1.2,1.5,0.7,1.2,0.3C1.2,0.3,1.2,0.3,1.2,0.3z"/>
		</g>
		<g transform="translate(22.586 8.993)">
			<path class="st1" d="M4.3-0.5H2.5c-0.5,0-0.9,0.4-0.9,0.9s0.4,0.9,0.9,0.9h1.7c0.5,0,0.9-0.4,0.9-0.9S4.7-0.5,4.3-0.5L4.3-0.5z"
				/>
		</g>
		<g transform="translate(22.806 3.966)">
			<path class="st1" d="M4.4-1.1c-0.3-0.3-0.9-0.3-1.2,0L2,0.2C1.6,0.5,1.7,1.1,2,1.4c0.3,0.3,0.8,0.3,1.2,0l1.2-1.2
				C4.7-0.2,4.7-0.7,4.4-1.1z"/>
		</g>
		<g transform="translate(22.806 12.961)">
			<path class="st1" d="M4.4,1.6L3.2,0.3C2.9,0,2.3,0,2,0.3c-0.3,0.3-0.4,0.9,0,1.2c0,0,0,0,0,0l1.2,1.2c0.3,0.3,0.9,0.3,1.2,0
				C4.7,2.4,4.7,1.9,4.4,1.6z"/>
		</g>
	</g>
</g>
</svg>
