<?xml version="1.0" encoding="utf-8"?>
<!-- Generator: Adobe Illustrator 23.0.1, SVG Export Plug-In . SVG Version: 6.00 Build 0)  -->
<svg version="1.1" id="Layer_1" xmlns="http://www.w3.org/2000/svg" xmlns:xlink="http://www.w3.org/1999/xlink" x="0px" y="0px"
	 viewBox="0 0 32.1 32" style="enable-background:new 0 0 32.1 32;" xml:space="preserve">
<style type="text/css">
	.st0{fill:#026A35;fill-opacity:0;}
	.st1{fill:#026A35;stroke:#026A35;stroke-width:0.2;}
</style>
<g transform="translate(0.101)">
	<path class="st0" d="M0.2,3.5h32v32h-32V3.5z"/>
	<g transform="translate(0 0.912)">
		<path class="st1" d="M31.5,5.5c0-1.2-0.9-2.1-2.1-2.1c-0.6,0-1.1,0.2-1.5,0.6L11.1,20.8v-7.6c0.8-0.3,1.2-1.2,0.9-2
			c-0.2-0.6-0.8-1-1.5-1H2.3c-0.9,0-1.6,0.7-1.5,1.6c0,0.7,0.4,1.2,1,1.5V26c-0.6,0.2-1,0.8-1,1.5v1.7c-0.3,0.2-0.5,0.5-0.5,0.9
			h31.3c0-0.6-0.5-1-1-1h-0.6c0.1-0.2,0.1-0.3,0.1-0.5V28c0.9,0,1.6-0.7,1.6-1.6v-4.2c0-0.1,0-0.1,0-0.2l-1.8-5
			c-0.2-0.6-0.8-1-1.5-1h-6.2l9-9C31.3,6.6,31.5,6.1,31.5,5.5z M19,24.8h-1v-1h0.5c0.3,0,0.5,0.2,0.5,0.5V24.8z M16.9,22
			c0,0.1,0,0.1,0,0.2v4.2c0,0.9,0.7,1.6,1.6,1.6v0.5c0,0.2,0,0.4,0.1,0.5h-4.3v-5.4l3.3-3.3L16.9,22z M25.7,28v0.5
			c0,0.2,0,0.4,0.1,0.5h-3.3c0.1-0.2,0.1-0.3,0.1-0.5V28H25.7z M21.6,28.5c0,0.3-0.2,0.5-0.5,0.5h-1c-0.3,0-0.5-0.2-0.5-0.5V28h2.1
			L21.6,28.5z M14.2,22.2c-0.2-0.7-0.8-1.3-1.5-1.5l3.6-3.6V20L14.2,22.2z M10.1,22.7v3.1H2.8V13.4h7.3V22.7z M11.1,26.4v-3.6
			c0-0.6,0.5-1,1-1c0.6,0,1,0.5,1,1V29h-2.1L11.1,26.4z M17.4,19v-2.9l2.1-2.1v2.9L17.4,19z M20.5,12.9l2.1-2.1v2.9l-2.1,2.1
			L20.5,12.9z M23.7,9.8l2.1-2.1v2.9l-2.1,2.1V9.8z M2.3,11.3h8.3c0.3,0,0.5,0.2,0.5,0.5c0,0.3-0.2,0.5-0.5,0.5c0,0,0,0,0,0H2.3
			c-0.3,0-0.5-0.2-0.5-0.5C1.8,11.5,2,11.3,2.3,11.3z M1.8,27.4c0-0.3,0.2-0.5,0.5-0.5h7.8V29H1.8V27.4z M28.9,28.5
			c0,0.3-0.2,0.5-0.5,0.5h-1c-0.3,0-0.5-0.2-0.5-0.5V28h2.1L28.9,28.5z M29.9,26.9H18.4c-0.3,0-0.5-0.2-0.5-0.5v-0.5h12.5v0.5
			C30.4,26.7,30.2,26.9,29.9,26.9C29.9,26.9,29.9,26.9,29.9,26.9L29.9,26.9z M29.4,24.8v-0.5c0-0.3,0.2-0.5,0.5-0.5h0.5v1H29.4z
			 M28.1,17c0.2,0,0.4,0.1,0.5,0.3l1.8,5v0.4h-0.5c-0.9,0-1.6,0.7-1.6,1.6v0.5H20v-0.5c0-0.9-0.7-1.6-1.6-1.6h-0.5v-0.4l1.3-3.7
			l1.6-1.6L28.1,17z M30.1,6.3l-3.3,3.3V6.7l1.9-1.9c0.4-0.4,1.1-0.4,1.5,0S30.5,5.9,30.1,6.3L30.1,6.3L30.1,6.3z"/>
		<path class="st1" d="M4.9,19.6H8c0.6,0,1-0.5,1-1v-3.1c0-0.6-0.5-1-1-1H4.9c-0.6,0-1,0.5-1,1v3.1C3.9,19.2,4.3,19.6,4.9,19.6
			C4.9,19.6,4.9,19.6,4.9,19.6z M4.9,15.4H8v3.1H7v-1C7,17.2,6.7,17,6.5,17c-0.3,0-0.5,0.2-0.5,0.5c0,0,0,0,0,0v1h-1V15.4z"/>
		<path class="st1" d="M7.5,20.7H5.4c-0.3,0-0.5,0.2-0.5,0.5c0,0.3,0.2,0.5,0.5,0.5h2.1c0.3,0,0.5-0.2,0.5-0.5
			C8,20.9,7.8,20.7,7.5,20.7C7.5,20.7,7.5,20.7,7.5,20.7z"/>
		<path class="st1" d="M7.5,22.7H5.4c-0.3,0-0.5,0.2-0.5,0.5c0,0.3,0.2,0.5,0.5,0.5h2.1c0.3,0,0.5-0.2,0.5-0.5
			C8,23,7.8,22.7,7.5,22.7C7.5,22.7,7.5,22.7,7.5,22.7z"/>
		<path class="st1" d="M21,21.7h6.4c0.3,0,0.6-0.2,0.8-0.4c0.2-0.2,0.2-0.6,0.1-0.9l-0.6-1.7c-0.1-0.4-0.5-0.6-0.9-0.6h-5.2
			c-0.4,0-0.8,0.3-0.9,0.6l-0.6,1.7C20,20.7,20,21,20.2,21.3C20.4,21.6,20.7,21.7,21,21.7z M21.6,19.1h5.1l0.5,1.6h-6.2L21.6,19.1z"
			/>
		<path class="st1" d="M24.7,22.7h-1c-0.3,0-0.5,0.2-0.5,0.5c0,0.3,0.2,0.5,0.5,0.5c0,0,0,0,0,0h1c0.3,0,0.5-0.2,0.5-0.5
			C25.2,23,25,22.7,24.7,22.7C24.7,22.7,24.7,22.7,24.7,22.7L24.7,22.7z"/>
	</g>
</g>
</svg>
