<svg xmlns="http://www.w3.org/2000/svg" width="22.5" height="29.22" viewBox="0 0 22.5 29.22">
  <g id="_037-shield" data-name="037-shield" transform="translate(-8 -1.53)">
    <g id="color">
      <g id="Group_34927" data-name="Group 34927">
        <path id="Path_27300" data-name="Path 27300" d="M18,29.25s9.25-2.446,9.25-11.075v-8L18,6.75,8.75,10.174v8C8.75,26.8,18,29.25,18,29.25Z" fill="#f3f3f1"/>
      </g>
      <g id="Group_34928" data-name="Group 34928">
        <path id="Path_27301" data-name="Path 27301" d="M18,29.25s9.25-2.446,9.25-11.075v-8L18,6.75,8.75,10.174v8C8.75,26.8,18,29.25,18,29.25Z" fill="#f3f3f1"/>
      </g>
      <g id="Group_34929" data-name="Group 34929">
        <path id="Path_27302" data-name="Path 27302" d="M11,18.175v-8l8.125-3.007L18,6.75,8.75,10.174v8C8.75,26.8,18,29.25,18,29.25s.447-.124,1.125-.39C16.668,27.894,11,24.939,11,18.175Z" fill="#d5dbe1"/>
      </g>
      <g id="Group_34933" data-name="Group 34933">
        <g id="Group_34930" data-name="Group 34930">
          <path id="Path_27303" data-name="Path 27303" d="M17.375,1.53h1v2h-1Z" fill="#a4afc1"/>
        </g>
        <g id="Group_34931" data-name="Group 34931">
          <path id="Path_27304" data-name="Path 27304" d="M13.875,4.78h2v1h-2Z" fill="#a4afc1"/>
        </g>
        <g id="Group_34932" data-name="Group 34932">
          <path id="Path_27305" data-name="Path 27305" d="M19.625,4.78h2v1h-2Z" fill="#a4afc1"/>
        </g>
      </g>
      <g id="Group_34934" data-name="Group 34934">
        <path id="Path_27306" data-name="Path 27306" d="M29,30.75a1.5,1.5,0,1,1,1.5-1.5A1.5,1.5,0,0,1,29,30.75Zm0-2a.5.5,0,1,0,.5.5A.5.5,0,0,0,29,28.75Z" fill="#a4afc1"/>
      </g>
    </g>
    <g id="line">
      <g id="Group_34935" data-name="Group 34935">
        <path id="Path_27307" data-name="Path 27307" d="M18,30a.739.739,0,0,1-.192-.025c-.1-.026-9.808-2.7-9.808-11.8v-8a.749.749,0,0,1,.49-.7l9.25-3.424a.753.753,0,0,1,.521,0l9.25,3.424a.749.749,0,0,1,.489.7v8c0,9.1-9.71,11.775-9.808,11.8A.739.739,0,0,1,18,30ZM9.5,10.7v7.479c0,7.37,7.188,9.9,8.5,10.3,1.312-.4,8.5-2.925,8.5-10.3V10.7L18,7.55Z"/>
      </g>
    </g>
    <g id="signs_3_" data-name="signs (3)" transform="translate(15.269 14.84)">
      <path id="Path_12624" data-name="Path 12624" d="M76.788,1.359a.143.143,0,0,0-.1-.038h-.766a1.442,1.442,0,0,0-.287-.614h1.044a.144.144,0,0,0,.1-.038.13.13,0,0,0,.04-.1V.136a.13.13,0,0,0-.04-.1.144.144,0,0,0-.1-.038H72.949a.144.144,0,0,0-.1.038.13.13,0,0,0-.04.1V.7a.128.128,0,0,0,.043.1.141.141,0,0,0,.1.04H73.6q.945,0,1.2.482h-1.85a.143.143,0,0,0-.1.038.13.13,0,0,0-.04.1v.435a.129.129,0,0,0,.04.1.143.143,0,0,0,.1.038h1.913a.843.843,0,0,1-.459.533,2.109,2.109,0,0,1-.952.183h-.5a.141.141,0,0,0-.1.04.128.128,0,0,0-.043.1v.541a.124.124,0,0,0,.04.094q.86.869,2.231,2.433A.135.135,0,0,0,75.189,6h.873a.131.131,0,0,0,.13-.077.112.112,0,0,0-.018-.145q-1.308-1.526-2.056-2.284a2.336,2.336,0,0,0,1.236-.469,1.574,1.574,0,0,0,.578-1h.753a.143.143,0,0,0,.1-.038.129.129,0,0,0,.04-.1V1.457A.129.129,0,0,0,76.788,1.359Z" transform="translate(-71.806 0)" fill="#0b0b0b"/>
    </g>
  </g>
</svg>
