<svg xmlns="http://www.w3.org/2000/svg"  viewBox="0 0 22 22"><defs><style>.a{fill:#fff;}</style></defs><path class="a" d="M20.625,3.438H15.813V1.375A1.375,1.375,0,0,0,14.438,0H7.563A1.375,1.375,0,0,0,6.188,1.375V3.438H1.375A1.375,1.375,0,0,0,0,4.813v6.875a1.375,1.375,0,0,0,1.375,1.375v8.25A.687.687,0,0,0,2.063,22h5.5V20.625H2.75V13.063h5.5v.688a.687.687,0,0,0,.688.688h4.125a.687.687,0,0,0,.688-.687V11a.687.687,0,0,0-.687-.687H8.938A.687.687,0,0,0,8.25,11v.688H1.375V4.813h19.25v5.5H22v-5.5A1.375,1.375,0,0,0,20.625,3.438Zm-11,8.25h2.75v1.375H9.625Zm4.813-8.25H7.563V1.375h6.875Z"/><path class="a" d="M25.688,18h-5.5a.687.687,0,0,0-.687.688V20.75H14.688a.687.687,0,0,0-.687.688v5.5a.687.687,0,0,0,.688.688h11a.687.687,0,0,0,.688-.687v-8.25A.687.687,0,0,0,25.688,18ZM19.5,26.25H15.375V24.875H19.5Zm0-2.75H15.375V22.125H19.5ZM25,26.25H20.875V24.875H25Zm0-2.75H20.875V22.125H25Zm0-2.75H20.875V19.375H25Z" transform="translate(-4.375 -5.625)"/></svg>