<svg xmlns="http://www.w3.org/2000/svg" width="48.75" height="43.5" viewBox="0 0 48.75 43.5"><defs><style>.a{fill:none;stroke:#444;stroke-linecap:round;stroke-linejoin:round;stroke-width:1.5px;}.b,.c{fill:#d11b82;}.b{opacity:0.2;}</style></defs><g transform="translate(0.75 0.75)"><rect class="a" width="9.188" height="3.938" transform="translate(15.75 13.125)"/><line class="a" x2="2.625" transform="translate(15.75 23.625)"/><line class="a" x2="2.625" transform="translate(14.875 28.875)"/><line class="a" x2="2.625" transform="translate(22.313 23.625)"/><line class="a" x2="2.625" transform="translate(22.313 28.875)"/><line class="a" y2="2.625" transform="translate(44.625 19.688)"/><rect class="b" width="6" height="33" transform="translate(38.182 9)"/><rect class="b" width="38" height="3" transform="translate(0.182 39)"/><path class="a" d="M284.625,138.813V144.7a3.3,3.3,0,0,1-3.3,3.3H243.3a3.3,3.3,0,0,1-3.3-3.3V109.3a3.3,3.3,0,0,1,3.3-3.3h38.028a3.3,3.3,0,0,1,3.3,3.3v5.889" transform="translate(-240 -106)"/><path class="a" d="M274.188,134.938v3.944a2.618,2.618,0,0,1-2.618,2.618H246.618A2.618,2.618,0,0,1,244,138.882V112.618A2.618,2.618,0,0,1,246.618,110h24.951a2.618,2.618,0,0,1,2.618,2.618v22.319" transform="translate(-238.75 -104.75)"/><rect class="a" width="5.25" height="5.25" transform="translate(42 11.813)"/><rect class="a" width="5.25" height="5.25" transform="translate(42 24.938)"/><rect class="c" width="12" height="13" rx="1" transform="translate(14.196 12.009)"/><rect class="b" width="26" height="28" transform="translate(9.182 9)"/></g></svg>