<svg xmlns="http://www.w3.org/2000/svg" width="26.625" height="26.625" viewBox="0 0 26.625 26.625">
  <g id="_042-cell_phone" data-name="042-cell phone" transform="translate(-6 -3.375)">
    <g id="color">
      <g id="Group_35013" data-name="Group 35013">
        <path id="Path_27375" data-name="Path 27375" d="M18.75,6.75a1.5,1.5,0,0,0-1.5,1.5,1,1,0,0,1-1,1h-4.5a1,1,0,0,1-1-1,1.5,1.5,0,0,0-1.5-1.5Z" fill="#08c866"/>
      </g>
      <g id="Group_35014" data-name="Group 35014">
        <path id="Path_27376" data-name="Path 27376" d="M21.25,8.75v18.5a2.006,2.006,0,0,1-2,2H8.75a2.006,2.006,0,0,1-2-2V8.75a2.006,2.006,0,0,1,2-2h.5a1.5,1.5,0,0,1,1.5,1.5,1,1,0,0,0,1,1h4.5a1,1,0,0,0,1-1,1.5,1.5,0,0,1,1.5-1.5h.5A2.006,2.006,0,0,1,21.25,8.75Z" fill="#f3f3f1"/>
      </g>
      <g id="Group_35015" data-name="Group 35015">
        <path id="Path_27377" data-name="Path 27377" d="M13,8.25a1.5,1.5,0,0,0-1.5-1.5H9.25a1.5,1.5,0,0,1,1.5,1.5,1,1,0,0,0,1,1H14A1,1,0,0,1,13,8.25Z" fill="#007c3d" opacity="0.5"/>
      </g>
      <g id="Group_35017" data-name="Group 35017">
        <g id="Group_35016" data-name="Group 35016">
          <path id="Path_27378" data-name="Path 27378" d="M9,27.25V8.75a2,2,0,0,1,1.066-1.757A1.5,1.5,0,0,0,9.25,6.75h-.5a2.006,2.006,0,0,0-2,2v18.5a2.006,2.006,0,0,0,2,2H11A2.006,2.006,0,0,1,9,27.25Z" fill="#d5dbe1"/>
        </g>
      </g>
      <g id="Group_35022" data-name="Group 35022">
        <g id="Group_35018" data-name="Group 35018">
          <path id="Path_27379" data-name="Path 27379" d="M30.625,6.875h2v1h-2Z" fill="#a4afc1"/>
        </g>
        <g id="Group_35019" data-name="Group 35019">
          <path id="Path_27380" data-name="Path 27380" d="M24.875,6.875h2v1h-2Z" fill="#a4afc1"/>
        </g>
        <g id="Group_35020" data-name="Group 35020">
          <path id="Path_27381" data-name="Path 27381" d="M28.375,3.375h1v2h-1Z" fill="#a4afc1"/>
        </g>
        <g id="Group_35021" data-name="Group 35021">
          <path id="Path_27382" data-name="Path 27382" d="M28.375,9.125h1v2h-1Z" fill="#a4afc1"/>
        </g>
      </g>
      <g id="Group_35023" data-name="Group 35023">
        <circle id="Ellipse_2609" data-name="Ellipse 2609" cx="6.25" cy="6.25" r="6.25" transform="translate(16.75 11.75)" fill="#08c866"/>
      </g>
      <g id="Group_35024" data-name="Group 35024">
        <path id="Path_27383" data-name="Path 27383" d="M19,18a6.249,6.249,0,0,1,5.125-6.144,6.25,6.25,0,1,0,0,12.288A6.249,6.249,0,0,1,19,18Z" fill="#007c3d" opacity="0.5"/>
      </g>
    </g>
    <g id="line">
      <g id="Group_35025" data-name="Group 35025">
        <path id="Path_27384" data-name="Path 27384" d="M23,25a7,7,0,1,1,7-7A7.008,7.008,0,0,1,23,25Zm0-12.5A5.5,5.5,0,1,0,28.5,18,5.506,5.506,0,0,0,23,12.5Z"/>
      </g>
      <g id="Group_35032" data-name="Group 35032">
        <g id="Group_35030" data-name="Group 35030">
          <path id="Path_27388" data-name="Path 27388" d="M16.25,10h-4.5A1.752,1.752,0,0,1,10,8.25a.751.751,0,0,0-.75-.75h-.5V6h.5A2.252,2.252,0,0,1,11.5,8.25a.25.25,0,0,0,.25.25h4.5a.25.25,0,0,0,.25-.25A2.252,2.252,0,0,1,18.75,6h.5V7.5h-.5a.75.75,0,0,0-.75.75A1.752,1.752,0,0,1,16.25,10Z"/>
        </g>
        <g id="Group_35031" data-name="Group 35031">
          <path id="Path_27389" data-name="Path 27389" d="M19.25,30H8.75A2.752,2.752,0,0,1,6,27.25V8.75A2.752,2.752,0,0,1,8.75,6h10.5A2.753,2.753,0,0,1,22,8.75H20.5A1.252,1.252,0,0,0,19.25,7.5H8.75A1.251,1.251,0,0,0,7.5,8.75v18.5A1.252,1.252,0,0,0,8.75,28.5h10.5a1.252,1.252,0,0,0,1.25-1.25H22A2.753,2.753,0,0,1,19.25,30Z"/>
        </g>
      </g>
      <g id="signs_3_" data-name="signs (3)" transform="translate(20.135 15.297)">
        <path id="Path_12624" data-name="Path 12624" d="M76.788,1.359a.143.143,0,0,0-.1-.038h-.766a1.442,1.442,0,0,0-.287-.614h1.044a.144.144,0,0,0,.1-.038.13.13,0,0,0,.04-.1V.136a.13.13,0,0,0-.04-.1.144.144,0,0,0-.1-.038H72.949a.144.144,0,0,0-.1.038.13.13,0,0,0-.04.1V.7a.128.128,0,0,0,.043.1.141.141,0,0,0,.1.04H73.6q.945,0,1.2.482h-1.85a.143.143,0,0,0-.1.038.13.13,0,0,0-.04.1v.435a.129.129,0,0,0,.04.1.143.143,0,0,0,.1.038h1.913a.843.843,0,0,1-.459.533,2.109,2.109,0,0,1-.952.183h-.5a.141.141,0,0,0-.1.04.128.128,0,0,0-.043.1v.541a.124.124,0,0,0,.04.094q.86.869,2.231,2.433A.135.135,0,0,0,75.189,6h.873a.131.131,0,0,0,.13-.077.112.112,0,0,0-.018-.145q-1.308-1.526-2.056-2.284a2.336,2.336,0,0,0,1.236-.469,1.574,1.574,0,0,0,.578-1h.753a.143.143,0,0,0,.1-.038.129.129,0,0,0,.04-.1V1.457A.129.129,0,0,0,76.788,1.359Z" transform="translate(-71.806 0)" fill="#0b0b0b"/>
      </g>
    </g>
  </g>
</svg>
