<svg xmlns="http://www.w3.org/2000/svg" width="25.182" height="26.095" viewBox="0 0 25.182 26.095"><defs><style>.a{fill:#08c866;}.b{opacity:0.5;}.c{fill:#007c3d;}.d{fill:#f3f3f1;}.e{fill:#d5dbe1;}.f{fill:#a4afc1;}</style></defs><g transform="translate(-124.528 -276.321)"><g transform="translate(120.71 272.416)"><path class="a" d="M9.25,29.25h17.5a1.5,1.5,0,0,0,1.5-1.5v-9.5a1.5,1.5,0,0,0-1.5-1.5H9.25a1.5,1.5,0,0,0-1.5,1.5v9.5A1.5,1.5,0,0,0,9.25,29.25Z"/><g class="b"><path class="c" d="M10,27.75v-9.5a1.5,1.5,0,0,1,1.5-1.5H9.25a1.5,1.5,0,0,0-1.5,1.5v9.5a1.5,1.5,0,0,0,1.5,1.5H11.5A1.5,1.5,0,0,1,10,27.75Z"/></g><circle class="d" cx="3.25" cy="3.25" r="3.25" transform="translate(14.75 19.75)"/><path class="e" d="M17,23a3.242,3.242,0,0,1,2.125-3.038,3.25,3.25,0,1,0,0,6.076A3.242,3.242,0,0,1,17,23Z"/><path class="f" d="M8.445,8.033h1v2h-1Z" transform="translate(-3.768 8.973) rotate(-45)"/><path class="f" d="M4.379,3.967h1v2h-1Z" transform="translate(-2.083 4.903) rotate(-45)"/><path class="f" d="M8.121,4.467h2v1h-2Z" transform="translate(-0.841 7.905) rotate(-45)"/><path class="f" d="M4.055,8.533h2v1h-2Z" transform="translate(-4.907 6.22) rotate(-45)"/></g><g transform="translate(120.71 272.416)"><path d="M26.75,30H9.25A2.252,2.252,0,0,1,7,27.75v-9.5A2.252,2.252,0,0,1,9.25,16h17.5A2.253,2.253,0,0,1,29,18.25v9.5A2.253,2.253,0,0,1,26.75,30ZM9.25,17.5a.751.751,0,0,0-.75.75v9.5a.751.751,0,0,0,.75.75h17.5a.751.751,0,0,0,.75-.75v-9.5a.751.751,0,0,0-.75-.75Z"/><path d="M18,27a4,4,0,1,1,4-4A4,4,0,0,1,18,27Zm0-6.5A2.5,2.5,0,1,0,20.5,23,2.5,2.5,0,0,0,18,20.5Z"/><path d="M10.5,22.25h1.75v1.5H10.5Z"/><path d="M23.75,22.25H25.5v1.5H23.75Z"/><path d="M20.245,9.805,18,7.764,15.755,9.806,14.745,8.7l2.75-2.5a.751.751,0,0,1,1.01,0l2.75,2.5Z"/><path d="M17.25,6.75h1.5v7.5h-1.5Z"/></g></g></svg>