<svg xmlns="http://www.w3.org/2000/svg" width="18.237" height="18.368" viewBox="0 0 18.237 18.368">
  <g id="about-us" transform="translate(-4 -5)">
    <g id="Group_37993" data-name="Group 37993" transform="translate(4 5)">
      <path id="Path_43301" data-name="Path 43301" d="M13.118,957.362a.438.438,0,0,0-.223.064L4.57,963.141a.43.43,0,0,0-.167.466.409.409,0,0,0,.39.287H5.982v7.755H4.793a.418.418,0,0,0-.4.408v1.225a.418.418,0,0,0-.4.408v1.633a.418.418,0,0,0,.4.408H21.84a.418.418,0,0,0,.4-.408V973.69a.418.418,0,0,0-.4-.408v-1.225a.418.418,0,0,0-.4-.408H20.255v-7.755h1.189a.408.408,0,0,0,.39-.287.43.43,0,0,0-.167-.466l-8.325-5.715A.348.348,0,0,0,13.118,957.362Zm0,.9,7.012,4.815H6.106Zm0,1.55a1.225,1.225,0,1,0,1.189,1.225A1.214,1.214,0,0,0,13.118,959.811Zm0,.816a.408.408,0,1,1-.4.408A.4.4,0,0,1,13.118,960.628Zm-6.343,3.266h.793v7.755H6.775Zm1.586,0H9.947v7.755H8.361Zm2.379,0h.793v7.755H10.74Zm1.586,0h1.586v7.755H12.325Zm2.379,0H15.5v7.755H14.7Zm1.586,0h1.586v7.755H16.29Zm2.379,0h.793v7.755h-.793ZM5.189,972.465H21.047v.816H5.189Zm-.4,1.633H21.444v.816H4.793Z" transform="translate(-4 -957.362)" fill="#007c3d"/>
    </g>
  </g>
</svg>
