<svg xmlns="http://www.w3.org/2000/svg" width="30.613" height="34.973" viewBox="0 0 30.613 34.973"><defs><style>.a,.b{fill:#37474f;}.b{stroke:#37474f;stroke-width:0.3px;}</style></defs><path class="a" d="M30.66,21.831a.728.728,0,0,0,.728-.728V18.919h1.456a.728.728,0,0,0,.728-.728c0-2,.16-2.555-.4-2.832l-7.7-3.851a8.008,8.008,0,1,0-14.372,0L3.4,15.359c-.531.262-.4.648-.4,2.832a.728.728,0,0,0,.728.728H5.179V21.1a.728.728,0,0,0,.728.728h.728v5.824H5.907a.728.728,0,0,0-.728.728v2.184H3.723a.728.728,0,0,0-.728.728v2.912a.728.728,0,0,0,.728.728H32.845a.728.728,0,0,0,.728-.728V31.3a.728.728,0,0,0-.728-.728H31.388V28.384a.728.728,0,0,0-.728-.728h-.728V21.831Zm-.728-1.456H25.564V18.919h4.368Zm-5.1,7.28a.728.728,0,0,0-.728.728v2.184H21.924V28.384a.728.728,0,0,0-.728-.728h-.728V21.831H21.2a.728.728,0,0,0,.728-.728V18.919h2.184V21.1a.728.728,0,0,0,.728.728h.728v5.824ZM12.459,30.568V28.384a.728.728,0,0,0-.728-.728H11V21.831h.728a.728.728,0,0,0,.728-.728V18.919h2.184V21.1a.728.728,0,0,0,.728.728H16.1v5.824h-.728a.728.728,0,0,0-.728.728v2.184Zm6.552-2.912H17.556V21.831h1.456ZM16.1,20.375V18.919h4.368v1.456Zm0,8.737h4.368v1.456H16.1ZM18.284,1.446A6.552,6.552,0,1,1,11.731,8a6.552,6.552,0,0,1,6.552-6.552ZM4.451,16.459l7.4-3.706c1.6,2.155,2.788,1.8.6,1.8a.728.728,0,0,0,0,1.456H24.108a.728.728,0,0,0,0-1.456c-2.184,0-1,.357.6-1.8l7.4,3.706v1H4.451ZM11,18.919v1.456H6.635V18.919ZM8.091,21.831H9.547v5.824H8.091Zm-1.456,7.28H11v1.456H6.635ZM32.116,33.48H4.451V32.024H32.116Zm-6.552-2.912V29.112h4.368v1.456Zm2.912-2.912H27.02V21.831h1.456Z" transform="translate(-2.98 0.036)"/><path class="b" d="M.349-11.664H5.363v.01a7.776,7.776,0,0,1-.5.73H3.523a1.75,1.75,0,0,1,.375.787H5.327q.026.005.026.021-.479.719-.49.719H3.935a2.128,2.128,0,0,1-.354.891,2.178,2.178,0,0,1-.818.683,3.235,3.235,0,0,1-1.4.349v.01a1.932,1.932,0,0,0,.328.433L4.17-4.044V-3.9q0,.021-.026.021H3.054Q.115-7.307.115-7.323v-.693l.01-.026a4.456,4.456,0,0,0,.61.036q1.647,0,2.048-1.068A.862.862,0,0,0,2.846-9.4H-.135a.018.018,0,0,1-.021-.021q.5-.719.506-.719H2.715v-.01a1.387,1.387,0,0,0-.787-.641,2.457,2.457,0,0,0-.751-.136H-.146v-.026Q.334-11.664.349-11.664Z" transform="translate(12.413 16.173)"/></svg>