<?xml version="1.0" encoding="utf-8"?>
<!-- Generator: Adobe Illustrator 23.0.1, SVG Export Plug-In . SVG Version: 6.00 Build 0)  -->
<svg version="1.1" id="Layer_1" xmlns="http://www.w3.org/2000/svg" xmlns:xlink="http://www.w3.org/1999/xlink" x="0px" y="0px"
	 viewBox="0 0 23.3 24.5" style="enable-background:new 0 0 23.3 24.5;" xml:space="preserve">
<style type="text/css">
	.st0{fill:#EFCB1B;fill-opacity:0;}
	.st1{fill:#EFCB1B;stroke:#EFCB1B;stroke-width:2;}
</style>
<g transform="translate(643 1998)">
	<path class="st0" d="M-648.1-2002.8h33.7v33.7h-33.7V-2002.8z"/>
	<path class="st1" d="M-621.2-1986.8c0.6-0.6,0.6-1.5,0-2.1c-0.2-0.2-0.5-0.4-0.9-0.4l-5.1-0.7c-0.2,0-0.4-0.2-0.5-0.4l-2.3-4.6
		c-0.4-0.7-1.3-1.1-2-0.7c-0.3,0.1-0.5,0.4-0.7,0.7l-2.3,4.6c-0.1,0.2-0.3,0.3-0.5,0.4l-5.1,0.7c-0.8,0.1-1.4,0.9-1.3,1.7
		c0,0.3,0.2,0.6,0.4,0.9l3.7,3.6c0.2,0.2,0.2,0.4,0.2,0.6l-0.9,5.1c-0.1,0.8,0.4,1.6,1.2,1.7c0.3,0.1,0.7,0,1-0.2l4.6-2.4
		c0.2-0.1,0.4-0.1,0.6,0l4.6,2.4c0.7,0.4,1.6,0.1,2-0.6c0.2-0.3,0.2-0.6,0.2-1l-0.9-5.1c0-0.2,0-0.4,0.2-0.6L-621.2-1986.8z"/>
</g>
</svg>
