<svg xmlns="http://www.w3.org/2000/svg" width="36" height="36" viewBox="0 0 36 36"><defs><style>.a{fill:#007c3d;}.b,.c{stroke:none;}.c{fill:#fff;}</style></defs><g class="a"><path class="b" d="M 18 35.75 L 4.500000476837158 35.75 C 2.156540393829346 35.75 0.2500004768371582 33.84346008300781 0.2500004768371582 31.5 L 0.2500004768371582 30.00001907348633 C 0.2500004768371582 27.36809921264648 0.9575804471969604 24.78425025939941 2.296250581741333 22.52779960632324 C 3.594150543212891 20.34008979797363 5.448180675506592 18.51005935668945 7.657910346984863 17.23555946350098 L 7.89016056060791 17.10161018371582 L 7.740310668945313 16.87928009033203 C 6.76533031463623 15.43268013000488 6.249980449676514 13.74545955657959 6.249980449676514 12.00002002716064 L 6.249980449676514 9 C 6.249980449676514 4.175230026245117 10.17520999908447 0.25 14.99997043609619 0.25 C 19.82474136352539 0.25 23.74998092651367 4.175230026245117 23.74998092651367 9 L 23.74998092651367 12.00008964538574 C 23.74998092651367 16.82485961914063 19.82475090026855 20.75008964538574 14.99998092651367 20.75008964538574 C 13.13731002807617 20.75008964538574 11.35026073455811 20.16050910949707 9.83202075958252 19.04509925842285 L 9.709290504455566 18.95492935180664 L 9.572870254516602 19.02263069152832 C 5.364380359649658 21.1109790802002 2.750020503997803 25.31730079650879 2.750020503997803 30.00009918212891 L 2.750020503997803 31.50007057189941 C 2.750020503997803 32.46501159667969 3.535060405731201 33.25004959106445 4.500000476837158 33.25004959106445 L 18 33.25004959106445 C 18.68924140930176 33.25004959106445 19.24998092651367 33.810791015625 19.24998092651367 34.50003051757813 C 19.24998092651367 35.18927001953125 18.68924140930176 35.75 18 35.75 Z M 14.99998092651367 2.750020027160645 C 11.55373001098633 2.750020027160645 8.75 5.553750038146973 8.75 9 L 8.75 12.00002002716064 C 8.75 15.44626998901367 11.55376052856445 18.25 15.00005054473877 18.25 C 18.4463005065918 18.25 21.25002098083496 15.44626998901367 21.25002098083496 12.00002002716064 L 21.24995040893555 8.999990463256836 C 21.24995040893555 5.553750038146973 18.44622993469238 2.750020027160645 14.99998092651367 2.750020027160645 Z"/><path class="c" d="M 14.99997043609619 0.5 C 10.31305027008057 0.5 6.499971389770508 4.313079833984375 6.499971389770508 9 L 6.499971389770508 12.00001907348633 C 6.499971389770508 13.69548034667969 7.000560760498047 15.33437919616699 7.947620391845703 16.73954963684082 L 8.247310638427734 17.1842098236084 L 7.782810211181641 17.45211982727051 C 5.610179901123047 18.70521926879883 3.787309646606445 20.50447082519531 2.511260986328125 22.65536117553711 C 1.195480346679688 24.87322044372559 0.5 27.41296005249023 0.5 30.00001907348633 L 0.5 31.5 C 0.5 33.70560836791992 2.294389724731445 35.5 4.5 35.5 L 18 35.5 C 18.5513916015625 35.5 18.99998092651367 35.05141830444336 18.99998092651367 34.50003051757813 C 18.99998092651367 33.94863891601563 18.5513916015625 33.50004959106445 18 33.50004959106445 L 4.5 33.50004959106445 C 3.397211074829102 33.50004959106445 2.500020980834961 32.60285949707031 2.500020980834961 31.50007057189941 L 2.500020980834961 30.00008964538574 C 2.500020980834961 25.22167015075684 5.167600631713867 20.92953872680664 9.461750030517578 18.79867935180664 L 9.734580039978027 18.66329956054688 L 9.980030059814453 18.84362983703613 C 11.45506000518799 19.92728996276855 13.19093036651611 20.50008964538574 14.99998092651367 20.50008964538574 C 19.6869010925293 20.50008964538574 23.49998092651367 16.68700981140137 23.49998092651367 12.00008964538574 L 23.49998092651367 9 C 23.49998092651367 4.313079833984375 19.6868896484375 0.5 14.99997043609619 0.5 M 15.00005054473877 18.5 C 11.4159107208252 18.5 8.5 15.58411979675293 8.5 12.00001907348633 L 8.5 9 C 8.5 5.415899276733398 11.41588020324707 2.500019073486328 14.99998092651367 2.500019073486328 C 18.58407974243164 2.500019073486328 21.49995040893555 5.415899276733398 21.49995040893555 8.999990463256836 L 21.50002098083496 12.00001907348633 C 21.50002098083496 15.58411979675293 18.58415031433105 18.5 15.00005054473877 18.5 M 14.99997043609619 0 C 19.96347999572754 0 23.99998092651367 4.036500930786133 23.99998092651367 9 L 23.99998092651367 12.00008964538574 C 23.99998092651367 16.96359062194824 19.96347999572754 21.00008964538574 14.99998092651367 21.00008964538574 C 13.0109806060791 21.00008964538574 11.17652034759521 20.34309005737305 9.684000015258789 19.2465705871582 C 5.727020263671875 21.21012115478516 3.000020980834961 25.29161071777344 3.000020980834961 30.00008964538574 L 3.000020980834961 31.50007057189941 C 3.000020980834961 32.32651901245117 3.672000885009766 33.00004959106445 4.5 33.00004959106445 L 18 33.00004959106445 C 18.82948112487793 33.00004959106445 19.49998092651367 33.67201995849609 19.49998092651367 34.50003051757813 C 19.49998092651367 35.32801818847656 18.82948112487793 36 18 36 L 4.5 36 C 2.019020080566406 36 0 33.98097991943359 0 31.5 L 0 30.00001907348633 C 0 24.44997978210449 3.038980484008789 19.61100006103516 7.533000946044922 17.01899909973145 C 6.565500259399414 15.58349990844727 5.999971389770508 13.85704040527344 5.999971389770508 12.00001907348633 L 5.999971389770508 9 C 5.999971389770508 4.036500930786133 10.03648090362549 0 14.99997043609619 0 Z M 15.00005054473877 18 C 18.30902099609375 18 21.00002098083496 15.30900001525879 21.00002098083496 12.00001907348633 L 20.99995040893555 12.00001907348633 L 20.99995040893555 9 C 20.99995040893555 5.691019058227539 18.30895042419434 3.000019073486328 14.99998092651367 3.000019073486328 C 11.69100093841553 3.000019073486328 9 5.691019058227539 9 9 L 9 12.00001907348633 C 9 15.30900001525879 11.69107055664063 18 15.00005054473877 18 Z"/></g><g transform="translate(18 18)"><g class="a" transform="translate(-256 -256.001)"><path class="b" d="M 264.9999084472656 273.7508544921875 C 264.3106689453125 273.7508544921875 263.7499084472656 273.1900939941406 263.7499084472656 272.5008544921875 L 263.7499084472656 266.5009155273438 L 263.7499084472656 266.2509155273438 L 263.4999084472656 266.2509155273438 L 257.4999694824219 266.2509155273438 C 256.8107299804688 266.2509155273438 256.25 265.690185546875 256.25 265.0009765625 C 256.25 264.3117370605469 256.8108215332031 263.7509765625 257.5001525878906 263.7509765625 L 263.5000915527344 263.7509765625 L 263.7500915527344 263.7509765625 L 263.7500915527344 263.5009765625 L 263.7500915527344 257.5009765625 C 263.7500915527344 256.8117370605469 264.3108215332031 256.2509765625 265.0000610351563 256.2509765625 C 265.6892700195313 256.2509765625 266.25 256.8117370605469 266.25 257.5009765625 L 266.25 263.5009765625 L 266.25 263.7509765625 L 266.5 263.7509765625 L 272.5 263.7509765625 C 273.189208984375 263.7509765625 273.7499084472656 264.3117370605469 273.7499084472656 265.0009765625 C 273.7499084472656 265.690185546875 273.1891479492188 266.2509155273438 272.4999084472656 266.2509155273438 L 266.4999084472656 266.2509155273438 L 266.2499084472656 266.2509155273438 L 266.2499084472656 266.5009155273438 L 266.2499084472656 272.5008544921875 C 266.2499084472656 273.1900939941406 265.6891479492188 273.7508544921875 264.9999084472656 273.7508544921875 Z"/><path class="c" d="M 265.0000610351563 256.5009765625 C 264.4486694335938 256.5009765625 264.0000915527344 256.9495849609375 264.0000915527344 257.5009765625 L 264.0000915527344 263.5009765625 L 264.0000915527344 264.0009765625 L 263.5000915527344 264.0009765625 L 257.5001525878906 264.0009765625 C 256.9486694335938 264.0009765625 256.5 264.4495849609375 256.5 265.0009765625 C 256.5 265.5523376464844 256.9485778808594 266.0009155273438 257.4999694824219 266.0009155273438 L 263.4999084472656 266.0009155273438 L 263.9999084472656 266.0009155273438 L 263.9999084472656 266.5009155273438 L 263.9999084472656 272.5008544921875 C 263.9999084472656 273.05224609375 264.4485168457031 273.5008544921875 264.9999084472656 273.5008544921875 C 265.5513000488281 273.5008544921875 265.9999084472656 273.05224609375 265.9999084472656 272.5008544921875 L 265.9999084472656 266.5009155273438 L 265.9999084472656 266.0009155273438 L 266.4999084472656 266.0009155273438 L 272.4999084472656 266.0009155273438 C 273.0513000488281 266.0009155273438 273.4999084472656 265.5523376464844 273.4999084472656 265.0009765625 C 273.4999084472656 264.4495849609375 273.0513610839844 264.0009765625 272.5 264.0009765625 L 266.5 264.0009765625 L 266 264.0009765625 L 266 263.5009765625 L 266 257.5009765625 C 266 256.9495849609375 265.5514221191406 256.5009765625 265.0000610351563 256.5009765625 M 265.0000610351563 256.0009765625 C 265.8295288085938 256.0009765625 266.5 256.6729736328125 266.5 257.5009765625 L 266.5 263.5009765625 L 272.5 263.5009765625 C 273.3294677734375 263.5009765625 273.9999084472656 264.1729125976563 273.9999084472656 265.0009765625 C 273.9999084472656 265.8289794921875 273.3293762207031 266.5009155273438 272.4999084472656 266.5009155273438 L 266.4999084472656 266.5009155273438 L 266.4999084472656 272.5008544921875 C 266.4999084472656 273.328857421875 265.8294067382813 274.0008544921875 264.9999084472656 274.0008544921875 C 264.1704406738281 274.0008544921875 263.4999084472656 273.328857421875 263.4999084472656 272.5008544921875 L 263.4999084472656 266.5009155273438 L 257.4999694824219 266.5009155273438 C 256.6705017089844 266.5009155273438 256 265.8289794921875 256 265.0009765625 C 256 264.1729125976563 256.6705017089844 263.5009765625 257.5001525878906 263.5009765625 L 263.5000915527344 263.5009765625 L 263.5000915527344 257.5009765625 C 263.5000915527344 256.6729736328125 264.1705932617188 256.0009765625 265.0000610351563 256.0009765625 Z"/></g></g></svg>