<svg xmlns="http://www.w3.org/2000/svg" width="17.508" height="19.155" viewBox="0 0 17.508 19.155">
  <g id="Group" transform="translate(-0.15 -0.151)">
    <path id="Subtraction_2" data-name="Subtraction 2" d="M-4441.8-1463.485a3.974,3.974,0,0,1-3.97-3.969,3.974,3.974,0,0,1,3.97-3.969,3.973,3.973,0,0,1,3.969,3.969,3.937,3.937,0,0,1-1.163,2.806A3.943,3.943,0,0,1-4441.8-1463.485Zm.021-6.895a2.907,2.907,0,0,0-1.113.22,2.918,2.918,0,0,0-1.812,2.706,2.934,2.934,0,0,0,2.9,2.926h.025a2.918,2.918,0,0,0,2.7-1.79,2.917,2.917,0,0,0-.62-3.2A2.9,2.9,0,0,0-4441.779-1470.38Z" transform="translate(4448.875 1471.573)" fill="#007c3d"/>
    <path id="Subtraction_1" data-name="Subtraction 1" d="M-4433.3-1461.245a5.009,5.009,0,0,1-3.99-1.957l-.046-.058h-7.685a.747.747,0,0,1-.747-.745v-1.342a6.068,6.068,0,0,1,1.785-4.289,6.06,6.06,0,0,1,4.29-1.785h1.759a5.97,5.97,0,0,1,2.455.524l.062.027.06-.027a4.992,4.992,0,0,1,2.044-.435h.022a5.058,5.058,0,0,1,3.15,1.114,5.07,5.07,0,0,1,1.763,2.84,5.068,5.068,0,0,1-.4,3.317,5.061,5.061,0,0,1-2.386,2.34A4.994,4.994,0,0,1-4433.3-1461.245Zm.011-9.045a3.975,3.975,0,0,0-2.838,1.181,3.989,3.989,0,0,0-.853,4.367,3.993,3.993,0,0,0,3.69,2.454h.023a4,4,0,0,0,2.8-1.178,3.993,3.993,0,0,0,1.179-2.822,3.989,3.989,0,0,0-2.475-3.7A3.974,3.974,0,0,0-4433.292-1470.29Zm-6.4-.112a5.018,5.018,0,0,0-3.55,1.479,5.027,5.027,0,0,0-1.479,3.551v1.046h6.77l-.076-.2a5.023,5.023,0,0,1,1.3-5.479l.208-.191-.274-.065a5.085,5.085,0,0,0-1.177-.138Z" transform="translate(4445.92 1480.551)" fill="#007c3d"/>
    <path id="Path" d="M59.688,60.758H58.5V59.572a.672.672,0,0,0-1.343,0v1.187H55.972a.672.672,0,0,0,0,1.343h1.187v1.187a.672.672,0,0,0,1.343,0V62.1h1.187a.672.672,0,0,0,0-1.343Z" transform="translate(-45.203 -47.169)" fill="#007c3d"/>
    <path id="Path_-_Outline" data-name="Path - Outline" d="M57.83,58.75a.823.823,0,0,1,.822.822v1.037h1.037a.822.822,0,1,1,0,1.643H58.651v1.037a.822.822,0,1,1-1.643,0V62.251H55.972a.822.822,0,1,1,0-1.643h1.037V59.572A.823.823,0,0,1,57.83,58.75Zm1.858,3.2a.522.522,0,1,0,0-1.043H58.351V59.572a.522.522,0,1,0-1.043,0v1.337H55.972a.522.522,0,1,0,0,1.043h1.337v1.337a.522.522,0,1,0,1.043,0V61.951Z" transform="translate(-45.203 -47.169)" fill="#fff"/>
  </g>
</svg>
