<svg xmlns="http://www.w3.org/2000/svg" width="21.085" height="18.863" viewBox="0 0 21.085 18.863"><defs><style>.a{fill:#007c3d;}</style></defs><g transform="translate(-5.015 -9.755)"><path class="a" d="M17.507,10.881a2.251,2.251,0,0,0-3.9,0L5.317,25.242a2.251,2.251,0,0,0,1.95,3.377H23.849a2.251,2.251,0,0,0,1.95-3.377ZM24.581,26.79a.83.83,0,0,1-.732.423H7.266a.845.845,0,0,1-.732-1.268l8.291-14.361a.845.845,0,0,1,1.464,0l8.291,14.361a.83.83,0,0,1,0,.845Z" transform="translate(0 0)"/><path class="a" d="M47.7,39.035a.7.7,0,0,0,.7-.7v-6.2a.7.7,0,0,0-1.406,0v6.2a.7.7,0,0,0,.7.7Z" transform="translate(-32.146 -16.595)"/><path class="a" d="M47.569,69.917a.744.744,0,1,0,.744.744.744.744,0,0,0-.744-.744Z" transform="translate(-32.012 -46.063)"/></g></svg>