<svg xmlns="http://www.w3.org/2000/svg" width="25.118" height="36" viewBox="0 0 25.118 36" >
  <g id="Amount" transform="translate(-62.89 0)">
    <g id="Group_36546" data-name="Group 36546" transform="translate(62.89 0)">
      <g id="Group_36545" data-name="Group 36545" transform="translate(0)">
        <path id="Path_28499" data-name="Path 28499" d="M87.16,20.444a11.747,11.747,0,0,0-7.233-10.149l4.542-7.527a.066.066,0,0,0,.017-.035,1.763,1.763,0,0,0-.718-2.4A1.716,1.716,0,0,0,82.531.172L81.112.5a22.006,22.006,0,0,1-8.7.242l-4.2-.718A1.772,1.772,0,0,0,66.17,1.47a1.723,1.723,0,0,0,.19,1.133c.009.009.009.026.017.035L70.972,10.3a11.7,11.7,0,0,0-7.224,10.149l-.857,14.639a.861.861,0,0,0,.8.908H87.142a.86.86,0,0,0,.865-.857v-.052ZM67.866,1.781a.065.065,0,0,1,.009-.035c.017-.017.026-.017.035-.017l4.2.718a23.819,23.819,0,0,0,9.387-.26l1.41-.329a.032.032,0,0,1,.043.017c.009.017.009.017.009.026l-4.62,7.648a.816.816,0,0,0-.087.2c-.208-.052-.415-.1-.623-.138,0-.009.009-.017.009-.035l.418-1.57a.855.855,0,0,0-.623-1.047.866.866,0,0,0-1.047.623l-.409,1.578a.883.883,0,0,0-.026.26c-.164-.009-.329-.009-.493-.009-.112,0-.234,0-.346.009l-.675-2.793a.865.865,0,0,0-1.653.51c0,.009,0,.009.009.017L73.351,9.6c-.26.043-.51.1-.77.164a.793.793,0,0,0-.121-.337ZM64.673,34.269l.8-13.722A10,10,0,0,1,76.051,11.16a9.732,9.732,0,0,1,1.8.277,10.011,10.011,0,0,1,7.579,9.11l.8,13.722Z" transform="translate(-62.89 0)" fill="#007c3d"/>
      </g>
    </g>
    <g id="Group_36548" data-name="Group 36548" transform="translate(71.893 18.992)">
      <g id="Group_36547" data-name="Group 36547" transform="translate(0)">
        <path id="Path_28500" data-name="Path 28500" d="M165.38,194.511h-.955a3.954,3.954,0,0,0-.413-1h1.369v.007a.713.713,0,1,0,0-1.426h-5.567a.713.713,0,1,0,0,1.426h1.6a1.712,1.712,0,0,1,1.518,1h-3.115a.713.713,0,1,0,0,1.426h3.115a2.306,2.306,0,0,1-.335.492,1.663,1.663,0,0,1-1.183.506h-1.6a.7.7,0,0,0-.492,1.2l3.985,3.757a.713.713,0,0,0,.984-1.034l-2.695-2.545a3.054,3.054,0,0,0,2-.905,3.013,3.013,0,0,0,.827-1.483h.955a.713.713,0,1,0,0-1.426Z" transform="translate(-159.099 -192.094)" fill="#007c3d"/>
      </g>
    </g>
  </g>
</svg>
