<svg id="apply-products" xmlns="http://www.w3.org/2000/svg" width="49.609" height="48.144" viewBox="0 0 49.609 48.144">
  <path id="Path_43903" data-name="Path 43903" d="M24.8,0a1.147,1.147,0,0,0-.6.167L2.77,13.237a1.075,1.075,0,0,0-.481,1.224,1.118,1.118,0,0,0,1.079.788H46.244a1.106,1.106,0,0,0,1.122-1.089,1.084,1.084,0,0,0-.573-.95L25.4.167A1.147,1.147,0,0,0,24.8,0Zm0,2.376L42.345,13.071H7.263ZM3.367,17.428a1.09,1.09,0,1,0,0,2.178H4.489V36.162H3.367a1.106,1.106,0,0,0-1.122,1.089v3.268H1.122A1.106,1.106,0,0,0,0,41.608v5.446a1.106,1.106,0,0,0,1.122,1.089H48.487a1.106,1.106,0,0,0,1.122-1.089V41.608a1.106,1.106,0,0,0-1.122-1.089H47.364V37.251a1.106,1.106,0,0,0-1.122-1.089H45.119V19.606h1.122a1.09,1.09,0,1,0,0-2.178H3.367Zm14.7,2.167c6.754,0,13.32.012,20.322.012V36.162c-9.45-.009-17.862,0-27.161,0V19.606C13.54,19.6,15.812,19.6,18.063,19.594Zm-11.329.012H8.979V36.162H6.734Zm33.9,0h2.245V36.162H40.63Zm-15.674.982c-.619.009.3,0,0,0ZM4.489,38.341h40.63v2.178H4.489ZM2.245,42.7H47.364v3.268H2.245Z" transform="translate(0 0)" fill="#007c3d"/>
  <path id="Union_27" data-name="Union 27" d="M5.977,12.537,2.526,8.384a4.755,4.755,0,0,0-.935-.916,1.329,1.329,0,0,0-.76-.247h-.3V5.42h1.42a7.673,7.673,0,0,0,1.083-.074,3.286,3.286,0,0,0,.89-.25,1.788,1.788,0,0,0,.628-.465,1.183,1.183,0,0,0,.234-.456H0L.875,2.615H4.658a1.668,1.668,0,0,0-.123-.226,1.706,1.706,0,0,0-.4-.428,1.812,1.812,0,0,0-.572-.282,3.107,3.107,0,0,0-.779-.119H0L.875,0H9.881L9.007,1.559H6.645a2.929,2.929,0,0,1,.2.345,3.1,3.1,0,0,1,.242.711h2.8L9.007,4.175h-1.9a3.081,3.081,0,0,1-.344.937,3.642,3.642,0,0,1-.75.921A4.275,4.275,0,0,1,4.993,6.7a6.138,6.138,0,0,1-.741.291L8.9,12.537ZM.831,6.948a1.653,1.653,0,0,1,.94.3,5,5,0,0,1,1,.972l3.36,4.043h0L2.767,8.221a5,5,0,0,0-1-.972A1.653,1.653,0,0,0,.831,6.948ZM6.5,4.987a3.353,3.353,0,0,1-.693.852,3.96,3.96,0,0,1-.949.619,5.783,5.783,0,0,1-1.1.387,5.783,5.783,0,0,0,1.1-.387A3.96,3.96,0,0,0,5.8,5.838,3.353,3.353,0,0,0,6.5,4.987,2.891,2.891,0,0,0,6.848,3.9H8.822l.569-1.015L8.822,3.9H6.848A2.891,2.891,0,0,1,6.5,4.987ZM.489,3.9h0ZM5.064,2.887a1.958,1.958,0,0,0-.74-1.136,2.655,2.655,0,0,0-1.537-.465h0a2.655,2.655,0,0,1,1.537.465A1.958,1.958,0,0,1,5.064,2.887Zm3.758-1.6L9.392.272,8.822,1.287h0Z" transform="translate(19.088 21.693)" fill="#007c3d"/>
</svg>
