<svg xmlns="http://www.w3.org/2000/svg" width="103.337" height="33.803" viewBox="0 0 103.337 33.803"><defs><style>.a{fill:#fff;}</style></defs><path d="M199.978,965.059a4.568,4.568,0,0,1-4.567,4.568h-94.2a4.569,4.569,0,0,1-4.568-4.568V940.393a4.568,4.568,0,0,1,4.568-4.568h94.2a4.568,4.568,0,0,1,4.567,4.568Z" transform="translate(-96.641 -935.825)"/><g transform="translate(6.932 5.255)"><path class="a" d="M151.653,1001.521a16.742,16.742,0,0,1-1.513,2.825c-.983,1.5-2.368,3.359-4.084,3.375-1.525.014-1.917-.993-3.987-.982s-2.5,1-4.027.985c-1.716-.016-3.029-1.7-4.012-3.194-2.748-4.184-3.035-9.093-1.341-11.7a6.082,6.082,0,0,1,4.891-2.941c1.819,0,2.963,1,4.467,1,1.459,0,2.348-1,4.451-1a5.935,5.935,0,0,1,4.474,2.363A5.12,5.12,0,0,0,151.653,1001.521Z" transform="translate(-131.637 -984.432)"/><g transform="translate(9.62 0)"><path class="a" d="M183.853,966.137a5.106,5.106,0,0,0,1.134-3.782,5.517,5.517,0,0,0-3.561,1.915,4.74,4.74,0,0,0-1.164,3.689A4.656,4.656,0,0,0,183.853,966.137Z" transform="translate(-180.207 -962.355)"/></g></g><g transform="translate(31.383 5.305)"><g transform="translate(0 8.097)"><path class="a" d="M259.019,1004.42l-3.937,11.588h1.8l1.175-3.558h3.812l1.209,3.558h1.853l-3.954-11.588Zm.934,1.905c.133.517.276,1.054.461,1.635l1.061,3.073h-3.019l1.046-3.093C259.66,1007.439,259.812,1006.9,259.953,1006.325Z" transform="translate(-255.082 -1004.235)"/><path class="a" d="M312.475,1019.586a3.28,3.28,0,0,0-2.787,1.337l-.07-1.153h-1.6l.009.147c.047.718.067,1.508.067,2.643v8.932h1.753v-4.168a3.078,3.078,0,0,0,2.4,1.03,3.614,3.614,0,0,0,2.657-1.13,4.789,4.789,0,0,0,1.173-3.372,4.664,4.664,0,0,0-1.018-3.079A3.336,3.336,0,0,0,312.475,1019.586Zm-.437,1.451c1.563,0,2.262,1.448,2.262,2.883,0,1.85-.892,3-2.329,3a2.126,2.126,0,0,1-2.066-1.627,2.235,2.235,0,0,1-.062-.567v-1.41a2.641,2.641,0,0,1,.056-.433c.009-.048.018-.1.025-.142A2.22,2.22,0,0,1,312.038,1021.037Z" transform="translate(-297.53 -1016.397)"/><path class="a" d="M358.056,1019.586a3.282,3.282,0,0,0-2.787,1.337l-.07-1.153h-1.6l.009.147c.048.719.068,1.508.068,2.643v8.932h1.753v-4.168a3.077,3.077,0,0,0,2.4,1.03,3.619,3.619,0,0,0,2.658-1.13,4.8,4.8,0,0,0,1.172-3.372,4.664,4.664,0,0,0-1.019-3.079A3.335,3.335,0,0,0,358.056,1019.586Zm-.436,1.451c1.562,0,2.262,1.448,2.262,2.883,0,1.85-.893,3-2.329,3a2.126,2.126,0,0,1-2.066-1.627,2.238,2.238,0,0,1-.062-.567v-1.41a2.605,2.605,0,0,1,.056-.434c.009-.047.017-.094.025-.141A2.219,2.219,0,0,1,357.62,1021.037Z" transform="translate(-334.083 -1016.397)"/><path class="a" d="M416.319,1008.583c-1.636-.634-2.161-1.132-2.161-2.053,0-.775.616-1.557,1.993-1.557a3.984,3.984,0,0,1,2.058.517l.149.092.495-1.463-.1-.057a5.082,5.082,0,0,0-2.553-.573c-2.236,0-3.8,1.32-3.8,3.209,0,1.524.978,2.589,3.077,3.352,1.488.556,2.042,1.126,2.042,2.1,0,1.105-.854,1.791-2.229,1.791a4.8,4.8,0,0,1-2.527-.717l-.152-.1-.471,1.5.087.057a6,6,0,0,0,2.963.762c3.013,0,4.082-1.837,4.082-3.411C419.276,1010.412,418.42,1009.412,416.319,1008.583Z" transform="translate(-381.035 -1003.488)"/><path class="a" d="M452.023,1010.439l-1.72.54v1.457h-1.259v1.4H450.3v4.292a3.281,3.281,0,0,0,.607,2.224,2.247,2.247,0,0,0,1.7.666,4.131,4.131,0,0,0,1.355-.209l.1-.035-.084-1.4-.168.052a2.641,2.641,0,0,1-.815.094c-.679,0-.97-.43-.97-1.439v-4.242h2.115v-1.4h-2.115Z" transform="translate(-410.626 -1009.062)"/><path class="a" d="M479.828,1019.586a4.129,4.129,0,0,0-4.166,4.451,4,4,0,0,0,4.032,4.317h.016a4.133,4.133,0,0,0,4.166-4.468,4.429,4.429,0,0,0-1.117-3.1A3.9,3.9,0,0,0,479.828,1019.586Zm-.051,1.384c1.577,0,2.3,1.538,2.3,2.967,0,1.758-.98,3.033-2.329,3.033h-.017c-1.329,0-2.295-1.254-2.295-2.982C477.432,1022.486,478.158,1020.97,479.777,1020.97Z" transform="translate(-431.971 -1016.397)"/><path class="a" d="M526.575,1019.667l-.105-.027a1.69,1.69,0,0,0-.436-.055,2.5,2.5,0,0,0-2.2,1.411l-.051-1.227h-1.573l.01.147c.047.694.066,1.473.066,2.525l-.016,5.727h1.753V1023.7a4.521,4.521,0,0,1,.048-.68,1.938,1.938,0,0,1,1.845-1.767,4.49,4.49,0,0,1,.47.029l.188.019Z" transform="translate(-469.3 -1016.397)"/><path class="a" d="M548.1,1019.5c-2.334,0-3.964,1.865-3.964,4.535a3.92,3.92,0,0,0,4.132,4.233,6.726,6.726,0,0,0,2.776-.532l.106-.048-.337-1.307-.146.059a5.436,5.436,0,0,1-2.2.393,2.437,2.437,0,0,1-2.626-2.542l5.659.017.023-.112a3.9,3.9,0,0,0,.053-.732C551.573,1021.638,550.662,1019.5,548.1,1019.5Zm-.117,1.334a1.73,1.73,0,0,1,1.287.491,2.5,2.5,0,0,1,.6,1.632h-4A2.238,2.238,0,0,1,547.978,1020.836Z" transform="translate(-486.878 -1016.33)"/></g><path class="a" d="M255.082,963.995a12.772,12.772,0,0,1,1.682-.114,3.753,3.753,0,0,1,2.469.675,2.4,2.4,0,0,1,.868,1.977,2.776,2.776,0,0,1-.877,2.132,4.069,4.069,0,0,1-2.7.789,12.154,12.154,0,0,1-1.438-.065Zm.8,4.858a5.637,5.637,0,0,0,.8.033c1.682.008,2.595-.846,2.595-2.327.009-1.31-.8-2.116-2.468-2.116a5,5,0,0,0-.922.073Z" transform="translate(-255.082 -963.629)"/><path class="a" d="M286.162,975.557a1.977,1.977,0,0,1-2.1-2.026,2.032,2.032,0,0,1,2.17-2.091,1.961,1.961,0,0,1,2.107,2.018,2.039,2.039,0,0,1-2.169,2.1Zm.027-.537a1.4,1.4,0,0,0,1.329-1.538,1.338,1.338,0,1,0-1.338,1.538Z" transform="translate(-278.323 -969.69)"/><path class="a" d="M308.714,971.891l.588,1.994c.117.439.235.854.316,1.261h.027c.1-.4.244-.822.389-1.253l.714-2h.669l.678,1.969c.162.464.289.887.389,1.286h.027a10.887,10.887,0,0,1,.335-1.278l.624-1.977h.787l-1.41,3.938h-.723l-.669-1.88a12.907,12.907,0,0,1-.389-1.3h-.018a10.807,10.807,0,0,1-.4,1.31l-.7,1.871h-.723l-1.32-3.938Z" transform="translate(-297.438 -970.052)"/><path class="a" d="M343.864,972.6c0-.415-.009-.74-.036-1.066h.706l.045.643h.018a1.657,1.657,0,0,1,1.447-.732,1.5,1.5,0,0,1,1.546,1.676v2.352h-.8V973.2c0-.635-.263-1.172-1.013-1.172a1.135,1.135,0,0,0-1.067.732.964.964,0,0,0-.055.334v2.376h-.8Z" transform="translate(-326.25 -969.69)"/><path class="a" d="M369.346,962.607h.8v5.777h-.8Z" transform="translate(-346.713 -962.607)"/><path class="a" d="M380.529,975.557a1.977,1.977,0,0,1-2.1-2.026,2.031,2.031,0,0,1,2.17-2.091,1.961,1.961,0,0,1,2.106,2.018,2.039,2.039,0,0,1-2.17,2.1Zm.027-.537a1.4,1.4,0,0,0,1.329-1.538,1.338,1.338,0,1,0-1.338,1.538Z" transform="translate(-354 -969.69)"/><path class="a" d="M406.783,974.524a5.938,5.938,0,0,0,.064.944h-.715l-.072-.5h-.027a1.682,1.682,0,0,1-1.338.586,1.193,1.193,0,0,1-1.338-1.131c0-.952.94-1.473,2.631-1.465v-.081c0-.325-.1-.919-.994-.911a2.283,2.283,0,0,0-1.148.293l-.181-.48a3.082,3.082,0,0,1,1.447-.342,1.464,1.464,0,0,1,1.672,1.611Zm-.777-1.066c-.868-.016-1.854.122-1.854.887a.665.665,0,0,0,.741.684,1.1,1.1,0,0,0,1.076-.659.658.658,0,0,0,.036-.228Z" transform="translate(-373.988 -969.69)"/><path class="a" d="M429.592,962.607v4.76c0,.35.01.748.036,1.017h-.714l-.036-.683h-.018a1.637,1.637,0,0,1-1.483.773,1.878,1.878,0,0,1-1.881-2,1.963,1.963,0,0,1,1.962-2.115,1.5,1.5,0,0,1,1.321.594h.018v-2.344Zm-.8,3.442a1.192,1.192,0,0,0-.036-.309,1.15,1.15,0,0,0-1.148-.822,1.347,1.347,0,0,0-1.311,1.514,1.306,1.306,0,0,0,1.293,1.464,1.184,1.184,0,0,0,1.166-.854,1.115,1.115,0,0,0,.036-.309Z" transform="translate(-391.741 -962.607)"/><path class="a" d="M463.018,975.557a1.977,1.977,0,0,1-2.1-2.026,2.032,2.032,0,0,1,2.17-2.091,1.961,1.961,0,0,1,2.107,2.018,2.039,2.039,0,0,1-2.169,2.1Zm.027-.537a1.4,1.4,0,0,0,1.329-1.538,1.338,1.338,0,1,0-1.338,1.538Z" transform="translate(-420.149 -969.69)"/><path class="a" d="M487.434,972.6c0-.415-.009-.74-.036-1.066h.705l.046.643h.018a1.657,1.657,0,0,1,1.447-.732,1.5,1.5,0,0,1,1.546,1.676v2.352h-.8V973.2c0-.635-.262-1.172-1.013-1.172a1.136,1.136,0,0,0-1.067.732.969.969,0,0,0-.054.334v2.376h-.8Z" transform="translate(-441.382 -969.69)"/><path class="a" d="M521.54,967.127v.944h1.139v.545H521.54v2.124c0,.488.154.765.6.765a1.64,1.64,0,0,0,.461-.049l.036.545a2.389,2.389,0,0,1-.705.1,1.2,1.2,0,0,1-.859-.3,1.43,1.43,0,0,1-.307-1.034v-2.148h-.678v-.545h.678v-.724Z" transform="translate(-467.594 -966.232)"/><path class="a" d="M537.705,962.607h.8v2.457h.018a1.351,1.351,0,0,1,.57-.5,1.68,1.68,0,0,1,.814-.2,1.5,1.5,0,0,1,1.528,1.684v2.343h-.8v-2.262c0-.643-.262-1.172-1.013-1.172a1.143,1.143,0,0,0-1.067.716.788.788,0,0,0-.054.342v2.376h-.8Z" transform="translate(-481.725 -962.607)"/><path class="a" d="M562.211,973.587a1.334,1.334,0,0,0,1.492,1.367,3.318,3.318,0,0,0,1.212-.2l.145.5a3.913,3.913,0,0,1-1.465.252,1.941,1.941,0,0,1-2.152-1.985A2.005,2.005,0,0,1,563.5,971.4a1.724,1.724,0,0,1,1.8,1.856,1.651,1.651,0,0,1-.027.341Zm2.324-.513a1.057,1.057,0,0,0-1.095-1.164,1.239,1.239,0,0,0-1.221,1.164Z" transform="translate(-500.761 -969.657)"/></g></svg>