<?xml version="1.0" encoding="utf-8"?>
<!-- Generator: Adobe Illustrator 23.0.1, SVG Export Plug-In . SVG Version: 6.00 Build 0)  -->
<svg version="1.1" id="Layer_1" xmlns="http://www.w3.org/2000/svg" xmlns:xlink="http://www.w3.org/1999/xlink" x="0px" y="0px"
	 viewBox="0 0 66 66" style="enable-background:new 0 0 66 66;" xml:space="preserve">
<style type="text/css">
	.st0{opacity:0.5;}
	.st1{fill:#646464;fill-opacity:0;}
	.st2{fill:#646464;}
</style>
<g id="notification" transform="translate(643.508 1998.508)" class="st0">
	<rect id="Rectangle_982" x="-643.5" y="-1998.9" class="st1" width="66" height="66"/>
</g>
<g class="st0">
	<path class="st2" d="M50.1,40c-1.5-0.6-3.3,0-4.2,1.2l-4.5,6l0,0c0-2.4-1.8-4.2-4.2-4.2h-8.4c-2.7-2.1-6.3-2.7-9.3-1.2v0.3
		c0-0.6-0.6-1.2-1.2-1.2h-6.9c-0.9,0-1.5,0.3-1.5,1.2v16.4c0,0.6,0.6,1.2,1.2,1.2H18c0.6,0,1.2-0.6,1.2-1.2v-1.2h20.6
		c3,0,5.7-1.5,7.2-3.9l4.8-7.5c0.3-0.6,0.6-1.2,0.6-2.1C52.5,42.1,51.6,40.6,50.1,40z M16.9,57.3h-4.2v-14h4.2V57.3z M49.8,44.5
		L45,51.9c-1.2,1.8-3,3-5.1,3H19.3V45l0.3-0.3c2.4-1.8,5.4-1.5,7.5,0.6c0.3,0.3,0.6,0.3,0.9,0.3h9c0.9,0,1.5,0.9,1.5,1.8
		S37.8,49,36.9,49h-9c-0.6,0-1.2,0.6-1.2,1.2c0,0.6,0.6,1.2,1.2,1.2h9.9c1.8,0,3.9-0.9,4.8-2.4l4.8-6.3c0.3-0.6,1.2-0.6,1.8-0.3
		c0.3,0.3,0.6,0.6,0.6,0.9C50.1,43.9,50.1,44.2,49.8,44.5L49.8,44.5z"/>
	<path class="st2" d="M34.8,37c6.3,0,11.7-5.1,11.7-11.7c0-6.3-5.1-11.7-11.7-11.7c-6.3,0-11.7,5.1-11.7,11.7l0,0
		C23.2,31.9,28.2,37,34.8,37z M34.8,16.7c4.8,0,8.7,3.9,8.7,8.7S39.6,34,34.8,34s-8.7-3.9-8.7-8.7l0,0
		C25.8,20.6,29.7,16.7,34.8,16.7L34.8,16.7z"/>
	<g transform="translate(20.595 0) rotate(90)">
		<path class="st2" d="M19.4-32.4H9.5l3.3-3.3c0.3-0.3,0.3-0.9,0-1.2s-0.9-0.3-1.2,0l-4.8,4.8l0,0c-0.3,0.3-0.3,0.9,0,1.2l0,0
			l4.8,4.8c0.3,0.3,0.9,0.3,1.2,0s0.3-0.9,0-1.2l-3.3-3.3h9.9c0.6,0,0.9-0.3,0.9-0.9S20-32.4,19.4-32.4z"/>
	</g>
	<path class="st2" d="M38.4,22.9h-1.5c0-0.6-0.3-0.9-0.6-1.5h2.1c0.3,0,0.6-0.3,0.6-0.9c0-0.3-0.3-0.6-0.6-0.6h-6.9
		c-0.6,0-0.9,0.3-0.9,0.6c0,0.6,0.3,0.9,0.6,0.9l0,0h2.1c0.9,0,1.8,0.6,2.1,1.5h-3.9c-0.6,0-0.9,0.3-0.9,0.6s0.3,0.6,0.6,0.6l0,0
		h4.2c0,0.3-0.3,0.6-0.6,0.9c-0.3,0.6-0.9,0.9-1.5,0.9h-1.8c-0.6,0-0.9,0.3-0.9,0.6c0,0.3,0,0.6,0.3,0.6l4.8,4.8
		c0,0,0.3,0.3,0.6,0.3s0.3,0,0.6-0.3s0.3-0.6,0-0.9l0,0l0,0L33,27.4h0.3c0.9,0,1.8-0.6,2.7-1.2c0.6-0.6,0.9-1.2,0.9-2.1h1.2
		c0.3,0,0.6-0.3,0.9-0.6C39,23.2,38.7,22.9,38.4,22.9L38.4,22.9L38.4,22.9z"/>
</g>
</svg>
