<svg xmlns="http://www.w3.org/2000/svg" width="60" height="60" viewBox="0 0 60 60">
  <g id="Group_40108" data-name="Group 40108" transform="translate(-1004 1832)">
    <g id="ipo" transform="translate(13852 -14711)">
      <g id="Group_39984" data-name="Group 39984">
        <g id="Group_39993" data-name="Group 39993">
          <rect id="Rectangle_18667" data-name="Rectangle 18667" width="60" height="60" transform="translate(-12848 12879)" fill="#e6e6e6" opacity="0"/>
          <path id="Path_44058" data-name="Path 44058" d="M0,0H52V52H0Z" transform="translate(-12844 12883)" fill="#7c0000" opacity="0"/>
        </g>
      </g>
    </g>
    <g id="pension" transform="translate(1008 -1827.395)">
      <path id="Path_44046" data-name="Path 44046" d="M25.807,14.778l-.562-.282-.692,1.386.562.281a12.852,12.852,0,0,0,5.714,1.349,15.52,15.52,0,0,0,3.757-.465l1.339-.335-.376-1.5-1.339.334c-.252.063-.509.111-.766.159q.029-.65.118-1.291h.627V12.867h-.321c.1-.381.214-.758.345-1.131l1.336.334.376-1.5-1.339-.335a15.581,15.581,0,0,0-5.919-.31,10.641,10.641,0,0,0-1.018-3.35l-.506-1.02-1.386.692.51,1.02a8.99,8.99,0,0,1,.142,7.775c-.205-.083-.408-.16-.6-.262Zm2.953-3.284a14.006,14.006,0,0,1,3.917-.05q-.232.7-.4,1.423H28.642a10.593,10.593,0,0,0,.118-1.373Zm-.471,2.921H32q-.093.742-.113,1.495a12.359,12.359,0,0,1-4.017-.359,10.558,10.558,0,0,0,.419-1.136Z" transform="translate(-4.641 -1.028)" fill="#007c3d"/>
      <path id="Path_44047" data-name="Path 44047" d="M39.1,50.291a2.918,2.918,0,0,0,2.772,2h6.194a2.323,2.323,0,0,0,2.323-2.323V43.774A.774.774,0,0,0,49.613,43H41.438a3.438,3.438,0,0,0-3.262,4.526Zm2.34-5.743h7.4v5.419a.774.774,0,0,1-.774.774H41.871a1.373,1.373,0,0,1-1.3-.94l-.922-2.766a1.891,1.891,0,0,1,1.793-2.487Z" transform="translate(-7.677 -9.484)" fill="#007c3d"/>
      <path id="Path_44048" data-name="Path 44048" d="M12.323,52.29h6.194a2.919,2.919,0,0,0,2.772-2l.922-2.766A3.438,3.438,0,0,0,18.949,43H10.774a.774.774,0,0,0-.774.774v6.194A2.323,2.323,0,0,0,12.323,52.29Zm-.774-7.742h7.4a1.891,1.891,0,0,1,1.793,2.487L19.82,49.8a1.373,1.373,0,0,1-1.3.939H12.323a.774.774,0,0,1-.774-.774Z" transform="translate(-1.355 -9.484)" fill="#007c3d"/>
      <path id="Path_44049" data-name="Path 44049" d="M4.428,34.213l1.12.556v5.715a5.419,5.419,0,0,0,2.323,4.444V45.9a3.1,3.1,0,0,0,3.1,3.1H40.387a3.1,3.1,0,0,0,3.1-3.1v-.975a5.426,5.426,0,0,0,2.323-4.445V34.769l1.12-.56a.774.774,0,0,0,.428-.693V31.194a.774.774,0,0,0-.774-.774h-3.1V4.1a3.1,3.1,0,0,0-3.1-3.1H14.839a.774.774,0,0,0-.547.227L8.1,7.42a.774.774,0,0,0-.227.547V28.931H9.419V8.742h3.1a3.1,3.1,0,0,0,3.1-3.1v-3.1H40.387A1.548,1.548,0,0,1,41.935,4.1V30.419H33.992a6.745,6.745,0,0,0-5.2,2.441,5.967,5.967,0,0,0-6.226,0,6.745,6.745,0,0,0-5.2-2.441H4.774A.774.774,0,0,0,4,31.194v2.323a.774.774,0,0,0,.428.7ZM14.065,5.645a1.548,1.548,0,0,1-1.548,1.548h-2l3.55-3.55ZM41.935,45.9a1.548,1.548,0,0,1-1.548,1.548H10.968A1.548,1.548,0,0,1,9.419,45.9v-.225a5.435,5.435,0,0,0,1.548.225h6.194a6.13,6.13,0,0,0,5.829-4.2l.787-2.371a6.618,6.618,0,0,0,.351-2.147c0-.094,0-.188-.005-.283a4.36,4.36,0,0,1,3.108,0c0,.094-.005.188-.005.283a6.614,6.614,0,0,0,.349,2.141l.79,2.377a6.13,6.13,0,0,0,5.829,4.2h6.194a5.464,5.464,0,0,0,1.549-.224ZM5.548,31.968H17.363a5.207,5.207,0,0,1,4.366,2.367.774.774,0,0,0,1.078.221l.465-.31a4.394,4.394,0,0,1,4.808,0l.465.31a.774.774,0,0,0,1.078-.221,5.207,5.207,0,0,1,4.371-2.367H45.806v1.07l-1.12.56a.774.774,0,0,0-.428.693v6.194a3.878,3.878,0,0,1-3.871,3.871H34.194a4.585,4.585,0,0,1-4.359-3.14l-.792-2.382a5.1,5.1,0,0,1-.268-1.647,5.519,5.519,0,0,1,.04-.663.774.774,0,0,0-.4-.78,5.84,5.84,0,0,0-5.466,0,.774.774,0,0,0-.4.78,5.519,5.519,0,0,1,.04.663,5.1,5.1,0,0,1-.27,1.653l-.79,2.376a4.585,4.585,0,0,1-4.359,3.14H10.968A3.878,3.878,0,0,1,7.1,40.484V34.29a.774.774,0,0,0-.428-.7l-1.12-.556Z" transform="translate(0 0)" fill="#007c3d"/>
      <path id="Path_44050" data-name="Path 44050" d="M20,23H44v1.548H20Z" transform="translate(-3.613 -4.968)" fill="#007c3d"/>
      <path id="Path_44051" data-name="Path 44051" d="M13,27H35.452v1.548H13Z" transform="translate(-2.032 -5.871)" fill="#007c3d"/>
      <path id="Path_44052" data-name="Path 44052" d="M44,27h4.645v1.548H44Z" transform="translate(-9.032 -5.871)" fill="#007c3d"/>
      <path id="Path_44053" data-name="Path 44053" d="M13,31H33.9v1.548H13Z" transform="translate(-2.032 -6.774)" fill="#007c3d"/>
      <path id="Path_44054" data-name="Path 44054" d="M42,31h3.871v1.548H42Z" transform="translate(-8.581 -6.774)" fill="#007c3d"/>
      <path id="Path_44055" data-name="Path 44055" d="M13,35h6.968v1.548H13Z" transform="translate(-2.032 -7.677)" fill="#007c3d"/>
      <path id="Path_44056" data-name="Path 44056" d="M24,35h1.548v1.548H24Z" transform="translate(-4.516 -7.677)" fill="#007c3d"/>
      <path id="Path_44057" data-name="Path 44057" d="M28,35H44.258v1.548H28Z" transform="translate(-5.419 -7.677)" fill="#007c3d"/>
    </g>
  </g>
</svg>
