<svg xmlns="http://www.w3.org/2000/svg" width="26.231" height="22.99" viewBox="0 0 26.231 22.99"><defs><style>.a{fill:#fff;}</style></defs><g transform="translate(0 0)"><g transform="translate(0 0)"><path class="a" d="M176.665,159.668a2.676,2.676,0,1,0,2.676,2.676A2.676,2.676,0,0,0,176.665,159.668Zm0,4.077a1.4,1.4,0,0,1,0-2.8h0a1.4,1.4,0,1,1,0,2.8Z" transform="translate(-163.381 -151.553)"/><path class="a" d="M23.954,28.574,6.563,26.6a2.389,2.389,0,0,0-1.879.542A2.421,2.421,0,0,0,3.759,28.8l-.319,2.612H2.453A2.56,2.56,0,0,0,0,34.053V47.081a2.421,2.421,0,0,0,2.356,2.484H19.941a2.615,2.615,0,0,0,2.676-2.485v-.51a3.185,3.185,0,0,0,1.21-.51,2.644,2.644,0,0,0,.924-1.72l1.465-12.932A2.58,2.58,0,0,0,23.954,28.574ZM21.342,47.081a1.341,1.341,0,0,1-1.4,1.21H2.453a1.147,1.147,0,0,1-1.18-1.113q0-.049,0-.1V44.724l4.937-3.631a1.529,1.529,0,0,1,1.975.1l3.472,3.058a2.994,2.994,0,0,0,1.879.7,2.9,2.9,0,0,0,1.529-.414L21.342,40.9v6.18Zm0-7.677L14.4,43.45a1.625,1.625,0,0,1-1.879-.159l-3.5-3.09a2.835,2.835,0,0,0-3.536-.127l-4.2,3.058V34.053a1.286,1.286,0,0,1,1.179-1.37H19.941a1.465,1.465,0,0,1,1.4,1.37V39.4Zm3.6-8.167v.013l-1.5,12.932a1.083,1.083,0,0,1-.414.86c-.127.127-.414.191-.414.255V34.053a2.739,2.739,0,0,0-2.676-2.644H4.715L5,28.925A1.465,1.465,0,0,1,5.48,28.1a1.465,1.465,0,0,1,.956-.255L23.8,29.848A1.274,1.274,0,0,1,24.943,31.237Z" transform="translate(0 -26.576)"/></g></g></svg>