<svg xmlns="http://www.w3.org/2000/svg" width="24" height="21.176" viewBox="0 0 24 21.176"><defs><style>.a{fill:#2a9533;}</style></defs><path class="a" d="M23.3,30.125H.7a.7.7,0,0,0-.7.7v5.648a.7.7,0,0,0,.7.7H2.824V50.6a.7.7,0,0,0,.7.7H20.49a.7.7,0,0,0,.7-.7V37.18h2.1a.7.7,0,0,0,.7-.7V30.828A.7.7,0,0,0,23.3,30.125ZM4.23,34.355H5.684V44.95a.7.7,0,0,0,.694.7,2.108,2.108,0,0,1,2.094,2.094.7.7,0,0,0,.7.695h5.649a.7.7,0,0,0,.7-.7,2.088,2.088,0,0,1,2.086-2.086h.018a.7.7,0,0,0,.7-.7V34.355h1.453V49.895H4.23Zm12.7,9.958a3.5,3.5,0,0,0-2.736,2.722H9.8A3.532,3.532,0,0,0,7.09,44.324V34.355h9.838v9.958Zm5.666-8.54h-1.4V33.652a.7.7,0,0,0-.7-.7H3.527a.7.7,0,0,0-.7.7v2.121H1.406V31.531H22.594Z" transform="translate(0 -30.125)"/><path class="a" d="M185.666,157.282a3.226,3.226,0,1,0,3.494,3.215A3.367,3.367,0,0,0,185.666,157.282Zm2.088,3.215a2.109,2.109,0,1,1-2.088-1.809A1.966,1.966,0,0,1,187.754,160.5Z" transform="translate(-173.633 -151.322)"/></svg>