<svg xmlns="http://www.w3.org/2000/svg" width="28.001" height="24" viewBox="0 0 28.001 24">
  <g id="noun_Audio_4059880" transform="translate(-2 -2.007)">
    <g id="Layer_14" data-name="Layer 14" transform="translate(2 2.007)">
      <path id="Path_42713" data-name="Path 42713" d="M23.09,19.007a1.283,1.283,0,0,1-.58-.136.6.6,0,0,1-.23-1A5.524,5.524,0,0,0,24,13.986a5.541,5.541,0,0,0-1.87-3.96.6.6,0,0,1,.2-1.008,1.282,1.282,0,0,1,1.405.14,6.3,6.3,0,0,1,.17,9.534A1.143,1.143,0,0,1,23.09,19.007Z" transform="translate(-2 -2.007)" fill="#007c3d"/>
      <path id="Path_42714" data-name="Path 42714" d="M27,22.007a1.211,1.211,0,0,1-.44-.08A.934.934,0,0,1,26,21.491a.655.655,0,0,1,0-.628A12.973,12.973,0,0,0,26,7.144a.741.741,0,0,1,.475-1.069,1.122,1.122,0,0,1,1.335.38A14.814,14.814,0,0,1,30,13.811a14.652,14.652,0,0,1-2.15,7.74A1.03,1.03,0,0,1,27,22.007Z" transform="translate(-2 -2.007)" fill="#007c3d"/>
      <path id="Path_42715" data-name="Path 42715" d="M20.11,26.007a1.121,1.121,0,0,1-.55-.146L7.45,19a.777.777,0,0,1-.206-1.141,1.1,1.1,0,0,1,1.306-.282l10.56,6V4.573L8.6,11.261a1.113,1.113,0,0,1-1.4-.171.78.78,0,0,1,.2-1.2L19.52,2.173A1.141,1.141,0,0,1,20.559,2.1a.855.855,0,0,1,.551.76V25.15a.847.847,0,0,1-.52.754,1.135,1.135,0,0,1-.48.1Z" transform="translate(-2 -2.007)" fill="#007c3d"/>
      <path id="Path_42716" data-name="Path 42716" d="M8,22H3a1,1,0,0,1-1-1V12a1,1,0,0,1,1-1H8a1,1,0,0,1,1,1v9A1,1,0,0,1,8,22ZM4,20H7V13H4Z" transform="translate(-2 -4.12)" fill="#007c3d"/>
    </g>
  </g>
</svg>
