<svg xmlns="http://www.w3.org/2000/svg" width="33.761" height="34.573" viewBox="0 0 33.761 34.573"><defs><style>.a{fill:#fdb933;}.b{fill:#f47920;}</style></defs><g transform="translate(-235.179 -136.996)"><path class="a" d="M355.813,233.211H359a5.834,5.834,0,0,1,1.035.09,2.6,2.6,0,0,1,.882.319,1.7,1.7,0,0,1,.613.639,2.12,2.12,0,0,1,.23,1.047,1.931,1.931,0,0,1-.689,1.661,11.483,11.483,0,0,1,2.99.92,3.707,3.707,0,0,0,1.583-3.271,4.9,4.9,0,0,0-.421-2.146,3.51,3.51,0,0,0-1.189-1.392,5.139,5.139,0,0,0-1.839-.753,11.38,11.38,0,0,0-2.376-.23h-4.006Z" transform="translate(-106.566 -85.391)"/><path class="b" d="M346.862,237.478H342.8v-4.267h0v-3.117h-4.013v18.242h8.84a9.313,9.313,0,0,0,2.389-.307,6.382,6.382,0,0,0,2.069-.945,4.663,4.663,0,0,0,1.444-1.647,5.029,5.029,0,0,0,.536-2.39,5.255,5.255,0,0,0-.83-2.925c-1.028-1.592-3.257-2.644-6.374-2.644m2.951,6.514a1.917,1.917,0,0,1-.651.728,2.766,2.766,0,0,1-.945.383,5.4,5.4,0,0,1-1.125.115H342.8v-5.007h4.369a3.388,3.388,0,0,1,2.1.6,2.359,2.359,0,0,1,.791,2.006,2.5,2.5,0,0,1-.242,1.175" transform="translate(-94.12 -85.391)"/><path class="b" d="M307.317,229.014a16.88,16.88,0,1,1,26.169-.073l-.97-.787a15.632,15.632,0,1,0-24.234.068Z" transform="translate(-68.313 -64.436)"/><path class="b" d="M313.981,232.992a14.972,14.972,0,1,1,23.212-.065l-.339-.275a14.535,14.535,0,1,0-22.535.063Z" transform="translate(-73.501 -69.624)"/><path class="b" d="M325.07,302.956l.386.4-1.444,3.477-.441-.459.356-.823-1.122-1.168-.841.319-.427-.445Zm-.91,2.069.578-1.376-1.395.526Z" transform="translate(-81.508 -138.662)"/><path class="b" d="M334.6,312.129l.531-.185a1.584,1.584,0,0,0,.7.935c.32.19.612.158.742-.06l0-.008c.125-.21.075-.394-.4-.845-.537-.524-.781-.919-.458-1.461l0-.008a1.047,1.047,0,0,1,1.513-.257,1.9,1.9,0,0,1,.849,1l-.51.226a1.557,1.557,0,0,0-.62-.778c-.3-.18-.572-.129-.687.065l-.005.009c-.135.227-.06.408.428.88.533.521.72.934.43,1.422l0,.008a1.065,1.065,0,0,1-1.574.255,2.109,2.109,0,0,1-.949-1.2" transform="translate(-91.061 -143.834)"/><path class="b" d="M346.172,317.339l.47-.309a1.586,1.586,0,0,0,.908.737c.356.106.632.005.7-.239l0-.009c.07-.234-.023-.4-.591-.723-.648-.378-.98-.7-.8-1.307l0-.01a1.048,1.048,0,0,1,1.405-.616,1.9,1.9,0,0,1,1.068.769l-.44.343a1.554,1.554,0,0,0-.79-.6c-.338-.1-.587.013-.651.229l0,.009c-.076.253.041.41.629.75.643.376.925.732.762,1.275l0,.009a1.066,1.066,0,0,1-1.465.629,2.111,2.111,0,0,1-1.212-.935" transform="translate(-99.516 -147.319)"/><path class="b" d="M360.017,318.926l.042-1.972.6.013-.041,1.947c-.014.636.307.98.845.992s.867-.3.881-.931l.042-1.972.6.013-.041,1.942a1.367,1.367,0,0,1-1.5,1.5,1.35,1.35,0,0,1-1.426-1.538" transform="translate(-109.64 -148.895)"/><path class="b" d="M373.043,315.634l1.474-.4a1.38,1.38,0,0,1,1.043.075,1.036,1.036,0,0,1,.466.64l0,.009a1.028,1.028,0,0,1-.516,1.212l1.229,1.013-.69.185-1.122-.935-.728.2.309,1.153-.581.156Zm1.872,1.256c.416-.112.622-.4.532-.735l0-.01c-.1-.354-.4-.48-.833-.364l-.846.227.3,1.111Z" transform="translate(-119.163 -147.593)"/><path class="b" d="M384.656,309.882l2.188-1.289.273.464-1.67.983.452.767,1.48-.872.273.464-1.48.872.467.793,1.691-1,.273.464-2.209,1.3Z" transform="translate(-127.652 -142.782)"/><path class="b" d="M394.178,303.385l.88-.926a1.707,1.707,0,0,1,2.488-.146l.007.007a1.715,1.715,0,0,1-.013,2.5l-.88.926Zm.812-.058,1.688,1.605.465-.49a1.116,1.116,0,0,0-.018-1.657l-.007-.007a1.124,1.124,0,0,0-1.663.059Z" transform="translate(-134.615 -137.847)"/></g></svg>