<svg xmlns="http://www.w3.org/2000/svg" width="26.098" height="19.573" viewBox="0 0 26.098 19.573"><defs><style>.a{fill:#007c3d;}</style></defs><g transform="translate(0 -64)"><g transform="translate(0 64)"><g transform="translate(0 0)"><path class="a" d="M25.01,64H6.783a1.087,1.087,0,0,0-.91.492l-5.7,8.7a1.087,1.087,0,0,0,0,1.191l5.7,8.7a1.087,1.087,0,0,0,.91.492H25.01A1.087,1.087,0,0,0,26.1,82.486v-17.4A1.087,1.087,0,0,0,25.01,64ZM23.923,81.4H7.371L2.387,73.787l4.984-7.612H23.923V81.4Z" transform="translate(0 -64)"/><path class="a" d="M192.316,159.889a1.087,1.087,0,0,0,1.538,0l3.581-3.581,3.581,3.581a1.087,1.087,0,0,0,1.538-1.538l-3.581-3.581,3.581-3.581a1.087,1.087,0,1,0-1.538-1.538l-3.581,3.581-3.581-3.581a1.087,1.087,0,1,0-1.538,1.538l3.581,3.581-3.581,3.581A1.087,1.087,0,0,0,192.316,159.889Z" transform="translate(-182.211 -144.984)"/></g></g></g></svg>