<?xml version="1.0" encoding="utf-8"?>
<!-- Generator: Adobe Illustrator 23.0.1, SVG Export Plug-In . SVG Version: 6.00 Build 0)  -->
<svg version="1.1" id="Layer_1" xmlns="http://www.w3.org/2000/svg" xmlns:xlink="http://www.w3.org/1999/xlink" x="0px" y="0px"
	 viewBox="0 0 18 18" style="enable-background:new 0 0 18 18;" xml:space="preserve">
<style type="text/css">
	.st0{display:none;fill:#007C3D;}
	.st1{fill:#007C3D;fill-opacity:0;}
	.st2{fill:#007C3D;}
</style>
<path class="st0" d="M9.5,18H8.4c-0.9,0-1.7-0.7-1.7-1.7v-0.4c-0.4-0.1-0.8-0.3-1.1-0.5l-0.3,0.3c-0.6,0.6-1.7,0.6-2.3,0
	c0,0,0,0,0,0l-0.8-0.8c-0.6-0.6-0.6-1.7,0-2.3c0,0,0,0,0,0l0.3-0.3C2.3,12,2.2,11.6,2,11.2H1.7C0.7,11.2,0,10.5,0,9.5V8.4
	c0-0.9,0.7-1.7,1.7-1.7H2C2.2,6.4,2.3,6,2.5,5.6L2.2,5.4C1.6,4.7,1.6,3.7,2.2,3c0,0,0,0,0,0L3,2.2c0.6-0.6,1.7-0.6,2.3,0
	c0,0,0,0,0,0l0.3,0.3C6,2.3,6.4,2.2,6.8,2V1.7C6.8,0.7,7.5,0,8.4,0h1.1c0.9,0,1.7,0.7,1.7,1.7V2c0.4,0.1,0.8,0.3,1.1,0.5l0.3-0.3
	c0.6-0.6,1.7-0.6,2.3,0c0,0,0,0,0,0L15.7,3c0.6,0.6,0.6,1.7,0,2.3c0,0,0,0,0,0l-0.3,0.3c0.2,0.4,0.3,0.7,0.5,1.1h0.4
	c0.9,0,1.7,0.7,1.7,1.7v1.1c0,0.9-0.7,1.7-1.7,1.7c0,0,0,0,0,0h-0.4c-0.1,0.4-0.3,0.8-0.5,1.1l0.3,0.3c0.6,0.6,0.6,1.7,0,2.3
	c0,0,0,0,0,0l-0.8,0.8c-0.6,0.6-1.7,0.6-2.3,0c0,0,0,0,0,0l-0.3-0.3c-0.4,0.2-0.7,0.3-1.1,0.5v0.4C11.2,17.2,10.5,18,9.5,18z
	 M5.8,14.4c0.5,0.3,1,0.5,1.6,0.7c0.2,0.1,0.4,0.3,0.4,0.5v0.8c0,0.3,0.3,0.6,0.6,0.6l0,0h1.1c0.3,0,0.6-0.3,0.6-0.6l0,0v-0.8
	c0-0.2,0.2-0.5,0.4-0.5c0.6-0.1,1.1-0.4,1.6-0.7c0.2-0.1,0.5-0.1,0.6,0.1l0.6,0.6c0.2,0.2,0.6,0.2,0.8,0c0,0,0,0,0,0l0.8-0.8
	c0.2-0.2,0.2-0.6,0-0.8c0,0,0,0,0,0l-0.6-0.6c-0.2-0.2-0.2-0.4-0.1-0.6c0.3-0.5,0.5-1,0.7-1.6c0.1-0.2,0.3-0.4,0.5-0.4h0.8
	c0.3,0,0.6-0.3,0.6-0.6v0V8.4c0-0.3-0.3-0.6-0.6-0.6l0,0h-0.8c-0.2,0-0.5-0.2-0.5-0.4c-0.1-0.6-0.4-1.1-0.7-1.6
	c-0.1-0.2-0.1-0.5,0.1-0.6L15,4.6c0.2-0.2,0.2-0.6,0-0.8c0,0,0,0,0,0L14.2,3c-0.2-0.2-0.6-0.2-0.8,0c0,0,0,0,0,0l-0.6,0.6
	c-0.2,0.2-0.4,0.2-0.6,0.1c-0.5-0.3-1-0.5-1.6-0.7c-0.2-0.1-0.4-0.3-0.4-0.5V1.7c0-0.3-0.3-0.6-0.6-0.6l0,0H8.4
	c-0.3,0-0.6,0.3-0.6,0.6v0.8c0,0.2-0.2,0.5-0.4,0.5C6.9,3.1,6.3,3.3,5.8,3.6C5.6,3.7,5.3,3.7,5.2,3.5L4.6,3C4.4,2.7,4,2.7,3.8,3
	c0,0,0,0,0,0L3,3.8C2.7,4,2.7,4.4,3,4.6c0,0,0,0,0,0l0.6,0.6c0.2,0.2,0.2,0.4,0.1,0.6c-0.3,0.5-0.5,1-0.7,1.6
	C2.9,7.7,2.7,7.8,2.4,7.8H1.7c-0.3,0-0.6,0.3-0.6,0.6l0,0v1.1c0,0.3,0.3,0.6,0.6,0.6c0,0,0,0,0,0h0.8c0.2,0,0.5,0.2,0.5,0.4
	c0.1,0.6,0.4,1.1,0.7,1.6c0.1,0.2,0.1,0.5-0.1,0.6L3,13.3c-0.2,0.2-0.2,0.6,0,0.8c0,0,0,0,0,0L3.8,15c0.2,0.2,0.6,0.2,0.8,0
	c0,0,0,0,0,0l0.6-0.6C5.3,14.3,5.6,14.2,5.8,14.4L5.8,14.4z"/>
<path class="st0" d="M9,12.9c-2.2,0-3.9-1.7-3.9-3.9c0-2.2,1.7-3.9,3.9-3.9c2.2,0,3.9,1.7,3.9,3.9C12.9,11.1,11.1,12.9,9,12.9z
	 M9,6.1C7.4,6.1,6.1,7.4,6.1,9s1.3,2.9,2.9,2.9c1.6,0,2.9-1.3,2.9-2.9C11.8,7.4,10.6,6.1,9,6.1L9,6.1z"/>
<g transform="translate(643 1998)">
	<rect x="-645.6" y="-2000.6" class="st1" width="23.7" height="23.7"/>
	<g transform="translate(-639 -1994)">
		<path class="st2" d="M11.8,4c0-4.3-3.5-7.7-7.7-7.7c-0.6,0-1.2,0.1-1.8,0.2c-2.8,0.6-5.1,2.9-5.7,5.7c-1,4.1,1.6,8.3,5.7,9.3
			c2.4,0.6,4.9,0,6.8-1.7l3.7,3.7c0.2,0.2,0.6,0.2,0.8,0l0,0c0.2-0.2,0.2-0.6,0-0.8c0,0,0,0,0,0L9.9,9C11.1,7.7,11.8,5.9,11.8,4z
			 M-2.5,4c0-3.6,2.9-6.6,6.6-6.6s6.6,2.9,6.6,6.6s-2.9,6.6-6.6,6.6c0,0,0,0,0,0C0.5,10.6-2.5,7.7-2.5,4z"/>
		<g transform="translate(7.482 6.779)">
			<path class="st2" d="M-1.1-4.1c0,0-0.1,0-0.1,0h-0.9c-0.1-0.2-0.2-0.4-0.3-0.6h1.2c0,0,0.1,0,0.1,0c0,0,0-0.1,0-0.1v-0.4
				c0,0,0-0.1,0-0.1c0,0-0.1,0-0.1,0h-4.2c0,0-0.1,0-0.1,0c0,0,0,0.1,0,0.1v0.6c0,0,0,0.1,0,0.1c0,0,0.1,0,0.1,0h0.7
				c0.7,0,1.1,0.2,1.3,0.5h-2.1c0,0-0.1,0-0.1,0c0,0,0,0.1,0,0.1v0.4c0,0,0,0.1,0,0.1c0,0,0.1,0,0.1,0h2.1c-0.1,0.2-0.3,0.4-0.5,0.5
				c-0.3,0.1-0.7,0.2-1.1,0.2h-0.6c0,0-0.1,0-0.1,0c0,0,0,0.1,0,0.1V-2c0,0,0,0.1,0,0.1C-4.8-1.3-4-0.5-3,0.5c0,0,0.1,0.1,0.1,0.1h1
				c0.1,0,0.1,0,0.1-0.1c0,0,0-0.1,0-0.1c0,0,0,0,0,0c-1-1-1.7-1.8-2.3-2.3c0.5,0,1-0.2,1.4-0.5C-2.3-2.6-2.1-3-2-3.4h0.8
				c0,0,0.1,0,0.1,0c0,0,0-0.1,0-0.1L-1.1-4.1C-1-4-1.1-4-1.1-4.1z"/>
		</g>
	</g>
</g>
</svg>
