<svg xmlns="http://www.w3.org/2000/svg" xmlns:xlink="http://www.w3.org/1999/xlink" width="233.624" height="161.964" viewBox="0 0 233.624 161.964"><defs><style>.a,.e{fill:#a6bdff;}.a{opacity:0.25;}.b{fill:#e7327f;}.c{fill:#ff9fc4;}.d,.j{fill:#fff;}.f{fill:#ffb73f;}.g{fill:#4d69b2;}.h{fill:#394e85;}.i{fill:#ffce7d;}.j{opacity:0.15;}.k{fill:#99d0ee;}.l{fill:#ddeef5;}.m,.p{fill:none;}.n{fill:url(#a);}.o{fill:#d4dfff;}.p{stroke:#fff;stroke-miterlimit:10;stroke-width:2px;}.q{fill:#65b1db;}.r{fill:url(#b);}.s{fill:#f5cbcb;}.t{fill:url(#c);}.u{fill:url(#d);}.v{fill:url(#e);}.w{fill:url(#f);}.x{fill:url(#g);}.y{fill:url(#h);}</style><linearGradient id="a" x1="-1.421" y1="0.482" x2="1.152" y2="0.506" gradientUnits="objectBoundingBox"><stop offset="0" stop-color="#394e85"/><stop offset="1" stop-color="#a6bdff"/></linearGradient><linearGradient id="b" x1="1.383" y1="0.596" x2="-0.617" y2="0.393" gradientUnits="objectBoundingBox"><stop offset="0" stop-color="#394e85"/><stop offset="1" stop-color="#4d69b2"/></linearGradient><linearGradient id="c" x1="1.8" y1="0.994" x2="-0.275" y2="0.055" gradientUnits="objectBoundingBox"><stop offset="0" stop-color="#e7327f"/><stop offset="1" stop-color="#ff9fc4"/></linearGradient><linearGradient id="d" x1="20.991" y1="-22.821" x2="18.666" y2="-23.422" xlink:href="#c"/><linearGradient id="e" x1="2.811" y1="1.899" x2="0.428" y2="0.469" xlink:href="#a"/><linearGradient id="f" x1="1.295" y1="0.5" x2="0.274" y2="0.5" xlink:href="#b"/><linearGradient id="g" x1="0.487" y1="0.503" x2="1.669" y2="0.537" gradientUnits="objectBoundingBox"><stop offset="0" stop-color="#ffb73f"/><stop offset="1" stop-color="#fff"/></linearGradient><linearGradient id="h" x1="-0.406" y1="0.422" x2="3.408" y2="0.779" xlink:href="#g"/></defs><g transform="translate(-1225.69 -1468.292)"><path class="a" d="M1253.493,1649.78c6.406-3.8,26.977-2.453,26.487-5.028-.685-3.594.9-5.728,17.142-5.922s25.087,1.162,25.2,3.553c.067,1.374-1.4,2.659-5.427,3.907a.24.24,0,0,1-.065.294c-.784.642-1.483,1.766.845,2.815,3.389,1.527,18.455,2.647,18.048,6.413s-24.328,5.293-30.945,5.6-20.865.713-19.339-4.173c1.5-4.818-24.735-1.219-31.773-5.911A1.037,1.037,0,0,1,1253.493,1649.78Z" transform="translate(-21.608 -133.826)"/><path class="a" d="M1780.317,1521.272c-21.445-3.128-28.136-6.257-27.965-9.783s13.221-5.527,37.173-5.241,26.293,3.433,25.283,8.735c-.723,3.8,29.618,1.814,39.067,7.416C1858.942,1525.4,1806.219,1525.05,1780.317,1521.272Z" transform="translate(-413.329 -29.767)"/><path class="a" d="M2080.227,2075.178c-17.408.536-19.889,5.976,4.345,6.539S2103.783,2074.453,2080.227,2075.178Z" transform="translate(-660.096 -476.256)"/><path class="a" d="M1463.224,2075.178c-17.408.536-19.889,5.976,4.345,6.539S1486.781,2074.453,1463.224,2075.178Z" transform="translate(-175.864 -476.256)"/><path class="a" d="M2210.875,2076.207c-8.8.366-10.054,4.079,2.2,4.463S2222.784,2075.712,2210.875,2076.207Z" transform="translate(-767.852 -477.076)"/><g transform="translate(1242.873 1591.977)"><g transform="translate(3.323 4.034)"><path class="b" d="M1344.9,2063.677l.053-.342a112.254,112.254,0,0,0-23.965-1.36l.03.344A111.935,111.935,0,0,1,1344.9,2063.677Z" transform="translate(-1320.984 -2061.823)"/></g><g transform="translate(0 3.494)"><path class="b" d="M1305.948,2060.492c.683-.664,2.527-1.513,3.572-1.042,1.363.614.6,1.462-1.394,1.494C1305.566,2060.985,1305.06,2061.356,1305.948,2060.492Z" transform="translate(-1305.543 -2059.314)"/></g><g transform="translate(4.49 4.076)"><path class="b" d="M1326.5,2064.886c.205-.93,1.28-2.653,2.411-2.834,1.476-.236,1.3.892-.343,2.014C1326.45,2065.507,1326.231,2066.095,1326.5,2064.886Z" transform="translate(-1326.407 -2062.02)"/></g><g transform="translate(6.48 0.429)"><path class="b" d="M1335.7,2045.722c.11.946,1,2.769,2.112,3.064,1.444.385,1.387-.755-.137-2.038C1335.711,2045.1,1335.553,2044.493,1335.7,2045.722Z" transform="translate(-1335.656 -2045.071)"/></g><g transform="translate(11.107 0)"><path class="b" d="M1357.172,2043.707c-.1.948.374,2.922,1.39,3.452,1.325.691,1.519-.434.312-2.019C1357.323,2043.1,1357.3,2042.476,1357.172,2043.707Z" transform="translate(-1357.159 -2043.078)"/></g><g transform="translate(14.156 0.23)"><path class="b" d="M1371.34,2044.774c-.1.948.374,2.922,1.39,3.452,1.325.691,1.519-.434.312-2.019C1371.491,2044.169,1371.47,2043.543,1371.34,2044.774Z" transform="translate(-1371.327 -2044.145)"/></g><g transform="translate(18.271 0.514)"><path class="b" d="M1390.465,2046.1c-.1.948.374,2.922,1.39,3.452,1.325.691,1.519-.434.312-2.019C1390.616,2045.492,1390.595,2044.865,1390.465,2046.1Z" transform="translate(-1390.452 -2045.467)"/></g><g transform="translate(8.512 4.171)"><path class="b" d="M1345.162,2065.466c.158-.94,1.143-2.715,2.264-2.953,1.462-.311,1.347.825-.24,2.028C1345.145,2066.089,1344.957,2066.688,1345.162,2065.466Z" transform="translate(-1345.098 -2062.461)"/></g><g transform="translate(11.989 4.291)"><path class="b" d="M1361.324,2066.026c.158-.94,1.143-2.715,2.264-2.954,1.462-.311,1.347.825-.24,2.028C1361.307,2066.648,1361.119,2067.247,1361.324,2066.026Z" transform="translate(-1361.26 -2063.02)"/></g><g transform="translate(15.953 4.533)"><path class="b" d="M1379.722,2067.948c-.171-.937.153-2.942,1.127-3.547,1.27-.789,1.548.318.463,1.99C1379.917,2068.54,1379.943,2069.167,1379.722,2067.948Z" transform="translate(-1379.678 -2064.142)"/></g><g transform="translate(20.844 4.933)"><path class="b" d="M1402.45,2069.811c-.171-.937.153-2.942,1.127-3.547,1.27-.789,1.547.318.463,1.99C1402.645,2070.4,1402.672,2071.029,1402.45,2069.811Z" transform="translate(-1402.406 -2066.004)"/></g></g><g transform="translate(1261.363 1531.621)"><g transform="translate(0)"><path class="c" d="M1393.64,1771.056c.029,3.636-3.577,5.3-1.559,9.963s5.41,4.543,6.378,9.659a13.975,13.975,0,0,1-.238,5.1c1.472,2.418,3.077,4.852,4.823,7.282q.241.336.485.67c5.61,3.7,8.674-1.693,8.674-1.693s1.768-2.422,1.168-7.192c-.369-2.939-4.8-5.144-4.361-8.206s2.058-5.426.7-8.334-5.118-2.484-6.139-8.2-2.826-7.447-5.435-7.507S1393.611,1767.419,1393.64,1771.056Z" transform="translate(-1391.468 -1762.592)"/></g><g transform="translate(7.196 0.392)"><path class="d" d="M1434.132,1801.717a.131.131,0,0,0,.2-.073c.313-1.2.277-3.1-2.367-8.085a13.643,13.643,0,0,1-1.176-6.167c-.1-2.877-.21-5.853-2.56-8.749-4-4.932-2.937-13.992-2.926-14.083a.13.13,0,1,0-.259-.032c-.011.092-1.091,9.26,2.982,14.279,2.3,2.829,2.4,5.76,2.5,8.594a13.847,13.847,0,0,0,1.206,6.28c2.6,4.906,2.646,6.746,2.345,7.9A.131.131,0,0,0,1434.132,1801.717Z" transform="translate(-1424.91 -1764.413)"/></g></g><g transform="translate(1230.601 1558.647)"><g transform="translate(0 0)"><path class="e" d="M1297.921,1926.207c-2.641.757-5.732,1.234-8.125,1.66-.428.011-.864.031-1.3.068-7.5.628-10.438-.229-9.117-2.963s.075-2.23-5.1-2.437-11.344-2.094-11.48-4.987c-.172-3.633,4.669-2.923,4.428-6.085s-3.729-4.013-7.959-3.557-8.775-1.289-8-4.047,4.069-2.624,4.526-4.459-1.609-2.842-4.042-4.456-4.017-3.9-2.831-6.154c1-1.9,7.476.862,15.587,5.548s3.821.279,9.623.246,10.809,13.752,12.205,12.619,4.071-4.064,7.094,3.306C1297.177,1919.666,1298.668,1924.15,1297.921,1926.207Z" transform="translate(-1248.511 -1888.185)"/></g><g transform="translate(9.408 7.635)"><path class="d" d="M1332.241,1954.182a.131.131,0,0,1-.12-.066c-4.11-7.219-14.713-15.045-22.884-20.339-8.862-5.742-16.852-9.824-16.932-9.865a.131.131,0,1,1,.119-.233c.08.041,8.081,4.128,16.954,9.877,8.2,5.31,18.835,13.165,22.971,20.431a.131.131,0,0,1-.049.178A.124.124,0,0,1,1332.241,1954.182Z" transform="translate(-1292.234 -1923.664)"/></g><g transform="translate(21.932 24.953)"><path class="d" d="M1350.569,2009.543a.131.131,0,0,1-.087-.234,31.664,31.664,0,0,1,5.277-3.206c2.8-1.337,6.864-2.684,10.346-1.5a.131.131,0,0,1-.084.248c-6.517-2.209-15.29,4.6-15.377,4.667A.131.131,0,0,1,1350.569,2009.543Z" transform="translate(-1350.432 -2004.147)"/></g><g transform="translate(30.935 28.175)"><path class="d" d="M1392.407,2022.062a.131.131,0,0,1-.087-.234c.056-.043,5.655-4.351,10.715-2.019a.131.131,0,1,1-.11.238c-4.917-2.266-10.389,1.945-10.444,1.988A.132.132,0,0,1,1392.407,2022.062Z" transform="translate(-1392.27 -2019.117)"/></g><g transform="translate(26.175 10.482)"><path class="d" d="M1372.409,1945.459a.131.131,0,0,1-.119-.063,14.242,14.242,0,0,1-2.1-8.386.131.131,0,0,1,.26.034,13.968,13.968,0,0,0,2.062,8.216.131.131,0,0,1-.106.2Z" transform="translate(-1370.152 -1936.896)"/></g></g><g transform="translate(1243.947 1540.741)"><g transform="translate(0 0)"><path class="f" d="M1313.774,1804.983c-4.917-.306-3.606,6.854-.276,10.011s1.752,6.826,5.927,11.2,8.458,3.071,9.624,7.038,3.166,9.711,6.833,12.2a14.1,14.1,0,0,0,7.566,2.375l7.05-5.2s-9.619-5.623-10.483-8.711-2.474-10.864-9.055-12.576-6.237-7.12-8.555-10.084S1316.235,1805.136,1313.774,1804.983Z" transform="translate(-1310.532 -1804.974)"/></g><g transform="translate(1.654 0.653)"><path class="d" d="M1353.745,1847.138a13.139,13.139,0,0,1-3.964-1.143,9.345,9.345,0,0,1-5.281-6.076c-1.845-6.944-4.142-10.577-7.681-12.146-2.215-.982-8.956-3.971-10.492-9.822-1.424-5.424-8.042-9.724-8.109-9.767l.112-.174c.067.043,6.753,4.386,8.2,9.889,1.51,5.755,8.183,8.713,10.375,9.685,3.6,1.6,5.934,5.27,7.8,12.281a9.142,9.142,0,0,0,5.169,5.942,12.9,12.9,0,0,0,3.894,1.124Z" transform="translate(-1318.218 -1808.009)"/></g></g><g transform="translate(1263.451 1548.483)"><g transform="translate(0)"><g transform="translate(2.696 2.81)"><path class="g" d="M1426.768,1879.364l.379-.153a132.884,132.884,0,0,0-13.112-25.2l-.333.239A132.482,132.482,0,0,1,1426.768,1879.364Z" transform="translate(-1413.703 -1854.013)"/></g><path class="g" d="M1401.942,1841.091c1.089.292,3.067,1.656,3.22,3,.2,1.757-1.125,1.493-2.362-.514C1401.21,1841,1400.527,1840.71,1401.942,1841.091Z" transform="translate(-1401.172 -1840.954)"/><g transform="translate(0.298 5.559)"><path class="g" d="M1403.247,1866.985c1.07-.354,3.472-.3,4.341.738,1.133,1.359-.119,1.866-2.256.869C1402.586,1867.311,1401.856,1867.445,1403.247,1866.985Z" transform="translate(-1402.559 -1866.787)"/></g><g transform="translate(6.218 3.793)"><path class="g" d="M1431.971,1858.969c-.9.684-2.209,2.7-1.839,4,.482,1.7,1.608.954,1.99-1.372C1432.614,1858.608,1433.136,1858.08,1431.971,1858.969Z" transform="translate(-1430.068 -1858.579)"/></g><g transform="translate(8.69 8.342)"><path class="g" d="M1444.229,1879.968c-1.024.472-2.745,2.148-2.67,3.5.1,1.766,1.36,1.283,2.242-.9C1444.935,1879.756,1445.56,1879.356,1444.229,1879.968Z" transform="translate(-1441.557 -1879.72)"/></g><g transform="translate(10.301 11.582)"><path class="g" d="M1451.713,1895.024c-1.024.472-2.745,2.148-2.67,3.5.1,1.766,1.36,1.283,2.242-.9C1452.419,1894.811,1453.043,1894.411,1451.713,1895.024Z" transform="translate(-1449.041 -1894.776)"/></g><g transform="translate(12.5 15.939)"><path class="g" d="M1461.935,1915.276c-1.024.472-2.745,2.148-2.67,3.5.1,1.766,1.36,1.283,2.242-.9C1462.641,1915.063,1463.266,1914.662,1461.935,1915.276Z" transform="translate(-1459.263 -1915.027)"/></g><g transform="translate(2.494 9.68)"><path class="g" d="M1413.434,1886.22c1.051-.408,3.453-.479,4.373.517,1.2,1.3-.024,1.869-2.208.982C1412.791,1886.58,1412.068,1886.75,1413.434,1886.22Z" transform="translate(-1412.764 -1885.938)"/></g><g transform="translate(4.476 13.29)"><path class="g" d="M1422.641,1903c1.051-.408,3.453-.479,4.373.516,1.2,1.3-.024,1.869-2.208.983C1422,1903.358,1421.275,1903.528,1422.641,1903Z" transform="translate(-1421.971 -1902.716)"/></g><g transform="translate(5.96 17.002)"><path class="g" d="M1429.38,1921.174c.85-.74,3.085-1.623,4.289-1,1.57.814.612,1.766-1.744,1.674C1428.9,1921.731,1428.275,1922.136,1429.38,1921.174Z" transform="translate(-1428.87 -1919.963)"/></g><g transform="translate(8.511 22.218)"><path class="g" d="M1441.233,1945.417c.85-.741,3.085-1.623,4.289-1,1.571.814.612,1.766-1.743,1.674C1440.75,1945.974,1440.128,1946.38,1441.233,1945.417Z" transform="translate(-1440.723 -1944.206)"/></g></g></g><g transform="translate(1438.774 1555.588)"><g transform="translate(0 1.52)"><path class="c" d="M2216.184,1897.567l-.257-.212a108.128,108.128,0,0,1,16.369-16.32l.2.267A107.82,107.82,0,0,0,2216.184,1897.567Z" transform="translate(-2215.927 -1881.035)"/></g><g transform="translate(15.38 0)"><path class="c" d="M2290.8,1873.972c-.917-.041-2.787.53-3.237,1.537-.587,1.314.505,1.435,1.958.182C2291.39,1874.081,2291.991,1874.024,2290.8,1873.972Z" transform="translate(-2287.401 -1873.969)"/></g><g transform="translate(13.115 3.556)"><path class="c" d="M2280.986,1891.248c-.743-.538-2.619-1.089-3.549-.5-1.213.775-.366,1.476,1.536,1.229C2281.418,1891.663,2281.952,1891.947,2280.986,1891.248Z" transform="translate(-2276.872 -1890.496)"/></g><g transform="translate(11.255 0.873)"><path class="c" d="M2269.058,1878.486c.527.751,1.05,2.635.442,3.556-.793,1.2-1.482.345-1.206-1.554C2268.648,1878.048,2268.373,1877.51,2269.058,1878.486Z" transform="translate(-2268.232 -1878.026)"/></g><g transform="translate(7.927 3.593)"><path class="c" d="M2253.322,1891.027c.678.618,1.6,2.342,1.21,3.373-.511,1.345-1.37.66-1.517-1.253C2252.827,1890.688,2252.441,1890.224,2253.322,1891.027Z" transform="translate(-2252.767 -1890.666)"/></g><g transform="translate(5.881 5.71)"><path class="c" d="M2243.814,1900.865c.678.617,1.6,2.341,1.209,3.373-.511,1.346-1.371.661-1.517-1.252C2243.319,1900.526,2242.932,1900.062,2243.814,1900.865Z" transform="translate(-2243.259 -1900.504)"/></g><g transform="translate(3.103 8.549)"><path class="c" d="M2230.9,1914.059c.679.618,1.6,2.341,1.21,3.373-.511,1.346-1.371.661-1.517-1.252C2230.408,1913.72,2230.021,1913.256,2230.9,1914.059Z" transform="translate(-2230.348 -1913.698)"/></g><g transform="translate(10.386 6.153)"><path class="c" d="M2268.309,1903.444c-.715-.575-2.561-1.221-3.52-.675-1.251.712-.441,1.456,1.472,1.306C2268.72,1903.881,2269.238,1904.191,2268.309,1903.444Z" transform="translate(-2264.19 -1902.563)"/></g><g transform="translate(7.961 8.466)"><path class="c" d="M2257.04,1914.194c-.715-.575-2.56-1.221-3.519-.675-1.251.712-.442,1.456,1.471,1.305C2257.451,1914.631,2257.969,1914.941,2257.04,1914.194Z" transform="translate(-2252.921 -1913.312)"/></g><g transform="translate(6.015 10.772)"><path class="c" d="M2247.775,1925.879c-.477-.784-1.994-2.018-3.081-1.83-1.418.245-.909,1.219.941,1.727C2248.013,1926.429,2248.4,1926.9,2247.775,1925.879Z" transform="translate(-2243.879 -1924.03)"/></g><g transform="translate(2.753 14.191)"><path class="c" d="M2232.618,1941.768c-.478-.783-1.993-2.018-3.081-1.83-1.418.245-.909,1.219.94,1.728C2232.856,1942.319,2233.238,1942.786,2232.618,1941.768Z" transform="translate(-2228.722 -1939.919)"/></g></g><g transform="translate(1398.194 1540.971)"><g transform="translate(1.152 3.112)"><path class="e" d="M2032.7,1840.889l.281.15a103.6,103.6,0,0,0,8.482-20.451l-.309-.079A103.262,103.262,0,0,1,2032.7,1840.889Z" transform="translate(-2032.698 -1820.509)"/></g><g transform="translate(9.078 0)"><path class="e" d="M2070.833,1806.548c.371.8.548,2.661-.181,3.428-.949,1-1.455.076-.876-1.668C2070.521,1806.066,2070.351,1805.513,2070.833,1806.548Z" transform="translate(-2069.53 -1806.045)"/></g><g transform="translate(6.566 3.192)"><path class="e" d="M2058.423,1821.133c.747.462,1.92,1.922,1.733,2.962-.244,1.357-1.174.863-1.649-.912C2057.9,1820.9,2057.451,1820.533,2058.423,1821.133Z" transform="translate(-2057.856 -1820.877)"/></g><g transform="translate(8.068 6.856)"><path class="e" d="M2068.417,1837.972c-.858-.192-2.717.031-3.311.906-.774,1.14.235,1.438,1.816.5C2068.955,1838.175,2069.531,1838.223,2068.417,1837.972Z" transform="translate(-2064.84 -1837.908)"/></g><g transform="translate(6.793 10.731)"><path class="e" d="M2062.755,1856.246c-.795-.375-2.658-.564-3.429.159-1.005.943-.085,1.455,1.663.886C2063.236,1856.561,2063.788,1856.734,2062.755,1856.246Z" transform="translate(-2058.911 -1855.914)"/></g><g transform="translate(5.664 13.315)"><path class="e" d="M2057.512,1868.256c-.794-.375-2.658-.564-3.428.159-1.005.943-.085,1.455,1.663.886C2057.992,1868.571,2058.545,1868.744,2057.512,1868.256Z" transform="translate(-2053.668 -1867.924)"/></g><g transform="translate(4.163 16.812)"><path class="e" d="M2050.536,1884.5c-.795-.375-2.658-.564-3.428.159-1.005.943-.085,1.455,1.663.886C2051.017,1884.82,2051.569,1884.993,2050.536,1884.5Z" transform="translate(-2046.692 -1884.172)"/></g><g transform="translate(5.137 6.624)"><path class="e" d="M2051.79,1837.06c.77.423,2.016,1.822,1.882,2.87-.174,1.368-1.128.922-1.693-.827C2051.253,1836.856,2050.79,1836.51,2051.79,1837.06Z" transform="translate(-2051.215 -1836.83)"/></g><g transform="translate(3.972 9.616)"><path class="e" d="M2046.381,1850.962c.77.423,2.016,1.822,1.882,2.871-.175,1.367-1.129.922-1.693-.827C2045.844,1850.758,2045.38,1850.412,2046.381,1850.962Z" transform="translate(-2045.805 -1850.732)"/></g><g transform="translate(1.838 12.906)"><path class="e" d="M2036.488,1866.078c.868.137,2.514,1.029,2.745,2.061.3,1.345-.748,1.25-1.873-.2C2035.914,1866.068,2035.36,1865.9,2036.488,1866.078Z" transform="translate(-2035.887 -1866.023)"/></g><g transform="translate(0 17.042)"><path class="e" d="M2027.946,1885.3c.868.137,2.515,1.029,2.745,2.061.3,1.345-.749,1.25-1.873-.2C2027.372,1885.289,2026.818,1885.121,2027.946,1885.3Z" transform="translate(-2027.345 -1885.244)"/></g></g><g transform="translate(1396.504 1541.842)"><g transform="translate(0 0)"><path class="c" d="M2022.1,1864.958c2.713-.435,5.714-1.314,8.062-1.943.392-.172.8-.338,1.209-.492,7.055-2.61,9.356-4.635,7-6.55s-1.014-1.987,3.587-4.371,9.385-6.708,8.282-9.385c-1.385-3.363-5.468-.667-6.591-3.633s1.675-5.215,5.7-6.6,7.4-4.889,5.528-7.057-4.8-.651-5.99-2.119.252-3.256,1.771-5.75,1.985-5.232-.046-6.773c-1.709-1.3-6.4,3.951-11.763,11.635s-3.342,1.873-8.61,4.3-3.956,17.038-5.7,16.6-5.411-1.954-5.022,6C2020,1858.719,2020.554,1863.412,2022.1,1864.958Z" transform="translate(-2019.49 -1810.092)"/></g><g transform="translate(2.481 10.425)"><path class="d" d="M2031.2,1903.1a.131.131,0,0,0,.081-.111c.661-8.281,6.944-19.865,12.1-28.125,5.59-8.958,11.095-16.044,11.15-16.115a.131.131,0,0,0-.207-.161c-.055.071-5.567,7.166-11.165,16.135-5.17,8.285-11.473,19.911-12.138,28.244a.131.131,0,0,0,.18.132Z" transform="translate(-2031.021 -1858.539)"/></g><g transform="translate(7.912 35.408)"><path class="d" d="M2072.464,1975.552a.131.131,0,0,0-.02-.249,31.616,31.616,0,0,0-6.139-.665c-3.1-.024-7.354.481-10.007,3.026a.131.131,0,0,0,.181.189c4.965-4.764,15.8-2.321,15.905-2.3A.135.135,0,0,0,2072.464,1975.552Z" transform="translate(-2056.258 -1974.637)"/></g><g transform="translate(5.681 40.31)"><path class="d" d="M2056.5,1997.947a.131.131,0,0,0-.02-.249c-.069-.016-6.966-1.542-10.56,2.716a.131.131,0,1,0,.2.169c3.491-4.137,10.233-2.645,10.3-2.629A.13.13,0,0,0,2056.5,1997.947Z" transform="translate(-2045.888 -1997.42)"/></g><g transform="translate(11.743 20.131)"><path class="d" d="M2075.88,1912.3a.131.131,0,0,0,.081-.108,14.234,14.234,0,0,0-1.658-8.484.131.131,0,1,0-.22.141,13.967,13.967,0,0,1,1.617,8.315.131.131,0,0,0,.117.144A.135.135,0,0,0,2075.88,1912.3Z" transform="translate(-2074.062 -1903.646)"/></g></g><circle class="e" cx="1.634" cy="1.634" r="1.634" transform="translate(1231.77 1545.943)"/><path class="c" d="M2306.136,1992.106a.719.719,0,1,1-.719-.719A.719.719,0,0,1,2306.136,1992.106Z" transform="translate(-846.822 -410.533)"/><circle class="e" cx="0.399" cy="0.399" r="0.399" transform="translate(1454.808 1576.182)"/><path class="e" d="M1226.7,1950.862a.5.5,0,1,1-.5-.5A.5.5,0,0,1,1226.7,1950.862Z" transform="translate(0 -378.333)"/><circle class="c" cx="0.536" cy="0.536" r="0.536" transform="translate(1256.703 1534.565)"/><circle class="f" cx="0.536" cy="0.536" r="0.536" transform="translate(1238.619 1587.758)"/><g transform="translate(1410.06 1501.615)"><path class="f" d="M2084.633,1673.092l22.326.021a2.146,2.146,0,0,0,2.148-2.143l.044-45.65a2.146,2.146,0,0,0-2.144-2.148l-22.326-.021a2.146,2.146,0,0,0-2.148,2.144l-.043,45.65A2.146,2.146,0,0,0,2084.633,1673.092Z" transform="translate(-2082.489 -1623.151)"/><rect class="h" width="6.745" height="49.941" transform="translate(16.766 0.017)"/><path class="i" d="M2144.058,1683.7l.038-39.173a1.013,1.013,0,0,0-1.012-1.014h-.155a1.013,1.013,0,0,0-1.013,1.012l-.038,39.173a1.012,1.012,0,0,0,1.011,1.013h.155A1.012,1.012,0,0,0,2144.058,1683.7Z" transform="translate(-2129.098 -1639.135)"/><rect class="i" width="26.481" height="2.18" rx="1.09" transform="translate(10.419 19.096) rotate(90.055)"/><rect class="i" width="26.481" height="2.18" rx="1.09" transform="translate(6.059 19.092) rotate(90.055)"/><rect class="i" width="11.924" height="6.541" rx="3.27" transform="translate(10.433 4.697) rotate(90.055)"/><path class="j" d="M2160.431,1683.908l6.75-4.881,0-2.916-6.75,4.88Z" transform="translate(-2143.659 -1664.714)"/><path class="j" d="M2160.311,1808.906l6.75-4.882,0-2.915-6.75,4.88Z" transform="translate(-2143.565 -1762.816)"/><path class="j" d="M2160.336,1769.406l6.75-4.881.006-6.73-6.75,4.88Z" transform="translate(-2143.584 -1728.822)"/></g><g transform="translate(1402.554 1522.002)"><g transform="translate(0 0)"><rect class="h" width="42.353" height="77.078" rx="6"/><rect class="d" width="73.203" height="38.478" rx="6" transform="translate(40.416 1.937) rotate(90)"/></g><g transform="translate(8.901 48.549)"><circle class="k" cx="0.711" cy="0.711" r="0.711" transform="translate(11.389)"/><circle class="l" cx="0.711" cy="0.711" r="0.711" transform="translate(17)"/><circle class="l" cx="0.711" cy="0.711" r="0.711" transform="translate(5.778)"/><path class="l" d="M2112.306,1969.249h-22.473a.861.861,0,0,1-.861-.861h0a.861.861,0,0,1,.861-.861h22.473a.861.861,0,0,1,.861.861h0A.861.861,0,0,1,2112.306,1969.249Z" transform="translate(-2088.972 -1962.358)"/><path class="l" d="M2112.306,1986.417h-22.473a.861.861,0,0,1-.861-.861h0a.861.861,0,0,1,.861-.861h22.473a.861.861,0,0,1,.861.861h0A.861.861,0,0,1,2112.306,1986.417Z" transform="translate(-2088.972 -1975.831)"/><path class="l" d="M2112.306,2004.486h-22.473a.861.861,0,0,1-.861-.861h0a.861.861,0,0,1,.861-.861h22.473a.861.861,0,0,1,.861.861h0A.861.861,0,0,1,2112.306,2004.486Z" transform="translate(-2088.972 -1990.013)"/></g><g transform="translate(5.409 10.782)"><path class="k" d="M2082.05,1777.265V1775.6a.72.72,0,0,1,.385-.638l13.095-6.881a.72.72,0,0,1,.668,0l13.094,6.845a.721.721,0,0,1,.387.638v1.7Z" transform="translate(-2080.047 -1767.996)"/><path class="l" d="M2084.532,1778.93v-.811a.72.72,0,0,1,.385-.638l12.561-6.6a.72.72,0,0,1,.669,0l12.56,6.566a.72.72,0,0,1,.386.638v.845Z" transform="translate(-2081.995 -1770.195)"/><path class="d" d="M2131.8,1791.039h-6.7a1.629,1.629,0,0,1-1.629-1.629h0a1.629,1.629,0,0,1,1.629-1.629h6.7a1.629,1.629,0,0,1,1.629,1.629h0A1.629,1.629,0,0,1,2131.8,1791.039Z" transform="translate(-2112.552 -1783.524)"/><g transform="translate(12.224 4.989)"><path class="k" d="M2129.548,1792.975v-1.8h.653a.816.816,0,0,1,.462.11.355.355,0,0,1,.162.311.368.368,0,0,1-.1.254.518.518,0,0,1-.251.152v0a.5.5,0,0,1,.306.141.4.4,0,0,1,.115.287.48.48,0,0,1-.176.391.739.739,0,0,1-.482.145Zm.4-1.5v.426h.177a.3.3,0,0,0,.2-.061.207.207,0,0,0,.072-.167c0-.132-.1-.2-.3-.2Zm0,.726v.473h.219a.338.338,0,0,0,.22-.065.218.218,0,0,0,.079-.178.2.2,0,0,0-.078-.169.346.346,0,0,0-.219-.061Z" transform="translate(-2129.548 -1791.18)"/><path class="k" d="M2138.657,1792.975h-.44l-.128-.4h-.639l-.126.4h-.438l.654-1.8h.479Zm-.661-.71-.193-.6a.8.8,0,0,1-.03-.162h-.01a.7.7,0,0,1-.031.157l-.2.608Z" transform="translate(-2135.307 -1791.18)"/><path class="k" d="M2148.369,1792.975h-.408l-.74-1.128a1.68,1.68,0,0,1-.09-.149h-.005a2.891,2.891,0,0,1,.01.29v.987h-.382v-1.8h.435l.712,1.093c.033.049.063.1.09.146H2148a1.89,1.89,0,0,1-.01-.247v-.993h.382Z" transform="translate(-2143.051 -1791.18)"/><path class="k" d="M2158.254,1792.975h-.511l-.523-.78a.736.736,0,0,1-.047-.1h-.006v.879h-.4v-1.8h.4v.849h.006c.01-.023.026-.057.05-.1l.5-.749h.482l-.626.856Z" transform="translate(-2150.906 -1791.18)"/></g><rect class="k" width="28.555" height="2.172" rx="1.086" transform="translate(1.54 8.735)"/><path class="l" d="M0,0H28.555a0,0,0,0,1,0,0V0a1.086,1.086,0,0,1-1.086,1.086H1.086A1.086,1.086,0,0,1,0,0V0A0,0,0,0,1,0,0Z" transform="translate(1.54 9.821)"/><path class="l" d="M1.086,0H27.469a1.086,1.086,0,0,1,1.086,1.086v0a0,0,0,0,1,0,0H0a0,0,0,0,1,0,0v0A1.086,1.086,0,0,1,1.086,0Z" transform="translate(1.54 25.042)"/><rect class="k" width="28.555" height="0.543" transform="translate(1.54 25.585)"/><path class="l" d="M1.086,0H29.054A1.086,1.086,0,0,1,30.14,1.086v0a0,0,0,0,1,0,0H0a0,0,0,0,1,0,0v0A1.086,1.086,0,0,1,1.086,0Z" transform="translate(0.748 26.128)"/><rect class="k" width="30.14" height="0.543" transform="translate(0.748 26.671)"/><path class="l" d="M1.086,0H30.549a1.086,1.086,0,0,1,1.086,1.086v0a0,0,0,0,1,0,0H0a0,0,0,0,1,0,0v0A1.086,1.086,0,0,1,1.086,0Z" transform="translate(0 27.214)"/><rect class="k" width="31.635" height="0.543" transform="translate(0 27.757)"/><g transform="translate(3.412 10.907)"><path class="l" d="M2095.146,1835.422h-1.912v-.013l.01-.281.4-11.184h1.086l.4,11.184.01.281Z" transform="translate(-2092.237 -1822.812)"/><path class="k" d="M2094.474,1822.049h-.988a.52.52,0,0,1-.52-.52h2.027A.52.52,0,0,1,2094.474,1822.049Z" transform="translate(-2092.026 -1820.916)"/><path class="l" d="M2094.249,1820.464h-1.819a.28.28,0,0,1-.28-.28h0a.04.04,0,0,1,.04-.041h2.3a.04.04,0,0,1,.041.041h0A.28.28,0,0,1,2094.249,1820.464Z" transform="translate(-2091.386 -1819.829)"/><path class="k" d="M2093.579,1819h-2.326a.28.28,0,0,1-.28-.28h0a.04.04,0,0,1,.041-.041h2.8a.04.04,0,0,1,.04.041h0A.28.28,0,0,1,2093.579,1819Z" transform="translate(-2090.462 -1818.682)"/><path class="l" d="M2093.794,1878.239h-2.933a.78.78,0,0,1,.78-.78h1.374a.78.78,0,0,1,.78.78Z" transform="translate(-2090.374 -1864.811)"/><path class="k" d="M2092.506,1881.527H2088.6a.78.78,0,0,1,.78-.78h2.348a.78.78,0,0,1,.78.78Z" transform="translate(-2088.599 -1867.392)"/><path class="k" d="M2095.138,1876.154l.01.391h-1.91l.01-.391Z" transform="translate(-2092.24 -1863.786)"/></g><g transform="translate(18.786 10.907)"><path class="l" d="M2166.59,1835.422h-1.912v-.013l.01-.281.4-11.184h1.086l.4,11.184.01.281Z" transform="translate(-2163.681 -1822.812)"/><path class="k" d="M2165.918,1822.049h-.988a.52.52,0,0,1-.52-.52h2.028A.52.52,0,0,1,2165.918,1822.049Z" transform="translate(-2163.47 -1820.916)"/><path class="l" d="M2165.693,1820.464h-1.819a.28.28,0,0,1-.28-.28h0a.04.04,0,0,1,.04-.041h2.3a.04.04,0,0,1,.041.041h0A.28.28,0,0,1,2165.693,1820.464Z" transform="translate(-2162.83 -1819.829)"/><path class="k" d="M2165.022,1819H2162.7a.28.28,0,0,1-.28-.28h0a.04.04,0,0,1,.041-.041h2.8a.04.04,0,0,1,.041.041h0A.28.28,0,0,1,2165.022,1819Z" transform="translate(-2161.906 -1818.682)"/><path class="l" d="M2165.239,1878.239H2162.3a.78.78,0,0,1,.78-.78h1.374a.78.78,0,0,1,.78.78Z" transform="translate(-2161.818 -1864.811)"/><path class="k" d="M2163.95,1881.527h-3.907a.78.78,0,0,1,.78-.78h2.348a.78.78,0,0,1,.78.78Z" transform="translate(-2160.043 -1867.392)"/><path class="k" d="M2166.581,1876.154l.01.391h-1.91l.01-.391Z" transform="translate(-2163.683 -1863.786)"/></g><g transform="translate(24.336 10.907)"><path class="l" d="M2192.383,1835.422h-1.911v-.013l.01-.281.4-11.184h1.086l.4,11.184.01.281Z" transform="translate(-2189.474 -1822.812)"/><path class="k" d="M2191.71,1822.049h-.988a.52.52,0,0,1-.52-.52h2.028A.52.52,0,0,1,2191.71,1822.049Z" transform="translate(-2189.262 -1820.916)"/><path class="l" d="M2191.485,1820.464h-1.819a.28.28,0,0,1-.28-.28h0a.041.041,0,0,1,.041-.041h2.3a.04.04,0,0,1,.041.041h0A.28.28,0,0,1,2191.485,1820.464Z" transform="translate(-2188.622 -1819.829)"/><path class="k" d="M2190.814,1819h-2.325a.28.28,0,0,1-.28-.28h0a.04.04,0,0,1,.04-.041h2.8a.041.041,0,0,1,.041.041h0A.28.28,0,0,1,2190.814,1819Z" transform="translate(-2187.698 -1818.682)"/><path class="l" d="M2191.031,1878.239H2188.1a.78.78,0,0,1,.78-.78h1.374a.78.78,0,0,1,.78.78Z" transform="translate(-2187.61 -1864.811)"/><path class="k" d="M2189.743,1881.527h-3.907a.78.78,0,0,1,.779-.78h2.348a.78.78,0,0,1,.78.78Z" transform="translate(-2185.836 -1867.392)"/><path class="k" d="M2192.374,1876.154l.01.391h-1.91l.01-.391Z" transform="translate(-2189.476 -1863.786)"/></g><g transform="translate(8.962 10.907)"><path class="l" d="M2120.939,1835.422h-1.911v-.013l.01-.281.4-11.184h1.086l.4,11.184.01.281Z" transform="translate(-2118.03 -1822.812)"/><path class="k" d="M2120.267,1822.049h-.988a.52.52,0,0,1-.52-.52h2.027A.52.52,0,0,1,2120.267,1822.049Z" transform="translate(-2117.819 -1820.916)"/><path class="l" d="M2120.042,1820.464h-1.819a.28.28,0,0,1-.28-.28h0a.04.04,0,0,1,.041-.041h2.3a.04.04,0,0,1,.04.041h0A.28.28,0,0,1,2120.042,1820.464Z" transform="translate(-2117.179 -1819.829)"/><path class="k" d="M2119.37,1819h-2.326a.28.28,0,0,1-.28-.28h0a.041.041,0,0,1,.04-.041h2.8a.041.041,0,0,1,.041.041h0A.28.28,0,0,1,2119.37,1819Z" transform="translate(-2116.254 -1818.682)"/><path class="l" d="M2119.588,1878.239h-2.934a.78.78,0,0,1,.779-.78h1.375a.78.78,0,0,1,.78.78Z" transform="translate(-2116.167 -1864.811)"/><path class="k" d="M2118.3,1881.527h-3.907a.779.779,0,0,1,.779-.78h2.348a.78.78,0,0,1,.779.78Z" transform="translate(-2114.392 -1867.392)"/><path class="k" d="M2120.93,1876.154l.01.391h-1.91l.01-.391Z" transform="translate(-2118.032 -1863.786)"/></g><rect class="m" width="4.524" height="8.477" transform="translate(13.556 16.565)"/></g></g><rect class="k" width="125.594" height="67.741" transform="translate(1276.875 1519.864)"/><path class="k" d="M1451.818,1512.119v-7.886a3.407,3.407,0,0,1,1.822-3.015l61.917-32.536a3.406,3.406,0,0,1,3.162,0l61.915,32.369a3.405,3.405,0,0,1,1.828,3.018v8.053Z" transform="translate(-177.469 0)"/><path class="l" d="M1463.553,1519.993v-3.835a3.406,3.406,0,0,1,1.822-3.015l59.4-31.21a3.407,3.407,0,0,1,3.162,0l59.387,31.047a3.406,3.406,0,0,1,1.828,3.019v4Z" transform="translate(-186.678 -10.399)"/><rect class="d" width="47.087" height="15.405" rx="7.702" transform="translate(1316.491 1488.423)"/><g transform="translate(1326.89 1492.91)"><path class="k" d="M1695.982,1589.128v-6.43h2.341a2.924,2.924,0,0,1,1.655.394,1.27,1.27,0,0,1,.578,1.112,1.317,1.317,0,0,1-.352.91,1.85,1.85,0,0,1-.9.543v.018a1.781,1.781,0,0,1,1.1.507,1.417,1.417,0,0,1,.41,1.027,1.715,1.715,0,0,1-.632,1.4,2.644,2.644,0,0,1-1.726.518Zm1.448-5.363v1.525h.637a1.059,1.059,0,0,0,.706-.218.741.741,0,0,0,.258-.6q0-.708-1.058-.708Zm0,2.6v1.695h.785a1.206,1.206,0,0,0,.787-.233.779.779,0,0,0,.285-.637.727.727,0,0,0-.28-.605,1.24,1.24,0,0,0-.782-.22Z" transform="translate(-1695.982 -1582.698)"/><path class="k" d="M1728.612,1589.128h-1.578l-.458-1.43h-2.287l-.453,1.43h-1.569l2.341-6.43h1.718Zm-2.368-2.542-.69-2.161a2.79,2.79,0,0,1-.108-.578h-.036a2.461,2.461,0,0,1-.112.561l-.7,2.179Z" transform="translate(-1716.611 -1582.698)"/><path class="k" d="M1763.4,1589.128h-1.462l-2.65-4.04a5.975,5.975,0,0,1-.323-.534h-.018q.036.341.036,1.04v3.533h-1.367v-6.43h1.56l2.551,3.914q.175.265.323.525h.018a6.872,6.872,0,0,1-.036-.883V1582.7h1.368Z" transform="translate(-1744.353 -1582.698)"/><path class="k" d="M1798.811,1589.128h-1.83l-1.874-2.794a2.717,2.717,0,0,1-.17-.354h-.022v3.148h-1.448v-6.43h1.448v3.04h.022q.054-.126.179-.359l1.776-2.681h1.726l-2.242,3.067Z" transform="translate(-1772.489 -1582.698)"/></g><path class="k" d="M4.983,0H130.039a4.983,4.983,0,0,1,4.983,4.983v.3a4.984,4.984,0,0,1-4.984,4.984H4.984A4.984,4.984,0,0,1,0,5.286v-.3A4.983,4.983,0,0,1,4.983,0Z" transform="translate(1272.161 1509.594)"/><path class="l" d="M0,0H135.022a0,0,0,0,1,0,0V.151a4.984,4.984,0,0,1-4.984,4.984H4.984A4.984,4.984,0,0,1,0,.151V0A0,0,0,0,1,0,0Z" transform="translate(1272.161 1514.729)"/><path class="l" d="M4.983,0H130.039a4.983,4.983,0,0,1,4.983,4.983v.151a0,0,0,0,1,0,0H0a0,0,0,0,1,0,0V4.983A4.983,4.983,0,0,1,4.983,0Z" transform="translate(1272.161 1586.702)"/><rect class="k" width="135.022" height="2.567" transform="translate(1272.161 1589.269)"/><path class="l" d="M4.983,0H137.531a4.984,4.984,0,0,1,4.984,4.984v.151a0,0,0,0,1,0,0H0a0,0,0,0,1,0,0V4.983A4.983,4.983,0,0,1,4.983,0Z" transform="translate(1268.415 1591.836)"/><rect class="k" width="142.514" height="2.567" transform="translate(1268.415 1594.404)"/><path class="l" d="M4.983,0H144.6a4.983,4.983,0,0,1,4.983,4.983v.151a0,0,0,0,1,0,0H0a0,0,0,0,1,0,0V4.983A4.983,4.983,0,0,1,4.983,0Z" transform="translate(1264.879 1596.971)"/><rect class="k" width="149.585" height="2.567" transform="translate(1264.879 1599.539)"/><g transform="translate(1281.013 1519.864)"><path class="l" d="M1513.746,1787.112h-9.038l0-.063.048-1.328,1.9-52.884h5.136l1.9,52.884.048,1.328Z" transform="translate(-1499.991 -1727.483)"/><path class="l" d="M0,0H9.587a0,0,0,0,1,0,0V0A2.457,2.457,0,0,1,7.129,2.457H2.457A2.457,2.457,0,0,1,0,0V0A0,0,0,0,1,0,0Z" transform="translate(4.443 2.897)"/><path class="l" d="M.191,0H11.056a.191.191,0,0,1,.191.191v0A1.323,1.323,0,0,1,9.924,1.515h-8.6A1.323,1.323,0,0,1,0,.191v0A.191.191,0,0,1,.191,0Z" transform="translate(3.613 1.488)"/><path class="l" d="M.191,0H13.452a.191.191,0,0,1,.191.191v0A1.323,1.323,0,0,1,12.32,1.515h-11A1.323,1.323,0,0,1,0,.191v0A.191.191,0,0,1,.191,0Z" transform="translate(2.415 0)"/><path class="l" d="M3.686,0h6.5a3.686,3.686,0,0,1,3.686,3.686v0a0,0,0,0,1,0,0H0a0,0,0,0,1,0,0v0A3.686,3.686,0,0,1,3.686,0Z" transform="translate(2.301 59.805)"/><path class="l" d="M3.686,0h11.1a3.686,3.686,0,0,1,3.686,3.686v0a0,0,0,0,1,0,0H0a0,0,0,0,1,0,0v0A3.686,3.686,0,0,1,3.686,0Z" transform="translate(0 63.152)"/><path class="l" d="M1513.7,1979.708l.048,1.849h-9.033l.048-1.849Z" transform="translate(-1500 -1921.231)"/></g><g transform="translate(1353.707 1519.864)"><path class="l" d="M1851.562,1787.112h-9.038l0-.063.048-1.328,1.9-52.884h5.137l1.9,52.884.048,1.328Z" transform="translate(-1837.807 -1727.483)"/><path class="l" d="M0,0H9.587a0,0,0,0,1,0,0V0A2.457,2.457,0,0,1,7.129,2.457H2.457A2.457,2.457,0,0,1,0,0V0A0,0,0,0,1,0,0Z" transform="translate(4.443 2.897)"/><path class="l" d="M.191,0H11.056a.191.191,0,0,1,.191.191v0A1.323,1.323,0,0,1,9.924,1.515h-8.6A1.323,1.323,0,0,1,0,.191v0A.191.191,0,0,1,.191,0Z" transform="translate(3.613 1.488)"/><path class="l" d="M.191,0H13.452a.191.191,0,0,1,.191.191v0A1.323,1.323,0,0,1,12.32,1.515h-11A1.323,1.323,0,0,1,0,.191v0A.191.191,0,0,1,.191,0Z" transform="translate(2.415 0)"/><path class="l" d="M3.686,0h6.5a3.686,3.686,0,0,1,3.686,3.686v0a0,0,0,0,1,0,0H0a0,0,0,0,1,0,0v0A3.686,3.686,0,0,1,3.686,0Z" transform="translate(2.301 59.805)"/><path class="l" d="M3.686,0h11.1a3.686,3.686,0,0,1,3.686,3.686v0a0,0,0,0,1,0,0H0a0,0,0,0,1,0,0v0A3.686,3.686,0,0,1,3.686,0Z" transform="translate(0 63.152)"/><path class="l" d="M1851.521,1979.708l.048,1.849h-9.033l.048-1.849Z" transform="translate(-1837.817 -1921.231)"/></g><g transform="translate(1379.95 1519.864)"><path class="l" d="M1973.521,1787.112h-9.038l0-.063.048-1.328,1.9-52.884h5.136l1.9,52.884.048,1.328Z" transform="translate(-1959.765 -1727.483)"/><path class="l" d="M0,0H9.587a0,0,0,0,1,0,0V0A2.457,2.457,0,0,1,7.129,2.457H2.457A2.457,2.457,0,0,1,0,0V0A0,0,0,0,1,0,0Z" transform="translate(4.443 2.897)"/><path class="l" d="M.191,0H11.056a.191.191,0,0,1,.191.191v0A1.323,1.323,0,0,1,9.924,1.515h-8.6A1.323,1.323,0,0,1,0,.191v0A.191.191,0,0,1,.191,0Z" transform="translate(3.613 1.488)"/><path class="l" d="M.191,0H13.452a.191.191,0,0,1,.191.191v0A1.323,1.323,0,0,1,12.32,1.515h-11A1.323,1.323,0,0,1,0,.191v0A.191.191,0,0,1,.191,0Z" transform="translate(2.415 0)"/><path class="l" d="M3.686,0h6.5a3.686,3.686,0,0,1,3.686,3.686v0a0,0,0,0,1,0,0H0a0,0,0,0,1,0,0v0A3.686,3.686,0,0,1,3.686,0Z" transform="translate(2.301 59.805)"/><path class="l" d="M3.686,0h11.1a3.686,3.686,0,0,1,3.686,3.686v0a0,0,0,0,1,0,0H0a0,0,0,0,1,0,0v0A3.686,3.686,0,0,1,3.686,0Z" transform="translate(0 63.152)"/><path class="l" d="M1973.479,1979.708l.048,1.849h-9.033l.048-1.849Z" transform="translate(-1959.775 -1921.231)"/></g><rect class="k" width="117.52" height="0.689" transform="translate(1279.832 1582.326)"/><rect class="k" width="117.52" height="0.689" transform="translate(1279.832 1578.921)"/><g transform="translate(1307.257 1519.864)"><path class="l" d="M1635.7,1787.112h-9.038l0-.063.048-1.328,1.9-52.884h5.137l1.9,52.884.048,1.328Z" transform="translate(-1621.949 -1727.483)"/><path class="l" d="M0,0H9.587a0,0,0,0,1,0,0V0A2.457,2.457,0,0,1,7.129,2.457H2.457A2.457,2.457,0,0,1,0,0V0A0,0,0,0,1,0,0Z" transform="translate(4.443 2.897)"/><path class="l" d="M.191,0H11.056a.191.191,0,0,1,.191.191v0A1.323,1.323,0,0,1,9.924,1.515h-8.6A1.323,1.323,0,0,1,0,.191v0A.191.191,0,0,1,.191,0Z" transform="translate(3.613 1.488)"/><path class="l" d="M.191,0H13.452a.191.191,0,0,1,.191.191v0A1.323,1.323,0,0,1,12.32,1.515h-11A1.323,1.323,0,0,1,0,.191v0A.191.191,0,0,1,.191,0Z" transform="translate(2.415 0)"/><path class="l" d="M3.686,0h6.5a3.686,3.686,0,0,1,3.686,3.686v0a0,0,0,0,1,0,0H0a0,0,0,0,1,0,0v0A3.686,3.686,0,0,1,3.686,0Z" transform="translate(2.301 59.805)"/><path class="l" d="M3.686,0h11.1a3.686,3.686,0,0,1,3.686,3.686v0a0,0,0,0,1,0,0H0a0,0,0,0,1,0,0v0A3.686,3.686,0,0,1,3.686,0Z" transform="translate(0 63.152)"/><path class="l" d="M1635.663,1979.708l.048,1.849h-9.033l.048-1.849Z" transform="translate(-1621.958 -1921.231)"/></g><g transform="translate(1256.689 1480.865)"><path class="c" d="M1381.973,1526.719a1.3,1.3,0,0,1,1.3,1.3v13.5a.316.316,0,0,1-.5.254l-4.526-3.331a1.8,1.8,0,0,0-1.069-.351h-6.125a1.3,1.3,0,0,1-1.3-1.3v-8.773a1.3,1.3,0,0,1,1.3-1.3Z" transform="translate(-1369.749 -1526.719)"/><g transform="translate(3.892 2.848)"><g transform="translate(0.888)"><path class="d" d="M1395.816,1540.33l-3.405,5.344a.243.243,0,0,1-.206.113h0a.244.244,0,0,1-.206-.374l3.4-5.344a.244.244,0,0,1,.205-.113h0A.244.244,0,0,1,1395.816,1540.33Z" transform="translate(-1391.961 -1539.955)"/></g><path class="d" d="M1405.258,1557.207a1.06,1.06,0,1,0,1.06,1.059A1.059,1.059,0,0,0,1405.258,1557.207Zm0,1.718a.658.658,0,1,1,.658-.658A.658.658,0,0,1,1405.258,1558.925Z" transform="translate(-1400.677 -1553.495)"/><path class="d" d="M1388.9,1539.96a1.06,1.06,0,1,0,1.06,1.06A1.059,1.059,0,0,0,1388.9,1539.96Zm0,1.718a.658.658,0,1,1,.658-.658A.658.658,0,0,1,1388.9,1541.678Z" transform="translate(-1387.836 -1539.959)"/></g></g><g transform="translate(1278.189 1590.432)"><rect class="n" width="26.573" height="13.001" rx="3.146" transform="translate(0 0)"/><g transform="translate(1.643 0)"><rect class="o" width="26.573" height="13.001" rx="3.146" transform="translate(0)"/><path class="e" d="M1500.156,2035.9h-22.463a.4.4,0,0,0-.4.4V2048.5a.4.4,0,0,0,.4.4h25.78a.4.4,0,0,0,.4-.4v-12.208a.4.4,0,0,0-.4-.4Zm1.994,9.709a3.736,3.736,0,0,0-1.573,1.573.394.394,0,0,1-.349.211h-19.29a.394.394,0,0,1-.349-.211,3.737,3.737,0,0,0-1.573-1.573.394.394,0,0,1-.211-.349v-5.719a.393.393,0,0,1,.211-.349,3.739,3.739,0,0,0,1.573-1.573.394.394,0,0,1,.349-.211h19.29a.394.394,0,0,1,.349.211,3.738,3.738,0,0,0,1.573,1.573.394.394,0,0,1,.211.349v5.719A.394.394,0,0,1,1502.151,2045.607Z" transform="translate(-1477.297 -2035.898)"/><circle class="d" cx="3.904" cy="3.904" r="3.904" transform="translate(9.382 2.596)"/><path class="e" d="M1570.434,2064.427h-2.221a.543.543,0,0,1-.543-.543h0a.543.543,0,0,1,.543-.543h2.221a.543.543,0,0,1,.543.543h0A.543.543,0,0,1,1570.434,2064.427Z" transform="translate(-1548.223 -2057.436)"/><path class="e" d="M1497.688,2064.427h-2.221a.543.543,0,0,1-.543-.543h0a.543.543,0,0,1,.543-.543h2.221a.543.543,0,0,1,.543.543h0A.543.543,0,0,1,1497.688,2064.427Z" transform="translate(-1491.131 -2057.436)"/></g></g><g transform="translate(1418.34 1587.228)"><circle class="f" cx="7.164" cy="7.164" r="7.164" transform="translate(0 0.167)"/><circle class="i" cx="7.164" cy="7.164" r="7.164" transform="translate(1.36 0)"/><circle class="p" cx="6.209" cy="6.209" r="6.209" transform="translate(2.315 0.955)"/></g><g transform="translate(1390.824 1527.607)"><circle class="f" cx="4.265" cy="4.265" r="4.265" transform="translate(0 3.264) rotate(-22.5)"/><circle class="i" cx="4.265" cy="4.265" r="4.265" transform="translate(1.251 8.643) rotate(-76.718)"/><circle class="p" cx="3.696" cy="3.696" r="3.696" transform="translate(2.686 1.776)"/></g><g transform="translate(1251.044 1522.025)"><circle class="f" cx="4.265" cy="4.265" r="4.265" transform="translate(0.957 1.866)"/><circle class="i" cx="4.265" cy="4.265" r="4.265" transform="translate(0 6.031) rotate(-45)"/><circle class="p" cx="3.696" cy="3.696" r="3.696" transform="translate(2.335 2.335)"/></g><g transform="translate(1298.224 1557.631)"><circle class="q" cx="4.1" cy="4.1" r="4.1" transform="translate(0 7.982) rotate(-76.717)"/><path class="q" d="M1.029,0H7.02A1.153,1.153,0,0,1,8.173,1.153v12.73a0,0,0,0,1,0,0H0a0,0,0,0,1,0,0V1.029A1.029,1.029,0,0,1,1.029,0Z" transform="translate(0.846 4.306)"/><rect class="l" width="6.041" height="11.893" transform="translate(1.912 5.301)"/><circle class="l" cx="3.034" cy="3.034" r="3.034" transform="translate(1.898 2.137)"/></g><g transform="translate(1370.923 1557.206)"><circle class="q" cx="4.1" cy="4.1" r="4.1" transform="translate(0 3.138) rotate(-22.5)"/><path class="q" d="M1.029,0H7.02A1.153,1.153,0,0,1,8.173,1.153v12.73a0,0,0,0,1,0,0H0a0,0,0,0,1,0,0V1.029A1.029,1.029,0,0,1,1.029,0Z" transform="translate(1.271 4.731)"/><rect class="l" width="6.041" height="11.893" transform="translate(2.337 5.726)"/><circle class="l" cx="3.034" cy="3.034" r="3.034" transform="translate(2.323 2.562)"/></g><g transform="translate(1298.224 1528.126)"><circle class="q" cx="4.1" cy="4.1" r="4.1" transform="translate(0 7.982) rotate(-76.717)"/><path class="q" d="M1.029,0H7.02A1.153,1.153,0,0,1,8.173,1.153v12.73a0,0,0,0,1,0,0H0a0,0,0,0,1,0,0V1.029A1.029,1.029,0,0,1,1.029,0Z" transform="translate(0.846 4.306)"/><rect class="l" width="6.041" height="11.893" transform="translate(1.912 5.301)"/><circle class="l" cx="3.034" cy="3.034" r="3.034" transform="matrix(0.23, -0.973, 0.973, 0.23, 1.283, 7.427)"/></g><g transform="translate(1332.366 1526.596)"><path class="q" d="M1736.041,1746.539a7.3,7.3,0,1,0-14.595,0c0,.052,0,.1,0,.154a.239.239,0,0,0-.021.1v12.17h14.612v-12.142c0-.011-.005-.021-.006-.031C1736.038,1746.706,1736.041,1746.623,1736.041,1746.539Z" transform="translate(-1721.429 -1739.242)"/><path class="l" d="M1726.834,1762.039v-10.811l.026-.058-.008-.39a6.135,6.135,0,1,1,12.269,0c0,.053,0,.105,0,.158l0,.147.009.068v10.885Z" transform="translate(-1725.671 -1743.483)"/></g><g transform="translate(1370.923 1527.701)"><circle class="q" cx="4.1" cy="4.1" r="4.1" transform="translate(0 3.138) rotate(-22.5)"/><path class="q" d="M1.029,0H7.02A1.153,1.153,0,0,1,8.173,1.153v12.73a0,0,0,0,1,0,0H0a0,0,0,0,1,0,0V1.029A1.029,1.029,0,0,1,1.029,0Z" transform="translate(1.271 4.731)"/><rect class="l" width="6.041" height="11.893" transform="translate(2.337 5.726)"/><circle class="l" cx="3.034" cy="3.034" r="3.034" transform="matrix(0.16, -0.987, 0.987, 0.16, 1.876, 8.105)"/></g><rect class="m" width="21.392" height="40.081" transform="translate(1328.976 1546.62)"/><path class="d" d="M2301.008,1959.416a1.061,1.061,0,0,0-.835.835.074.074,0,0,1-.141,0,1.06,1.06,0,0,0-.835-.835.074.074,0,0,1,0-.141,1.06,1.06,0,0,0,.835-.835.074.074,0,0,1,.141,0,1.06,1.06,0,0,0,.835.835A.074.074,0,0,1,2301.008,1959.416Z" transform="translate(-842.464 -384.636)"/><g transform="translate(1363.105 1544.632)"><path class="h" d="M2050.709,2111.128l2.011-4.013a.882.882,0,0,0-.385-1.18c-.841-.431-2.124-1.078-2.592-1.257-.72-.275-1.255,1.531-1.255,1.531a1.89,1.89,0,0,1,1.377,1.956,8.724,8.724,0,0,0,.32,2.942A.287.287,0,0,0,2050.709,2111.128Z" transform="translate(-2008.849 -2044.054)"/><g transform="translate(0 0)"><g transform="translate(33.858 37.448)"><rect class="h" width="12.129" height="8.713" rx="4.357" transform="translate(0 4.244) rotate(-19.615)"/><path class="h" d="M2042.927,2001.854l-3.775,1.346-1.483-4.161a.916.916,0,0,1,.554-1.169l2.052-.731a.916.916,0,0,1,1.169.555Zm-3.458.678,2.79-.995-1.307-3.669a.393.393,0,0,0-.5-.238l-2.052.731a.392.392,0,0,0-.238.5Z" transform="translate(-2034.174 -1997.085)"/></g><path class="a" d="M1898.044,2149.024c-19.072.587-21.79,6.548,4.76,7.164S1923.853,2148.229,1898.044,2149.024Z" transform="translate(-1879.213 -2078.84)"/><path class="h" d="M1904.19,2147.416l4.677-1.056a.478.478,0,0,0,.363-.566c-.182-.854-.572-2.644-.755-3.194-.244-.731-1.98,0-1.98,0a1.89,1.89,0,0,1-.64,2.305,9.26,9.26,0,0,0-2.016,2.018A.328.328,0,0,0,1904.19,2147.416Z" transform="translate(-1895.286 -2073.584)"/><path class="h" d="M1949.125,1827.7h-.823a2.922,2.922,0,0,1,.411-3.382c1.462-1.6,4.707-1.645,6.946-.32s3.793,2.036,6.489,1.589,5.438.147,6.9,2.706,1.005,3.29,7.769,4.2,6.854,8.454,1.279,9.414-9.094-1.28-12.567-4.935-6.247-2.129-8.716-3.062a8.064,8.064,0,0,1-4.445-4.341C1951.958,1828.386,1949.125,1827.7,1949.125,1827.7Z" transform="translate(-1929.935 -1823.058)"/><path class="r" d="M1913.607,1981.408s-1.49,1.511-3.263,3.394c-2.393,2.541-5.3,5.756-5.754,6.842-.792,1.888-.548,17.12-.548,17.12l-3.533.671s-4.57-16.694-3.17-20.167c1.126-2.787,7.355-12.8,9.768-16.643.594-.943.956-1.515.956-1.515Z" transform="translate(-1890.016 -1939.251)"/><path class="g" d="M1964.547,1921.016l-2.559,3.291s-13.344-8.591-15.658-10.481c-1.181-.963-2.678-3.795-4.056-7.511a69.1,69.1,0,0,1-3.237-12.178c-.005-.038-.013-.075-.018-.113-.19-1.154-.364-2.214-.517-3.192-1.016-6.507-1.126-9.4.517-12.468a19.745,19.745,0,0,1,7.333-7.243c.693-.263,2.9,2.125,2.355,6.086s-1.159,11.211-.854,12,2.864,5.3,3.3,7.494.539,10.357,1.453,12.307S1964.547,1921.016,1964.547,1921.016Z" transform="translate(-1921.946 -1860.763)"/><path class="s" d="M1946.5,1835.284c-.92,1.151-1.6,3.7-1.1,4.844a1.727,1.727,0,0,0,2.148.914c.366-.183,1.635,4.245,1.635,4.245l3.437-2.387a35.805,35.805,0,0,1-1.828-3.412c-.137-.548-.32-3.153-1.142-3.839S1947.23,1834.37,1946.5,1835.284Z" transform="translate(-1927.812 -1832.287)"/><path class="t" d="M1874.459,1887l1.6-1.28s6.169,5.3,8.134,5.255,7.353-6.122,8.68-6.4,1.236,5.711-2.237,8.453-6.58,3.61-8.043,3.062S1874.459,1887,1874.459,1887Z" transform="translate(-1872.269 -1871.335)"/><path class="s" d="M1867,1874.529a10.872,10.872,0,0,1-2.532-2.785,4.828,4.828,0,0,1,.177-3.092c.174-.134,1.077.525,1.326.834s2.021,3.915,2.021,3.915Z" transform="translate(-1864.281 -1858.827)"/><g transform="translate(0.324 9.042)"><path class="h" d="M1870.025,1871.715h-2.691a.558.558,0,0,1-.528-.448l-1.012-5.741a.366.366,0,0,1,.37-.448h2.691a.558.558,0,0,1,.528.448l1.012,5.741A.366.366,0,0,1,1870.025,1871.715Z" transform="translate(-1865.786 -1865.077)"/><path class="d" d="M1871.055,1872.366h-2.836a.108.108,0,0,1-.1-.087l-1.053-5.973a.071.071,0,0,1,.072-.087h2.836a.108.108,0,0,1,.1.087l1.053,5.973A.071.071,0,0,1,1871.055,1872.366Z" transform="translate(-1866.788 -1865.974)"/></g><path class="c" d="M1948.706,1877.207c-.548,3.961-1.159,11.211-.854,12a28.985,28.985,0,0,1-9.352,1.621c-1.016-6.507-1.126-9.4.517-12.468a19.745,19.745,0,0,1,7.333-7.243C1947.044,1870.858,1949.255,1873.246,1948.706,1877.207Z" transform="translate(-1921.946 -1860.763)"/><path class="s" d="M2041.459,1993s.712,1.562.476,1.9a1.774,1.774,0,0,1-1.383.543c-.458-.041-.5-1.892-.5-1.892Z" transform="translate(-2002.231 -1956.431)"/><path class="u" d="M1967.945,1879.131c-.12,1.992,2.806,5,7.381,9.63s7.9,13.836,7.9,13.836l2.066-.472s-2.293-12.283-4.43-15.491a39.841,39.841,0,0,0-8.291-8.9C1969.9,1875.913,1968.1,1876.53,1967.945,1879.131Z" transform="translate(-1945.635 -1865.149)"/></g></g><g transform="translate(1366.284 1536)"><circle class="f" cx="3.047" cy="3.047" r="3.047" transform="translate(0 0.071)"/><circle class="i" cx="3.047" cy="3.047" r="3.047" transform="translate(0.578 0)"/><circle class="p" cx="2.64" cy="2.64" r="2.64" transform="translate(0.985 0.406)"/></g><g transform="translate(1288.521 1543.305)"><circle class="f" cx="3.047" cy="3.047" r="3.047" transform="translate(0 4.309) rotate(-45)"/><circle class="i" cx="3.047" cy="3.047" r="3.047" transform="matrix(0.16, -0.987, 0.987, 0.16, 1.392, 6.757)"/><circle class="p" cx="2.64" cy="2.64" r="2.64" transform="translate(2.247 1.597)"/></g><g transform="translate(1436.462 1573.864)"><path class="v" d="M2223.279,1998.985a9.049,9.049,0,0,1-17.274,3.771h0a9.025,9.025,0,0,1,1.275-9.558l4.7-7.346h4.5l3.408,5.323,0,0,.826,1.291,0,.005.46.718A9.008,9.008,0,0,1,2223.279,1998.985Z" transform="translate(-2205.183 -1980.052)"/><path class="e" d="M2221.751,1996.672a9.049,9.049,0,0,1-15.746,6.084h0a9.025,9.025,0,0,1,1.275-9.558l4.7-7.346h4.449l3.218,5.026q.122.146.237.3l0,0a9.1,9.1,0,0,1,.826,1.291l0,.005A9,9,0,0,1,2221.751,1996.672Z" transform="translate(-2205.183 -1980.052)"/><path class="e" d="M2236.42,1959.193c-.519.09-.887.474-1.15.18a1.34,1.34,0,0,0-1.865-.16c-.682.558-.7.014-1.5-.069a2.038,2.038,0,0,0-1.364.377.1.1,0,0,0-.026.089h0l1.294,5.339h4.606l1.295-5.339C2237.77,1959.354,2236.978,1959.1,2236.42,1959.193Z" transform="translate(-2225.063 -1958.904)"/><rect class="f" width="5.046" height="0.386" rx="0.193" transform="translate(6.547 5.658)"/><rect class="f" width="0.303" height="6.057" transform="translate(10.842 5.798)"/><path class="f" d="M2255.031,2012.288a.468.468,0,1,1-.468-.468A.468.468,0,0,1,2255.031,2012.288Z" transform="translate(-2243.57 -2000.433)"/><circle class="d" cx="4.216" cy="4.216" r="4.216" transform="translate(3.107 16.889) rotate(-45)"/></g><rect class="k" width="107.564" height="0.689" transform="translate(1286.875 1525.218)"/><rect class="k" width="109.703" height="0.689" transform="translate(1284.736 1522.866)"/><path class="q" d="M9.407,0h0a9.407,9.407,0,0,1,9.407,9.407V29.142a0,0,0,0,1,0,0H0a0,0,0,0,1,0,0V9.407A9.407,9.407,0,0,1,9.407,0Z" transform="translate(1330.265 1557.56)"/><g transform="translate(1291.969 1541.751)"><path class="h" d="M1627.656,1811.9a3.256,3.256,0,0,0-2.851,2.39c-.4,1.656,1.427,5.49,1.867,4.328s4.15-2.189,4.926-2.9a2.212,2.212,0,0,0,.818-1.279,3.082,3.082,0,0,0,1.656-1.971,2.422,2.422,0,0,0-2.977-2.726C1629.249,1810.2,1629.71,1811.817,1627.656,1811.9Z" transform="translate(-1605.155 -1809.667)"/><path class="s" d="M1630.109,1837.976s.895-3.782.916-4.2-.671-.566-.713-1.468.8-.5,1.09-.21.524-1.006.545-1.614,1.024-.545,2.043-.314a9.96,9.96,0,0,0,2.633.231c.21-.063.21,1.258-.084,2.935s-1.552,2.872-2.1,2.851.481,3.475.481,3.475l-3.5-.12Z" transform="translate(-1609.363 -1825.627)"/><path class="f" d="M1666.46,1880.012s-2.212,3.272-4.22,5.917a15.179,15.179,0,0,1-2.921,3.262c-1.355.618-4.368,0-7.849-2.386s-3.96-8.067-2.679-7.892,6.8,5.6,8.673,5.516a4.5,4.5,0,0,0,1.883-.86,47.659,47.659,0,0,0,5.508-4.669Z" transform="translate(-1623.515 -1864.001)"/><path class="s" d="M1707.327,1880.012s-2.212,3.272-4.22,5.917a9.424,9.424,0,0,1-2.893-2.361,47.654,47.654,0,0,0,5.508-4.669Z" transform="translate(-1664.381 -1864.001)"/><g transform="translate(40.308 9.612)"><path class="h" d="M1721.4,1860.9l2.559-.176a.533.533,0,0,0,.472-.461l.588-5.526a.349.349,0,0,0-.381-.4l-2.559.176a.532.532,0,0,0-.472.461l-.588,5.526A.349.349,0,0,0,1721.4,1860.9Z" transform="translate(-1721.013 -1854.333)"/><path class="d" d="M1722.32,1861.516l2.7-.185a.1.1,0,0,0,.091-.089l.611-5.749a.067.067,0,0,0-.073-.078l-2.7.185a.1.1,0,0,0-.091.089l-.612,5.749A.068.068,0,0,0,1722.32,1861.516Z" transform="translate(-1721.981 -1855.182)"/></g><path class="a" d="M1548.146,2187.99c-18.7.576-21.364,6.42,4.667,7.024S1573.45,2187.211,1548.146,2187.99Z" transform="translate(-1533.698 -2106.541)"/><path class="h" d="M1560.329,2155.351l-2.112,2.068a.6.6,0,0,0-.009.845l3.771,3.853a.338.338,0,0,0,.579-.211,3.127,3.127,0,0,0-.456-1.776c-.808-1.41-.732-2.232.01-2.958S1560.329,2155.351,1560.329,2155.351Z" transform="translate(-1552.8 -2080.965)"/><path class="h" d="M1647.616,2185.587l-.095,2.955a.6.6,0,0,0,.578.616l5.388.173a.337.337,0,0,0,.271-.552,3.125,3.125,0,0,0-1.558-.968c-1.559-.459-2.073-1.1-2.04-2.142S1647.616,2185.587,1647.616,2185.587Z" transform="translate(-1623.027 -2104.38)"/><path class="w" d="M1578.749,2033.229s-1.1,5.849-2.814,8.742-11.526,17.611-11.526,17.611l3.082,2.327L1583.015,2047Z" transform="translate(-1557.8 -1985.122)"/><path class="g" d="M1627.257,1955.008s-4.466,5.912-2.579,15.6,2.956,12.265,3.145,14.4.692,19.247.692,19.247h4.214s2.592-17.171,2.837-20.19.182-24.781-.762-28.209S1627.257,1955.008,1627.257,1955.008Z" transform="translate(-1604.736 -1923.002)"/><path class="x" d="M1620.724,1866.184c-.661.849-2.957,4.38-2.737,6.875s2.6,16.187,2.6,16.187,7.763.6,9.776-.126c0,0,.482-10.058-.335-13.989a12.212,12.212,0,0,0-4.459-6.966A34.32,34.32,0,0,0,1620.724,1866.184Z" transform="translate(-1599.838 -1854.022)"/><g transform="translate(23.557 43.351)"><rect class="h" width="14.433" height="10.369" rx="5.184" transform="translate(0 5.05) rotate(-19.615)"/><path class="h" d="M1668.52,2016.8l-4.493,1.6-1.765-4.952a1.09,1.09,0,0,1,.66-1.391l2.442-.87a1.09,1.09,0,0,1,1.391.66Zm-4.116.806,3.321-1.183-1.556-4.366a.467.467,0,0,0-.6-.283l-2.442.87a.467.467,0,0,0-.283.6Z" transform="translate(-1658.104 -2011.124)"/></g><path class="s" d="M1639.714,1966.285s4.908,7.212,5.411,8.177.419,1.761.922,1.761a3.222,3.222,0,0,0,1.635-.671c.252-.251-.545-1.51-.8-1.97s-3.164-9.168-3.164-9.168Z" transform="translate(-1616.901 -1931.114)"/><path class="y" d="M1622.514,1899.8a26.617,26.617,0,0,1,4.592-2.076c.44-.251-.126-.817-.943-2.2s-1.761-13.963-2.768-15.6-4.654-2.076-5.409,2.264,1.824,12.265,2.83,13.963S1621.836,1900.238,1622.514,1899.8Z" transform="translate(-1599.741 -1863.89)"/></g></g></svg>