<svg xmlns="http://www.w3.org/2000/svg" xmlns:xlink="http://www.w3.org/1999/xlink" width="182.505" height="155.518" viewBox="0 0 182.505 155.518"><defs><style>.a{fill:url(#a);}.b{fill:url(#b);}.c{fill:url(#c);}.d{fill:#ffe4a1;}.e{fill:url(#d);}.f{fill:url(#e);}.g{fill:url(#f);}.h{fill:url(#g);}.i{fill:url(#i);}.j{fill:url(#j);}.k{fill:url(#s);}.l{fill:url(#aa);}.m{fill:url(#ac);}.n{fill:url(#ad);}.o{opacity:0.41;fill:url(#ah);}.p{fill:url(#al);}.q{fill:url(#am);}.r{fill:#fff;}.s{fill:url(#aq);}.t{fill:url(#ar);}.u{fill:url(#as);}.ci,.v{fill:url(#au);}.w{fill:url(#aw);}.x{fill:url(#ax);}.y{fill:url(#ay);}.z{fill:url(#az);}.aa{fill:url(#ba);}.ab{fill:url(#bb);}.ac{fill:url(#bc);}.ad{fill:url(#bf);}.ae{fill:url(#bg);}.af{fill:url(#bh);}.ag{fill:url(#bi);}.ah{fill:url(#bj);}.ai{fill:url(#bk);}.aj{fill:url(#bl);}.ak{fill:url(#bm);}.al{fill:url(#bn);}.am{fill:url(#bo);}.an{fill:url(#bp);}.ao{fill:url(#bq);}.ap{fill:url(#br);}.aq{fill:url(#bs);}.ar{fill:url(#bt);}.as{fill:#f3fbff;}.at{fill:url(#bw);}.au{fill:url(#bx);}.av{fill:url(#ca);}.aw{fill:url(#cb);}.ax{fill:url(#cc);}.ay{fill:url(#cd);}.az{fill:url(#ce);}.ba{fill:url(#cg);}.bb{fill:url(#ch);}.bc{fill:url(#ck);}.bd{fill:url(#cl);}.be{fill:url(#cm);}.bf{fill:url(#cn);}.bg{fill:url(#co);}.bh{fill:url(#cp);}.bi{fill:url(#cr);}.bj{fill:url(#cs);}.bk{fill:url(#cv);}.bl{fill:url(#cw);}.bm{fill:url(#cx);}.bn{fill:url(#cy);}.bo{fill:url(#cz);}.bp{fill:url(#da);}.bq{fill:url(#dc);}.br{fill:url(#dd);}.bs{fill:url(#dg);}.bt{fill:url(#dh);}.bu{fill:url(#di);}.bv{fill:url(#dj);}.bw{fill:url(#dk);}.bx{fill:url(#dl);}.by{fill:url(#do);}.bz{fill:url(#dq);}.ca{fill:url(#dr);}.cb{fill:url(#ds);}.cc{fill:url(#dv);}.cd{fill:url(#dw);}.ce{fill:url(#dx);}.cf{fill:url(#dy);}.cg{fill:#4c2e1e;}.ch{fill:url(#dz);}.ci{opacity:0.5;}.cj{fill:url(#ec);}.ck{fill:url(#ee);}.cl{fill:url(#ef);}.cm{fill:url(#eg);}</style><linearGradient id="a" x1="2.556" y1="14.193" x2="3.556" y2="14.193" gradientUnits="objectBoundingBox"><stop offset="0" stop-color="#ffb228"/><stop offset="1" stop-color="#ffc936"/></linearGradient><linearGradient id="b" x1="2.822" y1="15.613" x2="3.821" y2="15.613" gradientUnits="objectBoundingBox"><stop offset="0" stop-color="#ff9314"/><stop offset="1" stop-color="#ffc936"/></linearGradient><linearGradient id="c" x1="3.867" y1="21.215" x2="4.867" y2="21.215" xlink:href="#a"/><linearGradient id="d" y1="0.5" x2="1" y2="0.5" gradientUnits="objectBoundingBox"><stop offset="0" stop-color="#1e505e"/><stop offset="1" stop-color="#003147"/></linearGradient><linearGradient id="e" x1="0.5" y1="-1.852" x2="0.5" y2="0.982" gradientUnits="objectBoundingBox"><stop offset="0.204" stop-color="#00b8a7"/><stop offset="1" stop-color="#fff"/></linearGradient><linearGradient id="f" y1="0.5" x2="1" y2="0.5" gradientUnits="objectBoundingBox"><stop offset="0" stop-color="#daffff"/><stop offset="1" stop-color="#abd4e8"/></linearGradient><linearGradient id="g" y1="0.5" x2="1" y2="0.5" gradientUnits="objectBoundingBox"><stop offset="0" stop-color="#90bfb9"/><stop offset="1" stop-color="#77a4b6"/></linearGradient><linearGradient id="i" x1="0" y1="0.5" x2="1" y2="0.5" xlink:href="#g"/><linearGradient id="j" x1="0" y1="0.5" x2="1" y2="0.5" xlink:href="#g"/><linearGradient id="s" x1="0" y1="0.5" x2="1" y2="0.5" xlink:href="#g"/><linearGradient id="aa" x1="0.5" y1="36.741" x2="0.5" y2="-16.052" xlink:href="#g"/><linearGradient id="ac" x1="0.5" y1="6.511" x2="0.5" y2="-0.991" xlink:href="#g"/><linearGradient id="ad" x1="0.5" y1="-0.18" x2="0.5" y2="1.997" xlink:href="#f"/><linearGradient id="ah" x1="0.5" y1="0.029" x2="0.5" y2="0.947" gradientUnits="objectBoundingBox"><stop offset="0" stop-color="#fff"/><stop offset="1" stop-color="#fff" stop-opacity="0"/></linearGradient><linearGradient id="al" y1="0.5" x2="1" y2="0.5" gradientUnits="objectBoundingBox"><stop offset="0.005" stop-color="#8ae2c0"/><stop offset="1" stop-color="#cfe08f"/></linearGradient><linearGradient id="am" x1="0" y1="0.5" x2="1" y2="0.5" xlink:href="#a"/><linearGradient id="aq" x1="0.5" y1="-7.217" x2="0.5" y2="-2.649" gradientUnits="objectBoundingBox"><stop offset="0" stop-color="#ff7200"/><stop offset="1" stop-color="#ffc936"/></linearGradient><linearGradient id="ar" x1="0.5" y1="0.005" x2="0.5" y2="1.068" gradientUnits="objectBoundingBox"><stop offset="0" stop-color="#90bfd1"/><stop offset="1" stop-color="#77a4d1"/></linearGradient><linearGradient id="as" x1="-0.451" y1="0.5" x2="0.743" y2="0.5" xlink:href="#f"/><linearGradient id="au" x1="0" y1="0.5" x2="1" y2="0.5" xlink:href="#ar"/><linearGradient id="aw" x1="0.5" y1="3.699" x2="0.5" y2="-1.677" xlink:href="#f"/><linearGradient id="ax" x1="0.5" y1="4.634" x2="0.5" y2="-0.904" xlink:href="#f"/><linearGradient id="ay" x1="0.5" y1="1.388" x2="0.5" y2="-4.152" xlink:href="#f"/><linearGradient id="az" x1="0" y1="0.5" y2="0.5" xlink:href="#f"/><linearGradient id="ba" x1="0.5" y1="19.641" x2="0.5" y2="-22.573" xlink:href="#f"/><linearGradient id="bb" x1="0.5" y1="5.409" x2="0.5" y2="-2.022" xlink:href="#f"/><linearGradient id="bc" x1="0.5" y1="2.329" x2="0.5" y2="-5.1" xlink:href="#f"/><linearGradient id="bf" x1="2.859" y1="19.459" x2="3.858" y2="19.459" xlink:href="#a"/><linearGradient id="bg" x1="3.155" y1="21.427" x2="4.155" y2="21.427" xlink:href="#b"/><linearGradient id="bh" x1="4.325" y1="29.182" x2="5.324" y2="29.182" xlink:href="#a"/><linearGradient id="bi" x1="9.534" y1="-46.252" x2="10.534" y2="-46.252" xlink:href="#a"/><linearGradient id="bj" x1="10.523" y1="-51.104" x2="11.523" y2="-51.104" xlink:href="#b"/><linearGradient id="bk" x1="14.423" y1="-70.226" x2="15.423" y2="-70.226" xlink:href="#a"/><linearGradient id="bl" x1="17.419" y1="57.854" x2="18.419" y2="57.854" xlink:href="#a"/><linearGradient id="bm" x1="19.227" y1="63.803" x2="20.226" y2="63.803" xlink:href="#b"/><linearGradient id="bn" x1="26.352" y1="87.267" x2="27.352" y2="87.267" xlink:href="#a"/><linearGradient id="bo" x1="0.867" y1="-7.664" x2="1.867" y2="-7.664" xlink:href="#a"/><linearGradient id="bp" x1="0.957" y1="-8.511" x2="1.957" y2="-8.511" xlink:href="#b"/><linearGradient id="bq" x1="1.311" y1="-11.851" x2="2.311" y2="-11.851" xlink:href="#a"/><linearGradient id="br" x1="1.169" y1="-10.804" x2="2.169" y2="-10.804" xlink:href="#a"/><linearGradient id="bs" x1="1.29" y1="-11.976" x2="2.29" y2="-11.976" xlink:href="#b"/><linearGradient id="bt" x1="1.768" y1="-16.598" x2="2.768" y2="-16.598" xlink:href="#a"/><linearGradient id="bw" x1="0.5" y1="0.114" x2="0.5" y2="0.984" xlink:href="#d"/><linearGradient id="bx" x1="0.13" y1="-5.517" x2="1.412" y2="-4.999" xlink:href="#al"/><linearGradient id="ca" x1="0.5" y1="-4.986" x2="0.5" y2="3.555" xlink:href="#d"/><linearGradient id="cb" x1="0.5" y1="-8.547" x2="0.5" y2="1.126" xlink:href="#d"/><linearGradient id="cc" x1="0.5" y1="0.977" x2="0.5" y2="10.784" xlink:href="#d"/><linearGradient id="cd" x1="0.5" y1="-2.629" x2="0.5" y2="7.873" xlink:href="#d"/><linearGradient id="ce" x1="0" y1="0.5" x2="1" y2="0.5" xlink:href="#d"/><linearGradient id="cg" x1="0.5" y1="-0.045" x2="0.5" y2="1.02" xlink:href="#d"/><linearGradient id="ch" x1="-2.091" y1="-8.599" x2="-0.815" y2="-8.073" xlink:href="#al"/><linearGradient id="ck" x1="0.5" y1="-0.816" x2="0.5" y2="11.052" xlink:href="#d"/><linearGradient id="cl" x1="0.5" y1="-4.531" x2="0.5" y2="8.257" xlink:href="#d"/><linearGradient id="cm" x1="0.5" y1="-7.581" x2="0.5" y2="3.6" xlink:href="#d"/><linearGradient id="cn" x1="0.5" y1="-10.35" x2="0.5" y2="1.541" xlink:href="#d"/><linearGradient id="co" x1="0" y1="0.5" x2="1" y2="0.5" xlink:href="#d"/><linearGradient id="cp" x1="0" y1="0.5" x2="1" y2="0.5" xlink:href="#d"/><linearGradient id="cr" x1="0.5" y1="-0.04" x2="0.5" y2="1.138" xlink:href="#d"/><linearGradient id="cs" x1="-7.611" y1="-12.819" x2="-6.325" y2="-12.307" xlink:href="#al"/><linearGradient id="cv" x1="0.5" y1="-0.773" x2="0.5" y2="12.446" xlink:href="#d"/><linearGradient id="cw" x1="0.5" y1="-4.456" x2="0.5" y2="9.934" xlink:href="#d"/><linearGradient id="cx" x1="0.5" y1="-7.813" x2="0.5" y2="5.004" xlink:href="#d"/><linearGradient id="cy" x1="0.5" y1="-10.747" x2="0.5" y2="2.91" xlink:href="#d"/><linearGradient id="cz" x1="0" y1="0.5" x2="1" y2="0.5" xlink:href="#d"/><linearGradient id="da" x1="0" y1="0.5" x2="1" y2="0.5" xlink:href="#d"/><linearGradient id="dc" x1="0.569" y1="0.074" x2="0.417" y2="1.059" xlink:href="#d"/><linearGradient id="dd" x1="-3.59" y1="-10.187" x2="-2.456" y2="-9.618" xlink:href="#al"/><linearGradient id="dg" x1="1.285" y1="-3.452" x2="-0.539" y2="5.744" xlink:href="#d"/><linearGradient id="dh" x1="2.016" y1="-7.253" x2="0.093" y2="2.59" xlink:href="#d"/><linearGradient id="di" x1="0.625" y1="-0.161" x2="-1.189" y2="9.416" xlink:href="#d"/><linearGradient id="dj" x1="1.32" y1="-3.928" x2="-0.491" y2="5.848" xlink:href="#d"/><linearGradient id="dk" x1="0" y1="0.5" x2="1" y2="0.5" xlink:href="#d"/><linearGradient id="dl" x1="0" y1="0.5" x2="1" y2="0.5" xlink:href="#d"/><linearGradient id="do" x1="0.094" y1="0.307" x2="0.662" y2="0.856" gradientUnits="objectBoundingBox"><stop offset="0" stop-color="#fc9"/><stop offset="1" stop-color="#ffb383"/></linearGradient><linearGradient id="dq" x1="0.5" y1="0.025" x2="0.5" y2="2.163" xlink:href="#aq"/><linearGradient id="dr" x1="0.5" y1="-0.342" x2="0.5" y2="1.028" xlink:href="#aq"/><linearGradient id="ds" x1="0.5" y1="0.965" x2="0.5" y2="0.441" xlink:href="#do"/><linearGradient id="dv" x1="0.224" y1="0.05" x2="0.681" y2="0.775" xlink:href="#do"/><linearGradient id="dw" x1="0.5" y1="0.044" x2="0.5" y2="1.904" xlink:href="#aq"/><linearGradient id="dx" x1="0.493" y1="-0.213" x2="0.51" y2="1.516" xlink:href="#f"/><linearGradient id="dy" x1="0.517" y1="0.994" x2="0.498" y2="0.286" xlink:href="#do"/><linearGradient id="dz" x1="0.145" y1="0.054" x2="0.77" y2="0.79" xlink:href="#do"/><linearGradient id="ec" x1="2.694" y1="6.185" x2="0.057" y2="-0.271" gradientUnits="objectBoundingBox"><stop offset="0" stop-color="#fc9"/><stop offset="1" stop-color="#ff9e65"/></linearGradient><linearGradient id="ee" x1="0" y1="0.5" x2="1" y2="0.5" xlink:href="#d"/><linearGradient id="ef" x1="0" y1="0.5" x2="1" y2="0.5" xlink:href="#d"/><linearGradient id="eg" x1="1.653" y1="12.028" x2="0.091" y2="-3.597" xlink:href="#ec"/></defs><g transform="translate(-323.127 -126.578)"><g transform="translate(323.127 126.578)"><g transform="translate(155.788 73.168)"><circle class="a" cx="10.963" cy="10.963" r="10.963" transform="matrix(0.968, -0.25, 0.25, 0.968, 0, 5.488)"/><circle class="b" cx="9.933" cy="9.933" r="9.933" transform="translate(2.107 4.949) rotate(-8.226)"/><circle class="c" cx="7.247" cy="7.247" r="7.247" transform="matrix(0.976, -0.218, 0.218, 0.976, 4.704, 7.869)"/><g transform="translate(10.006 7.757)"><path class="d" d="M617.558,280.089l.477-1.285a3.96,3.96,0,0,1-1.739-1.283l.622-.739a3.616,3.616,0,0,0,1.63,1.228,1.426,1.426,0,0,0,1.976-.685c.26-.7-.076-1.317-.875-2.048-1.108-.991-1.693-1.874-1.282-2.981a2.226,2.226,0,0,1,2.682-1.336l.477-1.285.789.294-.459,1.234a3.612,3.612,0,0,1,1.488,1.059l-.63.722a3.281,3.281,0,0,0-1.442-1.028,1.237,1.237,0,0,0-1.755.593c-.245.662.1,1.167,1.039,2.036,1.112,1.021,1.527,1.928,1.107,3.061a2.361,2.361,0,0,1-2.813,1.417l-.491,1.323Z" transform="translate(-616.296 -269.675)"/></g></g><g transform="translate(10.562 48.662)"><rect class="e" width="151.505" height="90.852" rx="7.762"/><rect class="f" width="142.44" height="80.96" rx="2.135" transform="translate(4.532 4.946)"/><g transform="translate(24.29 6.423)"><g transform="translate(5.093 26.712)"><rect class="g" width="12.539" height="47.003" transform="translate(2.717 3.135)"/><rect class="h" width="17.973" height="6.27"/><rect class="h" width="17.973" height="6.27" transform="translate(0 46.501)"/><g transform="translate(4.784 9.858)"><path class="i" d="M403.684,322.205h0a1.463,1.463,0,0,1-1.463-1.462V290.112a1.463,1.463,0,0,1,1.463-1.463h0a1.463,1.463,0,0,1,1.462,1.463v30.631A1.463,1.463,0,0,1,403.684,322.205Z" transform="translate(-402.221 -288.649)"/><path class="j" d="M413.371,322.205h0a1.463,1.463,0,0,1-1.462-1.462V290.112a1.463,1.463,0,0,1,1.462-1.463h0a1.463,1.463,0,0,1,1.463,1.463v30.631A1.463,1.463,0,0,1,413.371,322.205Z" transform="translate(-406.43 -288.649)"/></g><g transform="translate(24.921)"><rect class="g" width="12.539" height="47.003" transform="translate(2.717 3.135)"/><rect class="h" width="17.973" height="6.27"/><rect class="h" width="17.973" height="6.27" transform="translate(0 46.501)"/><g transform="translate(4.784 9.858)"><path class="j" d="M447.751,322.205h0a1.463,1.463,0,0,1-1.462-1.462V290.112a1.463,1.463,0,0,1,1.462-1.463h0a1.463,1.463,0,0,1,1.463,1.463v30.631A1.463,1.463,0,0,1,447.751,322.205Z" transform="translate(-446.289 -288.649)"/><rect class="h" width="2.926" height="33.557" rx="1.463" transform="translate(5.479)"/></g></g><g transform="translate(49.843)"><rect class="g" width="12.539" height="47.003" transform="translate(2.717 3.135)"/><rect class="h" width="17.973" height="6.27"/><rect class="h" width="17.973" height="6.27" transform="translate(0 46.501)"/><g transform="translate(4.784 9.858)"><path class="k" d="M491.819,322.205h0a1.463,1.463,0,0,1-1.463-1.462V290.112a1.463,1.463,0,0,1,1.463-1.463h0a1.463,1.463,0,0,1,1.463,1.463v30.631A1.463,1.463,0,0,1,491.819,322.205Z" transform="translate(-490.356 -288.649)"/><path class="k" d="M501.507,322.205h0a1.463,1.463,0,0,1-1.463-1.462V290.112a1.463,1.463,0,0,1,1.463-1.463h0a1.463,1.463,0,0,1,1.463,1.463v30.631A1.463,1.463,0,0,1,501.507,322.205Z" transform="translate(-494.565 -288.649)"/></g></g><g transform="translate(74.764)"><rect class="g" width="12.539" height="47.003" transform="translate(2.717 3.135)"/><rect class="h" width="17.973" height="6.27"/><rect class="h" width="17.973" height="6.27" transform="translate(0 46.501)"/><g transform="translate(4.784 9.858)"><path class="k" d="M535.887,322.205h0a1.463,1.463,0,0,1-1.463-1.462V290.112a1.463,1.463,0,0,1,1.463-1.463h0a1.463,1.463,0,0,1,1.463,1.463v30.631A1.463,1.463,0,0,1,535.887,322.205Z" transform="translate(-534.424 -288.649)"/><path class="h" d="M545.575,322.205h0a1.463,1.463,0,0,1-1.463-1.462V290.112a1.463,1.463,0,0,1,1.463-1.463h0a1.463,1.463,0,0,1,1.463,1.463v30.631A1.463,1.463,0,0,1,545.575,322.205Z" transform="translate(-538.633 -288.649)"/></g></g></g><rect class="g" width="102.924" height="5.871" transform="translate(0 20.841)"/><rect class="l" width="102.924" height="1.875" transform="translate(0 20.841)"/><path class="g" d="M486.5,244.824H393.761v-6.37l46.368-14.471L486.5,238.454Z" transform="translate(-388.668 -223.983)"/><path class="m" d="M482.556,243.938H423.846v-4.033l29.355-9.161,29.355,9.161Z" transform="translate(-401.739 -226.92)"/><g transform="translate(39.544 9.489)"><path class="n" d="M459.991,244.619c0,1.19-1.02,1.768-2.491,1.768h-2.821l1.125-5.626h2.6c1.166,0,1.832.442,1.832,1.262a1.52,1.52,0,0,1-1,1.455A1.132,1.132,0,0,1,459.991,244.619Zm-1.044,0c0-.5-.37-.675-1.013-.675h-1.728l-.321,1.623h1.688C458.44,245.568,458.946,245.247,458.946,244.619Zm-2.267-3.037-.313,1.551h1.487c.78,0,1.286-.314,1.286-.933,0-.426-.353-.619-.972-.619Z" transform="translate(-454.679 -240.762)"/><path class="n" d="M468.84,245.086h-2.829l-.812,1.3h-1.117l3.657-5.626h1.036l1.4,5.626h-1.037Zm-.193-.82-.571-2.475-1.551,2.475Z" transform="translate(-458.764 -240.762)"/><path class="n" d="M482.245,240.762l-1.125,5.626h-.86l-2.307-3.938-.788,3.938h-1.037l1.125-5.626h.86l2.315,3.938.78-3.938Z" transform="translate(-463.998 -240.762)"/><path class="n" d="M490.8,243.382l2,3.006h-1.166l-1.6-2.371-1.069.932-.289,1.439h-1.037l1.125-5.626H489.8l-.571,2.845,3.271-2.845h1.318l-3.006,2.612Z" transform="translate(-468.998 -240.762)"/></g></g><path class="o" d="M391.916,280.077h-12.4l17.5-58.506h12.4Z" transform="translate(-358.189 -216.512)"/><path class="o" d="M413.281,280.077h-4.158l17.5-58.506h4.158Z" transform="translate(-371.051 -216.512)"/><path class="o" d="M498.148,280.077h-12.4l17.5-58.506h12.4Z" transform="translate(-404.344 -216.512)"/><path class="o" d="M522.722,280.077h-4.158l17.5-58.506h4.158Z" transform="translate(-418.601 -216.512)"/></g><g transform="translate(0 118.423)"><g transform="translate(0 0)"><rect class="p" width="49.54" height="30.448" rx="7.535" transform="translate(0 0)"/><path class="q" d="M372.667,339.595a3.612,3.612,0,0,0-3.612-3.613H326.739a3.612,3.612,0,0,0-3.612,3.613v3.829h49.54Z" transform="translate(-323.127 -335.982)"/><rect class="e" width="36.132" height="1.677" transform="translate(3.854 10.803)"/><rect class="e" width="36.132" height="1.677" transform="translate(3.854 14.386)"/><rect class="e" width="18.795" height="1.677" transform="translate(3.854 17.913)"/><path class="r" d="M389.313,374.588a3.967,3.967,0,1,1-3.967-3.967A3.967,3.967,0,0,1,389.313,374.588Z" transform="translate(-348.436 -351.032)"/><path class="s" d="M399.588,374.588a3.967,3.967,0,1,1-3.967-3.967A3.967,3.967,0,0,1,399.588,374.588Z" transform="translate(-352.9 -351.032)"/></g></g><g transform="translate(131.205 117.576)"><rect class="t" width="37.942" height="37.942" rx="4.377" transform="translate(11.096)"/><path class="u" d="M4.032,0H33.91a4.032,4.032,0,0,1,4.032,4.032V33.91a4.033,4.033,0,0,1-4.033,4.033H4.033A4.033,4.033,0,0,1,0,33.91V4.032A4.032,4.032,0,0,1,4.032,0Z"/><circle class="g" cx="12.698" cy="12.698" r="12.698" transform="translate(3.035 6.273)"/><circle class="v" cx="10.023" cy="10.023" r="10.023" transform="translate(5.71 8.948)"/><rect class="v" width="8.897" height="6.336" rx="2.771" transform="translate(23.983 15.803)"/><g transform="translate(7.607 10.845)"><path class="w" d="M583.587,365.929a2.736,2.736,0,1,1-2.736-2.737A2.736,2.736,0,0,1,583.587,365.929Z" transform="translate(-572.725 -357.802)"/><g transform="translate(7.875)"><path class="x" d="M582.76,357.488a.251.251,0,0,1-.251-.251v-3.325a.251.251,0,0,1,.5,0v3.325A.251.251,0,0,1,582.76,357.488Z" transform="translate(-582.509 -353.661)"/></g><g transform="translate(7.875 12.426)"><path class="y" d="M582.76,379.459a.251.251,0,0,1-.251-.251v-3.324a.251.251,0,0,1,.5,0v3.324A.251.251,0,0,1,582.76,379.459Z" transform="translate(-582.509 -375.633)"/></g><g transform="translate(12.425 7.875)"><path class="z" d="M594.131,368.088h-3.325a.251.251,0,0,1,0-.5h3.325a.251.251,0,0,1,0,.5Z" transform="translate(-590.555 -367.586)"/></g><g transform="translate(0 7.875)"><path class="aa" d="M572.159,368.088h-3.324a.251.251,0,0,1,0-.5h3.324a.251.251,0,0,1,0,.5Z" transform="translate(-568.584 -367.586)"/></g><g transform="translate(11.092 2.307)"><path class="ab" d="M588.449,360.593a.251.251,0,0,1-.177-.428l2.35-2.351a.251.251,0,0,1,.355.355l-2.351,2.351A.248.248,0,0,1,588.449,360.593Z" transform="translate(-588.199 -357.74)"/></g><g transform="translate(2.306 11.093)"><path class="ac" d="M572.913,376.13a.251.251,0,0,1-.178-.429l2.351-2.351a.251.251,0,0,1,.355.355l-2.351,2.351A.251.251,0,0,1,572.913,376.13Z" transform="translate(-572.662 -373.276)"/></g><g transform="translate(11.092 11.093)"><path class="ac" d="M590.8,376.13a.253.253,0,0,1-.178-.073l-2.35-2.351a.251.251,0,0,1,.355-.355l2.351,2.351a.251.251,0,0,1-.178.429Z" transform="translate(-588.199 -373.276)"/></g><g transform="translate(2.306 2.307)"><path class="ab" d="M575.264,360.593a.25.25,0,0,1-.178-.073l-2.351-2.351a.251.251,0,0,1,.355-.355l2.351,2.351a.251.251,0,0,1-.178.428Z" transform="translate(-572.662 -357.74)"/></g></g></g><g transform="translate(34.039 28.703)"><path class="ad" d="M394.919,184.8a5.9,5.9,0,1,1-4.136-7.254A5.9,5.9,0,0,1,394.919,184.8Z" transform="translate(-383.318 -177.333)"/><path class="ae" d="M394.81,185.078a5.349,5.349,0,1,1-3.748-6.571A5.35,5.35,0,0,1,394.81,185.078Z" transform="translate(-383.745 -177.76)"/><path class="af" d="M394.527,185.807a3.9,3.9,0,1,1-2.734-4.795A3.9,3.9,0,0,1,394.527,185.807Z" transform="translate(-384.856 -178.871)"/></g><g transform="translate(55.558)"><path class="ag" d="M428.8,128.817a3.9,3.9,0,1,1-5.195-1.865A3.9,3.9,0,0,1,428.8,128.817Z" transform="translate(-421.369 -126.578)"/><path class="ah" d="M428.753,129.256a3.536,3.536,0,1,1-4.707-1.69A3.536,3.536,0,0,1,428.753,129.256Z" transform="translate(-421.651 -126.86)"/><path class="ai" d="M428.623,130.4a2.58,2.58,0,1,1-3.434-1.233A2.58,2.58,0,0,1,428.623,130.4Z" transform="translate(-422.386 -127.595)"/></g><g transform="translate(102.899 1.161)"><path class="aj" d="M512.307,134.582a3.9,3.9,0,1,1-1.277-5.37A3.9,3.9,0,0,1,512.307,134.582Z" transform="translate(-505.08 -128.632)"/><path class="ak" d="M512.276,134.671a3.536,3.536,0,1,1-1.157-4.865A3.536,3.536,0,0,1,512.276,134.671Z" transform="translate(-505.362 -128.914)"/><path class="al" d="M512.2,134.9a2.58,2.58,0,1,1-.844-3.549A2.58,2.58,0,0,1,512.2,134.9Z" transform="translate(-506.097 -129.648)"/></g><g transform="translate(119.069 15.8)"><circle class="am" cx="12.582" cy="12.582" r="12.582" transform="translate(1.515 1.515)"/><circle class="an" cx="11.4" cy="11.4" r="11.4" transform="translate(0 21.919) rotate(-74.025)"/><circle class="ao" cx="8.317" cy="8.317" r="8.317" transform="translate(5.78 5.78)"/></g><g transform="translate(3.933 88.748)"><circle class="ap" cx="7.473" cy="7.473" r="7.473" transform="matrix(0.198, -0.98, 0.98, 0.198, 0, 14.651)"/><circle class="aq" cx="6.771" cy="6.771" r="6.771" transform="translate(2.031 2.031)"/><path class="ar" d="M346.694,294.307a4.94,4.94,0,1,1-5.815-3.873A4.94,4.94,0,0,1,346.694,294.307Z" transform="translate(-333.048 -286.475)"/></g><g transform="translate(145.79 41.788)"><path class="p" d="M606.089,200.471h-22.4a2.775,2.775,0,0,0-2.767,2.767V223.5a2.775,2.775,0,0,0,2.767,2.767h3.082v3.118l3.077-3.118h16.24a2.775,2.775,0,0,0,2.767-2.767V203.238A2.775,2.775,0,0,0,606.089,200.471Z" transform="translate(-580.923 -200.471)"/><g transform="translate(2.216 0.559)"><circle class="as" cx="8.317" cy="8.317" r="8.317" transform="translate(0 11.762) rotate(-45)"/></g><g transform="translate(8.868 7.524)"><path class="p" d="M600.723,216.693a3.8,3.8,0,0,1-.527,2.206,1.788,1.788,0,0,1-1.555.737,1.729,1.729,0,0,1-1.5-.763,3.784,3.784,0,0,1-.533-2.181q0-2.918,2.037-2.918a1.78,1.78,0,0,1,1.542.757A3.685,3.685,0,0,1,600.723,216.693Zm-2.873.013a4.076,4.076,0,0,0,.185,1.417.632.632,0,0,0,.607.466q.842,0,.843-1.883t-.843-1.884a.633.633,0,0,0-.607.466A4.079,4.079,0,0,0,597.849,216.706Zm7.055-2.8-5.178,9.335h-1.239l5.178-9.335Zm1.9,6.525a3.764,3.764,0,0,1-.53,2.2,1.787,1.787,0,0,1-1.546.735,1.74,1.74,0,0,1-1.507-.757,3.745,3.745,0,0,1-.536-2.181q0-2.918,2.043-2.918a1.779,1.779,0,0,1,1.529.753A3.65,3.65,0,0,1,606.8,220.434Zm-2.873,0a4.064,4.064,0,0,0,.188,1.424.639.639,0,0,0,.61.472q.836,0,.836-1.9,0-1.871-.836-1.871a.637.637,0,0,0-.61.46A3.952,3.952,0,0,0,603.928,220.434Z" transform="translate(-596.604 -213.775)"/></g></g><g transform="translate(44.126 69.261)"><path class="at" d="M429.433,295.894c-13.2-18.974-6.833-15.592-28.279-28.694,3.893-6.134,7.718-12.238,11.954-18.15,15.9,10.05,21.889,18.792,34.743,31.036C441.134,286.91,437.593,290.66,429.433,295.894Z" transform="translate(-401.154 -249.05)"/><path class="au" d="M432.725,295.137c-9.56-18.213-8.123-15.524-25.682-25.968,3.025-4.809,6.027-9.552,9.435-14.109,15.059,8.935,19.066,16.246,30.437,28A51.4,51.4,0,0,1,432.725,295.137Z" transform="translate(-403.713 -251.662)"/><g transform="translate(12.056 11.842)"><path class="e" d="M458.238,305.642a1.9,1.9,0,0,1-3.052-.874,3.249,3.249,0,0,1,.778-3.781,1.909,1.909,0,0,1,3.1.573A3.334,3.334,0,0,1,458.238,305.642Z" transform="translate(-436.559 -283.215)"/><path class="e" d="M427.631,273.708a2.99,2.99,0,0,1-3.773.687,2.14,2.14,0,0,1-.976-3.24,2.986,2.986,0,0,1,3.863-.777A2.2,2.2,0,0,1,427.631,273.708Z" transform="translate(-422.472 -269.99)"/></g><path class="av" d="M477.334,304.24c-.7.91-2.116,1.624-2.978.61a2.742,2.742,0,0,1,.318-3.428,1.84,1.84,0,0,1,2.807-.335C478.407,301.93,478.039,303.329,477.334,304.24Z" transform="translate(-432.751 -271.437)"/><path class="aw" d="M452.029,326.079a1.789,1.789,0,0,1-2.63-.74,2.235,2.235,0,0,1,.752-2.9,1.7,1.7,0,0,1,2.483.877A2.035,2.035,0,0,1,452.029,326.079Z" transform="translate(-422.007 -280.819)"/><path class="ax" d="M423.849,254.56a2.456,2.456,0,0,1-3.174.622,1.913,1.913,0,0,1-.6-2.866,2.369,2.369,0,0,1,3.141-.612A1.909,1.909,0,0,1,423.849,254.56Z" transform="translate(-409.2 -250.053)"/><path class="ay" d="M407.323,279.461a2.156,2.156,0,0,1-2.885.69,1.924,1.924,0,0,1-.717-2.711,1.976,1.976,0,0,1,2.752-.563A1.818,1.818,0,0,1,407.323,279.461Z" transform="translate(-402.143 -261.001)"/><g transform="translate(19.678 15.647)"><path class="az" d="M446.656,283.3a.618.618,0,0,0-.156.54,2.514,2.514,0,0,0,.342.819c.355-.422.713-.848,1.06-1.279a1.479,1.479,0,0,0-.729-.288A.559.559,0,0,0,446.656,283.3Z" transform="translate(-440.531 -279.488)"/><path class="e" d="M445.946,278.04c-2.492-2.524-6.264-1.066-8.254,1.309s-2.557,5.667-.192,7.784,5.467,1.785,7.754-.416S448.438,280.564,445.946,278.04Z" transform="translate(-435.95 -276.718)"/><path class="r" d="M3.56,2.243a1.916,1.916,0,0,1-.2.67,2.045,2.045,0,0,1-.388.526,2.208,2.208,0,0,1-.531.383,3.041,3.041,0,0,1-.616.239l2.54,3.348H3.157L1.275,4.91a2.947,2.947,0,0,0-.558-.6.867.867,0,0,0-.526-.186V3.348H.818A4.052,4.052,0,0,0,1.451,3.3,1.868,1.868,0,0,0,2,3.13,1.176,1.176,0,0,0,2.407,2.8a1.042,1.042,0,0,0,.2-.553H0l.319-.627H2.561a1.226,1.226,0,0,0-.415-.7A1.392,1.392,0,0,0,1.286.627H0L.319,0H4.985L4.666.627H3.114a1.78,1.78,0,0,1,.436.988H4.985l-.319.627Z" transform="translate(6.563 2.25) rotate(45)"/></g></g><g transform="translate(60.821 6.933)"><path class="ba" d="M461.121,150.547c-11.067,6.394-12.219,7.757-19.051,18.326-3.73-2.7-7.629-5.148-11.395-7.8,7.831-12.043,10.343-14.86,22.9-22.238C456.182,142.69,458.593,146.646,461.121,150.547Z" transform="translate(-430.675 -138.838)"/><path class="bb" d="M460.7,151.773c-9.877,4.819-11.876,7.313-17.258,16.586-2.888-2.082-5.878-4.007-8.785-6.061,6.468-10.576,8.928-13.579,20.068-19.593C456.838,145.656,458.725,148.731,460.7,151.773Z" transform="translate(-432.404 -140.519)"/><g transform="translate(7.594 7.609)"><path class="e" d="M467.263,153.033a1.368,1.368,0,0,1-.663,2.085,2.1,2.1,0,0,1-2.575-.446,1.374,1.374,0,0,1,.632-2.131A2.08,2.08,0,0,1,467.263,153.033Z" transform="translate(-452.628 -152.293)"/><path class="e" d="M446.314,172.325a1.968,1.968,0,0,1,.5,2.394,1.256,1.256,0,0,1-1.967.481,1.978,1.978,0,0,1-.531-2.441A1.245,1.245,0,0,1,446.314,172.325Z" transform="translate(-444.103 -160.851)"/></g><path class="bc" d="M470.177,140.955a1.251,1.251,0,0,1-.413,1.866,1.68,1.68,0,0,1-2.141-.437,1.228,1.228,0,0,1,.526-1.837A1.532,1.532,0,0,1,470.177,140.955Z" transform="translate(-446.627 -139.488)"/><path class="bd" d="M480.734,157.1a1.175,1.175,0,0,1-.432,1.727,1.478,1.478,0,0,1-1.906-.472,1.171,1.171,0,0,1,.531-1.674A1.333,1.333,0,0,1,480.734,157.1Z" transform="translate(-451.33 -146.509)"/><path class="be" d="M434.322,175.058a1.464,1.464,0,0,1,.42,2,1.324,1.324,0,0,1-1.913.347,1.435,1.435,0,0,1-.4-1.97A1.309,1.309,0,0,1,434.322,175.058Z" transform="translate(-431.337 -154.465)"/><path class="bf" d="M449.872,185.936a1.418,1.418,0,0,1,.4,1.862,1.154,1.154,0,0,1-1.72.336,1.383,1.383,0,0,1-.347-1.85A1.1,1.1,0,0,1,449.872,185.936Z" transform="translate(-438.198 -159.194)"/><g transform="translate(9.624 10.015)"><path class="bg" d="M454.976,163.632c.316.3.635.6.953.9.212-.291.31-.584.042-.86a.523.523,0,0,0-.4-.171A1.763,1.763,0,0,0,454.976,163.632Z" transform="translate(-450.857 -159.568)"/><path class="bh" d="M451.6,162.5a.4.4,0,0,0,.329.148,1.3,1.3,0,0,0,.485-.166c-.227-.267-.459-.533-.689-.8a1.151,1.151,0,0,0-.216.46A.4.4,0,0,0,451.6,162.5Z" transform="translate(-449.348 -158.777)"/><path class="e" d="M448.559,157.434c-1.675,1.7-.661,4.246.841,5.634s3.732,2.163,5.311.667.81-3.954-.534-5.474S450.234,155.733,448.559,157.434Z" transform="translate(-447.693 -156.548)"/><path class="r" d="M2.248,1.416a1.21,1.21,0,0,1-.124.423,1.291,1.291,0,0,1-.245.332,1.394,1.394,0,0,1-.336.242,1.92,1.92,0,0,1-.389.151l1.6,2.114H1.993L.805,3.1a1.861,1.861,0,0,0-.352-.379A.548.548,0,0,0,.121,2.6v-.49h.4a2.558,2.558,0,0,0,.4-.03,1.179,1.179,0,0,0,.346-.107.742.742,0,0,0,.258-.211.658.658,0,0,0,.124-.349H0l.2-.4H1.617A.774.774,0,0,0,1.356.577.879.879,0,0,0,.812.4H0L.2,0H3.147l-.2.4h-.98a1.124,1.124,0,0,1,.275.624h.906l-.2.4Z" transform="translate(1.47 3.675) rotate(-45)"/></g></g><g transform="translate(101.912 105.414)"><path class="bi" d="M523.474,320.749c-7.374,4.457-7.719,5.78-12.417,12.7-2.609-1.747-5.188-3.518-7.721-5.375,5.314-7.266,7.123-9.821,14.653-15.094C519.909,315.514,521.713,318.1,523.474,320.749Z" transform="translate(-503.336 -312.979)"/><path class="bj" d="M523.17,321.608c-6.569,3.554-7.459,5.327-11.2,11.562-2.035-1.356-4.011-2.773-5.994-4.2,4.282-6.645,6.214-8.991,12.895-13.348C520.4,317.544,521.78,319.578,523.17,321.608Z" transform="translate(-504.481 -314.126)"/><g transform="translate(5.195 5.155)"><path class="e" d="M527.513,322.568a.876.876,0,0,1-.342,1.37,1.356,1.356,0,0,1-1.669-.272.879.879,0,0,1,.31-1.4A1.35,1.35,0,0,1,527.513,322.568Z" transform="translate(-518.063 -322.094)"/><path class="az" d="M514.092,335.926a1.363,1.363,0,0,1,.314,1.676.9.9,0,0,1-1.387.383,1.325,1.325,0,0,1-.329-1.69A.9.9,0,0,1,514.092,335.926Z" transform="translate(-512.522 -328.014)"/></g><path class="bk" d="M528.781,314.405a.854.854,0,0,1-.189,1.263,1.023,1.023,0,0,1-1.371-.227.84.84,0,0,1,.229-1.251A.962.962,0,0,1,528.781,314.405Z" transform="translate(-513.632 -313.429)"/><path class="bl" d="M536.431,325.119a.8.8,0,0,1-.275,1.158.95.95,0,0,1-1.249-.3.764.764,0,0,1,.291-1.124A.91.91,0,0,1,536.431,325.119Z" transform="translate(-516.992 -318.082)"/><path class="bm" d="M505.782,337.686a.986.986,0,0,1,.24,1.335.883.883,0,0,1-1.275.185.893.893,0,0,1-.209-1.264A.856.856,0,0,1,505.782,337.686Z" transform="translate(-503.783 -323.639)"/><path class="bn" d="M516.354,345.215a.907.907,0,0,1,.257,1.233.86.86,0,1,1-1.429-.959A.829.829,0,0,1,516.354,345.215Z" transform="translate(-508.417 -326.924)"/><g transform="translate(6.666 6.834)"><path class="bo" d="M520.127,329.515c.2.189.4.387.595.575a.486.486,0,0,0,.023-.577c-.121-.125-.132-.1-.261-.116A.65.65,0,0,0,520.127,329.515Z" transform="translate(-517.297 -326.946)"/><path class="bp" d="M517.858,328.94a.247.247,0,0,0,.217.08,1.1,1.1,0,0,0,.346-.109c-.173-.16-.338-.333-.5-.5a.648.648,0,0,0-.137.3A.266.266,0,0,0,517.858,328.94Z" transform="translate(-516.277 -326.518)"/><path class="e" d="M515.674,325.693c-1.1,1.126-.381,2.849.629,3.741s2.591,1.357,3.539.256.448-2.6-.5-3.592S516.771,324.568,515.674,325.693Z" transform="translate(-515.123 -325.064)"/><path class="r" d="M1.394.878a.75.75,0,0,1-.077.262.8.8,0,0,1-.152.206.865.865,0,0,1-.208.15,1.191,1.191,0,0,1-.241.094L1.711,2.9H1.236L.5,1.923a1.154,1.154,0,0,0-.219-.235.34.34,0,0,0-.206-.073v-.3H.32a1.587,1.587,0,0,0,.248-.019.731.731,0,0,0,.214-.067.46.46,0,0,0,.16-.131A.408.408,0,0,0,1.02.878H0L.125.633H1A.48.48,0,0,0,.841.358.545.545,0,0,0,.5.246H0L.125,0H1.952L1.827.246H1.22A.7.7,0,0,1,1.39.633h.562L1.827.878Z" transform="translate(1.021 2.545) rotate(-45)"/></g></g><g transform="translate(151.897 22.527)"><path class="bq" d="M606.44,183.682c-5.159-4.284-9.052-6.071-14.718-9.391q2.219-3.937,4.429-7.88c5.6,3.384,11.136,5.862,16.21,10.075C610.475,178.959,608.385,181.258,606.44,183.682Z" transform="translate(-591.722 -166.411)"/><path class="br" d="M607.351,183.363c-4.1-3.708-8.364-5.651-13.156-8.314,1.155-2.035,2.295-4.078,3.441-6.118,4.953,2.991,9.955,4.934,14.359,8.79C610.524,179.665,608.871,181.459,607.351,183.363Z" transform="translate(-592.796 -167.505)"/><g transform="translate(4.805 5.071)"><path class="e" d="M617.658,185.64a.884.884,0,0,1-1.375.15,1.215,1.215,0,0,1-.062-1.569.88.88,0,0,1,1.376-.161A1.184,1.184,0,0,1,617.658,185.64Z" transform="translate(-607.059 -179.036)"/><path class="e" d="M602.182,176.944a1.052,1.052,0,0,1-1.424.368,1.029,1.029,0,1,1,1.021-1.785A1.021,1.021,0,0,1,602.182,176.944Z" transform="translate(-600.218 -175.377)"/></g><path class="bs" d="M625.678,184.333a.822.822,0,0,1-1.223.152.964.964,0,0,1-.105-1.3.792.792,0,0,1,1.193-.131A.929.929,0,0,1,625.678,184.333Z" transform="translate(-605.811 -173.551)"/><path class="bt" d="M617.458,193.973a.789.789,0,0,1-1.163.109.88.88,0,0,1-.077-1.211.756.756,0,0,1,1.131-.1A.876.876,0,0,1,617.458,193.973Z" transform="translate(-602.276 -177.773)"/><path class="bu" d="M600.362,168.338a.823.823,0,0,1-1.173.305.887.887,0,0,1-.323-1.209.824.824,0,0,1,1.173-.305A.887.887,0,0,1,600.362,168.338Z" transform="translate(-594.774 -166.666)"/><path class="bv" d="M594.28,179.135a.846.846,0,0,1-1.176.329.863.863,0,0,1-.325-1.193.83.83,0,0,1,1.171-.3A.844.844,0,0,1,594.28,179.135Z" transform="translate(-592.13 -171.378)"/><g transform="translate(8.051 5.622)"><path class="bw" d="M610.037,181.307c-.141.217-.283.439-.417.653a.515.515,0,0,0,.562-.13c.092-.133.065-.136.048-.248S610.1,181.394,610.037,181.307Z" transform="translate(-607.55 -178.505)"/><path class="bx" d="M610.164,179.124a.243.243,0,0,0-.04.223.714.714,0,0,0,.19.258c.133-.206.264-.415.393-.623a.76.76,0,0,0-.332-.007A.331.331,0,0,0,610.164,179.124Z" transform="translate(-607.764 -177.485)"/><path class="e" d="M609.944,176.524c-1.358-.606-2.812.51-3.473,1.591s-.838,2.551.437,3.178,2.728-.415,3.462-1.491S611.3,177.129,609.944,176.524Z" transform="translate(-605.959 -176.353)"/><path class="r" d="M1.394.878a.75.75,0,0,1-.077.262.8.8,0,0,1-.152.206.865.865,0,0,1-.208.15,1.191,1.191,0,0,1-.241.094L1.711,2.9H1.236L.5,1.923a1.154,1.154,0,0,0-.219-.235.34.34,0,0,0-.206-.073v-.3H.32a1.587,1.587,0,0,0,.248-.019.731.731,0,0,0,.214-.067.46.46,0,0,0,.16-.131A.408.408,0,0,0,1.02.878H0L.125.633H1A.48.48,0,0,0,.841.358.545.545,0,0,0,.5.246H0L.125,0H1.952L1.827.246H1.22A.7.7,0,0,1,1.39.633h.562L1.827.878Z" transform="translate(2.144 0.973) rotate(30)"/></g></g><g transform="translate(122.66 74.639)"><path class="e" d="M596.58,321.834s1.509,7.154-1.761,7.154h-25.23l4.759-4.595Z" transform="translate(-552.869 -286.051)"/><g transform="translate(5.787 38.631)"><g transform="translate(0 17.287)"><path class="by" d="M550.5,360.131l2.011-2.694,1.587,2.807-1.651,1.72-2.195.433Z" transform="translate(-550.256 -357.437)"/></g><path class="e" d="M566.445,335.252c-2.946,2.308-11.728,13.112-11.728,13.112s-3.353-.731-3.3-3.759c0,0,9.794-13.326,12.733-16.245s5.364-.781,5.92-.014S570.109,332.381,566.445,335.252Z" transform="translate(-550.76 -326.87)"/></g><path class="bz" d="M587.694,284.192a1.578,1.578,0,0,1,.556.828,1.793,1.793,0,0,1-.031,1.116c-.348.95-.838,2.442-1.361,4.015a53.233,53.233,0,0,1-2.366,6.326c-.131.242.8,1.794.182,2.331-.015.018-1.089,5.219-1.108,5.234s-.616.41-.624.412a1.972,1.972,0,0,1-1.38.032c-.394-.247-10.5,1.146-10.405,1.069,4.832-3.9,8.638-5.888,8.97-6.29.651-.789,1.918-9.806,2.437-11.558a7.107,7.107,0,0,1,1.352-2.538,6.622,6.622,0,0,1,1.859-1.266C586.6,283.443,586.959,283.619,587.694,284.192Z" transform="translate(-553.55 -269.457)"/><path class="ca" d="M607.432,296.52a7.292,7.292,0,0,0-.327,4.206c.619,2.788-.086,2.975-.086,2.975a16.992,16.992,0,0,1-6.627,2.676c-2.931.312-5.405.5-5.352-1.986l.94.749c0-.151.008-.3.011-.436.106-5.59-1.059-5.874-1.346-12.132-.3-6.42-1.858-7.272-.452-9.095,2.081-2.7,7.6-4.068,11.969-3.034,3.283.773,4.365,1.645,4.339,4.075a19.094,19.094,0,0,1-.353,2.991A54,54,0,0,1,607.432,296.52Z" transform="translate(-563.307 -267.918)"/><g transform="translate(35.248 9.135)"><path class="cb" d="M607.282,274.712c-1.344.9-2.211,1.622-3.947,1.622l-.563-.026a.4.4,0,0,0-.415.465l.835,5.189a.4.4,0,0,0,.6.279l.95-.577a6.041,6.041,0,0,0,2.005-1.992l.307-.5a1.316,1.316,0,0,0,.192-.771l-.165-2.6a.346.346,0,0,0-.034-.123A.823.823,0,0,1,607.282,274.712Z" transform="translate(-602.352 -274.712)"/></g><g transform="translate(24.871 36.168)"><path class="v" d="M600.016,325.175,584,322.514l9.3,3.47Z" transform="translate(-584.001 -322.514)"/><path class="v" d="M600.344,328.4l6.7-.625.05-.551-6.807.641Z" transform="translate(-591.075 -324.558)"/></g><path class="cc" d="M599.383,320.485l-1.271.7a2.191,2.191,0,0,0-2.5.076c-1.245.943.257,3.605,1.18,3.339a22.483,22.483,0,0,0,3.616-2.262Z" transform="translate(-563.97 -285.465)"/><path class="cd" d="M609.107,304.572c-2.373,1.567-5.694,3.272-5.694,3.272l-.218-.35a3.077,3.077,0,0,1-1.565-1.685,9.828,9.828,0,0,1-.116-1.758s5.943-2.97,7.769-4.981c.886-.978.966-1.8,1.813-2.2-.026-.065-.05-.128-.075-.2-.927-2.644-.884-6.427-1.266-8.345a6.074,6.074,0,0,1,.074-2.752,5.265,5.265,0,0,1,.783-1.674,2.285,2.285,0,0,1,2.364-1.189,1.916,1.916,0,0,1,.964.558,2,2,0,0,1,.529,1.1c.378,2.78,1.575,10.389,1.519,12.094a3.139,3.139,0,0,1-.135.821,2.665,2.665,0,0,1-.076.268C614.911,299.965,611.188,303.2,609.107,304.572Z" transform="translate(-566.739 -269.03)"/><g transform="translate(15.602 25.143)"><path class="ce" d="M586.149,317.882,569.935,316.4a1.147,1.147,0,0,1-1.035-1.013l-1.281-11.294a.963.963,0,0,1,1.044-1.067l15.186,1.39a.964.964,0,0,1,.869.851Z" transform="translate(-567.612 -303.02)"/></g><g transform="translate(30.69 2.054)"><path class="cf" d="M604.927,267.583a8.476,8.476,0,0,1,.036,1.634,1.347,1.347,0,0,1-.029.176,1.47,1.47,0,0,1-.039.178c-.467,1.848-2.806,4.455-4.448,4.666a4.368,4.368,0,0,1-.636.012c-2.288-.1-3.624-1.98-4.4-3.975-.027-.072-.052-.14-.078-.207a18.347,18.347,0,0,1-.963-4.426c-.014-.158-.017-.247-.017-.247a3.4,3.4,0,0,1,.052-1.531c.023-.082.038-.123.038-.123l.078-.022c.634-.2,4.948-1.517,5.042-1.525s4.44.3,4.44.3A46.752,46.752,0,0,1,604.927,267.583Z" transform="translate(-594.292 -262.192)"/><path class="cg" d="M605.924,266.807" transform="translate(-599.346 -264.197)"/></g><g transform="translate(27.328 63.541)"><path class="ch" d="M588.346,374.187l.869-3.271,3.163.749-1.288,2.9-1.28.605Z" transform="translate(-588.346 -370.917)"/></g><path class="e" d="M588,353.973s.839-9.629.693-14.139-1.116-8.758,2.759-8.758c3.714,0,4.81,5.169,4.394,9.426s-1.953,14.28-1.953,14.28S589.68,356.873,588,353.973Z" transform="translate(-560.87 -290.066)"/><path class="ci" d="M582.176,314.424a1.138,1.138,0,1,1-1.728-.139A1.234,1.234,0,0,1,582.176,314.424Z" transform="translate(-557.46 -282.644)"/><g transform="translate(33.611 8.881)"><path class="cj" d="M600,276.674a.619.619,0,0,1-.2-.03.439.439,0,0,1-.267-.239.617.617,0,0,1,.227-.778,8.072,8.072,0,0,0-.3-1.166.148.148,0,0,1,.09-.19.146.146,0,0,1,.19.09,8.13,8.13,0,0,1,.327,1.314.149.149,0,0,1-.078.155c-.032.017-.312.179-.188.45a.139.139,0,0,0,.09.081,1.086,1.086,0,0,0,.653-.15.149.149,0,0,1,.141.262A1.688,1.688,0,0,1,600,276.674Z" transform="translate(-599.456 -274.263)"/></g><path class="e" d="M601.916,269.78a7.4,7.4,0,0,0,.064-2.461,3.05,3.05,0,0,0,.24-1.933c-.254-.974-1.27-.861-1.482.339a6.284,6.284,0,0,1-1.457-2.018,20.2,20.2,0,0,1-5.894,1.876,2.947,2.947,0,0,1-2.746-1.231c-.334-.474-.713-1.569-1.225-2.2a13.023,13.023,0,0,1,5.628-3.41,10.273,10.273,0,0,1,5.384.461,1.91,1.91,0,0,1,1.728.2c.8.692.877,4.916.941,6.872A4.877,4.877,0,0,1,601.916,269.78Z" transform="translate(-561.483 -258.559)"/><path class="ck" d="M602.073,271.852c-.559.163-.26,1.511.352,1.316S602.675,271.677,602.073,271.852Z" transform="translate(-566.854 -264.328)"/><path class="cl" d="M596.776,273.11c-.522.173-.208,1.492.364,1.286S597.339,272.922,596.776,273.11Z" transform="translate(-564.565 -264.873)"/><g transform="translate(34.183 11.656)"><path class="cm" d="M601.042,280.167a4.352,4.352,0,0,1-.442-.022.148.148,0,0,1-.132-.164.143.143,0,0,1,.164-.132,3.193,3.193,0,0,0,.99-.044,2.435,2.435,0,0,0,.8-.586.149.149,0,1,1,.218.2,2.759,2.759,0,0,1-.936.67A2.438,2.438,0,0,1,601.042,280.167Z" transform="translate(-600.467 -279.171)"/></g><path class="r" d="M603.932,279.256" transform="translate(-567.79 -267.552)"/><path class="e" d="M548.069,362.29a3.05,3.05,0,0,1-2.011-1.755s-2.562-1.576-3.419-2.051-2.616.666-2.616.666l4.789,4.431h.555l-.063.381.888.872A4.615,4.615,0,0,0,548.069,362.29Z" transform="translate(-540.023 -301.924)"/><path class="e" d="M586.572,376.425a3.049,3.049,0,0,1-2.555-.77s-2.984-.38-3.96-.46-2.109,1.685-2.109,1.685l6.19,2.064.506-.229.1.373,1.168.429A4.614,4.614,0,0,0,586.572,376.425Z" transform="translate(-556.5 -309.234)"/></g></g></g></svg>