<svg xmlns="http://www.w3.org/2000/svg" width="24" height="24" viewBox="0 0 24 24"><defs><style>.a,.b{fill:#127ede;}.b{font-size:10px;font-family:RupeeForadian, Rupee Foradian;}</style></defs><path class="a" d="M23.3,8.907a.7.7,0,0,0,.7-.7V5.391a.7.7,0,0,0-.434-.649L12.269.054a.7.7,0,0,0-.539,0L.434,4.742A.7.7,0,0,0,0,5.391V8.2a.7.7,0,0,0,.7.7H1.922v7.969H1.687a.7.7,0,0,0-.7.7v2.109H.7a.7.7,0,0,0-.7.7V23.3a.7.7,0,0,0,.7.7H23.3a.7.7,0,0,0,.7-.7V20.391a.7.7,0,0,0-.7-.7h-.281V17.579a.7.7,0,0,0-.7-.7h-.234V8.907Zm-.7,12.188v1.5H1.406v-1.5ZM5.672,18.282v1.406H2.391V18.282ZM3.328,16.876V8.907H4.734v7.969Zm3.047,0H6.141V8.907H17.859v7.969h-.234a.7.7,0,0,0-.7.7v2.109H7.078V17.579A.7.7,0,0,0,6.375,16.876Zm15.234,1.406v1.406H18.328V18.282Zm-2.344-1.406V8.907h1.406v7.969ZM1.406,7.5V5.861L12,1.465l10.594,4.4V7.5Z" transform="translate(0 -0.001)"/><path class="a" d="M160.141,100H151.7a.7.7,0,0,0,0,1.406h8.438a.7.7,0,0,0,0-1.406Z" transform="translate(-143.922 -95.313)"/><text class="b" transform="translate(9.793 18.2)"><tspan x="0" y="0">`</tspan></text></svg>