<svg xmlns="http://www.w3.org/2000/svg" width="72.425" height="75.135" viewBox="0 0 72.425 75.135"><defs><style>.a{fill:#efefef;}</style></defs><g transform="translate(-3.607 -2.545)"><path class="a" d="M46.207,34.225A1.274,1.274,0,0,0,44.932,35.5v1.226a1.275,1.275,0,0,0,2.551,0V35.5A1.275,1.275,0,0,0,46.207,34.225Z" transform="translate(11.382 8.726)"/><path class="a" d="M7.848,58.975H43.612a1.275,1.275,0,0,0,0-2.551H40.371v-24.4h7.015V50.31a1.275,1.275,0,1,0,2.551,0V32.028h6.377v7.128a1.275,1.275,0,1,0,2.551,0V32.028h2.964A3.825,3.825,0,0,0,64.07,25.1L38.458,6.569V3.82a1.275,1.275,0,1,0-2.551,0V4.93a3.92,3.92,0,0,0-2.551,0V3.82a1.275,1.275,0,0,0-2.551,0V6.569L5.192,25.1a3.826,3.826,0,0,0,2.242,6.926H10.4v24.4H7.848a3.831,3.831,0,0,0-3.826,3.826v6.214a3.831,3.831,0,0,0,3.826,3.826H43.532a1.275,1.275,0,0,0,0-2.551H7.848a1.277,1.277,0,0,1-1.275-1.275V60.249a1.276,1.276,0,0,1,1.275-1.274ZM28.892,32.028v24.4H21.877v-24.4Zm8.928,24.4H31.443v-24.4H37.82ZM6.22,28.594a1.273,1.273,0,0,1,.467-1.427l24.321-17.6a1.257,1.257,0,0,0,1.073.626,1.276,1.276,0,0,0,1.275-1.275V7.872l.531-.384a1.27,1.27,0,0,1,1.492,0l.528.381V8.921A1.276,1.276,0,0,0,37.183,10.2a1.256,1.256,0,0,0,1.073-.628l24.321,17.6a1.274,1.274,0,0,1-.747,2.307H7.435a1.266,1.266,0,0,1-1.214-.88Zm6.729,3.433h6.377v24.4H12.95Z" transform="translate(0 0)"/><path class="a" d="M56.885,45.379a1.274,1.274,0,0,0-1.8,0L50.6,49.859l-4.482-4.481a1.275,1.275,0,0,0-1.8,1.8L48.8,51.663l-4.482,4.481a1.275,1.275,0,1,0,1.8,1.8L50.6,53.466l4.482,4.481a1.275,1.275,0,1,0,1.8-1.8L52.4,51.663l4.482-4.481A1.276,1.276,0,0,0,56.885,45.379Z" transform="translate(11.109 11.695)"/><path class="a" d="M62.384,43.187a14.33,14.33,0,1,0,4.194,10.129,14.233,14.233,0,0,0-4.194-10.129Zm-1.8,18.457a11.772,11.772,0,1,1,0-16.653A11.7,11.7,0,0,1,60.581,61.644Z" transform="translate(9.454 10.039)"/></g></svg>