<svg xmlns="http://www.w3.org/2000/svg" width="19.057" height="19.057" viewBox="0 0 19.057 19.057"><defs><style>.a{fill:#fff;}</style></defs><g transform="translate(0 -0.001)"><path class="a" d="M17.382,7.854a.558.558,0,0,0,.395-.164,4.33,4.33,0,0,0,1.28-2.628.561.561,0,0,0-.308-.5L9.779.06a.558.558,0,0,0-.5,0l-8.97,4.5a.561.561,0,0,0-.308.5A4.33,4.33,0,0,0,1.28,7.69a.565.565,0,0,0,.395.164h.558v7.854H1.675a.558.558,0,0,0-.395.164A4.33,4.33,0,0,0,0,18.5a.558.558,0,0,0,.558.558H18.5a.558.558,0,0,0,.558-.558,4.33,4.33,0,0,0-1.28-2.628.558.558,0,0,0-.395-.164h-.558V7.854ZM9.529,1.184,16.142,4.5H2.915Zm7.608,15.641a4.009,4.009,0,0,1,.69,1.117H1.23a4.01,4.01,0,0,1,.69-1.117ZM3.35,15.708V7.854H4.467v7.854Zm2.233,0V7.854h2.27v7.854Zm3.387,0V7.854h1.117v7.854Zm2.233,0V7.854h2.27v7.854Zm3.387,0V7.854h1.117v7.854ZM1.92,6.737A4.006,4.006,0,0,1,1.23,5.62h16.6a4,4,0,0,1-.69,1.117Z"/></g></svg>