<svg xmlns="http://www.w3.org/2000/svg" width="60" height="60" viewBox="0 0 60 60">
  <g id="bill-pay" transform="translate(12848 -12879)">
    <g id="Group_39984" data-name="Group 39984">
      <g id="Group_39997" data-name="Group 39997" opacity="0">
        <rect id="Rectangle_18667" data-name="Rectangle 18667" width="60" height="60" transform="translate(-12848 12879)" fill="#e6e6e6"/>
        <rect id="Rectangle_18668" data-name="Rectangle 18668" width="52" height="52" transform="translate(-12844 12883)" fill="#7c0000" opacity="0.134"/>
      </g>
    </g>
    <g id="Group_39986" data-name="Group 39986" transform="translate(-13183.869 12692.298)">
      <path id="Path_43244" data-name="Path 43244" d="M367.9,199.632h9.072a16.58,16.58,0,0,1,2.945.255,7.391,7.391,0,0,1,2.508.908,4.842,4.842,0,0,1,1.744,1.818,6.03,6.03,0,0,1,.655,2.979q0,3.275-1.962,4.727a32.641,32.641,0,0,1,8.506,2.618,10.548,10.548,0,0,0,4.5-9.308,13.937,13.937,0,0,0-1.2-6.1,9.986,9.986,0,0,0-3.381-3.961,14.633,14.633,0,0,0-5.233-2.143,32.409,32.409,0,0,0-6.761-.654H367.9Z" transform="translate(-10.48)" fill="#fdb933"/>
      <path id="Path_43245" data-name="Path 43245" d="M367.37,211.771H355.812V199.632h0v-8.868H344.4v51.9h25.151a26.528,26.528,0,0,0,6.8-.872,18.152,18.152,0,0,0,5.886-2.689,13.266,13.266,0,0,0,4.108-4.687,14.3,14.3,0,0,0,1.526-6.8,14.953,14.953,0,0,0-2.362-8.322c-2.925-4.528-9.267-7.522-18.136-7.522m8.4,18.535a5.468,5.468,0,0,1-1.854,2.072,7.887,7.887,0,0,1-2.69,1.091,15.377,15.377,0,0,1-3.2.326H355.812V219.548h12.43a9.641,9.641,0,0,1,5.962,1.708q2.251,1.708,2.251,5.707a7.127,7.127,0,0,1-.689,3.342" transform="translate(0)" fill="#f47920"/>
    </g>
  </g>
</svg>
