<svg xmlns="http://www.w3.org/2000/svg"  viewBox="0 0 14.902 19.564"><defs><style>.a{fill:#127ede;}</style></defs><g transform="translate(-0.332 -0.436)"><g transform="translate(0.332 0.436)"><path class="a" d="M75.647,13.623l-.891-.594V7.871a6.313,6.313,0,0,0-5.732-6.279V.573a.573.573,0,0,0-1.146,0v1.02a6.313,6.313,0,0,0-5.732,6.279v5.157l-.891.594A.573.573,0,0,0,61,14.1v2.293a.573.573,0,0,0,.573.573h3.778a3.148,3.148,0,0,0,6.2,0h3.778a.573.573,0,0,0,.573-.573V14.1A.573.573,0,0,0,75.647,13.623Zm-7.2,4.795a2.013,2.013,0,0,1-1.924-1.452h3.849A2.013,2.013,0,0,1,68.451,18.418Zm6.3-2.6H62.146V14.407l.891-.594a.573.573,0,0,0,.255-.477V7.871a5.158,5.158,0,1,1,10.317,0v5.464a.573.573,0,0,0,.255.477l.891.594Z" transform="translate(-61)"/></g></g></svg>