<?xml version="1.0" encoding="utf-8"?>
<!-- Generator: Adobe Illustrator 23.0.1, SVG Export Plug-In . SVG Version: 6.00 Build 0)  -->
<svg version="1.1" id="Layer_1" xmlns="http://www.w3.org/2000/svg" xmlns:xlink="http://www.w3.org/1999/xlink" x="0px" y="0px"
	 viewBox="0 0 18 18" style="enable-background:new 0 0 18 18;" xml:space="preserve">
<style type="text/css">
	.st0{display:none;fill:#007C3D;}
	.st1{fill:#007C3D;fill-opacity:0;}
	.st2{fill:#007C3D;}
</style>
<path class="st0" d="M13.5,9c-0.8,0-1.6,0.2-2.3,0.6l-0.7-0.3c-0.2-0.1-0.4-0.3-0.4-0.5V8.4l0,0c1-0.3,1.6-1.2,1.6-2.2V3.9
	c0-2.2-1.8-3.9-4-3.9C5.7,0.1,4,1.8,3.9,3.9v2.2c0,1,0.7,1.9,1.7,2.2v0.4c0,0.2-0.1,0.4-0.4,0.5l-3.5,1.4c-1,0.5-1.7,1.6-1.7,2.7
	v1.8c0,0.6,0.5,1.1,1.1,1.1H10c1.6,1.9,4.4,2.2,6.3,0.7s2.2-4.4,0.7-6.3C16.1,9.6,14.8,9,13.5,9L13.5,9z M1.1,15.2v-1.8
	c0-0.7,0.4-1.3,1.1-1.6l3.5-1.4c0.6-0.3,1.1-0.9,1.1-1.6V8.4c0-0.5-0.4-1-0.9-1.1C5.4,7.1,5.1,6.7,5.1,6.2V3.9
	c0-1.6,1.3-2.8,2.9-2.8c1.5,0,2.7,1.2,2.8,2.8v2.2c0,0.5-0.3,0.9-0.8,1.1C9.3,7.4,9,7.8,9,8.4v0.4c0,0.7,0.4,1.3,1.1,1.6l0.2,0.1
	c-1.2,1.3-1.5,3.1-0.9,4.7H1.1z M13.5,16.8c-1.9,0-3.4-1.5-3.4-3.4s1.5-3.4,3.4-3.4c1,0,1.9,0.5,2.6,1.2c0.5,0.6,0.8,1.4,0.8,2.2
	C16.8,15.3,15.3,16.8,13.5,16.8z M15,12.7l-0.7,0.7l0.7,0.7c0.2,0.2,0.2,0.6,0,0.8s-0.6,0.2-0.8,0l-0.7-0.7L12.8,15
	c-0.2,0.2-0.6,0.2-0.8,0s-0.2-0.6,0-0.8l0.7-0.7L12,12.8c-0.2-0.2-0.2-0.6,0-0.8s0.6-0.2,0.8,0l0.7,0.7l0.7-0.7
	c0.2-0.2,0.6-0.2,0.8,0S15.2,12.5,15,12.7L15,12.7z"/>
<g transform="translate(643 1998)">
	<path class="st1" d="M-645.4-2001h24v24h-24V-2001z"/>
	<g transform="translate(17685.059 5885.618)">
		<path class="st2" d="M-18317-7867.1h-9.4c-0.6,0-1.1-0.5-1.1-1.1l0,0v-2.4c0-1.1,0.7-2.1,1.7-2.6l3.4-1.4c0.2-0.1,0.3-0.3,0.3-0.5
			v-0.4c-1-0.3-1.6-1.1-1.7-2.1v-2.2c0-2.1,1.8-3.8,3.9-3.8s3.8,1.7,3.8,3.8v2.2c0,1-0.7,1.9-1.6,2.1l0,0v0.4c0,0.2,0.1,0.4,0.3,0.5
			l2.7,1.1c-0.5,0.1-1,0.3-1.4,0.6l-1.6-0.7c-0.6-0.2-1-0.9-1-1.5v-0.4c0-0.5,0.4-0.9,0.8-1.1c0.5-0.1,0.8-0.6,0.8-1.1v-2.2
			c0-1.5-1.3-2.7-2.8-2.7s-2.7,1.2-2.7,2.7v2.2c0,0.5,0.3,0.9,0.8,1.1c0.5,0.1,0.8,0.6,0.8,1.1v0.4c0,0.7-0.4,1.3-1,1.5l-3.4,1.4
			c-0.6,0.2-1,0.9-1,1.5v2.4h8.9C-18317.4-7867.8-18317.2-7867.4-18317-7867.1L-18317-7867.1z"/>
		<g transform="translate(-18316.598 -7871.357)">
			<g transform="translate(0 0)">
				<path class="st2" d="M6.1,0.5C6,0.4,5.8,0.4,5.7,0.3c-0.1,0-0.1-0.1-0.2-0.1L5.3-0.4c0-0.1,0-0.1,0.1-0.2c0-0.1,0.1-0.3,0.1-0.4
					c0-0.2,0-0.3-0.1-0.4L4.7-2C4.6-2.1,4.4-2.2,4.2-2.2C4.1-2.1,4-2.1,3.9-2.1S3.8-2.1,3.7-2L3.1-2.3c0-0.1,0-0.1-0.1-0.2
					c-0.1,0-0.1-0.1-0.2-0.3C2.7-2.9,2.6-3,2.4-3h-1C1.3-3,1.1-2.9,1-2.8c0,0.2-0.1,0.3-0.2,0.4c0,0.1-0.1,0.1-0.1,0.2L0.2-2
					C0.1-2,0-2,0-2.1c-0.1,0-0.3-0.1-0.4-0.1c-0.2,0-0.3,0-0.4,0.1l-0.7,0.7c-0.1,0.2-0.2,0.3-0.1,0.5c0,0.1,0.1,0.3,0.1,0.4
					s0,0.1,0.1,0.2l-0.3,0.6c-0.1,0-0.1,0-0.2,0.1c-0.1,0-0.2,0-0.3,0.1c-0.1,0.1-0.2,0.2-0.2,0.4v1c0,0.2,0.1,0.3,0.2,0.4
					c0.1,0,0.2,0.1,0.3,0.2c0.1,0,0.1,0.1,0.2,0.1l0.3,0.6c0,0.1,0,0.1-0.1,0.2c0,0.1-0.1,0.3-0.1,0.4c0,0.2,0,0.3,0.1,0.4l0.7,0.7
					C-0.7,5-0.5,5.1-0.4,5C-0.3,5-0.1,4.9,0,4.9s0.1,0,0.2-0.1l0.6,0.3c0,0.1,0,0.1,0.1,0.2c0,0,0.1,0.1,0.1,0.2
					c0.1,0.1,0.2,0.2,0.4,0.2h1c0.2,0,0.3-0.1,0.4-0.2C2.9,5.4,2.9,5.3,3,5.2c0,0,0.1-0.1,0.1-0.2l0.6-0.3c0.1,0,0.1,0,0.2,0.1
					c0.1,0,0.3,0.1,0.4,0.1c0.2,0,0.3,0,0.4-0.1l0.6-0.7C5.4,4,5.5,3.8,5.4,3.7c0-0.1-0.1-0.3-0.1-0.4c0-0.1,0-0.1-0.1-0.2l0.3-0.6
					c0.1,0,0.1,0,0.2-0.1c0.1,0,0.3-0.1,0.4-0.1c0.1-0.1,0.2-0.2,0.2-0.4v-1C6.3,0.8,6.2,0.6,6.1,0.5z M5.3,1.6L5.2,1.7
					C5,1.7,4.8,1.8,4.8,2L4.4,3c-0.1,0.2,0,0.4,0.1,0.5v0.1L4.2,3.9c-0.1,0-0.1,0-0.1,0C3.9,3.8,3.7,3.7,3.5,3.8l-1,0.4
					C2.3,4.3,2.2,4.5,2.2,4.7c0,0,0,0.1-0.1,0.1H1.7L1.6,4.7c0-0.2-0.1-0.3-0.3-0.4l-1-0.4C0.1,3.8-0.1,3.9-0.2,4h-0.1l-0.3-0.3
					c0-0.1,0-0.1,0-0.1c0.1-0.1,0.2-0.3,0.1-0.5l-0.4-1C-1,1.8-1.2,1.7-1.3,1.7c0,0-0.1,0-0.1-0.1V1.2l0.1-0.1C-1.2,1.1-1,1-0.9,0.8
					l0.4-1c0.1-0.2,0-0.4-0.1-0.5v-0.1l0.3-0.3c0.1,0,0.1,0,0.1,0C-0.1-1,0.1-0.9,0.3-1l1-0.4c0.2-0.1,0.3-0.3,0.3-0.5
					c0,0,0-0.1,0.1-0.1h0.4l0.1,0.1c0,0.2,0.1,0.3,0.3,0.4l1,0.4C3.7-1,3.9-1.1,4-1.2h0.1l0.4,0.3c0,0.1,0,0.1,0,0.1
					C4.3-0.6,4.3-0.4,4.3-0.2l0.4,1C4.8,1,5,1.1,5.2,1.1c0,0,0.1,0,0.1,0.1C5.3,1.2,5.3,1.6,5.3,1.6z"/>
			</g>
			<g transform="translate(2.423 2.423)">
				<path class="st2" d="M-0.5-3c-1.1,0-1.9,0.9-1.9,1.9c0,1.1,0.9,1.9,1.9,1.9c1.1,0,1.9-0.9,1.9-1.9l0,0C1.4-2.1,0.6-3-0.5-3z
					 M-0.5-0.1c-0.5,0-1-0.4-1-1s0.4-1,1-1c0.5,0,1,0.4,1,1l0,0C0.5-0.5,0-0.1-0.5-0.1z"/>
			</g>
		</g>
	</g>
</g>
</svg>
