<svg xmlns="http://www.w3.org/2000/svg" width="113.181" height="15" viewBox="0 0 113.181 15">
  <g id="Group_36694" data-name="Group 36694" transform="translate(-362.494 -370.352)">
    <path id="Path_43073" data-name="Path 43073" d="M429,370.838l3.154,5.772-6.632,5.769Z" transform="translate(-5.266 -0.041)" fill="#098c45"/>
    <path id="Path_43074" data-name="Path 43074" d="M426.59,370.838l3.154,5.772-6.635,5.769Z" transform="translate(-5.064 -0.041)" fill="#f27a21"/>
    <path id="Path_43075" data-name="Path 43075" d="M377.981,382a1.526,1.526,0,0,0,.612-.813l1.05-3.459a.8.8,0,0,0-.126-.791.976.976,0,0,0-.791-.32,1.687,1.687,0,0,0,.989-.328,1.51,1.51,0,0,0,.606-.8l1.05-3.454a.867.867,0,0,0-.1-.831.943.943,0,0,0-.8-.33H366.786l-3.479,11.453h13.685a1.678,1.678,0,0,0,.989-.327m-9.387-8.888h9.014a.9.9,0,0,1,.573.4,1.467,1.467,0,0,1,.069.436l-.02.236-.025.076-.087.29a1.686,1.686,0,0,1-1.355.936h-8.89Zm8.11,6.1a1.694,1.694,0,0,1-1.317.876h-8.909l.716-2.36h9a.864.864,0,0,1,.659.616l.017.206-.006.106,0,.045Z" transform="translate(-0.068 -0.044)" fill="#6e6f71"/>
    <path id="Path_43076" data-name="Path 43076" d="M397.226,370.887l-1.376,4.6h-9.871l1.375-4.6H384.9L381.485,382.3h2.455l1.371-4.581h9.872l-1.372,4.581h2.456l3.415-11.416Z" transform="translate(-1.587 -0.045)" fill="#6e6f71"/>
    <path id="Path_43077" data-name="Path 43077" d="M401.9,382.343h-2.472l3.436-11.414h2.472Z" transform="translate(-3.085 -0.048)" fill="#6e6f71"/>
    <path id="Path_43078" data-name="Path 43078" d="M422.894,370.919,412.64,378.91l-3.576-5.467-1.651-2.525h-.047l-.777,2.594-2.638,8.786h2.455l1.848-6.16,3.917,6.175,6.482-5.466-1.626,5.45h2.456l2.4-7.989,1.018-3.391Z" transform="translate(-3.463 -0.047)" fill="#6e6f71"/>
    <path id="Path_43079" data-name="Path 43079" d="M362.494,386.573l.439-1.688h.49a1.647,1.647,0,0,1,.306.019l.153.064.1.15,0,.208a.456.456,0,0,1-.131.225.518.518,0,0,1-.24.126.3.3,0,0,1,.231.135.351.351,0,0,1,.027.281l-.093.194-.159.156a.6.6,0,0,1-.223.1,2.014,2.014,0,0,1-.4.028Zm.369-.229h.108a1.748,1.748,0,0,0,.252-.013l.141-.039.114-.091.064-.125,0-.14-.084-.094-.1-.029-.15-.008H363Zm.192-.747h.122a.794.794,0,0,0,.335-.053.274.274,0,0,0,.14-.181c.026-.093.013-.159-.036-.2a.573.573,0,0,0-.312-.056h-.121Z" transform="translate(0 -1.289)" fill="#6e6f71"/>
    <path id="Path_43080" data-name="Path 43080" d="M365.1,386.573l.439-1.688h.316l-.163.621h.959l.162-.621h.315l-.44,1.688h-.316l.214-.821h-.956l-.214.821Z" transform="translate(-0.218 -1.289)" fill="#6e6f71"/>
    <path id="Path_43081" data-name="Path 43081" d="M369.478,386.567l-.106-.435H368.6l-.336.435h-.334l1.4-1.756.483,1.756Zm-.7-.664h.543l-.1-.384-.014-.086-.01-.106-.06.1-.06.09Z" transform="translate(-0.454 -1.283)" fill="#6e6f71"/>
    <path id="Path_43082" data-name="Path 43082" d="M371.574,385.816l-.2.756h-.3l.44-1.688h.441a1.618,1.618,0,0,1,.3.02l.162.072.1.159-.007.213a.578.578,0,0,1-.194.316.678.678,0,0,1-.369.139l.47.768h-.358l-.45-.756Zm.075-.214h.058a.8.8,0,0,0,.345-.051.263.263,0,0,0,.13-.179c.023-.093.012-.159-.038-.2a.559.559,0,0,0-.312-.058h-.058Z" transform="translate(-0.717 -1.289)" fill="#6e6f71"/>
    <path id="Path_43083" data-name="Path 43083" d="M374.9,386.567l-.108-.435h-.77l-.339.435h-.332l1.4-1.756.485,1.756Zm-.7-.664h.543l-.1-.384-.015-.086-.01-.106-.059.1-.06.09Z" transform="translate(-0.907 -1.283)" fill="#6e6f71"/>
    <path id="Path_43084" data-name="Path 43084" d="M377.363,385.116l-.38,1.457h-.314l.378-1.457h-.515l.06-.231h1.347l-.061.231Z" transform="translate(-1.173 -1.289)" fill="#6e6f71"/>
    <path id="Path_43085" data-name="Path 43085" d="M380.545,386.573l.439-1.688h.317l-.441,1.688Z" transform="translate(-1.508 -1.289)" fill="#6e6f71"/>
    <path id="Path_43086" data-name="Path 43086" d="M382.283,386.566l.458-1.756.967,1.032.077.094.079.113.3-1.17h.292l-.455,1.753-.987-1.049-.075-.091-.063-.1-.306,1.174Z" transform="translate(-1.653 -1.283)" fill="#6e6f71"/>
    <path id="Path_43087" data-name="Path 43087" d="M386.586,385.116l-.378,1.457h-.317l.379-1.457h-.517l.063-.231h1.344l-.059.231Z" transform="translate(-1.943 -1.289)" fill="#6e6f71"/>
    <path id="Path_43088" data-name="Path 43088" d="M387.97,386.573l.44-1.688H389.5l-.061.231h-.769l-.111.425h.769l-.063.24h-.769l-.141.546h.769l-.064.246Z" transform="translate(-2.128 -1.289)" fill="#6e6f71"/>
    <path id="Path_43089" data-name="Path 43089" d="M390.942,385.816l-.2.756h-.3l.439-1.688h.442a1.585,1.585,0,0,1,.3.02l.164.072.1.159-.009.213a.569.569,0,0,1-.2.316.672.672,0,0,1-.368.139l.468.768h-.356l-.45-.756Zm.074-.214h.058a.788.788,0,0,0,.345-.051.256.256,0,0,0,.128-.179c.026-.093.014-.159-.036-.2a.557.557,0,0,0-.312-.058h-.057Z" transform="translate(-2.335 -1.289)" fill="#6e6f71"/>
    <path id="Path_43090" data-name="Path 43090" d="M393.007,386.573l.44-1.688h1.084l-.06.231h-.77l-.108.422h.769l-.063.241h-.769l-.206.794Z" transform="translate(-2.549 -1.289)" fill="#6e6f71"/>
    <path id="Path_43091" data-name="Path 43091" d="M396.616,386.567l-.109-.435h-.768l-.339.435h-.333l1.4-1.756.485,1.756Zm-.7-.664h.543l-.1-.384-.015-.086-.01-.106-.061.1-.059.09Z" transform="translate(-2.721 -1.283)" fill="#6e6f71"/>
    <path id="Path_43092" data-name="Path 43092" d="M400.071,385.29a.75.75,0,0,0-.245-.148.889.889,0,0,0-.3-.049.947.947,0,0,0-.565.178.8.8,0,0,0-.319.459.48.48,0,0,0,.077.452.546.546,0,0,0,.444.178,1.167,1.167,0,0,0,.343-.053,1.438,1.438,0,0,0,.339-.16l-.078.311a1.276,1.276,0,0,1-.309.118,1.4,1.4,0,0,1-.336.039,1.142,1.142,0,0,1-.4-.062.73.73,0,0,1-.286-.187.6.6,0,0,1-.144-.287.786.786,0,0,1,.016-.349,1.018,1.018,0,0,1,.167-.348,1.251,1.251,0,0,1,.3-.288,1.353,1.353,0,0,1,.38-.189,1.387,1.387,0,0,1,.42-.063,1.086,1.086,0,0,1,.318.043.9.9,0,0,1,.267.13Z" transform="translate(-2.99 -1.286)" fill="#6e6f71"/>
    <path id="Path_43093" data-name="Path 43093" d="M401.195,386.573l.44-1.688h1.084l-.061.231h-.769l-.111.425h.77l-.063.24h-.768l-.145.546h.771l-.063.246Z" transform="translate(-3.233 -1.289)" fill="#6e6f71"/>
    <path id="Path_43094" data-name="Path 43094" d="M405.463,386.573l.44-1.688h1.085l-.06.231h-.77l-.109.422h.77l-.063.241h-.77l-.206.794Z" transform="translate(-3.59 -1.289)" fill="#6e6f71"/>
    <path id="Path_43095" data-name="Path 43095" d="M410.141,385.728a1.013,1.013,0,0,1-.167.342,1.3,1.3,0,0,1-.3.284,1.487,1.487,0,0,1-.389.193,1.315,1.315,0,0,1-.412.066,1.025,1.025,0,0,1-.383-.067.758.758,0,0,1-.288-.192.6.6,0,0,1-.15-.283.728.728,0,0,1,.01-.343,1.039,1.039,0,0,1,.167-.342,1.284,1.284,0,0,1,.3-.287,1.46,1.46,0,0,1,.389-.192,1.346,1.346,0,0,1,.416-.065,1.062,1.062,0,0,1,.382.065.756.756,0,0,1,.286.192.61.61,0,0,1,.15.289.7.7,0,0,1-.01.34m-.331,0a.527.527,0,0,0,.01-.244l-.1-.205-.193-.137a.716.716,0,0,0-.261-.047.9.9,0,0,0-.284.047,1,1,0,0,0-.266.137.859.859,0,0,0-.207.2.729.729,0,0,0-.117.246.533.533,0,0,0-.011.242l.1.2.2.137a.717.717,0,0,0,.262.047.924.924,0,0,0,.282-.047.974.974,0,0,0,.265-.137.911.911,0,0,0,.21-.205.684.684,0,0,0,.115-.241" transform="translate(-3.805 -1.286)" fill="#6e6f71"/>
    <path id="Path_43096" data-name="Path 43096" d="M411.88,385.816l-.2.756h-.3l.439-1.688h.44a1.6,1.6,0,0,1,.3.02l.163.072.1.159-.006.213a.582.582,0,0,1-.2.316.669.669,0,0,1-.368.139l.47.768h-.358l-.45-.756Zm.074-.214h.058a.8.8,0,0,0,.347-.051.265.265,0,0,0,.129-.179c.023-.093.013-.159-.038-.2a.557.557,0,0,0-.312-.058h-.059Z" transform="translate(-4.085 -1.289)" fill="#6e6f71"/>
    <path id="Path_43097" data-name="Path 43097" d="M417.523,385.731l.013-.108.014-.122-.064.115-.086.117-.743.9-.269-.918-.027-.109-.014-.105-.039.111-.059.121-.424.833h-.291l.92-1.761.293,1.066.02.084.028.147.137-.186.036-.046.838-1.065.013,1.761h-.294Z" transform="translate(-4.431 -1.283)" fill="#6e6f71"/>
    <path id="Path_43098" data-name="Path 43098" d="M421.419,385.728a.961.961,0,0,1-.166.342,1.308,1.308,0,0,1-.3.284,1.54,1.54,0,0,1-.389.193,1.335,1.335,0,0,1-.415.066,1.035,1.035,0,0,1-.383-.067.751.751,0,0,1-.286-.192.613.613,0,0,1-.152-.283.718.718,0,0,1,.012-.343,1.016,1.016,0,0,1,.165-.342,1.283,1.283,0,0,1,.3-.287,1.469,1.469,0,0,1,.388-.192,1.358,1.358,0,0,1,.418-.065,1.048,1.048,0,0,1,.38.065.749.749,0,0,1,.288.192.629.629,0,0,1,.151.289.705.705,0,0,1-.012.34m-.329,0a.515.515,0,0,0,.01-.244l-.1-.205-.194-.137a.706.706,0,0,0-.259-.047.91.91,0,0,0-.286.047,1.068,1.068,0,0,0-.267.137l-.206.2a.73.73,0,0,0-.117.246.533.533,0,0,0-.01.242l.1.2.2.137a.706.706,0,0,0,.259.047.912.912,0,0,0,.284-.047.984.984,0,0,0,.267-.137l.209-.205a.7.7,0,0,0,.115-.241" transform="translate(-4.747 -1.286)" fill="#6e6f71"/>
    <path id="Path_43099" data-name="Path 43099" d="M422.665,386.566l.456-1.756.967,1.032.077.094.082.113.3-1.17h.291l-.457,1.753-.986-1.049-.073-.091-.066-.1-.305,1.174Z" transform="translate(-5.027 -1.283)" fill="#6e6f71"/>
    <path id="Path_43100" data-name="Path 43100" d="M425.947,386.573l.439-1.688h1.086l-.06.231h-.771l-.109.425h.77l-.063.24h-.77l-.142.546h.771l-.064.246Z" transform="translate(-5.301 -1.289)" fill="#6e6f71"/>
    <path id="Path_43101" data-name="Path 43101" d="M428.86,386.573l.2-.773-.416-.915h.331l.259.573.023.057.022.078.06-.077.06-.066.565-.565h.317l-.908.915-.2.773Z" transform="translate(-5.526 -1.289)" fill="#6e6f71"/>
    <path id="Path_43102" data-name="Path 43102" d="M439.769,384.483h.32l-.3,1.24a.535.535,0,0,0,.025.415.377.377,0,0,0,.339.138.586.586,0,0,0,.4-.138.774.774,0,0,0,.224-.415l.3-1.24h.323l-.3,1.271a1.1,1.1,0,0,1-.353.62,1.016,1.016,0,0,1-.664.206.664.664,0,0,1-.565-.206.734.734,0,0,1-.054-.62Z" transform="translate(-6.427 -1.256)" fill="#71716f"/>
    <path id="Path_43103" data-name="Path 43103" d="M441.536,386.518l.509-2.122.965,1.248.078.113.079.136.339-1.416h.3L443.3,386.6l-.985-1.271-.074-.108-.063-.12-.34,1.42Z" transform="translate(-6.603 -1.248)" fill="#71716f"/>
    <path id="Path_43104" data-name="Path 43104" d="M443.983,386.525l.488-2.042h.323l-.488,2.042Z" transform="translate(-6.808 -1.256)" fill="#71716f"/>
    <path id="Path_43105" data-name="Path 43105" d="M444.844,386.525l.488-2.042h1.111l-.067.282h-.787l-.122.509h.787l-.07.291H445.4l-.23.96Z" transform="translate(-6.88 -1.256)" fill="#71716f"/>
    <path id="Path_43106" data-name="Path 43106" d="M446.445,386.525l.488-2.042h.324l-.488,2.042Z" transform="translate(-7.014 -1.256)" fill="#71716f"/>
    <path id="Path_43107" data-name="Path 43107" d="M447.3,386.525l.488-2.042H448.9l-.067.282h-.788l-.122.511h.787l-.07.291h-.787l-.158.66h.787l-.071.3Z" transform="translate(-7.085 -1.256)" fill="#71716f"/>
    <path id="Path_43108" data-name="Path 43108" d="M448.922,386.525l.488-2.042h.436a2.613,2.613,0,0,1,.588.044.585.585,0,0,1,.269.148.62.62,0,0,1,.179.347,1.17,1.17,0,0,1-.027.484,1.494,1.494,0,0,1-.2.482,1.253,1.253,0,0,1-.345.346,1.036,1.036,0,0,1-.333.147,2.358,2.358,0,0,1-.529.044h-.523Zm.4-.3h.272a1.431,1.431,0,0,0,.344-.031l.22-.1a.877.877,0,0,0,.228-.247,1.125,1.125,0,0,0,.138-.343.928.928,0,0,0,.026-.342.463.463,0,0,0-.111-.247l-.177-.1a1.5,1.5,0,0,0-.36-.031h-.235Z" transform="translate(-7.22 -1.256)" fill="#71716f"/>
    <path id="Path_43109" data-name="Path 43109" d="M452.61,385.608l-.22.916h-.3l.489-2.042h.489a1.407,1.407,0,0,1,.314.025l.159.081.1.192a.615.615,0,0,1-.01.266.814.814,0,0,1-.117.268l-.192.192-.2.08a1.69,1.69,0,0,1-.326.023h-.186Zm.085-.271h.083a.809.809,0,0,0,.373-.061.31.31,0,0,0,.14-.212c.027-.109.013-.186-.04-.23a.57.57,0,0,0-.337-.067h-.082Z" transform="translate(-7.485 -1.256)" fill="#71716f"/>
    <path id="Path_43110" data-name="Path 43110" d="M454.829,386.518l-.1-.526h-.789l-.357.526h-.34l1.472-2.123.455,2.123Zm-.7-.8h.554l-.093-.466-.012-.1-.007-.129-.064.125-.063.107Z" transform="translate(-7.582 -1.248)" fill="#71716f"/>
    <path id="Path_43111" data-name="Path 43111" d="M455.835,386.525l.224-.935-.405-1.107h.34l.251.693.021.07.023.094.062-.093.063-.08.592-.685h.324l-.95,1.107-.224.935Z" transform="translate(-7.783 -1.256)" fill="#71716f"/>
    <path id="Path_43112" data-name="Path 43112" d="M459.033,385.509l.014-.131.017-.148-.069.139-.09.142-.782,1.088-.255-1.11-.025-.133-.011-.126-.042.135-.062.147-.454,1.006h-.3l.98-2.129.279,1.289.017.1.026.176q.05-.088.143-.223l.038-.056.882-1.288-.027,2.129h-.3Z" transform="translate(-7.893 -1.248)" fill="#71716f"/>
    <path id="Path_43113" data-name="Path 43113" d="M459.807,386.525l.489-2.042h1.111l-.068.282h-.787l-.123.511h.787l-.07.291h-.787l-.158.66h.787l-.071.3Z" transform="translate(-8.13 -1.256)" fill="#71716f"/>
    <path id="Path_43114" data-name="Path 43114" d="M461.424,386.518l.509-2.122.965,1.248.078.113.079.136.339-1.416h.3l-.509,2.122-.986-1.271-.073-.108-.063-.12-.34,1.42Z" transform="translate(-8.265 -1.248)" fill="#71716f"/>
    <path id="Path_43115" data-name="Path 43115" d="M464.948,384.765l-.422,1.76H464.2l.422-1.76H464.1l.068-.282h1.377l-.067.282Z" transform="translate(-8.488 -1.256)" fill="#71716f"/>
    <path id="Path_43116" data-name="Path 43116" d="M465.392,386.113l.288-.123a.276.276,0,0,0,.084.208.338.338,0,0,0,.234.072.386.386,0,0,0,.387-.3q.043-.18-.214-.321l-.055-.031a1,1,0,0,1-.367-.3.429.429,0,0,1-.031-.325.7.7,0,0,1,.262-.405.754.754,0,0,1,.469-.155.606.606,0,0,1,.348.088.329.329,0,0,1,.145.25l-.285.134-.1-.141-.153-.045a.365.365,0,0,0-.225.071l-.121.186c-.029.124.056.237.255.344l.036.019a.854.854,0,0,1,.34.273.441.441,0,0,1,.031.333.808.808,0,0,1-.289.461.824.824,0,0,1-.522.17.567.567,0,0,1-.388-.119.43.43,0,0,1-.131-.344" transform="translate(-8.596 -1.252)" fill="#71716f"/>
    <path id="Path_43117" data-name="Path 43117" d="M468,386.525l.489-2.042h.324l-.489,2.042Z" transform="translate(-8.814 -1.256)" fill="#71716f"/>
    <path id="Path_43118" data-name="Path 43118" d="M468.861,386.518l.509-2.122.965,1.248.078.113.079.136.339-1.416h.3l-.509,2.122-.985-1.271-.074-.108-.063-.12-.34,1.42Z" transform="translate(-8.886 -1.248)" fill="#71716f"/>
    <path id="Path_43119" data-name="Path 43119" d="M472.385,384.765l-.422,1.76h-.323l.422-1.76h-.529l.068-.282h1.378l-.068.282Z" transform="translate(-9.109 -1.256)" fill="#71716f"/>
    <path id="Path_43120" data-name="Path 43120" d="M472.847,386.525l.489-2.042h1.111l-.068.282h-.787l-.123.511h.787l-.07.291H473.4l-.158.66h.787l-.071.3Z" transform="translate(-9.219 -1.256)" fill="#71716f"/>
    <path id="Path_43121" data-name="Path 43121" d="M474.986,385.611l-.219.914h-.3l.489-2.042h.451a1.308,1.308,0,0,1,.3.027l.166.088.1.192a.616.616,0,0,1-.011.257.746.746,0,0,1-.208.384.654.654,0,0,1-.381.167l.463.928h-.366l-.444-.914Zm.083-.258h.059a.723.723,0,0,0,.356-.061.332.332,0,0,0,.137-.218c.027-.112.016-.192-.034-.237a.5.5,0,0,0-.318-.069h-.059Z" transform="translate(-9.354 -1.256)" fill="#71716f"/>
    <path id="Path_43122" data-name="Path 43122" d="M476.166,386.525l.489-2.042h1.111l-.068.282h-.787l-.122.509h.787l-.07.291h-.787l-.23.96Z" transform="translate(-9.497 -1.256)" fill="#71716f"/>
    <path id="Path_43123" data-name="Path 43123" d="M478.943,386.518l-.1-.526h-.789l-.357.526h-.34l1.472-2.123.455,2.123Zm-.7-.8h.554l-.093-.466-.012-.1-.007-.129-.064.125-.063.107Z" transform="translate(-9.596 -1.248)" fill="#71716f"/>
    <path id="Path_43124" data-name="Path 43124" d="M481.59,384.975a.712.712,0,0,0-.247-.18.754.754,0,0,0-.306-.06.878.878,0,0,0-.583.215,1.018,1.018,0,0,0-.338.556.657.657,0,0,0,.069.545.51.51,0,0,0,.451.215,1.008,1.008,0,0,0,.352-.065,1.437,1.437,0,0,0,.353-.193l-.09.376a1.248,1.248,0,0,1-.318.143,1.223,1.223,0,0,1-.345.048,1,1,0,0,1-.4-.077.7.7,0,0,1-.286-.225.745.745,0,0,1-.141-.346,1.1,1.1,0,0,1,.023-.423,1.357,1.357,0,0,1,.18-.422,1.427,1.427,0,0,1,.309-.347,1.38,1.38,0,0,1,.394-.227,1.258,1.258,0,0,1,.433-.078.957.957,0,0,1,.323.052.863.863,0,0,1,.27.159Z" transform="translate(-9.796 -1.251)" fill="#71716f"/>
    <path id="Path_43125" data-name="Path 43125" d="M481.792,386.525l.489-2.042h1.111l-.068.282h-.787l-.123.511h.787l-.07.291h-.787l-.158.66h.787l-.072.3Z" transform="translate(-9.967 -1.256)" fill="#71716f"/>
    <path id="Path_43126" data-name="Path 43126" d="M475.15,381.523h-2.224l3.094-11.172h2.223Z" transform="translate(-9.226)" fill="#6e6f71"/>
    <path id="Path_43127" data-name="Path 43127" d="M472.63,370.708a.824.824,0,0,0-.715-.32h-12.23l-.607,2.188H461.3v0h8.9l-.648,2.338h-8.9v0h-2.225l-1.846,6.665h2.225l1.239-4.473h10.006a1.422,1.422,0,0,0,.883-.321,1.482,1.482,0,0,0,.544-.79l1.239-4.475a.9.9,0,0,0-.094-.806" transform="translate(-7.861 -0.003)" fill="#6e6f71"/>
    <path id="Path_43128" data-name="Path 43128" d="M453.96,380.829a1.022,1.022,0,0,1-.984.749H441.5a.8.8,0,0,1-.7-.32.888.888,0,0,1-.1-.791l2.8-10.08h2.227l-2.5,9h8.905l2.5-9h2.227Z" transform="translate(-6.53 -0.003)" fill="#6e6f71"/>
    <path id="Path_43129" data-name="Path 43129" d="M482.637,370.375l2.816,5.6-5.919,5.6Z" transform="translate(-9.778 -0.002)" fill="#0f8141"/>
    <path id="Path_43130" data-name="Path 43130" d="M480.483,370.375l2.813,5.6-5.922,5.6Z" transform="translate(-9.597 -0.002)" fill="#e97726"/>
    <line id="Line_1509" data-name="Line 1509" y2="11.209" transform="translate(429.722 371.927)" fill="#6e6f71"/>
    <line id="Line_1510" data-name="Line 1510" y2="11.209" transform="translate(429.722 371.927)" fill="none" stroke="#6e6f71" stroke-miterlimit="10" stroke-width="0.588"/>
  </g>
</svg>
