<?xml version="1.0" encoding="utf-8"?>
<!-- Generator: Adobe Illustrator 23.0.1, SVG Export Plug-In . SVG Version: 6.00 Build 0)  -->
<svg version="1.1" id="Layer_1" xmlns="http://www.w3.org/2000/svg" xmlns:xlink="http://www.w3.org/1999/xlink" x="0px" y="0px"
	 viewBox="0 0 24 24" style="enable-background:new 0 0 24 24;" xml:space="preserve">
<style type="text/css">
	.st0{fill:#7E2323;fill-opacity:0;}
	.st1{fill:#E88E8E;fill-opacity:0;}
	.st2{fill:#007C3D;stroke:#007C3D;stroke-width:0.4;}
</style>
<g transform="translate(643 1998)">
	<rect x="-647.4" y="-2001.4" class="st0" width="30.4" height="30.4"/>
	<path class="st1" d="M-644.8-1998.8h25.4v25.4h-25.4V-1998.8z"/>
	<g transform="translate(-639.254 -1995.109)">
		<path class="st2" d="M2.6,10.8h3.7c0.3,0,0.5-0.2,0.5-0.4c0-0.3-0.2-0.5-0.4-0.5c0,0,0,0,0,0H2.6c-0.3,0-0.4,0.2-0.4,0.5
			C2.2,10.6,2.3,10.8,2.6,10.8z"/>
		<path class="st2" d="M9,13.2H2.6c-0.3,0-0.5,0.2-0.5,0.5c0,0.3,0.2,0.5,0.5,0.5H9c0.3,0,0.5-0.2,0.5-0.5C9.4,13.4,9.2,13.2,9,13.2
			z"/>
		<path class="st2" d="M19.8,2.1c0-2.4-2-4.4-4.4-4.4c-2.1,0-3.9,1.4-4.3,3.5H4v-1.4C4-1,3.3-1.6,2.6-1.6S1.2-1,1.2-0.2v1.4H-1
			c-1.3,0-2.4,1.1-2.4,2.4V18c0,1.3,1.1,2.4,2.4,2.4h16.2c1.3,0,2.4-1.1,2.4-2.4l0,0V5.8C19,5,19.8,3.6,19.8,2.1z M2.1-0.2
			c0-0.3,0.2-0.4,0.5-0.4C2.8-0.6,3-0.4,3-0.2V3c0,0.3-0.2,0.4-0.5,0.4C2.3,3.4,2.1,3.2,2.1,3V-0.2z M16.8,18c0,0.8-0.7,1.5-1.5,1.5
			H-1c-0.8,0-1.5-0.7-1.5-1.5V8h2.3v9.1c0,0.3,0.2,0.5,0.5,0.5c0,0,0,0,0,0h11c0.1,0,0.2,0,0.3-0.1l2.7-2.7c0,0,0.1-0.1,0.1-0.1
			c0,0,0,0,0,0c0,0,0-0.1,0-0.1c0,0,0,0,0,0V8h2.3L16.8,18L16.8,18z M13.6,8V14h-2.3c-0.3,0-0.5,0.2-0.5,0.5l0,0v2.3H0.8V8H13.6z
			 M12.9,14.9l-1.2,1.2v-1.2H12.9z M16.8,7.1H-2.5V3.6c0-0.8,0.7-1.5,1.5-1.5h2.2V3c0,0.8,0.6,1.4,1.4,1.4S4,3.7,4,3V2.1h7
			c0,2.4,2,4.4,4.4,4.4c0.5,0,0.9-0.1,1.4-0.2V7.1z M15.4,5.5c-1.9,0-3.5-1.6-3.5-3.5s1.6-3.5,3.5-3.5c1.9,0,3.5,1.6,3.5,3.5
			C18.9,4,17.3,5.5,15.4,5.5z"/>
		<path class="st2" d="M17.2,2.4L17,2.2c-0.2-0.2-0.3-0.4-0.3-0.7V1.3c0-0.7-0.5-1.2-1.2-1.3c-0.4,0-0.7,0.1-1,0.3
			c-0.3,0.2-0.4,0.6-0.4,0.9v0.3c0,0.2-0.1,0.5-0.2,0.6l-0.2,0.3c-0.1,0.1-0.1,0.4,0.1,0.5C13.8,3,13.9,3,14,3h1.1v0.3
			c0,0.2,0.1,0.3,0.3,0.3c0.2,0,0.3-0.1,0.3-0.3l0,0V3H17c0.2,0,0.3-0.1,0.3-0.3C17.3,2.6,17.3,2.5,17.2,2.4L17.2,2.4z M14.6,2.3
			c0.1-0.2,0.2-0.5,0.2-0.8V1.3c0-0.2,0.1-0.3,0.2-0.4c0.1-0.1,0.3-0.2,0.5-0.2c0.3,0,0.6,0.3,0.6,0.6v0.2c0,0.3,0.1,0.6,0.2,0.8
			L14.6,2.3z"/>
	</g>
</g>
</svg>
