<svg xmlns="http://www.w3.org/2000/svg" width="60" height="60" viewBox="0 0 60 60">
  <g id="bill-pay" transform="translate(12848 -12879)">
    <g id="Group_39984" data-name="Group 39984">
      <g id="Group_39997" data-name="Group 39997" opacity="0">
        <rect id="Rectangle_18667" data-name="Rectangle 18667" width="60" height="60" transform="translate(-12848 12879)" fill="#e6e6e6"/>
        <rect id="Rectangle_18668" data-name="Rectangle 18668" width="52" height="52" transform="translate(-12844 12883)" fill="#7c0000" opacity="0.134"/>
      </g>
    </g>
    <g id="Group_39986" data-name="Group 39986" transform="translate(-13179.705 12697.27)">
      <path id="Path_43244" data-name="Path 43244" d="M367.9,197.934h7.334a13.406,13.406,0,0,1,2.381.206,5.975,5.975,0,0,1,2.028.734,3.915,3.915,0,0,1,1.41,1.47,4.875,4.875,0,0,1,.529,2.408A4.44,4.44,0,0,1,380,206.574a26.387,26.387,0,0,1,6.877,2.116,8.527,8.527,0,0,0,3.638-7.525,11.267,11.267,0,0,0-.97-4.931,8.073,8.073,0,0,0-2.733-3.2,11.83,11.83,0,0,0-4.231-1.732,26.2,26.2,0,0,0-5.466-.529H367.9Z" transform="translate(-12.974 -0.001)" fill="#fdb933"/>
      <path id="Path_43245" data-name="Path 43245" d="M362.97,207.747h-9.344v-9.813h0v-7.169H344.4v41.957h20.333a21.446,21.446,0,0,0,5.5-.7,14.675,14.675,0,0,0,4.758-2.174,10.725,10.725,0,0,0,3.321-3.789,11.561,11.561,0,0,0,1.234-5.5,12.089,12.089,0,0,0-1.91-6.728c-2.365-3.661-7.492-6.081-14.662-6.081m6.791,14.984a4.421,4.421,0,0,1-1.5,1.675,6.376,6.376,0,0,1-2.175.882,12.431,12.431,0,0,1-2.587.264h-9.877V214.034h10.049a7.794,7.794,0,0,1,4.82,1.381q1.82,1.381,1.82,4.614a5.761,5.761,0,0,1-.557,2.7" fill="#f47920"/>
    </g>
  </g>
</svg>
