<svg xmlns="http://www.w3.org/2000/svg" width="33.499" height="31.299" viewBox="0 0 33.499 31.299"><defs><style>.a,.b{fill:#37474f;stroke:#37474f;}.a{stroke-width:0.5px;}.b{stroke-width:0.3px;}</style></defs><g transform="translate(0.25 0.25)"><path class="a" d="M31.231,42.145a2.2,2.2,0,0,0-3-.808l-5.362,3.1a2.19,2.19,0,0,0-1.243-.9l-8.206-2.194a3.826,3.826,0,0,0-1.93-.017l-2.887.72v-.4a.55.55,0,0,0-.55-.55H6.4v-.55A.55.55,0,0,0,5.85,40H2.55a.55.55,0,0,0-.55.55v11a.55.55,0,0,0,.55.55h3.3a.55.55,0,0,0,.55-.55V51H8.05a.55.55,0,0,0,.55-.55v-.209l.709.352A3.867,3.867,0,0,0,11.031,51h8.233a3.811,3.811,0,0,0,1.925-.517l9.24-5.335a2.2,2.2,0,0,0,.8-3ZM5.3,51H3.1V41.1H5.3Zm2.2-1.1H6.4V42.2H7.5Zm22.379-5.7-9.24,5.335a2.74,2.74,0,0,1-1.375.368H11.031A2.726,2.726,0,0,1,9.8,49.608l-1.2-.6v-5.83l3.151-.786a2.73,2.73,0,0,1,1.38.011l8.206,2.2a1.1,1.1,0,0,1,.264,2.013,1.072,1.072,0,0,1-.83.11l-6.561-1.76a.552.552,0,1,0-.286,1.067l6.561,1.754a2.239,2.239,0,0,0,.572.077,2.154,2.154,0,0,0,1.094-.3,2.186,2.186,0,0,0,1.028-1.336,2.265,2.265,0,0,0,.061-.742l5.538-3.2a1.114,1.114,0,0,1,1.5.4A1.1,1.1,0,0,1,29.878,44.2Z" transform="translate(-2 -21.301)"/><path class="a" d="M37.288,6h-3.3a.55.55,0,0,0-.55.55V7.1h-1.65a.55.55,0,0,0-.55.55v.209L30.528,7.5a3.949,3.949,0,0,0-1.721-.4H20.574a3.893,3.893,0,0,0-1.925.511l-9.24,5.34a2.2,2.2,0,1,0,2.2,3.811l.874-.506a5.967,5.967,0,0,0-.495,2.392A6.05,6.05,0,1,0,22.7,14.8h.528l.528.88a3.87,3.87,0,0,0,3.305,1.87h.61a3.816,3.816,0,0,0,2.695-1.1h.874a.55.55,0,0,0,.55.55h1.65v.55a.55.55,0,0,0,.55.55h3.3a.55.55,0,0,0,.55-.55v-11A.55.55,0,0,0,37.288,6Zm-14.3,12.649a4.95,4.95,0,1,1-4.152-4.878A1.977,1.977,0,0,0,20.6,14.8h.533a4.971,4.971,0,0,1,1.853,3.85Zm8.25-3.3h-1.1a.568.568,0,0,0-.39.159l-.132.137a2.737,2.737,0,0,1-1.947.8h-.61A2.763,2.763,0,0,1,24.7,15.113l-.687-1.144a.544.544,0,0,0-.473-.269H20.6a.959.959,0,0,1-.693-.3.761.761,0,0,1-.22-.572.829.829,0,0,1,.825-.775h5.225a.55.55,0,1,0,0-1.1H20.513a1.9,1.9,0,0,0-1.9,1.677c-.192-.017-.379-.027-.572-.027a6.046,6.046,0,0,0-3.894,1.424l-3.085,1.782a1.114,1.114,0,0,1-1.5-.4,1.1,1.1,0,0,1,.4-1.5L19.2,8.568A2.755,2.755,0,0,1,20.574,8.2h8.233a2.847,2.847,0,0,1,1.232.286l1.2.6Zm2.2.55h-1.1V8.2h1.1Zm3.3,1.1h-2.2V7.1h2.2Z" transform="translate(-4.839 -6)"/><path class="b" d="M.209-11.664H3.827v.008a5.612,5.612,0,0,1-.361.527H2.5a1.263,1.263,0,0,1,.271.568H3.8q.019,0,.019.015-.346.519-.354.519H2.8a1.536,1.536,0,0,1-.256.643,1.572,1.572,0,0,1-.591.493A2.335,2.335,0,0,1,.942-8.64v.008a1.394,1.394,0,0,0,.237.312L2.966-6.165v.1q0,.015-.019.015H2.161Q.039-8.519.039-8.531v-.5L.047-9.05a3.216,3.216,0,0,0,.44.026q1.189,0,1.478-.771a.622.622,0,0,0,.045-.233H-.141a.013.013,0,0,1-.015-.015q.357-.519.365-.519H1.916v-.008a1,1,0,0,0-.568-.463,1.773,1.773,0,0,0-.542-.1H-.149v-.019Q.2-11.664.209-11.664Z" transform="translate(11.44 21.624)"/></g></svg>