<svg xmlns="http://www.w3.org/2000/svg" xmlns:xlink="http://www.w3.org/1999/xlink" width="37.854" height="45.179" viewBox="0 0 37.854 45.179"><defs><style>.a{fill:#00833c;}.b{clip-path:url(#a);}.c{clip-path:url(#b);}.d{clip-path:url(#c);}.e{clip-path:url(#e);}.f{clip-path:url(#g);}.g{clip-path:url(#i);}</style><clipPath id="a"><path class="a" d="M182.372-569.121a24.2,24.2,0,0,0-25.708,0,1.19,1.19,0,0,0-.346,1.624,1.137,1.137,0,0,0,1.591.354,21.943,21.943,0,0,1,23.206,0,1.137,1.137,0,0,0,1.593-.344,1.191,1.191,0,0,0-.337-1.626Z" transform="translate(-156.135 572.819)"/></clipPath><clipPath id="b"><path class="a" d="M0,105.233H779.194V-1280H0Z" transform="translate(0 1280)"/></clipPath><clipPath id="c"><path class="a" d="M188.6-557.57a22.374,22.374,0,0,0-17.857-10.108,22.085,22.085,0,0,0-19.61,10.192,1.191,1.191,0,0,0,.3,1.634,1.137,1.137,0,0,0,1.6-.3,19.8,19.8,0,0,1,17.611-9.174,20.084,20.084,0,0,1,16.023,9.036,1.138,1.138,0,0,0,1.592.349,1.191,1.191,0,0,0,.342-1.625Z" transform="translate(-150.926 567.701)"/></clipPath><clipPath id="e"><path class="a" d="M156.073-537.094c-2.178-7.125-1.394-13.073,1.764-17.332a14.84,14.84,0,0,1,11.884-5.9,15.187,15.187,0,0,1,15.155,15.231,4.334,4.334,0,0,1-4.289,4.378,4.344,4.344,0,0,1-4.3-4.378h-2.3v.163h2.3a6.662,6.662,0,0,0-6.592-6.729,6.758,6.758,0,0,0-6.59,6.67,16.538,16.538,0,0,0,2.272,8.469,17.307,17.307,0,0,0,10.171,7.992,1.147,1.147,0,0,0,1.439-.779,1.18,1.18,0,0,0-.763-1.469,15,15,0,0,1-8.858-6.931,14.189,14.189,0,0,1-1.96-7.166,4.438,4.438,0,0,1,4.29-4.437,4.334,4.334,0,0,1,4.289,4.378,1.152,1.152,0,1,0,2.3,0v-.163a1.152,1.152,0,1,0-2.3,0,6.671,6.671,0,0,0,6.6,6.729,6.661,6.661,0,0,0,6.592-6.729,17.511,17.511,0,0,0-17.458-17.582,17.124,17.124,0,0,0-13.72,6.83c-3.629,4.893-4.516,11.632-2.126,19.451a1.147,1.147,0,0,0,1.442.772,1.18,1.18,0,0,0,.756-1.472Z" transform="translate(-152.54 562.675)"/></clipPath><clipPath id="g"><path class="a" d="M165.413-531.446c-2.543-2.218-4.842-6.723-5.488-11.067-.742-4.99.674-9.046,4.438-11.321,6.72-4.064,14.575.854,14.575,8.631a1.164,1.164,0,0,0,1.151,1.175,1.164,1.164,0,0,0,1.151-1.175c0-9.557-9.76-15.667-18.052-10.653-4.661,2.818-6.412,7.836-5.541,13.7.726,4.882,3.288,9.9,6.269,12.5a1.135,1.135,0,0,0,1.624-.13,1.192,1.192,0,0,0-.127-1.657Z" transform="translate(-157.432 557.652)"/></clipPath><clipPath id="i"><path class="a" d="M167.37-546.4a12.773,12.773,0,0,0,4.082,9.435c2.4,2.069,5.879,2.872,10.2,2.345a1.17,1.17,0,0,0,1.007-1.306,1.157,1.157,0,0,0-1.28-1.028c-3.735.455-6.585-.2-8.442-1.806a10.428,10.428,0,0,1-3.267-7.568,1.165,1.165,0,0,0-1.116-1.211,1.162,1.162,0,0,0-1.186,1.139Z" transform="translate(-167.366 547.544)"/></clipPath></defs><g class="b" transform="translate(5.636)"><g class="c" transform="translate(-168.971 -765.321)"><path class="a" d="M151.135-577.819h37.583v16.681H151.135Z" transform="translate(12.425 1337.729)"/></g></g><g class="d" transform="translate(0 5.538)"><g class="c" transform="translate(-163.335 -770.86)"><path class="a" d="M145.927-572.7H194.6v22.878H145.927Z" transform="translate(11.997 1338.15)"/></g></g><g class="e" transform="translate(1.746 10.979)"><g class="c" transform="translate(-165.081 -776.299)"><path class="a" d="M147.54-567.675H193v45.023H147.54Z" transform="translate(12.13 1338.563)"/></g></g><g class="f" transform="translate(7.04 16.413)"><g class="c" transform="translate(-170.375 -781.734)"><path class="a" d="M152.432-562.652h34.63v39.1h-34.63Z" transform="translate(12.532 1338.976)"/></g></g><g class="g" transform="translate(17.791 27.353)"><g class="c" transform="translate(-181.125 -792.674)"><path class="a" d="M162.366-552.544h26.125v23.9H162.366Z" transform="translate(13.349 1339.807)"/></g></g></svg>