<svg xmlns="http://www.w3.org/2000/svg" width="42.857" height="40" viewBox="0 0 42.857 40"><path d="M41.286,6H9.857A3.576,3.576,0,0,0,6.286,9.571v9.286H5.571A3.576,3.576,0,0,0,2,22.429v20A3.576,3.576,0,0,0,5.571,46H37a3.576,3.576,0,0,0,3.571-3.571V33.143h.714a3.576,3.576,0,0,0,3.571-3.571v-20A3.576,3.576,0,0,0,41.286,6ZM7.714,11.714H43.429v2.857H7.714ZM39.143,42.429A2.143,2.143,0,0,1,37,44.571H5.571a2.143,2.143,0,0,1-2.143-2.143v-20a2.143,2.143,0,0,1,2.143-2.143H37a2.143,2.143,0,0,1,2.143,2.143Zm4.286-12.857a2.143,2.143,0,0,1-2.143,2.143h-.714V22.429A3.576,3.576,0,0,0,37,18.857H7.714V16H43.429ZM7.714,10.286V9.571A2.143,2.143,0,0,1,9.857,7.429H41.286a2.143,2.143,0,0,1,2.143,2.143v.714Z" transform="translate(-2 -6)" fill="#fff"/><path d="M43.286,39.714V37.571a3.571,3.571,0,1,0-7.143,0v2.143A2.143,2.143,0,0,0,34,41.857V49a2.143,2.143,0,0,0,2.143,2.143h7.143A2.143,2.143,0,0,0,45.429,49V41.857A2.143,2.143,0,0,0,43.286,39.714Zm-5.714-2.143a2.143,2.143,0,0,1,4.286,0v2.143H37.571ZM44,49a.714.714,0,0,1-.714.714H36.143A.714.714,0,0,1,35.429,49V41.857a.714.714,0,0,1,.714-.714h7.143a.714.714,0,0,1,.714.714Z" transform="translate(-11.143 -14)" fill="#fff"/><path d="M42.857,46.426a1.429,1.429,0,1,0-2.143,1.23V52.14h2.143V50.711h-.714V50h.714V48.569h-.714v-.913A1.424,1.424,0,0,0,42.857,46.426Z" transform="translate(-12.857 -17.14)" fill="#fff"/><path d="M8,50h2.857v1.429H8Z" transform="translate(-3.714 -18.571)" fill="#fff"/><path d="M14,50h2.857v1.429H14Z" transform="translate(-5.429 -18.571)" fill="#fff"/><path d="M20,50h2.857v1.429H20Z" transform="translate(-7.143 -18.571)" fill="#fff"/><path d="M26,50h2.857v1.429H26Z" transform="translate(-8.857 -18.571)" fill="#fff"/><path d="M16.571,30H9.429A1.429,1.429,0,0,0,8,31.429v5.714a1.429,1.429,0,0,0,1.429,1.429h7.143A1.429,1.429,0,0,0,18,37.143V31.429A1.429,1.429,0,0,0,16.571,30Zm0,4.286H15.143V31.429h1.429Zm-2.857-1.429H12.286V31.429h1.429Zm-2.857-1.429v1.429H9.429V31.429ZM9.429,34.286h4.286v2.857H9.429Zm5.714,2.857V35.714h1.429v1.429Z" transform="translate(-3.714 -12.857)" fill="#fff"/></svg>