<svg id="Group_39439" data-name="Group 39439" xmlns="http://www.w3.org/2000/svg" width="34.304" height="23.902" viewBox="0 0 34.304 23.902">
  <g id="valid">
    <path id="Path_43224" data-name="Path 43224" d="M.5,7.213A3.75,3.75,0,0,1,4.287,3.5h26.73A3.75,3.75,0,0,1,34.8,7.213v8.1a.817.817,0,0,1-1.634,0v-8.1a2.146,2.146,0,0,0-2.153-2.138H4.287A2.146,2.146,0,0,0,2.134,7.213V21.84a2.146,2.146,0,0,0,2.153,2.138H19.081a.788.788,0,1,1,0,1.575H4.287A3.75,3.75,0,0,1,.5,21.84Z" transform="translate(-0.5 -3.5)" fill="#007c3d" fill-rule="evenodd"/>
    <path id="Path_43225" data-name="Path 43225" d="M.5,7.288A.8.8,0,0,1,1.317,6.5h32.67a.788.788,0,1,1,0,1.575H1.317A.8.8,0,0,1,.5,7.288Z" transform="translate(-0.5 -1.774)" fill="#007c3d" fill-rule="evenodd"/>
    <path id="Path_43233" data-name="Path 43233" d="M2.5,12.288a.8.8,0,0,1,.817-.788H6.584a.788.788,0,1,1,0,1.575H3.317A.8.8,0,0,1,2.5,12.288Z" transform="translate(0.767 0.926)" fill="#007c3d" fill-rule="evenodd"/>
    <path id="Path_43234" data-name="Path 43234" d="M2.5,12.288a.8.8,0,0,1,.817-.788h6.9a.788.788,0,1,1,0,1.575h-6.9A.8.8,0,0,1,2.5,12.288Z" transform="translate(6.212 0.926)" fill="#007c3d" fill-rule="evenodd"/>
    <path id="Path_43235" data-name="Path 43235" d="M2.5,14.788A.8.8,0,0,1,3.317,14H13.481a.788.788,0,1,1,0,1.575H3.317A.8.8,0,0,1,2.5,14.788Z" transform="translate(0.767 2.364)" fill="#007c3d" fill-rule="evenodd"/>
  </g>
  <g id="blocked" transform="translate(19.727 10.124)" fill="#007c3d">
    <path d="M 6.738377571105957 13.6275634765625 C 2.94043755531311 13.6275634765625 -0.1496724337339401 10.53762340545654 -0.1500024348497391 6.73957347869873 C -0.1500024348497391 2.941203594207764 2.940107583999634 -0.1489964425563812 6.738377571105957 -0.1489964425563812 C 10.53656768798828 -0.1489964425563812 13.62668800354004 2.941173553466797 13.62675762176514 6.739503383636475 C 13.62675762176514 10.53759384155273 10.53664779663086 13.6275634765625 6.738377571105957 13.6275634765625 Z M 3.092680692672729 11.05195045471191 C 4.11273193359375 11.91550827026367 5.401097297668457 12.38931369781494 6.738377571105957 12.38931369781494 C 9.853827476501465 12.38931369781494 12.38843727111816 9.854843139648438 12.38843727111816 6.739563465118408 C 12.38843727111816 5.402100563049316 11.9146089553833 4.113639354705811 11.0510139465332 3.093616962432861 L 3.092680692672729 11.05195045471191 Z M 6.738377571105957 1.089253544807434 C 3.62288761138916 1.089253544807434 1.088247537612915 3.623943567276001 1.088247537612915 6.739503383636475 C 1.088362336158752 7.969183444976807 1.496180176734924 9.1748046875 2.239952325820923 10.15340900421143 L 10.15252876281738 2.240881443023682 C 9.173935890197754 1.497058391571045 7.9682297706604 1.089253544807434 6.738377571105957 1.089253544807434 Z" stroke="none"/>
    <path d="M 6.738377571105957 0.001003265380859375 C 3.022727966308594 0.001003265380859375 -2.86102294921875e-06 3.023913383483887 -2.86102294921875e-06 6.739563465118408 C 0.0003080368041992188 10.45484352111816 3.023157119750977 13.47756385803223 6.738377571105957 13.47756385803223 C 10.45390701293945 13.47756385803223 13.47675800323486 10.4549036026001 13.47675800323486 6.739503383636475 C 13.47668743133545 3.023913383483887 10.45390701293945 0.001003265380859375 6.738377571105957 0.001003265380859375 M 2.226337432861328 10.37916374206543 C 1.421387672424316 9.383234024047852 0.9383773803710938 8.116793632507324 0.9382476806640625 6.739503383636475 C 0.9382476806640625 3.541263580322266 3.540197372436523 0.9392538070678711 6.738377571105957 0.9392538070678711 C 8.115787506103516 0.9392538070678711 9.382297515869141 1.42219352722168 10.37827777862549 2.227273941040039 L 2.226337432861328 10.37916374206543 M 6.738377571105957 12.53931331634521 C 5.254817962646484 12.53931331634521 3.899797439575195 11.97912406921387 2.872977256774902 11.05951309204102 L 11.05857753753662 2.873913764953613 C 11.97824764251709 3.900733947753906 12.53843784332275 5.25588321685791 12.53843784332275 6.739563465118408 C 12.53843784332275 9.937553405761719 9.936487197875977 12.53931331634521 6.738377571105957 12.53931331634521 M 6.738377571105957 -0.2989959716796875 C 10.61927795410156 -0.2989959716796875 13.77668762207031 2.858463287353516 13.77675724029541 6.739493370056152 C 13.77675724029541 10.62030410766602 10.61935806274414 13.77756309509277 6.738377571105957 13.77756309509277 C 2.857728004455566 13.77756309509277 -0.2996826171875 10.62034320831299 -0.3000020980834961 6.739593505859375 C -0.3000020980834961 2.85848331451416 2.85739803314209 -0.2989959716796875 6.738377571105957 -0.2989959716796875 Z M 9.923025131225586 2.258265495300293 C 8.99640941619873 1.59904956817627 7.877992630004883 1.239253997802734 6.738377571105957 1.239253997802734 C 3.705597877502441 1.239253997802734 1.238247871398926 3.706653594970703 1.238247871398926 6.739503383636475 C 1.238356590270996 7.878954410552979 1.598174095153809 8.997281074523926 2.257343292236328 9.92389965057373 L 9.923025131225586 2.258265495300293 Z M 6.738377571105957 12.23931312561035 C 9.7711181640625 12.23931312561035 12.23843765258789 9.772133827209473 12.23843765258789 6.739563465118408 C 12.23843765258789 5.492191791534424 11.8150110244751 4.288590431213379 11.04013347625732 3.316617965698242 L 3.315689086914062 11.0410623550415 C 4.287672996520996 11.81591320037842 5.491180896759033 12.23931312561035 6.738377571105957 12.23931312561035 Z" stroke="none" fill="#007c3d"/>
  </g>
</svg>
