<svg xmlns="http://www.w3.org/2000/svg" width="17.299" height="17.896" viewBox="0 0 17.299 17.896"><defs><style>.a,.b{fill:#b8400d;}.b{stroke:#b7400d;stroke-width:0.6px;}</style></defs><g transform="translate(-92.504 -576.999)"><path class="a" d="M7.372,290.907a4.39,4.39,0,0,0-2.525,7.982A7.137,7.137,0,0,0,.359,305.5a.693.693,0,0,0,1.385,0,5.737,5.737,0,0,1,8.757-4.882.7.7,0,1,0,.732-1.182,7.1,7.1,0,0,0-1.266-.6,4.387,4.387,0,0,0-2.594-7.932Zm0,1.387A3.008,3.008,0,1,1,4.367,295.3,3,3,0,0,1,7.372,292.294Z" transform="translate(92.145 286.092)"/><g transform="translate(100.132 585.223)"><path class="b" d="M4.686,0A4.686,4.686,0,1,0,9.372,4.686,4.685,4.685,0,0,0,4.686,0ZM.937,4.686A3.745,3.745,0,0,1,6.982,1.727L1.727,6.982A3.735,3.735,0,0,1,.937,4.686ZM4.686,8.434a3.734,3.734,0,0,1-2.3-.79L7.645,2.39A3.745,3.745,0,0,1,4.686,8.434Z"/></g></g></svg>