<?xml version="1.0" encoding="utf-8"?>
<!-- Generator: Adobe Illustrator 23.0.1, SVG Export Plug-In . SVG Version: 6.00 Build 0)  -->
<svg version="1.1" id="Layer_1" xmlns="http://www.w3.org/2000/svg" xmlns:xlink="http://www.w3.org/1999/xlink" x="0px" y="0px"
	 viewBox="0 0 42.9 40" style="enable-background:new 0 0 42.9 40;" xml:space="preserve">
<style type="text/css">
	.st0{fill:#7A7A7A;}
</style>
<g>
	<path class="st0" d="M39.3,0H7.9c-2,0-3.6,1.6-3.6,3.6v9.3H3.6c-2,0-3.6,1.6-3.6,3.6v20c0,2,1.6,3.6,3.6,3.6H35
		c2,0,3.6-1.6,3.6-3.6v-9.3h0.7c2,0,3.6-1.6,3.6-3.6v-20C42.9,1.6,41.3,0,39.3,0z M5.7,5.7h35.7v2.9H5.7V5.7z M37.1,36.4
		c0,1.2-1,2.1-2.1,2.1H3.6c-1.2,0-2.1-1-2.1-2.1l0,0v-20c0-1.2,1-2.1,2.1-2.1H35c1.2,0,2.1,1,2.1,2.1c0,0,0,0,0,0V36.4z M41.4,23.6
		c0,1.2-1,2.1-2.1,2.1l0,0h-0.7v-9.3c0-2-1.6-3.6-3.6-3.6H5.7V10h35.7V23.6z M5.7,4.3V3.6c0-1.2,1-2.1,2.1-2.1h31.4
		c1.2,0,2.1,1,2.1,2.1v0v0.7L5.7,4.3z"/>
	<path class="st0" d="M32.1,25.7v-2.1c0-2-1.6-3.6-3.6-3.6c-2,0-3.6,1.6-3.6,3.6v2.1c-1.2,0-2.1,1-2.1,2.1V35c0,1.2,1,2.1,2.1,2.1h0
		h7.1c1.2,0,2.1-1,2.1-2.1v-7.1C34.3,26.7,33.3,25.7,32.1,25.7z M26.4,23.6c0-1.2,1-2.1,2.1-2.1c1.2,0,2.1,1,2.1,2.1v2.1h-4.3
		L26.4,23.6z M32.9,35c0,0.4-0.3,0.7-0.7,0.7l0,0H25c-0.4,0-0.7-0.3-0.7-0.7l0,0v-7.1c0-0.4,0.3-0.7,0.7-0.7l0,0h7.1
		c0.4,0,0.7,0.3,0.7,0.7l0,0V35z"/>
	<path class="st0" d="M30,29.3c0-0.8-0.6-1.4-1.4-1.4c-0.8,0-1.4,0.6-1.4,1.4c0,0.5,0.3,1,0.7,1.2V35H30v-1.4h-0.7v-0.7H30v-1.4
		h-0.7v-0.9C29.7,30.3,30,29.8,30,29.3z"/>
	<path class="st0" d="M4.3,31.4h2.9v1.4H4.3V31.4z"/>
	<path class="st0" d="M8.6,31.4h2.9v1.4H8.6V31.4z"/>
	<path class="st0" d="M12.9,31.4h2.9v1.4h-2.9V31.4z"/>
	<path class="st0" d="M17.1,31.4H20v1.4h-2.9V31.4z"/>
	<path class="st0" d="M12.9,17.1H5.7c-0.8,0-1.4,0.6-1.4,1.4l0,0v5.7c0,0.8,0.6,1.4,1.4,1.4c0,0,0,0,0,0h7.1c0.8,0,1.4-0.6,1.4-1.4
		v-5.7C14.3,17.8,13.6,17.1,12.9,17.1L12.9,17.1z M12.9,21.4h-1.4v-2.9h1.4L12.9,21.4z M10,20H8.6v-1.4H10L10,20z M7.1,18.6V20H5.7
		v-1.4L7.1,18.6z M5.7,21.4H10v2.9H5.7V21.4z M11.4,24.3v-1.4h1.4v1.4L11.4,24.3z"/>
</g>
</svg>
