<svg xmlns="http://www.w3.org/2000/svg" width="17.96" height="17.96" viewBox="0 0 17.96 17.96"><defs><style>.a{fill:#007c3d;}</style></defs><path class="a" d="M13.47,8.98A4.456,4.456,0,0,0,11.2,9.6l-.747-.3a.559.559,0,0,1-.353-.521V8.346l.035-.008a2.249,2.249,0,0,0,1.649-2.164V3.929a3.929,3.929,0,0,0-7.857,0V6.174A2.256,2.256,0,0,0,5.612,8.346v.435A.559.559,0,0,1,5.26,9.3l-3.5,1.4A2.792,2.792,0,0,0,0,13.306v1.848a1.124,1.124,0,0,0,1.122,1.122H9.971a4.488,4.488,0,1,0,3.5-7.3ZM1.122,15.154V13.306a1.676,1.676,0,0,1,1.058-1.563l3.5-1.4A1.676,1.676,0,0,0,6.735,8.781V8.346a1.134,1.134,0,0,0-.861-1.09,1.124,1.124,0,0,1-.823-1.082V3.929a2.806,2.806,0,0,1,5.612,0V6.174A1.124,1.124,0,0,1,9.84,7.256a1.134,1.134,0,0,0-.86,1.09v.435a1.676,1.676,0,0,0,1.058,1.564l.157.063a4.461,4.461,0,0,0-.885,4.746ZM10.1,13.47a3.362,3.362,0,0,1,5.316-2.742l-4.69,4.69A3.346,3.346,0,0,1,10.1,13.47Zm3.367,3.367a3.346,3.346,0,0,1-1.948-.626l4.69-4.69a3.362,3.362,0,0,1-2.742,5.316Z"/></svg>