<svg xmlns="http://www.w3.org/2000/svg" width="17.969" height="17.969" viewBox="0 0 17.969 17.969"><defs><style>.a{fill:#007c3d;}</style></defs><path class="a" d="M13.477,8.984a4.458,4.458,0,0,0-2.269.621l-.748-.3a.559.559,0,0,1-.353-.522V8.35l.035-.008a2.25,2.25,0,0,0,1.649-2.165V3.931a3.931,3.931,0,0,0-7.861,0V6.177A2.257,2.257,0,0,0,5.615,8.35v.435a.559.559,0,0,1-.353.522l-3.5,1.4A2.794,2.794,0,0,0,0,13.313v1.849a1.125,1.125,0,0,0,1.123,1.123H9.975a4.49,4.49,0,1,0,3.5-7.3ZM1.123,15.161V13.313a1.676,1.676,0,0,1,1.059-1.564l3.5-1.4A1.677,1.677,0,0,0,6.738,8.785V8.35a1.134,1.134,0,0,0-.861-1.09,1.125,1.125,0,0,1-.824-1.083V3.931a2.808,2.808,0,0,1,5.615,0V6.177A1.125,1.125,0,0,1,9.845,7.26a1.134,1.134,0,0,0-.86,1.09v.435a1.677,1.677,0,0,0,1.059,1.565l.157.063a4.463,4.463,0,0,0-.886,4.748Zm12.354,1.685a3.369,3.369,0,0,1,0-6.738,3.545,3.545,0,0,1,2.581,1.206,3.139,3.139,0,0,1,.788,2.163A3.373,3.373,0,0,1,13.477,16.846Zm1.52-4.1-.726.726L15,14.2A.561.561,0,1,1,14.2,15l-.726-.726L12.751,15a.561.561,0,0,1-.794-.794l.726-.726-.726-.726a.561.561,0,1,1,.794-.794l.726.726.726-.726a.561.561,0,1,1,.794.794Z"/></svg>