<svg xmlns="http://www.w3.org/2000/svg" width="51.895" height="61.638" viewBox="0 0 51.895 61.638"><defs><style>.a,.c{fill:none;stroke-linecap:round;stroke-linejoin:round;}.a{stroke:#007c3d;stroke-width:2px;}.b{fill:#007c3d;font-size:18px;font-family:RupeeForadian, Rupee Foradian;}.c{stroke:#444;stroke-width:1.5px;}.d{fill:#e6f2ec;}</style></defs><g transform="translate(1 1.023)"><g transform="translate(12 0)"><path class="a" d="M341.278,149.158H318.617A7.494,7.494,0,0,1,311,141.795v-.36c0-8.113,2.675-14.014,7.64-20.557L325.373,113h7.84l6.182,5.971c6.129,6.913,9.5,13.717,9.5,22.824h0A7.494,7.494,0,0,1,341.278,149.158Z" transform="translate(-311 -104.158)"/><path class="a" d="M330.484,111.88a.357.357,0,0,0,.08-.083l.4-.584a11.8,11.8,0,0,0,2.1-6.709h0a1.557,1.557,0,0,0-2.355-1.288l-3.379,1.96a1.6,1.6,0,0,1-1.6,0l-3.379-1.96A1.556,1.556,0,0,0,320,104.5v.045a11.829,11.829,0,0,0,2.4,7.125l.1.134" transform="translate(-308.632 -103)"/></g><text class="b" transform="translate(26 34)"><tspan x="0" y="0">`</tspan></text><g transform="translate(0 35.615)"><path class="c" d="M325.474,392.615" transform="translate(-301.358 -392.615)"/><g transform="translate(0 3.113)"><path class="a" d="M340.6,401.237l10.214-2.175a2.291,2.291,0,0,1,2.611,1.237,2.228,2.228,0,0,1-1.305,2.679l-17.824,7.5a28.094,28.094,0,0,1-9.462,1.576,22.315,22.315,0,0,1-5.812-.706l-2.021-.6" transform="translate(-303.946 -393.778)"/><path class="a" d="M320.054,412.97l-3.916,2.611L307,398.611,310.916,396Z" transform="translate(-307 -394.695)"/><path class="a" d="M326.665,405.443h12.4a3.263,3.263,0,0,0,3.264-3.263h0a3.263,3.263,0,0,0-3.264-3.264h-8.485l-1.114-.836A15.406,15.406,0,0,0,320.224,395h0a15.4,15.4,0,0,0-6.117,1.266L311,397.611" transform="translate(-305.778 -395)"/></g></g><path class="d" d="M9,.676c3.574,0,9.5,4.015,9.5,4.015l9.946.3a2.313,2.313,0,0,1,.912,2.849c-.734,1.859-13.737-.316-15.166.313C12.419,8.952,12.072,11,9,11,4.029,11,3.259,7.672,3.259,4.634S4.029.676,9,.676Z" transform="translate(6 39)"/></g></svg>