<svg id="upload-3" xmlns="http://www.w3.org/2000/svg" width="12.908" height="12" viewBox="0 0 12.908 12">
  <path id="Path_43873" data-name="Path 43873" d="M10.891,0H2.017A2.019,2.019,0,0,0,0,2.017V9.076a2.019,2.019,0,0,0,2.017,2.017H8.9a.5.5,0,0,0,0-1.008H7.042L5.883,8.58,9.557,3.908,12.03,6.641a.5.5,0,0,0,.878-.338V2.017A2.019,2.019,0,0,0,10.891,0ZM11.9,4.994l-2-2.206a.5.5,0,0,0-.77.027L5.248,7.756,3.929,6.045a.5.5,0,0,0-.4-.2h0a.5.5,0,0,0-.4.2L2.02,7.488a.5.5,0,0,0,.8.615l.71-.924,2.239,2.9H2.017A1.01,1.01,0,0,1,1.008,9.076V2.017A1.01,1.01,0,0,1,2.017,1.008h8.874A1.01,1.01,0,0,1,11.9,2.017Zm0,0" fill="#007c3d"/>
  <path id="Path_43874" data-name="Path 43874" d="M81.513,72a1.513,1.513,0,1,0,1.513,1.513A1.514,1.514,0,0,0,81.513,72Zm0,2.017a.5.5,0,1,1,.5-.5A.5.5,0,0,1,81.513,74.017Zm0,0" transform="translate(-77.983 -70.185)" fill="#007c3d"/>
  <path id="Path_43875" data-name="Path 43875" d="M355.91,288.377l0,0a1.257,1.257,0,0,0-1.783,0l-.973.96a.5.5,0,0,0,.708.718l.652-.643v2.83a.5.5,0,1,0,1.008,0v-2.815l.624.644a.5.5,0,1,0,.725-.7Zm0,0" transform="translate(-344.1 -280.739)" fill="#007c3d"/>
</svg>
