<?xml version="1.0" encoding="utf-8"?>
<!-- Generator: Adobe Illustrator 23.0.1, SVG Export Plug-In . SVG Version: 6.00 Build 0)  -->
<svg version="1.1" id="Layer_1" xmlns:svgjs="http://svgjs.com/svgjs"
	 xmlns="http://www.w3.org/2000/svg" xmlns:xlink="http://www.w3.org/1999/xlink" x="0px" y="0px" viewBox="0 0 512 512"
	 style="enable-background:new 0 0 512 512;" xml:space="preserve">
<style type="text/css">
	.st0{fill:#007C3D;}
</style>
<g>
	<g>
		<g>
			<g>
				<path class="st0" d="M470.7,137.9c-9.2-9.6-21.9-15.3-36.3-15.3h-72.6v-0.9c0-10.9-4.4-21.4-11.8-28.4
					c-7.4-7.4-17.5-11.8-28.4-11.8H190.4c-11.4,0-21.4,4.4-28.9,11.8s-11.8,17.5-11.8,28.4v0.9H77.6c-14.4,0-27.1,5.7-36.3,15.3
					c-9.2,9.2-15.3,22.3-15.3,36.3V392c0,14.4,5.7,27.1,15.3,36.3c9.2,9.2,22.3,15.3,36.3,15.3h356.8c14.4,0,27.1-5.7,36.3-15.3
					c9.2-9.2,15.3-22.3,15.3-36.3V174.2C486,159.8,480.3,147.1,470.7,137.9z M463.3,392h-0.4c0,7.9-3.1,14.9-8.3,20.1
					c-5.2,5.2-12.2,8.3-20.1,8.3H77.6c-7.9,0-14.9-3.1-20.1-8.3c-5.2-5.2-8.3-12.2-8.3-20.1V174.2c0-7.9,3.1-14.9,8.3-20.1
					s12.2-8.3,20.1-8.3H162c6.6,0,11.8-5.2,11.8-11.8v-12.7c0-4.8,1.7-9.2,4.8-12.2s7.4-4.8,12.2-4.8h130.7c4.8,0,9.2,1.7,12.2,4.8
					c3.1,3.1,4.8,7.4,4.8,12.2V134c0,6.6,5.2,11.8,11.8,11.8h84.4c7.9,0,14.9,3.1,20.1,8.3c5.2,5.2,8.3,12.2,8.3,20.1V392z"/>
				<path class="st0" d="M256,175.5c-29.7,0-56.8,12.2-76.1,31.5c-19.7,19.7-31.5,46.3-31.5,76.1s12.2,56.8,31.5,76.1
					c19.7,19.7,46.3,31.5,76.1,31.5c29.7,0,56.8-12.2,76.1-31.5c19.7-19.7,31.5-46.3,31.5-76.1s-12.2-56.8-31.5-76.1
					C312.8,187.8,285.7,175.5,256,175.5z M315.5,343c-15.3,14.9-36.3,24.5-59.5,24.5s-44.2-9.6-59.5-24.5
					c-15.3-15.3-24.5-36.3-24.5-59.5s9.6-44.2,24.5-59.5c15.3-15.3,36.3-24.5,59.5-24.5s44.2,9.6,59.5,24.5
					c15.3,15.3,24.5,36.3,24.5,59.5C340.4,306.7,330.8,327.7,315.5,343z"/>
				<circle class="st0" cx="411.7" cy="196.5" r="21.4"/>
			</g>
		</g>
	</g>
</g>
</svg>
