<svg xmlns="http://www.w3.org/2000/svg" width="54.344" height="49.158" viewBox="0 0 54.344 49.158">
  <path id="my-cards" d="M12.643,49.158a3.575,3.575,0,0,1-3.571-3.571V21.713a3.575,3.575,0,0,1,3.571-3.571h38.13a3.575,3.575,0,0,1,3.571,3.571V45.588a3.575,3.575,0,0,1-3.571,3.571ZM11.577,21.713V45.588a1.067,1.067,0,0,0,1.066,1.066h38.13a1.067,1.067,0,0,0,1.065-1.066V21.713a1.067,1.067,0,0,0-1.065-1.065H12.643A1.067,1.067,0,0,0,11.577,21.713ZM38.835,42.679a1.253,1.253,0,0,1,0-2.505h7.775a1.253,1.253,0,0,1,0,2.505Zm-11.663,0a1.253,1.253,0,0,1,0-2.505h6.479a1.253,1.253,0,0,1,0,2.505Zm-11.663,0a1.253,1.253,0,0,1,0-2.505h6.48a1.253,1.253,0,0,1,0,2.505Zm23.37-12.268A4.492,4.492,0,1,1,43.371,34.9,4.5,4.5,0,0,1,38.878,30.411Zm2.5,0a1.987,1.987,0,1,0,1.988-1.987A1.99,1.99,0,0,0,41.383,30.411Zm-37.586.6A4.043,4.043,0,0,1,0,26.772V4.25A4.255,4.255,0,0,1,4.25,0H41.021a4.255,4.255,0,0,1,4.25,4.25V15.508a1.253,1.253,0,1,1-2.505,0V14.169H2.505v12.6c0,.942.591,1.739,1.292,1.739H6.436a1.252,1.252,0,1,1,0,2.5ZM2.505,11.663h40.26V8.985H2.505Zm40.26-5.184V4.25a1.747,1.747,0,0,0-1.744-1.744H4.25A1.747,1.747,0,0,0,2.505,4.25v2.23Z" fill="#007c3d"/>
</svg>
