<svg xmlns="http://www.w3.org/2000/svg" width="60" height="60" viewBox="0 0 60 60">
  <g id="favorites" transform="translate(11559.851 -13098)">
    <g id="fd-rd" transform="translate(1733.149 35)" opacity="0">
      <g id="Group_39998" data-name="Group 39998" transform="translate(-445 184)" opacity="0.36">
        <rect id="Rectangle_18667" data-name="Rectangle 18667" width="60" height="60" transform="translate(-12848 12879)" fill="#adadad"/>
      </g>
    </g>
    <path id="Path_43977" data-name="Path 43977" d="M0,0H52V52H0Z" transform="translate(-11556 13102)" fill="#007c3d" opacity="0"/>
    <g id="noun_card_is_blocked_3645616" data-name="noun_card is blocked_3645616" transform="translate(-11562 13088)">
      <g id="Group_40088" data-name="Group 40088" transform="translate(6 20)">
        <g id="Group_40087" data-name="Group 40087">
          <path id="Path_43988" data-name="Path 43988" d="M52.091,20A5.909,5.909,0,0,1,58,25.909V49.545a10.637,10.637,0,0,1-19.411,6.013l-.11-.163.04.06H11.909A5.909,5.909,0,0,1,6,49.545V25.909A5.909,5.909,0,0,1,11.909,20ZM47.364,41.273a8.273,8.273,0,1,0,8.273,8.273A8.273,8.273,0,0,0,47.364,41.273Zm.3,2.364a3.25,3.25,0,0,1,3.25,3.25v.987a1.773,1.773,0,0,1,1.181,1.672v4.136a1.773,1.773,0,0,1-1.773,1.773H44.409a1.773,1.773,0,0,1-1.773-1.773V49.545a1.773,1.773,0,0,1,1.182-1.672v-.987a3.25,3.25,0,0,1,3.25-3.25Zm4.432-21.273H11.909a3.546,3.546,0,0,0-3.543,3.413l0,.133V49.545a3.546,3.546,0,0,0,3.413,3.543l.133,0H37.333l0-.008a10.706,10.706,0,0,1-.357-5.819l.018-.082H34.364a1.182,1.182,0,0,1,0-2.364h3.469l.082-.161A10.639,10.639,0,0,1,55.59,42.8l.085.106-.038-.048V25.909a3.546,3.546,0,0,0-3.413-3.543ZM49.727,50.136H45v2.955h1.182V52.5a1.182,1.182,0,1,1,2.364,0v.591h1.182ZM47.659,46h-.591a.886.886,0,0,0-.882.8l0,.085v.886h2.364v-.886a.886.886,0,0,0-.8-.882ZM19,44.818a1.182,1.182,0,1,1,0,2.364H13.091a1.182,1.182,0,1,1,0-2.364Zm10.636,0a1.182,1.182,0,1,1,0,2.364H23.727a1.182,1.182,0,0,1,0-2.364ZM20.182,28.273a3.545,3.545,0,0,1,3.545,3.545v4.727a3.545,3.545,0,0,1-3.545,3.545H15.455a3.545,3.545,0,0,1-3.545-3.545V31.818a3.545,3.545,0,0,1,3.545-3.545Zm1.182,7.091H14.273v1.182a1.182,1.182,0,0,0,1.094,1.179l.088,0h4.727a1.182,1.182,0,0,0,1.179-1.094l0-.088Zm-1.182-4.727H15.455a1.182,1.182,0,0,0-1.179,1.094l0,.088V33h7.091V31.818A1.182,1.182,0,0,0,20.27,30.64Zm30.727-2.364a1.182,1.182,0,1,1,0,2.364H45a1.182,1.182,0,1,1,0-2.364Z" transform="translate(-6 -20)" fill="#007c3d"/>
        </g>
      </g>
    </g>
  </g>
</svg>
