<svg xmlns="http://www.w3.org/2000/svg" width="32" height="32" viewBox="0 0 32 32">
  <g id="Group_40256" data-name="Group 40256" transform="translate(-126 -277)">
    <g id="Group_40202" data-name="Group 40202" transform="translate(-10045 79)">
      <g id="Group_40026" data-name="Group 40026" transform="translate(10171 198)" opacity="0">
        <rect id="Rectangle_18673" data-name="Rectangle 18673" width="32" height="32" fill="#e5e5e5"/>
      </g>
    </g>
    <g id="noun_cash_withdrawal_735456" data-name="noun_cash withdrawal_735456" transform="translate(123.9 262.7)">
      <g id="Group_40243" data-name="Group 40243" transform="translate(4.1 23.3)">
        <path id="Path_44128" data-name="Path 44128" d="M5.658,32.768H7.576a.6.6,0,0,0,0-1.2H5.658a.364.364,0,0,1-.36-.36V24.858a.364.364,0,0,1,.36-.36h24.36a.364.364,0,0,1,.36.36V31.21a.364.364,0,0,1-.36.36H28.1a.6.6,0,0,0,0,1.2h1.918a1.547,1.547,0,0,0,1.558-1.558V24.858A1.547,1.547,0,0,0,30.018,23.3H5.658A1.547,1.547,0,0,0,4.1,24.858V31.21A1.586,1.586,0,0,0,5.658,32.768Z" transform="translate(-4.1 -23.3)" fill="#007c3d"/>
        <path id="Path_44129" data-name="Path 44129" d="M33.126,46.024V34.1h.809a.346.346,0,0,1,.36.36v1.528a.6.6,0,0,0,1.2,0V34.458A1.547,1.547,0,0,0,33.935,32.9H15.358A1.547,1.547,0,0,0,13.8,34.458v1.528a.6.6,0,0,0,1.2,0V34.458a.346.346,0,0,1,.36-.36h.809V46.024ZM27.643,34.1a3.055,3.055,0,0,1-5.993,0Zm-3,3.655A4.234,4.234,0,0,0,28.841,34.1H29.98V40.57a3.018,3.018,0,0,0-2.337,2.337H21.65a3.018,3.018,0,0,0-2.337-2.337V34.1h1.139A4.234,4.234,0,0,0,24.646,37.754Zm-5.933,3.955a1.8,1.8,0,0,1,1.8,1.8v.6h8.27v-.6a1.8,1.8,0,0,1,1.8-1.8h.6V34.1H31.9V44.825H17.366V34.1h.719v7.61Z" transform="translate(-10.894 -30.024)" fill="#007c3d"/>
      </g>
    </g>
  </g>
</svg>
