<svg xmlns="http://www.w3.org/2000/svg" viewBox="0 0 22 16.5"><defs><style>.a{fill:#fff;}</style></defs><g transform="translate(0 -4)"><path class="a" d="M20.625,4H1.375A1.375,1.375,0,0,0,0,5.375v13.75A1.375,1.375,0,0,0,1.375,20.5h19.25A1.375,1.375,0,0,0,22,19.125V5.375A1.375,1.375,0,0,0,20.625,4Zm0,15.125H1.375V5.375h19.25Z"/><path class="a" d="M6.063,12.125H7.438A2.063,2.063,0,0,0,7.438,8H6.063a2.063,2.063,0,0,0,0,4.125Z" transform="translate(-1.25 -1.25)"/><path class="a" d="M24.063,12.125A2.062,2.062,0,1,0,22,10.063a2.062,2.062,0,0,0,2.062,2.062Zm0-2.75a.688.688,0,1,1-.687.688A.688.688,0,0,1,24.063,9.375Z" transform="translate(-6.875 -1.25)"/><rect class="a" width="16.5" height="1.375" transform="translate(2.75 12.938)"/><rect class="a" width="1.375" height="1.375" transform="translate(2.75 15.688)"/><rect class="a" width="1.375" height="1.375" transform="translate(5.5 15.688)"/><rect class="a" width="2.75" height="1.375" transform="translate(16.5 15.688)"/></g></svg>