<svg xmlns="http://www.w3.org/2000/svg" width="24" height="24" viewBox="0 0 24 24">
  <g id="feedback" transform="translate(0 -0.309)">
    <rect id="Rectangle_982" data-name="Rectangle 982" width="24" height="24" transform="translate(0 0.309)" fill="#7e2323" opacity="0"/>
    <path id="Path_15404" data-name="Path 15404" d="M0,0H20V20H0Z" transform="translate(2 2)" fill="#e88e8e" opacity="0"/>
    <path id="settings" d="M17.127,27.016v3.178a.669.669,0,0,1-1.338,0V27.016a2.679,2.679,0,0,0-2.676-2.676h-9.1a2.679,2.679,0,0,0-2.676,2.676v5.419a2.679,2.679,0,0,0,2.676,2.676H8.2a.669.669,0,1,1,0,1.338H4.014A4.019,4.019,0,0,1,0,32.435V27.016A4.019,4.019,0,0,1,4.014,23h9.1a4.019,4.019,0,0,1,4.014,4.014Zm-2.906,1.469a.669.669,0,0,0-.812-1.064L10.187,29.88a2.683,2.683,0,0,1-3.246,0l-3.19-2.433a.669.669,0,0,0-.811,1.064l3.19,2.433a4.024,4.024,0,0,0,4.869,0ZM16.8,33.444l-.446.267a2.839,2.839,0,0,1,0,1.73l.446.267a.669.669,0,1,1-.688,1.147l-.454-.272a2.842,2.842,0,0,1-1.343.756v.582a.669.669,0,0,1-1.338,0v-.582a2.843,2.843,0,0,1-1.367-.781l-.5.3a.669.669,0,1,1-.688-1.147l.5-.3a2.843,2.843,0,0,1,0-1.662l-.5-.3a.669.669,0,0,1,.688-1.147l.5.3a2.843,2.843,0,0,1,1.367-.781v-.582a.669.669,0,1,1,1.338,0v.582a2.842,2.842,0,0,1,1.343.756l.454-.272a.669.669,0,0,1,.689,1.147Zm-1.649,1.132a1.505,1.505,0,1,0-1.505,1.505A1.507,1.507,0,0,0,15.154,34.576Z" transform="translate(2.796 -17.161)" fill="#007c3d"/>
  </g>
</svg>
