<?xml version="1.0" encoding="utf-8"?>
<!-- Generator: Adobe Illustrator 23.0.1, SVG Export Plug-In . SVG Version: 6.00 Build 0)  -->
<svg version="1.1" id="Layer_1" xmlns="http://www.w3.org/2000/svg" xmlns:xlink="http://www.w3.org/1999/xlink" x="0px" y="0px"
	 viewBox="0 0 24 24" style="enable-background:new 0 0 24 24;" xml:space="preserve">
<style type="text/css">
	.st0{fill:#7E2323;fill-opacity:0;}
	.st1{fill:#E88E8E;fill-opacity:0;}
	.st2{fill:#007C3D;}
</style>
<g transform="translate(643 1998)">
	<rect x="-646.8" y="-2002.1" class="st0" width="31.4" height="31.4"/>
	<path class="st1" d="M-644.1-1999.5h26.1v26.1h-26.1V-1999.5z"/>
	<g transform="translate(-639.695 -1994.697)">
		<g transform="translate(0 0.001)">
			<g transform="translate(0 0)">
				<path class="st2" d="M8,18.1H0.9c-1,0-1.8-0.8-1.8-1.8V9c0-1,0.8-1.8,1.8-1.8h13c1,0,1.8,0.8,1.8,1.8v1.8c0,0.5,0.4,0.9,0.9,0.9
					c0.5,0,0.9-0.4,0.9-0.9c0,0,0,0,0-0.1V9c0-2-1.6-3.6-3.6-3.6h-1.1V2.2c0-2.9-2.4-5.3-5.4-5.3C4.4-3.1,2-0.7,1.9,2.2v3.2H0.9
					c-2,0-3.6,1.6-3.6,3.6v7.4c0,2,1.6,3.6,3.6,3.6H8c0.5,0,0.9-0.4,0.9-0.9C8.8,18.5,8.4,18.2,8,18.1z M3.7,2.2
					c0-2,1.6-3.5,3.6-3.5c2,0,3.6,1.5,3.6,3.5v3.2H3.7V2.2z"/>
				<path class="st2" d="M19.9,11.6c-0.4-0.3-1-0.2-1.3,0.2c0,0,0,0,0,0L14.2,18c-0.2,0.2-0.5,0.2-0.7,0.1c0,0,0,0,0,0l-2.9-2.8
					c-0.3-0.4-0.9-0.4-1.3,0c-0.4,0.3-0.4,0.9,0,1.3c0,0,0,0,0,0l2.9,2.8l0,0c0.4,0.4,1,0.6,1.6,0.6c0.1,0,0.1,0,0.2,0
					c0.6,0,1.2-0.4,1.6-0.9l0,0l4.5-6.2C20.4,12.4,20.3,11.9,19.9,11.6C19.9,11.6,19.9,11.6,19.9,11.6z"/>
			</g>
		</g>
	</g>
	<circle class="st2" cx="-637.6" cy="-1982.5" r="1.3"/>
	<circle class="st2" cx="-632.4" cy="-1982.5" r="1.3"/>
	<circle class="st2" cx="-627.2" cy="-1982.5" r="1.3"/>
</g>
</svg>
