<svg xmlns="http://www.w3.org/2000/svg" xmlns:xlink="http://www.w3.org/1999/xlink" width="345.8" height="499" viewBox="0 0 345.8 499">
  <defs>
    <linearGradient id="linear-gradient" x1="0.223" y1="1.013" x2="0.89" y2="-0.221" gradientUnits="objectBoundingBox">
      <stop offset="0" stop-color="#e6f2f2"/>
      <stop offset="1" stop-color="#fff"/>
    </linearGradient>
    <linearGradient id="linear-gradient-2" x1="0.152" y1="-0.029" x2="0.924" y2="1.144" gradientUnits="objectBoundingBox">
      <stop offset="0" stop-color="#ffb8aa"/>
      <stop offset="1" stop-color="#ff65bd"/>
    </linearGradient>
    <linearGradient id="linear-gradient-4" x1="0.152" y1="-0.029" x2="0.924" y2="1.144" gradientUnits="objectBoundingBox">
      <stop offset="0" stop-color="#fe89dd"/>
      <stop offset="0.109" stop-color="#e180e6"/>
      <stop offset="0.242" stop-color="#c578ee"/>
      <stop offset="0.386" stop-color="#b072f5"/>
      <stop offset="0.545" stop-color="#a06efa"/>
      <stop offset="0.729" stop-color="#976bfd"/>
      <stop offset="1" stop-color="#956bfe"/>
    </linearGradient>
    <linearGradient id="linear-gradient-5" y1="0.5" x2="1" y2="0.5" gradientUnits="objectBoundingBox">
      <stop offset="0" stop-color="#93e69a"/>
      <stop offset="1" stop-color="#1daec4"/>
    </linearGradient>
    <linearGradient id="linear-gradient-6" y1="0.5" x2="1" y2="0.5" gradientUnits="objectBoundingBox">
      <stop offset="0" stop-color="#e9e5f6"/>
      <stop offset="0.186" stop-color="#dae2f7"/>
      <stop offset="0.543" stop-color="#b3dcf9"/>
      <stop offset="1" stop-color="#79d3fe"/>
    </linearGradient>
    <linearGradient id="linear-gradient-10" x1="1.384" y1="-0.267" x2="-0.346" y2="1.022" gradientUnits="objectBoundingBox">
      <stop offset="0" stop-color="#f9d0c2"/>
      <stop offset="1" stop-color="#ff9992"/>
    </linearGradient>
    <linearGradient id="linear-gradient-11" y1="0.5" x2="1" y2="0.5" gradientUnits="objectBoundingBox">
      <stop offset="0" stop-color="#3b234c"/>
      <stop offset="0.337" stop-color="#402450"/>
      <stop offset="0.75" stop-color="#4f2a5c"/>
      <stop offset="1" stop-color="#5c2f67"/>
    </linearGradient>
    <linearGradient id="linear-gradient-12" x1="1.031" y1="-0.056" x2="-0.593" y2="1.452" xlink:href="#linear-gradient-10"/>
    <linearGradient id="linear-gradient-14" x1="0.488" y1="-0.146" x2="0.501" y2="1.022" xlink:href="#linear-gradient-5"/>
    <linearGradient id="linear-gradient-15" x1="-0.526" y1="0.386" x2="0.688" y2="0.577" xlink:href="#linear-gradient-5"/>
    <linearGradient id="linear-gradient-16" x1="1.083" y1="0.163" x2="0.275" y2="0.93" xlink:href="#linear-gradient-5"/>
    <linearGradient id="linear-gradient-17" x1="1.165" y1="0.555" x2="-0.137" y2="0.453" xlink:href="#linear-gradient-10"/>
    <linearGradient id="linear-gradient-18" x1="0" y1="0.5" x2="1" y2="0.5" xlink:href="#linear-gradient-10"/>
  </defs>
  <g id="Channel_Credentials" data-name="Channel Credentials" transform="translate(-1159.7 -222)">
    <g id="Group_36469" data-name="Group 36469" transform="translate(2334 3736)">
      <g id="Group_36458" data-name="Group 36458" transform="translate(-1927.875 -3727.492)">
        <circle id="Ellipse_2693" data-name="Ellipse 2693" cx="85.984" cy="85.984" r="85.984" transform="translate(912.563 213.492)" fill="url(#linear-gradient)"/>
        <circle id="Ellipse_2694" data-name="Ellipse 2694" cx="17.734" cy="17.734" r="17.734" transform="matrix(0.23, -0.973, 0.973, 0.23, 1022.907, 393.296)" opacity="0.25" fill="url(#linear-gradient-2)"/>
        <circle id="Ellipse_2695" data-name="Ellipse 2695" cx="13.877" cy="13.877" r="13.877" transform="translate(874.214 233.787) rotate(-22.301)" opacity="0.25" fill="url(#linear-gradient-2)"/>
        <circle id="Ellipse_2696" data-name="Ellipse 2696" cx="6.928" cy="6.928" r="6.928" transform="translate(972.871 394.382)" opacity="0.35" fill="url(#linear-gradient-4)"/>
        <g id="Group_36508" data-name="Group 36508" transform="translate(795.427 204.485)">
          <g id="Group_36466" data-name="Group 36466" transform="translate(180.134 87.7)">
            <g id="Group_36465" data-name="Group 36465" transform="translate(0)">
              <rect id="Rectangle_17812" data-name="Rectangle 17812" width="94.912" height="58.461" rx="2.08" fill="url(#linear-gradient-5)"/>
              <path id="Path_28539" data-name="Path 28539" d="M229.52,129.285H214.046a.979.979,0,0,1-.978-.978v-11.8a.978.978,0,0,1,.978-.976H229.52a.978.978,0,0,1,.978.976v11.8A.979.979,0,0,1,229.52,129.285Zm-15.474-13.438a.662.662,0,0,0-.662.662v11.8a.663.663,0,0,0,.662.663H229.52a.664.664,0,0,0,.663-.663v-11.8a.663.663,0,0,0-.663-.662Z" transform="translate(-204.407 -104.696)" fill="#f0f3f5"/>
              <path id="Path_28540" data-name="Path 28540" d="M230.391,124.86H213.12v-7.191h17.271Zm-17.115-.157h16.957v-6.877H213.277Z" transform="translate(-204.379 -103.553)" fill="#f0f3f5"/>
              <path id="Path_28541" data-name="Path 28541" d="M223.594,129.18H216.4v-13.6h7.191Zm-7.035-.158h6.878V115.74H216.56Z" transform="translate(-202.623 -104.669)" fill="#f0f3f5"/>
              <rect id="Rectangle_17813" data-name="Rectangle 17813" width="5.04" height="0.157" transform="translate(8.819 17.633)" fill="#f0f3f5"/>
              <rect id="Rectangle_17814" data-name="Rectangle 17814" width="5.04" height="0.157" transform="translate(20.893 17.633)" fill="#f0f3f5"/>
              <g id="Group_36464" data-name="Group 36464" transform="translate(14.601 32.778)" style="mix-blend-mode: lighten;isolation: isolate">
                <path id="Path_28542" data-name="Path 28542" d="M219.652,134.217c0,.071-.038.1-.114.1h-2.5c-.071,0-.1-.037-.1-.114s.034-.1.1-.1h1.15v-4.06h-1.134a.1.1,0,0,1-.112-.114q0-.106.12-.106h1.346v4.279h1.028v-1.5a.089.089,0,0,1,.034-.069.108.108,0,0,1,.072-.031.1.1,0,0,1,.071.034.112.112,0,0,1,.035.08Z" transform="translate(-216.938 -129.824)" fill="#fff"/>
                <path id="Path_28543" data-name="Path 28543" d="M222.789,134.111a.1.1,0,0,1,.064.029.106.106,0,0,1,.034.083.086.086,0,0,1-.1.1h-2.623V132.38a.427.427,0,0,1,.424-.424h2.086v-1.9h-2.418a.1.1,0,0,1-.114-.114.1.1,0,0,1,.034-.068.11.11,0,0,1,.086-.038h2.207a.393.393,0,0,1,.295.124.414.414,0,0,1,.121.3v1.5a.424.424,0,0,1-.121.307.392.392,0,0,1-.295.123h-2.086v1.929Z" transform="translate(-215.223 -129.824)" fill="#fff"/>
                <path id="Path_28544" data-name="Path 28544" d="M226.183,133.907a.391.391,0,0,1-.129.295.426.426,0,0,1-.3.12h-2.184a.093.093,0,0,1-.106-.1c0-.072.038-.106.114-.106h2.381V132.69a.51.51,0,0,0-.147-.356.477.477,0,0,0-.365-.158h-1.256c-.061,0-.091-.035-.091-.106s.032-.114.1-.114h1.254a.488.488,0,0,0,.367-.155.5.5,0,0,0,.147-.352v-1.4h-2.419c-.071,0-.106-.038-.106-.114s.038-.106.114-.106h2.2a.4.4,0,0,1,.3.121.411.411,0,0,1,.12.3v1.156a.842.842,0,0,1-.057.318.921.921,0,0,1-.261.325,1.476,1.476,0,0,1,.269.362.672.672,0,0,1,.064.273Z" transform="translate(-213.461 -129.824)" fill="#fff"/>
                <path id="Path_28545" data-name="Path 28545" d="M228.729,134.217a.093.093,0,0,1-.106.1c-.066,0-.1-.034-.1-.1v-1.506h-1.874v-2.766a.1.1,0,0,1,.041-.08.134.134,0,0,1,.088-.034.088.088,0,0,1,.068.034.139.139,0,0,1,.031.1v2.533h1.647v-2.011c0-.071.034-.107.1-.107a.106.106,0,0,1,.072.032.1.1,0,0,1,.034.075v2.011a1.262,1.262,0,0,1,.195.011.228.228,0,0,1,.1.031c.018.012.026.025.026.037v.028a.1.1,0,0,1-.037.091.291.291,0,0,1-.129.021h-.15Z" transform="translate(-211.743 -129.824)" fill="#fff"/>
                <path id="Path_28546" data-name="Path 28546" d="M234.495,133.907a.411.411,0,0,1-.416.414h-1.437a.7.7,0,0,1-.332-.075l-.462-.2a.1.1,0,0,1-.068-.106c0-.071.031-.106.091-.106a.3.3,0,0,1,.135.046l.387.166a.775.775,0,0,0,.249.061h1.641v-1.929h-1.876v-2.35h1.982a.092.092,0,0,1,.075.038.119.119,0,0,1,.031.075.131.131,0,0,1-.023.068.088.088,0,0,1-.083.038h-1.77v1.913h1.46a.433.433,0,0,1,.416.424Z" transform="translate(-208.998 -129.824)" fill="#fff"/>
                <path id="Path_28547" data-name="Path 28547" d="M237.777,134.217a.117.117,0,0,1-.106.1h-2.488a.1.1,0,0,1-.112-.114v-4.27a.109.109,0,0,1,.029-.072.115.115,0,0,1,.092-.034h.3a.09.09,0,0,1,.087.054.211.211,0,0,1,.026.089c0,.021-.014.038-.041.054a.489.489,0,0,1-.192.023h-.084V132.5h2.388a.1.1,0,0,1,.066.035.132.132,0,0,1,.034.094Zm-.212-.106v-1.392h-2.284v1.392Z" transform="translate(-207.238 -129.824)" fill="#fff"/>
                <path id="Path_28548" data-name="Path 28548" d="M239.154,134.208c0,.077-.035.114-.106.114a.118.118,0,0,1-.087-.034.112.112,0,0,1-.034-.08v-1.556a.15.15,0,0,1,.046-.121l1.217-1.028v-1.451h-2.23a1.232,1.232,0,0,1-.075.2.089.089,0,0,1-.077.052c-.074,0-.112-.034-.112-.106v-.256a.1.1,0,0,1,.038-.08.117.117,0,0,1,.083-.034h2.593v1.7a.162.162,0,0,1-.046.106l-1.21,1.028Z" transform="translate(-205.834 -129.824)" fill="#fff"/>
                <path id="Path_28549" data-name="Path 28549" d="M243.435,133.907a.4.4,0,0,1-.127.295.421.421,0,0,1-.295.12h-1.876a.415.415,0,0,1-.3-.12.4.4,0,0,1-.126-.295V132.38a.514.514,0,0,1,.02-.141.306.306,0,0,1,.083-.135.477.477,0,0,1,.189-.106,1.132,1.132,0,0,1,.344-.041v-2.018c0-.071.038-.106.114-.106h1.248a.1.1,0,0,1,.078.038.119.119,0,0,1,.035.083v2.011a1.108,1.108,0,0,1,.316.037.538.538,0,0,1,.19.1.276.276,0,0,1,.086.137.644.644,0,0,1,.018.152Zm-.21.2v-1.929h-2.292v1.929Zm-.628-2.147v-1.913h-1.044v1.913Z" transform="translate(-204.219 -129.824)" fill="#fff"/>
                <path id="Path_28550" data-name="Path 28550" d="M248.739,134.22c0,.071-.032.1-.1.1h-.316a.088.088,0,0,1-.084-.041.165.165,0,0,1-.021-.072.245.245,0,0,0,.018-.048.04.04,0,0,1,.026-.031.254.254,0,0,1,.083-.015c.041,0,.1,0,.181,0v-2.465h-2.381a.1.1,0,0,1-.083-.038.129.129,0,0,1-.031-.083v-1.587a.1.1,0,0,1,.038-.083.129.129,0,0,1,.083-.031h2.487a.112.112,0,0,1,.1.114Zm-.2-2.791v-1.375h-2.292v1.375Z" transform="translate(-201.374 -129.827)" fill="#fff"/>
                <path id="Path_28551" data-name="Path 28551" d="M252.04,133.929a.393.393,0,0,1-.114.273.379.379,0,0,1-.287.12h-1.92a.372.372,0,0,1-.287-.124.4.4,0,0,1-.114-.276v-3.7a.37.37,0,0,1,.121-.272.379.379,0,0,1,.279-.121h1.936a.364.364,0,0,1,.264.121.371.371,0,0,1,.121.272Zm-.2.183v-4.052h-2.3v4.052Z" transform="translate(-199.616 -129.824)" fill="#fff"/>
                <path id="Path_28552" data-name="Path 28552" d="M255.312,134.217c0,.071-.038.1-.114.1H252.7c-.071,0-.106-.037-.106-.114s.035-.1.106-.1h1.15v-4.06h-1.134a.1.1,0,0,1-.114-.114c0-.071.04-.106.121-.106h1.345v4.279H255.1v-1.5a.094.094,0,0,1,.034-.069.111.111,0,0,1,.072-.031.105.105,0,0,1,.072.034.11.11,0,0,1,.034.08Z" transform="translate(-197.862 -129.824)" fill="#fff"/>
                <path id="Path_28553" data-name="Path 28553" d="M258.45,134.111a.1.1,0,0,1,.064.029.106.106,0,0,1,.034.083.086.086,0,0,1-.1.1h-2.623V132.38a.424.424,0,0,1,.424-.424h2.086v-1.9h-2.419a.1.1,0,0,1-.114-.114.1.1,0,0,1,.034-.068.111.111,0,0,1,.087-.038h2.207a.4.4,0,0,1,.295.124.42.42,0,0,1,.121.3v1.5a.43.43,0,0,1-.121.307.394.394,0,0,1-.295.123h-2.086v1.929Z" transform="translate(-196.147 -129.824)" fill="#fff"/>
              </g>
              <rect id="Rectangle_17815" data-name="Rectangle 17815" width="13.386" height="3.759" transform="translate(13.937 42.155)" opacity="0.5" fill="url(#linear-gradient-6)" style="mix-blend-mode: multiply;isolation: isolate"/>
              <rect id="Rectangle_17816" data-name="Rectangle 17816" width="13.386" height="3.759" transform="translate(44.624 42.155)" opacity="0.5" fill="url(#linear-gradient-6)" style="mix-blend-mode: multiply;isolation: isolate"/>
              <rect id="Rectangle_17817" data-name="Rectangle 17817" width="22.401" height="3.759" transform="translate(44.624 47.93)" opacity="0.5" fill="url(#linear-gradient-6)" style="mix-blend-mode: multiply;isolation: isolate"/>
              <rect id="Rectangle_17818" data-name="Rectangle 17818" width="48.46" height="4.91" transform="translate(38.998 10.505)" fill="url(#linear-gradient-6)" style="mix-blend-mode: multiply;isolation: isolate"/>
            </g>
          </g>
        </g>
      </g>
    </g>
    <path id="Path_28670" data-name="Path 28670" d="M-1520.731-2547c71.707-5.75,70.234-5.072,119.286-2.666s70.734,4.877,76.923,12.29,8.379,16.527,0,20.027.059,3.6,21.008,10.349,10.313,21,10.313,21-32.389,19-99.907,19-98.3-7.5-168.875-19-75.575-23.75-74.125-38S-1592.438-2541.25-1520.731-2547Z" transform="translate(2796.001 3188)" fill="#efefef"/>
    <g id="Group_36507" data-name="Group 36507" transform="translate(695.042 105.085)">
      <path id="Path_28637" data-name="Path 28637" d="M602.352,371.456l-.066,1.222c-3.6,66.744-5.394,226.358-5.394,226.358h14.221S635.565,417.2,640.839,395.143c0,0,16.619,92.461,34.735,203.892h14.863s-3.064-139.887-17.329-230.316C639.728,368.853,602.352,371.456,602.352,371.456Z" transform="translate(-10.217 -54.275)" fill="#3068ab"/>
      <path id="Path_28638" data-name="Path 28638" d="M594.767,655.827s-15.335,8.146-11.662,12.152h26.975c.076.155.775-8.066-2.891-12.152Z" transform="translate(-3.477 -111.067)" fill="#7a90bc"/>
      <path id="Path_28639" data-name="Path 28639" d="M707.867,655.827s15.335,8.146,11.662,12.152H692.555c-.075.155-.775-8.066,2.891-12.152Z" transform="translate(-29.119 -111.067)" fill="#7a90bc"/>
      <path id="Path_28640" data-name="Path 28640" d="M673.81,366.575c-33.38.134-70.756,2.737-70.756,2.737l-.066,1.222c-.886,16.45-1.663,38.545-2.33,62.5C606.64,428.3,611.31,410.8,614,398.153a15.737,15.737,0,0,1,14.919-12.525c20.819-.489,46.133-10.77,46.146-10.776Q674.452,370.653,673.81,366.575Z" transform="translate(-9.074 -47.491)" fill="#231f20" opacity="0.1" style="mix-blend-mode: darken;isolation: isolate"/>
      <g id="Group_36506" data-name="Group 36506" transform="translate(598.249 156.915)">
        <path id="Path_28641" data-name="Path 28641" d="M628.753,207.165s1.014,15.118-1.143,17.755,3.955,6.712,9.829,6.712,10.668-8.15,10.668-8.15-2.877.1-2.877-4.083v-8.143Z" transform="translate(-612.223 -166.855)" fill="url(#linear-gradient-10)"/>
        <path id="Path_28642" data-name="Path 28642" d="M629.26,207.3c.939,1.247,8.833,11.448,16.382,12.107.031,0,.055,0,.087,0v-8.145l-16.217-4.026-.258-.048Z" transform="translate(-612.636 -166.859)" fill="#fa8579" opacity="0.34" style="mix-blend-mode: darken;isolation: isolate"/>
        <path id="Path_28643" data-name="Path 28643" d="M666.116,184.081a9.816,9.816,0,0,1-3.089,6.611c-3.064,2.787,0-8.56,0-8.56Z" transform="translate(-619.047 -161.903)" fill="url(#linear-gradient-11)"/>
        <path id="Path_28644" data-name="Path 28644" d="M628.122,200.46s22.373,14.224,24.931,0a177.881,177.881,0,0,0,2.4-29.086H620.93S614.058,195.506,628.122,200.46Z" transform="translate(-610.657 -159.775)" fill="url(#linear-gradient-12)"/>
        <path id="Path_28645" data-name="Path 28645" d="M659.249,181.932a111.2,111.2,0,0,0-9.707-10.558h-9.381l-.116.671s5.619,12.269,18.876,14.569C659.142,184.256,659.132,183.969,659.249,181.932Z" transform="translate(-614.77 -159.775)" fill="#fa8579" opacity="0.25" style="mix-blend-mode: darken;isolation: isolate"/>
        <path id="Path_28646" data-name="Path 28646" d="M636.2,169.981c2.205,2.942,8.091,9.05,19.272,9.679a1.045,1.045,0,0,0,1.093-.928c.258-2.419.666-8.845-1.6-13.255-4.515-8.79-13.5-10.368-25.37-6.752,0,0-10.068-1.8-16.54,5.873-8.262,9.792-5.753,25.41,12.162,36.672l.144-6.15a2.078,2.078,0,0,0-1.439-2.03c-2.232-.726-6.08-2.942-4.871-9.49a4.086,4.086,0,0,1,4.259-2.658,4.951,4.951,0,0,1,4,3.481.627.627,0,0,0,1.1.146,39.554,39.554,0,0,0,6.377-14.285A.8.8,0,0,1,636.2,169.981Z" transform="translate(-608.538 -156.915)" fill="url(#linear-gradient-11)"/>
      </g>
      <path id="Path_28647" data-name="Path 28647" d="M617.169,228.06a10.313,10.313,0,0,1,7.42,2.621,10.906,10.906,0,0,0,7.391,2.417,9.717,9.717,0,0,0,7.579-3.429,10.267,10.267,0,0,1,7.467-3.623c6.133-.153,13.593-.172,16.021,1.1,6.155,3.234,10.264,54.483,12.4,111.265.405,10.766-63.286,11.666-70,6.232s-1.859,1.843-1.859-38.749-.12-38-.12-38l-.77-28.63a10.361,10.361,0,0,1,8.7-10.525C613.31,228.446,615.309,228.188,617.169,228.06Z" transform="translate(-9.357 -13.66)" fill="url(#linear-gradient-14)"/>
      <path id="Path_28648" data-name="Path 28648" d="M627.207,227.047h0a22.423,22.423,0,0,0,8.17,5.287l1.639.61.664-.382a19.516,19.516,0,0,0,7.156-7.122h0l5,.486h0a39.646,39.646,0,0,1-1.754,14.728l-.029.091-10.9-7.289-9.27,9.985h0a45.687,45.687,0,0,1-5.539-14.667l-.167-.876Z" transform="translate(-13.07 -13.555)" fill="#9cfbb1"/>
      <path id="Path_28649" data-name="Path 28649" d="M677.358,227.116s18.933,9.483,32.209,58.487a15.1,15.1,0,0,1-2.591,13.25,26.935,26.935,0,0,1-16.6,9.869Z" transform="translate(-26.133 -13.886)" fill="url(#linear-gradient-15)"/>
      <path id="Path_28650" data-name="Path 28650" d="M635.3,240.391l2.992,4.33h5.356l2.178-5.22-6.083-4.066Z" transform="translate(-15.758 -15.532)" fill="#285e96"/>
      <path id="Path_28651" data-name="Path 28651" d="M601.883,230.205s-11.422-2.22-36.014,56.358a11.2,11.2,0,0,0,5.1,14.408c9.236,4.7,26.516,11.336,55.645,15.574,0,0,3.356-8.137,3.356-15.088,0,0-30.077-7.183-41.265-14.156l9.331-13.284,1.31-14.688Z" transform="translate(0 -14.495)" fill="url(#linear-gradient-16)"/>
      <rect id="Rectangle_17833" data-name="Rectangle 17833" width="16.752" height="3.409" transform="matrix(0.997, -0.079, 0.079, 0.997, 636.213, 242.806)" fill="#9cfbb1" opacity="0.72"/>
      <rect id="Rectangle_17834" data-name="Rectangle 17834" width="16.752" height="3.409" transform="matrix(0.997, -0.079, 0.079, 0.997, 602.849, 245.466)" fill="#9cfbb1" opacity="0.72"/>
      <path id="Path_28652" data-name="Path 28652" d="M639,247.011s4.89,32.287,4.18,90.8l7.7,7.485,5.721-8.977s-5.9-54.992-12.246-89.309Z" transform="translate(-16.708 -20.67)" fill="#285e96"/>
      <path id="Path_28653" data-name="Path 28653" d="M658.733,262.7l-11.977,71.437,38.221-3.219L697.088,262.7Z" transform="translate(-20.08 -24.007)" fill="#9addfc"/>
      <path id="Path_28654" data-name="Path 28654" d="M701.529,313.121s-11.856-1.093-11.716,2.61a4.49,4.49,0,0,0,1.637,2.625s-2.675.489-2.165,2.944,2.051,2.276,2.051,2.276-2.443.737-2.562,1.85,2.23,2.613,2.23,2.613-2.2,1.4-.987,2,9.04-.691,9.532-1.608a1.135,1.135,0,0,0-.18-1.461,8.243,8.243,0,0,0,.72-2.581c.037-.4,2.008-2.624.484-5.252C700.573,319.132,705.343,317,701.529,313.121Z" transform="translate(-28.391 -34.79)" fill="url(#linear-gradient-17)"/>
      <path id="Path_28655" data-name="Path 28655" d="M643.478,319.414c.4,0,7.658-6.865,7.658-6.865l-1.32,7.922h12.017a.741.741,0,0,1,.74.817c-.136,1.295-.633,3.672-2.458,3.672,0,0,.4,3.7-1.453,4.225,0,0-.688,6.82-16.8,3.574Z" transform="translate(-17.416 -34.735)" fill="url(#linear-gradient-18)"/>
    </g>
  </g>
</svg>
