<svg xmlns="http://www.w3.org/2000/svg" xmlns:xlink="http://www.w3.org/1999/xlink" width="35" height="105" viewBox="0 0 35 105">
  <defs>
    <clipPath id="clip-cheque-services">
      <rect width="35" height="105"/>
    </clipPath>
  </defs>
  <g id="cheque-services" clip-path="url(#clip-cheque-services)">
    <g id="apply-for-products-green" transform="translate(2.6 5.696)">
      <path id="Path_20016" data-name="Path 20016" d="M320.352,328.242H307.193a.793.793,0,0,1-.793-.793V311.193a.793.793,0,0,1,.793-.793h25.543a.793.793,0,0,1,.793.793v4.644a.793.793,0,1,1-1.587,0v-3.851H307.987v14.668h12.365a.793.793,0,1,1,0,1.587Z" transform="translate(-307 -311)" fill="#007c3d"/>
      <path id="Path_20017" data-name="Path 20017" d="M326.007,336.343a.794.794,0,0,1-.561-.232l-.713-.713a.794.794,0,0,1-.215-.724l.2-.93a7.54,7.54,0,0,1,2.054-3.794l9.648-9.649a2.919,2.919,0,0,1,4.129,4.128l-9.65,9.649a7.539,7.539,0,0,1-3.794,2.054l-.931.2A.79.79,0,0,1,326.007,336.343Zm.152-1.764.106.106.51-.107a5.956,5.956,0,0,0,3-1.623l9.65-9.649a1.332,1.332,0,0,0-1.885-1.884l-9.648,9.649a5.957,5.957,0,0,0-1.623,3Z" transform="translate(-311.09 -313.044)" fill="#007c3d"/>
      <path id="Line_565" data-name="Line 565" d="M3.2,3.993a.791.791,0,0,1-.561-.232L-.368.754A.793.793,0,0,1,.754-.368L3.76,2.638A.793.793,0,0,1,3.2,3.993Z" transform="translate(25.152 8.165)" fill="#007c3d"/>
      <path id="Line_566" data-name="Line 566" d="M3.2,3.993a.791.791,0,0,1-.561-.232L-.368.754A.793.793,0,0,1,.754-.368L3.76,2.638A.793.793,0,0,1,3.2,3.993Z" transform="translate(19.851 13.466)" fill="#007c3d"/>
      <path id="Path_20018" data-name="Path 20018" d="M338.914,333.178a.793.793,0,0,1-.561-1.354l4.542-4.542a.293.293,0,0,0-.414-.414l-1.24,1.241a.793.793,0,0,1-1.122-1.122l1.24-1.241a1.88,1.88,0,1,1,2.659,2.658l-4.542,4.542A.791.791,0,0,1,338.914,333.178Z" transform="translate(-314.168 -314.343)" fill="#007c3d"/>
      <path id="Line_567" data-name="Line 567" d="M.193,2.252A.793.793,0,0,1-.368.9L.9-.368A.793.793,0,0,1,2.02.754L.754,2.02A.791.791,0,0,1,.193,2.252Z" transform="translate(13.102 21.956)" fill="#007c3d"/>
      <path id="Line_570" data-name="Line 570" d="M11.8.987H.193A.793.793,0,0,1,.193-.6H11.8a.793.793,0,1,1,0,1.587Z" transform="translate(10.837 6.966)" fill="#007c3d"/>
      <path id="Line_571" data-name="Line 571" d="M7.16.987H.193A.793.793,0,0,1,.193-.6H7.16a.793.793,0,0,1,0,1.587Z" transform="translate(10.837 3.87)" fill="#007c3d"/>
      <path id="Line_572" data-name="Line 572" d="M7.934.987H.193A.793.793,0,0,1,.193-.6h7.74a.793.793,0,0,1,0,1.587Z" transform="translate(10.837 10.063)" fill="#007c3d"/>
      <path id="Union_5" data-name="Union 5" d="M2.527,5.979c-.067,0-.067,0-.251-.236l-.43-.556Q1.275,4.449.14,2.968L.113,2.932V2.74H.482c.772,0,1.224-.261,1.377-.8,0-.023,0-.043.007-.062H.164A.16.16,0,0,1,0,1.717V1.352a.162.162,0,0,1,.163-.146H1.8A.89.89,0,0,0,1.523.877a1.525,1.525,0,0,0-.694-.2H.164A.16.16,0,0,1,0,.513V.148A.162.162,0,0,1,.164,0H3.845a.162.162,0,0,1,.146.163V.513a.16.16,0,0,1-.163.163H2.769a1.578,1.578,0,0,1,.263.508l0,.021h.808a.161.161,0,0,1,.146.162v.349a.16.16,0,0,1-.163.163H3.081a1.742,1.742,0,0,1-.76,1.112L2.306,3a3.405,3.405,0,0,1-.766.351L3.407,5.771v.208Z" transform="translate(4.051 4.88)" fill="#007b3c"/>
    </g>
    <g id="apply-for-products-green-2" data-name="apply-for-products-green" transform="translate(2.6 40.696)">
      <path id="Path_20016-2" data-name="Path 20016" d="M320.352,328.242H307.193a.793.793,0,0,1-.793-.793V311.193a.793.793,0,0,1,.793-.793h25.543a.793.793,0,0,1,.793.793v4.644a.793.793,0,1,1-1.587,0v-3.851H307.987v14.668h12.365a.793.793,0,1,1,0,1.587Z" transform="translate(-307 -311)" fill="#fff200"/>
      <path id="Path_20017-2" data-name="Path 20017" d="M326.007,336.343a.794.794,0,0,1-.561-.232l-.713-.713a.794.794,0,0,1-.215-.724l.2-.93a7.54,7.54,0,0,1,2.054-3.794l9.648-9.649a2.919,2.919,0,0,1,4.129,4.128l-9.65,9.649a7.539,7.539,0,0,1-3.794,2.054l-.931.2A.79.79,0,0,1,326.007,336.343Zm.152-1.764.106.106.51-.107a5.956,5.956,0,0,0,3-1.623l9.65-9.649a1.332,1.332,0,0,0-1.885-1.884l-9.648,9.649a5.957,5.957,0,0,0-1.623,3Z" transform="translate(-311.09 -313.044)" fill="#fff200"/>
      <path id="Line_565-2" data-name="Line 565" d="M3.2,3.993a.791.791,0,0,1-.561-.232L-.368.754A.793.793,0,0,1,.754-.368L3.76,2.638A.793.793,0,0,1,3.2,3.993Z" transform="translate(25.152 8.165)" fill="#fff200"/>
      <path id="Line_566-2" data-name="Line 566" d="M3.2,3.993a.791.791,0,0,1-.561-.232L-.368.754A.793.793,0,0,1,.754-.368L3.76,2.638A.793.793,0,0,1,3.2,3.993Z" transform="translate(19.851 13.466)" fill="#fff200"/>
      <path id="Path_20018-2" data-name="Path 20018" d="M338.914,333.178a.793.793,0,0,1-.561-1.354l4.542-4.542a.293.293,0,0,0-.414-.414l-1.24,1.241a.793.793,0,0,1-1.122-1.122l1.24-1.241a1.88,1.88,0,1,1,2.659,2.658l-4.542,4.542A.791.791,0,0,1,338.914,333.178Z" transform="translate(-314.168 -314.343)" fill="#fff200"/>
      <path id="Line_567-2" data-name="Line 567" d="M.193,2.252A.793.793,0,0,1-.368.9L.9-.368A.793.793,0,0,1,2.02.754L.754,2.02A.791.791,0,0,1,.193,2.252Z" transform="translate(13.102 21.956)" fill="#fff200"/>
      <path id="Line_570-2" data-name="Line 570" d="M11.8.987H.193A.793.793,0,0,1,.193-.6H11.8a.793.793,0,1,1,0,1.587Z" transform="translate(10.837 6.966)" fill="#fff200"/>
      <path id="Line_571-2" data-name="Line 571" d="M7.16.987H.193A.793.793,0,0,1,.193-.6H7.16a.793.793,0,0,1,0,1.587Z" transform="translate(10.837 3.87)" fill="#fff200"/>
      <path id="Line_572-2" data-name="Line 572" d="M7.934.987H.193A.793.793,0,0,1,.193-.6h7.74a.793.793,0,0,1,0,1.587Z" transform="translate(10.837 10.063)" fill="#fff200"/>
      <path id="Union_5-2" data-name="Union 5" d="M2.527,5.979c-.067,0-.067,0-.251-.236l-.43-.556Q1.275,4.449.14,2.968L.113,2.932V2.74H.482c.772,0,1.224-.261,1.377-.8,0-.023,0-.043.007-.062H.164A.16.16,0,0,1,0,1.717V1.352a.162.162,0,0,1,.163-.146H1.8A.89.89,0,0,0,1.523.877a1.525,1.525,0,0,0-.694-.2H.164A.16.16,0,0,1,0,.513V.148A.162.162,0,0,1,.164,0H3.845a.162.162,0,0,1,.146.163V.513a.16.16,0,0,1-.163.163H2.769a1.578,1.578,0,0,1,.263.508l0,.021h.808a.161.161,0,0,1,.146.162v.349a.16.16,0,0,1-.163.163H3.081a1.742,1.742,0,0,1-.76,1.112L2.306,3a3.405,3.405,0,0,1-.766.351L3.407,5.771v.208Z" transform="translate(4.051 4.88)" fill="#fff200"/>
    </g>
    <g id="Group_39973" data-name="Group 39973" opacity="0">
      <rect id="Rectangle_18669" data-name="Rectangle 18669" width="35" height="35" fill="#e3e3e3"/>
      <rect id="Rectangle_18672" data-name="Rectangle 18672" width="35" height="35" transform="translate(0 35)" fill="#d5d5d5"/>
      <rect id="Rectangle_18673" data-name="Rectangle 18673" width="35" height="35" transform="translate(0 70)" fill="#c6c6c6"/>
      <rect id="Rectangle_18670" data-name="Rectangle 18670" width="31" height="31" transform="translate(2 2)" fill="#b5b5b5"/>
      <rect id="Rectangle_18678" data-name="Rectangle 18678" width="31" height="31" transform="translate(2 37)" fill="#b5b5b5"/>
      <rect id="Rectangle_18679" data-name="Rectangle 18679" width="31" height="31" transform="translate(2 72)" fill="#b5b5b5"/>
    </g>
    <g id="apply-for-products-green-3" data-name="apply-for-products-green" transform="translate(2.6 75.696)">
      <path id="Path_20016-3" data-name="Path 20016" d="M320.352,328.242H307.193a.793.793,0,0,1-.793-.793V311.193a.793.793,0,0,1,.793-.793h25.543a.793.793,0,0,1,.793.793v4.644a.793.793,0,1,1-1.587,0v-3.851H307.987v14.668h12.365a.793.793,0,1,1,0,1.587Z" transform="translate(-307 -311)" fill="#fff"/>
      <path id="Path_20017-3" data-name="Path 20017" d="M326.007,336.343a.794.794,0,0,1-.561-.232l-.713-.713a.794.794,0,0,1-.215-.724l.2-.93a7.54,7.54,0,0,1,2.054-3.794l9.648-9.649a2.919,2.919,0,0,1,4.129,4.128l-9.65,9.649a7.539,7.539,0,0,1-3.794,2.054l-.931.2A.79.79,0,0,1,326.007,336.343Zm.152-1.764.106.106.51-.107a5.956,5.956,0,0,0,3-1.623l9.65-9.649a1.332,1.332,0,0,0-1.885-1.884l-9.648,9.649a5.957,5.957,0,0,0-1.623,3Z" transform="translate(-311.09 -313.044)" fill="#fff"/>
      <path id="Line_565-3" data-name="Line 565" d="M3.2,3.993a.791.791,0,0,1-.561-.232L-.368.754A.793.793,0,0,1,.754-.368L3.76,2.638A.793.793,0,0,1,3.2,3.993Z" transform="translate(25.152 8.165)" fill="#fff"/>
      <path id="Line_566-3" data-name="Line 566" d="M3.2,3.993a.791.791,0,0,1-.561-.232L-.368.754A.793.793,0,0,1,.754-.368L3.76,2.638A.793.793,0,0,1,3.2,3.993Z" transform="translate(19.851 13.466)" fill="#fff"/>
      <path id="Path_20018-3" data-name="Path 20018" d="M338.914,333.178a.793.793,0,0,1-.561-1.354l4.542-4.542a.293.293,0,0,0-.414-.414l-1.24,1.241a.793.793,0,0,1-1.122-1.122l1.24-1.241a1.88,1.88,0,1,1,2.659,2.658l-4.542,4.542A.791.791,0,0,1,338.914,333.178Z" transform="translate(-314.168 -314.343)" fill="#fff"/>
      <path id="Line_567-3" data-name="Line 567" d="M.193,2.252A.793.793,0,0,1-.368.9L.9-.368A.793.793,0,0,1,2.02.754L.754,2.02A.791.791,0,0,1,.193,2.252Z" transform="translate(13.102 21.956)" fill="#fff"/>
      <path id="Line_570-3" data-name="Line 570" d="M11.8.987H.193A.793.793,0,0,1,.193-.6H11.8a.793.793,0,1,1,0,1.587Z" transform="translate(10.837 6.966)" fill="#fff"/>
      <path id="Line_571-3" data-name="Line 571" d="M7.16.987H.193A.793.793,0,0,1,.193-.6H7.16a.793.793,0,0,1,0,1.587Z" transform="translate(10.837 3.87)" fill="#fff"/>
      <path id="Line_572-3" data-name="Line 572" d="M7.934.987H.193A.793.793,0,0,1,.193-.6h7.74a.793.793,0,0,1,0,1.587Z" transform="translate(10.837 10.063)" fill="#fff"/>
      <path id="Union_5-3" data-name="Union 5" d="M2.527,5.979c-.067,0-.067,0-.251-.236l-.43-.556Q1.275,4.449.14,2.968L.113,2.932V2.74H.482c.772,0,1.224-.261,1.377-.8,0-.023,0-.043.007-.062H.164A.16.16,0,0,1,0,1.717V1.352a.162.162,0,0,1,.163-.146H1.8A.89.89,0,0,0,1.523.877a1.525,1.525,0,0,0-.694-.2H.164A.16.16,0,0,1,0,.513V.148A.162.162,0,0,1,.164,0H3.845a.162.162,0,0,1,.146.163V.513a.16.16,0,0,1-.163.163H2.769a1.578,1.578,0,0,1,.263.508l0,.021h.808a.161.161,0,0,1,.146.162v.349a.16.16,0,0,1-.163.163H3.081a1.742,1.742,0,0,1-.76,1.112L2.306,3a3.405,3.405,0,0,1-.766.351L3.407,5.771v.208Z" transform="translate(4.051 4.88)" fill="#fff"/>
    </g>
  </g>
</svg>
