<svg xmlns="http://www.w3.org/2000/svg" width="24" height="24" viewBox="0 0 24 24"><defs><style>.a,.b{fill:#fff;stroke:#feffff;stroke-width:0.8px;}.a{opacity:0;}.c{stroke:none;}.d{fill:none;}</style></defs><g transform="translate(18488 7989)"><g transform="translate(-17845 -5991)"><g class="a" transform="translate(-643 -1998)"><rect class="c" width="24" height="24"/><rect class="d" x="0.4" y="0.4" width="23.2" height="23.2"/></g><g class="a" transform="translate(-638 -1993)"><rect class="c" width="14" height="14"/><rect class="d" x="0.4" y="0.4" width="13.2" height="13.2"/></g></g><g transform="translate(-18483.039 -7984)"><path class="b" d="M.759,14A.721.721,0,0,1,.25,12.77L12.81.21a.72.72,0,0,1,1.019,1.019L1.269,13.788A.722.722,0,0,1,.759,14Zm0,0" transform="translate(0 0)"/><path class="b" d="M13.319,14a.715.715,0,0,1-.509-.211L.25,1.229A.72.72,0,0,1,1.269.21L13.828,12.77A.721.721,0,0,1,13.319,14Zm0,0" transform="translate(0 0)"/></g></g></svg>