<?xml version="1.0" encoding="utf-8"?>
<!-- Generator: Adobe Illustrator 23.0.1, SVG Export Plug-In . SVG Version: 6.00 Build 0)  -->
<svg version="1.1" id="Capa_1" xmlns="http://www.w3.org/2000/svg" xmlns:xlink="http://www.w3.org/1999/xlink" x="0px" y="0px"
	 viewBox="0 0 20 20" style="enable-background:new 0 0 20 20;" xml:space="preserve">
<style type="text/css">
	.st0{fill:#FFFFFF;}
</style>
<g>
	<g>
		<path class="st0" d="M19.3,3.9l-6,6.1l6.1,6.1c0.9,0.9,0.9,2.4,0,3.3c-0.5,0.5-1,0.7-1.6,0.7s-1.2-0.2-1.6-0.7L10,13.3l-6.1,6.1
			c-0.5,0.5-1,0.7-1.6,0.7s-1.2-0.2-1.6-0.7c-0.9-0.9-0.9-2.4,0-3.3l6-6.1l-6-6.1c-0.9-0.9-0.9-2.4,0-3.3s2.4-0.9,3.3,0l6,6.1
			l6.1-6.1c0.9-0.9,2.4-0.9,3.3,0C20.2,1.6,20.2,3,19.3,3.9z"/>
	</g>
</g>
</svg>
