<svg xmlns="http://www.w3.org/2000/svg" width="19.979" height="19.979" viewBox="0 0 19.979 19.979"><defs><style>.a{fill:#007c3d;}</style></defs><path class="a" d="M17.826.171a.585.585,0,0,0-.828,0L12.487,4.683H2.257A1.758,1.758,0,0,0,.5,6.439v8.195a1.758,1.758,0,0,0,1.756,1.756h.624v3a.585.585,0,0,0,1,.409l3.34-3.414h6.817A1.758,1.758,0,0,0,15.8,14.633V7.994l4.511-4.511a.586.586,0,0,0,0-.828Zm-5.381,9.52L10.789,8.035l4.967-4.967,1.656,1.656Zm-2.279-.624,1.247,1.247-2.138.891Zm4.461,5.566a.586.586,0,0,1-.585.585H6.979a.586.586,0,0,0-.418.176L4.052,17.959V15.8a.585.585,0,0,0-.585-.585H2.257a.586.586,0,0,1-.585-.585V6.439a.586.586,0,0,1,.585-.585h9.059L9.548,7.622a.6.6,0,0,0-.129.2L7.8,11.707H4.637a.585.585,0,1,0,0,1.17H8.189a.592.592,0,0,0,.23-.047l4.245-1.768a.594.594,0,0,0,.2-.129l1.768-1.768ZM18.24,3.9,16.584,2.241l.828-.828,1.656,1.656Zm0,0" transform="translate(-0.501)"/></svg>