<svg xmlns="http://www.w3.org/2000/svg" width="48.603" height="48.603" viewBox="0 0 48.603 48.603">
  <g id="feedback-2" opacity="0.5">
    <g id="Group_37801" data-name="Group 37801" transform="translate(0 0)">
      <g id="Group_37800" data-name="Group 37800">
        <path id="Path_43244" data-name="Path 43244" d="M48.6,18.778a1.1,1.1,0,0,0-.428-.873s-2.7-2.093-6.2-4.84V8.837a4.423,4.423,0,0,0-4.418-4.418H31.123C29.549,3.133,28.183,2,27.271,1.188a4.305,4.305,0,0,0-5.938,0C20.42,2,19.055,3.133,17.48,4.418H11.046A4.423,4.423,0,0,0,6.628,8.837v4.228c-3.5,2.747-6.2,4.839-6.2,4.84A1.1,1.1,0,0,0,0,18.778H0V44.184A4.423,4.423,0,0,0,4.418,48.6H44.184A4.423,4.423,0,0,0,48.6,44.184V18.778Zm-6.627-2.906c1.545,1.21,2.856,2.232,3.72,2.9-.863.67-2.176,1.692-3.72,2.9ZM22.8,2.841a2.11,2.11,0,0,1,3.009,0c.5.44,1.124.974,1.844,1.576h-6.7C21.673,3.816,22.3,3.282,22.8,2.841Zm-13.961,6a2.212,2.212,0,0,1,2.209-2.209h26.51a2.212,2.212,0,0,1,2.209,2.209V23.408c-4.945,3.883-11.147,8.817-13.96,11.307a2.393,2.393,0,0,1-1.539.633,2.253,2.253,0,0,1-1.5-.633c-2.83-2.506-9-7.423-13.925-11.3V8.837ZM6.628,15.873v5.811c-1.545-1.21-2.859-2.234-3.722-2.9C3.77,18.106,5.082,17.083,6.628,15.873ZM46.393,44.184a2.212,2.212,0,0,1-2.209,2.209H4.418a2.212,2.212,0,0,1-2.209-2.209V21.034C6.817,24.62,17.476,32.984,21.3,36.369a4.459,4.459,0,0,0,2.97,1.188,4.558,4.558,0,0,0,3-1.188c3.971-3.517,14.842-12.009,19.122-15.336Z" transform="translate(0 0)" fill="#646464"/>
        <circle id="Ellipse_2782" data-name="Ellipse 2782" cx="1.105" cy="1.105" r="1.105" transform="translate(19.883 15.464)" fill="#646464"/>
        <circle id="Ellipse_2783" data-name="Ellipse 2783" cx="1.105" cy="1.105" r="1.105" transform="translate(26.51 15.464)" fill="#646464"/>
        <path id="Path_43245" data-name="Path 43245" d="M190.3,195.821a1.1,1.1,0,0,0,1.97-1,6.593,6.593,0,0,0-10.813,0,1.1,1.1,0,0,0,.483,1.466,1.108,1.108,0,0,0,1.485-.464,4.47,4.47,0,0,1,6.874,0Z" transform="translate(-162.561 -172.117)" fill="#646464"/>
      </g>
    </g>
  </g>
</svg>
