<?xml version="1.0" encoding="utf-8"?>
<!-- Generator: Adobe Illustrator 23.0.1, SVG Export Plug-In . SVG Version: 6.00 Build 0)  -->
<svg version="1.1" id="Layer_1" xmlns="http://www.w3.org/2000/svg" xmlns:xlink="http://www.w3.org/1999/xlink" x="0px" y="0px"
	 viewBox="0 0 16 16" style="enable-background:new 0 0 16 16;" xml:space="preserve">
<style type="text/css">
	.st0{fill:#50BD59;}
</style>
<g id="completed" transform="translate(-26 -256.621)">
	<g id="Group_2036" transform="translate(29.94 261.911)">
		<g id="Group_802">
			<path id="Path_10661" class="st0" d="M7.7,0.3C7.5,0.1,7.1,0,6.9,0.3c0,0,0,0,0,0L3.1,3.9L1.3,2C1,1.8,0.7,1.8,0.4,2
				c-0.2,0.2-0.2,0.6,0,0.8l2.2,2.3c0.2,0.2,0.6,0.2,0.8,0l4.2-4C8,0.9,8,0.5,7.7,0.3z"/>
		</g>
	</g>
	<path id="Path_12680" class="st0" d="M34,257.3c-4.1,0-7.4,3.3-7.4,7.4s3.3,7.4,7.4,7.4s7.4-3.3,7.4-7.4
		C41.3,260.6,38.1,257.3,34,257.3z M34,270.8c-3.4,0-6.2-2.8-6.2-6.2c0-3.4,2.8-6.2,6.2-6.2s6.2,2.8,6.2,6.2l0,0
		C40.2,268,37.4,270.8,34,270.8z"/>
</g>
</svg>
