<?xml version="1.0" encoding="utf-8"?>
<!-- Generator: Adobe Illustrator 23.0.1, SVG Export Plug-In . SVG Version: 6.00 Build 0)  -->
<svg version="1.1" id="Layer_1" xmlns="http://www.w3.org/2000/svg" xmlns:xlink="http://www.w3.org/1999/xlink" x="0px" y="0px"
	 viewBox="0 0 30 30" style="enable-background:new 0 0 30 30;" xml:space="preserve">
<style type="text/css">
	.st0{fill:#525252;fill-opacity:0;}
	.st1{fill:#525252;}
</style>
<g transform="translate(0.923 0.451)">
	<polygon class="st0" points="-7,-5.3 -7,-5.3 -7,-5.3 	"/>
	<g transform="translate(3.737 3.637)">
		<path class="st1" d="M17.7,8V-2.6c0-0.5-0.4-0.9-0.9-0.9h-13C3.4-3.5,3-3.1,3-2.6V8h-6.6c-0.5,0-0.9,0.4-0.9,0.9v15.9
			c0,0.5,0.4,0.9,0.9,0.9h27.8c0.5,0,0.9-0.4,0.9-0.9V8.9c0-0.5-0.4-0.9-0.9-0.9H17.7z M16-1.8v13.4H4.7V-1.8H16z M3,9.7v1.9H1.6
			c-0.5,0-0.9,0.4-0.9,0.9l0,0l0,0c0,0.5,0.4,0.9,0.9,0.9H19c0.5,0,0.9-0.4,0.9-0.9l0,0c0-0.5-0.4-0.9-0.9-0.9h-1.3V9.7h5.7v5.6
			H-2.7V9.7L3,9.7z M-2.7,23.9V17h26.1v6.9L-2.7,23.9z"/>
		<g transform="translate(8.904 3.994)">
			<path class="st1" d="M1.4,2.5c0.4,0,0.8,0.2,0.9,0.6c0.1,0.3,0.4,0.5,0.7,0.5h0C3.6,3.5,4,3.2,4,2.7c0-0.1,0-0.2-0.1-0.3
				C3.2,1.1,1.6,0.5,0.3,1.1c-0.6,0.3-1,0.7-1.3,1.3c-0.2,0.4,0,0.9,0.4,1.1c0.1,0,0.2,0.1,0.3,0.1h0c0.3,0,0.6-0.2,0.7-0.5
				C0.6,2.7,1,2.5,1.4,2.5z"/>
			<path class="st1" d="M-0.5-2.1L-0.5-2.1c0.5,0,0.8,0.4,0.8,0.8c0,0,0,0,0,0v0c0,0.4-0.4,0.8-0.8,0.8l0,0h0
				c-0.4,0-0.8-0.4-0.8-0.8c0,0,0,0,0,0v0C-1.3-1.8-0.9-2.1-0.5-2.1L-0.5-2.1z"/>
			<path class="st1" d="M3.3-2.1L3.3-2.1c0.5,0,0.8,0.4,0.8,0.8c0,0,0,0,0,0v0c0,0.4-0.4,0.8-0.8,0.8l0,0h0c-0.4,0-0.8-0.4-0.8-0.8
				c0,0,0,0,0,0v0C2.5-1.8,2.8-2.1,3.3-2.1L3.3-2.1z"/>
		</g>
	</g>
</g>
</svg>
