<?xml version="1.0" encoding="utf-8"?>
<!-- Generator: Adobe Illustrator 23.0.1, SVG Export Plug-In . SVG Version: 6.00 Build 0)  -->
<svg version="1.1" id="Layer_1" xmlns="http://www.w3.org/2000/svg" xmlns:xlink="http://www.w3.org/1999/xlink" x="0px" y="0px"
	 viewBox="0 0 66 66" style="enable-background:new 0 0 66 66;" xml:space="preserve">
<style type="text/css">
	.st0{opacity:0.5;}
	.st1{fill:#646464;}
</style>
<g id="feedback-2" class="st0">
	<g id="Group_37801" transform="translate(0 0)">
		<g id="Group_37800">
			<path id="Path_43244" class="st1" d="M59.1,27.1c0-0.4-0.2-0.7-0.5-0.9c0,0-2.9-2.3-6.7-5.2v-4.5c0-2.6-2.1-4.7-4.8-4.8h-6.9
				c-1.7-1.4-3.2-2.6-4.1-3.5c-1.8-1.7-4.6-1.7-6.4,0c-1,0.9-2.4,2.1-4.1,3.5h-6.9c-2.6,0-4.7,2.1-4.8,4.8v4.5
				c-3.8,3-6.7,5.2-6.7,5.2c-0.3,0.2-0.5,0.6-0.5,0.9l0,0v27.3c0,2.6,2.1,4.7,4.8,4.7h42.8c2.6,0,4.7-2.1,4.7-4.7V27.1z M52,23.9
				c1.7,1.3,3.1,2.4,4,3.1c-0.9,0.7-2.3,1.8-4,3.1V23.9z M31.4,9.9c0.9-0.9,2.3-0.9,3.2,0c0,0,0,0,0,0c0.5,0.5,1.2,1,2,1.7h-7.2
				C30.2,11,30.8,10.4,31.4,9.9z M16.4,16.4c0-1.3,1.1-2.4,2.4-2.4h28.5c1.3,0,2.4,1.1,2.4,2.4V32c-5.3,4.2-12,9.5-15,12.2
				c-0.5,0.4-1,0.7-1.7,0.7c-0.6,0-1.2-0.3-1.6-0.7c-3-2.7-9.7-8-15-12.2L16.4,16.4L16.4,16.4z M14,23.9v6.2c-1.7-1.3-3.1-2.4-4-3.1
				C10.9,26.3,12.3,25.2,14,23.9z M56.8,54.4c0,1.3-1.1,2.4-2.4,2.4H11.6c-1.3,0-2.4-1.1-2.4-2.4V29.5c5,3.9,16.4,12.8,20.5,16.5
				c0.9,0.8,2,1.3,3.2,1.3c1.2,0,2.3-0.5,3.2-1.3c4.3-3.8,16-12.9,20.6-16.5L56.8,54.4z"/>
			<circle id="Ellipse_2782" class="st1" cx="29.4" cy="24.7" r="1.2"/>
			<circle id="Ellipse_2783" class="st1" cx="36.6" cy="24.7" r="1.2"/>
			<path id="Path_43245" class="st1" d="M36.7,32.4c0.3,0.6,1,0.8,1.6,0.5s0.8-1,0.5-1.6l0,0c-2.2-3.2-6.7-4-9.9-1.8
				c-0.7,0.5-1.3,1.1-1.8,1.8c-0.3,0.6-0.1,1.3,0.5,1.6c0.6,0.3,1.3,0.1,1.6-0.5c1.7-2,4.7-2.3,6.8-0.6
				C36.3,31.9,36.5,32.1,36.7,32.4L36.7,32.4z"/>
		</g>
	</g>
</g>
</svg>
