<svg xmlns="http://www.w3.org/2000/svg" width="30" height="30" viewBox="0 0 30 30">
  <g id="Group_40200" data-name="Group 40200" transform="translate(-239 -916)">
    <rect id="Rectangle_18673" data-name="Rectangle 18673" width="30" height="30" transform="translate(239 916)" fill="#7e4343" opacity="0"/>
    <path id="Shape" d="M14.45,20c-2.973,0-6.664-1.846-9.634-4.817a16.982,16.982,0,0,1-4.485-7.3C-.345,5.36.021,3.232,1.363,1.889c.521-.528.678-.686,1.16-1.16A2.674,2.674,0,0,1,4.4,0a2.578,2.578,0,0,1,1.83.729A31.976,31.976,0,0,1,8.979,4.255c.519.575.48,1.276-.118,2.083a5.464,5.464,0,0,1-.435.509c-.082.086-.146.151-.28.285l-.758.759L7.38,7.9a.049.049,0,0,0-.01.035A7.515,7.515,0,0,0,9.3,10.7a7.5,7.5,0,0,0,2.766,1.926.05.05,0,0,0,.035-.01l.766-.766a5.731,5.731,0,0,1,.953-.828,1.922,1.922,0,0,1,1.042-.359,1.293,1.293,0,0,1,.88.352,29.858,29.858,0,0,1,3.534,2.765,2.7,2.7,0,0,1,.006,3.681c-.306.323-.7.717-1.169,1.17A5.029,5.029,0,0,1,14.45,20ZM4.385,2a.688.688,0,0,0-.459.149c-.488.482-.649.642-1.144,1.145-.876.876-1.024,2.5-.4,4.459A15.467,15.467,0,0,0,6.23,13.769C8.8,16.338,12.018,18,14.436,18a3.129,3.129,0,0,0,2.272-.792c.455-.44.831-.815,1.117-1.117a.711.711,0,0,0,.006-.919,28.006,28.006,0,0,0-3.05-2.377,6.9,6.9,0,0,0-.505.474l-.766.766a1.868,1.868,0,0,1-1.368.56c-1.151,0-2.664-.88-4.26-2.477-2.4-2.4-3.094-4.451-1.915-5.631l.766-.766c.123-.123.179-.181.245-.251.095-.1.169-.183.227-.255a29.87,29.87,0,0,0-2.384-3.06A.623.623,0,0,0,4.385,2Z" transform="translate(244.5 921)" fill="#707273" stroke="#fff" stroke-width="0.5"/>
  </g>
</svg>
