<svg xmlns="http://www.w3.org/2000/svg" xmlns:xlink="http://www.w3.org/1999/xlink" width="22.066" height="22.05" viewBox="0 0 22.066 22.05"><defs><style>.a{fill:url(#a);}</style><linearGradient id="a" x1="0.5" x2="0.5" y2="1" gradientUnits="objectBoundingBox"><stop offset="0" stop-color="#629a04"/><stop offset="1" stop-color="#007c3d"/></linearGradient></defs><path class="a" d="M21.239,15.8c-.962-.882-1.844-1.844-2.726-2.726a2.325,2.325,0,0,0-3.368,0l-.16.08c-.481.481-.962.882-1.443,1.443a.3.3,0,0,0-.241-.08,2.4,2.4,0,0,1-.641-.321A17.2,17.2,0,0,1,8.57,10.5,9.2,9.2,0,0,1,7.207,8.419l1.2-1.2L8.731,6.9a2.292,2.292,0,0,0,0-3.448l-.962-.962-.241-.4h0l-.4-.4L6.165.722A2.325,2.325,0,0,0,2.8.722l-.722.722-.962.962A3.757,3.757,0,0,0-.009,4.731,7.431,7.431,0,0,0,.632,8.419,23.982,23.982,0,0,0,4.4,14.753a23.334,23.334,0,0,0,7.7,6.014,11.688,11.688,0,0,0,4.41,1.283h.321a3.508,3.508,0,0,0,2.886-1.283l.962-.962a3.487,3.487,0,0,1,.561-.481A2.381,2.381,0,0,0,21.239,15.8ZM20.2,18.281a3.487,3.487,0,0,1-.561.481,14.334,14.334,0,0,0-1.042,1.123,2.332,2.332,0,0,1-2.085.722,11.927,11.927,0,0,1-3.849-1.123,23.7,23.7,0,0,1-7.3-5.693A21.489,21.489,0,0,1,1.835,7.938a8.868,8.868,0,0,1-.481-3.047A2.177,2.177,0,0,1,2,3.528,12.775,12.775,0,0,0,3.038,2.486l.641-.641a1.5,1.5,0,0,1,.8-.4,1.108,1.108,0,0,1,.722.4l.962.962.4.4.4.4.962.962c.561.561.561.962,0,1.443l-.4.321c-.4.4-.882.882-1.363,1.283a1.025,1.025,0,0,0-.241,1.2,10.6,10.6,0,0,0,1.6,2.646,17.122,17.122,0,0,0,4.41,4.009,3.25,3.25,0,0,0,.722.4c.16.08.241.08.4.16a1.214,1.214,0,0,0,1.363-.16c.561-.481,1.042-1.042,1.523-1.523l.16-.08a.9.9,0,0,1,1.443,0L20.277,17C20.678,17.239,20.678,17.8,20.2,18.281Z" transform="translate(0.045)"/></svg>