<svg xmlns="http://www.w3.org/2000/svg" width="13.879" height="16.488" viewBox="0 0 13.879 16.488"><defs><style>.a{fill:#007c3d;}</style></defs><path class="a" d="M8.727,16.488H2.576A2.579,2.579,0,0,1,0,13.911V5.185A2.579,2.579,0,0,1,2.576,2.608H8.727A2.579,2.579,0,0,1,11.3,5.185v8.727A2.579,2.579,0,0,1,8.727,16.488ZM2.576,3.9A1.29,1.29,0,0,0,1.288,5.185v8.727A1.29,1.29,0,0,0,2.576,15.2H8.727a1.29,1.29,0,0,0,1.288-1.288V5.185A1.29,1.29,0,0,0,8.727,3.9Zm11.3,8.4V2.576A2.579,2.579,0,0,0,11.3,0H4.154a.644.644,0,1,0,0,1.288H11.3a1.29,1.29,0,0,1,1.288,1.288V12.3a.644.644,0,1,0,1.288,0Zm0,0"/></svg>