<svg xmlns="http://www.w3.org/2000/svg" width="18.022" height="18.023" viewBox="0 0 18.022 18.023"><defs><style>.a{fill:#007c3d;}</style></defs><g transform="translate(13.175 15.943)"><path class="a" d="M44.693,54.08a.693.693,0,0,1,0-1.387h0a.693.693,0,1,1,1.386,0A1.388,1.388,0,0,1,44.693,54.08Z" transform="translate(-44 -52)"/></g><g transform="translate(13.869 9.142)"><path class="a" d="M46.693,40.573A.694.694,0,0,1,46,39.879v-6.8a.693.693,0,1,1,1.387,0v6.8A.694.694,0,0,1,46.693,40.573Z" transform="translate(-46 -32.385)"/></g><g transform="translate(0.693 16.636)"><path class="a" d="M21.175,55.387H8.693a.693.693,0,0,1,0-1.387H21.175a.693.693,0,1,1,0,1.387Z" transform="translate(-8 -54)"/></g><g transform="translate(0 15.943)"><path class="a" d="M7.387,54.08A1.388,1.388,0,0,1,6,52.693a.693.693,0,1,1,1.387,0h0a.693.693,0,1,1,0,1.386Z" transform="translate(-6 -52)"/></g><g transform="translate(0 3.461)"><path class="a" d="M6.693,29.869A.694.694,0,0,1,6,29.175V16.693a.693.693,0,1,1,1.387,0V29.175A.694.694,0,0,1,6.693,29.869Z" transform="translate(-6 -16)"/></g><g transform="translate(0 2.767)"><path class="a" d="M6.693,16.08A.693.693,0,0,1,6,15.387,1.388,1.388,0,0,1,7.387,14a.693.693,0,0,1,0,1.387h0A.693.693,0,0,1,6.693,16.08Z" transform="translate(-6 -14)"/></g><g transform="translate(0.693 2.767)"><path class="a" d="M15.494,15.387h-6.8a.693.693,0,0,1,0-1.387h6.8a.693.693,0,0,1,0,1.387Z" transform="translate(-8 -14)"/></g><g transform="translate(6.911 0.501)"><path class="a" d="M26.625,15.625a.693.693,0,0,1-.49-1.184l6.773-6.773a.693.693,0,0,1,.981.981l-6.773,6.773A.691.691,0,0,1,26.625,15.625Z" transform="translate(-25.931 -7.465)"/></g><g transform="translate(6.241 7.273)"><path class="a" d="M24.694,31.505a.679.679,0,0,1-.146-.016.693.693,0,0,1-.533-.823l.67-3.121a.693.693,0,0,1,1.356.291l-.67,3.121A.694.694,0,0,1,24.694,31.505Z" transform="translate(-24 -26.997)"/></g><g transform="translate(9.362 2.953)"><path class="a" d="M33.7,22.695a.693.693,0,0,1-.49-1.184l6.773-6.773a.693.693,0,1,1,.981.981l-6.773,6.773a.69.69,0,0,1-.49.2Z" transform="translate(-33.002 -14.535)"/></g><g transform="translate(6.241 9.726)"><path class="a" d="M24.692,36.125a.693.693,0,0,1-.145-1.371l3.121-.67a.693.693,0,1,1,.291,1.356l-3.121.67a.7.7,0,0,1-.146.016Z" transform="translate(-23.999 -34.069)"/></g><g transform="translate(12.458 1.727)"><path class="a" d="M45.074,14.839a.69.69,0,0,1-.49-.2l-2.452-2.452a.693.693,0,0,1,.981-.981l2.452,2.452a.693.693,0,0,1-.49,1.184Z" transform="translate(-41.929 -11)"/></g><g transform="translate(13.682)"><path class="a" d="M48.608,10.359a.694.694,0,0,1-.491-1.184,1.056,1.056,0,0,0,0-1.47,1.082,1.082,0,0,0-1.471,0,.693.693,0,1,1-.981-.981A2.427,2.427,0,0,1,49.1,10.156a.688.688,0,0,1-.49.2Z" transform="translate(-45.462 -6.019)"/></g></svg>