<svg xmlns="http://www.w3.org/2000/svg" width="32" height="32" viewBox="0 0 32 32">
  <g id="Group_40202" data-name="Group 40202" transform="translate(-10171 -198)">
    <g id="Group_40026" data-name="Group 40026" transform="translate(10171 198)" opacity="0">
      <rect id="Rectangle_18673" data-name="Rectangle 18673" width="32" height="32" fill="#fff"/>
      <rect id="Rectangle_18674" data-name="Rectangle 18674" width="28.343" height="28.343" transform="translate(1.829 1.829)" fill="#bcbcbc"/>
    </g>
    <g id="noun_Time_Deposit_3157212" data-name="noun_Time Deposit_3157212" transform="translate(10170 195.889)">
      <path id="Path_43348" data-name="Path 43348" d="M16.111,7a11.111,11.111,0,1,0,4.5,21.271.667.667,0,1,0-.539-1.219,9.778,9.778,0,1,1,5.437-11.647.667.667,0,1,0,1.281-.369A11.116,11.116,0,0,0,16.111,7Z" transform="translate(0 0)" fill="#007c3d"/>
      <path id="Path_43349" data-name="Path 43349" d="M43.667,29a.667.667,0,1,0,0,1.333h5.111v1.7a1.758,1.758,0,0,1-.692,1.332,10.069,10.069,0,0,1-1.53,1.052,10.069,10.069,0,0,1-1.53-1.052,1.758,1.758,0,0,1-.692-1.332.667.667,0,1,0-1.333,0,3.175,3.175,0,0,0,1.114,2.3,8.488,8.488,0,0,0,1.276.887,8.489,8.489,0,0,0-1.276.887A3.174,3.174,0,0,0,43,38.414v2.364a.667.667,0,0,0,.667.667h5.778a.667.667,0,1,0,0-1.333H44.333v-1.7a1.758,1.758,0,0,1,.692-1.332,10.069,10.069,0,0,1,1.53-1.052,10.069,10.069,0,0,1,1.53,1.052,1.758,1.758,0,0,1,.692,1.332.667.667,0,1,0,1.333,0A3.175,3.175,0,0,0,49,36.109a8.489,8.489,0,0,0-1.276-.887A8.488,8.488,0,0,0,49,34.335a3.174,3.174,0,0,0,1.114-2.3V29.667A.667.667,0,0,0,49.444,29Z" transform="translate(-21.111 -12.222)" fill="#007c3d"/>
      <path id="Path_43350" data-name="Path 43350" d="M6.156-10.383H4.674a2.557,2.557,0,0,1,.509,1.244H6.445l-.289.992H5.2a2.251,2.251,0,0,1-.886,1.683A3.578,3.578,0,0,1,2.168-5.9l3.1,3.592v.075H3.839L.51-6.106.5-6.891H2.068a2.243,2.243,0,0,0,1.275-.342,1.468,1.468,0,0,0,.622-.914H.328l.289-.992H3.952q-.3-1.193-1.846-1.244H.341l.3-.992h5.81Z" transform="translate(12.672 25.041)" fill="#007c3d"/>
    </g>
  </g>
</svg>
