<svg xmlns="http://www.w3.org/2000/svg" width="14" height="14" viewBox="0 0 14 14"><defs><style>.a{fill:#7e2323;opacity:0;}.b{fill:#b8400d;}.c{fill:#fff;}</style></defs><g transform="translate(-145.339 -606.339)"><g transform="translate(145 606)"><rect class="a" width="14" height="14" transform="translate(0.339 0.339)"/><g transform="translate(1.468 1.468)"><circle class="b" cx="6" cy="6" r="6" transform="translate(-0.129 -0.129)"/><path class="b" d="M162.323,33.84a.323.323,0,0,0-.456,0l-3.617,3.617-.82-.82a.323.323,0,1,0-.456.456l1.049,1.049a.323.323,0,0,0,.456,0l3.845-3.845A.323.323,0,0,0,162.323,33.84Z" transform="translate(-153.842 -30.176)"/></g></g><path class="c" d="M1.558-1.2.054.907h.8L1.969-.753,3.086.907h.845L2.38-1.257,3.76-3.1H2.97l-1,1.4L1.008-3.1H.163Z" transform="translate(150.276 614.492)"/></g></svg>