<svg xmlns="http://www.w3.org/2000/svg" width="72.763" height="72" viewBox="0 0 72.763 72"><defs><style>.a{fill:#f7f8fa;}</style></defs><path class="a" d="M72.764,34.658A32,32,0,0,0,40.74,2.685,32.1,32.1,0,0,0,17.212,12.967a9.847,9.847,0,0,0-3.426-.61h0a9.8,9.8,0,0,0-6.978,2.9,1.415,1.415,0,0,0-.11.124L4.471,18.2A20.867,20.867,0,0,0,.309,27.484a20.336,20.336,0,0,0,.8,10.145,14,14,0,0,0,3.033,5.347L31.685,70.568a12.52,12.52,0,0,0,3.973,2.521,19.955,19.955,0,0,0,7.84,1.6,20.585,20.585,0,0,0,12.521-4.27l3.169-2.433a1.451,1.451,0,0,0,.141-.123,9.9,9.9,0,0,0,2.624-9.249,31.949,31.949,0,0,0,10.81-23.951ZM57.381,65.787,54.289,68.16a17.529,17.529,0,0,1-17.516,2.314A9.765,9.765,0,0,1,33.7,68.56L6.15,40.968A11.294,11.294,0,0,1,3.791,36.7,17.624,17.624,0,0,1,6.7,19.962l2.175-2.756a7.009,7.009,0,0,1,9.875.056L23.3,21.821a6.739,6.739,0,0,1,0,9.508l-5.1,5.109a1.421,1.421,0,0,0,0,2.008l17.97,18a1.421,1.421,0,0,0,1.006.417h0a1.421,1.421,0,0,0,1.006-.418l5.1-5.109a6.692,6.692,0,0,1,9.482,0l4.551,4.559a7.059,7.059,0,0,1,.063,9.894ZM55.208,49.756l-.429-.43a9.534,9.534,0,0,0-13.506,0l-4.091,4.1L21.22,37.442l4.095-4.1a9.588,9.588,0,0,0,.341-13.164A20.912,20.912,0,1,1,55.208,49.756Zm4.122,4.129-2.113-2.117a23.754,23.754,0,1,0-33.56-33.616l-2.893-2.9a10.04,10.04,0,0,0-.983-.865A29.156,29.156,0,1,1,60.819,55.8,9.872,9.872,0,0,0,59.33,53.885Z" transform="translate(0 -2.685)"/><path class="a" d="M302.589,177.657h-.2c.022-3.842.034-7.949-.014-8.52a2.963,2.963,0,0,0-1.971-2.675,2.853,2.853,0,0,0-3.071,1.123c-.909,1.12-5.105,8.717-6.37,11.018a1.826,1.826,0,0,0,1.6,2.7h6.15c-.007,1.024-.015,2.006-.023,2.893a1.826,1.826,0,0,0,1.81,1.841h.016a1.826,1.826,0,0,0,1.825-1.81c0-.548.013-1.608.023-2.924h.229a1.826,1.826,0,0,0,0-3.652Zm-3.857,0h-3.077c1.141-2.05,2.254-4.016,3.1-5.467C298.751,173.688,298.743,175.636,298.732,177.657Z" transform="translate(-248.431 -144.881)"/><path class="a" d="M229.76,183.945c-1.606.02-3.309.034-4.722.036.887-1.191,2.121-2.884,3.789-5.277a12.212,12.212,0,0,0,1.979-4.116,6.406,6.406,0,0,0,.126-1.031,5.912,5.912,0,0,0-11.715-1.146,1.826,1.826,0,0,0,3.584.7,2.26,2.26,0,0,1,4.478.346l-.05.39a8.9,8.9,0,0,1-1.4,2.768c-2.53,3.63-4.04,5.616-4.851,6.682-1,1.318-1.46,1.919-1.148,2.929a1.9,1.9,0,0,0,1.232,1.25c.244.082.478.16,3.584.16,1.219,0,2.881-.012,5.158-.041a1.826,1.826,0,0,0-.046-3.651Z" transform="translate(-189.392 -146.028)"/></svg>