<svg xmlns="http://www.w3.org/2000/svg" xmlns:xlink="http://www.w3.org/1999/xlink" width="35" height="105" viewBox="0 0 35 105">
  <defs>
    <clipPath id="clip-dashboard">
      <rect width="35" height="105"/>
    </clipPath>
  </defs>
  <g id="dashboard" clip-path="url(#clip-dashboard)">
    <g id="Group_39966" data-name="Group 39966" opacity="0">
      <rect id="Rectangle_18669" data-name="Rectangle 18669" width="35" height="35" fill="#fff"/>
      <rect id="Rectangle_18672" data-name="Rectangle 18672" width="35" height="35" transform="translate(0 35)" fill="#fff"/>
      <rect id="Rectangle_18673" data-name="Rectangle 18673" width="35" height="35" transform="translate(0 70)" fill="#fff"/>
      <rect id="Rectangle_18670" data-name="Rectangle 18670" width="31" height="31" transform="translate(2 2)" fill="#bcbcbc"/>
      <rect id="Rectangle_18671" data-name="Rectangle 18671" width="31" height="31" transform="translate(2 37)" fill="#bcbcbc"/>
      <rect id="Rectangle_18674" data-name="Rectangle 18674" width="31" height="31" transform="translate(2 72)" fill="#bcbcbc"/>
    </g>
    <g id="dashboard-green" transform="translate(2 2)">
      <g id="Group_8454" data-name="Group 8454" transform="translate(6.526 6.526)">
        <path id="Rectangle_16930" data-name="Rectangle 16930" d="M3.263,1.958A1.307,1.307,0,0,0,1.958,3.263V4.895A1.307,1.307,0,0,0,3.263,6.2H4.895A1.307,1.307,0,0,0,6.2,4.895V3.263A1.307,1.307,0,0,0,4.895,1.958H3.263M3.263,0H4.895A3.263,3.263,0,0,1,8.158,3.263V4.895A3.263,3.263,0,0,1,4.895,8.158H3.263A3.263,3.263,0,0,1,0,4.895V3.263A3.263,3.263,0,0,1,3.263,0Z" fill="#007c3d"/>
        <path id="Rectangle_16931" data-name="Rectangle 16931" d="M3.263,1.958A1.307,1.307,0,0,0,1.958,3.263V4.895A1.307,1.307,0,0,0,3.263,6.2H4.895A1.307,1.307,0,0,0,6.2,4.895V3.263A1.307,1.307,0,0,0,4.895,1.958H3.263M3.263,0H4.895A3.263,3.263,0,0,1,8.158,3.263V4.895A3.263,3.263,0,0,1,4.895,8.158H3.263A3.263,3.263,0,0,1,0,4.895V3.263A3.263,3.263,0,0,1,3.263,0Z" transform="translate(9.789)" fill="#007c3d"/>
        <path id="Rectangle_16932" data-name="Rectangle 16932" d="M3.263,1.958A1.307,1.307,0,0,0,1.958,3.263V4.895A1.307,1.307,0,0,0,3.263,6.2H4.895A1.307,1.307,0,0,0,6.2,4.895V3.263A1.307,1.307,0,0,0,4.895,1.958H3.263M3.263,0H4.895A3.263,3.263,0,0,1,8.158,3.263V4.895A3.263,3.263,0,0,1,4.895,8.158H3.263A3.263,3.263,0,0,1,0,4.895V3.263A3.263,3.263,0,0,1,3.263,0Z" transform="translate(9.789 9.789)" fill="#007c3d"/>
        <path id="Rectangle_16933" data-name="Rectangle 16933" d="M3.263,1.958A1.307,1.307,0,0,0,1.958,3.263V4.895A1.307,1.307,0,0,0,3.263,6.2H4.895A1.307,1.307,0,0,0,6.2,4.895V3.263A1.307,1.307,0,0,0,4.895,1.958H3.263M3.263,0H4.895A3.263,3.263,0,0,1,8.158,3.263V4.895A3.263,3.263,0,0,1,4.895,8.158H3.263A3.263,3.263,0,0,1,0,4.895V3.263A3.263,3.263,0,0,1,3.263,0Z" transform="translate(0 9.789)" fill="#007c3d"/>
      </g>
      <path id="Rectangle_16934" data-name="Rectangle 16934" d="M6.526,1.958A4.574,4.574,0,0,0,1.958,6.526V24.474a4.574,4.574,0,0,0,4.568,4.568H24.474a4.574,4.574,0,0,0,4.568-4.568V6.526a4.574,4.574,0,0,0-4.568-4.568H6.526M6.526,0H24.474A6.526,6.526,0,0,1,31,6.526V24.474A6.526,6.526,0,0,1,24.474,31H6.526A6.526,6.526,0,0,1,0,24.474V6.526A6.526,6.526,0,0,1,6.526,0Z" fill="#007c3d"/>
    </g>
    <g id="dashboard-green-2" data-name="dashboard-green" transform="translate(2 37)">
      <g id="Group_8454-2" data-name="Group 8454" transform="translate(6.526 6.526)">
        <path id="Rectangle_16930-2" data-name="Rectangle 16930" d="M3.263,1.958A1.307,1.307,0,0,0,1.958,3.263V4.895A1.307,1.307,0,0,0,3.263,6.2H4.895A1.307,1.307,0,0,0,6.2,4.895V3.263A1.307,1.307,0,0,0,4.895,1.958H3.263M3.263,0H4.895A3.263,3.263,0,0,1,8.158,3.263V4.895A3.263,3.263,0,0,1,4.895,8.158H3.263A3.263,3.263,0,0,1,0,4.895V3.263A3.263,3.263,0,0,1,3.263,0Z" fill="#fff200"/>
        <path id="Rectangle_16931-2" data-name="Rectangle 16931" d="M3.263,1.958A1.307,1.307,0,0,0,1.958,3.263V4.895A1.307,1.307,0,0,0,3.263,6.2H4.895A1.307,1.307,0,0,0,6.2,4.895V3.263A1.307,1.307,0,0,0,4.895,1.958H3.263M3.263,0H4.895A3.263,3.263,0,0,1,8.158,3.263V4.895A3.263,3.263,0,0,1,4.895,8.158H3.263A3.263,3.263,0,0,1,0,4.895V3.263A3.263,3.263,0,0,1,3.263,0Z" transform="translate(9.789)" fill="#fff200"/>
        <path id="Rectangle_16932-2" data-name="Rectangle 16932" d="M3.263,1.958A1.307,1.307,0,0,0,1.958,3.263V4.895A1.307,1.307,0,0,0,3.263,6.2H4.895A1.307,1.307,0,0,0,6.2,4.895V3.263A1.307,1.307,0,0,0,4.895,1.958H3.263M3.263,0H4.895A3.263,3.263,0,0,1,8.158,3.263V4.895A3.263,3.263,0,0,1,4.895,8.158H3.263A3.263,3.263,0,0,1,0,4.895V3.263A3.263,3.263,0,0,1,3.263,0Z" transform="translate(9.789 9.789)" fill="#fff200"/>
        <path id="Rectangle_16933-2" data-name="Rectangle 16933" d="M3.263,1.958A1.307,1.307,0,0,0,1.958,3.263V4.895A1.307,1.307,0,0,0,3.263,6.2H4.895A1.307,1.307,0,0,0,6.2,4.895V3.263A1.307,1.307,0,0,0,4.895,1.958H3.263M3.263,0H4.895A3.263,3.263,0,0,1,8.158,3.263V4.895A3.263,3.263,0,0,1,4.895,8.158H3.263A3.263,3.263,0,0,1,0,4.895V3.263A3.263,3.263,0,0,1,3.263,0Z" transform="translate(0 9.789)" fill="#fff200"/>
      </g>
      <path id="Rectangle_16934-2" data-name="Rectangle 16934" d="M6.526,1.958A4.574,4.574,0,0,0,1.958,6.526V24.474a4.574,4.574,0,0,0,4.568,4.568H24.474a4.574,4.574,0,0,0,4.568-4.568V6.526a4.574,4.574,0,0,0-4.568-4.568H6.526M6.526,0H24.474A6.526,6.526,0,0,1,31,6.526V24.474A6.526,6.526,0,0,1,24.474,31H6.526A6.526,6.526,0,0,1,0,24.474V6.526A6.526,6.526,0,0,1,6.526,0Z" fill="#fff200"/>
    </g>
    <g id="dashboard-green-3" data-name="dashboard-green" transform="translate(2 72)">
      <g id="Group_8454-3" data-name="Group 8454" transform="translate(6.526 6.526)">
        <path id="Rectangle_16930-3" data-name="Rectangle 16930" d="M3.263,1.958A1.307,1.307,0,0,0,1.958,3.263V4.895A1.307,1.307,0,0,0,3.263,6.2H4.895A1.307,1.307,0,0,0,6.2,4.895V3.263A1.307,1.307,0,0,0,4.895,1.958H3.263M3.263,0H4.895A3.263,3.263,0,0,1,8.158,3.263V4.895A3.263,3.263,0,0,1,4.895,8.158H3.263A3.263,3.263,0,0,1,0,4.895V3.263A3.263,3.263,0,0,1,3.263,0Z" fill="#fff"/>
        <path id="Rectangle_16931-3" data-name="Rectangle 16931" d="M3.263,1.958A1.307,1.307,0,0,0,1.958,3.263V4.895A1.307,1.307,0,0,0,3.263,6.2H4.895A1.307,1.307,0,0,0,6.2,4.895V3.263A1.307,1.307,0,0,0,4.895,1.958H3.263M3.263,0H4.895A3.263,3.263,0,0,1,8.158,3.263V4.895A3.263,3.263,0,0,1,4.895,8.158H3.263A3.263,3.263,0,0,1,0,4.895V3.263A3.263,3.263,0,0,1,3.263,0Z" transform="translate(9.789)" fill="#fff"/>
        <path id="Rectangle_16932-3" data-name="Rectangle 16932" d="M3.263,1.958A1.307,1.307,0,0,0,1.958,3.263V4.895A1.307,1.307,0,0,0,3.263,6.2H4.895A1.307,1.307,0,0,0,6.2,4.895V3.263A1.307,1.307,0,0,0,4.895,1.958H3.263M3.263,0H4.895A3.263,3.263,0,0,1,8.158,3.263V4.895A3.263,3.263,0,0,1,4.895,8.158H3.263A3.263,3.263,0,0,1,0,4.895V3.263A3.263,3.263,0,0,1,3.263,0Z" transform="translate(9.789 9.789)" fill="#fff"/>
        <path id="Rectangle_16933-3" data-name="Rectangle 16933" d="M3.263,1.958A1.307,1.307,0,0,0,1.958,3.263V4.895A1.307,1.307,0,0,0,3.263,6.2H4.895A1.307,1.307,0,0,0,6.2,4.895V3.263A1.307,1.307,0,0,0,4.895,1.958H3.263M3.263,0H4.895A3.263,3.263,0,0,1,8.158,3.263V4.895A3.263,3.263,0,0,1,4.895,8.158H3.263A3.263,3.263,0,0,1,0,4.895V3.263A3.263,3.263,0,0,1,3.263,0Z" transform="translate(0 9.789)" fill="#fff"/>
      </g>
      <path id="Rectangle_16934-3" data-name="Rectangle 16934" d="M6.526,1.958A4.574,4.574,0,0,0,1.958,6.526V24.474a4.574,4.574,0,0,0,4.568,4.568H24.474a4.574,4.574,0,0,0,4.568-4.568V6.526a4.574,4.574,0,0,0-4.568-4.568H6.526M6.526,0H24.474A6.526,6.526,0,0,1,31,6.526V24.474A6.526,6.526,0,0,1,24.474,31H6.526A6.526,6.526,0,0,1,0,24.474V6.526A6.526,6.526,0,0,1,6.526,0Z" fill="#fff"/>
    </g>
  </g>
</svg>
