<?xml version="1.0" encoding="utf-8"?>
<!-- Generator: Adobe Illustrator 23.0.1, SVG Export Plug-In . SVG Version: 6.00 Build 0)  -->
<svg version="1.1" id="Layer_1" xmlns="http://www.w3.org/2000/svg" xmlns:xlink="http://www.w3.org/1999/xlink" x="0px" y="0px"
	 viewBox="0 0 16 16" style="enable-background:new 0 0 16 16;" xml:space="preserve">
<style type="text/css">
	.st0{fill:#757575;stroke:#FFFFFF;stroke-width:0.2;}
</style>
<g id="debit-frequency" transform="translate(0.1 0.1)">
	<path id="Path_43261" class="st0" d="M13.9,1.3h-12c-0.3,0-0.5,0.2-0.5,0.5c0,0,0,0,0,0v8.7c0,0.3,0.2,0.5,0.5,0.5c0,0,0,0,0,0h3.8
		c0.3,0,0.5-0.3,0.5-0.6c0-0.3-0.2-0.5-0.5-0.5H2.4V4.6h10.9v0.5c0,0.3,0.2,0.6,0.5,0.6c0.3,0,0.6-0.2,0.6-0.5c0,0,0-0.1,0-0.1V1.9
		C14.5,1.6,14.2,1.3,13.9,1.3z M2.4,3.5V2.4h10.9v1.1H2.4z"/>
	<path id="Path_43262" class="st0" d="M4.1,7.9c-0.3,0-0.5,0.3-0.5,0.6C3.6,8.8,3.8,9,4.1,9h0.5c0.3,0,0.6-0.2,0.6-0.5
		c0-0.3-0.2-0.6-0.5-0.6c0,0-0.1,0-0.1,0H4.1z"/>
	<path id="Path_43263" class="st0" d="M7.6,8.4c0-0.3-0.2-0.5-0.5-0.5h0H6.5C6.2,7.9,6,8.1,5.9,8.4S6.1,9,6.4,9c0,0,0.1,0,0.1,0h0.5
		C7.4,9,7.6,8.8,7.6,8.4z"/>
	<path id="Path_43264" class="st0" d="M11.7,14.5c0.3,0,0.5-0.2,0.5-0.5v0V9.8l0.7,0.7c0.2,0.2,0.6,0.2,0.8-0.1
		c0.2-0.2,0.2-0.5,0-0.7l-1.6-1.6c0,0,0,0,0,0l0,0C12,8,12,8,11.9,7.9l0,0l0,0c0,0-0.1,0-0.1,0h0c0,0-0.1,0-0.1,0h0c0,0-0.1,0-0.1,0
		l0,0c0,0-0.1,0.1-0.1,0.1L9.7,9.7c-0.2,0.2-0.3,0.5-0.1,0.8c0.2,0.2,0.5,0.3,0.8,0.1c0,0,0.1-0.1,0.1-0.1l0.7-0.7v4.1
		C11.2,14.2,11.4,14.5,11.7,14.5z"/>
</g>
</svg>
