<?xml version="1.0" encoding="utf-8"?>
<!-- Generator: Adobe Illustrator 23.0.1, SVG Export Plug-In . SVG Version: 6.00 Build 0)  -->
<svg version="1.1" id="Layer_1" xmlns="http://www.w3.org/2000/svg" xmlns:xlink="http://www.w3.org/1999/xlink" x="0px" y="0px"
	 viewBox="0 0 27.5 23.1" style="enable-background:new 0 0 27.5 23.1;" xml:space="preserve">
<style type="text/css">
	.st0{fill:#0B7432;}
</style>
<g transform="translate(0 -41)">
	<path class="st0" d="M23.9,41H3.6c-2,0-3.6,1.6-3.6,3.6v11.6c0,1.9,1.5,3.5,3.5,3.6v2.9c0,0.8,0.6,1.4,1.4,1.4c0,0,0,0,0,0h6.5
		c0.8,0,1.4-0.6,1.4-1.4l0,0v-2.9h11c2,0,3.6-1.6,3.6-3.6V44.6C27.5,42.6,25.8,41,23.9,41z M3.6,42.6h20.2c1.1,0,2,0.9,2,2v0.7H1.6
		v-0.7C1.6,43.5,2.5,42.6,3.6,42.6z M9.9,56H6.4v-0.9c0-0.7,0.6-1.3,1.3-1.3h0.9c0.7,0,1.3,0.6,1.3,1.3V56z M11.2,62.5H5.1v-4.8h6.1
		L11.2,62.5z M23.9,58.2h-11v-0.7c0-0.7-0.6-1.3-1.3-1.4v-0.9c0-1.6-1.3-2.9-2.9-3H7.7c-1.6,0-2.9,1.3-3,3V56
		c-0.7,0.1-1.3,0.7-1.3,1.4v0.7c-1.1-0.1-1.9-0.9-1.9-2v-9.3h24.2v9.3C25.9,57.3,25,58.2,23.9,58.2L23.9,58.2z"/>
	<path class="st0" d="M12.9,48.7H4.3c-0.4,0-0.8,0.4-0.8,0.8c0,0.4,0.4,0.8,0.8,0.8h8.6c0.4,0,0.8-0.4,0.8-0.8
		C13.7,49.1,13.3,48.7,12.9,48.7L12.9,48.7z"/>
	<path class="st0" d="M22,48.7h-4.5c-1.1,0-2,0.9-2,2v1.1c0,1.1,0.9,2,2,2H22c1.1,0,2-0.9,2-2v-1.1C24,49.6,23.1,48.7,22,48.7z
		 M22.4,51.8c0,0.2-0.2,0.4-0.4,0.4h-4.5c-0.2,0-0.4-0.2-0.4-0.4v-1.1c0-0.2,0.2-0.4,0.4-0.4H22c0.2,0,0.4,0.2,0.4,0.4V51.8z"/>
</g>
</svg>
