<svg xmlns="http://www.w3.org/2000/svg" width="32.542" height="24" viewBox="0 0 32.542 24">
  <path id="debit-card-e" d="M32.542,65.712V84.288A2.715,2.715,0,0,1,29.831,87H2.712A2.715,2.715,0,0,1,0,84.288V76.153a.542.542,0,1,1,1.085,0v8.136a1.629,1.629,0,0,0,1.627,1.627H29.831a1.629,1.629,0,0,0,1.627-1.627V65.712a1.629,1.629,0,0,0-1.627-1.627H2.712a1.629,1.629,0,0,0-1.627,1.627v2.169h27.8a.542.542,0,0,1,0,1.085H1.085v3.525h27.8a.542.542,0,0,1,0,1.085H.542A.542.542,0,0,1,0,73.034V65.712A2.715,2.715,0,0,1,2.712,63H29.831A2.715,2.715,0,0,1,32.542,65.712ZM28.2,79.814a1.764,1.764,0,0,0-2.72-1.479,2.847,2.847,0,1,1-.737-.807,2.847,2.847,0,1,1,1.695,5.134.542.542,0,1,1,0-1.085A1.765,1.765,0,0,0,28.2,79.814Zm-3.39,0a1.763,1.763,0,1,0-1.763,1.763A1.765,1.765,0,0,0,24.814,79.814ZM4.949,78.661H9.492a.542.542,0,0,0,0-1.085H4.949a.542.542,0,0,0,0,1.085Zm0,3.39H9.492a.542.542,0,0,0,0-1.085H4.949a.542.542,0,0,0,0,1.085Z" transform="translate(0 -63)" fill="#007c3d"/>
</svg>
