<?xml version="1.0" encoding="utf-8"?>
<!-- Generator: Adobe Illustrator 23.0.1, SVG Export Plug-In . SVG Version: 6.00 Build 0)  -->
<svg version="1.1" id="Layer_1" xmlns="http://www.w3.org/2000/svg" xmlns:xlink="http://www.w3.org/1999/xlink" x="0px" y="0px"
	 viewBox="0 0 16 16" style="enable-background:new 0 0 16 16;" xml:space="preserve">
<style type="text/css">
	.st0{fill:#EB283B;stroke:#EB283B;stroke-width:0.4;}
</style>
<path id="decined" class="st0" d="M9.2,8l5.1-5.1c0.4-0.4,0.4-0.8,0-1.2s-0.8-0.4-1.2,0L8,6.8L2.9,1.5c-0.4-0.4-0.8-0.4-1.2,0
	s-0.4,0.8,0,1.2L6.8,8l-5.1,5.1c-0.4,0.4-0.4,0.8,0,1.2s0.8,0.4,1.2,0l0,0L8,9.2l5.1,5.1c0.4,0.4,0.8,0.4,1.2,0s0.4-0.8,0-1.2L9.2,8
	z"/>
</svg>
