<?xml version="1.0" encoding="utf-8"?>
<!-- Generator: Adobe Illustrator 23.0.1, SVG Export Plug-In . SVG Version: 6.00 Build 0)  -->
<svg version="1.1" id="Layer_1" xmlns="http://www.w3.org/2000/svg" xmlns:xlink="http://www.w3.org/1999/xlink" x="0px" y="0px"
	 viewBox="0 0 16 16" style="enable-background:new 0 0 16 16;" xml:space="preserve">
<style type="text/css">
	.st0{fill:#EB283B;}
	.st1{fill:#EB283B;stroke:#EB283B;stroke-width:0.5;}
</style>
<g id="declined" transform="translate(-26 -256.621)">
	<path id="Path_12680" class="st0" d="M34,257.3c-4.1,0-7.3,3.3-7.3,7.3s3.3,7.3,7.3,7.3s7.3-3.3,7.3-7.3
		C41.3,260.6,38.1,257.3,34,257.3z M34,270.8c-3.4,0-6.1-2.8-6.1-6.1s2.8-6.1,6.1-6.1s6.1,2.8,6.1,6.1l0,0
		C40.1,268,37.4,270.8,34,270.8z"/>
	<path id="decined" class="st1" d="M34.4,264.6l1.8-1.8c0.1-0.1,0.1-0.3,0-0.4s-0.3-0.1-0.4,0l-1.8,1.8l-1.8-1.8
		c-0.1-0.1-0.3-0.1-0.4,0c-0.1,0.1-0.1,0.3,0,0.4l1.8,1.8l-1.8,1.8c-0.1,0.1-0.1,0.3,0,0.4s0.3,0.1,0.4,0L34,265l1.8,1.8
		c0.1,0.1,0.3,0.1,0.4,0s0.1-0.3,0-0.4l0,0L34.4,264.6z"/>
</g>
</svg>
