<svg xmlns="http://www.w3.org/2000/svg" width="23.279" height="24.473" viewBox="0 0 23.279 24.473"><defs><style>.a{fill:#a01c29;}</style></defs><g transform="translate(-2.25 -1.75)"><path class="a" d="M18.086,25.641H8.918a3.641,3.641,0,0,1-3.581-3.414L4.25,5.705a.907.907,0,0,1,.239-.657.919.919,0,0,1,.657-.3H21.858a.9.9,0,0,1,.9.955L21.715,22.227a3.641,3.641,0,0,1-3.629,3.414ZM6.148,6.541,7.067,22.12a1.85,1.85,0,0,0,1.85,1.731h9.168a1.862,1.862,0,0,0,1.85-1.731L20.9,6.6Z" transform="translate(0.387 0.581)"/><path class="a" d="M24.633,6.541H3.145a.9.9,0,1,1,0-1.791H24.633a.9.9,0,0,1,0,1.791Z" transform="translate(0 0.581)"/><path class="a" d="M16.308,7.122H9.145a.907.907,0,0,1-.9-.9V4.078A2.388,2.388,0,0,1,10.578,1.75h4.3A2.388,2.388,0,0,1,17.2,4.138V6.227A.907.907,0,0,1,16.308,7.122ZM10.041,5.331h5.372V4.138a.537.537,0,0,0-.537-.537h-4.3a.537.537,0,0,0-.537.537Z" transform="translate(1.163 0)"/><path class="a" d="M15.145,20.091a.907.907,0,0,1-.9-.9V9.645a.9.9,0,0,1,1.791,0V19.2A.907.907,0,0,1,15.145,20.091Z" transform="translate(2.325 1.356)"/><path class="a" d="M9.145,20.091a.907.907,0,0,1-.9-.9V9.645a.9.9,0,0,1,1.791,0V19.2A.907.907,0,0,1,9.145,20.091Z" transform="translate(1.163 1.356)"/><path class="a" d="M12.145,20.091a.907.907,0,0,1-.9-.9V9.645a.9.9,0,0,1,1.791,0V19.2A.907.907,0,0,1,12.145,20.091Z" transform="translate(1.744 1.356)"/></g></svg>