<?xml version="1.0" encoding="utf-8"?>
<!-- Generator: Adobe Illustrator 23.0.1, SVG Export Plug-In . SVG Version: 6.00 Build 0)  -->
<svg version="1.1" id="Layer_1" xmlns="http://www.w3.org/2000/svg" xmlns:xlink="http://www.w3.org/1999/xlink" x="0px" y="0px"
	 viewBox="0 0 23.3 24.5" style="enable-background:new 0 0 23.3 24.5;" xml:space="preserve">
<style type="text/css">
	.st0{fill:#007C3D;}
</style>
<g transform="translate(-2.25 -1.75)">
	<path class="st0" d="M18.5,26.2H9.3c-1.9,0-3.5-1.5-3.6-3.4L4.6,6.3c0-0.2,0.1-0.5,0.2-0.7C5,5.4,5.3,5.3,5.5,5.3h16.7
		c0.5,0,0.9,0.4,0.9,0.9c0,0,0,0,0,0.1l-1,16.5C22,24.7,20.4,26.2,18.5,26.2z M6.5,7.1l0.9,15.6c0.1,1,0.9,1.7,1.8,1.7h9.2
		c1,0,1.8-0.8,1.9-1.7l1-15.5L6.5,7.1z"/>
	<path class="st0" d="M24.6,7.1H3.1c-0.5,0-0.9-0.3-1-0.8c0-0.5,0.3-0.9,0.8-1c0.1,0,0.1,0,0.2,0h21.5c0.5,0,0.9,0.5,0.8,1
		C25.4,6.7,25.1,7.1,24.6,7.1z"/>
	<path class="st0" d="M17.5,7.1h-7.2c-0.5,0-0.9-0.4-0.9-0.9V4.1c0-1.3,1.1-2.3,2.3-2.3H16c1.3,0,2.3,1.1,2.3,2.4v2.1
		C18.4,6.7,18,7.1,17.5,7.1z M11.2,5.3h5.4V4.1c0-0.3-0.2-0.5-0.5-0.5h-4.3c-0.3,0-0.5,0.2-0.5,0.5L11.2,5.3z"/>
	<path class="st0" d="M17.5,21.4c-0.5,0-0.9-0.4-0.9-0.9V11c0-0.5,0.5-0.9,1-0.8c0.4,0,0.8,0.4,0.8,0.8v9.6
		C18.4,21,18,21.4,17.5,21.4z"/>
	<path class="st0" d="M10.3,21.4c-0.5,0-0.9-0.4-0.9-0.9V11c0-0.5,0.5-0.9,1-0.8c0.4,0,0.8,0.4,0.8,0.8v9.6
		C11.2,21,10.8,21.4,10.3,21.4z"/>
	<path class="st0" d="M13.9,21.4c-0.5,0-0.9-0.4-0.9-0.9V11c0-0.5,0.5-0.9,1-0.8c0.4,0,0.8,0.4,0.8,0.8v9.6
		C14.8,21,14.4,21.4,13.9,21.4z"/>
</g>
</svg>
