<svg xmlns="http://www.w3.org/2000/svg" width="49.242" height="43.993" viewBox="0 0 49.242 43.993"><defs><style>.a{fill:none;stroke:#007c3d;stroke-linecap:round;stroke-linejoin:round;stroke-width:2px;}</style></defs><g transform="translate(1 1)"><rect class="a" width="9.186" height="3.937" transform="translate(15.747 13.123)"/><line class="a" x2="2.625" transform="translate(15.747 23.621)"/><line class="a" x2="2.625" transform="translate(15.747 28.87)"/><line class="a" x2="2.625" transform="translate(22.309 23.621)"/><line class="a" x2="2.625" transform="translate(22.309 28.87)"/><line class="a" y2="2.625" transform="translate(44.617 19.684)"/><path class="a" d="M284.617,138.807v5.888a3.3,3.3,0,0,1-3.3,3.3H243.3a3.3,3.3,0,0,1-3.3-3.3V109.3a3.3,3.3,0,0,1,3.3-3.3h38.022a3.3,3.3,0,0,1,3.3,3.3v5.888" transform="translate(-240 -106)"/><path class="a" d="M274.182,134.933v3.943a2.618,2.618,0,0,1-2.618,2.618H246.618A2.618,2.618,0,0,1,244,138.876V112.618A2.618,2.618,0,0,1,246.618,110h24.946a2.618,2.618,0,0,1,2.618,2.618v22.315" transform="translate(-238.751 -104.751)"/><rect class="a" width="5.249" height="5.249" transform="translate(41.993 11.81)"/><rect class="a" width="5.249" height="5.249" transform="translate(41.993 24.933)"/></g></svg>