<svg xmlns="http://www.w3.org/2000/svg" xmlns:xlink="http://www.w3.org/1999/xlink" x="0px" y="0px" viewBox="0 0 24 24"
  style="enable-background:new 0 0 24 24;" xml:space="preserve">
  <g transform="translate(643 1998)">
    <rect x="-646.5" y="-2001.5" style="opacity:0" />
    <path d="M-625.2-1986c-1,0-2,0.3-2.9,0.8l-1-0.4c-0.3-0.1-0.5-0.4-0.5-0.7v-0.6l0,0c1.3-0.3,2.1-1.5,2.1-2.8v-2.9
												c0-2.8-2.4-5-5.2-5c-2.7,0-5,2.3-5,5v2.9c0,1.3,0.9,2.5,2.2,2.8v0.6c0,0.3-0.2,0.6-0.5,0.7l-4.5,1.8c-1.4,0.5-2.3,1.9-2.3,3.4v2.4
												c0,0.8,0.7,1.4,1.5,1.5h11.4c2,2.5,5.7,2.9,8.2,0.9c2.5-2,2.9-5.7,0.9-8.2C-621.8-1985.2-623.5-1986-625.2-1986L-625.2-1986z
												M-641.2-1978v-2.4c0-0.9,0.5-1.7,1.4-2l4.5-1.8c0.8-0.3,1.4-1.1,1.4-2v-0.6c0-0.7-0.5-1.2-1.1-1.4c-0.6-0.2-1.1-0.7-1.1-1.4v-2.9
												c0-2,1.7-3.6,3.7-3.6c1.9,0,3.5,1.6,3.6,3.6v2.9c0,0.7-0.4,1.2-1.1,1.4c-0.6,0.2-1.1,0.7-1.1,1.4v0.6c0,0.9,0.5,1.7,1.4,2l0.2,0.1
												c-1.6,1.6-2,4-1.1,6.1H-641.2z M-625.2-1975.9c-2.4,0-4.4-1.9-4.4-4.4c0-2.4,1.9-4.4,4.4-4.4c1.3,0,2.5,0.6,3.3,1.6
												c0.7,0.8,1,1.8,1,2.8C-620.9-1977.8-622.8-1975.9-625.2-1975.9z M-623.3-1981.2l-0.9,0.9l0.9,0.9c0.3,0.3,0.3,0.7,0,1s-0.7,0.3-1,0
												l-0.9-0.9l-0.9,0.9c-0.3,0.3-0.7,0.3-1,0c-0.3-0.3-0.3-0.7,0-1l0.9-0.9l-0.9-0.9c-0.3-0.3-0.3-0.7,0-1c0.3-0.3,0.7-0.3,1,0l0.9,0.9
												l0.9-0.9c0.3-0.3,0.7-0.3,1,0C-623-1981.9-623-1981.4-623.3-1981.2L-623.3-1981.2z" />
  </g>
</svg>