<svg xmlns="http://www.w3.org/2000/svg" xmlns:xlink="http://www.w3.org/1999/xlink" width="35" height="105" viewBox="0 0 35 105">
  <defs>
    <clipPath id="clip-Donation">
      <rect width="35" height="105"/>
    </clipPath>
  </defs>
  <g id="Donation" clip-path="url(#clip-Donation)">
    <g id="Group_39979" data-name="Group 39979" opacity="0">
      <rect id="Rectangle_18669" data-name="Rectangle 18669" width="35" height="35" fill="#e3e3e3"/>
      <rect id="Rectangle_18672" data-name="Rectangle 18672" width="35" height="35" transform="translate(0 35)" fill="#d5d5d5"/>
      <rect id="Rectangle_18673" data-name="Rectangle 18673" width="35" height="35" transform="translate(0 70)" fill="#c6c6c6"/>
      <rect id="Rectangle_18670" data-name="Rectangle 18670" width="31" height="31" transform="translate(2 2)" fill="#b5b5b5"/>
      <rect id="Rectangle_18682" data-name="Rectangle 18682" width="31" height="31" transform="translate(2 37)" fill="#b5b5b5"/>
      <rect id="Rectangle_18683" data-name="Rectangle 18683" width="31" height="31" transform="translate(2 72)" fill="#b5b5b5"/>
    </g>
    <g id="noun_donation_3156199" transform="translate(1.325 1.425)">
      <g id="Group_39961" data-name="Group 39961" transform="translate(0.675 0.675)">
        <path id="Union_38" data-name="Union 38" d="M12705.975-791.2v-.048a1.335,1.335,0,0,1-.976-1.285v-11.682a1.337,1.337,0,0,1,1.336-1.333h5.91c-.035-.083-.067-.169-.1-.256h-.946a2.307,2.307,0,0,1-2.3-2.3,2.178,2.178,0,0,1,.09-.63,2.315,2.315,0,0,1-2.04-2.292,2.214,2.214,0,0,1,.093-.63,2.31,2.31,0,0,1-2.039-2.292,2.31,2.31,0,0,1,2.039-2.292,2.215,2.215,0,0,1-.093-.63,2.309,2.309,0,0,1,2.309-2.3h3.627a3.553,3.553,0,0,1-.092-.8,2.074,2.074,0,0,1,2.07-2.122,2.049,2.049,0,0,1,.771.147,11.5,11.5,0,0,0,4.286.825h2.676a9.048,9.048,0,0,1,7.045,3.407h6.265v10.455h-6.492c-.121.057-.243.112-.364.166a5.809,5.809,0,0,1-.39,1.55h5.913a1.334,1.334,0,0,1,1.333,1.333v11.682a1.336,1.336,0,0,1-.976,1.285v.048Zm.719-1.691h27.514v-10.963h-6.606c-.083.09-.157.173-.233.246l-2.925,2.928h2.336a1.334,1.334,0,0,1,1.333,1.333v2.921a1.334,1.334,0,0,1-1.333,1.333h-12.657a1.334,1.334,0,0,1-1.332-1.333v-2.921a1.334,1.334,0,0,1,1.332-1.333h2.34l-2.928-2.928c-.076-.074-.15-.157-.23-.246h-6.609Zm13.853-3.9h5.872v-2.2h-3.67Zm-6.063,0h5.872l-2.2-2.2h-3.67Zm-.01-13.635a4.189,4.189,0,0,0-.965,2.669,4.158,4.158,0,0,0,1.221,2.95l5.722,5.718,5.722-5.721a4.145,4.145,0,0,0,1.221-2.947,4.19,4.19,0,0,0-.966-2.669,3.386,3.386,0,0,0-2.607-1.221,3.736,3.736,0,0,0-2.659,1.1l-.71.71-.71-.71a3.736,3.736,0,0,0-2.659-1.1A3.39,3.39,0,0,0,12714.473-810.423Zm-3.887,2.314a.616.616,0,0,0,.614.614h.623c-.006-.089-.006-.176-.006-.259a5.918,5.918,0,0,1,.079-.968h-.7A.616.616,0,0,0,12710.586-808.109Zm19.473-.847h4.148v-7.07h-4.148Zm-21.419-2.074a.614.614,0,0,0,.614.614h3.2a5.652,5.652,0,0,1,.72-1.09c.038-.048.076-.093.114-.137h-4.036A.614.614,0,0,0,12708.64-811.03Zm19.089-.476a5.876,5.876,0,0,1,.639.94v-6.022a7.326,7.326,0,0,0-5.775-2.845h-2.676a13.216,13.216,0,0,1-4.916-.946.35.35,0,0,0-.141-.029.382.382,0,0,0-.377.387,1.8,1.8,0,0,0,.518,1.3,1.772,1.772,0,0,0,1.253.518h3.261l.336.674a2.289,2.289,0,0,0,2.062,1.272h.361v1.694h-.361a3.932,3.932,0,0,1-3.062-1.435,8.474,8.474,0,0,0-.473,2.765v.051a5.457,5.457,0,0,1,2.074,1.01,5.453,5.453,0,0,1,3.369-1.163A5.079,5.079,0,0,1,12727.729-811.506Zm-21.035-2.445a.613.613,0,0,0,.613.614h9.378a9.972,9.972,0,0,1,.087-1.227h-9.465A.613.613,0,0,0,12706.693-813.951Zm1.946-2.921a.614.614,0,0,0,.614.614h7.9c.025-.083.055-.169.087-.253h-.985a3.433,3.433,0,0,1-2.406-.975h-4.593A.614.614,0,0,0,12708.64-816.873Z" transform="translate(-12705 822.1)" fill="#007c3d"/>
      </g>
      <path id="Union_39" data-name="Union 39" d="M2.932,7.164c-.086,0-.086,0-.3-.289q-.167-.22-.495-.662C1.7,5.628,1.034,4.738.166,3.568L.13,3.52V3.264H.574c.881,0,1.394-.305,1.569-.935,0-.017,0-.033.006-.049H.208A.207.207,0,0,1,0,2.066l0-.438a.208.208,0,0,1,.206-.193H2.063a1.056,1.056,0,0,0-.3-.355A1.712,1.712,0,0,0,.976.843H.208A.207.207,0,0,1,0,.63L0,.191A.207.207,0,0,1,.208,0H4.454A.209.209,0,0,1,4.64.214V.63a.206.206,0,0,1-.207.214H3.251a1.982,1.982,0,0,1,.282.58l0,.012.917,0a.208.208,0,0,1,.186.213v.416a.206.206,0,0,1-.207.214H3.587A2.112,2.112,0,0,1,2.707,3.6l-.02.014a4.086,4.086,0,0,1-.859.413L3.966,6.89v.275Z" transform="translate(13.401 13.72)" fill="#007c3d"/>
    </g>
    <g id="noun_donation_3156199-2" data-name="noun_donation_3156199" transform="translate(1.325 36.375)">
      <g id="Group_39961-2" data-name="Group 39961" transform="translate(0.675 0.675)">
        <path id="Union_38-2" data-name="Union 38" d="M12705.975-791.2v-.048a1.335,1.335,0,0,1-.976-1.285v-11.682a1.337,1.337,0,0,1,1.336-1.333h5.91c-.035-.083-.067-.169-.1-.256h-.946a2.307,2.307,0,0,1-2.3-2.3,2.178,2.178,0,0,1,.09-.63,2.315,2.315,0,0,1-2.04-2.292,2.214,2.214,0,0,1,.093-.63,2.31,2.31,0,0,1-2.039-2.292,2.31,2.31,0,0,1,2.039-2.292,2.215,2.215,0,0,1-.093-.63,2.309,2.309,0,0,1,2.309-2.3h3.627a3.553,3.553,0,0,1-.092-.8,2.074,2.074,0,0,1,2.07-2.122,2.049,2.049,0,0,1,.771.147,11.5,11.5,0,0,0,4.286.825h2.676a9.048,9.048,0,0,1,7.045,3.407h6.265v10.455h-6.492c-.121.057-.243.112-.364.166a5.809,5.809,0,0,1-.39,1.55h5.913a1.334,1.334,0,0,1,1.333,1.333v11.682a1.336,1.336,0,0,1-.976,1.285v.048Zm.719-1.691h27.514v-10.963h-6.606c-.083.09-.157.173-.233.246l-2.925,2.928h2.336a1.334,1.334,0,0,1,1.333,1.333v2.921a1.334,1.334,0,0,1-1.333,1.333h-12.657a1.334,1.334,0,0,1-1.332-1.333v-2.921a1.334,1.334,0,0,1,1.332-1.333h2.34l-2.928-2.928c-.076-.074-.15-.157-.23-.246h-6.609Zm13.853-3.9h5.872v-2.2h-3.67Zm-6.063,0h5.872l-2.2-2.2h-3.67Zm-.01-13.635a4.189,4.189,0,0,0-.965,2.669,4.158,4.158,0,0,0,1.221,2.95l5.722,5.718,5.722-5.721a4.145,4.145,0,0,0,1.221-2.947,4.19,4.19,0,0,0-.966-2.669,3.386,3.386,0,0,0-2.607-1.221,3.736,3.736,0,0,0-2.659,1.1l-.71.71-.71-.71a3.736,3.736,0,0,0-2.659-1.1A3.39,3.39,0,0,0,12714.473-810.423Zm-3.887,2.314a.616.616,0,0,0,.614.614h.623c-.006-.089-.006-.176-.006-.259a5.918,5.918,0,0,1,.079-.968h-.7A.616.616,0,0,0,12710.586-808.109Zm19.473-.847h4.148v-7.07h-4.148Zm-21.419-2.074a.614.614,0,0,0,.614.614h3.2a5.652,5.652,0,0,1,.72-1.09c.038-.048.076-.093.114-.137h-4.036A.614.614,0,0,0,12708.64-811.03Zm19.089-.476a5.876,5.876,0,0,1,.639.94v-6.022a7.326,7.326,0,0,0-5.775-2.845h-2.676a13.216,13.216,0,0,1-4.916-.946.35.35,0,0,0-.141-.029.382.382,0,0,0-.377.387,1.8,1.8,0,0,0,.518,1.3,1.772,1.772,0,0,0,1.253.518h3.261l.336.674a2.289,2.289,0,0,0,2.062,1.272h.361v1.694h-.361a3.932,3.932,0,0,1-3.062-1.435,8.474,8.474,0,0,0-.473,2.765v.051a5.457,5.457,0,0,1,2.074,1.01,5.453,5.453,0,0,1,3.369-1.163A5.079,5.079,0,0,1,12727.729-811.506Zm-21.035-2.445a.613.613,0,0,0,.613.614h9.378a9.972,9.972,0,0,1,.087-1.227h-9.465A.613.613,0,0,0,12706.693-813.951Zm1.946-2.921a.614.614,0,0,0,.614.614h7.9c.025-.083.055-.169.087-.253h-.985a3.433,3.433,0,0,1-2.406-.975h-4.593A.614.614,0,0,0,12708.64-816.873Z" transform="translate(-12705 822.1)" fill="#fff200"/>
      </g>
      <path id="Union_39-2" data-name="Union 39" d="M2.932,7.164c-.086,0-.086,0-.3-.289q-.167-.22-.495-.662C1.7,5.628,1.034,4.738.166,3.568L.13,3.52V3.264H.574c.881,0,1.394-.305,1.569-.935,0-.017,0-.033.006-.049H.208A.207.207,0,0,1,0,2.066l0-.438a.208.208,0,0,1,.206-.193H2.063a1.056,1.056,0,0,0-.3-.355A1.712,1.712,0,0,0,.976.843H.208A.207.207,0,0,1,0,.63L0,.191A.207.207,0,0,1,.208,0H4.454A.209.209,0,0,1,4.64.214V.63a.206.206,0,0,1-.207.214H3.251a1.982,1.982,0,0,1,.282.58l0,.012.917,0a.208.208,0,0,1,.186.213v.416a.206.206,0,0,1-.207.214H3.587A2.112,2.112,0,0,1,2.707,3.6l-.02.014a4.086,4.086,0,0,1-.859.413L3.966,6.89v.275Z" transform="translate(13.401 13.72)" fill="#fff200"/>
    </g>
    <g id="noun_donation_3156199-3" data-name="noun_donation_3156199" transform="translate(1.325 71.426)">
      <g id="Group_39961-3" data-name="Group 39961" transform="translate(0.675 0.675)">
        <path id="Union_38-3" data-name="Union 38" d="M12705.975-791.2v-.048a1.335,1.335,0,0,1-.976-1.285v-11.682a1.337,1.337,0,0,1,1.336-1.333h5.91c-.035-.083-.067-.169-.1-.256h-.946a2.307,2.307,0,0,1-2.3-2.3,2.178,2.178,0,0,1,.09-.63,2.315,2.315,0,0,1-2.04-2.292,2.214,2.214,0,0,1,.093-.63,2.31,2.31,0,0,1-2.039-2.292,2.31,2.31,0,0,1,2.039-2.292,2.215,2.215,0,0,1-.093-.63,2.309,2.309,0,0,1,2.309-2.3h3.627a3.553,3.553,0,0,1-.092-.8,2.074,2.074,0,0,1,2.07-2.122,2.049,2.049,0,0,1,.771.147,11.5,11.5,0,0,0,4.286.825h2.676a9.048,9.048,0,0,1,7.045,3.407h6.265v10.455h-6.492c-.121.057-.243.112-.364.166a5.809,5.809,0,0,1-.39,1.55h5.913a1.334,1.334,0,0,1,1.333,1.333v11.682a1.336,1.336,0,0,1-.976,1.285v.048Zm.719-1.691h27.514v-10.963h-6.606c-.083.09-.157.173-.233.246l-2.925,2.928h2.336a1.334,1.334,0,0,1,1.333,1.333v2.921a1.334,1.334,0,0,1-1.333,1.333h-12.657a1.334,1.334,0,0,1-1.332-1.333v-2.921a1.334,1.334,0,0,1,1.332-1.333h2.34l-2.928-2.928c-.076-.074-.15-.157-.23-.246h-6.609Zm13.853-3.9h5.872v-2.2h-3.67Zm-6.063,0h5.872l-2.2-2.2h-3.67Zm-.01-13.635a4.189,4.189,0,0,0-.965,2.669,4.158,4.158,0,0,0,1.221,2.95l5.722,5.718,5.722-5.721a4.145,4.145,0,0,0,1.221-2.947,4.19,4.19,0,0,0-.966-2.669,3.386,3.386,0,0,0-2.607-1.221,3.736,3.736,0,0,0-2.659,1.1l-.71.71-.71-.71a3.736,3.736,0,0,0-2.659-1.1A3.39,3.39,0,0,0,12714.473-810.423Zm-3.887,2.314a.616.616,0,0,0,.614.614h.623c-.006-.089-.006-.176-.006-.259a5.918,5.918,0,0,1,.079-.968h-.7A.616.616,0,0,0,12710.586-808.109Zm19.473-.847h4.148v-7.07h-4.148Zm-21.419-2.074a.614.614,0,0,0,.614.614h3.2a5.652,5.652,0,0,1,.72-1.09c.038-.048.076-.093.114-.137h-4.036A.614.614,0,0,0,12708.64-811.03Zm19.089-.476a5.876,5.876,0,0,1,.639.94v-6.022a7.326,7.326,0,0,0-5.775-2.845h-2.676a13.216,13.216,0,0,1-4.916-.946.35.35,0,0,0-.141-.029.382.382,0,0,0-.377.387,1.8,1.8,0,0,0,.518,1.3,1.772,1.772,0,0,0,1.253.518h3.261l.336.674a2.289,2.289,0,0,0,2.062,1.272h.361v1.694h-.361a3.932,3.932,0,0,1-3.062-1.435,8.474,8.474,0,0,0-.473,2.765v.051a5.457,5.457,0,0,1,2.074,1.01,5.453,5.453,0,0,1,3.369-1.163A5.079,5.079,0,0,1,12727.729-811.506Zm-21.035-2.445a.613.613,0,0,0,.613.614h9.378a9.972,9.972,0,0,1,.087-1.227h-9.465A.613.613,0,0,0,12706.693-813.951Zm1.946-2.921a.614.614,0,0,0,.614.614h7.9c.025-.083.055-.169.087-.253h-.985a3.433,3.433,0,0,1-2.406-.975h-4.593A.614.614,0,0,0,12708.64-816.873Z" transform="translate(-12705 822.1)" fill="#fff"/>
      </g>
      <path id="Union_39-3" data-name="Union 39" d="M2.932,7.164c-.086,0-.086,0-.3-.289q-.167-.22-.495-.662C1.7,5.628,1.034,4.738.166,3.568L.13,3.52V3.264H.574c.881,0,1.394-.305,1.569-.935,0-.017,0-.033.006-.049H.208A.207.207,0,0,1,0,2.066l0-.438a.208.208,0,0,1,.206-.193H2.063a1.056,1.056,0,0,0-.3-.355A1.712,1.712,0,0,0,.976.843H.208A.207.207,0,0,1,0,.63L0,.191A.207.207,0,0,1,.208,0H4.454A.209.209,0,0,1,4.64.214V.63a.206.206,0,0,1-.207.214H3.251a1.982,1.982,0,0,1,.282.58l0,.012.917,0a.208.208,0,0,1,.186.213v.416a.206.206,0,0,1-.207.214H3.587A2.112,2.112,0,0,1,2.707,3.6l-.02.014a4.086,4.086,0,0,1-.859.413L3.966,6.89v.275Z" transform="translate(13.401 13.72)" fill="#fff"/>
    </g>
  </g>
</svg>
