<svg xmlns="http://www.w3.org/2000/svg" width="32" height="32" viewBox="0 0 32 32">
  <g id="Group_40236" data-name="Group 40236" transform="translate(-10176 -486)">
    <g id="Group_40048" data-name="Group 40048" transform="translate(10176 486)" opacity="0">
      <rect id="Rectangle_18703" data-name="Rectangle 18703" width="32" height="32" fill="#e3e3e3"/>
      <rect id="Rectangle_18704" data-name="Rectangle 18704" width="28.343" height="28.343" transform="translate(1.829 1.829)" fill="#b5b5b5"/>
    </g>
    <g id="noun_donation_3156199" transform="translate(10179.499 489.5)">
      <g id="Group_39961" data-name="Group 39961" transform="translate(0 0)">
        <path id="Union_38" data-name="Union 38" d="M.789,25v-.039A1.08,1.08,0,0,1,0,23.922V14.469a1.082,1.082,0,0,1,1.081-1.078H5.863c-.029-.067-.055-.137-.081-.207H5.017a1.866,1.866,0,0,1-1.864-1.865,1.731,1.731,0,0,1,.073-.509A1.874,1.874,0,0,1,1.574,8.956a1.812,1.812,0,0,1,.075-.509,1.867,1.867,0,0,1,0-3.709,1.812,1.812,0,0,1-.075-.509A1.868,1.868,0,0,1,3.442,2.364H6.377A2.842,2.842,0,0,1,6.3,1.717,1.678,1.678,0,0,1,7.977,0,1.657,1.657,0,0,1,8.6.119a9.309,9.309,0,0,0,3.468.667h2.165a7.319,7.319,0,0,1,5.7,2.757H25V12H19.75c-.1.047-.2.091-.295.135a4.689,4.689,0,0,1-.316,1.254h4.784A1.079,1.079,0,0,1,25,14.469v9.452a1.081,1.081,0,0,1-.789,1.04V25Zm.581-1.368H23.632v-8.87H18.287c-.068.072-.128.14-.189.2L15.731,17.33h1.89A1.079,1.079,0,0,1,18.7,18.408v2.364a1.079,1.079,0,0,1-1.079,1.078H7.38A1.079,1.079,0,0,1,6.3,20.772V18.408A1.079,1.079,0,0,1,7.38,17.33H9.274L6.9,14.961c-.061-.06-.122-.127-.187-.2H1.37Zm11.208-3.153h4.751V18.7H14.36Zm-4.905,0h4.751L10.641,18.7H7.673ZM7.665,9.447a3.377,3.377,0,0,0,.206,4.546L12.5,18.62l4.63-4.629a3.354,3.354,0,0,0,.988-2.384,3.393,3.393,0,0,0-.781-2.159,2.742,2.742,0,0,0-2.11-.988,3.025,3.025,0,0,0-2.152.89l-.574.574-.575-.574a3.02,3.02,0,0,0-2.151-.89A2.742,2.742,0,0,0,7.665,9.447ZM4.52,11.319a.5.5,0,0,0,.5.5h.5c0-.072,0-.142,0-.209a4.753,4.753,0,0,1,.065-.784H5.017A.5.5,0,0,0,4.52,11.319Zm15.755-.685h3.357V4.914H20.276ZM2.945,8.956a.5.5,0,0,0,.5.5H6.033a4.586,4.586,0,0,1,.582-.882c.031-.039.062-.075.092-.111H3.442A.5.5,0,0,0,2.945,8.956ZM18.39,8.57a4.791,4.791,0,0,1,.516.76V4.458a5.927,5.927,0,0,0-4.673-2.3H12.069a10.7,10.7,0,0,1-3.978-.765.283.283,0,0,0-.114-.023.309.309,0,0,0-.3.313,1.46,1.46,0,0,0,.418,1.05,1.434,1.434,0,0,0,1.014.419h2.638l.272.546a1.854,1.854,0,0,0,1.669,1.029h.292V6.1h-.292A3.184,3.184,0,0,1,11.2,4.934a6.867,6.867,0,0,0-.383,2.237v.041A4.415,4.415,0,0,1,12.5,8.03a4.412,4.412,0,0,1,2.726-.941A4.112,4.112,0,0,1,18.39,8.57ZM1.37,6.592a.5.5,0,0,0,.5.5H9.454a7.991,7.991,0,0,1,.07-.993H1.867A.5.5,0,0,0,1.37,6.592ZM2.945,4.228a.5.5,0,0,0,.5.5H9.832c.02-.067.044-.137.07-.2h-.8a2.778,2.778,0,0,1-1.947-.789H3.442A.5.5,0,0,0,2.945,4.228Z" fill="#007c3d"/>
      </g>
      <path id="Union_39" data-name="Union 39" d="M1.931,4.72c-.057,0-.057,0-.2-.191q-.11-.145-.326-.436C1.117,3.708.681,3.121.109,2.35L.085,2.319V2.15H.378c.58,0,.919-.2,1.034-.616l0-.032H.137A.136.136,0,0,1,0,1.361V1.072A.137.137,0,0,1,.137.945H1.359a.7.7,0,0,0-.2-.234A1.128,1.128,0,0,0,.643.556H.137A.136.136,0,0,1,0,.415V.126A.136.136,0,0,1,.137,0h2.8a.138.138,0,0,1,.123.14V.415A.136.136,0,0,1,2.92.556H2.142a1.306,1.306,0,0,1,.186.382l0,.008h.6a.137.137,0,0,1,.123.14v.274A.136.136,0,0,1,2.92,1.5H2.363a1.391,1.391,0,0,1-.58.87l-.013.009a2.692,2.692,0,0,1-.566.272L2.613,4.539V4.72Z" transform="translate(10.973 11.026)" fill="#007c3d"/>
    </g>
  </g>
</svg>
