<svg xmlns="http://www.w3.org/2000/svg" width="50.976" height="58" viewBox="0 0 50.976 58"><defs><style>.a{fill:#fff;}</style></defs><path class="a" d="M31,15.293V56.3A1.7,1.7,0,0,0,32.7,58H80.279a1.7,1.7,0,0,0,1.7-1.7V15.293a1.7,1.7,0,0,0-1.7-1.7H68.718L45.568.228A1.7,1.7,0,0,0,43.247.85l-6.8,11.772a1.691,1.691,0,0,0-.223.972H32.7a1.7,1.7,0,0,0-1.7,1.7ZM45.34,4.021l20.6,11.894L61.4,23.789H59.19L50.544,18.8a5.1,5.1,0,1,0-1.867-6.964A5.1,5.1,0,0,0,50.544,18.8l-10.3-5.946Zm6.28,9.512a1.7,1.7,0,1,1,.622,2.321A1.7,1.7,0,0,1,51.621,13.533ZM34.4,16.992h6.22l11.772,6.8H42.9a1.7,1.7,0,0,0,0,3.4H70.084a1.7,1.7,0,0,0,0-3.4H65.32l3.924-6.8H78.58V54.6H34.4V16.992Z" transform="translate(-31.002 0)"/><path class="a" d="M182.328,293.5a6.425,6.425,0,0,0-4.8,2.1,6.425,6.425,0,0,0-4.8-2.1A6.656,6.656,0,0,0,166,300.236c0,3.992,3.294,6.559,7.852,10.11.79.616,1.607,1.252,2.473,1.945a1.921,1.921,0,0,0,2.4,0c.866-.693,1.683-1.329,2.473-1.945,4.559-3.552,7.852-6.118,7.852-10.11A6.656,6.656,0,0,0,182.328,293.5Zm-3.49,13.812c-.428.333-.863.673-1.312,1.025-.448-.352-.884-.692-1.312-1.025-4.187-3.262-6.372-5.058-6.372-7.08a2.8,2.8,0,0,1,2.881-2.891c2.089,0,2.869,2.185,2.964,2.479a1.909,1.909,0,0,0,3.676,0c.1-.294.875-2.479,2.964-2.479a2.8,2.8,0,0,1,2.881,2.891C185.209,302.257,183.025,304.053,178.838,307.315Z" transform="translate(-152.038 -263.483)"/></svg>