<svg xmlns="http://www.w3.org/2000/svg" width="60" height="60" viewBox="0 0 60 60">
  <g id="Group_40080" data-name="Group 40080" transform="translate(-10176 -486)">
    <g id="Group_40048" data-name="Group 40048" transform="translate(10176 486)" opacity="0">
      <rect id="Rectangle_18703" data-name="Rectangle 18703" width="60" height="60" fill="#e3e3e3"/>
      <rect id="Rectangle_18704" data-name="Rectangle 18704" width="53.143" height="53.143" transform="translate(3.429 3.429)" fill="#b5b5b5"/>
    </g>
    <g id="noun_donation_3156199" transform="translate(10179.43 489.601)">
      <g id="Group_39961" data-name="Group 39961" transform="translate(0 0)">
        <path id="Union_38" data-name="Union 38" d="M1.672,52.969v-.082A2.288,2.288,0,0,1,0,50.684V30.657a2.292,2.292,0,0,1,2.29-2.285H12.422c-.061-.142-.117-.29-.171-.438H10.63a3.954,3.954,0,0,1-3.95-3.951A3.667,3.667,0,0,1,6.833,22.9a3.97,3.97,0,0,1-3.5-3.929A3.839,3.839,0,0,1,3.494,17.9a3.956,3.956,0,0,1,0-7.858,3.84,3.84,0,0,1-.159-1.079A3.958,3.958,0,0,1,7.292,5.008h6.218a6.022,6.022,0,0,1-.156-1.37A3.554,3.554,0,0,1,16.9,0a3.512,3.512,0,0,1,1.321.252,19.724,19.724,0,0,0,7.349,1.414h4.587A15.507,15.507,0,0,1,42.234,7.507h10.74V25.43H41.846c-.208.1-.417.192-.625.285a9.936,9.936,0,0,1-.669,2.657H50.688a2.286,2.286,0,0,1,2.285,2.285V50.684a2.291,2.291,0,0,1-1.672,2.2v.082Zm1.23-2.9H50.071V31.276H38.745c-.144.154-.271.3-.4.422L33.33,36.717h4A2.286,2.286,0,0,1,39.619,39V44.01A2.286,2.286,0,0,1,37.334,46.3h-21.7a2.285,2.285,0,0,1-2.283-2.285V39a2.285,2.285,0,0,1,2.283-2.285h4.011L14.629,31.7c-.129-.126-.259-.269-.4-.422H2.9ZM26.65,43.391H36.716v-3.77H30.425Zm-10.393,0H26.323l-3.777-3.77H16.257ZM16.24,20.016a7.155,7.155,0,0,0,.437,9.633l9.81,9.8,9.81-9.808a7.105,7.105,0,0,0,2.092-5.052,7.189,7.189,0,0,0-1.655-4.575,5.809,5.809,0,0,0-4.47-2.093A6.409,6.409,0,0,0,27.7,19.808l-1.216,1.216-1.218-1.216a6.4,6.4,0,0,0-4.558-1.885A5.809,5.809,0,0,0,16.24,20.016ZM9.578,23.983a1.055,1.055,0,0,0,1.052,1.052H11.7c-.01-.153-.01-.3-.01-.444a10.071,10.071,0,0,1,.137-1.66H10.63A1.055,1.055,0,0,0,9.578,23.983Zm33.381-1.452h7.112V10.411H42.959ZM6.24,18.975a1.052,1.052,0,0,0,1.052,1.052h5.491a9.717,9.717,0,0,1,1.233-1.868c.066-.082.132-.159.2-.236H7.292A1.052,1.052,0,0,0,6.24,18.975Zm32.725-.816a10.151,10.151,0,0,1,1.094,1.611V9.446a12.557,12.557,0,0,0-9.9-4.877H25.571a22.662,22.662,0,0,1-8.428-1.622A.6.6,0,0,0,16.9,2.9a.655.655,0,0,0-.645.663,3.092,3.092,0,0,0,.886,2.225,3.039,3.039,0,0,0,2.148.888H24.88l.576,1.156a3.927,3.927,0,0,0,3.535,2.181h.618v2.9h-.618a6.746,6.746,0,0,1-5.251-2.46,14.55,14.55,0,0,0-.811,4.74v.088a9.355,9.355,0,0,1,3.557,1.731,9.347,9.347,0,0,1,5.776-1.994A8.712,8.712,0,0,1,38.965,18.159ZM2.9,13.967a1.052,1.052,0,0,0,1.052,1.052H20.032a16.93,16.93,0,0,1,.149-2.1H3.955A1.052,1.052,0,0,0,2.9,13.967ZM6.24,8.959a1.052,1.052,0,0,0,1.052,1.052h13.54c.042-.143.093-.29.149-.433H19.292a5.886,5.886,0,0,1-4.126-1.671H7.292A1.052,1.052,0,0,0,6.24,8.959Z" fill="#007c3d" stroke="#fff" stroke-width="0.65"/>
      </g>
      <path id="Union_39" data-name="Union 39" d="M4.092,10c-.121,0-.121,0-.425-.4q-.233-.307-.691-.923C2.367,7.856,1.444,6.613.231,4.98l-.05-.067V4.555H.8c1.229,0,1.946-.426,2.19-1.305,0-.024.006-.046.009-.068H.29a.289.289,0,0,1-.29-.3l0-.612A.29.29,0,0,1,.29,2H2.88a1.474,1.474,0,0,0-.416-.5,2.39,2.39,0,0,0-1.1-.33H.29A.289.289,0,0,1,0,.879L0,.267A.289.289,0,0,1,.29,0H6.217a.292.292,0,0,1,.26.3V.879a.287.287,0,0,1-.289.3H4.538a2.767,2.767,0,0,1,.393.809L4.937,2l1.28,0a.291.291,0,0,1,.26.3v.58a.287.287,0,0,1-.289.3H5.007A2.948,2.948,0,0,1,3.778,5.024l-.027.019a5.7,5.7,0,0,1-1.2.576l2.985,4V10Z" transform="translate(23.249 23.361)" fill="#007c3d" stroke="#fff" stroke-width="0.3"/>
    </g>
  </g>
</svg>
