<?xml version="1.0" encoding="utf-8"?>
<!-- Generator: Adobe Illustrator 23.0.1, SVG Export Plug-In . SVG Version: 6.00 Build 0)  -->
<svg version="1.1" id="Layer_1" xmlns:svgjs="http://svgjs.com/svgjs"
	 xmlns="http://www.w3.org/2000/svg" xmlns:xlink="http://www.w3.org/1999/xlink" x="0px" y="0px" viewBox="0 0 512 512"
	 style="enable-background:new 0 0 512 512;" xml:space="preserve">
<style type="text/css">
	.st0{fill:#FFFFFF;}
</style>
<g>
	<g>
		<g id="_x35__11_">
			<g>
				<path class="st0" d="M12.6,286.4l213,213c16.8,16.8,44,16.8,60.8,0s16.8-44,0-60.8L103.9,256L286.4,73.5
					c16.8-16.8,16.8-44,0-60.8c-16.8-16.8-44-16.8-60.8,0l-213,213C-4.2,242.4-4.2,269.6,12.6,286.4z M268.7,277.5l169.1,178.2
					c17,17.9,44.5,17.9,61.5,0c17-17.9,17-46.9,0-64.8L360.9,245.1L499.3,99.3c17-17.9,17-46.9,0-64.8s-44.5-17.9-61.5,0
					L268.7,212.7C251.7,230.6,251.7,259.6,268.7,277.5z"/>
			</g>
		</g>
	</g>
</g>
</svg>
