<svg xmlns="http://www.w3.org/2000/svg" width="15.867" height="15.737" viewBox="0 0 15.867 15.737"><defs><style>.a{fill:#fff;}</style></defs><g transform="translate(0 1)"><g transform="translate(0 -1)"><path class="a" d="M15.413,228.217a.453.453,0,0,0-.455.455v4.135a2.04,2.04,0,0,1-2.037,2.037H2.946a2.04,2.04,0,0,1-2.037-2.037v-4.2a.455.455,0,0,0-.909,0v4.2a2.95,2.95,0,0,0,2.946,2.946h9.974a2.95,2.95,0,0,0,2.946-2.946v-4.135A.455.455,0,0,0,15.413,228.217Z" transform="translate(0 -220.017)"/><path class="a" d="M139.251,28.377a.458.458,0,0,0,.32.135.444.444,0,0,0,.32-.135l2.889-2.889a.455.455,0,1,0-.643-.643l-2.111,2.115V16.7a.455.455,0,0,0-.909,0V26.96L137,24.845a.455.455,0,0,0-.643.643Z" transform="translate(-131.638 -16.25)"/></g></g></svg>