<svg xmlns="http://www.w3.org/2000/svg" width="16" height="16" viewBox="0 0 16 16"><defs><style>.a{fill:#757575;}</style></defs><g transform="translate(0 9.695)"><g transform="translate(0)"><path class="a" d="M32.451,307.2a.623.623,0,0,0-.615.631v3.783a.623.623,0,0,1-.615.631H18.912a.623.623,0,0,1-.615-.631v-3.783a.616.616,0,1,0-1.231,0v3.783a1.869,1.869,0,0,0,1.846,1.892H31.22a1.869,1.869,0,0,0,1.846-1.892v-3.783A.623.623,0,0,0,32.451,307.2Z" transform="translate(-17.066 -307.2)"/></g></g><g transform="translate(4.315)"><path class="a" d="M143.925,12.249a.6.6,0,0,0-.855,0l-2.028,2.076V3.631a.616.616,0,1,0-1.231,0V14.325l-2.026-2.076a.605.605,0,0,0-.87.015.642.642,0,0,0,0,.876l3.077,3.153a.605.605,0,0,0,.87,0h0l3.077-3.153A.642.642,0,0,0,143.925,12.249Z" transform="translate(-136.742 -3)"/></g></svg>