<?xml version="1.0" encoding="utf-8"?>
<!-- Generator: Adobe Illustrator 23.0.1, SVG Export Plug-In . SVG Version: 6.00 Build 0)  -->
<svg version="1.1" id="Layer_1" xmlns="http://www.w3.org/2000/svg" xmlns:xlink="http://www.w3.org/1999/xlink" x="0px" y="0px"
	 viewBox="0 0 512 512" style="enable-background:new 0 0 512 512;" xml:space="preserve">
<style type="text/css">
	.st0{fill:#50BD59;}
</style>
<g id="Group_37774" transform="translate(-20 -8.996)">
	<g id="right-arrow" transform="translate(31.851 8.996) rotate(90)">
		<g id="Group_37754" transform="translate(0 0)">
			<path id="Path_43227" class="st0" d="M468.9-219.9L468.9-219.9L289.3-41c-13.8,13-35.6,12.4-48.6-1.4
				c-12.5-13.3-12.5-34.1,0.1-47.3l120.6-120l-266.9,2C75.5-207.1,59.6-222,59-241c-0.6-19,14.3-34.9,33.3-35.5c0.7,0,1.5,0,2.2,0
				l266.9-2l-120.6-120c-13.1-13.8-12.6-35.5,1.2-48.6c13.2-12.6,34-12.7,47.3-0.1l179.6,178.8l0,0
				C482.3-255.1,482.3-233.3,468.9-219.9z"/>
		</g>
	</g>
</g>
</svg>
