<?xml version="1.0" encoding="utf-8"?>
<!-- Generator: Adobe Illustrator 23.0.1, SVG Export Plug-In . SVG Version: 6.00 Build 0)  -->
<svg version="1.1" id="Layer_2" xmlns="http://www.w3.org/2000/svg" xmlns:xlink="http://www.w3.org/1999/xlink" x="0px" y="0px"
	 viewBox="0 0 512 512" style="enable-background:new 0 0 512 512;" xml:space="preserve">
<style type="text/css">
	.st0{fill:#F4F4F4;}
	.st1{display:none;fill:#FB5252;}
	.st2{fill:#FB5252;}
</style>
<circle class="st0" cx="256.9" cy="256" r="235.8"/>
<g id="Capa_1">
	<g>
		<g>
			<g>
				<g>
					<path class="st1" d="M256.9,57C147.1,57,58,146.1,58,256s89.1,198.9,198.9,198.9S455.9,365.8,455.9,256S366.8,57,256.9,57z
						 M256.9,430C160.8,430,82.9,352.1,82.9,256S160.8,81.9,256.9,81.9S431,159.8,431,256S353.1,430,256.9,430z"/>
					<path class="st2" d="M269.4,350.3V119.2h-24.9v231.1l-65.8-65.9l-17.7,17.7l87,87c4.8,4.8,12.7,4.8,17.5,0l87-87l-17.5-17.5
						L269.4,350.3z"/>
				</g>
			</g>
		</g>
	</g>
</g>
</svg>
