<svg xmlns="http://www.w3.org/2000/svg" width="10.031" height="10.031" viewBox="0 0 10.031 10.031"><defs><style>.a{fill:#007c3d;}</style></defs><g transform="translate(-6.014 -6.031)"><g transform="translate(6.611 6.477)"><path class="a" d="M9.491,15.148a.386.386,0,0,1-.273-.659l6.033-6.033A.386.386,0,0,1,15.8,9L9.764,15.035A.385.385,0,0,1,9.491,15.148Z" transform="translate(-9.105 -8.343)"/></g><g transform="translate(6.014 12.51)"><path class="a" d="M6.4,43.149a.39.39,0,0,1-.081-.009.386.386,0,0,1-.3-.458l.6-2.78a.386.386,0,0,1,.755.162l-.6,2.78A.386.386,0,0,1,6.4,43.149Z" transform="translate(-6.015 -39.597)"/></g><g transform="translate(8.795 8.661)"><path class="a" d="M20.8,26.462a.386.386,0,0,1-.273-.659l6.033-6.033a.386.386,0,1,1,.546.546l-6.033,6.033a.385.385,0,0,1-.273.113Z" transform="translate(-20.418 -19.657)"/></g><g transform="translate(6.014 14.694)"><path class="a" d="M6.4,52.278a.386.386,0,0,1-.081-.764l2.78-.6a.386.386,0,0,1,.162.755l-2.78.6A.378.378,0,0,1,6.4,52.278Z" transform="translate(-6.014 -50.91)"/></g><g transform="translate(11.552 7.569)"><path class="a" d="M37.272,16.956A.384.384,0,0,1,37,16.843l-2.184-2.184a.386.386,0,1,1,.546-.546L37.545,16.3a.386.386,0,0,1-.273.659Z" transform="translate(-34.702 -14)"/></g><g transform="translate(12.643 6.031)"><path class="a" d="M42.927,9.433a.386.386,0,0,1-.273-.659,1.158,1.158,0,0,0-1.638-1.638.386.386,0,0,1-.546-.546A1.93,1.93,0,0,1,43.2,9.32.384.384,0,0,1,42.927,9.433Z" transform="translate(-40.357 -6.031)"/></g></g></svg>