<svg xmlns="http://www.w3.org/2000/svg" xmlns:xlink="http://www.w3.org/1999/xlink" width="181.853" height="177.87" viewBox="0 0 181.853 177.87">
  <defs>
    <linearGradient id="linear-gradient" x1="5.199" y1="0.504" x2="7.102" y2="0.504" gradientUnits="objectBoundingBox">
      <stop offset="0" stop-color="#ffc444"/>
      <stop offset="0.996" stop-color="#f36f56"/>
    </linearGradient>
    <clipPath id="clip-path">
      <path id="Path_31087" data-name="Path 31087" d="M1547.755,1170l-17.066-8.831s1.317-10.417,8.7-14.431c15.056-8.19,6.832-20.8,4.177-26.6-4-8.745-3.716-18.2,7.88-16.377s9.589-18.651,1.089-31.842c-8.318-12.909,9.83-35.144,30.4-8.857,12.284,15.7.932,31.46-2.908,40.783s9.046,16.926-1.134,25.474c-8.7,7.3-19.577,10.276-17.265,19.586S1560.8,1165.687,1547.755,1170Z" transform="translate(-1530.689 -1050.799)" fill="url(#linear-gradient)"/>
    </clipPath>
    <linearGradient id="linear-gradient-3" x1="10.61" y1="-2.5" x2="9.949" y2="-1.588" gradientUnits="objectBoundingBox">
      <stop offset="0.004" stop-color="#e38ddd"/>
      <stop offset="1" stop-color="#9571f6"/>
    </linearGradient>
    <linearGradient id="linear-gradient-4" x1="-6.164" y1="0.253" x2="-5.655" y2="1.836" gradientUnits="objectBoundingBox">
      <stop offset="0" stop-color="#ff9085"/>
      <stop offset="1" stop-color="#fb6fbb"/>
    </linearGradient>
    <clipPath id="clip-path-2">
      <path id="Path_31097" data-name="Path 31097" d="M1607.048,1567.06l7.55,15.471s12.322,1.961,14.013-4.632,13.14-6.427,19.215-7.087c16.486-1.79,10.833-20.179,31.751-24.281,5.564-1.091,16.62-1.184,19.931-7.06,3.771-6.694-2.115-9.9,1.285-14.391,5.315-7.025,5.6-16.8-2.437-21.023-7.93-4.17-19.784,5.088-26.805,23.725-6.5,12.685-9.146,13.379-15.866,13.791-4.707.289-17.661-2.047-20.932,5.509s-7.277,13.625-13.012,12.078C1613.015,1556.808,1607.048,1567.06,1607.048,1567.06Z" transform="translate(-1607.048 -1503.072)" fill="none"/>
    </clipPath>
    <linearGradient id="linear-gradient-5" x1="-2.973" y1="-0.073" x2="-2.255" y2="0.774" xlink:href="#linear-gradient-3"/>
    <clipPath id="clip-path-3">
      <path id="Path_31104" data-name="Path 31104" d="M1670.555,1061.5l10.235,25.335c4,.152,11.051-.405,10.459-6.307-.823-8.206,11.491-13.078,16.675-12.708,6.416.459,21.363,1.211,20.284-11.486-.9-10.57-3.564-17.306,7.786-22.371s15.959-14.479,10.888-25.3c-5.337-11.385,5.636-26.537-3.076-34.22-15.18-13.387-34.81,11.391-34.22,34.443s-10.935,14.068-20.655,17.123c-13.269,4.171-3.2,21.574-6.371,28.38C1680.075,1059.722,1674.28,1061.1,1670.555,1061.5Z" transform="translate(-1670.555 -970.667)" fill="none"/>
    </clipPath>
    <linearGradient id="linear-gradient-6" x1="0.234" y1="0.5" x2="1.234" y2="0.5" gradientUnits="objectBoundingBox">
      <stop offset="0.494" stop-color="#ebeff2"/>
      <stop offset="1" stop-color="#fff"/>
    </linearGradient>
    <linearGradient id="linear-gradient-7" y1="0.5" x2="1" y2="0.5" gradientUnits="objectBoundingBox">
      <stop offset="0" stop-color="#311944"/>
      <stop offset="1" stop-color="#893976"/>
    </linearGradient>
    <linearGradient id="linear-gradient-8" x1="0" y1="0.5" x2="1" y2="0.5" xlink:href="#linear-gradient-4"/>
    <linearGradient id="linear-gradient-10" x1="-0.085" y1="0.5" x2="1.065" y2="0.5" gradientUnits="objectBoundingBox">
      <stop offset="0" stop-color="#f57e53"/>
      <stop offset="0.005" stop-color="#f58152"/>
      <stop offset="0.042" stop-color="#f8994d"/>
      <stop offset="0.084" stop-color="#fbac49"/>
      <stop offset="0.133" stop-color="#fdb946"/>
      <stop offset="0.196" stop-color="#fec144"/>
      <stop offset="0.318" stop-color="#ffc444"/>
      <stop offset="0.455" stop-color="#fdb946"/>
      <stop offset="0.694" stop-color="#f99c4c"/>
      <stop offset="0.996" stop-color="#f36f56"/>
    </linearGradient>
    <linearGradient id="linear-gradient-11" x1="0.495" y1="0.179" x2="0.556" y2="4.091" gradientUnits="objectBoundingBox">
      <stop offset="0" stop-color="#ffdb44"/>
      <stop offset="1" stop-color="#feef06"/>
    </linearGradient>
    <linearGradient id="linear-gradient-12" x1="0.492" y1="-0.777" x2="0.511" y2="1.295" xlink:href="#linear-gradient-11"/>
    <linearGradient id="linear-gradient-13" x1="-0.485" y1="-38.548" x2="-0.466" y2="-36.117" gradientUnits="objectBoundingBox">
      <stop offset="0.004" stop-color="#f36f56"/>
      <stop offset="0.306" stop-color="#f99c4c"/>
      <stop offset="0.545" stop-color="#fdb946"/>
      <stop offset="0.682" stop-color="#ffc444"/>
      <stop offset="0.804" stop-color="#fec144"/>
      <stop offset="0.867" stop-color="#fdb946"/>
      <stop offset="0.916" stop-color="#fbac49"/>
      <stop offset="0.958" stop-color="#f8994d"/>
      <stop offset="0.995" stop-color="#f58152"/>
      <stop offset="1" stop-color="#f57e53"/>
    </linearGradient>
    <linearGradient id="linear-gradient-17" x1="-0.203" y1="-34.901" x2="-0.184" y2="-32.469" xlink:href="#linear-gradient-13"/>
    <linearGradient id="linear-gradient-21" x1="-0.446" y1="-31.266" x2="-0.427" y2="-28.835" xlink:href="#linear-gradient-13"/>
    <linearGradient id="linear-gradient-25" x1="-0.594" y1="-27.62" x2="-0.575" y2="-25.189" xlink:href="#linear-gradient-13"/>
    <linearGradient id="linear-gradient-29" x1="-0.485" y1="-23.687" x2="-0.466" y2="-21.255" xlink:href="#linear-gradient-13"/>
    <linearGradient id="linear-gradient-33" x1="-0.203" y1="-20.041" x2="-0.184" y2="-17.609" xlink:href="#linear-gradient-13"/>
    <linearGradient id="linear-gradient-37" x1="-0.446" y1="-16.406" x2="-0.427" y2="-13.974" xlink:href="#linear-gradient-13"/>
    <linearGradient id="linear-gradient-41" x1="-0.32" y1="-12.76" x2="-0.301" y2="-10.328" xlink:href="#linear-gradient-13"/>
    <linearGradient id="linear-gradient-42" x1="0.349" y1="-0.574" x2="2.054" y2="-0.574" xlink:href="#linear-gradient-10"/>
    <linearGradient id="linear-gradient-43" x1="1.231" y1="-0.774" x2="1.334" y2="-0.154" xlink:href="#linear-gradient-11"/>
    <linearGradient id="linear-gradient-44" x1="1.229" y1="-0.8" x2="1.26" y2="-0.61" xlink:href="#linear-gradient-11"/>
    <linearGradient id="linear-gradient-45" x1="-4.929" y1="-0.55" x2="-4.897" y2="-0.357" xlink:href="#linear-gradient-13"/>
    <linearGradient id="linear-gradient-46" x1="-12.566" y1="-3.607" x2="-11.425" y2="-3.607" gradientUnits="objectBoundingBox">
      <stop offset="0" stop-color="#40447e"/>
      <stop offset="0.996" stop-color="#3c3b6b"/>
    </linearGradient>
    <linearGradient id="linear-gradient-47" x1="14.616" y1="-13.873" x2="48.997" y2="12.739" xlink:href="#linear-gradient"/>
    <linearGradient id="linear-gradient-48" x1="0.548" y1="-0.254" x2="1.816" y2="0.759" gradientUnits="objectBoundingBox">
      <stop offset="0" stop-color="#311944"/>
      <stop offset="1" stop-color="#a03976"/>
    </linearGradient>
    <linearGradient id="linear-gradient-49" x1="-1.487" y1="0.5" x2="-0.487" y2="0.5" xlink:href="#linear-gradient-48"/>
    <linearGradient id="linear-gradient-50" x1="0.632" y1="0.653" x2="4.126" y2="-0.312" xlink:href="#linear-gradient-7"/>
    <linearGradient id="linear-gradient-51" x1="4.043" y1="1.688" x2="2.735" y2="0.356" gradientUnits="objectBoundingBox">
      <stop offset="0" stop-color="#aa80f9"/>
      <stop offset="0.996" stop-color="#6165d7"/>
    </linearGradient>
    <linearGradient id="linear-gradient-52" x1="0.103" y1="-1.499" x2="0.602" y2="-0.739" xlink:href="#linear-gradient-51"/>
    <linearGradient id="linear-gradient-53" x1="1.548" y1="0.814" x2="1.322" y2="-0.007" xlink:href="#linear-gradient-51"/>
    <linearGradient id="linear-gradient-54" x1="2.947" y1="-0.105" x2="6.306" y2="-2.276" xlink:href="#linear-gradient"/>
    <linearGradient id="linear-gradient-55" x1="0.708" y1="1.357" x2="0.119" y2="0.3" xlink:href="#linear-gradient-51"/>
    <linearGradient id="linear-gradient-56" x1="6.679" y1="1.047" x2="6.802" y2="-0.559" xlink:href="#linear-gradient"/>
    <linearGradient id="linear-gradient-57" x1="-8.862" y1="1.275" x2="-9.669" y2="-0.552" gradientUnits="objectBoundingBox">
      <stop offset="0" stop-color="#311944"/>
      <stop offset="1" stop-color="#6b3976"/>
    </linearGradient>
    <linearGradient id="linear-gradient-58" x1="3.862" y1="-0.235" x2="3.827" y2="2.934" xlink:href="#linear-gradient"/>
    <linearGradient id="linear-gradient-59" x1="1.202" y1="0.093" x2="2.059" y2="0.093" xlink:href="#linear-gradient-46"/>
    <linearGradient id="linear-gradient-60" x1="-3.734" y1="1.836" x2="-2.741" y2="1.836" xlink:href="#linear-gradient-46"/>
    <linearGradient id="linear-gradient-61" x1="16.483" y1="-8.357" x2="79.666" y2="50.864" xlink:href="#linear-gradient"/>
    <linearGradient id="linear-gradient-62" x1="-0.719" y1="-0.463" x2="4.117" y2="-1.116" xlink:href="#linear-gradient-48"/>
    <linearGradient id="linear-gradient-63" x1="-0.569" y1="-3.05" x2="-0.823" y2="1.224" xlink:href="#linear-gradient-48"/>
    <linearGradient id="linear-gradient-64" x1="0.779" y1="0.047" x2="1.982" y2="-1.422" xlink:href="#linear-gradient-4"/>
    <linearGradient id="linear-gradient-65" x1="0" y1="0.5" x2="1" y2="0.5" xlink:href="#linear-gradient"/>
    <linearGradient id="linear-gradient-67" x1="-2.194" y1="6.092" x2="-1.999" y2="-0.39" xlink:href="#linear-gradient-51"/>
    <linearGradient id="linear-gradient-68" x1="-2.365" y1="-0.662" x2="-2.349" y2="-1.818" xlink:href="#linear-gradient-51"/>
    <linearGradient id="linear-gradient-69" x1="-1.461" y1="-1.063" x2="-1.535" y2="0.01" xlink:href="#linear-gradient-51"/>
    <linearGradient id="linear-gradient-70" x1="-1.482" y1="-1.382" x2="-1.58" y2="1.041" xlink:href="#linear-gradient-51"/>
    <linearGradient id="linear-gradient-71" x1="-2.699" y1="-0.011" x2="-2.808" y2="1.009" xlink:href="#linear-gradient"/>
    <linearGradient id="linear-gradient-72" x1="-27.594" y1="4.283" x2="-26.614" y2="1.221" xlink:href="#linear-gradient"/>
  </defs>
  <g id="Group_39712" data-name="Group 39712" transform="translate(-411.872 -443.484)">
    <path id="Path_31077" data-name="Path 31077" d="M591.05,517.756c-3.585-23.465-6.463-39.681-19.408-48.567-21.836-14.989-46.222,9.344-77.153-6.984-15.229-8.039-15.8-17.359-28.7-18.6-22.819-2.189-41.507,25.044-43.126,27.379a59.378,59.378,0,0,0-9.138,47.988c2.591,10.714,4.342,21.8,3.861,32.812-.836,19.161-.355,37.046,18.24,48.473,16.6,10.2,37.5,19.2,57.433,20.778a128.063,128.063,0,0,0,41.8-4.189C601.4,598.875,595.979,550.019,591.05,517.756Z" fill="#f4f7fa"/>
    <g id="Group_39667" data-name="Group 39667" transform="translate(482.364 476.7)">
      <g id="Group_39658" data-name="Group 39658" transform="translate(0 5.049)">
        <path id="Path_31078" data-name="Path 31078" d="M1547.755,1170l-17.066-8.831s1.317-10.417,8.7-14.431c15.056-8.19,6.832-20.8,4.177-26.6-4-8.745-3.716-18.2,7.88-16.377s9.589-18.651,1.089-31.842c-8.318-12.909,9.83-35.144,30.4-8.857,12.284,15.7.932,31.46-2.908,40.783s9.046,16.926-1.134,25.474c-8.7,7.3-19.577,10.276-17.265,19.586S1560.8,1165.687,1547.755,1170Z" transform="translate(-1530.689 -1050.799)" fill="url(#linear-gradient)"/>
        <g id="Group_39657" data-name="Group 39657" clip-path="url(#clip-path)">
          <path id="Path_31079" data-name="Path 31079" d="M1547.755,1170l-17.066-8.831s1.317-10.417,8.7-14.431c15.056-8.19,6.832-20.8,4.177-26.6-4-8.745-3.448-17.081,6.925-17.308,11.736-.257,10.544-17.719,2.044-30.911-8.318-12.909,9.83-35.144,30.4-8.857,12.284,15.7.932,31.46-2.908,40.783s9.046,16.926-1.134,25.474c-8.7,7.3-19.577,10.276-17.265,19.586S1560.8,1165.687,1547.755,1170Z" transform="translate(-1530.689 -1050.799)" fill="url(#linear-gradient-3)"/>
          <g id="Group_39656" data-name="Group 39656" transform="translate(6.985 -1.113)" opacity="0.5" style="mix-blend-mode: soft-light;isolation: isolate">
            <path id="Path_31080" data-name="Path 31080" d="M1666.546,1151.206l-.321-.249c.154-.2,15.481-20.145,24.713-44.5,8.505-22.438,13.427-53.318-11.426-73.009l.252-.318c11.063,8.765,17.248,20.438,18.383,34.693.907,11.387-1.392,24.437-6.832,38.786C1682.06,1131.019,1666.7,1151.007,1666.546,1151.206Z" transform="translate(-1664.67 -1033.13)" fill="#beb8f2"/>
            <path id="Path_31081" data-name="Path 31081" d="M2171.332,1220.507l-.334-.229c7.639-11.133,11.852-30.382,11.893-30.575l.4.085C2183.245,1189.981,2179.015,1209.309,2171.332,1220.507Z" transform="translate(-2137.638 -1179.837)" fill="#beb8f2"/>
            <path id="Path_31082" data-name="Path 31082" d="M1839.573,1282.957c-8.219-13.832-21.426-16.069-21.558-16.09l.063-.4c.134.021,13.525,2.282,21.844,16.284Z" transform="translate(-1806.897 -1251.764)" fill="#beb8f2"/>
            <path id="Path_31083" data-name="Path 31083" d="M1704.947,1913.734c4.761-19.071-16.186-35.191-16.4-35.331l.2-.354c.226.117,21.4,16.543,16.6,35.783Z" transform="translate(-1685.582 -1824.814)" fill="#beb8f2"/>
            <path id="Path_31084" data-name="Path 31084" d="M2005.085,2161.79l-.315-.256c7.912-9.733,23.625-11.116,23.783-11.128l.033.4C2028.43,2150.822,2012.886,2152.193,2005.085,2161.79Z" transform="translate(-1981.885 -2080.01)" fill="#beb8f2"/>
            <path id="Path_31085" data-name="Path 31085" d="M1645.448,2594.87c2.9-6.881-3.829-17-3.9-17.1l.336-.227c.284.421,6.922,10.4,3.935,17.485Z" transform="translate(-1641.551 -2480.234)" fill="#beb8f2"/>
            <path id="Path_31086" data-name="Path 31086" d="M1757.208,2668.139l-.324-.245c3.557-4.712,14.349-6.428,17.9-6.991.5-.08.934-.148,1.008-.176l.145.379a9.417,9.417,0,0,1-1.09.2C1771.337,2661.861,1760.666,2663.557,1757.208,2668.139Z" transform="translate(-1749.617 -2558.178)" fill="#beb8f2"/>
          </g>
        </g>
      </g>
      <g id="Group_39662" data-name="Group 39662" transform="translate(4.811 33.545)">
        <path id="Path_31088" data-name="Path 31088" d="M1667.129,1559.161c-5.017-1.353-9.058,1.657-11.642,4.293a5.288,5.288,0,0,1,.041,1.31c-.017,4.641.964,6.625,1.67,11.2a24.249,24.249,0,0,0,2.091,4.833l1.177,2.017s11.842,1.676,13.533-4.917,13.14-6.427,19.215-7.087c3.731-.405,5.307-1.786,6.655-2.155,14.259-3.906,19.458-.458,23.314-4.576,4.257-4.547-.859-10.05,3.511-15.24,4.935-5.861,14.772-2.779,18.2-9.369a9.732,9.732,0,0,0,1.292-4c.321-4.182-2.651-6.895-.006-10.39,5.315-7.025,5.6-16.8-2.437-21.023-7.93-4.17-19.784,5.088-26.8,23.726-6.5,12.685-9.146,13.379-15.866,13.791-4.707.289-17.66-2.047-20.932,5.509S1672.864,1560.708,1667.129,1559.161Z" transform="translate(-1652.435 -1503.071)" fill="url(#linear-gradient-4)"/>
        <g id="Group_39661" data-name="Group 39661" transform="translate(0 0)">
          <g id="Group_39660" data-name="Group 39660" clip-path="url(#clip-path-2)">
            <g id="Group_39659" data-name="Group 39659" transform="translate(4.066 -5.93)" opacity="0.5" style="mix-blend-mode: soft-light;isolation: isolate">
              <path id="Path_31089" data-name="Path 31089" d="M1671.584,1485.459l.112.322c1.785-.6,3.577-1.236,5.325-1.88a183.591,183.591,0,0,0,35.646-17.531,149.941,149.941,0,0,0,24.589-19.587,129.061,129.061,0,0,0,15.451-18.386,106.881,106.881,0,0,0,8.022-13.637c.386-.79.737-1.622,1.077-2.428.453-1.073.921-2.183,1.474-3.2l-.28-.18c-.561,1.03-1.032,2.147-1.488,3.227-.338.8-.688,1.63-1.07,2.412a106.544,106.544,0,0,1-8,13.6,128.728,128.728,0,0,1-15.414,18.343,149.65,149.65,0,0,1-24.54,19.548,183.289,183.289,0,0,1-35.589,17.5C1675.156,1484.225,1673.367,1484.856,1671.584,1485.459Z" transform="translate(-1671.584 -1408.953)" fill="#fcfdfe"/>
              <path id="Path_31090" data-name="Path 31090" d="M2564.663,2025.4l.2.275c10.734-8.417,34.263-7.453,34.5-7.442l0-.338C2599.122,2017.883,2575.483,2016.914,2564.663,2025.4Z" transform="translate(-2508.393 -1979.491)" fill="#fcfdfe"/>
              <path id="Path_31091" data-name="Path 31091" d="M2054.747,2117.64l.169.3c7.976-4.781,10.786-23.419,10.813-23.607l-.316-.069C2065.386,2094.446,2062.6,2112.934,2054.747,2117.64Z" transform="translate(-2030.605 -2051.081)" fill="#fcfdfe"/>
              <path id="Path_31092" data-name="Path 31092" d="M1979.053,2482.414l.119.32c5.7-2.068,14.681-1.609,25.3,1.292.534.146.534.146.59.126l-.115-.322.057.161,0-.168c-.036-.005-.238-.06-.471-.124C1993.856,2480.781,1984.808,2480.324,1979.053,2482.414Z" transform="translate(-1959.68 -2413.568)" fill="#fcfdfe"/>
              <path id="Path_31093" data-name="Path 31093" d="M1723.008,2388.9l.2.276c5.3-4.117,5.388-14.677,5.388-14.783l-.32-.019C1728.274,2374.478,1728.184,2384.877,1723.008,2388.9Z" transform="translate(-1719.768 -2313.545)" fill="#fcfdfe"/>
              <path id="Path_31094" data-name="Path 31094" d="M1672.93,2626.244c5.447.245,11.091,2.148,17.253,5.818l.146-.292c-6.21-3.7-11.9-5.616-17.4-5.863Z" transform="translate(-1672.841 -2549.23)" fill="#fcfdfe"/>
              <path id="Path_31095" data-name="Path 31095" d="M2912.629,1615.6l.213.264a83.065,83.065,0,0,1,15.231-10.147c.571-.305.771-.414.834-.464l-.2-.272c-.048.038-.375.213-.788.434A83.363,83.363,0,0,0,2912.629,1615.6Z" transform="translate(-2834.435 -1592.63)" fill="#fcfdfe"/>
              <path id="Path_31096" data-name="Path 31096" d="M2784.915,1607.052l.274.19c3.7-6.263.212-21.129.061-21.759l-.31.066C2784.977,1585.7,2788.55,1600.906,2784.915,1607.052Z" transform="translate(-2714.768 -1574.361)" fill="#fcfdfe"/>
            </g>
          </g>
        </g>
      </g>
      <g id="Group_39666" data-name="Group 39666" transform="translate(4.107 0)">
        <path id="Path_31098" data-name="Path 31098" d="M1598.774,1065.908c.568,1.034-7.453,9.294.992,9.62,2.11.081,8.683-1.474,12.156,6.48l2.023,4.632c4.05-.042,7.86-.833,7.33-6.117-.823-8.206,11.49-13.078,16.675-12.708,6.416.459,21.363,1.211,20.284-11.486-.9-10.57-3.564-17.307,7.786-22.371s15.959-14.479,10.888-25.3c-5.337-11.385,5.636-26.537-3.076-34.22-15.18-13.387-34.81,11.391-34.22,34.444s-10.935,14.068-20.655,17.123a17.6,17.6,0,0,0-3.694,1.917c-8.986,6.127-6.617,17.1-11.785,27.657C1596.43,1069.981,1597.817,1064.165,1598.774,1065.908Z" transform="translate(-1595.876 -970.667)" fill="url(#linear-gradient-5)"/>
        <g id="Group_39665" data-name="Group 39665" transform="translate(4.705)">
          <g id="Group_39664" data-name="Group 39664" clip-path="url(#clip-path-3)">
            <g id="Group_39663" data-name="Group 39663" transform="translate(8.606 -2.41)" opacity="0.5" style="mix-blend-mode: soft-light;isolation: isolate">
              <path id="Path_31099" data-name="Path 31099" d="M1807.137,1036.113l.318.5c34.284-22.287,57.1-62.189,59.554-104.134l-.566-.063C1864,974.183,1841.278,1013.918,1807.137,1036.113Z" transform="translate(-1807.137 -932.415)" fill="#fcfdfe"/>
              <path id="Path_31100" data-name="Path 31100" d="M2086.548,2329.368l.219.55c15.014-5.752,32.117,3.29,32.288,3.382l.242-.516C2119.125,2332.69,2101.8,2323.525,2086.548,2329.368Z" transform="translate(-2068.943 -2239.527)" fill="#fcfdfe"/>
              <path id="Path_31101" data-name="Path 31101" d="M1905.382,1878.549l.441.389c10.361-12.738.64-42.567.541-42.867l-.535.165C1905.927,1836.533,1915.546,1866.054,1905.382,1878.549Z" transform="translate(-1899.192 -1779.135)" fill="#fcfdfe"/>
              <path id="Path_31102" data-name="Path 31102" d="M2479.022,1725.465l.409.425c9.06-9.3,29.144-8.223,29.345-8.211l.005-.584C2508.578,1717.082,2488.249,1715.992,2479.022,1725.465Z" transform="translate(-2436.689 -1667.614)" fill="#fcfdfe"/>
              <path id="Path_31103" data-name="Path 31103" d="M2508.778,978.212l.56.118c2.281-15.1-9.325-32.675-9.443-32.851l-.461.316C2499.551,945.968,2511.024,963.352,2508.778,978.212Z" transform="translate(-2455.815 -944.655)" fill="#fcfdfe"/>
            </g>
          </g>
        </g>
      </g>
    </g>
    <g id="Group_39670" data-name="Group 39670" transform="translate(414.447 502.331)">
      <g id="Group_39669" data-name="Group 39669" transform="translate(0 0)">
        <path id="Path_31105" data-name="Path 31105" d="M694.876,2765.427l-174.363-1.507v4.459a2.368,2.368,0,0,0,1.791,2.423l49.3,8.781a6.832,6.832,0,0,0,1.769.082l119.6-10.012a2.255,2.255,0,0,0,1.895-2.365Z" transform="translate(-516.243 -2676.564)" fill="#bfc8d6"/>
        <g id="Group_39668" data-name="Group 39668">
          <path id="Path_31106" data-name="Path 31106" d="M570.048,1380.993v74.6a3.81,3.81,0,0,1-.825,2.471,2.946,2.946,0,0,1-2.041,1.119l-80.1,5.994-29.856,2.295h0l-.2-.08-.649,0a3.418,3.418,0,0,1-3.621-3.514V1381.35a3.846,3.846,0,0,1,3.645-3.883h110.82C568.847,1377.467,570.048,1379.131,570.048,1380.993Z" transform="translate(-452.746 -1377.467)" fill="#bfc8d6"/>
          <path id="Path_31107" data-name="Path 31107" d="M598.69,1380.993v74.6a3.659,3.659,0,0,1-1.86,3.287c-.016.008-.012.016-.028.025a2.677,2.677,0,0,1-.314.136l-.069.027c-.02,0-.038.011-.056.016a2.192,2.192,0,0,1-.244.059,2.235,2.235,0,0,1-.3.041l-.561-.012-79.741,5.82h0l-30.516,2.3a3.436,3.436,0,0,1-.856.077c-.027,0-.052.106-.079.106h0c-.067,0-.141-.125-.208-.145a3.52,3.52,0,0,1-2.459-3.452V1381.35a3.815,3.815,0,0,1,3.609-3.883h110.82C597.452,1377.467,598.69,1379.131,598.69,1380.993Z" transform="translate(-479.583 -1377.467)" fill="#fff"/>
          <path id="Path_31108" data-name="Path 31108" d="M664.236,1527.468l-103.219,7.086a2.754,2.754,0,0,1-2.925-2.844v-72.251a3,3,0,0,1,2.925-3.057l103.219-.445a2.607,2.607,0,0,1,2.438,2.763v65.808A2.849,2.849,0,0,1,664.236,1527.468Z" transform="translate(-551.455 -1451.011)" fill="#d8dee8"/>
          <path id="Path_31109" data-name="Path 31109" d="M1442.254,1395.1a1.281,1.281,0,1,1-1.275-1.388A1.34,1.34,0,0,1,1442.254,1395.1Z" transform="translate(-1377.517 -1392.689)" fill="#fff"/>
          <path id="Path_31110" data-name="Path 31110" d="M485.175,1469.63l110.261-8.117.561-.041a2.975,2.975,0,0,0,1.952-.988c-7.935-.434-12.863-3.25-16.042-6.159-6.384-5.843-5.277-11.6-12.162-15.446-8.587-4.792-15.339,1.28-21.855-4.711-3.951-3.632-2.011-6.34-6.872-11.767-5.384-6.011-8.889-3.99-14.3-9.4-6.841-6.841-3.42-12.163-9.313-17.074-7.149-5.958-14.859-.444-21.665-6.158-2.935-2.464-4.546-6.047-5.387-9.858h-5.178a3.666,3.666,0,0,0-3.6,3.73v82.526A3.359,3.359,0,0,0,485.175,1469.63Z" transform="translate(-479.763 -1379.755)" fill="#fff" opacity="0.48" style="mix-blend-mode: soft-light;isolation: isolate"/>
        </g>
        <path id="Path_31111" data-name="Path 31111" d="M637.7,2666.88l-117.185,8.587,51.1,9.1a6.843,6.843,0,0,0,1.769.082l121.5-10.171-55.313-7.541A8.932,8.932,0,0,0,637.7,2666.88Z" transform="translate(-516.243 -2585.615)" fill="url(#linear-gradient-6)"/>
        <path id="Path_31112" data-name="Path 31112" d="M791.9,2696.8l97.56-7.255,30.194,4.083-96.72,7.756Z" transform="translate(-770.532 -2606.872)" fill="#d8dee8"/>
      </g>
    </g>
    <g id="Group_39673" data-name="Group 39673" transform="translate(426.114 460.974)">
      <g id="Group_39672" data-name="Group 39672" transform="translate(0)">
        <path id="Path_31113" data-name="Path 31113" d="M693.811,817.681a3.566,3.566,0,0,0-3.395-3.517l-48.637-2.115a3.565,3.565,0,0,0-3.864,3.43V854.3a3.713,3.713,0,0,0,3.859,3.565l1.139-.013.054-.085,47.415-.937c1.874-.015,3.43-.9,3.43-2.764Zm-42.542,3.157a3.344,3.344,0,0,1-3.285-3.234,3.055,3.055,0,0,1,3.285-2.988,3.344,3.344,0,0,1,3.261,3.233A3.054,3.054,0,0,1,651.27,820.839Zm15.5.527a3.253,3.253,0,0,1-3.17-3.175,2.972,2.972,0,0,1,3.17-2.937,3.254,3.254,0,0,1,3.147,3.174A2.972,2.972,0,0,1,666.772,821.365Zm14.964.508a3.167,3.167,0,0,1-3.061-3.118,2.893,2.893,0,0,1,3.061-2.888,3.168,3.168,0,0,1,3.039,3.117A2.894,2.894,0,0,1,681.737,821.874Z" transform="translate(-637.915 -806.313)" fill="url(#linear-gradient-7)"/>
        <path id="Path_31114" data-name="Path 31114" d="M713.719,825.181v-6.738a3.489,3.489,0,0,0-3.346-3.472l-48.466-2.109a3.826,3.826,0,0,0-2.362.648,3.316,3.316,0,0,0-1.467,2.74v8.931ZM701.7,816.674a3.163,3.163,0,0,1,3.031,3.113,2.888,2.888,0,0,1-3.031,2.884,3.161,3.161,0,0,1-3.053-3.113A2.888,2.888,0,0,1,701.7,816.674Zm-14.926-.613a3.248,3.248,0,0,1,3.139,3.17,2.966,2.966,0,0,1-3.139,2.933A3.247,3.247,0,0,1,683.615,819,2.967,2.967,0,0,1,686.777,816.061Zm-15.463-.635a3.338,3.338,0,0,1,3.253,3.23,3.049,3.049,0,0,1-3.253,2.984,3.338,3.338,0,0,1-3.277-3.229A3.05,3.05,0,0,1,671.315,815.426Z" transform="translate(-656.807 -807.074)" fill="url(#linear-gradient-8)"/>
        <path id="Path_31115" data-name="Path 31115" d="M658.077,976.238v31.9a3.622,3.622,0,0,0,3.752,3.563l48.516-.393a3.4,3.4,0,0,0,3.374-3.392V978Z" transform="translate(-656.807 -960.161)" fill="#fff"/>
        <g id="Group_39671" data-name="Group 39671" transform="translate(4.573 21.508)">
          <path id="Path_31116" data-name="Path 31116" d="M1132.454,1063.381a.8.8,0,0,0-.776-.82l-4.8-.125c-.458-.012-1.03.337-1.03.782v4.5c0,.445.593.817,1.052.826l4.667.089a.852.852,0,0,0,.887-.785Z" transform="translate(-1099.678 -1062.436)" fill="#bfc8d6"/>
          <path id="Path_31117" data-name="Path 31117" d="M1273.084,1067a.835.835,0,0,0-.817-.813l-4.489-.117a.764.764,0,0,0-.792.78v4.452a.8.8,0,0,0,.786.812l4.509.086a.78.78,0,0,0,.8-.779Z" transform="translate(-1231.924 -1065.841)" fill="#bfc8d6"/>
          <path id="Path_31118" data-name="Path 31118" d="M1406.157,1070.495a.843.843,0,0,0-.822-.806l-4.45-.12a.791.791,0,0,0-.826.767v4.407a.825.825,0,0,0,.809.808l4.461.088a.8.8,0,0,0,.828-.768Z" transform="translate(-1356.612 -1069.119)" fill="#bfc8d6"/>
          <path id="Path_31119" data-name="Path 31119" d="M1132.454,1193.722a.789.789,0,0,0-.776-.813l-4.8-.081c-.458-.008-1.03.344-1.03.79v4.5c0,.445.593.814,1.052.818l4.667.046a.861.861,0,0,0,.887-.792Z" transform="translate(-1099.678 -1184.612)" fill="#bfc8d6"/>
          <path id="Path_31120" data-name="Path 31120" d="M1273.084,1196.067a.826.826,0,0,0-.817-.806l-4.489-.075a.773.773,0,0,0-.792.787v4.451a.791.791,0,0,0,.786.8l4.509.044a.789.789,0,0,0,.8-.786Z" transform="translate(-1231.924 -1186.822)" fill="url(#linear-gradient-8)"/>
          <path id="Path_31121" data-name="Path 31121" d="M1406.157,1198.279a.833.833,0,0,0-.822-.8l-4.45-.078a.8.8,0,0,0-.826.774v4.407a.816.816,0,0,0,.809.8l4.461.046a.81.81,0,0,0,.828-.775Z" transform="translate(-1356.612 -1188.898)" fill="#bfc8d6"/>
          <path id="Path_31122" data-name="Path 31122" d="M717.106,1186.627a.9.9,0,0,0-.905-.843l-4.854-.086a.808.808,0,0,0-.847.813v4.635a.824.824,0,0,0,.83.842l4.9.052a.843.843,0,0,0,.879-.813Z" transform="translate(-710.5 -1177.932)" fill="#bfc8d6"/>
          <path id="Path_31123" data-name="Path 31123" d="M858.244,1189.036a.819.819,0,0,0-.816-.83l-4.858-.083a.889.889,0,0,0-.933.807v4.588a.939.939,0,0,0,.952.833l4.795.047a.831.831,0,0,0,.859-.809Z" transform="translate(-842.745 -1180.205)" fill="#bfc8d6"/>
          <path id="Path_31124" data-name="Path 31124" d="M995.349,1191.42a.823.823,0,0,0-.813-.826l-4.82-.084a.93.93,0,0,0-.973.8v4.542a.977.977,0,0,0,.984.826l4.74.051a.85.85,0,0,0,.882-.8Z" transform="translate(-971.212 -1182.44)" fill="#bfc8d6"/>
          <path id="Path_31125" data-name="Path 31125" d="M1132.454,1324.062a.78.78,0,0,0-.776-.805l-4.8-.037c-.458,0-1.03.352-1.03.8v4.5c0,.445.593.81,1.052.81l4.667,0a.87.87,0,0,0,.887-.8Z" transform="translate(-1099.678 -1306.789)" fill="#bfc8d6"/>
          <path id="Path_31126" data-name="Path 31126" d="M1273.084,1325.132a.817.817,0,0,0-.817-.8l-4.489-.032a.781.781,0,0,0-.792.794v4.452a.781.781,0,0,0,.786.8h4.509a.8.8,0,0,0,.8-.793Z" transform="translate(-1231.924 -1307.802)" fill="#bfc8d6"/>
          <path id="Path_31127" data-name="Path 31127" d="M717.106,1321a.889.889,0,0,0-.905-.834l-4.854-.039a.817.817,0,0,0-.847.822v4.635a.815.815,0,0,0,.83.833l4.9,0a.853.853,0,0,0,.879-.822Z" transform="translate(-710.5 -1303.895)" fill="#bfc8d6"/>
          <path id="Path_31128" data-name="Path 31128" d="M858.244,1322.037a.809.809,0,0,0-.816-.822l-4.858-.037a.9.9,0,0,0-.933.815v4.588a.929.929,0,0,0,.952.825h4.795a.84.84,0,0,0,.859-.817Z" transform="translate(-842.745 -1304.876)" fill="#bfc8d6"/>
          <path id="Path_31129" data-name="Path 31129" d="M995.349,1323.1a.813.813,0,0,0-.813-.819l-4.82-.039a.94.94,0,0,0-.973.8v4.542a.966.966,0,0,0,.984.817l4.74.006a.859.859,0,0,0,.882-.8Z" transform="translate(-971.212 -1305.869)" fill="#bfc8d6"/>
        </g>
        <path id="Path_31130" data-name="Path 31130" d="M777.157,721.075c-3.038-.154-5.553,2.32-5.8,5.926l2.566.112c.209-2.155,1.605-3.749,3.23-3.672,1.756.084,3.234,2.124,3.234,4.467s-1.478,4.261-3.234,4.194a3.1,3.1,0,0,1-2.355-1.476,2.978,2.978,0,0,0-.379,2.944,5.3,5.3,0,0,0,2.734.893c3.175.112,5.741-2.776,5.741-6.448S780.332,721.236,777.157,721.075Z" transform="translate(-762.953 -721.068)" fill="#bfc8d6"/>
        <path id="Path_31131" data-name="Path 31131" d="M1025.3,733.354c-2.933-.148-5.36,2.284-5.595,5.827l2.477.108c.2-2.117,1.549-3.685,3.118-3.61,1.695.081,3.122,2.085,3.122,4.387s-1.427,4.188-3.122,4.123a2.987,2.987,0,0,1-2.274-1.448,2.969,2.969,0,0,0-.366,2.893,5.056,5.056,0,0,0,2.64.876c3.065.108,5.543-2.731,5.543-6.34S1028.369,733.509,1025.3,733.354Z" transform="translate(-995.653 -732.574)" fill="#bfc8d6"/>
        <path id="Path_31132" data-name="Path 31132" d="M1265.685,745.5c-2.831-.143-5.173,2.248-5.4,5.729l2.391.1c.195-2.08,1.5-3.621,3.009-3.549,1.636.078,3.013,2.046,3.013,4.307s-1.377,4.115-3.013,4.053a2.875,2.875,0,0,1-2.194-1.421,2.959,2.959,0,0,0-.353,2.842,4.818,4.818,0,0,0,2.548.859c2.959.1,5.35-2.687,5.35-6.232S1268.644,745.649,1265.685,745.5Z" transform="translate(-1221.073 -743.954)" fill="#bfc8d6"/>
        <path id="Path_31133" data-name="Path 31133" d="M713.719,863.009v1.224a3.376,3.376,0,0,1-3.346,3.393l-48.515.392a3.648,3.648,0,0,1-3.781-3.562v-38.8a3.338,3.338,0,0,1,1.453-2.759c1.929.694,4.414,2.631,5.687,7.88,2.244,9.25,4.175,13.2,12.828,13,5.531-.126,9.772.129,12.415,2.566a10.079,10.079,0,0,1,2.843,6.1c.268,1.671,1.468,2.736,3.181,3.518a34.656,34.656,0,0,0,6.124,1.794C706.772,858.736,711.433,859.843,713.719,863.009Z" transform="translate(-656.807 -816.478)" fill="#bfc8d6" opacity="0.3" style="mix-blend-mode: multiply;isolation: isolate"/>
      </g>
    </g>
    <g id="Group_39692" data-name="Group 39692" transform="translate(429.919 563.626)">
      <g id="Group_39675" data-name="Group 39675" transform="translate(7.507 44.501)">
        <path id="Path_31134" data-name="Path 31134" d="M817.715,3112.226v5.99c0,1.935,12.091,3.5,27.005,3.5s27.005-1.569,27.005-3.5v-5.99Z" transform="translate(-817.699 -3108.722)" fill="url(#linear-gradient-10)"/>
        <path id="Path_31135" data-name="Path 31135" d="M871.726,3060.108c0,1.936-12.091,3.5-27.005,3.5s-27.005-1.569-27.005-3.5,12.091-3.5,27.005-3.5S871.726,3058.172,871.726,3060.108Z" transform="translate(-817.699 -3056.603)" fill="url(#linear-gradient-11)"/>
        <path id="Path_31136" data-name="Path 31136" d="M844.486,3111.253c-13.209,0-27.021-1.262-27.021-3.7,0-.134.048-.368.181-.368s.076.184.076.317c0,1.543,10.991,3.263,26.763,3.263s26.763-1.719,26.763-3.263c0-.134.023-.259.156-.259s.1.178.1.312C871.507,3109.993,857.695,3111.253,844.486,3111.253Z" transform="translate(-817.465 -3104.002)" fill="url(#linear-gradient-12)"/>
        <g id="Group_39674" data-name="Group 39674" transform="translate(10.009 2.177)">
          <path id="Path_31137" data-name="Path 31137" d="M990.786,3092.677c.265-.183.547-.364.849-.543a5.346,5.346,0,0,1,1.16-.484,11.109,11.109,0,0,1,1.78-.352,22.6,22.6,0,0,1,2.667-.144q1.566-.007,2.939.1a20.062,20.062,0,0,1,2.417.32,7.455,7.455,0,0,1,1.7.527,1.342,1.342,0,0,1,.776.719l3.041.031a3.021,3.021,0,0,1,.583.054c.17.035.252.079.252.132v.25l-3.909-.038a1.972,1.972,0,0,1-1.048.842,10.661,10.661,0,0,1-2.144.661l-1.424-.2a1.7,1.7,0,0,1-.314-.074c-.082-.03-.122-.062-.122-.1s.11-.1.33-.165.469-.138.746-.229a7.5,7.5,0,0,0,.816-.323,1.106,1.106,0,0,0,.535-.444l-9.227-.092a8.642,8.642,0,0,1-.815.526,5.316,5.316,0,0,1-1.2.465,12.477,12.477,0,0,1-1.857.335,26.23,26.23,0,0,1-2.8.137c-.846,0-1.669-.028-2.475-.1a16.934,16.934,0,0,1-2.148-.307,6.682,6.682,0,0,1-1.541-.5c-.4-.2-.625-.431-.671-.691l-2.5-.026a3.3,3.3,0,0,1-.592-.052c-.173-.033-.26-.078-.261-.133v-.25l3.422.032a1.841,1.841,0,0,1,.936-.689,10.765,10.765,0,0,1,1.737-.522l1.146.157c.348.049.521.106.521.172,0,.035-.07.079-.214.132s-.316.115-.514.188a4.732,4.732,0,0,0-.57.257,1.211,1.211,0,0,0-.417.334Zm-8.444.342a.907.907,0,0,0,.455.424,3.6,3.6,0,0,0,.87.294,8.9,8.9,0,0,0,1.172.169q.654.054,1.366.051a14.3,14.3,0,0,0,1.451-.072,8.329,8.329,0,0,0,1.085-.184,5.044,5.044,0,0,0,.816-.269,4.548,4.548,0,0,0,.623-.333Zm20.087-.224a.942.942,0,0,0-.5-.437,4.486,4.486,0,0,0-1-.316,11.09,11.09,0,0,0-1.418-.19q-.807-.063-1.782-.058a13.672,13.672,0,0,0-1.493.077,7.747,7.747,0,0,0-1.085.2,3.963,3.963,0,0,0-.779.288,5.557,5.557,0,0,0-.6.352Z" transform="translate(-976.326 -3091.154)" fill="#fcb048"/>
        </g>
        <path id="Path_31138" data-name="Path 31138" d="M851.039,3062.625c-12.041,0-24.579,1.06-26.584,3.111a2.459,2.459,0,0,1,.219.231c1.69-1.424,12.043-2.858,26.365-2.858,14.69,0,25.208,1.509,26.482,2.968a2.426,2.426,0,0,1,.2-.229C876.067,3063.724,863.294,3062.625,851.039,3062.625Z" transform="translate(-824.015 -3062.246)" fill="url(#linear-gradient-13)"/>
      </g>
      <g id="Group_39677" data-name="Group 39677" transform="translate(0 38.209)">
        <path id="Path_31139" data-name="Path 31139" d="M698.563,3012.369v5.99c0,1.935,12.091,3.5,27.005,3.5s27.005-1.569,27.005-3.5v-5.99Z" transform="translate(-698.547 -3008.864)" fill="url(#linear-gradient-10)"/>
        <path id="Path_31140" data-name="Path 31140" d="M752.573,2960.251c0,1.936-12.091,3.5-27.005,3.5s-27.005-1.569-27.005-3.5,12.091-3.5,27.005-3.5S752.573,2958.316,752.573,2960.251Z" transform="translate(-698.547 -2956.747)" fill="url(#linear-gradient-11)"/>
        <path id="Path_31141" data-name="Path 31141" d="M725.334,3011.4c-13.209,0-27.021-1.262-27.021-3.695,0-.134.048-.369.181-.369s.076.184.076.317c0,1.543,10.992,3.263,26.764,3.263s26.763-1.72,26.763-3.263c0-.134.023-.259.156-.259s.1.179.1.312C752.355,3010.137,738.543,3011.4,725.334,3011.4Z" transform="translate(-698.313 -3004.146)" fill="url(#linear-gradient-12)"/>
        <g id="Group_39676" data-name="Group 39676" transform="translate(10.009 2.177)">
          <path id="Path_31142" data-name="Path 31142" d="M871.634,2992.82c.265-.183.547-.364.849-.542a5.329,5.329,0,0,1,1.16-.484,11.082,11.082,0,0,1,1.78-.352,22.555,22.555,0,0,1,2.667-.144q1.566-.008,2.939.1a20.056,20.056,0,0,1,2.417.32,7.471,7.471,0,0,1,1.7.527,1.344,1.344,0,0,1,.776.719l3.041.031a2.966,2.966,0,0,1,.583.054c.17.035.252.079.252.131v.25l-3.909-.038a1.972,1.972,0,0,1-1.048.842,10.6,10.6,0,0,1-2.144.661l-1.424-.2a1.634,1.634,0,0,1-.314-.074c-.082-.03-.122-.062-.122-.1s.11-.1.33-.165.469-.139.746-.229a7.648,7.648,0,0,0,.816-.323,1.112,1.112,0,0,0,.535-.445l-9.227-.092a8.677,8.677,0,0,1-.815.525,5.278,5.278,0,0,1-1.2.465,12.535,12.535,0,0,1-1.857.336,26.289,26.289,0,0,1-2.8.137c-.846,0-1.669-.028-2.475-.1a17.071,17.071,0,0,1-2.148-.306,6.714,6.714,0,0,1-1.541-.5c-.4-.2-.624-.431-.671-.691l-2.5-.026a3.234,3.234,0,0,1-.591-.052c-.173-.033-.261-.078-.261-.133v-.25l3.423.032a1.843,1.843,0,0,1,.936-.689,10.685,10.685,0,0,1,1.737-.523l1.146.157c.348.049.521.106.521.172,0,.036-.07.079-.214.132s-.316.116-.514.189a4.647,4.647,0,0,0-.57.257,1.2,1.2,0,0,0-.417.334Zm-8.444.342a.906.906,0,0,0,.455.425,3.628,3.628,0,0,0,.87.293,8.816,8.816,0,0,0,1.172.169q.654.054,1.366.05a14.24,14.24,0,0,0,1.451-.072,8.457,8.457,0,0,0,1.085-.184,5.089,5.089,0,0,0,.816-.27,4.549,4.549,0,0,0,.623-.333Zm20.087-.224a.942.942,0,0,0-.5-.437,4.475,4.475,0,0,0-1-.315,11,11,0,0,0-1.418-.19q-.806-.063-1.782-.058a13.728,13.728,0,0,0-1.493.078,7.716,7.716,0,0,0-1.085.2,3.953,3.953,0,0,0-.779.288,5.471,5.471,0,0,0-.6.352Z" transform="translate(-857.174 -2991.297)" fill="#fcb048"/>
        </g>
        <path id="Path_31143" data-name="Path 31143" d="M731.888,2962.767c-12.041,0-24.579,1.06-26.584,3.111a2.473,2.473,0,0,1,.219.231c1.69-1.424,12.043-2.858,26.365-2.858,14.69,0,25.208,1.509,26.482,2.968a2.419,2.419,0,0,1,.2-.229C756.916,2963.866,744.143,2962.767,731.888,2962.767Z" transform="translate(-704.864 -2962.388)" fill="url(#linear-gradient-17)"/>
      </g>
      <g id="Group_39679" data-name="Group 39679" transform="translate(6.478 31.936)">
        <path id="Path_31144" data-name="Path 31144" d="M801.375,2912.805v5.99c0,1.936,12.091,3.5,27.005,3.5s27.005-1.569,27.005-3.5v-5.99Z" transform="translate(-801.359 -2909.301)" fill="url(#linear-gradient-10)"/>
        <path id="Path_31145" data-name="Path 31145" d="M855.385,2860.688c0,1.936-12.091,3.5-27.005,3.5s-27.005-1.569-27.005-3.5,12.091-3.5,27.005-3.5S855.385,2858.752,855.385,2860.688Z" transform="translate(-801.358 -2857.183)" fill="url(#linear-gradient-11)"/>
        <path id="Path_31146" data-name="Path 31146" d="M828.145,2911.832c-13.209,0-27.021-1.262-27.021-3.695,0-.134.048-.369.181-.369s.076.184.076.317c0,1.543,10.992,3.262,26.763,3.262s26.763-1.719,26.763-3.262c0-.134.023-.259.156-.259s.1.179.1.313C855.166,2910.572,841.354,2911.832,828.145,2911.832Z" transform="translate(-801.124 -2904.581)" fill="url(#linear-gradient-12)"/>
        <g id="Group_39678" data-name="Group 39678" transform="translate(10.009 2.177)">
          <path id="Path_31147" data-name="Path 31147" d="M974.446,2893.255c.265-.183.547-.364.849-.543a5.339,5.339,0,0,1,1.16-.484,11.079,11.079,0,0,1,1.78-.352,22.761,22.761,0,0,1,2.667-.144q1.566-.007,2.939.1a20.015,20.015,0,0,1,2.417.32,7.483,7.483,0,0,1,1.7.527,1.344,1.344,0,0,1,.776.719l3.041.031a2.986,2.986,0,0,1,.583.053c.17.035.252.079.252.132v.25l-3.909-.038a1.972,1.972,0,0,1-1.048.842,10.633,10.633,0,0,1-2.144.661l-1.424-.2a1.636,1.636,0,0,1-.314-.074c-.082-.03-.122-.062-.122-.1s.11-.1.33-.164.469-.139.746-.23a7.5,7.5,0,0,0,.816-.323,1.108,1.108,0,0,0,.535-.444l-9.227-.092a8.66,8.66,0,0,1-.815.525,5.292,5.292,0,0,1-1.2.465,12.6,12.6,0,0,1-1.857.336,26.367,26.367,0,0,1-2.8.137c-.846,0-1.669-.028-2.475-.1a16.975,16.975,0,0,1-2.148-.306,6.692,6.692,0,0,1-1.541-.5c-.4-.2-.624-.431-.671-.691l-2.5-.025a3.273,3.273,0,0,1-.591-.052c-.173-.033-.261-.078-.261-.133v-.25l3.423.032a1.843,1.843,0,0,1,.936-.689,10.711,10.711,0,0,1,1.737-.522l1.146.157c.348.049.521.106.521.172,0,.036-.07.079-.214.132s-.316.116-.514.189a4.682,4.682,0,0,0-.57.257,1.208,1.208,0,0,0-.417.334ZM966,2893.6a.906.906,0,0,0,.455.424,3.619,3.619,0,0,0,.87.293,8.9,8.9,0,0,0,1.172.169q.654.054,1.366.05a14.161,14.161,0,0,0,1.451-.072,8.331,8.331,0,0,0,1.085-.184,5.067,5.067,0,0,0,.816-.269,4.575,4.575,0,0,0,.623-.333Zm20.087-.224a.942.942,0,0,0-.5-.437,4.485,4.485,0,0,0-1-.315,11.08,11.08,0,0,0-1.418-.19q-.806-.063-1.782-.058a13.727,13.727,0,0,0-1.493.078,7.676,7.676,0,0,0-1.085.2,3.941,3.941,0,0,0-.779.288,5.475,5.475,0,0,0-.6.352Z" transform="translate(-959.986 -2891.732)" fill="#fcb048"/>
        </g>
        <path id="Path_31148" data-name="Path 31148" d="M834.7,2863.2c-12.041,0-24.579,1.059-26.584,3.11a2.451,2.451,0,0,1,.219.231c1.69-1.424,12.043-2.858,26.365-2.858,14.69,0,25.208,1.508,26.482,2.968a2.519,2.519,0,0,1,.2-.229C859.728,2864.3,846.955,2863.2,834.7,2863.2Z" transform="translate(-807.676 -2862.824)" fill="url(#linear-gradient-21)"/>
      </g>
      <g id="Group_39681" data-name="Group 39681" transform="translate(10.409 25.645)">
        <path id="Path_31149" data-name="Path 31149" d="M863.763,2812.948v5.99c0,1.936,12.091,3.5,27.005,3.5s27.005-1.569,27.005-3.5v-5.99Z" transform="translate(-863.747 -2809.443)" fill="url(#linear-gradient-10)"/>
        <path id="Path_31150" data-name="Path 31150" d="M917.774,2760.83c0,1.935-12.091,3.5-27.005,3.5s-27.005-1.569-27.005-3.5,12.091-3.5,27.005-3.5S917.774,2758.894,917.774,2760.83Z" transform="translate(-863.747 -2757.325)" fill="url(#linear-gradient-11)"/>
        <path id="Path_31151" data-name="Path 31151" d="M890.534,2811.975c-13.209,0-27.021-1.261-27.021-3.695,0-.134.048-.369.181-.369s.076.184.076.317c0,1.543,10.991,3.263,26.763,3.263s26.763-1.719,26.763-3.263c0-.134.023-.259.156-.259s.1.178.1.312C917.555,2810.715,903.743,2811.975,890.534,2811.975Z" transform="translate(-863.513 -2804.724)" fill="url(#linear-gradient-12)"/>
        <g id="Group_39680" data-name="Group 39680" transform="translate(10.009 2.177)">
          <path id="Path_31152" data-name="Path 31152" d="M1036.834,2793.4c.265-.183.547-.364.849-.543a5.343,5.343,0,0,1,1.16-.484,11.057,11.057,0,0,1,1.78-.352,22.6,22.6,0,0,1,2.667-.144q1.566-.008,2.939.1a19.955,19.955,0,0,1,2.417.32,7.483,7.483,0,0,1,1.7.526,1.343,1.343,0,0,1,.776.719l3.041.031a3,3,0,0,1,.583.054c.17.035.252.079.252.132v.25l-3.909-.038a1.97,1.97,0,0,1-1.048.841,10.61,10.61,0,0,1-2.143.661l-1.424-.2a1.711,1.711,0,0,1-.314-.075c-.082-.03-.122-.062-.122-.1s.11-.1.33-.165.469-.138.746-.229a7.589,7.589,0,0,0,.816-.323,1.106,1.106,0,0,0,.535-.445l-9.227-.091a8.74,8.74,0,0,1-.815.526,5.3,5.3,0,0,1-1.2.465,12.5,12.5,0,0,1-1.857.335,26.156,26.156,0,0,1-2.8.137c-.846,0-1.669-.028-2.475-.1a16.988,16.988,0,0,1-2.149-.306,6.718,6.718,0,0,1-1.541-.5c-.4-.2-.624-.431-.671-.691l-2.5-.026a3.278,3.278,0,0,1-.591-.052c-.173-.033-.261-.078-.261-.134v-.25l3.423.032a1.836,1.836,0,0,1,.936-.689,10.681,10.681,0,0,1,1.737-.522l1.146.157c.348.049.521.106.521.172,0,.035-.07.079-.214.132s-.316.115-.514.188a4.85,4.85,0,0,0-.57.257,1.216,1.216,0,0,0-.417.334Zm-8.444.342a.907.907,0,0,0,.455.424,3.617,3.617,0,0,0,.87.294,8.864,8.864,0,0,0,1.172.169q.654.054,1.366.05a14.234,14.234,0,0,0,1.451-.072,8.376,8.376,0,0,0,1.085-.184,4.99,4.99,0,0,0,.816-.27,4.491,4.491,0,0,0,.624-.333Zm20.087-.224a.942.942,0,0,0-.5-.437,4.489,4.489,0,0,0-1-.316,11.046,11.046,0,0,0-1.418-.19q-.806-.062-1.782-.058a13.667,13.667,0,0,0-1.493.077,7.709,7.709,0,0,0-1.085.2,3.961,3.961,0,0,0-.779.288,5.607,5.607,0,0,0-.6.352Z" transform="translate(-1022.374 -2791.875)" fill="#fcb048"/>
        </g>
        <path id="Path_31153" data-name="Path 31153" d="M897.088,2763.346c-12.041,0-24.579,1.06-26.584,3.111a2.481,2.481,0,0,1,.219.231c1.69-1.424,12.043-2.858,26.365-2.858,14.69,0,25.208,1.509,26.482,2.967a2.513,2.513,0,0,1,.2-.228C922.116,2764.444,909.343,2763.346,897.088,2763.346Z" transform="translate(-870.064 -2762.966)" fill="url(#linear-gradient-25)"/>
      </g>
      <g id="Group_39683" data-name="Group 39683" transform="translate(7.507 18.857)">
        <path id="Path_31154" data-name="Path 31154" d="M817.715,2705.213v5.99c0,1.935,12.091,3.5,27.005,3.5s27.005-1.569,27.005-3.5v-5.99Z" transform="translate(-817.699 -2701.708)" fill="url(#linear-gradient-10)"/>
        <ellipse id="Ellipse_2864" data-name="Ellipse 2864" cx="27.005" cy="3.505" rx="27.005" ry="3.505" transform="translate(0.016)" fill="url(#linear-gradient-11)"/>
        <path id="Path_31155" data-name="Path 31155" d="M844.486,2704.24c-13.209,0-27.021-1.261-27.021-3.7,0-.134.048-.369.181-.369s.076.184.076.318c0,1.543,10.991,3.262,26.763,3.262s26.763-1.719,26.763-3.262c0-.134.023-.259.156-.259s.1.178.1.312C871.507,2702.98,857.695,2704.24,844.486,2704.24Z" transform="translate(-817.465 -2696.989)" fill="url(#linear-gradient-12)"/>
        <g id="Group_39682" data-name="Group 39682" transform="translate(10.009 2.177)">
          <path id="Path_31156" data-name="Path 31156" d="M990.786,2685.663c.265-.183.547-.364.849-.543a5.335,5.335,0,0,1,1.16-.483,11.05,11.05,0,0,1,1.78-.352,22.6,22.6,0,0,1,2.667-.144q1.566-.007,2.939.1a19.961,19.961,0,0,1,2.417.32,7.493,7.493,0,0,1,1.7.526,1.342,1.342,0,0,1,.776.719l3.041.031a3,3,0,0,1,.583.054c.17.035.252.078.252.131v.251l-3.909-.038a1.97,1.97,0,0,1-1.048.841,10.612,10.612,0,0,1-2.144.661l-1.424-.2a1.636,1.636,0,0,1-.314-.075c-.082-.03-.122-.062-.122-.1s.11-.1.33-.165.469-.138.746-.23a7.545,7.545,0,0,0,.816-.322,1.109,1.109,0,0,0,.535-.445l-9.227-.091a8.69,8.69,0,0,1-.815.525,5.281,5.281,0,0,1-1.2.465,12.48,12.48,0,0,1-1.857.335,26.157,26.157,0,0,1-2.8.137c-.846,0-1.669-.028-2.475-.1a16.937,16.937,0,0,1-2.148-.306,6.706,6.706,0,0,1-1.541-.5c-.4-.2-.625-.431-.671-.691l-2.5-.026a3.283,3.283,0,0,1-.592-.052c-.173-.033-.26-.078-.261-.133v-.25l3.422.032a1.84,1.84,0,0,1,.936-.689,10.692,10.692,0,0,1,1.737-.522l1.146.157c.348.049.521.107.521.172,0,.036-.07.079-.214.132s-.316.116-.514.189a4.73,4.73,0,0,0-.57.257,1.214,1.214,0,0,0-.417.334Zm-8.444.342a.908.908,0,0,0,.455.424,3.624,3.624,0,0,0,.87.293,8.9,8.9,0,0,0,1.172.169q.654.053,1.366.05a14.233,14.233,0,0,0,1.451-.072,8.418,8.418,0,0,0,1.085-.184,5.066,5.066,0,0,0,.816-.27,4.548,4.548,0,0,0,.623-.333Zm20.087-.224a.942.942,0,0,0-.5-.437,4.464,4.464,0,0,0-1-.315,10.911,10.911,0,0,0-1.418-.19q-.807-.063-1.782-.058a13.728,13.728,0,0,0-1.493.077,7.749,7.749,0,0,0-1.085.2,3.945,3.945,0,0,0-.779.289,5.514,5.514,0,0,0-.6.352Z" transform="translate(-976.326 -2684.14)" fill="#fcb048"/>
        </g>
        <path id="Path_31157" data-name="Path 31157" d="M851.039,2655.611c-12.041,0-24.579,1.06-26.584,3.111a2.462,2.462,0,0,1,.219.231c1.69-1.424,12.043-2.858,26.365-2.858,14.69,0,25.208,1.508,26.482,2.968a2.463,2.463,0,0,1,.2-.229C876.067,2656.71,863.294,2655.611,851.039,2655.611Z" transform="translate(-824.015 -2655.231)" fill="url(#linear-gradient-29)"/>
      </g>
      <g id="Group_39685" data-name="Group 39685" transform="translate(0 12.565)">
        <path id="Path_31158" data-name="Path 31158" d="M698.563,2605.356v5.99c0,1.936,12.091,3.5,27.005,3.5s27.005-1.569,27.005-3.5v-5.99Z" transform="translate(-698.547 -2601.852)" fill="url(#linear-gradient-10)"/>
        <path id="Path_31159" data-name="Path 31159" d="M752.573,2553.238c0,1.936-12.091,3.5-27.005,3.5s-27.005-1.569-27.005-3.5,12.091-3.5,27.005-3.5S752.573,2551.3,752.573,2553.238Z" transform="translate(-698.547 -2549.734)" fill="url(#linear-gradient-11)"/>
        <path id="Path_31160" data-name="Path 31160" d="M725.334,2604.383c-13.209,0-27.021-1.262-27.021-3.7,0-.134.048-.369.181-.369s.076.184.076.317c0,1.544,10.992,3.263,26.764,3.263s26.763-1.719,26.763-3.263c0-.133.023-.259.156-.259s.1.178.1.312C752.355,2603.123,738.543,2604.383,725.334,2604.383Z" transform="translate(-698.313 -2597.132)" fill="url(#linear-gradient-12)"/>
        <g id="Group_39684" data-name="Group 39684" transform="translate(10.009 2.177)">
          <path id="Path_31161" data-name="Path 31161" d="M871.634,2585.805c.265-.184.547-.364.849-.543a5.329,5.329,0,0,1,1.16-.484,11.109,11.109,0,0,1,1.78-.352,22.555,22.555,0,0,1,2.667-.144q1.566-.008,2.939.1a20.007,20.007,0,0,1,2.417.32,7.471,7.471,0,0,1,1.7.526,1.344,1.344,0,0,1,.776.719l3.041.031a2.985,2.985,0,0,1,.583.054c.17.035.252.078.252.132v.25l-3.909-.038a1.97,1.97,0,0,1-1.048.842,10.628,10.628,0,0,1-2.144.662l-1.424-.2a1.654,1.654,0,0,1-.314-.074c-.082-.03-.122-.062-.122-.1s.11-.1.33-.165.469-.139.746-.23a7.5,7.5,0,0,0,.816-.323,1.107,1.107,0,0,0,.535-.445l-9.227-.092a8.677,8.677,0,0,1-.815.526,5.325,5.325,0,0,1-1.2.465,12.6,12.6,0,0,1-1.857.335,26.363,26.363,0,0,1-2.8.137c-.846,0-1.669-.028-2.475-.1a16.894,16.894,0,0,1-2.148-.306,6.7,6.7,0,0,1-1.541-.5c-.4-.2-.624-.431-.671-.691l-2.5-.026a3.3,3.3,0,0,1-.591-.052c-.173-.034-.261-.078-.261-.134v-.25l3.423.033a1.841,1.841,0,0,1,.936-.689,10.76,10.76,0,0,1,1.737-.522l1.146.157c.348.049.521.106.521.172,0,.035-.07.079-.214.132s-.316.115-.514.188a4.76,4.76,0,0,0-.57.257,1.216,1.216,0,0,0-.417.334Zm-8.444.341a.907.907,0,0,0,.455.424,3.627,3.627,0,0,0,.87.294,8.9,8.9,0,0,0,1.172.168q.654.054,1.366.051a14.24,14.24,0,0,0,1.451-.072,8.367,8.367,0,0,0,1.085-.184,5.066,5.066,0,0,0,.816-.269,4.576,4.576,0,0,0,.623-.333Zm20.087-.224a.938.938,0,0,0-.5-.437,4.46,4.46,0,0,0-1-.316,11.086,11.086,0,0,0-1.418-.19q-.806-.063-1.782-.058a13.679,13.679,0,0,0-1.493.077,7.749,7.749,0,0,0-1.085.2,3.938,3.938,0,0,0-.779.288,5.512,5.512,0,0,0-.6.352Z" transform="translate(-857.174 -2584.282)" fill="#fcb048"/>
        </g>
        <path id="Path_31162" data-name="Path 31162" d="M731.888,2555.754c-12.041,0-24.579,1.06-26.584,3.111a2.441,2.441,0,0,1,.219.231c1.69-1.424,12.043-2.858,26.365-2.858,14.69,0,25.208,1.508,26.482,2.968a2.475,2.475,0,0,1,.2-.229C756.916,2556.853,744.143,2555.754,731.888,2555.754Z" transform="translate(-704.864 -2555.375)" fill="url(#linear-gradient-33)"/>
      </g>
      <g id="Group_39687" data-name="Group 39687" transform="translate(6.478 6.292)">
        <path id="Path_31163" data-name="Path 31163" d="M801.375,2505.791v5.99c0,1.936,12.091,3.5,27.005,3.5s27.005-1.569,27.005-3.5v-5.99Z" transform="translate(-801.359 -2502.287)" fill="url(#linear-gradient-10)"/>
        <path id="Path_31164" data-name="Path 31164" d="M855.385,2453.673c0,1.935-12.091,3.5-27.005,3.5s-27.005-1.569-27.005-3.5,12.091-3.5,27.005-3.5S855.385,2451.737,855.385,2453.673Z" transform="translate(-801.358 -2450.168)" fill="url(#linear-gradient-11)"/>
        <path id="Path_31165" data-name="Path 31165" d="M828.145,2504.817c-13.209,0-27.021-1.262-27.021-3.7,0-.134.048-.368.181-.368s.076.184.076.317c0,1.543,10.992,3.263,26.763,3.263s26.763-1.72,26.763-3.263c0-.134.023-.259.156-.259s.1.178.1.312C855.166,2503.558,841.354,2504.817,828.145,2504.817Z" transform="translate(-801.124 -2497.567)" fill="url(#linear-gradient-12)"/>
        <g id="Group_39686" data-name="Group 39686" transform="translate(10.009 2.177)">
          <path id="Path_31166" data-name="Path 31166" d="M974.446,2486.242c.265-.184.547-.364.849-.543a5.339,5.339,0,0,1,1.16-.484,11.079,11.079,0,0,1,1.78-.352,22.615,22.615,0,0,1,2.667-.144q1.566-.008,2.939.1a20.064,20.064,0,0,1,2.417.32,7.5,7.5,0,0,1,1.7.526,1.345,1.345,0,0,1,.776.719l3.041.031a3,3,0,0,1,.583.054c.17.035.252.079.252.132v.251l-3.909-.038a1.974,1.974,0,0,1-1.048.841,10.6,10.6,0,0,1-2.144.661l-1.424-.2a1.618,1.618,0,0,1-.314-.074c-.082-.03-.122-.062-.122-.1s.11-.1.33-.165.469-.139.746-.23a7.65,7.65,0,0,0,.816-.323,1.11,1.11,0,0,0,.535-.445l-9.227-.091a8.759,8.759,0,0,1-.815.526,5.3,5.3,0,0,1-1.2.465,12.481,12.481,0,0,1-1.857.335,26.02,26.02,0,0,1-2.8.137c-.846,0-1.669-.028-2.475-.1a16.936,16.936,0,0,1-2.148-.306,6.716,6.716,0,0,1-1.541-.5c-.4-.2-.624-.431-.671-.691l-2.5-.026a3.3,3.3,0,0,1-.591-.052c-.173-.034-.261-.078-.261-.134v-.25l3.423.032a1.843,1.843,0,0,1,.936-.689,10.709,10.709,0,0,1,1.737-.523l1.146.158c.348.049.521.106.521.171,0,.036-.07.08-.214.132s-.316.115-.514.188a4.721,4.721,0,0,0-.57.257,1.211,1.211,0,0,0-.417.334Zm-8.444.341a.907.907,0,0,0,.455.425,3.641,3.641,0,0,0,.87.293,8.863,8.863,0,0,0,1.172.169q.654.054,1.366.05a14.238,14.238,0,0,0,1.451-.072,8.457,8.457,0,0,0,1.085-.184,5.041,5.041,0,0,0,.816-.27,4.548,4.548,0,0,0,.623-.333Zm20.087-.224a.94.94,0,0,0-.5-.437,4.484,4.484,0,0,0-1-.315,10.908,10.908,0,0,0-1.418-.19q-.806-.062-1.782-.058a13.672,13.672,0,0,0-1.493.077,7.716,7.716,0,0,0-1.085.2,3.972,3.972,0,0,0-.779.288,5.6,5.6,0,0,0-.6.352Z" transform="translate(-959.986 -2484.719)" fill="#fcb048"/>
        </g>
        <path id="Path_31167" data-name="Path 31167" d="M834.7,2456.19c-12.041,0-24.579,1.06-26.584,3.111a2.479,2.479,0,0,1,.219.231c1.69-1.424,12.043-2.858,26.365-2.858,14.69,0,25.208,1.508,26.482,2.968a2.427,2.427,0,0,1,.2-.229C859.728,2457.289,846.955,2456.19,834.7,2456.19Z" transform="translate(-807.676 -2455.811)" fill="url(#linear-gradient-37)"/>
      </g>
      <g id="Group_39689" data-name="Group 39689" transform="translate(3.108 0)">
        <path id="Path_31168" data-name="Path 31168" d="M747.9,2405.934v5.99c0,1.936,12.091,3.5,27.005,3.5s27.005-1.569,27.005-3.5v-5.99Z" transform="translate(-747.882 -2402.429)" fill="url(#linear-gradient-10)"/>
        <path id="Path_31169" data-name="Path 31169" d="M801.909,2353.816c0,1.935-12.091,3.5-27.005,3.5s-27.005-1.569-27.005-3.5,12.091-3.5,27.005-3.5S801.909,2351.88,801.909,2353.816Z" transform="translate(-747.882 -2350.311)" fill="url(#linear-gradient-11)"/>
        <path id="Path_31170" data-name="Path 31170" d="M774.669,2404.96c-13.209,0-27.021-1.261-27.021-3.695,0-.134.048-.369.181-.369s.076.184.076.317c0,1.543,10.991,3.262,26.764,3.262s26.763-1.719,26.763-3.262c0-.134.023-.259.156-.259s.1.178.1.312C801.69,2403.7,787.878,2404.96,774.669,2404.96Z" transform="translate(-747.648 -2397.709)" fill="url(#linear-gradient-12)"/>
        <g id="Group_39688" data-name="Group 39688" transform="translate(10.009 2.177)">
          <path id="Path_31171" data-name="Path 31171" d="M920.969,2386.385c.265-.184.547-.364.849-.543a5.353,5.353,0,0,1,1.16-.483,11.08,11.08,0,0,1,1.78-.353,22.616,22.616,0,0,1,2.667-.144q1.565-.008,2.939.1a20.011,20.011,0,0,1,2.417.32,7.483,7.483,0,0,1,1.7.526,1.346,1.346,0,0,1,.776.719l3.041.031a2.963,2.963,0,0,1,.583.054c.17.035.252.079.253.132v.25l-3.909-.038a1.971,1.971,0,0,1-1.048.841,10.626,10.626,0,0,1-2.143.662l-1.424-.2a1.658,1.658,0,0,1-.314-.074c-.082-.03-.122-.062-.122-.1s.11-.1.33-.165.469-.138.746-.229a7.7,7.7,0,0,0,.816-.323,1.109,1.109,0,0,0,.535-.445l-9.227-.092a8.637,8.637,0,0,1-.815.526,5.289,5.289,0,0,1-1.2.465,12.536,12.536,0,0,1-1.857.335,26.169,26.169,0,0,1-2.8.137c-.846,0-1.669-.028-2.475-.1a16.932,16.932,0,0,1-2.148-.306,6.7,6.7,0,0,1-1.541-.5c-.4-.2-.624-.431-.671-.691l-2.5-.026a3.279,3.279,0,0,1-.591-.052c-.173-.034-.261-.078-.261-.134v-.25l3.423.033a1.838,1.838,0,0,1,.936-.689,10.734,10.734,0,0,1,1.737-.522l1.146.157c.348.049.521.106.521.172,0,.036-.07.08-.214.132l-.514.188a4.651,4.651,0,0,0-.57.257,1.21,1.21,0,0,0-.417.334Zm-8.444.341a.909.909,0,0,0,.455.425,3.627,3.627,0,0,0,.87.293,8.858,8.858,0,0,0,1.172.169q.654.054,1.366.05a14.374,14.374,0,0,0,1.451-.072,8.466,8.466,0,0,0,1.085-.184,5.027,5.027,0,0,0,.816-.27,4.581,4.581,0,0,0,.623-.333Zm20.087-.224a.939.939,0,0,0-.5-.437,4.477,4.477,0,0,0-1-.316,11.043,11.043,0,0,0-1.418-.19q-.806-.062-1.782-.058a13.673,13.673,0,0,0-1.493.077,7.72,7.72,0,0,0-1.085.2,3.923,3.923,0,0,0-.779.288,5.58,5.58,0,0,0-.6.352Z" transform="translate(-906.509 -2384.862)" fill="#fcb048"/>
        </g>
        <path id="Path_31172" data-name="Path 31172" d="M781.223,2356.332c-12.041,0-24.579,1.06-26.584,3.111a2.443,2.443,0,0,1,.219.231c1.69-1.424,12.043-2.858,26.365-2.858,14.69,0,25.208,1.509,26.482,2.968a2.436,2.436,0,0,1,.2-.229C806.251,2357.431,793.478,2356.332,781.223,2356.332Z" transform="translate(-754.198 -2355.953)" fill="url(#linear-gradient-41)"/>
      </g>
      <g id="Group_39691" data-name="Group 39691" transform="translate(59.674 7.63)">
        <path id="Path_31173" data-name="Path 31173" d="M1650.566,2472.953l-4.881,3.472c-1.577,1.122,4.152,11.884,12.8,24.038s16.932,21.1,18.509,19.975l4.881-3.472Z" transform="translate(-1645.424 -2472.855)" fill="url(#linear-gradient-42)"/>
        <path id="Path_31174" data-name="Path 31174" d="M1754.46,2515.552c-1.577,1.122-9.864-7.821-18.509-19.975s-14.375-22.916-12.8-24.038,9.864,7.821,18.509,19.975S1756.038,2514.43,1754.46,2515.552Z" transform="translate(-1718.012 -2471.442)" fill="url(#linear-gradient-43)"/>
        <path id="Path_31175" data-name="Path 31175" d="M1733.807,2495.679c-7.656-10.763-14.634-22.75-12.651-24.16.109-.078.328-.175.406-.066s-.106.168-.215.246c-1.258.894,3.712,10.848,12.854,23.7s16.914,20.813,18.172,19.918c.109-.078.224-.132.3-.023s-.087.186-.2.264C1750.5,2516.968,1741.463,2506.443,1733.807,2495.679Z" transform="translate(-1716.064 -2471.404)" fill="url(#linear-gradient-44)"/>
        <g id="Group_39690" data-name="Group 39690" transform="translate(10.665 8.27)">
          <path id="Path_31176" data-name="Path 31176" d="M1823.184,2614.531q.455.164.934.377a5.322,5.322,0,0,1,1.067.665,11.118,11.118,0,0,1,1.319,1.247,22.6,22.6,0,0,1,1.663,2.09q.914,1.271,1.623,2.453a20.038,20.038,0,0,1,1.14,2.155,7.48,7.48,0,0,1,.555,1.688,1.343,1.343,0,0,1-.136,1.049l1.738,2.5a3,3,0,0,1,.294.506c.07.158.082.251.039.282l-.2.146-2.235-3.207a1.973,1.973,0,0,1-1.293-.366,10.646,10.646,0,0,1-1.781-1.364l-.664-1.275a1.658,1.658,0,0,1-.121-.3c-.023-.084-.02-.135.009-.156s.147.03.325.174.385.3.619.474a7.564,7.564,0,0,0,.736.478,1.11,1.11,0,0,0,.672.178l-5.273-7.572a8.7,8.7,0,0,1-.9-.359,5.308,5.308,0,0,1-1.073-.706,12.558,12.558,0,0,1-1.35-1.319,26.291,26.291,0,0,1-1.734-2.2q-.741-1.03-1.357-2.073a16.908,16.908,0,0,1-1-1.928,6.694,6.694,0,0,1-.482-1.548,1.079,1.079,0,0,1,.174-.947l-1.43-2.055a3.3,3.3,0,0,1-.3-.512c-.073-.16-.088-.257-.043-.29l.2-.146,1.957,2.808a1.837,1.837,0,0,1,1.1.363,10.712,10.712,0,0,1,1.432,1.113l.536,1.025c.162.312.215.486.162.524-.029.021-.105-.011-.232-.1s-.277-.191-.451-.309a4.709,4.709,0,0,0-.54-.316,1.2,1.2,0,0,0-.514-.146Zm-5.172-6.683a.906.906,0,0,0-.083.616,3.638,3.638,0,0,0,.265.879,8.823,8.823,0,0,0,.542,1.053q.335.564.751,1.143a14.28,14.28,0,0,0,.9,1.141,8.393,8.393,0,0,0,.779.778,5.032,5.032,0,0,0,.693.509,4.539,4.539,0,0,0,.633.315Zm11.825,16.238a.941.941,0,0,0,.069-.659,4.485,4.485,0,0,0-.323-1,11.033,11.033,0,0,0-.667-1.266q-.417-.693-.986-1.486a13.708,13.708,0,0,0-.928-1.172,7.705,7.705,0,0,0-.789-.77,3.97,3.97,0,0,0-.687-.468,5.467,5.467,0,0,0-.633-.283Z" transform="translate(-1814.692 -2602.664)" fill="#fcb048"/>
        </g>
        <path id="Path_31177" data-name="Path 31177" d="M1748.17,2498.173c-6.98-9.812-15.11-19.415-17.944-19.86a2.454,2.454,0,0,1-.061.312c2.14.552,9.309,8.157,17.611,19.828,8.515,11.97,13.382,21.416,12.931,23.3a2.489,2.489,0,0,1,.3.032C1761.781,2519.2,1755.273,2508.159,1748.17,2498.173Z" transform="translate(-1724.826 -2477.878)" fill="url(#linear-gradient-45)"/>
      </g>
    </g>
    <g id="Group_39706" data-name="Group 39706" transform="translate(441.283 519.486)">
      <g id="Group_39705" data-name="Group 39705" transform="translate(0 0)">
        <g id="Group_39696" data-name="Group 39696" transform="translate(15.444 36.691)">
          <g id="Group_39693" data-name="Group 39693" transform="translate(43.826 28.372)">
            <path id="Path_31178" data-name="Path 31178" d="M1823.851,2721.12c.025-.751,1.562-1.575,2.449-1.191a2.317,2.317,0,0,1,.625.511,7.183,7.183,0,0,1,.981,1.181c1.028,1.573,3.4,3.057,3.121,3.6-.2.391-1.711.177-2.871-.41-.933-.472-.925-.824-2.461-2.051C1824.338,2721.675,1823.837,2721.555,1823.851,2721.12Z" transform="translate(-1823.568 -2717.471)" fill="url(#linear-gradient-46)"/>
            <path id="Path_31179" data-name="Path 31179" d="M1819.367,2683.728l1.125,1.851a1.024,1.024,0,0,0,1.134.458.665.665,0,0,0,.4-.994l-1.657-2.667Z" transform="translate(-1819.367 -2682.377)" fill="url(#linear-gradient-47)"/>
          </g>
          <g id="Group_39695" data-name="Group 39695">
            <path id="Path_31180" data-name="Path 31180" d="M1125.165,2233.947c-3.512,1.537-.277,11.253,9.7,11.6,12.092.418,25.777,6.289,32.844,17.061.708-.316,2.321-.654,1.9-1.485-5.846-11.426-12.232-18.945-18.407-22.377C1141.862,2233.556,1135.165,2229.57,1125.165,2233.947Z" transform="translate(-1123.794 -2232.072)" fill="url(#linear-gradient-48)"/>
            <g id="Group_39694" data-name="Group 39694" transform="translate(0)" opacity="0.3" style="mix-blend-mode: multiply;isolation: isolate">
              <path id="Path_31181" data-name="Path 31181" d="M1156.345,2247.467c1.314,1.448,2.262-.348,3.49-1.337a32.989,32.989,0,0,0-8.636-7.386c-9.337-5.188-16.033-9.174-26.033-4.8-3.512,1.537-.277,11.253,9.7,11.6a44.821,44.821,0,0,1,11.032,1.828C1149.421,2246.457,1153.166,2242.981,1156.345,2247.467Z" transform="translate(-1123.794 -2232.072)" fill="url(#linear-gradient-49)"/>
            </g>
          </g>
        </g>
        <g id="Group_39697" data-name="Group 39697" transform="translate(9.008 36.125)">
          <path id="Path_31182" data-name="Path 31182" d="M1025.217,2233.242l-.739-.267s-2.452-4.3-2.824-5.384c-.454-1.323,9.35-1.223,13.385-3.878,4.24-2.789-.773,4.662-.773,4.662Z" transform="translate(-1021.639 -2223.089)" fill="url(#linear-gradient-50)"/>
        </g>
        <g id="Group_39700" data-name="Group 39700" transform="translate(0 8.926)">
          <path id="Path_31183" data-name="Path 31183" d="M1195.943,1830.958s3.1,1.471,4.656,8.9c1.17,5.584,5.727,11.346,5.727,11.346l-.586,3.916-5.082-.68-1.363-1.68-1.53-11.483Z" transform="translate(-1175.953 -1828.467)" fill="url(#linear-gradient-51)"/>
          <g id="Group_39699" data-name="Group 39699" transform="translate(1.158)">
            <path id="Path_31184" data-name="Path 31184" d="M909.731,1791.511s-8.3-1.546-11.384,7.59c-2.846,8.432-.827,12.688,4.441,22.139.53.951,1.754,1.339,1.812,1.47q.47,1.057.936,2.193a40.276,40.276,0,0,1,17.033-4.1s-2.414-16.719-3.97-22.5C916.995,1792.339,911.938,1791.668,909.731,1791.511Z" transform="translate(-897.055 -1791.412)" fill="url(#linear-gradient-52)"/>
            <g id="Group_39698" data-name="Group 39698" transform="translate(0 6.017)" opacity="0.3" style="mix-blend-mode: multiply;isolation: isolate">
              <path id="Path_31185" data-name="Path 31185" d="M916.208,1906.6c-3.943.736-8.657-.983-9.707-3.772a43.589,43.589,0,0,1-1.581-5.946c-.623-2.535-1.146-3.075-3.411-5.761a14.965,14.965,0,0,1-2.484-4.216,15.005,15.005,0,0,0-.677,1.672c-2.846,8.432-.827,12.688,4.44,22.14.53.95,1.754,1.338,1.812,1.469q.47,1.058.936,2.193a40.276,40.276,0,0,1,17.033-4.1s-.44-2.649-.965-6.343A9.52,9.52,0,0,1,916.208,1906.6Z" transform="translate(-897.055 -1886.909)" fill="url(#linear-gradient-53)"/>
            </g>
          </g>
          <path id="Path_31186" data-name="Path 31186" d="M1112.271,2134.482a7.722,7.722,0,0,0,2.7.457,6.142,6.142,0,0,1,2.443.015c1.251.228,3.847.265,2.892-1.38-1.063-1.831-3.743-2.261-4.764-1.593a6.414,6.414,0,0,1-2.388.807Z" transform="translate(-1097.553 -2110.245)" fill="url(#linear-gradient-54)"/>
          <path id="Path_31187" data-name="Path 31187" d="M885.312,1836.638s-4.6-.889-6.538,14.216c-1.005,7.835,5.962,8.895,14.946,8.373.9-.963.966-3.59.966-3.59s-11.257.95-9.617-5.121C886.908,1843.711,888.125,1836.749,885.312,1836.638Z" transform="translate(-878.677 -1833.78)" fill="url(#linear-gradient-55)"/>
          <path id="Path_31188" data-name="Path 31188" d="M1061.376,1808.037c-.062,0-.126,0-.191-.006-2.3-.143-4.243-2.781-4.325-2.894a.112.112,0,1,1,.182-.132c.019.027,1.96,2.665,4.157,2.8a1.683,1.683,0,0,0,1.389-.448,2.5,2.5,0,0,0,.5-1.765.112.112,0,1,1,.224-.024,2.687,2.687,0,0,1-.559,1.944A1.817,1.817,0,0,1,1061.376,1808.037Z" transform="translate(-1045.613 -1804.105)" fill="#9f73f8"/>
          <path id="Path_31189" data-name="Path 31189" d="M1022.682,2226.99a.112.112,0,0,1-.047-.215c.092-.042,9.284-4.183,16.244-3.713a.113.113,0,0,1,.1.12.119.119,0,0,1-.12.1c-6.911-.464-16.044,3.651-16.136,3.693A.113.113,0,0,1,1022.682,2226.99Z" transform="translate(-1013.504 -2195.831)" fill="#ae87f9"/>
        </g>
        <g id="Group_39701" data-name="Group 39701" transform="translate(13.287)">
          <path id="Path_31190" data-name="Path 31190" d="M1091.064,1729.665a19.985,19.985,0,0,1-.585,4.031c-.363.6.343,1.6,1.951,2.192s.86-3.323.86-3.323Z" transform="translate(-1090.334 -1724.63)" fill="url(#linear-gradient-56)"/>
          <path id="Path_31191" data-name="Path 31191" d="M1097.619,1655.665c1.968-.714,2.638-5.371,1.665-5.882-.559-.293-1.068,1.1-3.141,1.629-1.614.415-2.642-.084-3.331.724a2.431,2.431,0,0,0-.512,1.515,6.125,6.125,0,0,0,.256,1.358c.165.638.147.612.2.8a8.527,8.527,0,0,0,1.07,2.262,5.927,5.927,0,0,1,.611-.831,5.238,5.238,0,0,1,1-.884A6.651,6.651,0,0,1,1097.619,1655.665Z" transform="translate(-1092.128 -1649.743)" fill="url(#linear-gradient-57)"/>
          <path id="Path_31192" data-name="Path 31192" d="M1090.334,1723.722a3.218,3.218,0,0,0,2.259,2.228c1.641.412,3.033-3.117,2.252-4.211a2.13,2.13,0,0,0-1.52-.714c-.359-.013-.514.088-1.1.054-.541-.031-.664-.132-.855-.053-.239.1-.5.443-.526,1.6a.918.918,0,0,0-.837-.607.578.578,0,0,0-.281.14C1089.369,1722.5,1089.576,1723.142,1090.334,1723.722Z" transform="translate(-1089.556 -1716.507)" fill="url(#linear-gradient-58)"/>
        </g>
        <g id="Group_39702" data-name="Group 39702" transform="translate(14.862 26.656)">
          <path id="Path_31193" data-name="Path 31193" d="M1114.871,2211.861a.2.2,0,0,0-.2.083c-.006.01-.092.38-.1.391a.191.191,0,0,0,.065.228l6.093,4.358,14.268-.948-6.177-1.45Z" transform="translate(-1114.559 -2203.097)" fill="#26264f"/>
          <path id="Path_31194" data-name="Path 31194" d="M1116.4,2211.071a.191.191,0,0,0-.142.344l6.093,4.359,14.269-.948-6.177-1.45Z" transform="translate(-1116.081 -2202.356)" fill="#444b8c"/>
          <path id="Path_31195" data-name="Path 31195" d="M1209.88,2086.025l5.208-12.92a.481.481,0,0,1,.519-.3l15.954,2.438a.481.481,0,0,1,.379.642l-4.481,12.16a.482.482,0,0,1-.511.312l-16.718-2.081Z" transform="translate(-1203.874 -2072.804)" fill="url(#linear-gradient-59)"/>
          <path id="Path_31196" data-name="Path 31196" d="M1212.528,2091.4l5.332-13.2a.482.482,0,0,1,.519-.3l15.955,2.438a.482.482,0,0,1,.379.642l-4.482,12.162a.481.481,0,0,1-.509.312Z" transform="translate(-1206.355 -2077.575)" fill="#26264f"/>
          <path id="Path_31197" data-name="Path 31197" d="M1212.528,2248.073l17.194,2.056a.481.481,0,0,0,.509-.311l1.352-3.668c-5.7,1.213-11.865-.357-17.856-1.044Z" transform="translate(-1206.355 -2234.249)" fill="#1f1f44"/>
        </g>
        <g id="Group_39704" data-name="Group 39704" transform="translate(11.44 39.151)">
          <path id="Path_31198" data-name="Path 31198" d="M1662.407,2357.843c.022-.84-.2-1.846,1.747-1.912a24.209,24.209,0,0,1,5.7,1.038c2.855.746,2.968,2.631-1.476,2.4C1665.47,2359.217,1662.376,2359.037,1662.407,2357.843Z" transform="translate(-1624.467 -2350.585)" fill="url(#linear-gradient-60)"/>
          <path id="Path_31199" data-name="Path 31199" d="M1681.222,2363.424a.784.784,0,0,1-.866.628c-.869-.145-.577-.523-.467-.962s-.131-.845.866-.628A.755.755,0,0,1,1681.222,2363.424Z" transform="translate(-1640.72 -2356.65)" fill="url(#linear-gradient-61)"/>
          <path id="Path_31200" data-name="Path 31200" d="M1552.365,2296.413l.862.13a44.018,44.018,0,0,1,5.571,3.266c.893.455,1.307,3.615-1.49,2.847s-6.812.224-6.812.224Z" transform="translate(-1519.607 -2294.82)" fill="url(#linear-gradient-62)"/>
          <path id="Path_31201" data-name="Path 31201" d="M1083.958,2284.165c-5.523.678-13.38-.405-14.982-.652-2.051-.316-8.64,2.64-8.711,4.5,0,0-.6,2.868,5.617,5.157l15.288,1.109c5.338-1.274,13.44-4.234,14.085-6.427C1096.594,2283.3,1090.5,2283.362,1083.958,2284.165Z" transform="translate(-1060.248 -2282.711)" fill="url(#linear-gradient-63)"/>
          <g id="Group_39703" data-name="Group 39703" transform="translate(5.909)" opacity="0.3" style="mix-blend-mode: multiply;isolation: isolate">
            <path id="Path_31202" data-name="Path 31202" d="M1160.426,2275.4c3.968.827,5.7-1.658,10.74-.94,3.263.466,4.068,1.728,5.983,1.17a6.064,6.064,0,0,0,3.418-3.179c-2.177-.492-5.392-.281-8.731.129-5.365.658-12.93-.344-14.829-.629-.056-.009-1.13-.825-1.13-.825s-1.065.229-1.841.431A14.714,14.714,0,0,0,1160.426,2275.4Z" transform="translate(-1154.036 -2271.127)" fill="url(#linear-gradient-64)"/>
          </g>
        </g>
      </g>
    </g>
    <g id="Group_39711" data-name="Group 39711" transform="translate(493.049 480.426)">
      <g id="Group_39709" data-name="Group 39709" transform="translate(34.113 48.23)">
        <g id="Group_39708" data-name="Group 39708">
          <path id="Path_31203" data-name="Path 31203" d="M2273.364,1809.7l-15.393-14.415-15.454,14.415a2.693,2.693,0,0,0-.821,1.9v40.4a2.546,2.546,0,0,0,2.556,2.493h27.494a2.365,2.365,0,0,0,2.337-2.493v-40.4A2.591,2.591,0,0,0,2273.364,1809.7ZM2258,1802.394a2.82,2.82,0,1,1-2.82,2.82A2.82,2.82,0,0,1,2258,1802.394Z" transform="translate(-2241.695 -1795.288)" fill="url(#linear-gradient-65)"/>
        </g>
        <path id="Path_31205" data-name="Path 31205" d="M2274.083,2079.153v2.484a2.365,2.365,0,0,1-2.337,2.493h-27.494a2.546,2.546,0,0,1-2.556-2.493v-40.4a2.576,2.576,0,0,1,.165-.875,9.339,9.339,0,0,0,1.937,4.886c1.764,2.082,4.49,2.978,6.886,4.162.16.081.319.16.477.244a23,23,0,0,1,5.148,3.549,14.978,14.978,0,0,1,1.87,2.121,11.313,11.313,0,0,1,.864,1.4c1.653,3.154,1.662,6.6,2.741,10.038a11.379,11.379,0,0,0,3.169,4.747c.986.958,2.021,1.829,3.069,2.688A65.218,65.218,0,0,1,2274.083,2079.153Z" transform="translate(-2241.695 -2024.917)" opacity="0.2" fill="url(#linear-gradient-65)" style="mix-blend-mode: multiply;isolation: isolate"/>
      </g>
      <g id="Group_39710" data-name="Group 39710" transform="translate(0 0)">
        <path id="Path_31206" data-name="Path 31206" d="M1777.28,1061.063l-9.37,18.345c-1.01,1.976-.593,4.5,1.077,7.234a19.233,19.233,0,0,0,1.361,1.974,46.47,46.47,0,0,0,30.009,15.328c4.422.191,7.722-.928,8.974-3.379l9.37-18.345Z" transform="translate(-1763.138 -1059.094)" fill="url(#linear-gradient-67)"/>
        <path id="Path_31207" data-name="Path 31207" d="M1791.837,1466.384a20.008,20.008,0,0,0,1.4,1.995,46.558,46.558,0,0,0,30.039,15.343c4.422.191,7.732-.923,8.984-3.374l4.849-9.492c-3.489-.384-8.711-.314-11.27,2.8-4,4.877-13.72,2.259-21.817-3.44A22.658,22.658,0,0,0,1791.837,1466.384Z" transform="translate(-1786.068 -1438.877)" opacity="0.3" fill="url(#linear-gradient-68)" style="mix-blend-mode: multiply;isolation: isolate"/>
        <path id="Path_31208" data-name="Path 31208" d="M1701.735,1033.565l39.1.528,23.347,31.368,1.349.448-.354.6h0l-40.643-.537-24.259-32.614h0l.218-.427Z" transform="translate(-1700.275 -1032.734)" fill="url(#linear-gradient-69)"/>
        <path id="Path_31209" data-name="Path 31209" d="M1705.13,1029.809l3.345,4.494,20.938,28.132,40.667.55-7.058-9.483-17.225-23.143Z" transform="translate(-1704.824 -1029.809)" fill="url(#linear-gradient-70)"/>
        <path id="Path_31210" data-name="Path 31210" d="M1758.224,1101.138l20.938,28.132,40.667.55-7.058-9.482a7.471,7.471,0,0,0-7.291,2.153c-5.97,6.214-13.944,3.666-17.791-2.238s-10.123-9.264-15.966-9.045C1766.623,1111.4,1761.9,1101.612,1758.224,1101.138Z" transform="translate(-1754.573 -1096.644)" fill="#fff" opacity="0.2" style="mix-blend-mode: soft-light;isolation: isolate"/>
        <path id="Path_31211" data-name="Path 31211" d="M2259.759,1307.667a.237.237,0,0,0,.218-.152c.174-.456.055-13.466.014-17.443a.225.225,0,0,0-.058-.149l-16.015-17.68a.226.226,0,1,0-.334.3l15.958,17.616c.068,6.666.125,16.688.009,17.207a.219.219,0,0,0,.133.283A.216.216,0,0,0,2259.759,1307.667Z" transform="translate(-2209.296 -1256.898)" fill="url(#linear-gradient-71)"/>
        <path id="Path_31212" data-name="Path 31212" d="M2479.063,1785.945l.442-.725a.881.881,0,0,1,1.542.055l.387.771a1.29,1.29,0,0,1,.138.6l-.126,6.421c0,.138-.628.237-1.363.223s-1.356-.138-1.353-.276l.127-6.439A1.312,1.312,0,0,1,2479.063,1785.945Z" transform="translate(-2429.684 -1737.224)" fill="url(#linear-gradient-72)"/>
      </g>
    </g>
  </g>
</svg>
