<svg xmlns="http://www.w3.org/2000/svg" width="20" height="20" viewBox="0 0 20 20"><defs><style>.a{fill:#fff;}</style></defs><g transform="translate(2 1)"><g transform="translate(-2 -1)"><path class="a" d="M0,0V20H20V0ZM18.333,18.333H1.667V1.667H18.333V18.333Z"/><path class="a" d="M278.167,87h2.155l-2.744,2.744a.833.833,0,0,0,1.179,1.179l2.744-2.744v2.155a.833.833,0,0,0,1.667,0V86.167c0-.027,0-.055,0-.082,0-.012,0-.024-.005-.036s0-.03-.007-.044-.007-.027-.01-.041-.006-.025-.01-.038-.009-.026-.014-.04-.009-.025-.014-.037-.011-.024-.017-.036-.012-.025-.018-.038-.013-.022-.02-.034-.014-.024-.022-.036-.017-.024-.026-.036l-.022-.03c-.017-.021-.036-.041-.055-.061h0c-.019-.019-.039-.037-.061-.055l-.03-.022-.036-.026-.036-.022-.034-.02-.038-.018-.036-.017-.037-.014-.04-.014-.038-.01-.041-.01-.044-.007-.037-.005c-.027,0-.055,0-.082,0h-4.167a.833.833,0,0,0,0,1.667Z" transform="translate(-266.5 -82.001)"/><path class="a" d="M85.338,282.414c0,.012,0,.025.005.037s0,.029.007.044.007.028.01.041.006.025.01.038.009.027.014.04.009.025.014.037.011.024.017.036.012.025.018.038.013.022.02.034.014.024.022.036.017.024.026.036l.022.03a.814.814,0,0,0,.055.061h0c.019.019.04.037.061.055l.03.022.036.026.036.022.034.02.038.018.036.017.037.014.04.014.038.01.041.01.044.007.036.005c.027,0,.055,0,.082,0h4.167a.833.833,0,0,0,0-1.667H88.179l2.744-2.744a.833.833,0,0,0-1.179-1.178L87,280.32v-2.155a.833.833,0,0,0-1.667,0v4.167h0C85.334,282.36,85.335,282.387,85.338,282.414Z" transform="translate(-82.001 -266.498)"/></g></g></svg>