<svg xmlns="http://www.w3.org/2000/svg" viewBox="0 0 22 16.509"><defs><style>.a{fill:#fff;}</style></defs><path class="a" d="M20.625,4H1.375A1.32,1.32,0,0,0,0,5.256v11.3a1.32,1.32,0,0,0,1.375,1.256H11V16.561H1.375V5.256h19.25v6.28H22V5.256A1.32,1.32,0,0,0,20.625,4Z" transform="translate(0 -4)"/><path class="a" d="M18.731,13.365a4.365,4.365,0,1,0-4.365,4.365A4.365,4.365,0,0,0,18.731,13.365Zm-4.365,2.91a2.91,2.91,0,1,1,2.91-2.91A2.91,2.91,0,0,1,14.365,16.276Z" transform="translate(-3.365 -6.161)"/><rect class="a" width="1.455" height="1.455" transform="translate(3.083 6.548)"/><rect class="a" width="1.455" height="1.455" transform="translate(16.907 6.548)"/><path class="a" d="M27.265,19H23.627v1.455h1.884l-2.183,2.183H20.717a.728.728,0,0,0-.517.211l-2.91,2.91,1.026,1.026,2.7-2.692h2.612a.728.728,0,0,0,.517-.211l2.394-2.4v1.884h1.455V19.728A.728.728,0,0,0,27.265,19Z" transform="translate(-5.993 -10.276)"/></svg>