<?xml version="1.0" encoding="utf-8"?>
<!-- Generator: Adobe Illustrator 23.0.1, SVG Export Plug-In . SVG Version: 6.00 Build 0)  -->
<svg version="1.1" id="Layer_1" xmlns="http://www.w3.org/2000/svg" xmlns:xlink="http://www.w3.org/1999/xlink" x="0px" y="0px"
	 viewBox="0 0 16 16" style="enable-background:new 0 0 16 16;" xml:space="preserve">
<style type="text/css">
	.st0{fill:none;}
	.st1{fill:#A5A5A5;}
</style>
<g id="expired" transform="translate(-38 -647.5)">
	<g id="Polygon_2" transform="translate(38 647.5)">
		<path class="st0" d="M6.2,2.4c0.6-1,1.8-1.3,2.8-0.7c0.3,0.2,0.6,0.4,0.7,0.7l5.4,9.1c0.6,1,0.3,2.3-0.7,2.8
			c-0.3,0.2-0.7,0.3-1,0.3H2.6c-1.1,0-2.1-0.9-2.1-2.1c0-0.4,0.1-0.7,0.3-1L6.2,2.4z"/>
		<path class="st1" d="M8,2.4c-0.2,0-0.6,0-0.9,0.5l-5.4,9.1c-0.3,0.5-0.1,0.9,0,1c0.1,0.2,0.4,0.5,0.9,0.5h10.8
			c0.5,0,0.8-0.4,0.9-0.5c0.1-0.2,0.3-0.6,0-1L8.9,2.9C8.6,2.4,8.2,2.4,8,2.4 M8,1.4c0.7,0,1.4,0.3,1.8,1l5.4,9.1
			c0.8,1.4-0.2,3.1-1.8,3.1H2.6c-1.6,0-2.6-1.7-1.8-3.1l5.4-9.1C6.6,1.7,7.3,1.4,8,1.4z"/>
	</g>
	<g id="Group_37831" transform="translate(45.954 652.798)">
		<g id="Group_1571" transform="translate(0.195)">
			<g id="Group_1570">
				<path id="Path_11914" class="st1" d="M-0.1-0.5c-0.3,0-0.6,0.3-0.6,0.6v0v3.7c0,0.3,0.3,0.6,0.6,0.6c0.3,0,0.6-0.3,0.6-0.6V0.1
					C0.4-0.2,0.2-0.5-0.1-0.5C-0.1-0.5-0.1-0.5-0.1-0.5z"/>
			</g>
		</g>
		<g id="Group_1573" transform="translate(0 5.386)">
			<g id="Group_1572">
				<circle id="Ellipse_1631" class="st1" cx="0" cy="0.5" r="0.8"/>
			</g>
		</g>
	</g>
</g>
</svg>
