<?xml version="1.0" encoding="utf-8"?>
<!-- Generator: Adobe Illustrator 23.0.1, SVG Export Plug-In . SVG Version: 6.00 Build 0)  -->
<svg version="1.1" id="Layer_1" xmlns="http://www.w3.org/2000/svg" xmlns:xlink="http://www.w3.org/1999/xlink" x="0px" y="0px"
	 viewBox="0 0 16 16" style="enable-background:new 0 0 16 16;" xml:space="preserve">
<style type="text/css">
	.st0{fill:#757575;}
</style>
<g>
	<path id="Path_43252" class="st0" d="M3.4,4.8c0.2-0.2,0.3-0.4,0.6-0.6C4.7,3.5,5.7,3,6.8,2.8v-1H6.6c-0.2,0-0.4-0.2-0.4-0.4
		S6.4,1,6.6,1h2.7c0.2,0,0.4,0.2,0.4,0.4S9.6,1.8,9.4,1.8H9.2v1c1,0.2,2,0.7,2.8,1.4l0.4-0.4l-0.2-0.2c-0.2-0.2-0.2-0.4,0-0.6
		c0.2-0.2,0.4-0.2,0.6,0l0,0l1,1c0.2,0.2,0.2,0.4,0,0.6c-0.2,0.2-0.4,0.2-0.6,0L13,4.4l-0.4,0.4c2.2,2.6,2,6.4-0.6,8.7
		s-6.4,2-8.7-0.6C1.3,10.6,1.3,7.1,3.4,4.8L3.4,4.8z M8.4,1.8H7.6v0.9c0.1,0,0.3,0,0.4,0s0.3,0,0.4,0L8.4,1.8z M8,14.2
		c2.9,0,5.3-2.4,5.3-5.3S10.9,3.5,8,3.5c-2.9,0-5.3,2.4-5.3,5.3v0C2.7,11.8,5.1,14.2,8,14.2L8,14.2z"/>
	<path id="Path_43257" class="st0" d="M8,7.6c0.3,0,0.6,0.1,0.8,0.3l1.1-0.7c0.2-0.1,0.4,0,0.6,0.2c0.1,0.2,0,0.4-0.2,0.6L9.2,8.6
		c0.1,0.7-0.3,1.3-1,1.4c-0.7,0.1-1.3-0.3-1.4-1c-0.1-0.7,0.3-1.3,1-1.4C7.8,7.6,7.9,7.6,8,7.6L8,7.6z M8,9.3c0.2,0,0.4-0.2,0.4-0.4
		c0-0.1,0-0.1,0-0.2c0,0,0,0,0,0c0,0,0,0,0,0C8.2,8.4,7.9,8.4,7.8,8.5C7.6,8.6,7.5,8.9,7.7,9.1C7.7,9.2,7.9,9.3,8,9.3L8,9.3z"/>
</g>
</svg>
