<svg xmlns="http://www.w3.org/2000/svg" width="30.047" height="16" viewBox="0 0 30.047 16"><defs><style>.a{fill:#007c3d;}</style></defs><path class="a" d="M16.813,24.446A19.971,19.971,0,0,0,30.948,18.6a3.087,3.087,0,0,0,0-4.335,20.013,20.013,0,0,0-28.27.053,3.087,3.087,0,0,0,0,4.335,19.971,19.971,0,0,0,14.135,5.794Zm0-13.3a5.286,5.286,0,1,1-5.286,5.286A5.286,5.286,0,0,1,16.813,11.146Zm12.909,5.286a.93.93,0,0,1-.275.666A17.7,17.7,0,0,1,22.2,21.486a7.4,7.4,0,0,0,0-10.107A17.7,17.7,0,0,1,29.5,15.766a.93.93,0,0,1,.222.666ZM4.179,15.766a17.7,17.7,0,0,1,7.242-4.387,7.4,7.4,0,0,0,0,10.107A17.7,17.7,0,0,1,4.179,17.1a.941.941,0,0,1,0-1.332Z" transform="translate(-1.789 -8.446)"/></svg>