<?xml version="1.0" encoding="utf-8"?>
<!-- Generator: Adobe Illustrator 23.0.1, SVG Export Plug-In . SVG Version: 6.00 Build 0)  -->
<svg version="1.1" id="Layer_1" xmlns="http://www.w3.org/2000/svg" xmlns:xlink="http://www.w3.org/1999/xlink" x="0px" y="0px"
	 viewBox="0 0 80 80" style="enable-background:new 0 0 80 80;" xml:space="preserve">
<style type="text/css">
	.st0{fill:#007C3D;}
</style>
<path class="st0" d="M34.2,48.3h-3.3c-1.4,0-2.5-1.1-2.5-2.5c0-1.4,1.1-2.5,2.5-2.5h3.3c2.3,0,4.2-1.9,4.2-4.2V22.5
	c0-1.4,1.1-2.5,2.5-2.5s2.5,1.1,2.5,2.5v16.7C43.3,44.2,39.2,48.3,34.2,48.3z"/>
<path class="st0" d="M38.3,65.8c-5.7,0-10.9-3-13.8-7.9c-0.7-1.2-0.3-2.7,0.9-3.4c1.2-0.7,2.7-0.3,3.4,0.9c3.1,5.3,9.9,7,15.1,3.9
	c1.6-1,3-2.3,3.9-3.9c0.7-1.2,2.2-1.6,3.4-0.9s1.6,2.2,0.9,3.4C49.3,62.8,44,65.8,38.3,65.8z"/>
<path class="st0" d="M77.5,27.8c-1.4,0-2.5-1.1-2.5-2.5V9.2C75,6.9,73.1,5,70.8,5H54.7c-1.4,0-2.5-1.1-2.5-2.5S53.3,0,54.7,0h16.2
	C75.9,0,80,4.1,80,9.2v16.2C80,26.7,78.9,27.8,77.5,27.8z"/>
<path class="st0" d="M2.5,27.8c-1.4,0-2.5-1.1-2.5-2.5V9.2C0,4.1,4.1,0,9.2,0h16.2c1.4,0,2.5,1.1,2.5,2.5S26.7,5,25.3,5H9.2
	C6.9,5,5,6.9,5,9.2v16.2C5,26.7,3.9,27.8,2.5,27.8z"/>
<path class="st0" d="M70.8,80H54.7c-1.4,0-2.5-1.1-2.5-2.5s1.1-2.5,2.5-2.5h16.2c2.3,0,4.2-1.9,4.2-4.2V54.7c0-1.4,1.1-2.5,2.5-2.5
	s2.5,1.1,2.5,2.5v16.2C80,75.9,75.9,80,70.8,80z"/>
<path class="st0" d="M25.3,80H9.2C4.1,80,0,75.9,0,70.8V54.7c0-1.4,1.1-2.5,2.5-2.5S5,53.3,5,54.7v16.2C5,73.1,6.9,75,9.2,75h16.2
	c1.4,0,2.5,1.1,2.5,2.5S26.7,80,25.3,80z"/>
<path class="st0" d="M19.2,20c-1.4,0-2.5,1.1-2.5,2.5v5c0,1.4,1.1,2.5,2.5,2.5c1.4,0,2.5-1.1,2.5-2.5v-5C21.7,21.1,20.5,20,19.2,20z
	"/>
<path class="st0" d="M57.5,20c-1.4,0-2.5,1.1-2.5,2.5v5c0,1.4,1.1,2.5,2.5,2.5s2.5-1.1,2.5-2.5v-5C60,21.1,58.9,20,57.5,20z"/>
</svg>
