<svg xmlns="http://www.w3.org/2000/svg" width="80" height="80" viewBox="0 0 80 80">
                  <path class="a"
                    d="M14.333,34.333H11a2.5,2.5,0,0,1,0-5h3.333A4.172,4.172,0,0,0,18.5,25.167V8.5a2.5,2.5,0,0,1,5,0V25.167A9.174,9.174,0,0,1,14.333,34.333Z"
                    transform="translate(19.833 14)"></path>
                  <path class="a"
                    d="M21.416,27.92a16.107,16.107,0,0,1-13.82-7.9,2.5,2.5,0,0,1,4.31-2.54,11.042,11.042,0,0,0,19.027,0,2.5,2.5,0,0,1,4.31,2.54A16.126,16.126,0,0,1,21.416,27.92Z"
                    transform="translate(16.917 37.914)"></path>
                  <path class="a"
                    d="M40.979,27.827a2.5,2.5,0,0,1-2.5-2.5V9.167A4.172,4.172,0,0,0,34.312,5H18.152a2.5,2.5,0,1,1,0-5h16.16a9.176,9.176,0,0,1,9.167,9.167v16.16A2.5,2.5,0,0,1,40.979,27.827Z"
                    transform="translate(36.521)"></path>
                  <path class="a"
                    d="M2.5,27.827a2.5,2.5,0,0,1-2.5-2.5V9.167A9.176,9.176,0,0,1,9.167,0h16.16a2.5,2.5,0,0,1,0,5H9.167A4.172,4.172,0,0,0,5,9.167v16.16a2.5,2.5,0,0,1-2.5,2.5Z">
                  </path>
                  <path class="a"
                    d="M34.312,43.479H18.152a2.5,2.5,0,0,1,0-5h16.16a4.172,4.172,0,0,0,4.167-4.167V18.152a2.5,2.5,0,0,1,5,0v16.16A9.176,9.176,0,0,1,34.312,43.479Z"
                    transform="translate(36.521 36.521)"></path>
                  <path class="a"
                    d="M25.327,43.479H9.167A9.176,9.176,0,0,1,0,34.312V18.152a2.5,2.5,0,0,1,5,0v16.16a4.172,4.172,0,0,0,4.167,4.167h16.16a2.5,2.5,0,0,1,0,5Z"
                    transform="translate(0 36.521)"></path>
                  <path class="a" d="M7.5,6A2.5,2.5,0,0,0,5,8.5v5a2.5,2.5,0,0,0,5,0v-5A2.5,2.5,0,0,0,7.5,6Z"
                    transform="translate(11.667 14)"></path>
                  <path class="a" d="M19,6a2.5,2.5,0,0,0-2.5,2.5v5a2.5,2.5,0,0,0,5,0v-5A2.5,2.5,0,0,0,19,6Z"
                    transform="translate(38.5 14)"></path>
                </svg>