<svg xmlns="http://www.w3.org/2000/svg" width="24.001" height="24" viewBox="0 0 24.001 24"><defs><style>.a{fill:#d82828;}.b{fill:#fff;}</style></defs><g transform="translate(0 0)"><path class="a" d="M10.965,0A10.965,10.965,0,1,1,0,10.965,10.965,10.965,0,0,1,10.965,0Z" transform="translate(1.035 1.035)"/><path class="a" d="M12,24.011a12,12,0,0,1-8.49-20.49h0A12.007,12.007,0,1,1,12,24.011ZM4.826,4.836a10.147,10.147,0,1,0,14.35,0,10.16,10.16,0,0,0-14.35,0Z" transform="translate(0 -0.011)"/></g><g transform="translate(7.331 7.22)"><path class="b" d="M168.313,174.182a1.041,1.041,0,0,1-.736-1.778l7.363-7.363a1.041,1.041,0,1,1,1.473,1.473l-7.363,7.363A1.04,1.04,0,0,1,168.313,174.182Z" transform="translate(-167.27 -164.735)"/><path class="b" d="M175.656,174.182a1.039,1.039,0,0,1-.736-.305l-7.363-7.363a1.041,1.041,0,1,1,1.473-1.473l7.363,7.363a1.041,1.041,0,0,1-.736,1.778Z" transform="translate(-167.251 -164.735)"/></g></svg>