<?xml version="1.0" standalone="no"?>
<!DOCTYPE svg PUBLIC "-//W3C//DTD SVG 20010904//EN"
 "http://www.w3.org/TR/2001/REC-SVG-20010904/DTD/svg10.dtd">
<svg version="1.0" xmlns="http://www.w3.org/2000/svg"
 width="288.000000pt" height="288.000000pt" viewBox="0 0 288.000000 288.000000"
 preserveAspectRatio="xMidYMid meet">
<metadata>
Created by potrace 1.16, written by Peter Selinger 2001-2019
</metadata>
<g transform="translate(0.000000,288.000000) scale(0.100000,-0.100000)"
fill="#000000" stroke="none">
<path d="M1216 2674 c-508 -92 -922 -508 -1011 -1018 -20 -115 -20 -337 0
-452 90 -515 506 -929 1023 -1019 109 -19 335 -19 444 0 518 90 933 504 1023
1019 20 115 20 337 0 452 -90 514 -505 929 -1019 1019 -111 19 -351 19 -460
-1z m442 -110 c400 -71 744 -366 881 -756 44 -127 62 -235 62 -378 0 -373
-167 -701 -471 -929 -197 -147 -426 -222 -680 -222 -312 0 -592 116 -814 337
-403 402 -452 1041 -115 1494 270 362 695 532 1137 454z"/>
<path d="M1320 2133 c0 -98 3 -384 7 -635 l6 -458 103 0 103 0 5 53 c3 28 8
314 11 635 l6 582 -120 0 -121 0 0 -177z"/>
<path d="M2108 2146 c-16 -19 -28 -38 -28 -41 0 -4 26 -35 58 -70 160 -174
248 -451 222 -690 -11 -97 -29 -169 -62 -253 -11 -29 -19 -54 -17 -55 2 -2 24
-12 48 -22 41 -18 44 -18 56 -1 19 25 62 169 76 250 7 41 9 126 6 215 -4 120
-9 162 -31 235 -34 112 -81 215 -137 297 -49 72 -136 169 -153 169 -6 0 -23
-16 -38 -34z"/>
<path d="M1385 786 c-48 -21 -68 -51 -73 -110 -8 -93 41 -146 133 -146 87 0
135 49 135 138 0 100 -100 160 -195 118z"/>
</g>
</svg>
