<?xml version="1.0" encoding="utf-8"?>
<!-- Generator: Adobe Illustrator 23.0.1, SVG Export Plug-In . SVG Version: 6.00 Build 0)  -->
<svg version="1.1" id="Layer_1" xmlns="http://www.w3.org/2000/svg" xmlns:xlink="http://www.w3.org/1999/xlink" x="0px" y="0px"
	 viewBox="0 0 16 16" style="enable-background:new 0 0 16 16;" xml:space="preserve">
<style type="text/css">
	.st0{fill:#007C3D;}
</style>
<g id="faq-icon" transform="translate(0 -30.12)">
	<path id="Path_43271" class="st0" d="M15,41.8c1.5-2.6,0.4-5.9-2.1-7.3c-0.7-0.4-1.6-0.6-2.4-0.6c-1.5-2.5-4.7-3.5-7.4-2
		c-2.5,1.5-3.5,4.6-2,7.3l-0.3,2c0,0.2,0.1,0.5,0.3,0.5h0.1l2-0.3c0.7,0.2,1.6,0.5,2.4,0.5c1.5,2.5,4.6,3.5,7.3,2l2,0.3
		c0.2,0,0.5-0.1,0.5-0.3v-0.1L15,41.8z M3.3,40.3C3.3,40.3,3.2,40.3,3.3,40.3l-1.6,0.2L1.9,39c0-0.1,0-0.2-0.1-0.3
		c-1.3-2.1-0.5-4.8,1.6-6.1c2.1-1.3,4.8-0.5,6.1,1.6S10,39,7.9,40.3c-1.4,0.8-3.2,0.8-4.5,0C3.4,40.3,3.4,40.3,3.3,40.3L3.3,40.3z
		 M14.1,41.8l0.2,1.5L12.9,43c-0.1,0-0.2,0-0.3,0.1c-2,1.2-4.5,0.6-5.9-1.3c0.3-0.1,0.7-0.1,1.1-0.3c0.1,0,0.1,0.1,0.2,0.1h4.6
		c0.2,0,0.4-0.2,0.4-0.4c0-0.2-0.2-0.4-0.4-0.4H9.1c0.4-0.3,0.7-0.6,1.1-1.1h2.4c0.2,0,0.4-0.2,0.4-0.4c0-0.2-0.2-0.4-0.4-0.4h-1.9
		c0.1-0.3,0.3-0.7,0.3-1.1h1.6c0.2,0,0.4-0.2,0.4-0.4c0-0.2-0.2-0.4-0.4-0.4l0,0h-1.4c0-0.1,0-0.2,0-0.3c0-0.6-0.1-1.2-0.3-1.8
		c2.4,0.3,4.2,2.6,3.9,5.1c-0.1,0.6-0.3,1.2-0.5,1.7C14.1,41.5,14,41.7,14.1,41.8L14.1,41.8z"/>
	<path id="Path_43272" class="st0" d="M5.1,35c0-0.4,0.3-0.6,0.6-0.6c0.4,0,0.6,0.3,0.6,0.6c0,0.4-0.3,0.6-0.6,0.6l0,0
		c-0.2,0-0.4,0.2-0.4,0.4l0,0v1.4c0,0.2,0.2,0.4,0.4,0.4c0.2,0,0.4-0.2,0.4-0.4l0,0v-0.8c0.8-0.2,1.3-1.2,1.1-2
		c-0.2-0.8-1.2-1.3-2-1.1C4.5,33.8,4,34.4,4,35c0,0.2,0.2,0.4,0.4,0.4C4.9,35.5,5.1,35.3,5.1,35C5.1,35.1,5.1,35.1,5.1,35L5.1,35z"
		/>
	<path id="Path_43273" class="st0" d="M5.8,38.6c-0.2,0-0.4,0.2-0.4,0.4s0.2,0.4,0.4,0.4s0.4-0.2,0.4-0.4l0,0
		C6.2,38.7,6,38.6,5.8,38.6z"/>
</g>
</svg>
