<svg xmlns="http://www.w3.org/2000/svg" width="51.574" height="51.574" viewBox="0 0 51.574 51.574">
  <g id="fasttag" transform="translate(-0.85 -0.85)">
    <path id="Path_43886" data-name="Path 43886" d="M51.059,45H37.827a.827.827,0,0,0-.827.827v6.616a.827.827,0,0,0,.827.827H51.059a.827.827,0,0,0,.827-.827V45.827A.827.827,0,0,0,51.059,45Zm-.827,6.616H38.654V46.654H50.232Z" transform="translate(-6.228 -7.612)" fill="#007c3d" stroke="#007c3d" stroke-width="0.3"/>
    <rect id="Rectangle_18665" data-name="Rectangle 18665" width="7" height="1" transform="translate(35.214 41.214)" fill="#007c3d" stroke="#007c3d" stroke-width="0.3"/>
    <path id="Path_43887" data-name="Path 43887" d="M51.059,23H37.827a.827.827,0,0,0-.827.827V38.713a.827.827,0,0,0,.827.827H51.059a.827.827,0,0,0,.827-.827V23.827A.827.827,0,0,0,51.059,23ZM46.924,37.886H41.962V34.578a2.481,2.481,0,1,1,4.962,0Zm3.308,0H48.578V34.578a4.135,4.135,0,1,0-8.27,0v3.308H38.654V24.654H50.232Z" transform="translate(-6.228 -3.806)" fill="#007c3d" stroke="#007c3d" stroke-width="0.3"/>
    <path id="Path_43888" data-name="Path 43888" d="M50.619,52.7V50.215a.827.827,0,0,0-.827-.827h-.827V19.616h.827a.817.817,0,0,0,.686-1.265l-3.308-4.962A.827.827,0,0,0,46.485,13H29.945a.827.827,0,0,0-.686.372L25.95,18.334a.832.832,0,0,0,.686,1.282h.827v12.4H5.962a3.308,3.308,0,1,0,0,6.616h21.5V49.388h-.827a.827.827,0,0,0-.827.827V52.7H9.27V43.6a3.308,3.308,0,1,0-6.616,0v9.1H1V54.35H52.273V52.7ZM30.391,14.654H46.038l2.208,3.308H28.183ZM16.225,33.675h2.63l-3.308,3.308h-2.63Zm-5.64,3.308H7.955l3.308-3.308h2.63Zm10.6-3.308h2.63l-3.308,3.308h-2.63ZM4.308,35.329a1.654,1.654,0,0,1,1.654-1.654H8.931L5.623,36.983A1.654,1.654,0,0,1,4.308,35.329Zm18.533,1.654,3.308-3.308h1.315v3.308Zm6.277-17.367H47.311V49.388H29.118ZM27.464,51.042h21.5V52.7h-21.5Zm-21.5-9.1A1.654,1.654,0,0,1,7.616,43.6v4.135H4.308V43.6a1.654,1.654,0,0,1,1.654-1.654ZM4.308,49.388H7.616V52.7H4.308Z" transform="translate(0 -2.076)" fill="#007c3d" stroke="#007c3d" stroke-width="0.3"/>
    <path id="Path_43890" data-name="Path 43890" d="M13.751,22.5A10.751,10.751,0,1,0,3,11.751,10.751,10.751,0,0,0,13.751,22.5Zm0-19.848a9.1,9.1,0,1,1-9.1,9.1,9.1,9.1,0,0,1,9.1-9.1Z" transform="translate(-0.346 0)" fill="#007c3d" stroke="#007c3d" stroke-width="0.3"/>
    <path id="Union_31" data-name="Union 31" d="M4.361,9.737,1.843,6.511A3.579,3.579,0,0,0,1.161,5.8a.93.93,0,0,0-.555-.192H.387v-1.4H1.423a5.264,5.264,0,0,0,.79-.058,2.287,2.287,0,0,0,.649-.194A1.314,1.314,0,0,0,3.32,3.6a.941.941,0,0,0,.171-.354H0L.638,2.031H3.4a1.323,1.323,0,0,0-.09-.176A1.269,1.269,0,0,0,2.6,1.3a2.14,2.14,0,0,0-.569-.093H0L.638,0H7.209L6.571,1.211H4.848a2.316,2.316,0,0,1,.144.268,2.512,2.512,0,0,1,.177.552h2.04L6.571,3.242H5.185a2.492,2.492,0,0,1-.251.728,2.8,2.8,0,0,1-.547.715,3.107,3.107,0,0,1-.745.518,4.319,4.319,0,0,1-.54.226L6.49,9.737ZM.606,5.4a1.156,1.156,0,0,1,.685.234,3.764,3.764,0,0,1,.727.755L4.47,9.525h0L2.019,6.385a3.764,3.764,0,0,0-.727-.755A1.156,1.156,0,0,0,.606,5.4ZM4.74,3.873a2.579,2.579,0,0,1-.505.661,2.878,2.878,0,0,1-.692.481,4.052,4.052,0,0,1-.8.3,4.052,4.052,0,0,0,.8-.3,2.878,2.878,0,0,0,.692-.481,2.579,2.579,0,0,0,.505-.661A2.347,2.347,0,0,0,5,3.031h1.44l.415-.788-.415.788H5A2.347,2.347,0,0,1,4.74,3.873ZM.357,3.031h0Zm3.337-.788a1.532,1.532,0,0,0-.54-.882A1.856,1.856,0,0,0,2.033,1h0a1.856,1.856,0,0,1,1.122.361A1.532,1.532,0,0,1,3.694,2.243ZM6.436,1,6.852.211,6.436,1h0Z" transform="translate(9.619 7.421)" fill="#007c3d"/>
  </g>
</svg>
