<?xml version="1.0" encoding="utf-8"?>
<!-- Generator: Adobe Illustrator 23.0.1, SVG Export Plug-In . SVG Version: 6.00 Build 0)  -->
<svg version="1.1" id="Layer_1" xmlns="http://www.w3.org/2000/svg" xmlns:xlink="http://www.w3.org/1999/xlink" x="0px" y="0px"
	 viewBox="0 0 16 16" style="enable-background:new 0 0 16 16;" xml:space="preserve">
<style type="text/css">
	.st0{fill:#007C3D;}
</style>
<g transform="translate(4.691 4.661)">
	<path class="st0" d="M-1.3,7.7h1.9v0.9h-1.9V7.7z"/>
	<path class="st0" d="M4.5,7.3l6.7-4.8L9.5,0.2L3.1,4.8c-0.1,0-0.3,0-0.4,0.1V1h1.1V0.4C4.4,0.3,5-0.3,5-1v-1c0-0.8-0.6-1.4-1.4-1.4
		h-3.7c-0.7,0-1.3,0.5-1.4,1.3h-3.1V1h1.1v9.3h-1.1v0.9h15.7v-0.9H4.5V7.3z M9.2,1.4l0.6,0.9l-1.4,1L8.3,2.1L9.2,1.4z M7.4,2.7
		l0.1,1.2L6.3,4.9L6.2,3.6L7.4,2.7z M-0.1-2.5h3.7c0.3,0,0.5,0.2,0.5,0.5v1c0,0.3-0.2,0.5-0.5,0.5C3.4-0.5,3.2-0.7,3.1-1
		c0,0,0,0,0,0v-0.5h-3.2c-0.3,0-0.5-0.2-0.4-0.5C-0.5-2.3-0.3-2.5-0.1-2.5z M1.7,6.1v4.1h-4.3V5.5h4.3V6.1z M1.7,4.6h-4.3V1h4.3V4.6
		z M-3.6,0v-1.3h2.4C-1-0.8-0.5-0.6-0.1-0.6h2.4C2.4-0.4,2.5-0.1,2.7,0L-3.6,0z M3.6,10.2H2.6V6.1c0-0.3,0.2-0.5,0.5-0.5
		s0.5,0.2,0.5,0.5c0,0,0,0,0,0L3.6,10.2z M4.1,5.2l1.3-0.9l0.1,1.2l-1,0.7v0C4.5,5.8,4.3,5.4,4.1,5.2L4.1,5.2z"/>
	<path class="st0" d="M6.2-4.5h0.9v0.9H6.2V-4.5z"/>
	<path class="st0" d="M5.9-0.9h0.9V0H5.9V-0.9z"/>
	<path class="st0" d="M9.1-2.9H10v0.9H9.1V-2.9z"/>
	<path class="st0" d="M-3.5-4h0.9V-3h-0.9V-4z"/>
</g>
</svg>
