<svg xmlns="http://www.w3.org/2000/svg" width="60" height="60" viewBox="0 0 60 60">
  <g id="favorites" transform="translate(11560 -13098)">
    <g id="fd-rd" transform="translate(1733 35)" opacity="0">
      <g id="Group_39998" data-name="Group 39998" transform="translate(-445 184)" opacity="0.36">
        <rect id="Rectangle_18667" data-name="Rectangle 18667" width="60" height="60" transform="translate(-12848 12879)" fill="#adadad"/>
        <rect id="Rectangle_18668" data-name="Rectangle 18668" width="52" height="52" transform="translate(-12844 12883)" fill="#7c0000"/>
      </g>
    </g>
    <g id="noun_Star_4184497" transform="translate(-11559.31 13098.678)">
      <g id="_23_star" data-name="23 star" transform="translate(7.593 7.585)">
        <path id="Path_43939" data-name="Path 43939" d="M40.755,18.412l.217-.233h-.311L29.652,17.2a3.4,3.4,0,0,1-2.733-2.034L22.7,4.531l-.14-.311-.14.311L18.193,15.136A3.37,3.37,0,0,1,15.46,17.17l-11.009.978H4.14l.217.233,8.494,7.764a3.478,3.478,0,0,1,.994,3.106L11.3,40.664v.326a1.351,1.351,0,0,0,.28-.171l9.317-5.932a3.385,3.385,0,0,1,3.509,0l9.317,5.932a1.351,1.351,0,0,0,.28.171v-.326L31.453,29.251a3.478,3.478,0,0,1,.994-3.106Z" transform="translate(-0.839 -0.773)" fill="none"/>
        <path id="Subtraction_20" data-name="Subtraction 20" d="M11561.943-13062.786a2.3,2.3,0,0,1-1.306-.405,3.016,3.016,0,0,1-.911-3.453l.01-.023,2.48-11.467v-.338l-8.575-7.789-.017-.01a3.006,3.006,0,0,1-1.2-3.27c.2-.611.844-1.665,2.951-1.853l11.081-.97.063-.04a1.084,1.084,0,0,0,.207-.164l.043-.043,4.217-10.631c.365-.9,1.209-2.421,2.75-2.421s2.431,1.519,2.829,2.425l4.167,10.7.322.175,11.039.97c2.111.188,2.757,1.241,2.953,1.853a3.008,3.008,0,0,1-1.2,3.27l-.017.01-8.49,7.831-.006.119a1.222,1.222,0,0,0,0,.224v.022l2.536,11.391.006.02.007.023a2.8,2.8,0,0,1-1.007,3.289,2.792,2.792,0,0,1-1.614.514,2.813,2.813,0,0,1-1.826-.675l-.017-.013-9.407-5.993h-.361l-9.391,5.963-.01.01a4.132,4.132,0,0,1-2.24.75Zm11.7-9.253a3.079,3.079,0,0,1,1.6.447l9.3,5.92a1.57,1.57,0,0,0,.326.2l.424.193v-.825l-2.552-11.446a3.178,3.178,0,0,1,.727-2.826l8.483-7.756.707-.753h-.987l-10.992-.977a3.113,3.113,0,0,1-2.487-1.853l-4.223-10.6-.418-.932-.414.921-4.228,10.615a3.076,3.076,0,0,1-2.483,1.849l-11,.977h-.987l.69.736,8.507,7.779a3.172,3.172,0,0,1,.9,2.825l-2.553,11.44v.825l.425-.193a1.605,1.605,0,0,0,.328-.2l9.3-5.92A3.052,3.052,0,0,1,11573.64-13072.039Z" transform="translate(-11552.017 13105.963)" fill="#007c3d"/>
      </g>
    </g>
  </g>
</svg>
