<svg xmlns="http://www.w3.org/2000/svg" width="30" height="30" viewBox="0 0 30 30">
  <g id="favorites" transform="translate(11560 -13098)">
    <g id="fd-rd" transform="translate(-11560 13098)" opacity="0">
      <g id="Group_39998" data-name="Group 39998" transform="translate(0)" opacity="0.36">
        <rect id="Rectangle_18667" data-name="Rectangle 18667" width="30" height="30" fill="#adadad"/>
        <rect id="Rectangle_18668" data-name="Rectangle 18668" width="26" height="26" transform="translate(2 2)" fill="#7c0000"/>
      </g>
    </g>
    <g id="noun_Star_4184497" transform="translate(-11555 13103)">
      <g id="_23_star" data-name="23 star" transform="translate(0 0)">
        <path id="Path_43939" data-name="Path 43939" d="M21.219,10.84l.1-.109h-.145l-5.135-.456a1.586,1.586,0,0,1-1.275-.949L12.8,4.365,12.73,4.22l-.065.145L10.7,9.312a1.572,1.572,0,0,1-1.275.949l-5.135.456H4.14l.1.109L8.2,14.447A1.622,1.622,0,0,1,8.667,15.9L7.479,21.22v.152a.63.63,0,0,0,.13-.08l4.346-2.767a1.579,1.579,0,0,1,1.637,0l4.346,2.767a.63.63,0,0,0,.13.08V21.22L16.881,15.9a1.622,1.622,0,0,1,.464-1.449Z" transform="translate(-2.741 -2.752)" fill="none"/>
        <path id="Subtraction_20" data-name="Subtraction 20" d="M4.49,20a1.071,1.071,0,0,1-.609-.189,1.406,1.406,0,0,1-.425-1.61l0-.011,1.157-5.348v-.158l-4-3.633-.007,0A1.4,1.4,0,0,1,.05,7.52c.092-.285.393-.777,1.376-.864L6.595,6.2l.029-.019a.528.528,0,0,0,.1-.076l.02-.02L8.707,1.13C8.878.708,9.272,0,9.99,0s1.134.708,1.32,1.131l1.943,4.991.15.081,5.15.452c.985.088,1.286.579,1.377.864a1.4,1.4,0,0,1-.561,1.525l-.007,0L15.4,12.7l0,.056a.531.531,0,0,0,0,.1v.011l1.183,5.313,0,.009,0,.011a1.309,1.309,0,0,1-2.075,1.459l-.007-.006-4.388-2.8H9.949l-4.38,2.782,0,0A1.931,1.931,0,0,1,4.519,20Zm5.456-4.316a1.436,1.436,0,0,1,.745.209l4.339,2.761a.727.727,0,0,0,.153.093l.2.09v-.385L14.19,13.112a1.484,1.484,0,0,1,.339-1.318l3.957-3.617.33-.351h-.46L13.228,7.37a1.452,1.452,0,0,1-1.16-.864L10.1,1.561,9.9,1.126l-.194.429L7.738,6.507A1.434,1.434,0,0,1,6.58,7.37l-5.129.456H.99l.322.343L5.28,11.8A1.479,1.479,0,0,1,5.7,13.115L4.511,18.452v.385l.2-.09a.759.759,0,0,0,.153-.093L9.2,15.893A1.424,1.424,0,0,1,9.946,15.684Z" transform="translate(0)" fill="#707273"/>
      </g>
    </g>
  </g>
</svg>
