<?xml version="1.0" encoding="utf-8"?>
<!-- Generator: Adobe Illustrator 23.0.1, SVG Export Plug-In . SVG Version: 6.00 Build 0)  -->
<svg version="1.1" id="Layer_1" xmlns="http://www.w3.org/2000/svg" xmlns:xlink="http://www.w3.org/1999/xlink" x="0px" y="0px"
	 viewBox="0 0 35.9 28.5" style="enable-background:new 0 0 35.9 28.5;" xml:space="preserve">
<style type="text/css">
	.st0{fill:#007C3D;}
</style>
<g id="_19705859691600702437" transform="translate(-3 -9)">
	<path id="Path_43911" class="st0" d="M35.7,9H6.3C4.5,9,3,10.5,3,12.3v19.5C3,33.6,4.5,35,6.3,35h1.2c-0.3,1,0.2,2,1.2,2.4
		c0.2,0.1,0.4,0.1,0.6,0.1h4.3c1,0,1.8-0.8,1.8-1.9c0-0.2,0-0.4-0.1-0.6h11.4c-0.3,1,0.2,2,1.2,2.4c0.2,0.1,0.4,0.1,0.6,0.1h4.3
		c1,0,1.8-0.8,1.8-1.9c0-0.2,0-0.4-0.1-0.6h1.2c1.8,0,3.3-1.5,3.3-3.3V12.3C38.9,10.5,37.5,9,35.7,9z M13.5,36.3H9.2
		c-0.3,0-0.6-0.3-0.6-0.6S8.9,35,9.2,35h4.3c0.3,0,0.6,0.3,0.6,0.6S13.9,36.3,13.5,36.3L13.5,36.3z M32.7,36.3h-4.3
		c-0.3,0-0.6-0.3-0.6-0.6s0.3-0.6,0.6-0.6h4.3c0.3,0,0.6,0.3,0.6,0.6S33.1,36.3,32.7,36.3L32.7,36.3L32.7,36.3z M37.7,31.8
		c0,1.1-0.9,2-2,2H6.2c-1.1-0.1-1.9-1-2-2V12.3c0-1.1,0.9-2,2-2h29.4c1.1,0,2,0.9,2,2L37.7,31.8L37.7,31.8z"/>
	<path id="Path_43912" class="st0" d="M25.2,11.2H9.4c-1.8,0-3.3,1.5-3.3,3.3v0.7H5.7c-0.3,0-0.6,0.2-0.6,0.5c0,0,0,0,0,0.1v3.9
		c0,0.3,0.2,0.6,0.5,0.6c0,0,0,0,0.1,0h0.4v3.3H5.7c-0.3,0-0.6,0.2-0.6,0.5c0,0,0,0,0,0.1v3.9c0,0.3,0.2,0.6,0.5,0.6c0,0,0,0,0.1,0
		h0.4c-0.4,1.8,0.8,3.5,2.6,3.9c0.2,0,0.4,0.1,0.7,0.1h15.8c1.8,0,3.3-1.5,3.3-3.3v-15C28.4,12.7,27,11.3,25.2,11.2z M7.2,27.6H6.3
		v-2.7h0.9V27.6z M7.2,19.1H6.3v-2.7h0.9V19.1z M27.1,29.6c0,1.1-0.9,2-2,2H9.4c-1.1,0-2-0.9-2-2v-0.7h0.4c0.3,0,0.6-0.2,0.6-0.5
		c0,0,0,0,0-0.1v-3.9c0-0.3-0.2-0.6-0.5-0.6c0,0,0,0-0.1,0H7.3v-3.4h0.4c0.3,0,0.6-0.2,0.6-0.5c0,0,0,0,0-0.1v-3.9
		c0-0.3-0.2-0.6-0.5-0.6c0,0,0,0-0.1,0H7.3v-0.7c0-1.1,0.9-2,2-2h15.8c1.1,0,2,0.9,2,2L27.1,29.6L27.1,29.6z"/>
	<path id="Path_43913" class="st0" d="M12.9,22c0,2.4,1.9,4.3,4.3,4.3s4.3-1.9,4.3-4.3s-1.9-4.3-4.3-4.3
		C14.9,17.7,12.9,19.6,12.9,22z M17.2,25.1c-1.7-0.1-3-1.5-2.9-3.2c0.1-1.6,1.4-2.9,2.9-2.9c1.7,0.1,3,1.6,2.9,3.3
		C20.1,23.8,18.8,25,17.2,25.1L17.2,25.1z"/>
	<path id="Path_43914" class="st0" d="M36.4,21.4h-1.2c0-0.1-0.1-0.2-0.1-0.2l0.9-0.9c0.2-0.2,0.2-0.6,0-0.9c-0.2-0.2-0.6-0.2-0.9,0
		l-0.9,0.9c-0.1-0.1-0.2-0.1-0.2-0.1v-1.2c0-0.3-0.3-0.6-0.6-0.6s-0.6,0.3-0.6,0.6v1.2c-0.1,0-0.2,0.1-0.2,0.1l-0.9-0.9
		c-0.2-0.2-0.6-0.2-0.9,0c-0.2,0.2-0.2,0.6,0,0.9l0.9,0.9c-0.1,0.1-0.1,0.2-0.1,0.2h-1.2c-0.3,0-0.6,0.3-0.6,0.6s0.3,0.6,0.6,0.6
		h1.2c0,0.1,0.1,0.2,0.1,0.2l-0.9,0.9c-0.2,0.2-0.2,0.6,0,0.8c0,0,0,0,0,0c0.2,0.2,0.6,0.2,0.8,0c0,0,0,0,0,0l0.9-0.9
		c0.1,0.1,0.2,0.1,0.2,0.1v1.2c0,0.3,0.3,0.6,0.6,0.6s0.6-0.3,0.6-0.6l0,0v-1.2c0.1,0,0.2-0.1,0.2-0.1l0.9,0.9
		c0.2,0.2,0.6,0.2,0.8,0c0,0,0,0,0,0c0.2-0.2,0.2-0.6,0-0.8c0,0,0,0,0,0l-0.9-0.9c0.1-0.1,0.1-0.2,0.1-0.2h1.2
		c0.3,0,0.6-0.3,0.6-0.6C37.1,21.7,36.8,21.4,36.4,21.4L36.4,21.4L36.4,21.4z M33.3,22.7c-0.4,0-0.7-0.3-0.7-0.7s0.3-0.7,0.7-0.7
		S34,21.6,34,22l0,0C34,22.4,33.7,22.7,33.3,22.7L33.3,22.7z"/>
	<path id="Path_43927" class="st0" d="M17.8,21.7c0,0.2-0.2,0.4-0.3,0.5c-0.2,0.1-0.4,0.2-0.6,0.3l1.3,1.8h-0.7l-1-1.3
		c-0.1-0.1-0.2-0.2-0.3-0.3c-0.1-0.1-0.2-0.1-0.2-0.1v-0.4h0.3c0.2,0,0.3,0,0.5-0.1c0.1-0.1,0.2-0.2,0.3-0.3h-1.2l0.2-0.5h1.1
		c0-0.1-0.1-0.2-0.2-0.3c-0.1-0.1-0.2-0.1-0.4-0.1h-0.7l0.2-0.5h2.4l-0.2,0.5h-0.7c0.1,0.1,0.1,0.3,0.1,0.4h0.8l-0.2,0.5H17.8z"/>
</g>
</svg>
