<svg xmlns="http://www.w3.org/2000/svg" width="23.897" height="26.392" viewBox="0 0 23.897 26.392">
  <g id="_069-safe_box" data-name="069-safe box" transform="translate(-5.454 -4.172)">
    <g id="color" transform="translate(6.13 4.172)">
      <g id="Group_35479" data-name="Group 35479" transform="translate(0 2.931)">
        <path id="Path_27776" data-name="Path 27776" d="M25.237,24.433H8.554a1.8,1.8,0,0,1-1.8-1.8V9.554a1.8,1.8,0,0,1,1.8-1.8H25.237a1.8,1.8,0,0,1,1.8,1.8V22.63A1.8,1.8,0,0,1,25.237,24.433Z" transform="translate(-6.75 -7.75)" fill="#f3f3f1"/>
      </g>
      <g id="Group_35480" data-name="Group 35480" transform="translate(7.665 7.44)">
        <circle id="Ellipse_2636" data-name="Ellipse 2636" cx="4.284" cy="4.284" r="4.284" fill="#08c866"/>
      </g>
      <g id="Group_35481" data-name="Group 35481" transform="translate(7.665 7.44)">
        <path id="Path_27777" data-name="Path 27777" d="M17.279,17.034a4.275,4.275,0,0,1,3.269-4.149,4.227,4.227,0,0,0-1.015-.134,4.284,4.284,0,0,0,0,8.567,4.227,4.227,0,0,0,1.015-.134A4.276,4.276,0,0,1,17.279,17.034Z" transform="translate(-15.25 -12.75)" fill="#007c3d" opacity="0.5"/>
      </g>
      <g id="Group_35482" data-name="Group 35482" transform="translate(0 2.931)">
        <path id="Path_27778" data-name="Path 27778" d="M8.779,22.63V9.554a1.8,1.8,0,0,1,1.8-1.8H8.554a1.8,1.8,0,0,0-1.8,1.8V22.63a1.8,1.8,0,0,0,1.8,1.8h2.029A1.8,1.8,0,0,1,8.779,22.63Z" transform="translate(-6.75 -7.75)" fill="#d5dbe1"/>
      </g>
      <g id="Group_35486" data-name="Group 35486" transform="translate(0.338 22.334)">
        <g id="Group_35483" data-name="Group 35483" transform="translate(0 0)">
          <path id="Path_27779" data-name="Path 27779" d="M7.125,29.266h1.8v.9h-1.8Z" transform="translate(-7.125 -29.266)" fill="#a4afc1"/>
        </g>
        <g id="Group_35484" data-name="Group 35484" transform="translate(5.185 0)">
          <path id="Path_27780" data-name="Path 27780" d="M12.875,29.266h1.8v.9h-1.8Z" transform="translate(-12.875 -29.266)" fill="#a4afc1"/>
        </g>
        <g id="Group_35485" data-name="Group 35485" transform="translate(2.931 2.254)">
          <path id="Path_27781" data-name="Path 27781" d="M10.375,31.766h.9v1.8h-.9Z" transform="translate(-10.375 -31.766)" fill="#a4afc1"/>
        </g>
      </g>
      <g id="Group_35487" data-name="Group 35487" transform="translate(20.516)">
        <path id="Path_27782" data-name="Path 27782" d="M30.853,7.205a1.353,1.353,0,1,1,1.353-1.353A1.354,1.354,0,0,1,30.853,7.205Zm0-1.8a.451.451,0,1,0,.451.451A.451.451,0,0,0,30.853,5.4Z" transform="translate(-29.5 -4.5)" fill="#a4afc1"/>
      </g>
    </g>
    <g id="line" transform="translate(5.454 6.427)">
      <g id="Group_35488" data-name="Group 35488" transform="translate(7.665 4.509)">
        <path id="Path_27783" data-name="Path 27783" d="M19.46,21.92a4.96,4.96,0,1,1,4.96-4.96A4.966,4.966,0,0,1,19.46,21.92Zm0-8.567a3.607,3.607,0,1,0,3.607,3.607A3.611,3.611,0,0,0,19.46,13.353Z" transform="translate(-14.5 -12)"/>
      </g>
      <g id="Group_35489" data-name="Group 35489" transform="translate(11.949 5.185)">
        <path id="Path_27784" data-name="Path 27784" d="M19.25,12.75H20.6v1.8H19.25Z" transform="translate(-19.25 -12.75)"/>
      </g>
      <g id="Group_35490" data-name="Group 35490" transform="translate(11.949 11.949)">
        <path id="Path_27785" data-name="Path 27785" d="M19.25,20.25H20.6v1.8H19.25Z" transform="translate(-19.25 -20.25)"/>
      </g>
      <g id="Group_35491" data-name="Group 35491" transform="translate(8.342 8.792)">
        <path id="Path_27786" data-name="Path 27786" d="M15.25,16.75h1.8V18.1h-1.8Z" transform="translate(-15.25 -16.75)"/>
      </g>
      <g id="Group_35492" data-name="Group 35492" transform="translate(15.105 8.792)">
        <path id="Path_27787" data-name="Path 27787" d="M22.75,16.75h1.8V18.1h-1.8Z" transform="translate(-22.75 -16.75)"/>
      </g>
      <g id="Group_35493" data-name="Group 35493" transform="translate(3.607 17.359)">
        <path id="Path_27788" data-name="Path 27788" d="M10,26.25h1.353v1.8H10Z" transform="translate(-10 -26.25)"/>
      </g>
      <g id="Group_35494" data-name="Group 35494" transform="translate(16.683 17.359)">
        <path id="Path_27789" data-name="Path 27789" d="M24.5,26.25h1.353v1.8H24.5Z" transform="translate(-24.5 -26.25)"/>
      </g>
      <g id="Group_35495" data-name="Group 35495">
        <path id="Path_27790" data-name="Path 27790" d="M25.163,25.036H8.48A2.482,2.482,0,0,1,6,22.556V9.48A2.483,2.483,0,0,1,8.48,7H25.163a2.483,2.483,0,0,1,2.48,2.48V22.556A2.483,2.483,0,0,1,25.163,25.036ZM8.48,8.353A1.128,1.128,0,0,0,7.353,9.48V22.556A1.129,1.129,0,0,0,8.48,23.683H25.163a1.129,1.129,0,0,0,1.127-1.127V9.48a1.129,1.129,0,0,0-1.127-1.127Z" transform="translate(-6 -7)"/>
      </g>
      <g id="Group_35496" data-name="Group 35496" transform="translate(3.156 5.185)">
        <path id="Path_27791" data-name="Path 27791" d="M9.5,12.75h1.353V15H9.5Z" transform="translate(-9.5 -12.75)"/>
      </g>
      <g id="Group_35497" data-name="Group 35497" transform="translate(3.156 11.498)">
        <path id="Path_27792" data-name="Path 27792" d="M9.5,19.75h1.353V22H9.5Z" transform="translate(-9.5 -19.75)"/>
      </g>
    </g>
  </g>
</svg>
