<svg xmlns="http://www.w3.org/2000/svg" width="17.604" height="17.409" viewBox="0 0 17.604 17.409"><defs><style>.a{fill:#007c3d;}</style></defs><g transform="translate(-0.529 -0.571)"><g transform="translate(0.529 0.571)"><path class="a" d="M4.753.571a2.433,2.433,0,0,0-2.335,1.8H1.161a.629.629,0,1,0,0,1.258H2.416a2.416,2.416,0,0,0,4.665.031l10.425-.031a.629.629,0,0,0,0-1.258L7.1,2.4A2.436,2.436,0,0,0,4.753.571Zm0,1.258A1.172,1.172,0,1,1,3.581,3,1.162,1.162,0,0,1,4.753,1.828ZM11.47,6.647A2.465,2.465,0,0,0,9.1,8.477H1.161a.629.629,0,1,0,0,1.258H9.1a2.446,2.446,0,0,0,4.735,0h3.668a.629.629,0,0,0,0-1.258H13.839a2.465,2.465,0,0,0-2.369-1.83Zm0,1.258a1.2,1.2,0,1,1-1.2,1.2A1.191,1.191,0,0,1,11.47,7.9ZM6.584,13.057a2.468,2.468,0,0,0-2.369,1.83H1.161a.629.629,0,1,0,0,1.258H4.214a2.447,2.447,0,0,0,4.739,0h8.553a.629.629,0,0,0,0-1.258H8.951a2.467,2.467,0,0,0-2.368-1.83Zm0,1.258a1.2,1.2,0,1,1-1.2,1.2A1.194,1.194,0,0,1,6.584,14.315Z" transform="translate(-0.529 -0.571)"/></g></g></svg>