<svg xmlns="http://www.w3.org/2000/svg" width="20" height="16.923" viewBox="0 0 20 16.923"><defs><style>.a{fill:#fff;}</style></defs><g transform="translate(-3 -5)"><path class="a" d="M22.231,6.538H11.462A1.54,1.54,0,0,0,9.923,5H8.385A1.54,1.54,0,0,0,6.846,6.538H3.769a.769.769,0,1,0,0,1.538H6.846A1.54,1.54,0,0,0,8.385,9.615H9.923a1.54,1.54,0,0,0,1.538-1.538H22.231a.769.769,0,1,0,0-1.538ZM8.385,8.077V6.538H9.923V7.3s0,0,0,0,0,0,0,0v.766Z" transform="translate(0 0)"/><path class="a" d="M22.231,14.538H17.615A1.54,1.54,0,0,0,16.077,13H14.538A1.54,1.54,0,0,0,13,14.538H3.769a.769.769,0,0,0,0,1.538H13a1.54,1.54,0,0,0,1.538,1.538h1.538a1.54,1.54,0,0,0,1.538-1.538h4.615a.769.769,0,1,0,0-1.538Zm-7.692,1.538V14.538h1.538V15.3s0,0,0,0,0,0,0,0v.766Z" transform="translate(0 -1.846)"/><path class="a" d="M22.231,22.538H11.462A1.54,1.54,0,0,0,9.923,21H8.385a1.54,1.54,0,0,0-1.538,1.538H3.769a.769.769,0,0,0,0,1.538H6.846a1.54,1.54,0,0,0,1.538,1.538H9.923a1.54,1.54,0,0,0,1.538-1.538H22.231a.769.769,0,0,0,0-1.538ZM8.385,24.077V22.538H9.923V23.3s0,0,0,0,0,0,0,0v.766Z" transform="translate(0 -3.692)"/></g></svg>