<svg xmlns="http://www.w3.org/2000/svg" width="56.585" height="40.145" viewBox="0 0 56.585 40.145">
  <g id="financial" transform="translate(-2.4 -16.4)">
    <g id="Group_39910" data-name="Group 39910" transform="translate(2.4 16.4)">
      <path id="Path_43879" data-name="Path 43879" d="M47.489,16.4c-5.718,0-11.555,1.608-11.555,4.705V33.435c-.655-.06-1.37-.06-2.085-.06a26.357,26.357,0,0,0-6.731.834,13.811,13.811,0,1,0-3.336,20.013c2.085,1.489,6.075,2.323,10.066,2.323,4.884,0,9.768-1.191,11.138-3.4.834.06,1.608.119,2.442.119,5.718,0,11.555-1.608,11.555-4.765V21.165C59.044,18.068,53.267,16.4,47.489,16.4ZM4.663,42.608A11.615,11.615,0,1,1,16.278,54.222,11.592,11.592,0,0,1,4.663,42.608Zm38.6,9.054c0,.774-3.157,2.561-9.351,2.561-4.11,0-6.85-.774-8.279-1.549a12.89,12.89,0,0,0,2.8-3.633,26.722,26.722,0,0,0,5.48.536c3.574,0,7.148-.655,9.351-1.846Zm0-6.79c0,.774-3.157,2.561-9.351,2.561a25.141,25.141,0,0,1-4.586-.357,13.794,13.794,0,0,0,.774-4.467v-.06a27.537,27.537,0,0,0,3.872.3c3.574,0,7.148-.655,9.351-1.846v3.872Zm-9.351-4.229a26.227,26.227,0,0,1-4.05-.3,13.155,13.155,0,0,0-1.43-4.229,22.928,22.928,0,0,1,5.48-.6c6.195,0,9.351,1.787,9.351,2.561S40.1,40.642,33.909,40.642ZM56.84,48.385c0,.774-3.157,2.561-9.351,2.561-.715,0-1.43-.06-2.085-.06V46.241c.655.06,1.37.06,2.085.06,3.574,0,7.148-.655,9.351-1.846Zm0-6.85c0,.774-3.157,2.561-9.351,2.561-.715,0-1.43-.06-2.085-.06V39.391c.655.06,1.37.06,2.085.06,3.574,0,7.148-.655,9.351-1.846Zm0-6.79c0,.774-3.157,2.561-9.351,2.561-.774,0-1.549-.06-2.263-.119-.655-1.846-3.574-3.038-7.148-3.574v-2.8c2.2,1.251,5.778,1.846,9.351,1.846s7.148-.655,9.351-1.846v3.931Zm0-6.79c0,.774-3.157,2.561-9.351,2.561s-9.351-1.787-9.351-2.561V24.024c2.2,1.251,5.778,1.846,9.351,1.846s7.148-.655,9.351-1.846Zm-9.351-4.229c-6.195,0-9.351-1.787-9.351-2.561S41.294,18.6,47.489,18.6s9.351,1.787,9.351,2.561S53.683,23.726,47.489,23.726Z" transform="translate(-2.4 -16.4)" fill="#007c3d"/>
      <path id="Union_24" data-name="Union 24" d="M5.963,13.965,2.52,9.339a5.032,5.032,0,0,0-.933-1.021,1.234,1.234,0,0,0-.758-.275H.53V6.037H1.946a6.869,6.869,0,0,0,1.08-.083,3.02,3.02,0,0,0,.888-.278,1.813,1.813,0,0,0,.626-.518,1.378,1.378,0,0,0,.234-.508H0L.873,2.913H4.647a1.935,1.935,0,0,0-.123-.252,1.832,1.832,0,0,0-.4-.477,1.74,1.74,0,0,0-.57-.314,2.8,2.8,0,0,0-.778-.133H0L.873,0H9.858L8.985,1.737H6.629a3.378,3.378,0,0,1,.2.384,3.73,3.73,0,0,1,.242.792H9.858L8.985,4.65H7.091a3.693,3.693,0,0,1-.343,1.044A4,4,0,0,1,6,6.72a4.252,4.252,0,0,1-1.018.742,5.757,5.757,0,0,1-.739.324l4.632,6.179ZM.829,7.74a1.533,1.533,0,0,1,.937.335,5.291,5.291,0,0,1,.994,1.083l3.352,4.5h0l-3.352-4.5a5.291,5.291,0,0,0-.994-1.083A1.533,1.533,0,0,0,.829,7.74ZM6.482,5.555A3.685,3.685,0,0,1,5.79,6.5a3.938,3.938,0,0,1-.947.69,5.381,5.381,0,0,1-1.1.431,5.381,5.381,0,0,0,1.1-.431A3.938,3.938,0,0,0,5.79,6.5a3.685,3.685,0,0,0,.691-.949,3.488,3.488,0,0,0,.35-1.207H8.8l.568-1.131L8.8,4.347H6.832A3.488,3.488,0,0,1,6.482,5.555ZM.488,4.347h0ZM5.052,3.216a2.216,2.216,0,0,0-.739-1.265A2.461,2.461,0,0,0,2.78,1.434h0a2.461,2.461,0,0,1,1.534.517A2.216,2.216,0,0,1,5.052,3.216ZM8.8,1.434,9.369.3,8.8,1.434h0Z" transform="translate(8.919 20.073)" fill="#007c3d"/>
    </g>
  </g>
</svg>
