<svg xmlns="http://www.w3.org/2000/svg" xmlns:xlink="http://www.w3.org/1999/xlink" x="0px" y="0px" viewBox="0 0 24 24"
  style="enable-background:new 0 0 24 24;" xml:space="preserve">
  <path d="M18.8,3.2c-0.1,0-0.2,0-0.3-0.1c-2-1.1-4.2-1.7-6.5-1.6c-2.3,0-4.5,0.6-6.5,1.6C5.2,3.3,4.9,3.2,4.7,2.9
										C4.6,2.7,4.7,2.3,5,2.1c4.4-2.4,9.7-2.4,14.1,0c0.3,0.2,0.4,0.5,0.2,0.8C19.2,3.1,19,3.2,18.8,3.2z M2.1,9.3c-0.1,0-0.2,0-0.3-0.1
										C1.5,9.1,1.4,8.7,1.6,8.4c0,0,0,0,0,0C2.8,6.8,4.3,5.5,6,4.6c3.8-1.9,8.2-1.9,12,0c1.7,0.9,3.2,2.2,4.4,3.8c0.2,0.3,0.1,0.6-0.1,0.8
										c-0.3,0.2-0.6,0.1-0.8-0.1l0,0c-1-1.4-2.4-2.6-3.9-3.4C14,3.9,10,3.9,6.5,5.7c-1.6,0.8-2.9,2-4,3.4C2.5,9.3,2.3,9.4,2.1,9.3z
										M9.4,23.4c-0.2,0-0.3-0.1-0.4-0.2c-0.9-0.9-1.7-1.9-2.3-3.1c-0.8-1.6-1.3-3.3-1.2-5c0.1-3.5,3-6.4,6.6-6.3c3.5-0.1,6.5,2.7,6.6,6.3
										c0,0.3-0.3,0.6-0.6,0.6c-0.3,0-0.6-0.3-0.6-0.6c-0.1-2.9-2.5-5.2-5.4-5.1c-2.9-0.1-5.3,2.2-5.4,5.1c0,1.6,0.3,3.1,1.1,4.5
										c0.6,1,1.3,2,2.2,2.8c0.2,0.2,0.2,0.6,0,0.8C9.7,23.3,9.5,23.4,9.4,23.4z M15.4,23.6c-0.1,0-0.1,0-0.2,0c-1.6-0.4-3.1-1.2-4.3-2.4
										c-1.6-1.6-2.5-3.8-2.5-6.1c0-1.9,1.7-3.5,3.6-3.4c1.9,0,3.5,1.5,3.6,3.4c0.1,1.3,1.3,2.3,2.6,2.3c1.2-0.1,2.2-1,2.3-2.3
										C20.2,10.6,16.5,7,12,7.1c-3.2,0-6.2,1.8-7.7,4.7c-0.5,1-0.7,2.1-0.7,3.3c0,1.4,0.3,2.9,0.8,4.2c0.1,0.3,0,0.6-0.3,0.7c0,0,0,0,0,0
										c-0.3,0.1-0.6,0-0.7-0.3c-0.6-1.5-0.8-3-0.8-4.6c0-1.3,0.3-2.6,0.8-3.8C4.9,8,8.3,5.9,12,6c5.2-0.1,9.5,3.9,9.6,9.1
										c-0.1,2-1.8,3.5-3.7,3.4c-1.9-0.1-3.3-1.6-3.4-3.4c0-1.3-1.1-2.3-2.4-2.3c-1.3,0-2.4,1-2.4,2.3c0,2,0.8,3.9,2.2,5.2
										c1,1.1,2.4,1.8,3.8,2.2c0.3,0.1,0.5,0.4,0.4,0.7C15.9,23.4,15.6,23.6,15.4,23.6z" />
  <path style="opacity:0" d="M-2-2H26V26H-2V-2z" />
  <path d="M17.7,21.2c-1.3,0-2.5-0.3-3.6-1c-1.7-1.1-2.8-3.1-2.8-5.1c0-0.3,0.3-0.6,0.6-0.6s0.6,0.3,0.6,0.6
										c0,1.7,0.9,3.2,2.3,4.1c0.9,0.6,1.9,0.9,3,0.8c0.4,0,0.8,0,1.2-0.1c0.3-0.1,0.6,0.2,0.7,0.5c0.1,0.3-0.2,0.6-0.5,0.7
										C18.7,21.2,18.2,21.2,17.7,21.2z" />
</svg>