<svg xmlns="http://www.w3.org/2000/svg" width="23.525" height="25.086" viewBox="0 0 23.525 25.086"><defs><style>.a{fill:#007c3d;}</style></defs><g transform="translate(-15.937)"><g transform="translate(15.937)"><circle class="a" cx="1" cy="1" r="1" transform="translate(12.19 16)"/><path class="a" d="M32.057,23.126h-12.2a1.962,1.962,0,0,1-1.96-1.96V13.131a1.962,1.962,0,0,1,1.96-1.96H33.968a2,2,0,0,1,.541.06.98.98,0,0,0,.54-1.884,3.894,3.894,0,0,0-1.081-.136H32.79V5.755a5.881,5.881,0,0,0-11.759,0V9.211H19.857a3.924,3.924,0,0,0-3.92,3.92v8.035a3.924,3.924,0,0,0,3.92,3.92h12.2a.98.98,0,0,0,0-1.96ZM22.991,5.755a3.922,3.922,0,0,1,7.84,0V9.211h-7.84Z" transform="translate(-15.937)"/><circle class="a" cx="1" cy="1" r="1" transform="translate(8.19 16)"/><path class="a" d="M360.96,264.44a3.48,3.48,0,0,0-6.96.04.98.98,0,1,0,1.96,0,1.52,1.52,0,0,1,3.04,0c0,.009,0,.018,0,.027a1.52,1.52,0,0,1-.924,1.374,2.606,2.606,0,0,0-1.576,2.406v.847a.98.98,0,0,0,1.96,0v-.847a.649.649,0,0,1,.386-.6,3.477,3.477,0,0,0,2.115-3.2C360.961,264.466,360.96,264.453,360.96,264.44Z" transform="translate(-337.436 -248.212)"/><circle class="a" cx="1" cy="1" r="1" transform="translate(19.19 23)"/><circle class="a" cx="1" cy="1" r="1" transform="translate(4.19 16)"/></g></g></svg>