<svg xmlns="http://www.w3.org/2000/svg" xmlns:xlink="http://www.w3.org/1999/xlink" width="35" height="105" viewBox="0 0 35 105">
  <defs>
    <clipPath id="clip-fund-transfer">
      <rect width="35" height="105"/>
    </clipPath>
  </defs>
  <g id="fund-transfer" clip-path="url(#clip-fund-transfer)">
    <g id="Group_39969" data-name="Group 39969" opacity="0">
      <rect id="Rectangle_18672" data-name="Rectangle 18672" width="35" height="35" transform="translate(0 35)" fill="#fff"/>
      <g id="Group_39968" data-name="Group 39968">
        <rect id="Rectangle_18669" data-name="Rectangle 18669" width="35" height="35" fill="#fff"/>
        <rect id="Rectangle_18670" data-name="Rectangle 18670" width="31" height="31" transform="translate(2 2)" fill="#bcbcbc"/>
      </g>
      <g id="Group_39967" data-name="Group 39967">
        <rect id="Rectangle_18673" data-name="Rectangle 18673" width="35" height="35" transform="translate(0 70)" fill="#fff"/>
        <rect id="Rectangle_18674" data-name="Rectangle 18674" width="31" height="31" transform="translate(2 72)" fill="#bcbcbc"/>
      </g>
      <rect id="Rectangle_18684" data-name="Rectangle 18684" width="31" height="31" transform="translate(2 37)" fill="#bcbcbc"/>
    </g>
    <g id="send-money-green" transform="translate(2.6 2.6)">
      <path id="Path_19955" data-name="Path 19955" d="M61.692,270.252a.9.9,0,0,1-.763-1.371,9,9,0,0,0,1.346-4.747V253.3a2.6,2.6,0,0,0-1.854,2.486V262.5l-1.484-1.277a2.735,2.735,0,0,0-2.152-.731c-2.155,0-4.463,1.576-4.463,3.922a.9.9,0,1,1-1.8,0,5.409,5.409,0,0,1,1.973-4.14,6.682,6.682,0,0,1,4.286-1.579,5.421,5.421,0,0,1,1.84.263v-3.175a4.394,4.394,0,0,1,4.389-4.389h1.058v12.734a10.8,10.8,0,0,1-1.615,5.693A.9.9,0,0,1,61.692,270.252Z" transform="translate(-39.147 -242.874)" fill="#007c3d"/>
      <path id="Path_19956" data-name="Path 19956" d="M45.112,270.672a.9.9,0,0,1-.8-.5A8.629,8.629,0,0,1,43.4,266.3v-5.95a.9.9,0,1,1,1.8,0v5.95a6.849,6.849,0,0,0,.719,3.075.9.9,0,0,1-.8,1.3Z" transform="translate(-38.524 -243.577)" fill="#007c3d"/>
      <path id="Path_19957" data-name="Path 19957" d="M62.551,274.934a.9.9,0,0,1-.9-.9V272.2H45.2v1.84a.9.9,0,1,1-1.8,0V270.4H63.449v3.636A.9.9,0,0,1,62.551,274.934Z" transform="translate(-38.524 -244.534)" fill="#007c3d"/>
      <path id="Path_19958" data-name="Path 19958" d="M67.5,259.623H62.026a.9.9,0,0,1,0-1.8H66.6V243.2H39.2v14.631h19.18a.9.9,0,0,1,0,1.8H38.3a.9.9,0,0,1-.9-.9V242.3a.9.9,0,0,1,.9-.9H67.5a.9.9,0,0,1,.9.9v16.427A.9.9,0,0,1,67.5,259.623Z" transform="translate(-38 -242)" fill="#007c3d"/>
      <path id="Ellipse_2276" data-name="Ellipse 2276" d="M5.317-.6A5.917,5.917,0,1,1-.6,5.317,5.924,5.924,0,0,1,5.317-.6Zm0,10.039A4.121,4.121,0,1,0,1.2,5.317,4.126,4.126,0,0,0,5.317,9.439Z" transform="translate(9.126 3.65)" fill="#007c3d"/>
      <path id="Path_19959" data-name="Path 19959" d="M67.884,248.109a3.834,3.834,0,0,1-3.849-3.811.9.9,0,1,1,1.8,0,2.036,2.036,0,0,0,2.052,2.015.9.9,0,0,1,0,1.8Z" transform="translate(-40.327 -242.175)" fill="#007c3d"/>
      <path id="Path_19960" data-name="Path 19960" d="M43.272,258.837a.9.9,0,0,1-.9-.9A2.06,2.06,0,0,0,40.3,255.9a.9.9,0,1,1,0-1.8,3.858,3.858,0,0,1,3.872,3.835A.9.9,0,0,1,43.272,258.837Z" transform="translate(-38.175 -243.11)" fill="#007c3d"/>
      <path id="Path_19961" data-name="Path 19961" d="M40.3,248.109a.9.9,0,0,1,0-1.8,2.036,2.036,0,0,0,2.052-2.015.9.9,0,1,1,1.8,0A3.834,3.834,0,0,1,40.3,248.109Z" transform="translate(-38.175 -242.175)" fill="#007c3d"/>
      <path id="Path_19962" data-name="Path 19962" d="M64.907,258.837a.9.9,0,0,1-.9-.9,3.858,3.858,0,0,1,3.872-3.835.9.9,0,1,1,0,1.8,2.06,2.06,0,0,0-2.076,2.039A.9.9,0,0,1,64.907,258.837Z" transform="translate(-40.325 -243.11)" fill="#007c3d"/>
    </g>
    <g id="send-money-green-2" data-name="send-money-green" transform="translate(2.6 37.6)">
      <path id="Path_19955-2" data-name="Path 19955" d="M61.692,270.252a.9.9,0,0,1-.763-1.371,9,9,0,0,0,1.346-4.747V253.3a2.6,2.6,0,0,0-1.854,2.486V262.5l-1.484-1.277a2.735,2.735,0,0,0-2.152-.731c-2.155,0-4.463,1.576-4.463,3.922a.9.9,0,1,1-1.8,0,5.409,5.409,0,0,1,1.973-4.14,6.682,6.682,0,0,1,4.286-1.579,5.421,5.421,0,0,1,1.84.263v-3.175a4.394,4.394,0,0,1,4.389-4.389h1.058v12.734a10.8,10.8,0,0,1-1.615,5.693A.9.9,0,0,1,61.692,270.252Z" transform="translate(-39.147 -242.874)" fill="#fff200"/>
      <path id="Path_19956-2" data-name="Path 19956" d="M45.112,270.672a.9.9,0,0,1-.8-.5A8.629,8.629,0,0,1,43.4,266.3v-5.95a.9.9,0,1,1,1.8,0v5.95a6.849,6.849,0,0,0,.719,3.075.9.9,0,0,1-.8,1.3Z" transform="translate(-38.524 -243.577)" fill="#fff200"/>
      <path id="Path_19957-2" data-name="Path 19957" d="M62.551,274.934a.9.9,0,0,1-.9-.9V272.2H45.2v1.84a.9.9,0,1,1-1.8,0V270.4H63.449v3.636A.9.9,0,0,1,62.551,274.934Z" transform="translate(-38.524 -244.534)" fill="#fff200"/>
      <path id="Path_19958-2" data-name="Path 19958" d="M67.5,259.623H62.026a.9.9,0,0,1,0-1.8H66.6V243.2H39.2v14.631h19.18a.9.9,0,0,1,0,1.8H38.3a.9.9,0,0,1-.9-.9V242.3a.9.9,0,0,1,.9-.9H67.5a.9.9,0,0,1,.9.9v16.427A.9.9,0,0,1,67.5,259.623Z" transform="translate(-38 -242)" fill="#fff200"/>
      <path id="Ellipse_2276-2" data-name="Ellipse 2276" d="M5.317-.6A5.917,5.917,0,1,1-.6,5.317,5.924,5.924,0,0,1,5.317-.6Zm0,10.039A4.121,4.121,0,1,0,1.2,5.317,4.126,4.126,0,0,0,5.317,9.439Z" transform="translate(9.126 3.65)" fill="#fff200"/>
      <path id="Path_19959-2" data-name="Path 19959" d="M67.884,248.109a3.834,3.834,0,0,1-3.849-3.811.9.9,0,1,1,1.8,0,2.036,2.036,0,0,0,2.052,2.015.9.9,0,0,1,0,1.8Z" transform="translate(-40.327 -242.175)" fill="#fff200"/>
      <path id="Path_19960-2" data-name="Path 19960" d="M43.272,258.837a.9.9,0,0,1-.9-.9A2.06,2.06,0,0,0,40.3,255.9a.9.9,0,1,1,0-1.8,3.858,3.858,0,0,1,3.872,3.835A.9.9,0,0,1,43.272,258.837Z" transform="translate(-38.175 -243.11)" fill="#fff200"/>
      <path id="Path_19961-2" data-name="Path 19961" d="M40.3,248.109a.9.9,0,0,1,0-1.8,2.036,2.036,0,0,0,2.052-2.015.9.9,0,1,1,1.8,0A3.834,3.834,0,0,1,40.3,248.109Z" transform="translate(-38.175 -242.175)" fill="#fff200"/>
      <path id="Path_19962-2" data-name="Path 19962" d="M64.907,258.837a.9.9,0,0,1-.9-.9,3.858,3.858,0,0,1,3.872-3.835.9.9,0,1,1,0,1.8,2.06,2.06,0,0,0-2.076,2.039A.9.9,0,0,1,64.907,258.837Z" transform="translate(-40.325 -243.11)" fill="#fff200"/>
    </g>
    <g id="send-money-green-3" data-name="send-money-green" transform="translate(2.6 72.6)">
      <path id="Path_19955-3" data-name="Path 19955" d="M61.692,270.252a.9.9,0,0,1-.763-1.371,9,9,0,0,0,1.346-4.747V253.3a2.6,2.6,0,0,0-1.854,2.486V262.5l-1.484-1.277a2.735,2.735,0,0,0-2.152-.731c-2.155,0-4.463,1.576-4.463,3.922a.9.9,0,1,1-1.8,0,5.409,5.409,0,0,1,1.973-4.14,6.682,6.682,0,0,1,4.286-1.579,5.421,5.421,0,0,1,1.84.263v-3.175a4.394,4.394,0,0,1,4.389-4.389h1.058v12.734a10.8,10.8,0,0,1-1.615,5.693A.9.9,0,0,1,61.692,270.252Z" transform="translate(-39.147 -242.874)" fill="#fff"/>
      <path id="Path_19956-3" data-name="Path 19956" d="M45.112,270.672a.9.9,0,0,1-.8-.5A8.629,8.629,0,0,1,43.4,266.3v-5.95a.9.9,0,1,1,1.8,0v5.95a6.849,6.849,0,0,0,.719,3.075.9.9,0,0,1-.8,1.3Z" transform="translate(-38.524 -243.577)" fill="#fff"/>
      <path id="Path_19957-3" data-name="Path 19957" d="M62.551,274.934a.9.9,0,0,1-.9-.9V272.2H45.2v1.84a.9.9,0,1,1-1.8,0V270.4H63.449v3.636A.9.9,0,0,1,62.551,274.934Z" transform="translate(-38.524 -244.534)" fill="#fff"/>
      <path id="Path_19958-3" data-name="Path 19958" d="M67.5,259.623H62.026a.9.9,0,0,1,0-1.8H66.6V243.2H39.2v14.631h19.18a.9.9,0,0,1,0,1.8H38.3a.9.9,0,0,1-.9-.9V242.3a.9.9,0,0,1,.9-.9H67.5a.9.9,0,0,1,.9.9v16.427A.9.9,0,0,1,67.5,259.623Z" transform="translate(-38 -242)" fill="#fff"/>
      <path id="Ellipse_2276-3" data-name="Ellipse 2276" d="M5.317-.6A5.917,5.917,0,1,1-.6,5.317,5.924,5.924,0,0,1,5.317-.6Zm0,10.039A4.121,4.121,0,1,0,1.2,5.317,4.126,4.126,0,0,0,5.317,9.439Z" transform="translate(9.126 3.65)" fill="#fff"/>
      <path id="Path_19959-3" data-name="Path 19959" d="M67.884,248.109a3.834,3.834,0,0,1-3.849-3.811.9.9,0,1,1,1.8,0,2.036,2.036,0,0,0,2.052,2.015.9.9,0,0,1,0,1.8Z" transform="translate(-40.327 -242.175)" fill="#fff"/>
      <path id="Path_19960-3" data-name="Path 19960" d="M43.272,258.837a.9.9,0,0,1-.9-.9A2.06,2.06,0,0,0,40.3,255.9a.9.9,0,1,1,0-1.8,3.858,3.858,0,0,1,3.872,3.835A.9.9,0,0,1,43.272,258.837Z" transform="translate(-38.175 -243.11)" fill="#fff"/>
      <path id="Path_19961-3" data-name="Path 19961" d="M40.3,248.109a.9.9,0,0,1,0-1.8,2.036,2.036,0,0,0,2.052-2.015.9.9,0,1,1,1.8,0A3.834,3.834,0,0,1,40.3,248.109Z" transform="translate(-38.175 -242.175)" fill="#fff"/>
      <path id="Path_19962-3" data-name="Path 19962" d="M64.907,258.837a.9.9,0,0,1-.9-.9,3.858,3.858,0,0,1,3.872-3.835.9.9,0,1,1,0,1.8,2.06,2.06,0,0,0-2.076,2.039A.9.9,0,0,1,64.907,258.837Z" transform="translate(-40.325 -243.11)" fill="#fff"/>
    </g>
  </g>
</svg>
