<?xml version="1.0" encoding="utf-8"?>
<!-- Generator: Adobe Illustrator 23.0.1, SVG Export Plug-In . SVG Version: 6.00 Build 0)  -->
<svg version="1.1" id="Layer_1" xmlns:svgjs="http://svgjs.com/svgjs"
	 xmlns="http://www.w3.org/2000/svg" xmlns:xlink="http://www.w3.org/1999/xlink" x="0px" y="0px" viewBox="0 0 512 512"
	 style="enable-background:new 0 0 512 512;" xml:space="preserve">
<style type="text/css">
	.st0{fill:#007C3D;}
</style>
<g>
	<path class="st0" d="M491.9,0.8h-472c-11,0-20,9-20,20v472c0,11,9,20,20,20h472c11,0,20-9,20-20v-472C511.9,9.7,503,0.8,491.9,0.8z
		 M471.9,472.8h-432v-73.7l140-140l263.7,250.7C451.5,517.6,471.9,480.2,471.9,472.8c-5.9,6.2-11.7,5.7-2.8,9.2l-143-133.2
		l49.7-49.7l96,96V472.8z M471.9,338.5l-81.9-81.9c-7.8-7.8-20.5-7.8-28.3,0l-63.9,63.9L194.1,216.6c-7.8-7.8-20.5-7.8-28.3,0
		L39.9,342.5V40.8h432V338.5z M295.9,226c30.1,0,54.6-24.5,54.6-54.6c0-30.1-24.5-54.6-54.6-54.6s-54.6,24.5-54.6,54.6
		S265.8,226,295.9,226z M294,156.9c9.5-1.2,17.6,6.8,16.4,16.4c-0.8,6.5-6.1,11.7-12.6,12.6c-9.5,1.2-17.6-6.8-16.4-16.4
		C282.3,163,287.5,157.7,294,156.9z"/>
</g>
</svg>
