<?xml version="1.0" encoding="utf-8"?>
<!-- Generator: Adobe Illustrator 23.0.1, SVG Export Plug-In . SVG Version: 6.00 Build 0)  -->
<svg version="1.1" id="Layer_1" xmlns="http://www.w3.org/2000/svg" xmlns:xlink="http://www.w3.org/1999/xlink" x="0px" y="0px"
	 viewBox="0 0 16 16" style="enable-background:new 0 0 16 16;" xml:space="preserve">
<style type="text/css">
	.st0{fill:#026A35;fill-opacity:0;}
	.st1{fill:#007C3D;}
</style>
<g transform="translate(54.6 119.6)">
	<rect x="-57.9" y="-122.9" class="st0" width="22.7" height="22.7"/>
	<g transform="translate(6.086 4.446)">
		<path class="st1" d="M-46.9-113.8L-46.9-113.8l0-2.8h0c0.3,0,0.5-0.2,0.5-0.5c0-0.3-0.3-0.5-0.5-0.5h0v-1.1
			c-0.1-1-0.9-1.7-1.9-1.7H-49v-2.8h0.5c0.3,0,0.5-0.2,0.5-0.5c0-0.3-0.3-0.5-0.5-0.5h-8.6c-0.3,0-0.5,0.2-0.5,0.5
			c0,0.3,0.3,0.5,0.5,0.5h0.5v2.8h-0.2c-1-0.1-1.8,0.7-1.9,1.7v1.1h0c-0.3,0-0.5,0.2-0.5,0.5c0,0.3,0.3,0.5,0.5,0.5h0v2.8h-0.1
			c-0.3,0-0.5,0.1-0.5,0.4c0,0.3,0.1,0.5,0.4,0.5c0,0,0.1,0,0.1,0h0v1.1c0,0.7,0.4,1.2,1.1,1.5v1.6c0,0.3,0.3,0.5,0.5,0.5h8.6
			c0.3,0,0.5-0.2,0.5-0.5v-1.6c0.6-0.2,1-0.8,1.1-1.5v-1.1h0c0.3,0,0.5-0.1,0.5-0.4c0-0.3-0.1-0.5-0.4-0.5
			C-46.8-113.8-46.8-113.8-46.9-113.8L-46.9-113.8z M-55.5-123h5.3v2.8h-1.1v-0.5c-0.1-0.9-1-1.5-1.8-1.4c-0.7,0.1-1.3,0.7-1.4,1.4
			v0.5h-1.1V-123z M-52.2-120.2h-1.1v-0.5c0-0.3,0.3-0.5,0.6-0.5c0.2,0,0.4,0.2,0.5,0.5L-52.2-120.2z M-57.6-118.6
			c0-0.4,0.4-0.8,0.9-0.7h7.9c0.4,0,0.8,0.3,0.9,0.7v1.1h-9.6L-57.6-118.6L-57.6-118.6z M-57.6-116.5h9.6v2.8h-9.6L-57.6-116.5z
			 M-49-109.2h-7.5v-0.9h7.5V-109.2z M-48-111.7c0,0.4-0.4,0.8-0.9,0.7h-7.9c-0.4,0-0.8-0.3-0.9-0.7v-1.1h9.6V-111.7z"/>
	</g>
</g>
</svg>
