<svg xmlns="http://www.w3.org/2000/svg" width="34.805" height="54" viewBox="0 0 34.805 54"><defs><style>.a{fill:#fff;}</style></defs><g transform="translate(0)"><path class="a" d="M119.476,12.921V9.22A4.746,4.746,0,0,0,117.894,0H98.91a4.746,4.746,0,0,0-1.582,9.22v3.7A7.923,7.923,0,0,0,91,20.672V42.82a7.942,7.942,0,0,0,3.164,6.328v1.687A3.168,3.168,0,0,0,97.328,54h22.148a3.168,3.168,0,0,0,3.164-3.164V49.148A7.942,7.942,0,0,0,125.8,42.82V20.672A7.924,7.924,0,0,0,119.476,12.921ZM98.91,3.164h18.984a1.582,1.582,0,0,1,0,3.164H98.91a1.582,1.582,0,0,1,0-3.164Zm17.4,6.328v3.27h-3.164V9.492Zm-6.328,0v3.27H106.82V9.492Zm-6.328,0v3.27h-3.164V9.492ZM98.91,15.926h18.984a4.754,4.754,0,0,1,4.474,3.164H94.436A4.754,4.754,0,0,1,98.91,15.926Zm21.356,30.986a1.582,1.582,0,0,0-.79,1.369v2.534H97.328V48.281a1.582,1.582,0,0,0-.79-1.369,4.767,4.767,0,0,1-2.1-2.53h27.927A4.766,4.766,0,0,1,120.266,46.911Zm2.374-5.673H94.164V22.254h28.476Z" transform="translate(-91)"/></g><g transform="translate(12.163 24.61)"><g transform="translate(0)"><path class="a" d="M219.5,244.645c-.9-1.547-1.783-2.832-1.82-2.886a1.747,1.747,0,0,0-2.874,0c-.037.054-.923,1.339-1.82,2.886-1.777,3.063-1.982,4.373-1.982,5.093a5.239,5.239,0,0,0,10.479,0C221.479,249.018,221.273,247.708,219.5,244.645Zm-3.257,6.839a1.748,1.748,0,0,1-1.746-1.744,13.047,13.047,0,0,1,1.746-3.75,13.064,13.064,0,0,1,1.746,3.75A1.748,1.748,0,0,1,216.239,251.484Z" transform="translate(-211 -241.006)"/></g></g></svg>