<?xml version="1.0" encoding="utf-8"?>
<!-- Generator: Adobe Illustrator 23.0.1, SVG Export Plug-In . SVG Version: 6.00 Build 0)  -->
<svg version="1.1" id="Layer_1" xmlns="http://www.w3.org/2000/svg" xmlns:xlink="http://www.w3.org/1999/xlink" x="0px" y="0px"
	 viewBox="0 0 16 16" style="enable-background:new 0 0 16 16;" xml:space="preserve">
<style type="text/css">
	.st0{fill:#007C3D;fill-opacity:0;}
	.st1{fill:#007C3D;}
</style>
<g id="FAQ" transform="translate(643 1998)">
	<rect id="Rectangle_982" x="-642.2" y="-1997" class="st0" width="14.4" height="14.4"/>
</g>
<g id="generate_QR" transform="translate(0 -1.411)">
	<g id="Group_37874" transform="translate(0 1.411)">
		<g id="Group_37873">
			<rect id="Rectangle_18636" x="3.1" y="3.3" class="st1" width="1.6" height="1.6"/>
			<rect id="Rectangle_18637" x="8.5" y="12" class="st1" width="1.6" height="1.6"/>
			<rect id="Rectangle_18638" x="13.5" y="10.3" class="st1" width="1.6" height="1.6"/>
			<path id="Path_43275" class="st1" d="M11.8,10.3h-1.6V8.7H8.5v1.6h1.6v1.6h1.6V10.3h1.6V8.7h-1.6V10.3z"/>
			<rect id="Rectangle_18639" x="11.8" y="13.6" class="st1" width="1.6" height="1.6"/>
			<path id="Path_43276" class="st1" d="M1.4,7.2h5.1C6.8,7.2,7,7,7,6.7c0,0,0,0,0,0V1.6c0-0.3-0.2-0.5-0.5-0.5l0,0H1.4
				c-0.3,0-0.5,0.2-0.5,0.5v5.1C0.9,7,1.1,7.2,1.4,7.2L1.4,7.2z M1.8,2.1H6v4.2H1.8L1.8,2.1z"/>
			<rect id="Rectangle_18640" x="10.7" y="3.3" class="st1" width="1.6" height="1.6"/>
			<path id="Path_43277" class="st1" d="M8.9,7.2h5.1c0.3,0,0.5-0.2,0.5-0.5V1.6c0-0.3-0.2-0.5-0.5-0.5l0,0H8.9
				c-0.3,0-0.5,0.2-0.5,0.5c0,0,0,0,0,0v5.1C8.5,7,8.7,7.2,8.9,7.2C8.9,7.2,8.9,7.2,8.9,7.2z M9.4,2.1h4.2v4.2H9.4V2.1z"/>
			<rect id="Rectangle_18641" x="3.1" y="10.9" class="st1" width="1.6" height="1.6"/>
			<path id="Path_43278" class="st1" d="M6.5,8.7H1.4c-0.3,0-0.5,0.2-0.5,0.5l0,0v5.1c0,0.3,0.2,0.5,0.5,0.5c0,0,0,0,0,0h5.1
				c0.3,0,0.5-0.2,0.5-0.5V9.1C7,8.9,6.8,8.7,6.5,8.7z M6,13.8H1.9V9.6H6V13.8z"/>
		</g>
	</g>
</g>
</svg>
