<svg id="Group_39440" data-name="Group 39440" xmlns="http://www.w3.org/2000/svg" width="35.259" height="22.667" viewBox="0 0 35.259 22.667">
  <g id="Group_39330" data-name="Group 39330" transform="translate(0 0)">
    <g id="valid" transform="translate(0 0)">
      <path id="Path_43224" data-name="Path 43224" d="M.5,7.316A3.855,3.855,0,0,1,4.392,3.5H31.867a3.855,3.855,0,0,1,3.892,3.816v8.327a.84.84,0,0,1-1.679,0V7.316a2.205,2.205,0,0,0-2.213-2.2H4.392a2.205,2.205,0,0,0-2.213,2.2V22.35a2.206,2.206,0,0,0,2.213,2.2h26.05a.81.81,0,1,1,0,1.619H4.392A3.855,3.855,0,0,1,.5,22.35Z" transform="translate(-0.5 -3.5)" fill="#007c3d" fill-rule="evenodd"/>
      <path id="Path_43225" data-name="Path 43225" d="M.5,7.31a.825.825,0,0,1,.84-.81H34.92a.81.81,0,1,1,0,1.619H1.34A.825.825,0,0,1,.5,7.31Z" transform="translate(-0.5 -1.643)" fill="#007c3d" fill-rule="evenodd"/>
      <path id="Path_43233" data-name="Path 43233" d="M2.5,12.31a.825.825,0,0,1,.84-.81H6.7a.81.81,0,1,1,0,1.619H3.34A.825.825,0,0,1,2.5,12.31Z" transform="translate(0.858 1.272)" fill="#007c3d" fill-rule="evenodd"/>
      <path id="Path_43234" data-name="Path 43234" d="M2.5,12.31a.825.825,0,0,1,.84-.81h7.089a.81.81,0,1,1,0,1.619H3.34A.825.825,0,0,1,2.5,12.31Z" transform="translate(6.455 1.272)" fill="#007c3d" fill-rule="evenodd"/>
      <path id="Path_43235" data-name="Path 43235" d="M2.5,14.81A.825.825,0,0,1,3.34,14H13.787a.81.81,0,1,1,0,1.619H3.34A.825.825,0,0,1,2.5,14.81Z" transform="translate(0.858 2.82)" fill="#007c3d" fill-rule="evenodd"/>
    </g>
    <g id="valid-2" data-name="valid" transform="translate(35.259 22.667) rotate(180)">
      <path id="Path_43224-2" data-name="Path 43224" d="M0,3.816A3.855,3.855,0,0,1,3.892,0H31.367a3.855,3.855,0,0,1,3.892,3.816v8.327a.84.84,0,0,1-1.679,0V3.816a2.205,2.205,0,0,0-2.213-2.2H3.892a2.206,2.206,0,0,0-2.213,2.2V18.85a2.206,2.206,0,0,0,2.213,2.2H24.346a.81.81,0,1,1,0,1.619H3.892A3.855,3.855,0,0,1,0,18.85Z" fill="#007c3d" fill-rule="evenodd"/>
    </g>
  </g>
</svg>
