<svg xmlns="http://www.w3.org/2000/svg" xmlns:xlink="http://www.w3.org/1999/xlink" width="179.101" height="176.676" viewBox="0 0 179.101 176.676">
  <defs>
    <linearGradient id="linear-gradient" x1="0.851" y1="0.137" x2="0.087" y2="0.621" gradientUnits="objectBoundingBox">
      <stop offset="0.004" stop-color="#e38ddd"/>
      <stop offset="1" stop-color="#9571f6"/>
    </linearGradient>
    <linearGradient id="linear-gradient-2" x1="0.655" y1="0.1" x2="0.325" y2="1.024" gradientUnits="objectBoundingBox">
      <stop offset="0" stop-color="#aa80f9"/>
      <stop offset="0.996" stop-color="#6165d7"/>
    </linearGradient>
    <linearGradient id="linear-gradient-3" x1="1" y1="0.215" x2="-0.233" y2="1.729" xlink:href="#linear-gradient"/>
    <clipPath id="clip-path">
      <path id="Path_31220" data-name="Path 31220" d="M2346.946,1426.724a41.682,41.682,0,0,1-3.843-22.074c1.251-10.505,6.265-13.124,9.777-24.59,5.013-16.366-3.814-26.868,2.615-32.4a11.222,11.222,0,0,1,12-1.3c10.1,5.658,10.688,35.015-2.95,47.978-6.168,5.863-12.1,5.891-16.429,13.081C2344.3,1413.773,2345.488,1421.476,2346.946,1426.724Z" transform="translate(-2342.849 -1345.184)" fill="url(#linear-gradient)"/>
    </clipPath>
    <clipPath id="clip-path-2">
      <path id="Path_31226" data-name="Path 31226" d="M2307.581,1590.291c-1.194-4.28-2.348-11.042.538-17.514,5.035-11.292,16.7-8.995,26.261-21.545,7.712-10.122,4.193-16.956,13.181-24.1,1.5-1.2,9.429-7.741,16.143-5.047,3.784,1.518,5.505,5.291,5.828,6,4.883,10.706-4.539,29.321-18.418,38.875-7.974,5.489-10.869,4.293-25.2,11.241A84.368,84.368,0,0,0,2307.581,1590.291Z" transform="translate(-2306.312 -1521.437)" fill="url(#linear-gradient-2)"/>
    </clipPath>
    <clipPath id="clip-path-3">
      <path id="Path_31231" data-name="Path 31231" d="M2317.976,2077.126a47.342,47.342,0,0,1,11.059-7.429c9.126-4.4,13.691-2.883,17.273-7.333,3.708-4.605.569-8.4,5.045-13.583.376-.435,5.2-5.868,10.229-4.587,3.521.9,5.256,4.6,6.071,6.333,3.16,6.739,2.924,17.556-3.973,23.628-6.538,5.757-15.76,4.354-18.69,3.888-5.14-.817-6.535-2.634-11.744-3.313A29.126,29.126,0,0,0,2317.976,2077.126Z" transform="translate(-2317.976 -2043.999)" fill="url(#linear-gradient-3)"/>
    </clipPath>
    <linearGradient id="linear-gradient-7" x1="-0.085" y1="0.5" x2="1.065" y2="0.5" gradientUnits="objectBoundingBox">
      <stop offset="0" stop-color="#fcb148"/>
      <stop offset="0.052" stop-color="#fdb946"/>
      <stop offset="0.142" stop-color="#fec144"/>
      <stop offset="0.318" stop-color="#ffc444"/>
      <stop offset="0.485" stop-color="#fdb946"/>
      <stop offset="0.775" stop-color="#f99c4c"/>
      <stop offset="0.866" stop-color="#f8924f"/>
      <stop offset="1" stop-color="#f8924f"/>
    </linearGradient>
    <linearGradient id="linear-gradient-8" x1="0.495" y1="0.179" x2="0.556" y2="4.091" gradientUnits="objectBoundingBox">
      <stop offset="0" stop-color="#ffdb44"/>
      <stop offset="1" stop-color="#feef06"/>
    </linearGradient>
    <linearGradient id="linear-gradient-9" x1="0.492" y1="-0.777" x2="0.511" y2="1.295" xlink:href="#linear-gradient-8"/>
    <linearGradient id="linear-gradient-10" x1="-1.241" y1="-19.07" x2="-1.222" y2="-16.638" gradientUnits="objectBoundingBox">
      <stop offset="0.004" stop-color="#f36f56"/>
      <stop offset="0.306" stop-color="#f99c4c"/>
      <stop offset="0.545" stop-color="#fdb946"/>
      <stop offset="0.682" stop-color="#ffc444"/>
      <stop offset="0.804" stop-color="#fec144"/>
      <stop offset="0.867" stop-color="#fdb946"/>
      <stop offset="0.916" stop-color="#fbac49"/>
      <stop offset="0.958" stop-color="#f8994d"/>
      <stop offset="0.995" stop-color="#f58152"/>
      <stop offset="1" stop-color="#f57e53"/>
    </linearGradient>
    <linearGradient id="linear-gradient-14" x1="-0.959" y1="-15.424" x2="-0.94" y2="-12.992" xlink:href="#linear-gradient-10"/>
    <linearGradient id="linear-gradient-18" x1="-1.202" y1="-11.788" x2="-1.183" y2="-9.357" xlink:href="#linear-gradient-10"/>
    <linearGradient id="linear-gradient-22" x1="-1.35" y1="-8.142" x2="-1.331" y2="-5.711" xlink:href="#linear-gradient-10"/>
    <linearGradient id="linear-gradient-26" x1="-1.241" y1="-4.209" x2="-1.222" y2="-1.777" xlink:href="#linear-gradient-10"/>
    <linearGradient id="linear-gradient-30" x1="-0.959" y1="-0.563" x2="-0.94" y2="1.869" xlink:href="#linear-gradient-10"/>
    <linearGradient id="linear-gradient-34" x1="-1.202" y1="3.073" x2="-1.183" y2="5.504" xlink:href="#linear-gradient-10"/>
    <linearGradient id="linear-gradient-38" x1="-1.076" y1="6.718" x2="-1.057" y2="9.15" xlink:href="#linear-gradient-10"/>
    <linearGradient id="linear-gradient-39" x1="0.329" y1="0.554" x2="-0.255" y2="0.738" xlink:href="#linear-gradient-7"/>
    <linearGradient id="linear-gradient-40" x1="0.727" y1="0.007" x2="0.207" y2="1.135" xlink:href="#linear-gradient-8"/>
    <linearGradient id="linear-gradient-41" x1="0.636" y1="1.231" x2="0.531" y2="0.666" xlink:href="#linear-gradient-7"/>
    <linearGradient id="linear-gradient-42" x1="0.409" y1="0.31" x2="0.858" y2="1.247" xlink:href="#linear-gradient-7"/>
    <linearGradient id="linear-gradient-43" x1="0.464" y1="0.369" x2="1.215" y2="1.306" xlink:href="#linear-gradient-7"/>
    <linearGradient id="linear-gradient-44" y1="0.5" x2="1" y2="0.5" gradientUnits="objectBoundingBox">
      <stop offset="0" stop-color="#311944"/>
      <stop offset="1" stop-color="#893976"/>
    </linearGradient>
    <linearGradient id="linear-gradient-46" x1="-5.038" y1="-2.41" x2="-4.858" y2="2.649" gradientUnits="objectBoundingBox">
      <stop offset="0" stop-color="#311944"/>
      <stop offset="1" stop-color="#a03976"/>
    </linearGradient>
    <linearGradient id="linear-gradient-47" x1="-17.108" y1="1.152" x2="-17.23" y2="-5.07" gradientUnits="objectBoundingBox">
      <stop offset="0" stop-color="#ffc444"/>
      <stop offset="0.996" stop-color="#f36f56"/>
    </linearGradient>
    <linearGradient id="linear-gradient-48" x1="2.519" y1="-1.484" x2="2.804" y2="1.472" xlink:href="#linear-gradient-46"/>
    <linearGradient id="linear-gradient-49" x1="4.469" y1="1.353" x2="4.383" y2="-3.032" xlink:href="#linear-gradient-47"/>
    <linearGradient id="linear-gradient-50" x1="-2.339" y1="0.5" x2="-1.339" y2="0.5" gradientUnits="objectBoundingBox">
      <stop offset="0" stop-color="#444b8c"/>
      <stop offset="0.996" stop-color="#3e4177"/>
    </linearGradient>
    <linearGradient id="linear-gradient-51" x1="-2.513" y1="0.5" x2="-1.439" y2="0.5" xlink:href="#linear-gradient-50"/>
    <linearGradient id="linear-gradient-52" x1="-0.383" y1="0.5" x2="0.617" y2="0.5" xlink:href="#linear-gradient-50"/>
    <linearGradient id="linear-gradient-53" x1="0.458" y1="0.362" x2="0.593" y2="1.902" xlink:href="#linear-gradient-44"/>
    <linearGradient id="linear-gradient-54" x1="0.546" y1="0.812" x2="0.422" y2="-0.259" gradientUnits="objectBoundingBox">
      <stop offset="0.004" stop-color="#26264f"/>
      <stop offset="1" stop-color="#444b8c"/>
    </linearGradient>
    <linearGradient id="linear-gradient-55" x1="-0.567" y1="-0.675" x2="0.839" y2="0.911" xlink:href="#linear-gradient-44"/>
    <linearGradient id="linear-gradient-56" x1="0.001" y1="1.048" x2="1.159" y2="-0.595" gradientUnits="objectBoundingBox">
      <stop offset="0.004" stop-color="#6165d7"/>
      <stop offset="1" stop-color="#aa80f9"/>
    </linearGradient>
    <linearGradient id="linear-gradient-57" x1="0.574" y1="1.264" x2="0.476" y2="0.186" xlink:href="#linear-gradient-56"/>
    <linearGradient id="linear-gradient-58" x1="0.578" y1="1.439" x2="0.368" y2="-0.14" xlink:href="#linear-gradient-2"/>
  </defs>
  <g id="Group_39748" data-name="Group 39748" transform="translate(-437.725 -433.034)">
    <path id="Path_31213" data-name="Path 31213" d="M594.144,584.981a67.989,67.989,0,0,1-11.94,9.692c-30.923,20.647-66.271,14.7-77.2,12.662-17.632-3.282-32.516-5.6-45.3-17.15-29.058-26.253-27.645-81.019-5.441-114.944,2.633-4.022,24.8-36.886,60.228-41.517.866-.113,1.513-.178,2.079-.238,5.48-.58,39.439-3.642,67.13,19.557a82.605,82.605,0,0,1,16.258,18.446C621.582,504.893,621.65,556.628,594.144,584.981Z" transform="translate(0)" fill="#f4f7fa"/>
    <path id="Path_31214" data-name="Path 31214" d="M535.242,3055.37c-25.2-.3-31.889-2.655-56.189-1.7-9.288.364-27.442,1.075-27.584,3.406-.182,2.986,29.265,7.666,51.422,9.875,60.319,6.015,117.841-1.174,117.827-5.789-.01-3.216-27.968-5.742-40.184-6.47C560.934,3053.52,559.762,3055.66,535.242,3055.37Z" transform="translate(-12.9 -2459.732)" fill="#d8dee8"/>
    <g id="Group_39724" data-name="Group 39724" transform="translate(552.302 488.965)">
      <g id="Group_39716" data-name="Group 39716" transform="translate(2.24)">
        <g id="Group_39715" data-name="Group 39715">
          <path id="Path_31215" data-name="Path 31215" d="M2346.946,1426.724a41.682,41.682,0,0,1-3.843-22.074c1.251-10.505,6.265-13.124,9.777-24.59,5.013-16.366-3.814-26.868,2.615-32.4a11.222,11.222,0,0,1,12-1.3c10.1,5.658,10.688,35.015-2.95,47.978-6.168,5.863-12.1,5.891-16.429,13.081C2344.3,1413.773,2345.488,1421.476,2346.946,1426.724Z" transform="translate(-2342.849 -1345.184)" fill="url(#linear-gradient)"/>
          <g id="Group_39714" data-name="Group 39714" clip-path="url(#clip-path)">
            <g id="Group_39713" data-name="Group 39713" transform="translate(1.409 -2.433)" opacity="0.5" style="mix-blend-mode: soft-light;isolation: isolate">
              <path id="Path_31216" data-name="Path 31216" d="M2366.041,1376.354l-.216-.031a40.426,40.426,0,0,1,1.557-6.745c1.629-5.035,3.713-7.929,6.35-11.592a93.507,93.507,0,0,0,5.819-8.868c4.052-7.1,5.28-9.568,6.2-13.425a36.918,36.918,0,0,0-.129-17.411,35.993,35.993,0,0,0-6.062-12.639l.174-.13a36.215,36.215,0,0,1,6.1,12.715,37.14,37.14,0,0,1,.129,17.516c-.924,3.883-2.156,6.363-6.22,13.483a93.657,93.657,0,0,1-5.832,8.887c-2.626,3.648-4.7,6.529-6.32,11.532A40.143,40.143,0,0,0,2366.041,1376.354Z" transform="translate(-2365.825 -1305.512)" fill="#fff"/>
              <path id="Path_31217" data-name="Path 31217" d="M2486.507,1402.255l-.022-.178c-1.308-10.336-14.134-12.534-14.263-12.555l.035-.215a24.073,24.073,0,0,1,6.711,2.385c3.109,1.677,6.952,4.8,7.709,10.175a19.869,19.869,0,0,0,4.57-5.063,17.762,17.762,0,0,0,2.008-14.7l.209-.059a17.977,17.977,0,0,1-2.038,14.887,19.674,19.674,0,0,1-4.772,5.225Z" transform="translate(-2465.697 -1377.348)" fill="#fff"/>
              <path id="Path_31218" data-name="Path 31218" d="M2523.5,1753.521a17.933,17.933,0,0,1-5.07-.7l-.086-.029.013-.09c1.562-10.457-5.772-14.935-5.846-14.979l.111-.187c.075.045,7.491,4.572,5.965,15.105.945.283,9.339,2.564,15.542-3.447l.152.156A15.144,15.144,0,0,1,2523.5,1753.521Z" transform="translate(-2503.513 -1711.05)" fill="#fff"/>
              <path id="Path_31219" data-name="Path 31219" d="M2472.768,1929.445a14.418,14.418,0,0,1-2.259-.173,10,10,0,0,1-4.1-1.468l-.063-.046.023-.074c1.769-5.649-2.479-14.127-2.522-14.212l.194-.1c.043.085,4.292,8.565,2.56,14.3.647.422,6.185,3.7,15.321-.809l.1.195A20.892,20.892,0,0,1,2472.768,1929.445Z" transform="translate(-2457.841 -1876.101)" fill="#fff"/>
            </g>
          </g>
        </g>
      </g>
      <g id="Group_39720" data-name="Group 39720" transform="translate(0 10.807)">
        <g id="Group_39719" data-name="Group 39719">
          <path id="Path_31221" data-name="Path 31221" d="M2307.581,1590.291c-1.194-4.28-2.348-11.042.538-17.514,5.035-11.292,16.7-8.995,26.261-21.545,7.712-10.122,4.193-16.956,13.181-24.1,1.5-1.2,9.429-7.741,16.143-5.047,3.784,1.518,5.505,5.291,5.828,6,4.883,10.706-4.539,29.321-18.418,38.875-7.974,5.489-10.869,4.293-25.2,11.241A84.368,84.368,0,0,0,2307.581,1590.291Z" transform="translate(-2306.312 -1521.437)" fill="url(#linear-gradient-2)"/>
          <g id="Group_39718" data-name="Group 39718" clip-path="url(#clip-path-2)">
            <g id="Group_39717" data-name="Group 39717" transform="translate(0.377 -4.324)" opacity="0.7" style="mix-blend-mode: soft-light;isolation: isolate">
              <path id="Path_31222" data-name="Path 31222" d="M2312.681,1529.487l-.217-.021c1.038-10.662,4.4-18.114,9.978-22.152a17.959,17.959,0,0,1,7.451-3.036,19.582,19.582,0,0,0,8.652-3.753c3.264-2.492,4.3-4.663,5.6-7.411a41.314,41.314,0,0,1,6.217-9.842,44.036,44.036,0,0,1,7.607-7.246,20.907,20.907,0,0,0,5.966-6.323c3.115-5.155,4.351-11.465,3.672-18.756l.217-.02c.683,7.338-.562,13.693-3.7,18.889a21.1,21.1,0,0,1-6.019,6.383,43.836,43.836,0,0,0-7.574,7.214,41.139,41.139,0,0,0-6.188,9.8c-1.319,2.775-2.361,4.967-5.666,7.491a19.77,19.77,0,0,1-8.737,3.793,17.773,17.773,0,0,0-7.371,3C2317.04,1511.49,2313.712,1518.891,2312.681,1529.487Z" transform="translate(-2312.464 -1450.926)" fill="#fff"/>
              <path id="Path_31223" data-name="Path 31223" d="M2995.783,1556.971l.03-.142c.032-.151,3.134-15.1-2.829-20.49l.146-.161c5.74,5.185,3.231,18.994,2.925,20.554a28.33,28.33,0,0,0,16.73-7.218,26.753,26.753,0,0,0,5.272-6.332l.192.1a26.99,26.99,0,0,1-5.312,6.384,28.553,28.553,0,0,1-17.009,7.291Z" transform="translate(-2951.257 -1530.951)" fill="#fff"/>
              <path id="Path_31224" data-name="Path 31224" d="M2856.2,1774.449a33.025,33.025,0,0,1-9.14-1.2l-.089-.028.015-.092a40,40,0,0,0-.405-12.132,61.5,61.5,0,0,0-1.364-6.255l.209-.061c.03.105,3.021,10.59,1.79,18.388a34.6,34.6,0,0,0,29.416-5.59l.131.173a33.819,33.819,0,0,1-20.117,6.79Z" transform="translate(-2812.547 -1736.06)" fill="#fff"/>
              <path id="Path_31225" data-name="Path 31225" d="M2650.474,2024.533a44.682,44.682,0,0,1-11.2-1.376,28.508,28.508,0,0,1-6.48-2.423l-.1-.058.063-.1c4.957-7.6,1.477-18.889,1.441-19l.208-.065c.036.114,3.517,11.406-1.4,19.088,1.038.559,10.027,5.109,23.991,3.286l.028.216A50.57,50.57,0,0,1,2650.474,2024.533Z" transform="translate(-2613.057 -1967.753)" fill="#fff"/>
            </g>
          </g>
        </g>
      </g>
      <g id="Group_39723" data-name="Group 39723" transform="translate(0.715 42.849)">
        <path id="Path_31227" data-name="Path 31227" d="M2317.976,2077.126a47.342,47.342,0,0,1,11.059-7.429c9.126-4.4,13.691-2.883,17.273-7.333,3.708-4.605.569-8.4,5.045-13.583.376-.435,5.2-5.868,10.229-4.587,3.521.9,5.256,4.6,6.071,6.333,3.16,6.739,2.924,17.556-3.973,23.628-6.538,5.757-15.76,4.354-18.69,3.888-5.14-.817-6.535-2.634-11.744-3.313A29.126,29.126,0,0,0,2317.976,2077.126Z" transform="translate(-2317.976 -2043.999)" fill="url(#linear-gradient-3)"/>
        <g id="Group_39722" data-name="Group 39722" clip-path="url(#clip-path-3)">
          <g id="Group_39721" data-name="Group 39721" transform="translate(-1.947 -1.284)" opacity="0.7" style="mix-blend-mode: soft-light;isolation: isolate">
            <path id="Path_31228" data-name="Path 31228" d="M2286.363,2059.28l-.146-.161c5.44-4.967,10.991-7.631,16.5-7.919a21.387,21.387,0,0,1,5.825.563,18.382,18.382,0,0,0,7.23.344c5.684-.859,10.345-3.325,13.125-6.944,4.3-5.606,4.453-14.243.377-22l.193-.1c4.115,7.836,3.959,16.565-.4,22.238-2.814,3.664-7.525,6.159-13.265,7.027a18.575,18.575,0,0,1-7.307-.346,21.151,21.151,0,0,0-5.77-.559C2297.27,2051.7,2291.765,2054.348,2286.363,2059.28Z" transform="translate(-2286.216 -2023.057)" fill="#fff"/>
            <path id="Path_31229" data-name="Path 31229" d="M2826.59,2118.2l-.005-.167c-.311-9.382-12.166-13.318-12.285-13.357l.067-.207c.12.039,11.978,3.974,12.429,13.386,1.17-.612,8.781-4.859,8.593-11.514l.218-.006c.207,7.314-8.774,11.748-8.865,11.792Z" transform="translate(-2781.919 -2099.48)" fill="#fff"/>
            <path id="Path_31230" data-name="Path 31230" d="M2799.934,2228.751c-.551,0-1.07-.023-1.553-.062a16.271,16.271,0,0,1-6.51-1.815l-.091-.055.052-.092c4.632-8.1-2.914-16.38-2.991-16.463l.16-.148c.077.084,7.673,8.414,3.075,16.624a16.457,16.457,0,0,0,6.336,1.734c3.651.3,9.371-.343,15.889-5.051l.127.177C2808.711,2227.728,2803.6,2228.751,2799.934,2228.751Z" transform="translate(-2758.021 -2198.646)" fill="#fff"/>
          </g>
        </g>
      </g>
    </g>
    <g id="Group_39747" data-name="Group 39747" transform="translate(445.653 436.526)">
      <g id="Group_39741" data-name="Group 39741" transform="translate(35.222 71.138)">
        <g id="Group_39726" data-name="Group 39726" transform="translate(12.235 72.528)">
          <path id="Path_31232" data-name="Path 31232" d="M1341.408,2926.126v9.762c0,3.155,19.706,5.712,44.014,5.712s44.013-2.557,44.013-5.712v-9.762Z" transform="translate(-1341.382 -2920.414)" fill="url(#linear-gradient-7)"/>
          <ellipse id="Ellipse_2865" data-name="Ellipse 2865" cx="44.014" cy="5.712" rx="44.014" ry="5.712" transform="translate(0.026)" fill="url(#linear-gradient-8)"/>
          <path id="Path_31233" data-name="Path 31233" d="M1385.029,2924.313c-21.528,0-44.039-2.057-44.039-6.022,0-.218.078-.6.3-.6s.124.3.124.517c0,2.515,17.914,5.318,43.619,5.318s43.62-2.8,43.62-5.318c0-.218.037-.422.255-.422s.165.291.165.509C1429.069,2922.26,1406.557,2924.313,1385.029,2924.313Z" transform="translate(-1340.99 -2912.495)" fill="url(#linear-gradient-9)"/>
          <g id="Group_39725" data-name="Group 39725" transform="translate(16.313 3.548)">
            <path id="Path_31234" data-name="Path 31234" d="M1630.6,2893.317c.432-.3.891-.594,1.383-.885a8.687,8.687,0,0,1,1.891-.788,18.05,18.05,0,0,1,2.9-.574,36.655,36.655,0,0,1,4.346-.235q2.552-.013,4.79.162a32.6,32.6,0,0,1,3.94.521,12.191,12.191,0,0,1,2.765.858,2.19,2.19,0,0,1,1.264,1.172l4.956.05a4.9,4.9,0,0,1,.95.088c.277.057.411.128.411.214l0,.408-6.371-.061a3.212,3.212,0,0,1-1.708,1.371,17.315,17.315,0,0,1-3.494,1.078l-2.32-.323a2.71,2.71,0,0,1-.512-.121c-.134-.049-.2-.1-.2-.159q0-.118.538-.268t1.215-.374a12.257,12.257,0,0,0,1.33-.526,1.8,1.8,0,0,0,.872-.724l-15.038-.149a14.159,14.159,0,0,1-1.328.857,8.636,8.636,0,0,1-1.951.758,20.427,20.427,0,0,1-3.026.547,42.768,42.768,0,0,1-4.563.223c-1.378.007-2.72-.046-4.034-.156a27.619,27.619,0,0,1-3.5-.5,10.911,10.911,0,0,1-2.512-.823c-.652-.327-1.018-.7-1.094-1.126l-4.08-.042a5.329,5.329,0,0,1-.964-.085c-.281-.054-.425-.126-.425-.217l0-.408,5.578.053a3,3,0,0,1,1.525-1.124,17.43,17.43,0,0,1,2.831-.852l1.868.257c.568.08.849.173.849.28,0,.058-.115.129-.349.215s-.515.188-.837.307a7.648,7.648,0,0,0-.929.419,1.97,1.97,0,0,0-.68.544Zm-13.762.556a1.479,1.479,0,0,0,.741.692,5.918,5.918,0,0,0,1.418.479,14.438,14.438,0,0,0,1.91.275q1.065.088,2.227.082a23.27,23.27,0,0,0,2.364-.117,13.715,13.715,0,0,0,1.769-.3,8.222,8.222,0,0,0,1.33-.439,7.428,7.428,0,0,0,1.016-.543Zm32.737-.365a1.535,1.535,0,0,0-.81-.713,7.337,7.337,0,0,0-1.63-.514,18.009,18.009,0,0,0-2.311-.31q-1.314-.1-2.9-.094a22.3,22.3,0,0,0-2.433.126,12.567,12.567,0,0,0-1.769.321,6.472,6.472,0,0,0-1.27.47,9.1,9.1,0,0,0-.974.574Z" transform="translate(-1607.037 -2890.834)" fill="#fcb048"/>
          </g>
          <path id="Path_31235" data-name="Path 31235" d="M1396.026,2843.057c-19.625,0-40.059,1.727-43.327,5.07a3.888,3.888,0,0,1,.357.376c2.755-2.321,19.627-4.658,42.97-4.658,23.941,0,41.085,2.459,43.161,4.837a3.985,3.985,0,0,1,.329-.373C1436.817,2844.848,1416,2843.057,1396.026,2843.057Z" transform="translate(-1351.981 -2842.439)" fill="url(#linear-gradient-10)"/>
        </g>
        <g id="Group_39728" data-name="Group 39728" transform="translate(0 62.274)">
          <path id="Path_31236" data-name="Path 31236" d="M1141.864,2758.892v9.762c0,3.155,19.705,5.712,44.013,5.712s44.014-2.557,44.014-5.712v-9.762Z" transform="translate(-1141.838 -2753.18)" fill="url(#linear-gradient-7)"/>
          <ellipse id="Ellipse_2866" data-name="Ellipse 2866" cx="44.013" cy="5.712" rx="44.013" ry="5.712" transform="translate(0.026)" fill="url(#linear-gradient-8)"/>
          <path id="Path_31237" data-name="Path 31237" d="M1185.484,2757.081c-21.528,0-44.039-2.056-44.039-6.022,0-.218.078-.6.3-.6s.124.3.124.517c0,2.515,17.914,5.317,43.619,5.317s43.62-2.8,43.62-5.317c0-.218.037-.422.255-.422s.165.291.165.509C1229.524,2755.028,1207.012,2757.081,1185.484,2757.081Z" transform="translate(-1141.445 -2745.264)" fill="url(#linear-gradient-9)"/>
          <g id="Group_39727" data-name="Group 39727" transform="translate(16.313 3.548)">
            <path id="Path_31238" data-name="Path 31238" d="M1431.059,2726.084c.432-.3.892-.594,1.383-.885a8.688,8.688,0,0,1,1.891-.788,18.038,18.038,0,0,1,2.9-.574,36.767,36.767,0,0,1,4.346-.234q2.551-.012,4.79.162a32.59,32.59,0,0,1,3.939.522,12.207,12.207,0,0,1,2.766.858,2.19,2.19,0,0,1,1.264,1.172l4.956.05a4.846,4.846,0,0,1,.95.088c.277.056.411.128.411.214l0,.408-6.371-.062a3.212,3.212,0,0,1-1.708,1.371,17.3,17.3,0,0,1-3.494,1.078l-2.32-.323a2.677,2.677,0,0,1-.512-.121c-.134-.049-.2-.1-.2-.16q0-.118.538-.268t1.215-.375a12.358,12.358,0,0,0,1.33-.526,1.806,1.806,0,0,0,.872-.724l-15.038-.149a14.256,14.256,0,0,1-1.328.857,8.658,8.658,0,0,1-1.951.758,20.364,20.364,0,0,1-3.026.547,42.763,42.763,0,0,1-4.563.223c-1.378.007-2.72-.045-4.034-.156a27.491,27.491,0,0,1-3.5-.5,10.889,10.889,0,0,1-2.512-.822c-.652-.327-1.018-.7-1.093-1.126l-4.08-.042a5.332,5.332,0,0,1-.964-.085c-.281-.054-.425-.127-.425-.217l0-.408,5.578.053a3,3,0,0,1,1.525-1.124,17.483,17.483,0,0,1,2.831-.852l1.868.257c.567.08.849.173.85.28,0,.058-.115.129-.349.215s-.515.188-.838.307a7.655,7.655,0,0,0-.929.419,1.969,1.969,0,0,0-.68.544Zm-13.762.556a1.483,1.483,0,0,0,.741.692,5.908,5.908,0,0,0,1.417.478,14.472,14.472,0,0,0,1.91.275q1.065.088,2.227.082a23.121,23.121,0,0,0,2.364-.117,13.686,13.686,0,0,0,1.769-.3,8.241,8.241,0,0,0,1.33-.439,7.419,7.419,0,0,0,1.016-.543Zm32.738-.365a1.534,1.534,0,0,0-.81-.713,7.3,7.3,0,0,0-1.63-.514,17.927,17.927,0,0,0-2.311-.31q-1.314-.1-2.9-.094a22.37,22.37,0,0,0-2.433.126,12.564,12.564,0,0,0-1.768.321,6.452,6.452,0,0,0-1.27.469,9.09,9.09,0,0,0-.974.574Z" transform="translate(-1407.492 -2723.602)" fill="#fcb048"/>
          </g>
          <path id="Path_31239" data-name="Path 31239" d="M1196.48,2675.824c-19.625,0-40.059,1.727-43.327,5.07a4.006,4.006,0,0,1,.357.376c2.755-2.321,19.628-4.658,42.97-4.658,23.942,0,41.085,2.458,43.161,4.837a4.049,4.049,0,0,1,.329-.373C1237.271,2677.615,1216.454,2675.824,1196.48,2675.824Z" transform="translate(-1152.435 -2675.205)" fill="url(#linear-gradient-14)"/>
        </g>
        <g id="Group_39730" data-name="Group 39730" transform="translate(10.558 52.05)">
          <path id="Path_31240" data-name="Path 31240" d="M1314.043,2592.149v9.763c0,3.155,19.706,5.711,44.014,5.711s44.013-2.557,44.013-5.711v-9.763Z" transform="translate(-1314.017 -2586.437)" fill="url(#linear-gradient-7)"/>
          <ellipse id="Ellipse_2867" data-name="Ellipse 2867" cx="44.014" cy="5.712" rx="44.014" ry="5.712" transform="translate(0.026)" fill="url(#linear-gradient-8)"/>
          <path id="Path_31241" data-name="Path 31241" d="M1357.665,2590.338c-21.528,0-44.039-2.056-44.039-6.022,0-.218.078-.6.3-.6s.124.3.124.517c0,2.516,17.914,5.318,43.619,5.318s43.619-2.8,43.619-5.318c0-.218.037-.422.255-.422s.165.291.165.509C1401.7,2588.285,1379.193,2590.338,1357.665,2590.338Z" transform="translate(-1313.626 -2578.521)" fill="url(#linear-gradient-9)"/>
          <g id="Group_39729" data-name="Group 39729" transform="translate(16.313 3.548)">
            <path id="Path_31242" data-name="Path 31242" d="M1603.239,2559.341c.432-.3.891-.594,1.383-.885a8.722,8.722,0,0,1,1.891-.788,18.1,18.1,0,0,1,2.9-.573,36.851,36.851,0,0,1,4.346-.235q2.552-.012,4.791.162a32.691,32.691,0,0,1,3.939.522,12.2,12.2,0,0,1,2.766.858,2.189,2.189,0,0,1,1.264,1.172l4.956.05a4.884,4.884,0,0,1,.95.088c.277.057.411.128.411.214l0,.408-6.371-.061a3.21,3.21,0,0,1-1.708,1.371,17.255,17.255,0,0,1-3.494,1.078l-2.32-.323a2.679,2.679,0,0,1-.512-.121c-.134-.049-.2-.1-.2-.159q0-.118.538-.269t1.215-.374a12.144,12.144,0,0,0,1.329-.526,1.8,1.8,0,0,0,.872-.724l-15.038-.149a14.208,14.208,0,0,1-1.328.857,8.666,8.666,0,0,1-1.951.758,20.492,20.492,0,0,1-3.026.546,42.822,42.822,0,0,1-4.562.223c-1.378.007-2.72-.045-4.035-.156a27.667,27.667,0,0,1-3.5-.5,10.911,10.911,0,0,1-2.512-.822c-.652-.327-1.018-.7-1.094-1.126l-4.08-.042a5.351,5.351,0,0,1-.964-.085c-.281-.054-.425-.127-.425-.217l0-.408,5.578.053a3,3,0,0,1,1.525-1.123,17.421,17.421,0,0,1,2.831-.852l1.868.256c.568.08.849.173.85.28,0,.058-.115.13-.349.215s-.516.188-.838.307a7.665,7.665,0,0,0-.929.419,1.975,1.975,0,0,0-.68.544Zm-13.762.556a1.477,1.477,0,0,0,.741.692,5.909,5.909,0,0,0,1.418.479,14.523,14.523,0,0,0,1.91.275q1.065.088,2.227.082a23.134,23.134,0,0,0,2.364-.117,13.724,13.724,0,0,0,1.769-.3,8.314,8.314,0,0,0,1.33-.439,7.421,7.421,0,0,0,1.016-.543Zm32.737-.365a1.533,1.533,0,0,0-.81-.713,7.285,7.285,0,0,0-1.63-.514,18.053,18.053,0,0,0-2.311-.31q-1.314-.1-2.9-.094a22.362,22.362,0,0,0-2.433.126,12.5,12.5,0,0,0-1.769.321,6.42,6.42,0,0,0-1.27.469,9.062,9.062,0,0,0-.975.574Z" transform="translate(-1579.672 -2556.858)" fill="#fcb048"/>
          </g>
          <path id="Path_31243" data-name="Path 31243" d="M1368.661,2509.081c-19.625,0-40.059,1.727-43.327,5.07a4.027,4.027,0,0,1,.357.376c2.755-2.321,19.627-4.658,42.97-4.658,23.942,0,41.085,2.459,43.161,4.837a4.018,4.018,0,0,1,.329-.373C1409.452,2510.872,1388.635,2509.081,1368.661,2509.081Z" transform="translate(-1324.616 -2508.463)" fill="url(#linear-gradient-18)"/>
        </g>
        <g id="Group_39732" data-name="Group 39732" transform="translate(16.964 41.796)">
          <path id="Path_31244" data-name="Path 31244" d="M1418.528,2424.917v9.762c0,3.155,19.705,5.712,44.013,5.712s44.013-2.557,44.013-5.712v-9.762Z" transform="translate(-1418.502 -2419.205)" fill="url(#linear-gradient-7)"/>
          <path id="Path_31245" data-name="Path 31245" d="M1506.555,2337.476c0,3.155-19.706,5.712-44.013,5.712s-44.013-2.557-44.013-5.712,19.705-5.711,44.013-5.711S1506.555,2334.321,1506.555,2337.476Z" transform="translate(-1418.502 -2331.764)" fill="url(#linear-gradient-8)"/>
          <path id="Path_31246" data-name="Path 31246" d="M1462.148,2423.1c-21.528,0-44.039-2.056-44.039-6.022,0-.218.078-.6.3-.6s.124.3.124.517c0,2.515,17.914,5.318,43.619,5.318s43.619-2.8,43.619-5.318c0-.218.037-.422.255-.422s.165.291.165.509C1506.188,2421.051,1483.676,2423.1,1462.148,2423.1Z" transform="translate(-1418.109 -2411.286)" fill="url(#linear-gradient-9)"/>
          <g id="Group_39731" data-name="Group 39731" transform="translate(16.313 3.548)">
            <path id="Path_31247" data-name="Path 31247" d="M1707.725,2392.108c.432-.3.891-.594,1.383-.885a8.7,8.7,0,0,1,1.891-.788,18.025,18.025,0,0,1,2.9-.574,36.76,36.76,0,0,1,4.346-.235q2.551-.012,4.79.162a32.5,32.5,0,0,1,3.94.521,12.2,12.2,0,0,1,2.765.858,2.189,2.189,0,0,1,1.264,1.172l4.956.05a4.867,4.867,0,0,1,.95.088c.277.056.411.128.411.214l0,.408-6.371-.062a3.211,3.211,0,0,1-1.708,1.371,17.313,17.313,0,0,1-3.494,1.078l-2.32-.323a2.671,2.671,0,0,1-.512-.121c-.134-.048-.2-.1-.2-.159q0-.118.538-.268t1.215-.374a12.245,12.245,0,0,0,1.33-.526,1.805,1.805,0,0,0,.872-.724l-15.038-.149a14.193,14.193,0,0,1-1.328.857,8.651,8.651,0,0,1-1.951.758,20.4,20.4,0,0,1-3.026.547,42.7,42.7,0,0,1-4.562.223c-1.378.007-2.72-.045-4.035-.156a27.582,27.582,0,0,1-3.5-.5,10.9,10.9,0,0,1-2.512-.823c-.652-.327-1.018-.7-1.094-1.126l-4.08-.042a5.35,5.35,0,0,1-.964-.085c-.281-.054-.425-.127-.425-.217l0-.408,5.578.053a3,3,0,0,1,1.525-1.124,17.483,17.483,0,0,1,2.831-.851l1.868.256c.567.08.849.173.85.28,0,.058-.115.129-.349.215s-.515.188-.837.307a7.686,7.686,0,0,0-.929.419,1.974,1.974,0,0,0-.679.544Zm-13.762.556a1.48,1.48,0,0,0,.741.692,5.906,5.906,0,0,0,1.417.479,14.482,14.482,0,0,0,1.91.275q1.065.088,2.227.082a23.126,23.126,0,0,0,2.365-.117,13.733,13.733,0,0,0,1.769-.3,8.243,8.243,0,0,0,1.33-.439,7.425,7.425,0,0,0,1.016-.543Zm32.738-.365a1.535,1.535,0,0,0-.811-.713,7.32,7.32,0,0,0-1.63-.514,18,18,0,0,0-2.311-.31q-1.314-.1-2.9-.094a22.305,22.305,0,0,0-2.433.126,12.563,12.563,0,0,0-1.769.321,6.45,6.45,0,0,0-1.27.469,9.051,9.051,0,0,0-.975.574Z" transform="translate(-1684.158 -2389.626)" fill="#fcb048"/>
          </g>
          <path id="Path_31248" data-name="Path 31248" d="M1473.145,2341.849c-19.625,0-40.059,1.727-43.327,5.07a4,4,0,0,1,.357.376c2.755-2.321,19.627-4.658,42.97-4.658,23.942,0,41.085,2.458,43.161,4.837a4.016,4.016,0,0,1,.329-.373C1513.936,2343.64,1493.119,2341.849,1473.145,2341.849Z" transform="translate(-1429.1 -2341.231)" fill="url(#linear-gradient-22)"/>
        </g>
        <g id="Group_39734" data-name="Group 39734" transform="translate(12.235 30.733)">
          <path id="Path_31249" data-name="Path 31249" d="M1341.408,2244.492v9.762c0,3.155,19.706,5.712,44.014,5.712s44.013-2.557,44.013-5.712v-9.762Z" transform="translate(-1341.382 -2238.78)" fill="url(#linear-gradient-7)"/>
          <ellipse id="Ellipse_2868" data-name="Ellipse 2868" cx="44.014" cy="5.712" rx="44.014" ry="5.712" transform="translate(0.026)" fill="url(#linear-gradient-8)"/>
          <path id="Path_31250" data-name="Path 31250" d="M1385.029,2242.679c-21.528,0-44.039-2.056-44.039-6.022,0-.218.078-.6.3-.6s.124.3.124.517c0,2.515,17.914,5.317,43.619,5.317s43.62-2.8,43.62-5.317c0-.218.037-.422.255-.422s.165.29.165.508C1429.069,2240.626,1406.557,2242.679,1385.029,2242.679Z" transform="translate(-1340.99 -2230.862)" fill="url(#linear-gradient-9)"/>
          <g id="Group_39733" data-name="Group 39733" transform="translate(16.313 3.548)">
            <path id="Path_31251" data-name="Path 31251" d="M1630.6,2211.682c.432-.3.891-.594,1.383-.885a8.7,8.7,0,0,1,1.891-.788,18.08,18.08,0,0,1,2.9-.574,36.76,36.76,0,0,1,4.346-.235q2.552-.012,4.79.162a32.508,32.508,0,0,1,3.94.521,12.179,12.179,0,0,1,2.765.858,2.189,2.189,0,0,1,1.264,1.172l4.956.05a4.846,4.846,0,0,1,.95.088c.277.056.411.128.411.214l0,.408-6.371-.061a3.212,3.212,0,0,1-1.708,1.371,17.3,17.3,0,0,1-3.494,1.078l-2.32-.323a2.708,2.708,0,0,1-.512-.122c-.134-.049-.2-.1-.2-.16q0-.118.538-.268t1.215-.375a12.3,12.3,0,0,0,1.33-.525,1.806,1.806,0,0,0,.872-.724l-15.038-.149a14.159,14.159,0,0,1-1.328.857,8.647,8.647,0,0,1-1.951.758,20.364,20.364,0,0,1-3.026.547,42.759,42.759,0,0,1-4.563.223c-1.378.007-2.72-.046-4.034-.156a27.711,27.711,0,0,1-3.5-.5,10.91,10.91,0,0,1-2.512-.823c-.652-.327-1.018-.7-1.094-1.126l-4.08-.042a5.308,5.308,0,0,1-.964-.085c-.281-.054-.425-.127-.425-.217l0-.408,5.578.053a3,3,0,0,1,1.525-1.124,17.429,17.429,0,0,1,2.831-.852l1.868.257c.568.08.849.173.849.28,0,.058-.115.129-.349.215s-.515.188-.837.307a7.686,7.686,0,0,0-.929.419,1.971,1.971,0,0,0-.68.544Zm-13.762.556a1.482,1.482,0,0,0,.741.692,5.908,5.908,0,0,0,1.418.478,14.516,14.516,0,0,0,1.91.275q1.065.087,2.227.082a23.27,23.27,0,0,0,2.364-.117,13.717,13.717,0,0,0,1.769-.3,8.269,8.269,0,0,0,1.33-.439,7.375,7.375,0,0,0,1.016-.543Zm32.737-.365a1.532,1.532,0,0,0-.81-.713,7.322,7.322,0,0,0-1.63-.514,18.016,18.016,0,0,0-2.311-.31q-1.314-.1-2.9-.094a22.362,22.362,0,0,0-2.433.126,12.6,12.6,0,0,0-1.769.321,6.472,6.472,0,0,0-1.27.469,9.1,9.1,0,0,0-.974.574Z" transform="translate(-1607.037 -2209.2)" fill="#fcb048"/>
          </g>
          <path id="Path_31252" data-name="Path 31252" d="M1396.026,2161.423c-19.625,0-40.059,1.727-43.327,5.07a3.978,3.978,0,0,1,.357.376c2.755-2.321,19.627-4.658,42.97-4.658,23.941,0,41.085,2.459,43.161,4.837a4.045,4.045,0,0,1,.329-.373C1436.817,2163.214,1416,2161.423,1396.026,2161.423Z" transform="translate(-1351.981 -2160.804)" fill="url(#linear-gradient-26)"/>
        </g>
        <g id="Group_39736" data-name="Group 39736" transform="translate(0 20.478)">
          <path id="Path_31253" data-name="Path 31253" d="M1141.864,2077.258v9.762c0,3.155,19.705,5.712,44.013,5.712s44.014-2.557,44.014-5.712v-9.762Z" transform="translate(-1141.838 -2071.546)" fill="url(#linear-gradient-7)"/>
          <ellipse id="Ellipse_2869" data-name="Ellipse 2869" cx="44.013" cy="5.712" rx="44.013" ry="5.712" transform="translate(0.026)" fill="url(#linear-gradient-8)"/>
          <path id="Path_31254" data-name="Path 31254" d="M1185.484,2075.447c-21.528,0-44.039-2.056-44.039-6.022,0-.218.078-.6.3-.6s.124.3.124.517c0,2.515,17.914,5.318,43.619,5.318s43.62-2.8,43.62-5.318c0-.218.037-.422.255-.422s.165.291.165.509C1229.524,2073.394,1207.012,2075.447,1185.484,2075.447Z" transform="translate(-1141.445 -2063.629)" fill="url(#linear-gradient-9)"/>
          <g id="Group_39735" data-name="Group 39735" transform="translate(16.313 3.548)">
            <path id="Path_31255" data-name="Path 31255" d="M1431.059,2044.451c.432-.3.892-.594,1.383-.885a8.724,8.724,0,0,1,1.891-.788,18.043,18.043,0,0,1,2.9-.574,36.76,36.76,0,0,1,4.346-.235q2.551-.013,4.79.162a32.594,32.594,0,0,1,3.939.521,12.194,12.194,0,0,1,2.766.858,2.189,2.189,0,0,1,1.264,1.172l4.956.05a4.884,4.884,0,0,1,.95.088c.277.057.411.128.411.214l0,.408-6.371-.062a3.211,3.211,0,0,1-1.708,1.372,17.319,17.319,0,0,1-3.494,1.078l-2.32-.323a2.7,2.7,0,0,1-.512-.121c-.134-.049-.2-.1-.2-.159q0-.118.538-.268t1.215-.374a12.259,12.259,0,0,0,1.33-.526,1.8,1.8,0,0,0,.872-.724l-15.038-.149a14.157,14.157,0,0,1-1.328.857,8.646,8.646,0,0,1-1.951.758,20.4,20.4,0,0,1-3.026.547,42.69,42.69,0,0,1-4.563.223c-1.378.007-2.72-.045-4.034-.156a27.623,27.623,0,0,1-3.5-.5,10.912,10.912,0,0,1-2.512-.823c-.652-.327-1.018-.7-1.093-1.126l-4.08-.042a5.333,5.333,0,0,1-.964-.085c-.281-.054-.425-.127-.425-.217l0-.408,5.578.053a3,3,0,0,1,1.525-1.123,17.457,17.457,0,0,1,2.831-.852l1.868.257c.567.08.849.173.85.28,0,.058-.115.129-.349.215s-.515.188-.838.307a7.693,7.693,0,0,0-.929.419,1.975,1.975,0,0,0-.68.544Zm-13.762.556a1.479,1.479,0,0,0,.741.692,5.908,5.908,0,0,0,1.417.479,14.472,14.472,0,0,0,1.91.275q1.065.088,2.227.082a23.121,23.121,0,0,0,2.364-.117,13.728,13.728,0,0,0,1.769-.3,8.265,8.265,0,0,0,1.33-.439,7.446,7.446,0,0,0,1.016-.543Zm32.738-.365a1.535,1.535,0,0,0-.81-.713,7.314,7.314,0,0,0-1.63-.514,18.01,18.01,0,0,0-2.311-.31q-1.314-.1-2.9-.094a22.253,22.253,0,0,0-2.433.126,12.566,12.566,0,0,0-1.768.321,6.466,6.466,0,0,0-1.27.47,9.009,9.009,0,0,0-.974.574Z" transform="translate(-1407.492 -2041.968)" fill="#fcb048"/>
          </g>
          <path id="Path_31256" data-name="Path 31256" d="M1196.48,1994.19c-19.625,0-40.059,1.727-43.327,5.07a3.981,3.981,0,0,1,.357.376c2.755-2.321,19.628-4.658,42.97-4.658,23.942,0,41.085,2.458,43.161,4.837a4.052,4.052,0,0,1,.329-.373C1237.271,1995.981,1216.454,1994.19,1196.48,1994.19Z" transform="translate(-1152.435 -1993.572)" fill="url(#linear-gradient-30)"/>
        </g>
        <g id="Group_39738" data-name="Group 39738" transform="translate(10.558 10.254)">
          <path id="Path_31257" data-name="Path 31257" d="M1314.043,1910.517v9.762c0,3.155,19.706,5.712,44.014,5.712s44.013-2.557,44.013-5.712v-9.762Z" transform="translate(-1314.017 -1904.805)" fill="url(#linear-gradient-7)"/>
          <ellipse id="Ellipse_2870" data-name="Ellipse 2870" cx="44.014" cy="5.712" rx="44.014" ry="5.712" transform="translate(0.026)" fill="url(#linear-gradient-8)"/>
          <path id="Path_31258" data-name="Path 31258" d="M1357.665,1908.7c-21.528,0-44.039-2.056-44.039-6.022,0-.218.078-.6.3-.6s.124.3.124.517c0,2.515,17.914,5.317,43.619,5.317s43.619-2.8,43.619-5.317c0-.218.037-.422.255-.422s.165.291.165.508C1401.7,1906.651,1379.193,1908.7,1357.665,1908.7Z" transform="translate(-1313.626 -1896.886)" fill="url(#linear-gradient-9)"/>
          <g id="Group_39737" data-name="Group 39737" transform="translate(16.313 3.548)">
            <path id="Path_31259" data-name="Path 31259" d="M1603.239,1877.708c.432-.3.891-.594,1.383-.885a8.723,8.723,0,0,1,1.891-.788,18.086,18.086,0,0,1,2.9-.574,36.812,36.812,0,0,1,4.346-.235q2.552-.012,4.791.162a32.572,32.572,0,0,1,3.939.521,12.189,12.189,0,0,1,2.766.858,2.188,2.188,0,0,1,1.264,1.172l4.956.05a4.875,4.875,0,0,1,.95.088c.277.056.411.128.411.214l0,.408-6.371-.062a3.211,3.211,0,0,1-1.708,1.371,17.312,17.312,0,0,1-3.494,1.078l-2.32-.323a2.687,2.687,0,0,1-.512-.121c-.134-.049-.2-.1-.2-.159q0-.118.538-.268t1.215-.374a12.241,12.241,0,0,0,1.329-.526,1.805,1.805,0,0,0,.872-.724l-15.038-.149a14.208,14.208,0,0,1-1.328.857,8.643,8.643,0,0,1-1.951.758,20.359,20.359,0,0,1-3.026.547,42.785,42.785,0,0,1-4.562.223c-1.378.007-2.72-.046-4.035-.156a27.6,27.6,0,0,1-3.5-.5,10.905,10.905,0,0,1-2.512-.822c-.652-.327-1.018-.7-1.094-1.126l-4.08-.042a5.351,5.351,0,0,1-.964-.085c-.281-.054-.425-.127-.425-.217l0-.408,5.578.053a3,3,0,0,1,1.525-1.124,17.447,17.447,0,0,1,2.831-.852l1.868.256c.568.08.849.173.85.28,0,.058-.115.13-.349.215s-.516.188-.838.307a7.664,7.664,0,0,0-.929.419,1.974,1.974,0,0,0-.68.544Zm-13.762.556a1.48,1.48,0,0,0,.741.692,5.909,5.909,0,0,0,1.418.478,14.461,14.461,0,0,0,1.91.275q1.065.088,2.227.082a23.169,23.169,0,0,0,2.364-.117,13.7,13.7,0,0,0,1.769-.3,8.267,8.267,0,0,0,1.33-.439,7.408,7.408,0,0,0,1.016-.543Zm32.737-.365a1.534,1.534,0,0,0-.81-.713,7.3,7.3,0,0,0-1.63-.514,17.99,17.99,0,0,0-2.311-.31q-1.314-.1-2.9-.094a22.334,22.334,0,0,0-2.433.126,12.569,12.569,0,0,0-1.769.321,6.451,6.451,0,0,0-1.27.47,9.062,9.062,0,0,0-.975.574Z" transform="translate(-1579.672 -1875.225)" fill="#fcb048"/>
          </g>
          <path id="Path_31260" data-name="Path 31260" d="M1368.661,1827.447c-19.625,0-40.059,1.727-43.327,5.07a3.978,3.978,0,0,1,.357.376c2.755-2.321,19.627-4.658,42.97-4.658,23.942,0,41.085,2.459,43.161,4.837a3.981,3.981,0,0,1,.329-.373C1409.452,1829.238,1388.635,1827.447,1368.661,1827.447Z" transform="translate(-1324.616 -1826.829)" fill="url(#linear-gradient-34)"/>
        </g>
        <g id="Group_39740" data-name="Group 39740" transform="translate(5.066)">
          <path id="Path_31261" data-name="Path 31261" d="M1224.487,1743.283v9.762c0,3.155,19.705,5.712,44.013,5.712s44.013-2.557,44.013-5.712v-9.762Z" transform="translate(-1224.461 -1737.571)" fill="url(#linear-gradient-7)"/>
          <ellipse id="Ellipse_2871" data-name="Ellipse 2871" cx="44.013" cy="5.712" rx="44.013" ry="5.712" transform="translate(0.026)" fill="url(#linear-gradient-8)"/>
          <path id="Path_31262" data-name="Path 31262" d="M1268.107,1741.472c-21.528,0-44.039-2.056-44.039-6.022,0-.218.078-.6.3-.6s.124.3.124.517c0,2.515,17.914,5.318,43.619,5.318s43.619-2.8,43.619-5.318c0-.218.037-.422.255-.422s.165.291.165.509C1312.147,1739.419,1289.635,1741.472,1268.107,1741.472Z" transform="translate(-1224.068 -1729.654)" fill="url(#linear-gradient-9)"/>
          <g id="Group_39739" data-name="Group 39739" transform="translate(16.313 3.548)">
            <path id="Path_31263" data-name="Path 31263" d="M1513.681,1710.474c.432-.3.891-.594,1.383-.885a8.714,8.714,0,0,1,1.891-.788,18.085,18.085,0,0,1,2.9-.574,36.8,36.8,0,0,1,4.346-.235q2.551-.013,4.79.162a32.567,32.567,0,0,1,3.939.522,12.193,12.193,0,0,1,2.766.858,2.19,2.19,0,0,1,1.264,1.172l4.956.05a4.876,4.876,0,0,1,.95.088c.277.057.411.128.411.214l0,.408-6.371-.061a3.211,3.211,0,0,1-1.708,1.371,17.316,17.316,0,0,1-3.494,1.078l-2.32-.323a2.7,2.7,0,0,1-.512-.121c-.134-.049-.2-.1-.2-.16q0-.118.538-.268t1.215-.374a12.182,12.182,0,0,0,1.33-.526,1.806,1.806,0,0,0,.872-.724l-15.038-.149a14.284,14.284,0,0,1-1.328.857,8.66,8.66,0,0,1-1.951.758,20.436,20.436,0,0,1-3.026.547,42.785,42.785,0,0,1-4.563.223c-1.378.007-2.72-.046-4.035-.156a27.633,27.633,0,0,1-3.5-.5,10.918,10.918,0,0,1-2.512-.823c-.651-.327-1.017-.7-1.093-1.126l-4.08-.042a5.333,5.333,0,0,1-.964-.085c-.281-.054-.425-.127-.425-.217l0-.408,5.578.053a3,3,0,0,1,1.525-1.123,17.455,17.455,0,0,1,2.831-.852l1.868.256c.567.08.849.173.85.28,0,.058-.115.13-.349.215s-.515.188-.837.307a7.656,7.656,0,0,0-.929.419,1.969,1.969,0,0,0-.679.544Zm-13.762.556a1.48,1.48,0,0,0,.741.692,5.909,5.909,0,0,0,1.418.479,14.453,14.453,0,0,0,1.91.275q1.065.088,2.227.082a23.235,23.235,0,0,0,2.364-.117,13.755,13.755,0,0,0,1.769-.3,8.26,8.26,0,0,0,1.33-.439,7.412,7.412,0,0,0,1.016-.543Zm32.737-.365a1.533,1.533,0,0,0-.81-.713,7.3,7.3,0,0,0-1.63-.515,18.024,18.024,0,0,0-2.311-.31q-1.315-.1-2.9-.094a22.3,22.3,0,0,0-2.433.126,12.55,12.55,0,0,0-1.769.321,6.457,6.457,0,0,0-1.27.47,9.008,9.008,0,0,0-.974.574Z" transform="translate(-1490.114 -1707.992)" fill="#fcb048"/>
          </g>
          <path id="Path_31264" data-name="Path 31264" d="M1279.1,1660.215c-19.625,0-40.059,1.727-43.327,5.07a3.992,3.992,0,0,1,.357.376c2.755-2.321,19.628-4.658,42.97-4.658,23.942,0,41.085,2.459,43.161,4.837a4.045,4.045,0,0,1,.329-.373C1319.894,1662.006,1299.077,1660.215,1279.1,1660.215Z" transform="translate(-1235.058 -1659.597)" fill="url(#linear-gradient-38)"/>
        </g>
      </g>
      <g id="Group_39746" data-name="Group 39746" transform="translate(0 0)">
        <g id="Group_39743" data-name="Group 39743" transform="translate(63.915)">
          <path id="Path_31265" data-name="Path 31265" d="M1684.386,559.209c0,20.29-15.866,36.251-36.144,35.628-21.1-.648-38.852-18.874-38.852-40.684s17.749-37.643,38.852-35.446C1668.52,520.819,1684.386,538.919,1684.386,559.209Z" transform="translate(-1609.39 -516.754)" fill="url(#linear-gradient-39)"/>
          <path id="Path_31266" data-name="Path 31266" d="M1773.75,530.676c0,20.29-15.866,36.251-36.144,35.628-21.1-.648-38.852-18.874-38.852-40.684s17.749-37.643,38.852-35.446C1757.884,492.285,1773.75,510.386,1773.75,530.676Z" transform="translate(-1693.275 -489.97)" fill="url(#linear-gradient-40)"/>
          <path id="Path_31267" data-name="Path 31267" d="M1800.219,557.352c0,19.4-15.18,34.629-34.552,34-20.123-.652-37.019-18.045-37.019-38.827s16.9-35.9,37.019-33.835C1785.038,520.676,1800.219,537.956,1800.219,557.352Z" transform="translate(-1721.336 -516.754)" fill="url(#linear-gradient-41)"/>
          <path id="Path_31268" data-name="Path 31268" d="M1819.063,576.4c0,18.756-14.689,33.469-33.412,32.84-19.424-.652-35.714-17.452-35.714-37.5s16.289-34.652,35.714-32.685C1804.374,540.949,1819.063,557.642,1819.063,576.4Z" transform="translate(-1741.32 -535.877)" fill="url(#linear-gradient-42)"/>
          <path id="Path_31270" data-name="Path 31270" d="M1779.605,583.8c1.129-11.149,11.376-15.869,10.038-26.125-.824-6.321-5.615-11.648-10.96-15.807-16.21,1.7-28.746,15.123-28.746,32.679,0,20.049,16.289,36.848,35.714,37.5a33.741,33.741,0,0,0,5.519-.27C1783.456,604.1,1778.635,593.374,1779.605,583.8Z" transform="translate(-1741.32 -538.681)" opacity="0.3" fill="url(#linear-gradient-43)" style="mix-blend-mode: multiply;isolation: isolate"/>
        </g>
        <g id="Group_39745" data-name="Group 39745" transform="translate(0 35.362)">
          <path id="Path_31271" data-name="Path 31271" d="M1753.974,1072.574s1.006-.14.692-2.061c-.246-1.506-.06-2.012.3-1.745s.406,1.137.406,1.137a7.116,7.116,0,0,0,1.83-2.555c.534-1.449.877-.229.991.5a6.565,6.565,0,0,1-1.258,3.393,9.06,9.06,0,0,0-1.22,2.268Z" transform="translate(-1681.194 -1066.674)" fill="url(#linear-gradient-44)"/>
          <path id="Path_31272" data-name="Path 31272" d="M1677.5,1371.816l-1.322-2.53v-3.457l2.544,5.987Z" transform="translate(-1608.168 -1347.486)" fill="url(#linear-gradient-44)"/>
          <path id="Path_31273" data-name="Path 31273" d="M1064.823,3073.224s6.665,3.029,6.774,3.513-4.286-.162-6.08-.093-3.27-.46-3.108-1.22.791-2.672.791-2.672Z" transform="translate(-1032.022 -2949.745)" fill="url(#linear-gradient-46)"/>
          <path id="Path_31274" data-name="Path 31274" d="M1068.111,3034.857l-.405,3a2.353,2.353,0,0,1-1.764-.069l-.3-3.291Z" transform="translate(-1035.065 -2913.837)" fill="url(#linear-gradient-47)"/>
          <path id="Path_31275" data-name="Path 31275" d="M578.735,3041.525l-.775,1.244a1.485,1.485,0,0,0-.177,1.164c.271,1.035.813,3.052,1.049,3.577.321.716,4.635,1.142,4.635,1.142s.385-.541-.511-1.195-1.471-.757-1.787-1.721a25.247,25.247,0,0,1-.527-3.693Z" transform="translate(-577.076 -2920.433)" fill="url(#linear-gradient-48)"/>
          <path id="Path_31276" data-name="Path 31276" d="M593.391,2984.474a40.239,40.239,0,0,0-1.668,4.43s-.448.573-1.3-.273-.385-.379-.385-.379l.16-4.135Z" transform="translate(-588.506 -2866.545)" fill="url(#linear-gradient-49)"/>
          <path id="Path_31277" data-name="Path 31277" d="M922.585,1993.306c.352,8.951.366,18.677-.149,29.066-.58,11.7-1.745,22.512-3.214,32.314-.546.017-1.12.02-1.719,0q-.607-.017-1.176-.057a74.455,74.455,0,0,1-2.47-7.9,76,76,0,0,1-1.724-9.248c-1.283-10.139.221-11.023-.821-18.537-.922-6.654-2.234-6.914-3.774-16.362-1.671-10.251-.427-11.789.178-12.345C910.291,1987.878,916.34,1989.488,922.585,1993.306Z" transform="translate(-885.872 -1932.573)" fill="url(#linear-gradient-50)"/>
          <path id="Path_31278" data-name="Path 31278" d="M907.717,1990.264c2.456-2.256,8.073-.89,14.006,2.553-6.825,7.374-7.569,12.157-6.751,15.26.925,3.508,3.736,4.518,3.725,8.354-.013,4.714-4.267,5.962-4.177,10.95.06,3.3,1.929,3.264,2.371,7.338.522,4.82-1.92,6.481-1.129,10.047.34,1.534,1.312,3.539,4.078,5.6-.2,1.464-.4,2.914-.617,4.336-.546.017-1.12.02-1.719,0-.4-.011-.8-.031-1.176-.057a74.4,74.4,0,0,1-2.47-7.9,75.973,75.973,0,0,1-1.724-9.248c-1.283-10.139.221-11.023-.821-18.537-.922-6.654-2.234-6.914-3.774-16.362C905.868,1992.357,907.112,1990.819,907.717,1990.264Z" transform="translate(-885.873 -1932.594)" opacity="0.3" fill="url(#linear-gradient-51)" style="mix-blend-mode: multiply;isolation: isolate"/>
          <path id="Path_31279" data-name="Path 31279" d="M599.506,1978.65a201,201,0,0,0-27.555,58.976,3.591,3.591,0,0,1-1.967.3,3.66,3.66,0,0,1-2.228-1.2,57.893,57.893,0,0,1-.511-14.273,49.184,49.184,0,0,1,2.007-10.728c1.622-5.233,2.738-5.527,4.854-11.063,2.2-5.746,1.665-7.18,3.768-14.371a94.9,94.9,0,0,1,4.7-12.609Z" transform="translate(-567.021 -1918.068)" fill="url(#linear-gradient-52)"/>
          <path id="Path_31280" data-name="Path 31280" d="M1033.631,1261.731a15.432,15.432,0,0,1-1.033,4.381c-.76,1.684-4.513,2.642-5.279,3s1.367,1.538,3.536,1.824,8.4-.015,9.544-.805-.876-.791-2.412-1.409-2.339-3.684-2.022-5.053S1033.631,1261.731,1033.631,1261.731Z" transform="translate(-998.945 -1249.771)" fill="url(#linear-gradient-53)"/>
          <g id="Group_39744" data-name="Group 39744" transform="translate(31.872 5.136)">
            <path id="Path_31281" data-name="Path 31281" d="M1092.756,1155.33c1.143-1.517.656-4.494-.364-4.876-.292-.109-.489.045-3.4,2.424-1.443,1.182-2.145,1.79-2.183,2.6a2.426,2.426,0,0,0,.521,1.507,6.122,6.122,0,0,0,1.031.915c.519.4.489.392.646.507a8.5,8.5,0,0,0,2.224,1.13,5.9,5.9,0,0,1-.026-1.027,5.231,5.231,0,0,1,.25-1.309A5.9,5.9,0,0,1,1092.756,1155.33Z" transform="translate(-1086.812 -1150.429)" fill="url(#linear-gradient-54)"/>
            <path id="Path_31282" data-name="Path 31282" d="M1113.959,1227.081a3.208,3.208,0,0,0,3.141.378c1.544-.677.489-4.309-.8-4.695a2.125,2.125,0,0,0-1.634.365c-.291.208-.352.383-.834.715-.445.306-.6.3-.707.48-.129.223-.126.655.561,1.58a.915.915,0,0,0-1.03.032.573.573,0,0,0-.136.282C1112.45,1226.7,1113.007,1227.087,1113.959,1227.081Z" transform="translate(-1110.941 -1218.284)" fill="url(#linear-gradient-55)"/>
          </g>
          <path id="Path_31283" data-name="Path 31283" d="M1117.771,1415.64c5.617-2.02,9.789,7.073,18.29,5.806,5.661-.844,9.623-5.743,12.4-3.9a3.8,3.8,0,0,1,1.442,2.376,24.566,24.566,0,0,1-10.444,12.319c-9.488,5.281-23.871,3.733-26.843-3.2C1110.669,1424.49,1113.44,1417.2,1117.771,1415.64Z" transform="translate(-1078.567 -1393.967)" fill="url(#linear-gradient-56)"/>
          <path id="Path_31284" data-name="Path 31284" d="M669.656,1209.036c2.452,2.221,6.7,2.4,7.626,2.44,4.364.185,4.987-1.709,9.3-1.525s5.471,2.162,8.541,1.373c.544-.14,2.668-.758,4.926-3.708,6.4-8.361,1.05-17.561,7.428-29.388a18.978,18.978,0,0,1,3.508-5.033c5.5-5.443,10.753-2.968,17.689-7.336,5.69-3.584,9.51-10.787,7.858-14.034-.748-1.472-1.4-1.277-2.4-1.4-1.689,2.864-5.869,6.357-10.678,8.391-4.563,1.93-8.078,1.007-15.06,1.105-4.267.06-11.592.162-17.4,2.242-14.525,5.2-19.9,22.881-21.492,28.109C668.114,1194.846,665.071,1204.883,669.656,1209.036Z" transform="translate(-661.077 -1145.293)" fill="url(#linear-gradient-57)"/>
          <path id="Path_31285" data-name="Path 31285" d="M681.553,1495.511c-1.584-2.043,6.587-7.67,5.491-14.235-.923-5.528-7.475-6.08-9.151-11.185-.724-2.205-.588-5.417,2.493-10.2-6.755,7.326-9.761,17.188-10.881,20.872-1.39,4.57-4.433,14.607.152,18.76,2.452,2.22,6.7,2.4,7.626,2.44,4.364.185,4.987-1.709,9.3-1.525s5.471,2.162,8.541,1.373c.544-.14,2.669-.758,4.926-3.708.034-.044.062-.088.1-.132a13.16,13.16,0,0,0-6.191-3.48C687.945,1493.151,682.836,1497.166,681.553,1495.511Z" transform="translate(-661.078 -1435.785)" opacity="0.3" fill="url(#linear-gradient-58)" style="mix-blend-mode: multiply;isolation: isolate"/>
        </g>
      </g>
    </g>
  </g>
</svg>
