<svg xmlns="http://www.w3.org/2000/svg" width="32" height="32" viewBox="0 0 32 32">
  <g id="Group_40264" data-name="Group 40264" transform="translate(-44 -266)">
    <g id="Group_40263" data-name="Group 40263" transform="translate(-1 -386)" opacity="0">
      <rect id="Rectangle_18710" data-name="Rectangle 18710" width="32" height="32" transform="translate(45 652)" fill="#efefef"/>
    </g>
    <g id="noun_gold_4124731" transform="translate(40 262)">
      <g id="Group_40240" data-name="Group 40240" transform="translate(6 8)">
        <path id="Path_44123" data-name="Path 44123" d="M6.354,15.861h-1.9a.453.453,0,1,1,0-.905h1.9a.453.453,0,1,1,0,.905Zm20.011-.905h-1.9a.453.453,0,0,0,0,.905h1.9a.453.453,0,1,0,0-.905ZM15.409,6.806a.453.453,0,0,0,.453-.453v-1.9a.453.453,0,1,0-.905,0v1.9A.453.453,0,0,0,15.409,6.806ZM8.685,9.326a.453.453,0,1,0,.64-.64L7.532,6.891a.453.453,0,0,0-.64.64Zm13.127.133a.451.451,0,0,0,.32-.133l1.794-1.794a.453.453,0,0,0-.64-.64L21.492,8.686a.453.453,0,0,0,.32.773Z" transform="translate(-1.826 -4)" fill="#007c3d" stroke="#357a44" stroke-width="0.3"/>
        <path id="Path_44124" data-name="Path 44124" d="M30.034,30.351l-1.811-2.716a.453.453,0,0,0-.377-.2H26.768l-1.233-2.466a.452.452,0,0,0-.4-.25H24.051L22.818,22.25a.452.452,0,0,0-.4-.25H19.7a.453.453,0,0,0-.405.25l-1.233,2.466H16.98a.453.453,0,0,0-.405.25l-1.233,2.466H14.264a.453.453,0,0,0-.377.2l-1.811,2.716a.453.453,0,0,0,.377.7h17.2a.453.453,0,0,0,.377-.7ZM24.85,25.622l.905,1.811H21.788l.905-1.811Zm-4.873-2.716h2.157l.905,1.811H19.071Zm1.7,2.716-.626,1.251-.626-1.251Zm-4.421,0h2.157l.905,1.811H16.355ZM13.3,30.149l1.207-1.811H16.7l.905,1.811Zm5.04-.56-.626-1.251h1.251Zm.733.56.905-1.811h2.157l.905,1.811Zm4.7-.56-.626-1.251H24.4Zm.733.56.905-1.811H27.6l1.207,1.811Z" transform="translate(-7.473 -15.119)" fill="#007c3d" stroke="#357a44" stroke-width="0.3"/>
        <path id="Path_44125" data-name="Path 44125" d="M28.546,41.336a1.334,1.334,0,0,0-1.284-.087c-.017.008-5.355,3.332-5.355,3.332a1.356,1.356,0,0,0-.892-.335H18.23c-.327-1.045-1.77-1.811-3.553-1.811-1.681,0-3.945,1.079-4.433,2.264H9.161a1.356,1.356,0,0,0-1.275-.906H2.453A.453.453,0,0,0,2,44.247v5.886a.453.453,0,0,0,.453.453H7.886a1.357,1.357,0,0,0,1.266-.877l11.411.877a.452.452,0,0,0,.3-.115l7.819-6.965a1.358,1.358,0,0,0,.482-1.04A1.335,1.335,0,0,0,28.546,41.336ZM2.905,44.7H6.527v4.98H2.905Zm5.433,4.527a.453.453,0,0,1-.453.453H7.433V44.7h.453a.453.453,0,0,1,.453.453Zm19.751-6.4-7.684,6.844L9.244,48.808V45.6H10.6a.453.453,0,0,0,.453-.453c0-.614,1.955-1.811,3.622-1.811,1.6,0,2.716.716,2.716,1.358a.453.453,0,0,0,.453.453h3.169a.456.456,0,0,1,.4.239.467.467,0,0,1,.054.214.441.441,0,0,1-.139.322.433.433,0,0,1-.314.13H15.582a.453.453,0,1,0,0,.905h5.433A1.365,1.365,0,0,0,22.374,45.6a1.355,1.355,0,0,0-.029-.229l5.319-3.314a.434.434,0,0,1,.6.406A.46.46,0,0,1,28.09,42.822Z" transform="translate(-2 -25.585)" fill="#007c3d" stroke="#357a44" stroke-width="0.3"/>
      </g>
    </g>
  </g>
</svg>
