<svg xmlns="http://www.w3.org/2000/svg" xmlns:xlink="http://www.w3.org/1999/xlink" width="103.336" height="33.803" viewBox="0 0 103.336 33.803"><defs><style>.a{fill:none;}.b{fill:#1a1818;}.c{clip-path:url(#a);}.d{fill:url(#b);}.e{fill:url(#c);}.f{fill:url(#d);}.g{fill:url(#e);}.h{fill:#f9f9f9;}.i{fill:#f7f8f8;}</style><clipPath id="a"><path class="a" d="M149.649,338.063l-4.66-2.69L136,330.183c-.5-.288-1-.114-1,.488v21.143c0,.451.355.646.789.4l9.195-5.309,4.659-2.69,4.479-2.585c.525-.3.475-.72.032-.959S149.649,338.063,149.649,338.063Z" transform="translate(-135.006 -330.047)"/></clipPath><linearGradient id="b" x1="0.5" x2="0.5" y2="1" gradientUnits="objectBoundingBox"><stop offset="0" stop-color="#006aa2"/><stop offset="0.345" stop-color="#2f8da6"/><stop offset="0.786" stop-color="#66b6ac"/><stop offset="1" stop-color="#7cc6af"/></linearGradient><linearGradient id="c" y1="0.5" x2="1" y2="0.5" gradientUnits="objectBoundingBox"><stop offset="0" stop-color="#4ab59d"/><stop offset="1" stop-color="#dfe385"/></linearGradient><linearGradient id="d" x1="0.5" x2="0.5" y2="1" gradientUnits="objectBoundingBox"><stop offset="0" stop-color="#e4282d"/><stop offset="0.316" stop-color="#ba2d4e"/><stop offset="0.777" stop-color="#83357b"/><stop offset="1" stop-color="#6e388d"/></linearGradient><linearGradient id="e" x1="0.5" x2="0.5" y2="1" gradientUnits="objectBoundingBox"><stop offset="0" stop-color="#f07165"/><stop offset="0.659" stop-color="#faa460"/><stop offset="1" stop-color="#ffba5e"/></linearGradient></defs><g transform="translate(0)"><path class="b" d="M199.977,325.308a4.568,4.568,0,0,1-4.567,4.569h-94.2a4.569,4.569,0,0,1-4.568-4.569V300.642a4.569,4.569,0,0,1,4.568-4.568h94.2a4.568,4.568,0,0,1,4.567,4.568Z" transform="translate(-96.641 -296.074)"/><g transform="translate(7.751 6.864)"><g class="c" transform="translate(0 0)"><path class="d" d="M135.006,328.285v22.891l11.543-11.445Z" transform="translate(-135.006 -328.641)"/><path class="e" d="M149.649,336.328l-4.66-2.69-9.984-5.764v.083L146.549,339.4Z" transform="translate(-135.006 -328.312)"/><path class="f" d="M135.006,396.383v.083l9.984-5.765,4.659-2.69-3.1-3.074Z" transform="translate(-135.006 -373.848)"/><path class="g" d="M195.24,369.721l-3.1,3.074,3.1,3.074,5.325-3.074Z" transform="translate(-180.597 -361.705)"/></g></g><g transform="translate(77.324 12.855)"><path class="h" d="M482.465,379.832a2.879,2.879,0,0,1-1.187-.24,2.238,2.238,0,0,1-.9-.738H480.3a8.94,8.94,0,0,1,.073,1.105V382.7h-1.008v-9.646h.82l.139.911h.048a2.344,2.344,0,0,1,.906-.79,2.75,2.75,0,0,1,1.184-.243,2.46,2.46,0,0,1,2.044.905,4.82,4.82,0,0,1-.012,5.087A2.467,2.467,0,0,1,482.465,379.832Zm-.146-6.044a1.787,1.787,0,0,0-1.476.565,2.909,2.909,0,0,0-.468,1.8v.225a3.33,3.33,0,0,0,.468,2.008,1.779,1.779,0,0,0,1.5.6,1.561,1.561,0,0,0,1.352-.7,3.314,3.314,0,0,0,.489-1.926,3.19,3.19,0,0,0-.489-1.91A1.609,1.609,0,0,0,482.32,373.788Z" transform="translate(-479.368 -370.259)"/><path class="h" d="M515.952,369.154h-1.008V359.7h1.008Z" transform="translate(-507.756 -359.703)"/><path class="h" d="M530.489,379.758l-.2-.948h-.049a2.793,2.793,0,0,1-.993.847,3.016,3.016,0,0,1-1.236.222,2.224,2.224,0,0,1-1.552-.51,1.861,1.861,0,0,1-.562-1.452q0-2.016,3.225-2.114l1.13-.037v-.413a1.686,1.686,0,0,0-.337-1.157,1.385,1.385,0,0,0-1.078-.374,4.389,4.389,0,0,0-1.883.51l-.31-.772a4.74,4.74,0,0,1,1.078-.419,4.669,4.669,0,0,1,1.175-.152,2.536,2.536,0,0,1,1.765.528,2.207,2.207,0,0,1,.574,1.695v4.543Zm-2.278-.71a2.048,2.048,0,0,0,1.479-.516,1.911,1.911,0,0,0,.538-1.446v-.6l-1.009.042a3.667,3.667,0,0,0-1.734.374,1.127,1.127,0,0,0-.531,1.029,1.037,1.037,0,0,0,.331.832A1.372,1.372,0,0,0,528.211,379.048Z" transform="translate(-516.497 -370.307)"/><path class="h" d="M555.222,373.533H556.3l1.458,3.8a14.5,14.5,0,0,1,.6,1.877h.049q.079-.31.331-1.061t1.649-4.613h1.082l-2.861,7.581a3.781,3.781,0,0,1-.993,1.595,2.113,2.113,0,0,1-1.394.47,4.079,4.079,0,0,1-.911-.1v-.808a3.523,3.523,0,0,0,.747.073,1.54,1.54,0,0,0,1.482-1.167l.37-.947Z" transform="translate(-539.897 -370.739)"/></g><g transform="translate(31.359 12.111)"><path class="h" d="M381.737,374.614a2.268,2.268,0,0,1-.181,3.857.979.979,0,0,0-.39.683.764.764,0,0,0,.362.6l.5.389a2.424,2.424,0,0,1,1.169,1.95c0,1.309-1.267,2.631-3.662,2.631-2.019,0-2.994-.96-2.994-1.992a2,2,0,0,1,1.072-1.7,6,6,0,0,1,2.659-.641,1.457,1.457,0,0,1-.418-.946A1.257,1.257,0,0,1,380,378.9c-.154.014-.307.028-.446.028a2.2,2.2,0,0,1-2.311-2.186,2.505,2.505,0,0,1,.891-1.866,3.8,3.8,0,0,1,2.493-.766h2.868l-.891.5Zm-.989,6.183a2.163,2.163,0,0,0-.32-.015,5.571,5.571,0,0,0-1.462.224,1.564,1.564,0,0,0-1.2,1.434c0,.988.961,1.7,2.451,1.7,1.336,0,2.047-.642,2.047-1.5C382.266,381.924,381.806,381.549,380.748,380.8Zm.4-2.646a1.409,1.409,0,0,0,.347-1.017c0-1-.6-2.562-1.754-2.562a1.3,1.3,0,0,0-.975.46,1.608,1.608,0,0,0-.306,1.03c0,.933.543,2.478,1.741,2.478A1.426,1.426,0,0,0,381.152,378.151Z" transform="translate(-351.352 -370.457)"/><path class="h" d="M345.465,379.794a3.281,3.281,0,0,1-3.392-3.281,3.445,3.445,0,0,1,3.6-3.377A3.25,3.25,0,0,1,349,376.416,3.4,3.4,0,0,1,345.465,379.794Zm1.737-1.126a2.515,2.515,0,0,0,.418-1.544c0-1.224-.584-3.559-2.308-3.559a1.936,1.936,0,0,0-1.251.473,2.1,2.1,0,0,0-.64,1.7c0,1.375.681,3.64,2.364,3.64A1.776,1.776,0,0,0,347.2,378.668Z" transform="translate(-323.846 -369.677)"/><path class="h" d="M308.168,379.794a3.281,3.281,0,0,1-3.392-3.281,3.445,3.445,0,0,1,3.6-3.377,3.25,3.25,0,0,1,3.322,3.281A3.4,3.4,0,0,1,308.168,379.794Zm1.738-1.126a2.519,2.519,0,0,0,.417-1.544c0-1.224-.584-3.559-2.308-3.559a1.937,1.937,0,0,0-1.251.473,2.1,2.1,0,0,0-.639,1.7c0,1.375.681,3.64,2.364,3.64A1.777,1.777,0,0,0,309.906,378.668Z" transform="translate(-294.084 -369.677)"/><path class="h" d="M261.486,367.148l-2,.461a14.81,14.81,0,0,1-2.306.237,4.966,4.966,0,0,1-5.325-5.06,5.283,5.283,0,0,1,5.647-5.226,8.045,8.045,0,0,1,2.138.293,5.45,5.45,0,0,1,1.845.867l-1.16,1.1-.489.111.349-.559a3.994,3.994,0,0,0-2.991-1.313,3.86,3.86,0,0,0-3.872,4.124,4.943,4.943,0,0,0,4.947,5.1,4.163,4.163,0,0,0,1.775-.349v-2.25l-2.11.112,1.117-.6h2.963l-.363.349a.326.326,0,0,0-.14.223c-.015.126-.028.532-.028.671Z" transform="translate(-251.856 -357.249)"/><path class="h" d="M412.39,365.515c-.461-.042-.558-.125-.558-.671v-7.91c0-.03,0-.061.008-.09.056-.489.2-.573.63-.825h-2l-1.049.5h1.069v8.63c0,.279-.055.321-.377.74h2.474l.517-.307C412.866,365.557,412.628,365.543,412.39,365.515Z" transform="translate(-377.587 -356.019)"/><path class="h" d="M432.256,379.319c-.152.083-.3.181-.457.25a3.233,3.233,0,0,1-1.348.264,2.966,2.966,0,0,1-1.846-.542,3.592,3.592,0,0,1-1.415-2.929,3.146,3.146,0,0,1,3.179-3.206,2.7,2.7,0,0,1,1.43.389,2.3,2.3,0,0,1,.97,1.373l-3.261,1.319-1.069.083a3.083,3.083,0,0,0,2.859,2.789,3.587,3.587,0,0,0,1.693-.485Zm-1.3-4.137c.263-.1.4-.18.4-.375a1.377,1.377,0,0,0-1.374-1.194,1.71,1.71,0,0,0-1.6,1.929c0,.236.028.486.042.736Z" transform="translate(-391.767 -369.694)"/><g transform="translate(41.415 3.462)"><path class="h" d="M457.26,373.251v.916h-.111v-.916h-.3v-.095h.717v.095Z" transform="translate(-456.846 -373.156)"/><path class="h" d="M462.061,374.167v-.924h-.005l-.282.924h-.087l-.285-.924h0v.924h-.1v-1.011h.173l.258.817h0l.254-.817h.176v1.011Z" transform="translate(-460.399 -373.156)"/></g></g><g transform="translate(31.382 6.81)"><path class="i" d="M254.726,332.929h-.694a4.606,4.606,0,0,0-.2-.812h-1a4.2,4.2,0,0,0-.2.812h-.653q0-.085.507-1.389a10.92,10.92,0,0,0,.507-1.437h.82a11.994,11.994,0,0,0,.459,1.416A12.4,12.4,0,0,1,254.726,332.929Zm-1-1.226a12.275,12.275,0,0,1-.371-1.211h-.035a12.705,12.705,0,0,1-.384,1.211Z" transform="translate(-251.974 -330.038)"/><path class="i" d="M270.249,332.929h-.536a5.281,5.281,0,0,0-.6-.94,5.176,5.176,0,0,1-.712-1.226h-.035a7.648,7.648,0,0,1,.054.859q0,.536.03,1.307h-.534q.033-.673.033-1.478t-.033-1.348h.645a4.084,4.084,0,0,0,.536.918,5.4,5.4,0,0,1,.655,1.157h.033a8.24,8.24,0,0,1-.052-.868q0-.588-.03-1.207h.543q-.031.538-.031,1.348T270.249,332.929Z" transform="translate(-264.698 -330.038)"/><path class="i" d="M285.587,331.366a1.6,1.6,0,0,1-.4,1.076,1.379,1.379,0,0,1-1.107.46q-.321,0-.885-.026.028-.656.028-1.478,0-.79-.028-1.348h.38q.093,0,.278-.007c.123,0,.2-.006.241-.006a1.463,1.463,0,0,1,1.136.391A1.351,1.351,0,0,1,285.587,331.366Zm-.593.093a1.046,1.046,0,0,0-.243-.7.921.921,0,0,0-.742-.285,2.305,2.305,0,0,0-.256.019q.022.434.022.907,0,.519.022,1.029a1.437,1.437,0,0,0,.282.028.82.82,0,0,0,.691-.29A1.118,1.118,0,0,0,284.995,331.46Z" transform="translate(-276.891 -329.986)"/><path class="i" d="M300.338,332.877H299.7a4.259,4.259,0,0,0-.386-.948.506.506,0,0,0-.434-.18l-.241,0q0,.558.02,1.126h-.6q.028-.656.028-1.478,0-.79-.028-1.348h.375q.065,0,.272-.007t.383-.006q1,0,1,.681a.765.765,0,0,1-.569.753v.033a.678.678,0,0,1,.384.342A7.549,7.549,0,0,1,300.338,332.877Zm-.814-2q0-.432-.556-.432a1.893,1.893,0,0,0-.36.03q.024.336.024.877.119,0,.2,0Q299.525,331.36,299.525,330.88Z" transform="translate(-288.742 -329.986)"/><path class="i" d="M313.86,331.206a1.559,1.559,0,0,1-.408,1.1,1.324,1.324,0,0,1-1.009.438,1.275,1.275,0,0,1-.959-.4,1.417,1.417,0,0,1-.386-1.023,1.558,1.558,0,0,1,.408-1.1,1.324,1.324,0,0,1,1.009-.438,1.277,1.277,0,0,1,.959.4A1.416,1.416,0,0,1,313.86,331.206Zm-.6.063a1.12,1.12,0,0,0-.232-.736.715.715,0,0,0-.573-.282.662.662,0,0,0-.538.284,1.134,1.134,0,0,0-.221.718,1.118,1.118,0,0,0,.233.735.715.715,0,0,0,.572.283.661.661,0,0,0,.538-.285A1.136,1.136,0,0,0,313.261,331.269Z" transform="translate(-299.152 -329.78)"/><path class="i" d="M328.419,332.929H327.8q.028-.673.028-1.478T327.8,330.1h.614q-.028.547-.028,1.348Q328.391,332.269,328.419,332.929Z" transform="translate(-312.485 -330.038)"/><path class="i" d="M336.986,331.366a1.6,1.6,0,0,1-.4,1.076,1.379,1.379,0,0,1-1.107.46q-.321,0-.885-.026.028-.656.028-1.478,0-.79-.028-1.348h.38q.093,0,.278-.007t.241-.006a1.463,1.463,0,0,1,1.136.391A1.351,1.351,0,0,1,336.986,331.366Zm-.592.093a1.047,1.047,0,0,0-.243-.7.922.922,0,0,0-.742-.285,2.3,2.3,0,0,0-.256.019q.022.434.022.907,0,.519.022,1.029a1.438,1.438,0,0,0,.282.028.82.82,0,0,0,.691-.29A1.118,1.118,0,0,0,336.394,331.46Z" transform="translate(-317.906 -329.986)"/><path class="i" d="M356.2,332.929h-.694a4.576,4.576,0,0,0-.2-.812h-1a4.188,4.188,0,0,0-.2.812h-.653q0-.085.507-1.389a10.9,10.9,0,0,0,.507-1.437h.82a11.974,11.974,0,0,0,.459,1.416A12.449,12.449,0,0,1,356.2,332.929Zm-1-1.226a12.311,12.311,0,0,1-.371-1.211h-.035q0,.085-.384,1.211Z" transform="translate(-332.948 -330.038)"/><path class="i" d="M371.458,330.791a.846.846,0,0,1-.385.766,1.714,1.714,0,0,1-.945.247q-.1,0-.145,0,0,.408.024,1.076h-.61q.028-.627.028-1.478,0-.781-.028-1.348h.378q.08,0,.308-.007t.395-.006a1.242,1.242,0,0,1,.7.187A.631.631,0,0,1,371.458,330.791Zm-.56.119q0-.464-.616-.464a1.734,1.734,0,0,0-.325.033q.024.41.024.929.054,0,.126,0Q370.9,331.412,370.9,330.91Z" transform="translate(-345.673 -329.986)"/><path class="i" d="M384.342,330.791a.846.846,0,0,1-.385.766,1.715,1.715,0,0,1-.945.247c-.068,0-.116,0-.145,0q0,.408.024,1.076h-.61q.028-.627.028-1.478,0-.781-.028-1.348h.378q.08,0,.308-.007t.395-.006a1.242,1.242,0,0,1,.7.187A.631.631,0,0,1,384.342,330.791Zm-.56.119q0-.464-.616-.464a1.734,1.734,0,0,0-.325.033q.024.41.024.929.054,0,.126,0Q383.782,331.412,383.782,330.91Z" transform="translate(-355.954 -329.986)"/><path class="i" d="M402.638,331.206a1.558,1.558,0,0,1-.408,1.1,1.324,1.324,0,0,1-1.009.438,1.275,1.275,0,0,1-.959-.4,1.418,1.418,0,0,1-.386-1.023,1.558,1.558,0,0,1,.408-1.1,1.324,1.324,0,0,1,1.009-.438,1.277,1.277,0,0,1,.959.4A1.417,1.417,0,0,1,402.638,331.206Zm-.6.063a1.119,1.119,0,0,0-.232-.736.715.715,0,0,0-.573-.282.662.662,0,0,0-.538.284,1.135,1.135,0,0,0-.221.718,1.117,1.117,0,0,0,.233.735.714.714,0,0,0,.572.283.661.661,0,0,0,.538-.285A1.135,1.135,0,0,0,402.039,331.269Z" transform="translate(-369.994 -329.78)"/><path class="i" d="M418.913,332.929h-.536a5.286,5.286,0,0,0-.6-.94,5.181,5.181,0,0,1-.712-1.226h-.034a7.7,7.7,0,0,1,.054.859q0,.536.031,1.307h-.534q.032-.673.033-1.478t-.033-1.348h.644a4.091,4.091,0,0,0,.536.918,5.4,5.4,0,0,1,.655,1.157h.033a8.2,8.2,0,0,1-.052-.868q0-.588-.03-1.207h.542q-.03.538-.03,1.348T418.913,332.929Z" transform="translate(-383.327 -330.038)"/></g></g></svg>