<svg xmlns="http://www.w3.org/2000/svg" width="32" height="32" viewBox="0 0 32 32">
  <g id="Group_40233" data-name="Group 40233" transform="translate(-283 -652)">
    <g id="Group_40232" data-name="Group 40232" transform="translate(79)" opacity="0">
      <rect id="Rectangle_18711" data-name="Rectangle 18711" width="32" height="32" transform="translate(204 652)" fill="#007c3d"/>
    </g>
    <g id="noun_Government_410845" transform="translate(369 618.775)">
      <g id="Group_40235" data-name="Group 40235" transform="translate(-93.5 26)">
        <path id="Path_44104" data-name="Path 44104" d="M35.785,24.887a.489.489,0,0,0,.489-.489V21.9a.489.489,0,0,0-.489-.489h-6.2a6.256,6.256,0,0,0-5.813-5.42V14.556h4.84a.489.489,0,0,0,.489-.489V10.714a.489.489,0,0,0-.489-.489H23.278a.489.489,0,0,0-.489.489V16a6.262,6.262,0,0,0-5.6,5.409h-6.2a.489.489,0,0,0-.489.489v2.5a.489.489,0,0,0,.489.489h1.359v7.857H10.989a.489.489,0,0,0-.489.489v2.5a.489.489,0,0,0,.489.489h24.8a.489.489,0,0,0,.489-.489v-2.5a.489.489,0,0,0-.489-.489H34.7V24.887ZM23.768,11.2h4.35v2.374h-4.35Zm-.381,5.745a5.278,5.278,0,0,1,5.2,4.459H18.182A5.278,5.278,0,0,1,23.387,16.948ZM11.479,22.386H35.3v1.522H11.479Zm16.1,10.359V24.887h2.583v7.857Zm-3.562,0V24.887H26.6v7.857Zm-3.561,0V24.887h2.583v7.857Zm-3.562,0V24.887h2.583v7.857Zm-3.562-7.857H15.91v7.857H13.328ZM35.3,35.246H11.479V33.723H35.3Zm-1.577-2.5H31.136V24.887h2.583Z" fill="#007c3d" stroke="#357a44" stroke-width="0.2"/>
      </g>
    </g>
  </g>
</svg>
