<svg xmlns="http://www.w3.org/2000/svg" width="31.291" height="17.479" viewBox="0 0 31.291 17.479"><defs><style>.a{fill:#007c3d;}</style></defs><path class="a" d="M29.458,185.013H1.833A1.836,1.836,0,0,0,0,186.846v13.812a1.836,1.836,0,0,0,1.833,1.833H29.458a1.836,1.836,0,0,0,1.833-1.833V186.846A1.836,1.836,0,0,0,29.458,185.013Zm0,15.645H1.833V186.846H29.458C29.459,200.973,29.464,200.658,29.458,200.658Z" transform="translate(0 -185.013)"/><path class="a" d="M66.895,377.013h-.978a.917.917,0,0,0,0,1.833h.978a.917.917,0,0,0,0-1.833Z" transform="translate(-61.028 -365.279)"/><path class="a" d="M107.811,313.93a.917.917,0,0,0-.917-.917h-.978a.917.917,0,0,0,0,1.833h.978A.917.917,0,0,0,107.811,313.93Z" transform="translate(-98.583 -305.19)"/><path class="a" d="M185,313.93a.917.917,0,0,0,.917.917h.978a.917.917,0,0,0,0-1.833h-.978A.917.917,0,0,0,185,313.93Z" transform="translate(-173.694 -305.19)"/><path class="a" d="M265,313.93a.917.917,0,0,0,.917.917h.978a.917.917,0,0,0,0-1.833h-.978A.917.917,0,0,0,265,313.93Z" transform="translate(-248.804 -305.19)"/><path class="a" d="M346.895,313.013h-.978a.917.917,0,1,0,0,1.833h.978a.917.917,0,1,0,0-1.833Z" transform="translate(-323.915 -305.19)"/><path class="a" d="M387.811,249.93a.917.917,0,0,0-.917-.917h-.978a.917.917,0,1,0,0,1.833h.978A.917.917,0,0,0,387.811,249.93Z" transform="translate(-361.471 -245.102)"/><path class="a" d="M305.917,250.846h.978a.917.917,0,0,0,0-1.833h-.978a.917.917,0,0,0,0,1.833Z" transform="translate(-286.36 -245.102)"/><path class="a" d="M225.917,250.846h.978a.917.917,0,0,0,0-1.833h-.978a.917.917,0,0,0,0,1.833Z" transform="translate(-211.249 -245.102)"/><path class="a" d="M145.917,250.846h.978a.917.917,0,0,0,0-1.833h-.978a.917.917,0,1,0,0,1.833Z" transform="translate(-136.138 -245.102)"/><path class="a" d="M65.917,250.846h.978a.917.917,0,1,0,0-1.833h-.978a.917.917,0,1,0,0,1.833Z" transform="translate(-61.028 -245.102)"/><path class="a" d="M402.895,377.013h-.978a.917.917,0,0,0,0,1.833h.978a.917.917,0,1,0,0-1.833Z" transform="translate(-376.493 -365.279)"/><path class="a" d="M157.651,377.013H145.917a.917.917,0,0,0,0,1.833h11.734a.917.917,0,0,0,0-1.833Z" transform="translate(-136.138 -365.279)"/></svg>