<svg xmlns="http://www.w3.org/2000/svg" width="32.224" height="18" viewBox="0 0 32.224 18"><defs><style>.a{fill:#127ede;}</style></defs><g transform="translate(0 -185.013)"><path class="a" d="M30.336,185.013H1.888A1.89,1.89,0,0,0,0,186.9v14.224a1.89,1.89,0,0,0,1.888,1.888H30.336a1.89,1.89,0,0,0,1.888-1.888V186.9A1.89,1.89,0,0,0,30.336,185.013Zm0,16.112H1.888V186.9H30.336C30.337,201.449,30.342,201.125,30.336,201.125Z"/><path class="a" d="M66.951,377.013H65.944a.944.944,0,0,0,0,1.888h1.007a.944.944,0,0,0,0-1.888Z" transform="translate(-60.909 -179.916)"/><path class="a" d="M107.9,313.957a.944.944,0,0,0-.944-.944h-1.007a.944.944,0,0,0,0,1.888h1.007A.944.944,0,0,0,107.9,313.957Z" transform="translate(-98.392 -119.944)"/><path class="a" d="M185,313.957a.944.944,0,0,0,.944.944h1.007a.944.944,0,0,0,0-1.888h-1.007A.944.944,0,0,0,185,313.957Z" transform="translate(-173.357 -119.944)"/><path class="a" d="M265,313.957a.944.944,0,0,0,.944.944h1.007a.944.944,0,0,0,0-1.888h-1.007A.944.944,0,0,0,265,313.957Z" transform="translate(-248.322 -119.944)"/><path class="a" d="M346.951,313.013h-1.007a.944.944,0,1,0,0,1.888h1.007a.944.944,0,1,0,0-1.888Z" transform="translate(-323.287 -119.944)"/><path class="a" d="M387.9,249.957a.944.944,0,0,0-.944-.944h-1.007a.944.944,0,1,0,0,1.888h1.007A.944.944,0,0,0,387.9,249.957Z" transform="translate(-360.769 -59.972)"/><path class="a" d="M305.944,250.9h1.007a.944.944,0,0,0,0-1.888h-1.007a.944.944,0,0,0,0,1.888Z" transform="translate(-285.804 -59.972)"/><path class="a" d="M225.944,250.9h1.007a.944.944,0,0,0,0-1.888h-1.007a.944.944,0,0,0,0,1.888Z" transform="translate(-210.839 -59.972)"/><path class="a" d="M145.944,250.9h1.007a.944.944,0,0,0,0-1.888h-1.007a.944.944,0,1,0,0,1.888Z" transform="translate(-135.874 -59.972)"/><path class="a" d="M65.944,250.9h1.007a.944.944,0,1,0,0-1.888H65.944a.944.944,0,1,0,0,1.888Z" transform="translate(-60.909 -59.972)"/><path class="a" d="M402.951,377.013h-1.007a.944.944,0,0,0,0,1.888h1.007a.944.944,0,1,0,0-1.888Z" transform="translate(-375.762 -179.916)"/><path class="a" d="M158.028,377.013H145.944a.944.944,0,0,0,0,1.888h12.084a.944.944,0,0,0,0-1.888Z" transform="translate(-135.874 -179.916)"/></g></svg>