<?xml version="1.0" encoding="utf-8"?>
<!-- Generator: Adobe Illustrator 23.0.1, SVG Export Plug-In . SVG Version: 6.00 Build 0)  -->
<svg version="1.1" id="Layer_1" xmlns:svgjs="http://svgjs.com/svgjs"
	 xmlns="http://www.w3.org/2000/svg" xmlns:xlink="http://www.w3.org/1999/xlink" x="0px" y="0px" viewBox="0 0 512 512"
	 style="enable-background:new 0 0 512 512;" xml:space="preserve">
<style type="text/css">
	.st0{fill:#FFFFFF;}
</style>
<g transform="translate(-0.5 -0.525)">
	<g transform="translate(0.5 0.525)">
		<path class="st0" d="M471.9,491.1H318.3c-11.1,0-20.1-9-20.1-20.1v-95.4c0-23.9-19.3-43.2-43.2-43.2c-23.9,0-43.2,19.3-43.2,43.2
			c0,0,0,0,0,0V471c0,11.1-9,20.1-20.1,20.1H40.1c-11.1,0-20.1-9-20.1-20.1V213.9c0.1-17.9,8.6-34.7,23.1-45.2L245,23.1
			c6.9-5,16.2-5,23.1,0l201.9,145.6c14.5,10.5,23,27.3,23.1,45.2V472C491.7,482.8,482.7,490.9,471.9,491.1z M338.4,452h114.4v-238
			c-0.3-5.2-2.9-10-7.1-13L256,63.3L66.2,199.9c-4.2,3.1-6.8,7.8-7.1,13v238h114.5v-75.3c0-45.5,36.9-82.3,82.3-82.3
			s82.3,36.9,82.3,82.3L338.4,452z"/>
	</g>
</g>
</svg>
