<svg xmlns="http://www.w3.org/2000/svg" width="22" height="22.001" viewBox="0 0 22 22.001"><defs><style>.a{fill:#fff;}</style></defs><g transform="translate(0 0.001)"><path class="a" d="M20.625,20.625V18.562a.688.688,0,0,0-.688-.688H19.25v-5.5h1.375a.687.687,0,0,0,.687-.687V8.937a.687.687,0,0,0-.687-.687H19.532L11.488.2a.688.688,0,0,0-.969,0L2.468,8.25H1.375a.687.687,0,0,0-.687.687v2.75a.687.687,0,0,0,.688.688H2.75v5.5H2.063a.688.688,0,0,0-.687.688v2.063H0V22H22V20.625ZM11,1.657,17.593,8.25H4.407ZM2.063,11V9.625H19.938V11Zm15.812,1.375v5.5H16.5v-5.5Zm-2.75,0v5.5H13.063v-5.5Zm-3.438,0v5.5H10.313v-5.5Zm-2.75,0v5.5H6.875v-5.5Zm-3.437,0v5.5H4.125v-5.5Zm13.75,8.25H2.75V19.25h16.5Z"/><circle class="a" cx="1.833" cy="1.833" r="1.833" transform="translate(9.167 3.928)"/></g></svg>