<svg xmlns="http://www.w3.org/2000/svg" xmlns:xlink="http://www.w3.org/1999/xlink" width="175.672" height="172.17" viewBox="0 0 175.672 172.17">
  <defs>
    <linearGradient id="linear-gradient" x1="-0.247" y1="-0.353" x2="0.605" y2="-0.353" gradientUnits="objectBoundingBox">
      <stop offset="0.004" stop-color="#e38ddd"/>
      <stop offset="1" stop-color="#9571f6"/>
    </linearGradient>
    <linearGradient id="linear-gradient-2" x1="-0.163" y1="-0.031" x2="0.859" y2="-0.031" gradientUnits="objectBoundingBox">
      <stop offset="0" stop-color="#ff9085"/>
      <stop offset="1" stop-color="#fb6fbb"/>
    </linearGradient>
    <linearGradient id="linear-gradient-3" x1="-1.174" y1="0.356" x2="1.523" y2="0.545" gradientUnits="objectBoundingBox">
      <stop offset="0" stop-color="#d8dee8"/>
      <stop offset="1" stop-color="#fff"/>
    </linearGradient>
    <linearGradient id="linear-gradient-4" x1="-0.439" y1="0.575" x2="1.495" y2="0.414" xlink:href="#linear-gradient-3"/>
    <linearGradient id="linear-gradient-5" x1="1.19" y1="-0.076" x2="-0.392" y2="1.38" gradientUnits="objectBoundingBox">
      <stop offset="0" stop-color="#ffc444"/>
      <stop offset="0.996" stop-color="#f36f56"/>
    </linearGradient>
    <linearGradient id="linear-gradient-6" x1="0.838" y1="-0.122" x2="-0.072" y2="1.568" xlink:href="#linear-gradient-5"/>
    <linearGradient id="linear-gradient-7" x1="2.474" y1="0.492" x2="-9.479" y2="0.541" xlink:href="#linear-gradient-3"/>
    <linearGradient id="linear-gradient-8" x1="4.796" y1="0.482" x2="-6.356" y2="0.529" xlink:href="#linear-gradient-3"/>
    <linearGradient id="linear-gradient-9" x1="3.655" y1="0.487" x2="-7.893" y2="0.535" xlink:href="#linear-gradient-3"/>
    <linearGradient id="linear-gradient-10" x1="0" y1="0.5" x2="1" y2="0.5" xlink:href="#linear-gradient-5"/>
    <linearGradient id="linear-gradient-11" x1="57.001" y1="-3.524" x2="57.233" y2="6.387" gradientUnits="objectBoundingBox">
      <stop offset="0" stop-color="#444b8c"/>
      <stop offset="0.996" stop-color="#26264f"/>
    </linearGradient>
    <linearGradient id="linear-gradient-12" x1="165.056" y1="1.882" x2="164.701" y2="-8.958" xlink:href="#linear-gradient-5"/>
    <linearGradient id="linear-gradient-13" x1="84.119" y1="-1.189" x2="84.419" y2="2.684" xlink:href="#linear-gradient-11"/>
    <linearGradient id="linear-gradient-14" x1="93.948" y1="1.268" x2="93.77" y2="-3.814" xlink:href="#linear-gradient-5"/>
    <linearGradient id="linear-gradient-15" x1="24.057" y1="0.668" x2="25.062" y2="0.31" gradientUnits="objectBoundingBox">
      <stop offset="0" stop-color="#311944"/>
      <stop offset="1" stop-color="#6b3976"/>
    </linearGradient>
    <linearGradient id="linear-gradient-16" x1="17.974" y1="0.737" x2="19.592" y2="0.111" xlink:href="#linear-gradient-15"/>
    <linearGradient id="linear-gradient-17" x1="12.201" y1="0.544" x2="13.636" y2="0.424" gradientUnits="objectBoundingBox">
      <stop offset="0" stop-color="#aa80f9"/>
      <stop offset="0.996" stop-color="#6165d7"/>
    </linearGradient>
    <linearGradient id="linear-gradient-18" x1="9.404" y1="0.908" x2="8.69" y2="0.419" xlink:href="#linear-gradient-11"/>
    <linearGradient id="linear-gradient-19" x1="33.791" y1="0.693" x2="35.194" y2="0.332" xlink:href="#linear-gradient-15"/>
    <linearGradient id="linear-gradient-20" x1="12.963" y1="3.354" x2="14.005" y2="3.354" xlink:href="#linear-gradient-17"/>
    <linearGradient id="linear-gradient-21" x1="6.728" y1="0.559" x2="7.417" y2="0.505" xlink:href="#linear-gradient-17"/>
    <linearGradient id="linear-gradient-22" x1="10.416" y1="-0.144" x2="10.627" y2="0.813" xlink:href="#linear-gradient-17"/>
    <linearGradient id="linear-gradient-23" x1="27.966" y1="0.967" x2="28.658" y2="-0.8" xlink:href="#linear-gradient-5"/>
    <linearGradient id="linear-gradient-24" x1="90.558" y1="38.472" x2="94.163" y2="36.49" xlink:href="#linear-gradient-5"/>
    <linearGradient id="linear-gradient-25" x1="18.956" y1="0.893" x2="18.92" y2="0.043" xlink:href="#linear-gradient-17"/>
    <linearGradient id="linear-gradient-26" x1="48.543" y1="-0.001" x2="49.533" y2="2.568" xlink:href="#linear-gradient-5"/>
    <linearGradient id="linear-gradient-27" x1="0" y1="0.5" x2="1" y2="0.5" xlink:href="#linear-gradient-15"/>
    <linearGradient id="linear-gradient-28" x1="1.188" y1="-5.348" x2="0.242" y2="2.085" xlink:href="#linear-gradient-5"/>
    <linearGradient id="linear-gradient-30" x1="1.107" y1="-3.624" x2="0.349" y2="1.526" xlink:href="#linear-gradient-5"/>
    <linearGradient id="linear-gradient-31" x1="0.699" y1="0.116" x2="0.506" y2="0.497" xlink:href="#linear-gradient-15"/>
    <linearGradient id="linear-gradient-32" x1="0.624" y1="0.09" x2="0.287" y2="0.491" xlink:href="#linear-gradient-15"/>
    <linearGradient id="linear-gradient-33" x1="0.702" y1="0.121" x2="0.468" y2="0.517" xlink:href="#linear-gradient-15"/>
    <linearGradient id="linear-gradient-34" x1="0.176" y1="0.259" x2="0.678" y2="0.698" xlink:href="#linear-gradient-2"/>
    <linearGradient id="linear-gradient-35" x1="0.923" y1="0.865" x2="1.737" y2="1.575" xlink:href="#linear-gradient-2"/>
    <linearGradient id="linear-gradient-36" x1="-0.326" y1="0.173" x2="0.643" y2="0.634" xlink:href="#linear-gradient-2"/>
    <linearGradient id="linear-gradient-37" x1="-18.055" y1="5.12" x2="-18.003" y2="3.296" xlink:href="#linear-gradient-5"/>
    <linearGradient id="linear-gradient-38" x1="1.035" y1="0.229" x2="0.655" y2="0.396" xlink:href="#linear-gradient-11"/>
    <linearGradient id="linear-gradient-39" x1="0.663" y1="0.131" x2="0.342" y2="0.713" xlink:href="#linear-gradient-11"/>
    <linearGradient id="linear-gradient-40" x1="1.303" y1="2.761" x2="0.384" y2="0.188" xlink:href="#linear-gradient-5"/>
    <linearGradient id="linear-gradient-41" x1="1.069" y1="2.448" x2="0.333" y2="0.194" xlink:href="#linear-gradient-5"/>
    <linearGradient id="linear-gradient-42" x1="0.784" y1="-1.545" x2="1.188" y2="-0.442" xlink:href="#linear-gradient-11"/>
    <linearGradient id="linear-gradient-43" x1="0.591" y1="0.325" x2="0.075" y2="-0.778" xlink:href="#linear-gradient"/>
    <linearGradient id="linear-gradient-44" x1="0.595" y1="0.465" x2="-0.33" y2="-0.944" xlink:href="#linear-gradient"/>
    <linearGradient id="linear-gradient-45" x1="0.407" y1="3.411" x2="0.526" y2="-0.081" xlink:href="#linear-gradient-5"/>
    <linearGradient id="linear-gradient-46" x1="-11.697" y1="-9.115" x2="-13.179" y2="-7.485" xlink:href="#linear-gradient-5"/>
    <linearGradient id="linear-gradient-47" x1="16.544" y1="-5.29" x2="15.813" y2="-6.83" xlink:href="#linear-gradient-15"/>
    <linearGradient id="linear-gradient-48" x1="-60.911" y1="-11.979" x2="-60.949" y2="-8.832" xlink:href="#linear-gradient-5"/>
    <linearGradient id="linear-gradient-49" x1="16.685" y1="-10.683" x2="15.945" y2="-13.554" xlink:href="#linear-gradient-15"/>
    <linearGradient id="linear-gradient-50" x1="90.745" y1="-71.542" x2="90.968" y2="-68.569" gradientUnits="objectBoundingBox">
      <stop offset="0" stop-color="#ffc444"/>
      <stop offset="1" stop-color="#f36f56"/>
    </linearGradient>
    <linearGradient id="linear-gradient-51" x1="0.595" y1="-0.203" x2="0.326" y2="1.843" xlink:href="#linear-gradient-5"/>
    <linearGradient id="linear-gradient-52" x1="0.608" y1="-0.134" x2="0.382" y2="0.827" xlink:href="#linear-gradient-2"/>
    <linearGradient id="linear-gradient-53" x1="8.865" y1="-6.495" x2="8.812" y2="-5.748" xlink:href="#linear-gradient-2"/>
    <linearGradient id="linear-gradient-54" x1="-20.566" y1="0.165" x2="-21.728" y2="0.944" xlink:href="#linear-gradient"/>
    <linearGradient id="linear-gradient-55" x1="-10.299" y1="1.339" x2="-10.348" y2="0.673" xlink:href="#linear-gradient-17"/>
    <linearGradient id="linear-gradient-56" x1="79.121" y1="-123.93" x2="83.357" y2="-115.393" gradientUnits="objectBoundingBox">
      <stop offset="0" stop-color="#311944"/>
      <stop offset="1" stop-color="#a03976"/>
    </linearGradient>
    <linearGradient id="linear-gradient-57" x1="-10.671" y1="17.526" x2="-9.932" y2="17.526" xlink:href="#linear-gradient-56"/>
    <linearGradient id="linear-gradient-58" x1="-11.425" y1="4.984" x2="-10.027" y2="4.984" xlink:href="#linear-gradient-56"/>
    <linearGradient id="linear-gradient-59" x1="-3.32" y1="1.142" x2="-2.22" y2="1.993" xlink:href="#linear-gradient-56"/>
    <linearGradient id="linear-gradient-60" x1="78.904" y1="-83.597" x2="83.31" y2="-76.775" xlink:href="#linear-gradient-56"/>
    <linearGradient id="linear-gradient-61" x1="-7.514" y1="8.18" x2="-6.558" y2="8.18" xlink:href="#linear-gradient-56"/>
    <linearGradient id="linear-gradient-62" x1="-0.117" y1="0.676" x2="11.531" y2="-2.653" xlink:href="#linear-gradient-56"/>
    <linearGradient id="linear-gradient-63" x1="-68.659" y1="99.337" x2="-67.659" y2="99.337" xlink:href="#linear-gradient-56"/>
    <linearGradient id="linear-gradient-64" x1="-2.029" y1="0.085" x2="-1.346" y2="1.619" gradientUnits="objectBoundingBox">
      <stop offset="0" stop-color="#311944"/>
      <stop offset="1" stop-color="#893976"/>
    </linearGradient>
    <linearGradient id="linear-gradient-66" x1="-2.439" y1="-0.043" x2="0.446" y2="5.298" xlink:href="#linear-gradient-64"/>
    <linearGradient id="linear-gradient-67" x1="-1.959" y1="0.085" x2="-1.276" y2="1.619" xlink:href="#linear-gradient-2"/>
    <linearGradient id="linear-gradient-69" x1="-2.565" y1="0.085" x2="0.599" y2="5.022" xlink:href="#linear-gradient-2"/>
    <linearGradient id="linear-gradient-70" x1="-3.589" y1="-0.019" x2="-2.61" y2="1.992" xlink:href="#linear-gradient-2"/>
  </defs>
  <g id="Group_39584" data-name="Group 39584" transform="translate(-440.607 -463.45)">
    <path id="Path_30858" data-name="Path 30858" d="M599.9,598.028c-35.517,45.43-118.693,46.159-141.719,20.925-9.19-10.07-11.616-27.365-15.183-52.77a233.947,233.947,0,0,1-2.109-28.851c-.5-23.007-.753-34.511,2.951-42.338,10.609-22.4,47.462-31.123,71.282-31.527q2.494-.043,5.031.033c27.892.831,59.365,12.442,78.776,37.252a83.185,83.185,0,0,1,5.61,8.105C622.26,537.992,619.278,573.246,599.9,598.028Z" transform="translate(0 0)" fill="#f4f7fa"/>
    <g id="Group_39586" data-name="Group 39586" transform="translate(455.955 479.986)">
      <g id="Group_39584-2" data-name="Group 39584" transform="translate(24.724 4.733)">
        <path id="Path_30859" data-name="Path 30859" d="M1155.4,883.306c2.314-1.505,6.21-4.039,8.176-8.869,3.574-8.781-1.552-19.451-7.561-25.446-5.161-5.149-12.585-7.318-27.433-11.656-13.984-4.086-18.268-3.783-20.6-8.071-3.323-6.113,2.021-12.913-2.925-19.462-.594-.786-2.632-3.485-5.735-3.827-5.311-.585-10.014,6.149-11.828,10.639-1.75,4.331-2.868,11.656.88,16.235,2.716,3.318,5.678,2.376,7.315,5.676,1.647,3.32-.855,5.275-.5,11.42.141,2.455.423,7.382,3.609,10.773,4.119,4.385,9.362,2.232,11.582,6.226,1.6,2.886-.609,4.953.481,8.516,1.435,4.69,7.018,6.822,11.688,8.534C1128.041,886.01,1142.877,891.449,1155.4,883.306Z" transform="translate(-1085.868 -805.939)" fill="url(#linear-gradient)"/>
        <path id="Path_30860" data-name="Path 30860" d="M1135.71,845.684c3.065,1.141-2.385,11.125,2.466,21.21,5.219,10.851,19.177,15.2,25.628,17.209,11.006,3.429,14.731,1.147,22.542,6.189,3.092,2,9.532,6.153,10.91,13.862.128.716,1.437,8.722-3.648,13.975-5.767,5.958-15.375,3.844-23.653,2.022-5-1.1-14.995-3.3-15.616-8.375-.38-3.1,2.83-6.566,5.809-8.094,4.251-2.181,8.614-.717,8.82-1.607.186-.8-3.175-2.758-7.356-3.775-8.362-2.033-11.455,1.778-17.854-.468-.776-.272-6.89-2.519-8.393-7.952-.867-3.134-.223-7.409,2.156-8.7,2.691-1.465,6.439,1.514,6.948.725.487-.755-2.644-3.937-6.2-6.63-5.221-3.957-7.005-3.561-9.274-6.333-3.462-4.229-3.024-9.686-2.95-10.47C1126.744,851.126,1133.091,844.708,1135.71,845.684Z" transform="translate(-1123.5 -843.124)" fill="#fff" opacity="0.16" style="mix-blend-mode: screen;isolation: isolate"/>
      </g>
      <g id="Group_39585" data-name="Group 39585" transform="translate(0 0)">
        <path id="Path_30861" data-name="Path 30861" d="M739.664,819.682c2.633-.83,7.065-2.228,10.253-6.354,5.8-7.5,3.716-19.156-.466-26.541-3.593-6.344-10.164-10.422-23.307-18.581-12.378-7.683-16.587-8.54-17.684-13.3-1.564-6.78,5.408-11.9,2.4-19.534-.361-.916-1.6-4.063-4.5-5.224-4.96-1.987-11.3,3.241-14.246,7.08-2.847,3.7-5.886,10.461-3.5,15.877,1.727,3.924,4.834,3.811,5.527,7.429.7,3.64-2.237,4.853-3.544,10.868-.522,2.4-1.57,7.226.59,11.346,2.793,5.328,8.421,4.659,9.49,9.1.772,3.21-1.914,4.609-1.819,8.333.125,4.9,4.933,8.453,8.974,11.353C712.585,814.958,725.422,824.173,739.664,819.682Z" transform="translate(-687.751 -729.717)" fill="url(#linear-gradient-2)"/>
        <path id="Path_30862" data-name="Path 30862" d="M749.542,765.431c2.646,1.921-5.278,10.079-3.307,21.095,2.12,11.852,14.4,19.782,20.08,23.446,9.685,6.252,13.885,5.052,20.059,12,2.444,2.751,7.535,8.482,6.8,16.278-.068.724-.953,8.788-7.259,12.487-7.153,4.2-15.843-.416-23.33-4.39-4.525-2.4-13.562-7.2-12.8-12.253.466-3.091,4.486-5.568,7.765-6.242,4.68-.962,8.491,1.617,8.928.816.394-.722-2.32-3.508-6.075-5.608-7.511-4.2-11.513-1.356-17.075-5.235-.674-.47-5.963-4.273-5.955-9.91,0-3.251,1.771-7.2,4.41-7.808,2.985-.69,5.8,3.184,6.5,2.561.672-.6-1.492-4.5-4.194-8.048-3.97-5.212-5.795-5.308-7.238-8.586-2.2-5-.318-10.143-.037-10.878C739.446,768.27,747.279,763.788,749.542,765.431Z" transform="translate(-732.806 -762.894)" fill="#fff" opacity="0.16" style="mix-blend-mode: screen;isolation: isolate"/>
      </g>
    </g>
    <g id="Group_39599" data-name="Group 39599" transform="translate(447.12 483.879)">
      <path id="Path_30863" data-name="Path 30863" d="M810.359,2196.042l-.212-17.526-146.4,1.566.21,17.375,31.875,7.128Z" transform="translate(-656.407 -2092.437)" fill="#97a6b7"/>
      <g id="Group_39587" data-name="Group 39587" transform="translate(152.93 45.908)">
        <path id="Path_30864" data-name="Path 30864" d="M3008.073,1531.71l.026,2.191,9.75-.028-2.185-2.225Z" transform="translate(-3008.073 -1531.648)" fill="#d8dee8"/>
      </g>
      <g id="Group_39588" data-name="Group 39588" transform="translate(6.863 47.707)">
        <path id="Path_30865" data-name="Path 30865" d="M688.043,1607.36l-31.552-6.391-.486-40.272,31.474-.076Z" transform="translate(-656.005 -1560.622)" fill="url(#linear-gradient-3)"/>
      </g>
      <path id="Path_30866" data-name="Path 30866" d="M1285,885.959l-7.263.228.488,40.472L1205.34,931.7l-30.193,2.089-11.764.814-.564-46.738,50.466-15.038,29.836-29.507Zm-20.248,37.3-.484-40.1-44.458.461.512,42.456,44.43-2.82Z" transform="translate(-1124.482 -840.161)" fill="url(#linear-gradient-4)"/>
      <g id="Group_39589" data-name="Group 39589" transform="translate(30.672 2.244)" opacity="0.2">
        <path id="Path_30867" data-name="Path 30867" d="M1169.963,872.242l-41.453-42.4-1.271-1.3-1.23,1.211-29.664,29.212-50.093,14.764-6.869,2.024.013,1.061,7.685-.093-.008-.686,50.294-14.825,30.011-29.507,39.714,40.575Z" transform="translate(-1039.384 -828.54)" fill="#d8dee8"/>
      </g>
      <g id="Group_39590" data-name="Group 39590" transform="translate(30.644 0)">
        <path id="Path_30868" data-name="Path 30868" d="M1126.8,792.408l1.271,1.3,41.955,42.871,1.083,1.106.034,2.842-.137.014-2.172-2.214-41.9-42.758-30.011,29.507-49.852,15.436-8.092,2.35-.039-3.244,6.869-2.024,50.093-14.764,29.663-29.212Z" transform="translate(-1038.947 -792.408)" fill="#fff"/>
      </g>
      <g id="Group_39591" data-name="Group 39591" transform="translate(95.046 42.771)">
        <path id="Path_30869" data-name="Path 30869" d="M2132.3,1493.94l.471,39-43.479,2.727-.5-41.248Zm-1.884,35.315-.4-32.744-10.455.151.4,33.2,10.45-.6Zm-13.289.766-.4-33.318-10.826.157.407,33.785,10.82-.624Zm-13.762.793-.409-33.912-11.219.162.416,34.4,11.212-.647Z" transform="translate(-2087.995 -1493.145)" fill="#fff"/>
        <path id="Path_30870" data-name="Path 30870" d="M2076.5,1524.5l-.517-42.862,45.078-.5.489,40.537Zm1.074-41.307.478,39.634,41.907-2.629-.452-37.471Zm1.787,37.093-.434-36,12.791-.185.428,35.451Zm1.157-34.454.4,32.789,9.641-.556-.391-32.373Zm13,33.638-.427-35.392,12.4-.179.421,34.857Zm1.164-33.843.389,32.178,9.249-.533-.384-31.778Zm12.494,33.055-.42-34.8,12.028-.174.414,34.283Zm1.172-33.253.381,31.588,8.878-.512-.376-31.2Z" transform="translate(-2075.979 -1481.139)" fill="#fff"/>
      </g>
      <g id="Group_39592" data-name="Group 39592" transform="translate(51.236 0)">
        <path id="Path_30871" data-name="Path 30871" d="M1437.793,792.407l-1.23,1.211L1406.9,822.829l-36.371,2.344L1397.6,799.6l1.129-1.064Z" transform="translate(-1370.528 -792.407)" fill="url(#linear-gradient-5)"/>
      </g>
      <path id="Path_30872" data-name="Path 30872" d="M1541.193,1881.792l15.408-.385.4,34.09-15.39,1.061Z" transform="translate(-1479.359 -1813.778)" fill="#f4f7fa"/>
      <g id="Group_39593" data-name="Group 39593" transform="translate(59.006 68.865)">
        <path id="Path_30873" data-name="Path 30873" d="M1496.023,1933.615l-.385-31.88,17.118-.41.372,30.784Z" transform="translate(-1495.638 -1901.325)" fill="#97a6b7"/>
      </g>
      <path id="Path_30874" data-name="Path 30874" d="M1356.073,1854.126l-.479-39.707,30.157-.669.459,38.065-3.281.226-.411-34.02-15.4.421.421,34.893Z" transform="translate(-1305.285 -1750.323)" fill="#d8dee8"/>
      <g id="Group_39594" data-name="Group 39594" transform="translate(0 30.422)">
        <path id="Path_30875" data-name="Path 30875" d="M633.1,1282.286,583,1297.05l-6.869,2.024-30.644.146,6.129-1.745,45.107-12.846Z" transform="translate(-545.489 -1282.286)" fill="url(#linear-gradient-6)"/>
      </g>
      <g id="Group_39595" data-name="Group 39595" transform="translate(0 47.211)">
        <path id="Path_30876" data-name="Path 30876" d="M576.177,1555.873l-30.65-.307-.034-2.791,30.644-.146Z" transform="translate(-545.494 -1552.63)" fill="#fff"/>
      </g>
      <g id="Group_39596" data-name="Group 39596" transform="translate(126.824 46.39)">
        <path id="Path_30877" data-name="Path 30877" d="M2597.745,1539.408l.389,32.253-10.04.576-.395-32.681Z" transform="translate(-2587.699 -1539.408)" fill="url(#linear-gradient-7)"/>
      </g>
      <g id="Group_39597" data-name="Group 39597" transform="translate(99.011 46.79)">
        <path id="Path_30878" data-name="Path 30878" d="M2150.608,1545.858l.4,33.4-10.775.618-.408-33.863Z" transform="translate(-2139.828 -1545.858)" fill="url(#linear-gradient-8)"/>
      </g>
      <g id="Group_39598" data-name="Group 39598" transform="translate(113.165 46.587)">
        <path id="Path_30879" data-name="Path 30879" d="M2378.146,1542.577l.4,32.819-10.4.6-.4-33.261Z" transform="translate(-2367.743 -1542.577)" fill="url(#linear-gradient-9)"/>
      </g>
      <path id="Path_30880" data-name="Path 30880" d="M1363.3,2425.8l30.135-2.485,7.139,7.8-37.184,2.148Z" transform="translate(-1312.515 -2322.032)" fill="#f4f7fa"/>
    </g>
    <path id="Path_30881" data-name="Path 30881" d="M1557.52,588.962s4.133-8.007,11.217-4.9,6.429,1.475,11.349,2.093,11.009,4.032,7.046,4.719-34.992,1.475-34.992,1.475S1552.6,589.382,1557.52,588.962Z" transform="translate(-1042.506 -112.449)" fill="#fff"/>
    <path id="Path_30882" data-name="Path 30882" d="M2043.082,2033.687s.765-1.575,1.29-1.785,2.37-2.025,2.265-1.185-1.365,1.395-1.095,1.875-.87,1.815-1.815,2.01S2043.082,2033.687,2043.082,2033.687Z" transform="translate(-1502.917 -1469.731)" fill="url(#linear-gradient-10)"/>
    <path id="Path_30883" data-name="Path 30883" d="M1654.84,3091.141a6.591,6.591,0,0,0-.045,1.445c.091.363,3.239.625,4.307.5s-.636-1.217-1.317-1.422S1654.84,3091.141,1654.84,3091.141Z" transform="translate(-1138.756 -2464.507)" fill="url(#linear-gradient-11)"/>
    <path id="Path_30884" data-name="Path 30884" d="M1656.9,3060.6l-.332,2.172s-.846.38-1.252,0l-.045-2.273Z" transform="translate(-1139.232 -2435.77)" fill="url(#linear-gradient-12)"/>
    <path id="Path_30885" data-name="Path 30885" d="M1348.759,3058.331s.668.5.49,1.089a10.43,10.43,0,0,1-2.847,3.647c-1.11.675-.762-.731-.439-1.607a16.852,16.852,0,0,1,1.471-3.128C1347.756,3058.007,1348.759,3058.331,1348.759,3058.331Z" transform="translate(-848.833 -2433.6)" fill="url(#linear-gradient-13)"/>
    <path id="Path_30886" data-name="Path 30886" d="M1366.214,3022.08c-.323.9-.634,1.64-.876,2.185a7.8,7.8,0,0,1-1.164,2.053c-.29.342-.977,1.072-1.161.951s.315-1.011,1.283-3.61c.141-.377.585-1.579.585-1.579h1.333Z" transform="translate(-865.087 -2399.735)" fill="url(#linear-gradient-14)"/>
    <path id="Path_30887" data-name="Path 30887" d="M1626.944,2415.666a56.208,56.208,0,0,1,.121,10.033c-.431,5.551-1.541,9.063-2.933,14.982-.851,3.617-2,8.941-3.034,15.6a2.927,2.927,0,0,1-1.86.365,2.821,2.821,0,0,1-1.117-.425c-2.722-8.316-1.918-13.47-.6-16.681a17.965,17.965,0,0,0,1.6-4.552c.48-2.783-.114-4.34-.96-10.787-.6-4.6-.5-5.306-.1-6C1619.664,2415.448,1624.573,2415.5,1626.944,2415.666Z" transform="translate(-1102.685 -1830.92)" fill="url(#linear-gradient-15)"/>
    <path id="Path_30888" data-name="Path 30888" d="M1396.733,2432.2c-1.667,8.61-3.3,13.133-4.542,15.69a42.967,42.967,0,0,0-2.288,5.583,45.487,45.487,0,0,0-1.39,5.319c-.575,2.639-2,6.493-5.818,11.547a1.452,1.452,0,0,1-1.323.068,1.278,1.278,0,0,1-.535-.555c.5-4.832,1.073-8.893,1.571-12.027.1-.657.565-3.533,1.286-7.333.282-1.487.7-3.665,1.192-5.9.617-2.787,1.563-6.578,3.022-11.12Z" transform="translate(-881.842 -1846.484)" fill="url(#linear-gradient-16)"/>
    <path id="Path_30889" data-name="Path 30889" d="M1764.55,1867.465l-1.129-1.323a6.563,6.563,0,0,1-5.891.933c-2.141-.772-3.162-2.76-3.817-4.03-1.967-3.812-.149-6.158-2.458-8.883-.641-.757-1.967-1.75-2.939-1.638-2.316.266-4.537,6.814-3.105,12.405.289,1.128,1.88,7.342,7.249,8.735C1756.794,1874.791,1761.9,1872.334,1764.55,1867.465Z" transform="translate(-1223.162 -1302.803)" fill="url(#linear-gradient-17)"/>
    <path id="Path_30890" data-name="Path 30890" d="M1191.028,1717.291c.946-.874,2.755-1.881,3.662-4.224.273-.705,1.241-3.2-.187-5.114a4.08,4.08,0,0,0-3.808-1.632c-1.185.233-1.37,1.058-3.384,2.72a14.239,14.239,0,0,1-3.446,2.264c-2.4.99-3.846.059-6.258.165a11,11,0,0,0-8.064,4.189c-2.944,4.268,1.321,8.6-1.9,13.6-1.057,1.638-1.577,1.271-4.08,4.442s-3.758,4.763-3.536,6.708a6.865,6.865,0,0,0,5.957,5.455c2.675.171,4.376-1.934,5.738-1.013.97.655.415,1.929,1.445,3.461a6.57,6.57,0,0,0,4.357,2.432c3.911.59,9.183-4,11.423-9.428C1192.981,1731.518,1185.887,1722.042,1191.028,1717.291Z" transform="translate(-674.716 -1165.635)" fill="url(#linear-gradient-18)"/>
    <path id="Path_30891" data-name="Path 30891" d="M1617.516,2442.083a17.963,17.963,0,0,0,1.6-4.552c.48-2.784-.114-4.34-.96-10.787-.6-4.6-.5-5.306-.1-6,.872-1.5,2.72-2.162,4.606-2.433-.025.1-.051.193-.071.287-.989,4.519,2.787,7.277,1.084,12.245-.84,2.449-2.18,3.01-2.492,5.851-.292,2.662.768,3.216.542,5.635-.339,3.616-2.907,4.491-3.576,7.26-.434,1.8-.069,4.431,3.1,8.239-.053.328-.105.657-.158.992a2.929,2.929,0,0,1-1.86.365,2.828,2.828,0,0,1-1.117-.425C1615.4,2450.448,1616.2,2445.294,1617.516,2442.083Z" transform="translate(-1102.685 -1833.466)" opacity="0.3" fill="url(#linear-gradient-19)" style="mix-blend-mode: multiply;isolation: isolate"/>
    <path id="Path_30892" data-name="Path 30892" d="M1747.925,1929.406c3.592,3.745,2.3,9.793,4.732,10.447.744.2.783-.387,2.671-.724,2.761-.493,3.882.547,5.832.152a5.816,5.816,0,0,0,3.064-1.828l.327.383c-2.652,4.869-7.756,7.325-12.091,6.2-5.369-1.394-6.96-7.607-7.249-8.736a16.358,16.358,0,0,1,.03-7.754A8.5,8.5,0,0,1,1747.925,1929.406Z" transform="translate(-1223.163 -1373.175)" opacity="0.3" fill="url(#linear-gradient-20)" style="mix-blend-mode: multiply;isolation: isolate"/>
    <path id="Path_30893" data-name="Path 30893" d="M1228.773,1829.7c-.25-.388-1.043-1.462-4.41-2.253a20.406,20.406,0,0,0-5.626-.622,19.282,19.282,0,0,0-3.2.4c-3.074.666-9.2,3.007-9.416,6.195-.153,2.277,2.883,2.423,4.6,6.454a11.888,11.888,0,0,1-.122,9.459,17.648,17.648,0,0,1-4.506,5.316c-2.208,1.958-3.351,2.26-4.091,4.014-.806,1.911.006,2.843-.995,4.151-1.075,1.4-2.335.752-4.157,2.173-1.867,1.455-1.2,2.653-2.9,4.261-2.468,2.336-5.74,1.578-5.893,2.629-.131.9,2.195,2.131,4.17,2.629a12.23,12.23,0,0,0,8.34-1.179c2.81-1.412,2.324-2.325,4.467-3.4,3.587-1.8,6.039.2,14.209.41,4.424.112,6.661.137,7.887-1.36,1.119-1.367.531-2.867-.141-9.331h0c-.216-2.158-.668-6.678-.671-9.254,0-1.522.526-4.009,1.582-8.983.062-.293.634-2.981,1.1-6.57C1229.417,1831.6,1229.357,1830.61,1228.773,1829.7Z" transform="translate(-701.033 -1278.698)" fill="url(#linear-gradient-21)"/>
    <g id="Group_39600" data-name="Group 39600" transform="translate(487.025 554.391)" opacity="0.3" style="mix-blend-mode: multiply;isolation: isolate">
      <path id="Path_30894" data-name="Path 30894" d="M1193.956,1964c1.7-1.608,1.034-2.806,2.9-4.261,1.822-1.421,3.082-.768,4.157-2.173,1-1.308.189-2.24.995-4.151.74-1.755,1.883-2.056,4.091-4.014a17.651,17.651,0,0,0,4.505-5.315c1.9-3.974.572-8.218.122-9.459a13.818,13.818,0,0,0-5.426-6.781c.1-.11,5.046,4.292,5.175,4.16,6.973.958,6.214.461,6.717,1.654,1.162,2.758-.678,3.771-.725,11.725-.023,3.8.387,5.3-.846,6.89-1.411,1.815-3.037,1.253-5.077,3.626-1.568,1.823-1.317,2.979-2.78,3.747-1.574.826-2.576-.137-4.351.242-2.966.632-3.6,4.052-5.56,5.923-1.483,1.415-4.224,2.4-9.63,1.342a.753.753,0,0,1-.161-.526C1188.216,1965.577,1191.488,1966.336,1193.956,1964Z" transform="translate(-1188.058 -1927.843)" fill="url(#linear-gradient-22)"/>
    </g>
    <path id="Path_30895" data-name="Path 30895" d="M1602.24,1763.984s-.352,2.811-1.389,3.456-2.715,1.485-2.9,1.714,6.428.939,9.705-.715h0c-1.08-.225-1.374-.308-1.374-.308a6.075,6.075,0,0,1-1.388-.549,4.718,4.718,0,0,1-1.526-1.411l.012-1.557Z" transform="translate(-1085.468 -1219.769)" fill="url(#linear-gradient-23)"/>
    <path id="Path_30896" data-name="Path 30896" d="M1661.791,1751.362a1.556,1.556,0,0,0,1.11,1.442c.977.263,1.923-2.071,1.468-2.733a1.332,1.332,0,0,0-.917-.472,1.477,1.477,0,0,0-1.335,1.093c-.156-.195-.366-.265-.477-.2-.142.085-.093.37-.083.434A.806.806,0,0,0,1661.791,1751.362Z" transform="translate(-1145.112 -1206.276)" fill="url(#linear-gradient-24)"/>
    <path id="Path_30897" data-name="Path 30897" d="M1397.351,1860.091a17.036,17.036,0,0,0-10.138,13.159c-1.44,9,6.24,13.679,6.24,13.679l1.8-1.2s-1.92-14.039,4.92-18S1397.351,1860.091,1397.351,1860.091Z" transform="translate(-887.652 -1309.907)" fill="url(#linear-gradient-25)"/>
    <path id="Path_30898" data-name="Path 30898" d="M1499.03,2274.03a1.636,1.636,0,0,0,1.625-.044c.96-.48,3.36.12,3.36.12a3.394,3.394,0,0,1-2.52.84,5.581,5.581,0,0,0-2.892.506c-.348.094-.467-.826-.467-.826Z" transform="translate(-991.855 -1697.925)" fill="url(#linear-gradient-26)"/>
    <g id="Group_39603" data-name="Group 39603" transform="translate(517.709 512.947)">
      <path id="Path_30899" data-name="Path 30899" d="M2237.149,3100.121s-4.273,1.486-4.737,1.838,3.978.3,5.417.3,1-1.843,1-1.843S2238.729,3099.884,2237.149,3100.121Z" transform="translate(-2198.209 -2985.82)" fill="url(#linear-gradient-27)"/>
      <path id="Path_30900" data-name="Path 30900" d="M2306.808,3074.744l.258,1.557a.611.611,0,0,0,.6.511h0a.611.611,0,0,0,.6-.522l.193-1.305Z" transform="translate(-2268.017 -2962.075)" fill="url(#linear-gradient-28)"/>
      <path id="Path_30901" data-name="Path 30901" d="M1884.388,3066.542s-5.664,2.869-5.652,3.051,5.577-.179,6.328-.732S1885.864,3066.173,1884.388,3066.542Z" transform="translate(-1866.528 -2954.343)" fill="url(#linear-gradient-27)"/>
      <path id="Path_30902" data-name="Path 30902" d="M1964.23,3036.762l-1.035,2.111a.545.545,0,0,1-.511.3h0a.545.545,0,0,1-.515-.651l.461-2.334Z" transform="translate(-1944.771 -2925.918)" fill="url(#linear-gradient-30)"/>
      <path id="Path_30903" data-name="Path 30903" d="M1970,2388.6a136.634,136.634,0,0,0-11.94,40.166,1.025,1.025,0,0,0,.874,1.152l.96.135a1.021,1.021,0,0,0,.907-.331,20.765,20.765,0,0,0,4.544-8.113c.957-3.381.249-4.46,1.149-7.586,1.23-4.272,3.278-4.784,6.8-10.13,2.595-3.933,6.467-9.8,4.488-13.011C1977.456,2390.338,1975.966,2388.264,1970,2388.6Z" transform="translate(-1940.919 -2318.504)" fill="url(#linear-gradient-31)"/>
      <path id="Path_30904" data-name="Path 30904" d="M2254.089,2455.456a148.494,148.494,0,0,1,2.823,21.543,153.654,153.654,0,0,1,.067,15.566,1.188,1.188,0,0,0,1.036,1.233c.15.019.3.039.453.057a1.184,1.184,0,0,0,1.175-.593,20.616,20.616,0,0,0,2.656-8.68c.11-2.124-.244-2.957-.261-5.438-.025-3.625.706-5.521,1.706-9.844,1.805-7.8,2.708-11.7,1.274-13.424C2264.49,2455.241,2262.28,2453.065,2254.089,2455.456Z" transform="translate(-2218.572 -2380.219)" fill="url(#linear-gradient-32)"/>
      <path id="Path_30905" data-name="Path 30905" d="M2031.13,2394.2c-.242-.392-1.1-1.6-3.854-2.1.424,5.924-.984,9.727-2.53,12.206-2.442,3.914-5.219,4.526-7.073,9.222-1.487,3.769-.556,5.549-1.206,11.154a43.138,43.138,0,0,1-1.542,7.428,20.362,20.362,0,0,0,3.763-7.185c.957-3.381.249-4.46,1.149-7.586,1.23-4.272,3.278-4.784,6.8-10.13C2029.238,2403.276,2033.11,2397.407,2031.13,2394.2Z" transform="translate(-1994.261 -2321.825)" opacity="0.3" fill="url(#linear-gradient-33)" style="mix-blend-mode: multiply;isolation: isolate"/>
      <path id="Path_30906" data-name="Path 30906" d="M2030.357,1818.642c2.6-2.493,6.77-2.044,13.156-1.356,6.337.682,11.365,1.224,14.436,4.953,5.276,6.408,1.355,18.082.488,20.663-1.6,4.768-3.3,6.042-3.5,10.519-.224,5.189,1.87,7.89.151,9.874-1.223,1.411-2.667.487-8.619,1.546-5.128.912-5.108,1.786-7.8,1.592-1.17-.084-3.464-.963-8.053-2.719-2.144-.821-2.928-1.176-3.242-1.987-.642-1.662,1.332-3.59,2.405-5.229,2.435-3.719,1.342-7.651.334-14.845C2028.24,1828.267,2027.3,1821.575,2030.357,1818.642Z" transform="translate(-2005.82 -1782.201)" fill="url(#linear-gradient-34)"/>
      <path id="Path_30907" data-name="Path 30907" d="M1844.12,1584.529a8.678,8.678,0,0,0-4.3,9.2c.995,4.246,5.785,7.261,10.783,6.066,2.081,6.713-.4,13.044-4.522,14.89-5.276,2.365-12.019-3.173-14.283-8.411-2.834-6.558.14-15.454,7.824-21.224Z" transform="translate(-1821.518 -1564.405)" fill="url(#linear-gradient-35)"/>
      <path id="Path_30908" data-name="Path 30908" d="M2301.312,1860.566c.867-2.581,4.788-14.255-.488-20.663-2.191-2.662-5.381-3.7-9.332-4.323,7.249,4.382,8.938,7.3,8.565,9.3-.728,3.894-9.072,3.173-12.549,9.83-1.733,3.318-1.423,6.871-.837,13.6.584,6.7,1.861,7.719,1.464,11.4a15.089,15.089,0,0,1-.7,3.189c.548-.126,1.177-.257,1.914-.388,5.952-1.059,7.4-.135,8.619-1.546,1.719-1.983-.375-4.685-.151-9.873C2298.008,1866.608,2299.71,1865.334,2301.312,1860.566Z" transform="translate(-2248.696 -1799.865)" opacity="0.3" fill="url(#linear-gradient-36)" style="mix-blend-mode: multiply;isolation: isolate"/>
      <path id="Path_30909" data-name="Path 30909" d="M2264.339,1745.7a13.92,13.92,0,0,0-.035,3.058,2.262,2.262,0,0,0,.324,1.238c.21.283.548.54,2.541,1.25,1.087.387,1.231.4,1.245.5.066.5-3.152,1.8-6.231,1.011-1.878-.48-3.5-1.683-3.335-2.189s2.033,0,2.7-.875c.467-.611.127-1.6-.31-2.438C2261.842,1746.448,2263.736,1746.5,2264.339,1745.7Z" transform="translate(-2223.023 -1715.564)" fill="url(#linear-gradient-37)"/>
      <path id="Path_30910" data-name="Path 30910" d="M2118.04,1750.508c3.634.095,5.9,4.048,6.589,6.51,1.115,4.018-.725,8.64-4.6,11.838l-1.67-.543a10.635,10.635,0,0,0,1.647-6.824c-.687-5.934-6.529-8.578-6.823-8.706A6.874,6.874,0,0,1,2118.04,1750.508Z" transform="translate(-2086.41 -1720.075)" fill="url(#linear-gradient-38)"/>
      <path id="Path_30911" data-name="Path 30911" d="M2060.862,1745.5c-.29,2.237,2.181,4.188,3.115,4.926,2.268,1.791,3.368,1.11,4.034,2.383,1.105,2.114-1.529,4.763-.034,7.814a5,5,0,0,0,.314.549l1.177.47a14.694,14.694,0,0,0,2.747-5.9,12.992,12.992,0,0,0-.551-7.9,12.792,12.792,0,0,0-5.8-6.275C2063.151,1742.052,2061.1,1743.66,2060.862,1745.5Z" transform="translate(-2037.322 -1711.686)" fill="url(#linear-gradient-39)"/>
      <g id="Group_39601" data-name="Group 39601" transform="translate(0)">
        <path id="Path_30912" data-name="Path 30912" d="M2390.184,1266.28a3.714,3.714,0,0,0,.392-2.268,30.324,30.324,0,0,1-.745-3.423c.039-.51.941.863,1.451,1.765s1.02,1.882.627,2.314a10.4,10.4,0,0,0-.971,2.275Z" transform="translate(-2345.881 -1260.479)" fill="url(#linear-gradient-40)"/>
        <path id="Path_30913" data-name="Path 30913" d="M1684.933,1350.326a5.9,5.9,0,0,1-1.059-2.549c-.039-1.137-.157-4-.51-4.157s-.745,2.588-1.1,3.177.268,1.834.664,2.388a13.861,13.861,0,0,1,.944,1.808Z" transform="translate(-1682.161 -1338.451)" fill="url(#linear-gradient-41)"/>
        <path id="Path_30914" data-name="Path 30914" d="M1828.1,1320.078c2.1-.789,4.724-1.771,4.9-3.432.128-1.2-1.167-1.487-2.493-3.983-1.414-2.661-.62-3.616-1.917-5.079-1.705-1.923-5-2.448-5.94-1.39-.616.7.141,1.688-.419,2.235-1.022,1-3.892-1.971-7.566-1.6-2.267.228-4.784,1.722-4.866,3.253-.126,2.355,5.552,4.008,5.153,5.592-.247.981-2.528.747-2.71,1.621-.24,1.156,3.382,3.353,7.131,3.993A15.931,15.931,0,0,0,1828.1,1320.078Z" transform="translate(-1801.866 -1302.851)" fill="url(#linear-gradient-42)"/>
        <path id="Path_30915" data-name="Path 30915" d="M1696.6,1352.92a20.858,20.858,0,0,0,7.739,5.333c6.846,2.651,13.121.645,17.18-.653a37.484,37.484,0,0,0,16.373-10.762l1.9.852a16.661,16.661,0,0,1-5.647,9.1c-3.668,2.8-7.593,2.777-7.948,5.02-.241,1.52,1.459,2.18,3.66,6.589,1.211,2.424,1.816,3.636,1.36,4.5-.992,1.87-4.96-.293-9.726,1.882-3.16,1.443-4.111,3.625-5.49,3.1-1.02-.386-1.3-2.076-1.831-5.4-.7-4.362-.163-5.329-1.124-6.379-1.457-1.592-3.338-.089-7.117-1.214-3.605-1.073-5.912-3.631-7.663-5.592a24.211,24.211,0,0,1-3.734-5.59Z" transform="translate(-1693.762 -1341.476)" fill="url(#linear-gradient-43)"/>
        <path id="Path_30916" data-name="Path 30916" d="M1718.142,1476.218c-1.116-2.253,1.257-4.376.118-7.451a7.093,7.093,0,0,0-4.048-3.946c-3.516-1.32-5.759,1.486-9.011-.094-1.22-.593-.608-.844-2.941-2.667-2.89-2.258-4.4-2.32-6.085-4.288a9.379,9.379,0,0,1-1.366-2.135l-.278.105a24.211,24.211,0,0,0,3.734,5.59c1.751,1.961,4.058,4.519,7.663,5.592,3.779,1.125,5.661-.378,7.117,1.214.961,1.05.428,2.017,1.124,6.379.531,3.328.811,5.017,1.831,5.4,1.087.412,1.909-.858,3.758-2.121A3.693,3.693,0,0,1,1718.142,1476.218Z" transform="translate(-1693.762 -1443.518)" opacity="0.3" fill="url(#linear-gradient-44)" style="mix-blend-mode: multiply;isolation: isolate"/>
        <path id="Path_30917" data-name="Path 30917" d="M1990.481,1483.1l-.215,1.634a.762.762,0,0,1-.511.623l-3.518,1.195s3.656.969,6.224.184,3.039-2.231,3.039-2.231l-2.2.187a.762.762,0,0,1-.818-.64l-.211-1.328a.524.524,0,0,0-.744-.39l-.757.363A.523.523,0,0,0,1990.481,1483.1Z" transform="translate(-1967.354 -1468.508)" fill="url(#linear-gradient-45)"/>
        <path id="Path_30918" data-name="Path 30918" d="M2037.546,1436.877a2.811,2.811,0,0,0,2.547,2.08c1.826.06,2.53-4.434,1.456-5.411a2.407,2.407,0,0,0-1.806-.454,2.67,2.67,0,0,0-1.9,2.472c-.355-.278-.752-.315-.921-.151-.214.207-.012.688.034.8A1.456,1.456,0,0,0,2037.546,1436.877Z" transform="translate(-2014.801 -1422.345)" fill="url(#linear-gradient-46)"/>
      </g>
      <g id="Group_39602" data-name="Group 39602" transform="translate(36.693 27.303)">
        <path id="Path_30919" data-name="Path 30919" d="M2292.823,1702.572a2.177,2.177,0,0,1,.925-2.221,2.108,2.108,0,0,1,1.718-.079,3.312,3.312,0,0,1,2.474,2.711c.038.77-1.131,1.852-1.327,2.053-.221.227-.463.236-.733.364-.376.178-.966.464-1.936.948a5.511,5.511,0,0,0,.063-.912,4.828,4.828,0,0,0-.16-1.169C2293.559,1703.269,2293,1703.286,2292.823,1702.572Z" transform="translate(-2291.55 -1700.124)" fill="url(#linear-gradient-47)"/>
        <path id="Path_30920" data-name="Path 30920" d="M2281.564,1737.138a2.651,2.651,0,0,1-2.683.254c-1.281-.641-.239-3.835.865-4.146a1.723,1.723,0,0,1,1.372.363c.239.192.284.349.68.654.366.283.5.283.582.444.1.2.081.586-.539,1.39a.75.75,0,0,1,.875.055.516.516,0,0,1,.1.254C2282.864,1736.841,2282.373,1737.168,2281.564,1737.138Z" transform="translate(-2277.963 -1731.158)" fill="url(#linear-gradient-48)"/>
        <path id="Path_30921" data-name="Path 30921" d="M2277.568,1754.664c-.083.023.012.355-.114.715a1.768,1.768,0,0,1-1.935,1.039c-.414-.125-.424-.423-1.052-.771a3.116,3.116,0,0,0-.982-.341,1.873,1.873,0,0,0-.27,2.047,1.719,1.719,0,0,0,1.425.657,2,2,0,0,0,1.414-.385c.557-.46.383-.95.911-1.2a3.3,3.3,0,0,0,.939-.4,2,2,0,0,0,.239-.208C2277.954,1755.292,2277.689,1754.63,2277.568,1754.664Z" transform="translate(-2273.018 -1751.276)" fill="url(#linear-gradient-49)"/>
        <path id="Path_30922" data-name="Path 30922" d="M2284.6,1772.14a1.69,1.69,0,0,0,.726.452c.025.008.048.027.046.041a.629.629,0,0,1-.668-.065c-.182-.147-.261-.42-.212-.461C2284.512,1772.09,2284.558,1772.113,2284.6,1772.14Z" transform="translate(-2283.766 -1767.632)" fill="url(#linear-gradient-50)"/>
      </g>
      <path id="Path_30923" data-name="Path 30923" d="M2003.911,1755.327l-.655-2.823s-1.4-2.17-2.322-3.925-.453,2.719.165,3.925,1.723,3.108,1.723,3.108Z" transform="translate(-1980.652 -1717.889)" fill="url(#linear-gradient-51)"/>
      <path id="Path_30924" data-name="Path 30924" d="M2036.149,1854.836l1.424-.867c2.931,6.349,5.891,8.042,8.079,8.392,2.207.353,5.475-.963,11.922-3.608,4.2-1.722,5.26-2.389,6.745-1.882,2.949,1.006,4.909,5.73,3.937,9.421-1.423,5.4-8.7,6.959-10.773,7.4-1.392.3-10.991,2.347-17.319-4.583C2034.916,1863.361,2035.982,1855.885,2036.149,1854.836Z" transform="translate(-2013.978 -1817.112)" fill="url(#linear-gradient-52)"/>
    </g>
    <g id="Group_39608" data-name="Group 39608" transform="translate(576.621 585.318)">
      <g id="Group_39604" data-name="Group 39604" transform="translate(0.735)">
        <path id="Path_30925" data-name="Path 30925" d="M2652.246,2464.531a7.836,7.836,0,0,0,4.855.237c3.639-1.164,5.615-5.506,5.916-8.914.259-2.926-.989-5.783-3.484-11.5-2.35-5.38-3.551-6.627-2.827-8.456,1.032-2.607,4.516-2.711,5.263-5.933a3.621,3.621,0,0,0-.3-2.763c-1.191-1.794-4.489-1.508-6.346-.909-1.792.578-4.345,2.125-4.793,4.468-.324,1.7.732,2.37.135,3.729s-1.852,1.1-3.662,2.8a6.8,6.8,0,0,0-2.4,3.9c-.292,2.407,1.729,3.472,1.067,5.191-.478,1.242-1.689,1.092-2.51,2.349-1.08,1.656-.3,3.933.381,5.819C2644.341,2456.77,2646.493,2462.763,2652.246,2464.531Z" transform="translate(-2642.629 -2425.839)" fill="url(#linear-gradient-53)"/>
        <path id="Path_30926" data-name="Path 30926" d="M2687.936,2439.027c.439,1.243-4.056,2.137-5.922,6.243-2.007,4.418.255,9.858,1.3,12.373,1.783,4.289,3.452,4.852,3.911,8.57.182,1.472.561,4.538-1.467,6.956-.188.225-2.326,2.7-5.265,2.483-3.333-.244-5.162-3.762-6.738-6.792-.952-1.831-2.854-5.49-1.445-6.993.862-.919,2.762-.822,4-.3,1.773.751,2.448,2.479,2.776,2.313.3-.15.032-1.695-.733-3.25-1.532-3.111-3.51-3.083-4.469-5.642-.116-.31-1-2.782.291-4.65.744-1.078,2.233-1.983,3.249-1.582,1.148.454,1.2,2.383,1.571,2.336.359-.044.534-1.835.449-3.63-.125-2.637-.709-3.086-.438-4.5a6.1,6.1,0,0,1,2.476-3.618C2683.936,2437.66,2687.561,2437.965,2687.936,2439.027Z" transform="translate(-2669.996 -2437.391)" fill="#fff" opacity="0.16" style="mix-blend-mode: screen;isolation: isolate"/>
      </g>
      <g id="Group_39607" data-name="Group 39607" transform="translate(0 11.682)">
        <path id="Path_30927" data-name="Path 30927" d="M2659.638,3064.178c3.679-.447,4.438.418,8.182.248,3.682-.167,3.934-1.048,6.942-.868,2.7.162,6.186,1.1,6.2,2.107.014,1.114-4.171,2.68-8.181,2.108-2.231-.319-2.077-.967-4.215-1.24-3.873-.5-5.011,1.55-8.926,1.115-2.265-.251-4.63-1.24-4.586-1.983C2655.106,3064.729,2658.983,3064.258,2659.638,3064.178Z" transform="translate(-2653.545 -3035.614)" fill="#d8dee8"/>
        <g id="Group_39605" data-name="Group 39605" transform="translate(13.79)">
          <path id="Path_30928" data-name="Path 30928" d="M2853.544,2642.831a33.431,33.431,0,0,1-.131-12.907c.629-3.32,1.907-10.069,7.272-13.831.423-.3,4.62-3.183,6.5-1.749.972.739,1.194,2.525.769,3.935-1.1,3.639-6.046,3.235-7.69,7.377-.547,1.379-.649,3.062-.267,3.221.47.2,1.811-1.863,1.939-2.059,1.2-1.835,1.207-2.873,2.118-3.155a1.567,1.567,0,0,1,1.627.431c.751,1.007-.733,3.3-1.148,3.941-1.085,1.677-1.991,2.058-2.212,3.485-.095.615-.078,1.523.287,1.665.493.191,1.434-1.093,2.038-1.917,1.624-2.215,1.8-3.5,2.6-3.6.753-.086,1.6.92,1.82,1.534C2869.669,2630.88,2867.278,2634.443,2853.544,2642.831Z" transform="translate(-2852.85 -2613.947)" fill="url(#linear-gradient-54)"/>
          <path id="Path_30929" data-name="Path 30929" d="M2866.473,2667.886a39.726,39.726,0,0,1,1.446-12.12c.987-3.5,2.845-10.094,8.057-12.946.37-.2,3.095-1.694,3.856-.9.508.533.058,1.994-.688,2.961-1.273,1.651-2.74,1-4.82,2.617a8.179,8.179,0,0,0-2.686,3.925,8.684,8.684,0,0,0-.207,4.132C2871.757,2657.841,2871.09,2661.578,2866.473,2667.886Z" transform="translate(-2865.606 -2639.969)" fill="#fff" opacity="0.28" style="mix-blend-mode: soft-light;isolation: isolate"/>
          <path id="Path_30930" data-name="Path 30930" d="M2896.747,2801.1c2.922-2.617,3.6-4.762,3.649-6.267.041-1.172-.277-2.563.62-3.856.573-.827,1.006-.694,2-1.583,2.07-1.86,2.327-4.366,2.754-4.27.238.054.361.876.207,1.653-.318,1.6-1.571,1.771-2.823,3.719a10,10,0,0,0-1.309,3.305c-.381,1.661-.123,2.244-.344,3.168C2901.211,2798.166,2900.169,2799.711,2896.747,2801.1Z" transform="translate(-2894.021 -2774.492)" fill="#fff" opacity="0.28" style="mix-blend-mode: soft-light;isolation: isolate"/>
        </g>
        <g id="Group_39606" data-name="Group 39606" transform="translate(0 9.635)">
          <path id="Path_30931" data-name="Path 30931" d="M2647.039,2789.263c5.066.291,6.572.594,8.959-.219,2.243-.764,4.544-2.27,4.342-2.961-.145-.5-1.553-.489-2.394-.485a12.026,12.026,0,0,0-5.425,1.37l3.379-2.293a8.356,8.356,0,0,0,3.3-2.141c.738-.79,2.435-2.93,1.8-3.958-.666-1.074-3.83-.857-5.653.666-.875.731-.876,1.29-2.049,2.566a12.316,12.316,0,0,1-2.94,2.34,16.793,16.793,0,0,0,2.476-4.227c1.164-2.9,2.042-7.48.562-8.313-.982-.553-2.929.586-3.9,1.936-.79,1.094-.712,2.012-1.256,5.528-.236,1.529-.468,2.76-.618,3.523a21.643,21.643,0,0,1-2.032-8.129c-.114-2.626.321-4.683-.683-5.231-.9-.488-2.494.464-3.3,1.357-3.281,3.615,1.048,12.1,1.506,12.973a24.1,24.1,0,0,1-4.47-4.4c-1.719-2.2-2.444-3.846-3.318-3.7s-1.441,2-1.376,3.428c.182,3.991,5.394,6.334,5.951,6.576a5.948,5.948,0,0,1-2.059-.023c-1.943-.371-2.549-1.549-4.521-1.949-.754-.153-2.3-.311-2.486.156-.341.838,3.554,3.985,8.279,5.186C2640.83,2789.279,2640.416,2788.883,2647.039,2789.263Z" transform="translate(-2630.798 -2769.103)" fill="url(#linear-gradient-55)"/>
          <path id="Path_30932" data-name="Path 30932" d="M2899.088,2929.244c2.306-1.025,1.993-2.419,4.516-4.146,1.616-1.105,1.991-.7,3.723-1.76a11.753,11.753,0,0,0,2.363-1.907s.007.009.01.014c.638,1.028-1.059,3.168-1.8,3.958a8.348,8.348,0,0,1-3.3,2.14l-3.379,2.294a12.033,12.033,0,0,1,5.425-1.37,4.731,4.731,0,0,1,2.28.319,5.4,5.4,0,0,1-1.784.724c-1.132.231-1.842-.027-2.821.563-.785.474-.72.876-1.411,1.133-.651.241-.983-.013-2.589-.277-1.562-.257-2.356-.377-2.987.02a2.2,2.2,0,0,0-.87,1.229l-.5-.03a3.842,3.842,0,0,1,.8-1.583A5.323,5.323,0,0,1,2899.088,2929.244Z" transform="translate(-2879.504 -2911.971)" fill="#fff" opacity="0.28" style="mix-blend-mode: soft-light;isolation: isolate"/>
          <path id="Path_30933" data-name="Path 30933" d="M2646.657,2885.128c-.365-.087-.539.173-1.045.239-.94.122-1.293-.654-2.4-1.022-1.308-.437-1.641.375-2.944-.029-1.032-.32-.9-.852-2.247-1.628-1.435-.826-2.042-.487-3.1-1.17a4.079,4.079,0,0,1-1.094-1.053,4.766,4.766,0,0,1,2.318.013c1.972.4,2.578,1.578,4.521,1.949a5.945,5.945,0,0,0,2.058.023c-.556-.242-5.769-2.585-5.95-6.576-.061-1.328.428-3.015,1.192-3.369a19.3,19.3,0,0,0-.089,2.33c.032,1.442.058,2.176.514,2.777.792,1.044,1.756.5,3.072,1.584,1.2.988.78,1.754,2.03,2.743,1.078.854,1.717.543,2.731,1.235a4.911,4.911,0,0,1,1.874,2.978l-.607-.026C2647.316,2885.637,2647.05,2885.222,2646.657,2885.128Z" transform="translate(-2633.645 -2866.082)" fill="#fff" opacity="0.28" style="mix-blend-mode: soft-light;isolation: isolate"/>
          <path id="Path_30934" data-name="Path 30934" d="M2817.152,2782.713c-.631-1.719-1.727-1.543-2.184-3.057s.54-1.973.286-4.153c-.19-1.633-.806-1.873-.848-2.989a4.576,4.576,0,0,1,1.6-3.333,1.492,1.492,0,0,1,1.094.058c1,.548.569,2.6.683,5.231a21.647,21.647,0,0,0,2.032,8.129c.15-.764.382-1.995.618-3.523.543-3.516.466-4.434,1.255-5.528.974-1.35,2.921-2.489,3.9-1.936a1.024,1.024,0,0,1,.158.111,5.54,5.54,0,0,0-1.322,1.251c-1.295,1.726-.558,2.962-1.732,6.367-1.129,3.274-2.275,3.476-3.184,6.305a13.309,13.309,0,0,0-.62,3.6l-.94-.049a13.937,13.937,0,0,1-.569-2.958C2817.233,2784.378,2817.578,2783.874,2817.152,2782.713Z" transform="translate(-2803.002 -2769.106)" fill="#fff" opacity="0.28" style="mix-blend-mode: soft-light;isolation: isolate"/>
        </g>
      </g>
    </g>
    <g id="Group_39609" data-name="Group 39609" transform="translate(465.888 604.633)">
      <path id="Path_30935" data-name="Path 30935" d="M1178.747,2917.666s3.785-.294,5.138,1.157,1.231,1.421.469,1.388-1.4-1.041-2.471-.189S1177.292,2920.057,1178.747,2917.666Z" transform="translate(-1157.863 -2906.415)" fill="url(#linear-gradient-56)"/>
      <path id="Path_30936" data-name="Path 30936" d="M851.584,3033.1a6.659,6.659,0,0,1-3.882-.214,3.153,3.153,0,0,0,3.574,1.635C852.208,3034.188,851.584,3033.1,851.584,3033.1Z" transform="translate(-847.702 -3014.504)" fill="url(#linear-gradient-57)"/>
      <path id="Path_30937" data-name="Path 30937" d="M948.451,3041.507a8.17,8.17,0,0,1-1.79,3.179c-1.076.867-.329,4.009-1.216,3.855s-.371-2.882-.806-3.258-1.677-1.927-.456-2.633S947.091,3040.524,948.451,3041.507Z" transform="translate(-937.701 -3022.274)" fill="url(#linear-gradient-58)"/>
      <path id="Path_30938" data-name="Path 30938" d="M909.046,2746.316s-.926-3.385,1.56-4.882,6.831-4.034,7.362-4.476,1.3.973-.249,2.8-4.033,3.109-4.094,3.9.861,5.2-1.459,7.213-11.424,6.377-13.226,6.252.245.408-1.715,2.7-1.567,4.727-2.371,4.139-.753-2.71-.737-4-1.672-3.748.581-4.541S909,2746.988,909.046,2746.316Z" transform="translate(-890.68 -2736.876)" fill="url(#linear-gradient-59)"/>
      <path id="Path_30939" data-name="Path 30939" d="M1125.519,2959.264s3.788.253,4.918,1.885,1.014,1.583.264,1.441-1.237-1.231-2.418-.542S1123.735,2961.421,1125.519,2959.264Z" transform="translate(-1107.787 -2945.453)" fill="url(#linear-gradient-60)"/>
      <path id="Path_30940" data-name="Path 30940" d="M1023.244,2813.263s-.128-.37-3.638,1.164-6.588.151-6.037,1.636,3.908,3.2,6.23,1.892S1024.259,2814.016,1023.244,2813.263Z" transform="translate(-1003.208 -2808.482)" fill="url(#linear-gradient-61)"/>
      <path id="Path_30941" data-name="Path 30941" d="M1187.381,2807.611a.212.212,0,1,0,.01-.334A.24.24,0,0,0,1187.381,2807.611Z" transform="translate(-1166.229 -2802.875)" fill="url(#linear-gradient-62)"/>
      <ellipse id="Ellipse_2863" data-name="Ellipse 2863" cx="0.703" cy="0.245" rx="0.703" ry="0.245" transform="translate(26.382 0.832) rotate(-36.18)" fill="url(#linear-gradient-63)"/>
    </g>
    <g id="Group_39612" data-name="Group 39612" transform="translate(566.413 510.914)">
      <path id="Path_30942" data-name="Path 30942" d="M2486.107,1263.124c0,7.8,7.59,14.136,17.094,14.159,9.663.024,17.615-6.469,17.615-14.5s-7.952-14.37-17.615-14.154C2493.7,1248.837,2486.107,1255.327,2486.107,1263.124Z" transform="translate(-2484.885 -1247.323)" fill="url(#linear-gradient-64)"/>
      <path id="Path_30943" data-name="Path 30943" d="M2486.107,1263.124c0,7.8,7.59,14.136,17.094,14.159,9.663.024,17.615-6.469,17.615-14.5s-7.952-14.37-17.615-14.154C2493.7,1248.837,2486.107,1255.327,2486.107,1263.124Z" transform="translate(-2484.885 -1247.323)" fill="url(#linear-gradient-64)"/>
      <path id="Path_30944" data-name="Path 30944" d="M2492.893,1578.84q-2.021.689-4.087,1.433-3.007,1.084-5.869,2.2a8.917,8.917,0,0,1,0-.9,32.184,32.184,0,0,1,2.145-5.19,13.505,13.505,0,0,1,2.66-3.893Z" transform="translate(-2481.898 -1551.079)" fill="url(#linear-gradient-66)"/>
      <path id="Path_30945" data-name="Path 30945" d="M2466.433,1242.249c0,7.8,7.59,14.136,17.094,14.159,9.663.024,17.615-6.469,17.615-14.5s-7.952-14.37-17.615-14.154C2474.023,1227.963,2466.433,1234.452,2466.433,1242.249Z" transform="translate(-2466.433 -1227.745)" fill="url(#linear-gradient-67)"/>
      <path id="Path_30946" data-name="Path 30946" d="M2466.433,1242.249c0,7.8,7.59,14.136,17.094,14.159,9.663.024,17.615-6.469,17.615-14.5s-7.952-14.37-17.615-14.154C2474.023,1227.963,2466.433,1234.452,2466.433,1242.249Z" transform="translate(-2466.433 -1227.745)" fill="url(#linear-gradient-67)"/>
      <path id="Path_30947" data-name="Path 30947" d="M2491.893,1557.965q-2.278,1.14-4.732,2.266-2.035.931-4,1.761c.688-2.277.9-3.068,1.6-5.174.756-2.251,1.163-4.084,1.98-5.206Z" transform="translate(-2482.12 -1531.5)" fill="url(#linear-gradient-69)"/>
      <g id="Group_39610" data-name="Group 39610" transform="translate(7.015 6.948)">
        <path id="Path_30948" data-name="Path 30948" d="M2579.79,1343.288h0a4.96,4.96,0,0,1,9.683,1.851,5.359,5.359,0,0,1,5.078-5.5,5.045,5.045,0,0,1,4.769,3.395h0c2.854,7.25-9.848,14.064-9.848,14.064S2577.044,1350.455,2579.79,1343.288Z" transform="translate(-2579.394 -1339.634)" fill="#fff"/>
      </g>
      <g id="Group_39611" data-name="Group 39611" transform="translate(10.899 5.398)" opacity="0.2" style="mix-blend-mode: multiply;isolation: isolate">
        <path id="Path_30949" data-name="Path 30949" d="M2643.937,1334.281c2.082-4.225-.023-8.157,2.793-10.911,2.875-2.811,6.633-.264,10.7-2.586,1.581-.9,3.345-2.617,4.66-6.122a12.648,12.648,0,0,1,3.654,8.762c0,8.034-7.952,14.527-17.615,14.5a20.43,20.43,0,0,1-6.2-.961A9.41,9.41,0,0,0,2643.937,1334.281Z" transform="translate(-2641.939 -1314.663)" fill="url(#linear-gradient-70)"/>
      </g>
    </g>
  </g>
</svg>
