<svg id="Group_39378" data-name="Group 39378" xmlns="http://www.w3.org/2000/svg" width="36.537" height="30.526" viewBox="0 0 36.537 30.526">
  <g id="valid">
    <path id="Path_43224" data-name="Path 43224" d="M.5,7.3A3.769,3.769,0,0,1,4.237,3.5H30.62a3.769,3.769,0,0,1,3.738,3.8v8.292a.806.806,0,0,1-1.612,0V7.3A2.157,2.157,0,0,0,30.62,5.112H4.237A2.157,2.157,0,0,0,2.112,7.3V22.271a2.157,2.157,0,0,0,2.125,2.188H15.816a.806.806,0,0,1,0,1.612H4.237A3.769,3.769,0,0,1,.5,22.271Z" transform="translate(-0.5 -3.5)" fill="#007c3d" fill-rule="evenodd"/>
    <path id="Path_43225" data-name="Path 43225" d="M.5,7.306A.806.806,0,0,1,1.306,6.5H33.551a.806.806,0,1,1,0,1.612H1.306A.806.806,0,0,1,.5,7.306Z" transform="translate(-0.5 -1.663)" fill="#007c3d" fill-rule="evenodd"/>
    <path id="Path_43226" data-name="Path 43226" d="M2.5,12.306a.806.806,0,0,1,.806-.806H6.531a.806.806,0,0,1,0,1.612H3.306A.806.806,0,0,1,2.5,12.306Z" transform="translate(0.724 1.398)" fill="#007c3d" fill-rule="evenodd"/>
    <path id="Path_43232" data-name="Path 43232" d="M2.5,12.306a.806.806,0,0,1,.806-.806h6.807a.806.806,0,0,1,0,1.612H3.306A.806.806,0,0,1,2.5,12.306Z" transform="translate(6.099 1.398)" fill="#007c3d" fill-rule="evenodd"/>
    <path id="Path_43227" data-name="Path 43227" d="M2.5,14.806A.806.806,0,0,1,3.306,14H13.338a.806.806,0,1,1,0,1.612H3.306A.806.806,0,0,1,2.5,14.806Z" transform="translate(0.724 2.929)" fill="#007c3d" fill-rule="evenodd"/>
  </g>
  <g id="hello" transform="translate(15.854 20.116) rotate(-45)">
    <path id="Path_43229" data-name="Path 43229" d="M13.983,7.953a1.454,1.454,0,0,0-.474-2.375l.6-.6a1.455,1.455,0,0,0,0-2.06l-.015-.015a1.446,1.446,0,0,0-.75-.4,1.468,1.468,0,0,0,.026-.271,1.445,1.445,0,0,0-.426-1.03l-.019-.019A1.456,1.456,0,0,0,11.161.961a1.448,1.448,0,0,0-.336-.523L10.812.425a1.457,1.457,0,0,0-2.057,0L4.867,4.313,5.35,2.319a1.591,1.591,0,1,0-3.1-.728l-.066.29A17.139,17.139,0,0,1,.631,6.024,5.569,5.569,0,0,0,.056,9.385a5.524,5.524,0,0,0,5.466,4.731h0a5.487,5.487,0,0,0,3.907-1.623l1.113-1.116ZM8.8,11.862a4.6,4.6,0,0,1-3.275,1.36h0A4.63,4.63,0,0,1,.941,9.258,4.669,4.669,0,0,1,1.423,6.44,18.03,18.03,0,0,0,3.059,2.08l.066-.29a.7.7,0,0,1,.918-.5.7.7,0,0,1,.439.819l-.857,3.54a.448.448,0,0,0,.751.421L9.387,1.058a.561.561,0,0,1,.793,0l.013.013a.561.561,0,0,1,0,.793l-3.08,3.08a.447.447,0,0,0,.632.632L11.5,1.821a.561.561,0,0,1,.793,0l.019.019a.561.561,0,0,1,0,.794L8.547,6.382a.447.447,0,1,0,.631.633l3.492-3.477a.562.562,0,0,1,.792,0l.015.015a.561.561,0,0,1,0,.794L9.589,8.221a.447.447,0,1,0,.631.633l2.05-2.042.291-.288a.561.561,0,0,1,.791.8L9.914,10.745Z" transform="translate(0)" fill="#007c3d" stroke="#007c3d" stroke-width="0.6"/>
  </g>
</svg>
