<svg xmlns="http://www.w3.org/2000/svg" width="21.545" height="21.545" viewBox="0 0 21.545 21.545"><defs><style>.a{fill:#525252;}</style></defs><path class="a" d="M56.318,204.436H41.945A1.919,1.919,0,0,1,40,202.549v-9.93a.677.677,0,0,1,1.353,0v9.93a.584.584,0,0,0,.592.574H56.318a.584.584,0,0,0,.592-.574v-9.93a.677.677,0,0,1,1.353,0v9.93A1.919,1.919,0,0,1,56.318,204.436Z" transform="translate(-38.359 -182.892)"/><path class="a" d="M20.872,26.19A.68.68,0,0,1,20.4,26l-8.373-8.164a1.8,1.8,0,0,0-2.5,0L1.15,26A.685.685,0,0,1,.2,26a.645.645,0,0,1,0-.928L8.571,16.9a3.174,3.174,0,0,1,4.4,0l8.373,8.164a.645.645,0,0,1,0,.928A.68.68,0,0,1,20.872,26.19Z" transform="translate(0 -16.017)"/><path class="a" d="M181.908,296.517h-5.252a.657.657,0,0,1-.656-.656v-5.826a2.054,2.054,0,0,1,2.051-2.051h2.462a2.054,2.054,0,0,1,2.051,2.051v5.826A.657.657,0,0,1,181.908,296.517Zm-4.6-1.313h3.939v-5.169a.739.739,0,0,0-.738-.739h-2.462a.739.739,0,0,0-.739.739Z" transform="translate(-168.51 -274.972)"/></svg>