<svg xmlns="http://www.w3.org/2000/svg" width="20.053" height="20" viewBox="0 0 20.053 20"><defs><style>.a{fill:#fff;}</style></defs><g transform="translate(-0.5 -0.525)"><g transform="translate(0.5 0.525)"><path class="a" d="M19.659,20.525H13.145a.854.854,0,0,1-.852-.852V15.629a1.831,1.831,0,1,0-3.662,0v4.045a.854.854,0,0,1-.852.852H1.352A.854.854,0,0,1,.5,19.673V8.774a2.379,2.379,0,0,1,.979-1.916L10.037.685a.831.831,0,0,1,.979,0l8.558,6.173a2.379,2.379,0,0,1,.979,1.916V19.716a.918.918,0,0,1-.894.809ZM14,18.865H18.85V8.774a.728.728,0,0,0-.3-.553L10.505,2.388,2.458,8.178a.728.728,0,0,0-.3.553v10.09H7.014V15.629a3.491,3.491,0,0,1,6.982,0Z" transform="translate(-0.5 -0.525)"/></g></g></svg>