<?xml version="1.0" encoding="utf-8"?>
<!-- Generator: Adobe Illustrator 23.0.1, SVG Export Plug-In . SVG Version: 6.00 Build 0)  -->
<svg version="1.1" id="Layer_1" xmlns="http://www.w3.org/2000/svg" xmlns:xlink="http://www.w3.org/1999/xlink" x="0px" y="0px"
	 viewBox="0 0 56.5 56" style="enable-background:new 0 0 56.5 56;" xml:space="preserve">
<style type="text/css">
	.st0{fill:#FFFFFF;}
</style>
<g transform="translate(26.606 6.622)">
	<path class="st0" d="M1.7,0C0.7,0,0,0.7,0,1.7c0,0.9,0.7,1.7,1.7,1.7l0,0c5.5,0,9.9,4.5,9.9,9.9c0,0.9,0.7,1.7,1.7,1.7
		c0.9,0,1.7-0.7,1.7-1.7c0,0,0,0,0,0C14.9,5.9,9,0,1.7,0z"/>
</g>
<g transform="translate(8.392 0)">
	<path class="st0" d="M15.6,0.5C5,2.7-1.8,13.1,0.4,23.7c0.7,3.4,2.3,6.5,4.6,9.1c2.1,2.3,3.2,5.3,3.3,8.4v3.3c0,2.1,1.4,4,3.4,4.7
		c0.8,4.5,5,7.5,9.5,6.8c3.5-0.6,6.2-3.3,6.8-6.8c2-0.7,3.4-2.5,3.4-4.7v-3.3c0-3.1,1.2-6.2,3.4-8.5c3.2-3.6,4.9-8.2,4.9-12.9
		c-0.1-11-9-19.8-20-19.7C18.4,0,17,0.2,15.6,0.5z M19.9,52.7c-2.1,0-4-1.4-4.7-3.4h9.4C23.9,51.3,22,52.7,19.9,52.7L19.9,52.7z
		 M28.2,44.4c0,0.9-0.7,1.6-1.7,1.6H13.2c-0.9,0-1.7-0.7-1.7-1.6v-1.6h16.6L28.2,44.4z M32.3,30.5c-2.3,2.5-3.7,5.7-4.1,9H11.5
		c-0.4-3.3-1.8-6.4-4-8.9c-6-6.7-5.5-17,1.2-23.1c2.1-1.9,4.7-3.2,7.6-3.8C25.2,1.7,34,7.3,36,16.2c0.3,1.1,0.4,2.3,0.4,3.5
		C36.4,23.7,35,27.5,32.3,30.5L32.3,30.5z"/>
</g>
<g transform="translate(0 19.675)">
	<path class="st0" d="M5-0.3H1.7C0.7-0.3,0,0.5,0,1.4s0.7,1.7,1.7,1.7c0,0,0,0,0,0H5c0.9,0,1.7-0.7,1.7-1.7C6.6,0.5,5.9-0.3,5-0.3
		C5-0.3,5-0.3,5-0.3z"/>
</g>
<g transform="translate(0.485 8.673)">
	<path class="st0" d="M5.2,2.5L2.8,0.2c-0.6-0.7-1.7-0.7-2.3,0s-0.6,1.7,0,2.4l2.3,2.4c0.6,0.7,1.7,0.7,2.3,0
		C5.8,4.2,5.8,3.2,5.2,2.5z"/>
</g>
<g transform="translate(0.485 28.34)">
	<path class="st0" d="M5.2,0.3c-0.6-0.7-1.7-0.7-2.3,0c0,0,0,0,0,0L0.5,2.7c-0.6,0.7-0.6,1.7,0,2.4s1.7,0.7,2.3,0l2.3-2.4
		C5.8,2,5.8,0.9,5.2,0.3C5.2,0.3,5.2,0.3,5.2,0.3z"/>
</g>
<g transform="translate(49.903 19.675)">
	<path class="st0" d="M5,0H1.7C0.7,0,0,0.7,0,1.7c0,0.9,0.7,1.7,1.7,1.7H5c0.9,0,1.7-0.7,1.7-1.7C6.6,0.7,5.9,0,5,0z"/>
</g>
<g transform="translate(50.388 8.673)">
	<path class="st0" d="M5.2,0.5c-0.6-0.6-1.7-0.6-2.3,0c0,0,0,0,0,0L0.5,2.8c-0.6,0.6-0.6,1.7,0,2.3c0.6,0.6,1.7,0.6,2.3,0l0,0
		l2.3-2.3C5.8,2.2,5.8,1.1,5.2,0.5C5.2,0.5,5.2,0.5,5.2,0.5z"/>
</g>
<g transform="translate(50.388 28.34)">
	<path class="st0" d="M5.2,2.8L2.8,0.5c-0.6-0.6-1.7-0.6-2.3,0s-0.6,1.7,0,2.3l0,0l2.3,2.3c0.6,0.6,1.7,0.6,2.3,0S5.8,3.5,5.2,2.8z"
		/>
</g>
</svg>
