<svg xmlns="http://www.w3.org/2000/svg" width="28.059" height="16.5" viewBox="0 0 28.059 16.5"><defs><style>.a,.b{fill:#007c3d;}.a{stroke:#007c3d;stroke-width:0.5px;}</style></defs><g transform="translate(-1532.75 -126.25)"><path class="a" d="M29.113,23.312a.446.446,0,0,0,.446-.446V7.776a.446.446,0,0,0-.446-.446H8.042a.446.446,0,0,0,0,.892H25.79a3.358,3.358,0,0,0,2.876,2.872v8.473a3.358,3.358,0,0,0-2.876,2.872H8.042a.446.446,0,0,0,0,.892ZM26.691,8.222h1.975v1.971a2.462,2.462,0,0,1-1.975-1.971Zm1.975,12.227V22.42H26.691A2.462,2.462,0,0,1,28.667,20.449ZM6.183,11.243a.446.446,0,0,1,.446-.446H8.653a.446.446,0,1,1,0,.892H6.629A.446.446,0,0,1,6.183,11.243ZM9.1,15.477a.446.446,0,0,1-.446.446h-1.3a.446.446,0,1,1,0-.892H8.689A.446.446,0,0,1,9.1,15.477Zm-.446,4.68H5.367a.446.446,0,1,1,0-.892H8.653a.446.446,0,1,1,0,.892ZM4.747,11.689a.446.446,0,1,1,.446-.446A.446.446,0,0,1,4.747,11.689Zm-2.676-.446a.446.446,0,1,1,.446.446A.446.446,0,0,1,2.071,11.243Zm2.087,4.234a.446.446,0,0,1-.446.446H2.446a.446.446,0,1,1,0-.892H3.712A.446.446,0,0,1,4.158,15.477Zm.963,0a.446.446,0,1,1,.446.446A.446.446,0,0,1,5.122,15.477ZM3.605,19.76a.439.439,0,1,1-.128-.317.446.446,0,0,1,.128.317Z" transform="translate(1531 119.17)"/><g transform="translate(1543.667 130.393)"><path class="b" d="M78.115,1.812a.191.191,0,0,0-.137-.051H76.957a1.922,1.922,0,0,0-.382-.818h1.391A.192.192,0,0,0,78.1.892a.173.173,0,0,0,.053-.131V.182A.173.173,0,0,0,78.1.051.192.192,0,0,0,77.966,0H73a.191.191,0,0,0-.137.051.173.173,0,0,0-.054.131V.937a.171.171,0,0,0,.057.128A.188.188,0,0,0,73,1.119h.866q1.26,0,1.6.642H73a.191.191,0,0,0-.137.051.173.173,0,0,0-.054.131v.58a.172.172,0,0,0,.054.131A.191.191,0,0,0,73,2.7h2.55a1.124,1.124,0,0,1-.612.71,2.812,2.812,0,0,1-1.269.244H73a.189.189,0,0,0-.134.054.171.171,0,0,0-.057.128v.722a.166.166,0,0,0,.054.125q1.147,1.159,2.974,3.244A.179.179,0,0,0,75.983,8h1.165a.174.174,0,0,0,.173-.1A.15.15,0,0,0,77.3,7.7Q75.553,5.67,74.556,4.659A3.115,3.115,0,0,0,76.2,4.034a2.1,2.1,0,0,0,.77-1.33h1a.191.191,0,0,0,.137-.051.172.172,0,0,0,.054-.131v-.58A.172.172,0,0,0,78.115,1.812Z" transform="translate(-72.806 0)"/></g></g></svg>