<?xml version="1.0" encoding="utf-8"?>
<!-- Generator: Adobe Illustrator 23.0.1, SVG Export Plug-In . SVG Version: 6.00 Build 0)  -->
<svg version="1.1" id="Layer_1" xmlns="http://www.w3.org/2000/svg" xmlns:xlink="http://www.w3.org/1999/xlink" x="0px" y="0px"
	 viewBox="0 0 16 16" style="enable-background:new 0 0 16 16;" xml:space="preserve">
<style type="text/css">
	.st0{fill:#026A35;fill-opacity:0;}
	.st1{fill:#007C3D;}
</style>
<g transform="translate(156.522 114)">
	<rect x="-160" y="-119.4" class="st0" width="25.7" height="25.7"/>
	<g transform="translate(-9.603 6.846)">
		<path class="st1" d="M-132.3-116.6c0-0.4,0-0.8,0-1.2c0-0.3-0.2-0.6-0.6-0.6l0,0c-2.1,0.1-4.1-0.7-5.6-2.1c-0.2-0.2-0.6-0.2-0.8,0
			c-1.5,1.5-3.5,2.2-5.6,2.1c-0.3,0-0.6,0.2-0.6,0.6c0,0,0,0,0,0c0,0.4,0,0.8,0,1.2c-0.1,4-0.2,9.4,6.4,11.6c0.1,0,0.2,0,0.4,0
			C-132.2-107.3-132.3-112.7-132.3-116.6z M-138.9-106.1c-5.7-2.1-5.6-6.5-5.5-10.5c0-0.2,0-0.5,0-0.7c2,0,4-0.8,5.5-2.1
			c1.5,1.3,3.5,2.1,5.5,2.1c0,0.2,0,0.5,0,0.7C-133.4-112.7-133.3-108.2-138.9-106.1z"/>
		<path class="st1" d="M-137-114.7l-2.7,2.7l-1.1-1.1c-0.2-0.2-0.6-0.2-0.8,0c-0.2,0.2-0.2,0.6,0,0.8l1.5,1.5c0.2,0.2,0.6,0.2,0.8,0
			c0,0,0,0,0,0l3-3c0.2-0.2,0.2-0.6,0-0.8C-136.5-115-136.8-115-137-114.7L-137-114.7z"/>
	</g>
</g>
</svg>
