<svg xmlns="http://www.w3.org/2000/svg" width="52.509" height="62.615" viewBox="0 0 52.509 62.615"><defs><style>.a{fill:#007c3d;}</style></defs><g transform="translate(-6820.53 -6105)"><path class="a" d="M66.516,22H29.053a7.523,7.523,0,0,0-7.523,7.523v16.7A36.385,36.385,0,0,0,34.244,73.807L46.155,84.013a2.508,2.508,0,0,0,3.26,0L61.326,73.807h0A36.385,36.385,0,0,0,74.039,46.223v-16.7A7.523,7.523,0,0,0,66.516,22Zm2.508,24.223A31.37,31.37,0,0,1,58.066,70.071h0l-10.281,8.8L37.5,70.071A31.37,31.37,0,0,1,26.545,46.223v-16.7a2.508,2.508,0,0,1,2.508-2.508H66.516a2.508,2.508,0,0,1,2.508,2.508Z" transform="translate(6799 6083)"/><path class="a" d="M45.691,29.137,34.933,39.92,31.7,36.685a2.508,2.508,0,0,0-3.536,3.536l5.015,5.015a2.508,2.508,0,0,0,3.536,0L49.251,32.7a2.508,2.508,0,0,0-3.536-3.536Z" transform="translate(6808.091 6092.889)"/></g></svg>