<svg xmlns="http://www.w3.org/2000/svg"  viewBox="0 0 22 22"><defs><style>.a{fill:#fff;}</style></defs><path class="a" d="M20.625,0H1.375A1.375,1.375,0,0,0,0,1.375v16.5A1.375,1.375,0,0,0,1.375,19.25v2.063A.687.687,0,0,0,2.063,22h2.75a.687.687,0,0,0,.688-.687V19.25h11v2.063a.687.687,0,0,0,.688.688h2.75a.687.687,0,0,0,.688-.687V19.25A1.375,1.375,0,0,0,22,17.875V1.375A1.375,1.375,0,0,0,20.625,0ZM4.125,20.625H2.75V19.25H4.125Zm15.125,0H17.875V19.25H19.25Zm1.375-2.75H1.375V1.375h19.25Z"/><path class="a" d="M4.688,17.75H19.813V16.375H5.375v-11H19.813V4H4.688A.687.687,0,0,0,4,4.688V17.063A.687.687,0,0,0,4.688,17.75Z" transform="translate(-1.25 -1.25)"/><path class="a" d="M21.438,9a3.438,3.438,0,1,0,3.438,3.438A3.437,3.437,0,0,0,21.438,9Zm-2.062,3.438a2.053,2.053,0,0,1,2.949-1.856l-2.75,2.75a2.062,2.062,0,0,1-.2-.894ZM21.438,14.5a2.063,2.063,0,0,1-.887-.206l2.75-2.75A2.07,2.07,0,0,1,21.438,14.5Z" transform="translate(-5.625 -2.813)"/><path class="a" d="M11.438,9.375V8H8.688A.687.687,0,0,0,8,8.688v6.875a.687.687,0,0,0,.688.688h2.75V14.875H9.375v-5.5Z" transform="translate(-2.5 -2.5)"/></svg>