<svg xmlns="http://www.w3.org/2000/svg" xmlns:xlink="http://www.w3.org/1999/xlink" width="35" height="105" viewBox="0 0 35 105">
  <defs>
    <clipPath id="clip-Investments_Insurance">
      <rect width="35" height="105"/>
    </clipPath>
  </defs>
  <g id="Investments_Insurance" data-name="Investments &amp; Insurance" clip-path="url(#clip-Investments_Insurance)">
    <g id="Group_39977" data-name="Group 39977" opacity="0">
      <rect id="Rectangle_18669" data-name="Rectangle 18669" width="35" height="35" fill="#e3e3e3"/>
      <rect id="Rectangle_18672" data-name="Rectangle 18672" width="35" height="35" transform="translate(0 35)" fill="#d5d5d5"/>
      <rect id="Rectangle_18673" data-name="Rectangle 18673" width="35" height="35" transform="translate(0 70)" fill="#c6c6c6"/>
      <rect id="Rectangle_18670" data-name="Rectangle 18670" width="31" height="31" transform="translate(2 2)" fill="#b5b5b5"/>
      <rect id="Rectangle_18682" data-name="Rectangle 18682" width="31" height="31" transform="translate(2 37)" fill="#b5b5b5"/>
      <rect id="Rectangle_18683" data-name="Rectangle 18683" width="31" height="31" transform="translate(2 72)" fill="#b5b5b5"/>
    </g>
    <g id="Group_39955" data-name="Group 39955" transform="translate(12787.377 -941)">
      <g id="noun_investment_4050648" transform="translate(-12779.377 943)">
        <g id="Group_39955-2" data-name="Group 39955" transform="translate(0 0)">
          <path id="Path_43912" data-name="Path 43912" d="M31.408,39.307a5.807,5.807,0,0,0-4.666.879,4.782,4.782,0,0,0-1.229,1.462,4.782,4.782,0,0,0-1.229-1.462,5.807,5.807,0,0,0-4.666-.879.888.888,0,0,0-.636.636,5.807,5.807,0,0,0,.879,4.666,6.2,6.2,0,0,0,4.765,2.09v3.118a.888.888,0,0,0,1.777,0V46.7a6.2,6.2,0,0,0,4.765-2.09,5.807,5.807,0,0,0,.879-4.666A.888.888,0,0,0,31.408,39.307Zm-10.14,4.219a3.7,3.7,0,0,1-.649-2.581,3.7,3.7,0,0,1,2.581.649,4.452,4.452,0,0,1,1.4,3.33A4.454,4.454,0,0,1,21.268,43.526Zm8.49,0a4.451,4.451,0,0,1-3.33,1.4,4.452,4.452,0,0,1,1.4-3.33,3.477,3.477,0,0,1,2.162-.667c.153,0,.294.007.419.018a3.7,3.7,0,0,1-.649,2.581Z" transform="translate(-16.692 -19.706)" fill="#007c3d"/>
          <path id="Path_43913" data-name="Path 43913" d="M23.669,18.939a9.046,9.046,0,1,0-9.046-9.046,9.046,9.046,0,0,0,9.046,9.046Zm0-16.316a7.27,7.27,0,1,1-7.27,7.27,7.27,7.27,0,0,1,7.27-7.27Z" transform="translate(-14.623 -0.846)" fill="#007c3d"/>
        </g>
      </g>
      <path id="Union_37" data-name="Union 37" d="M3.384,8.27c-.1,0-.1,0-.352-.334q-.193-.254-.571-.764c-.5-.675-1.268-1.7-2.27-3.054L.15,4.063v-.3H.663c1.017,0,1.61-.352,1.812-1.079,0-.02,0-.038.007-.056H.24A.239.239,0,0,1,0,2.385l0-.506A.24.24,0,0,1,.24,1.656H2.382a1.219,1.219,0,0,0-.344-.41A1.977,1.977,0,0,0,1.126.974H.24A.239.239,0,0,1,0,.727L0,.221A.239.239,0,0,1,.24,0h4.9a.241.241,0,0,1,.215.246v.48a.238.238,0,0,1-.239.247H3.753a2.288,2.288,0,0,1,.325.669l0,.013,1.059,0a.241.241,0,0,1,.215.246v.48a.238.238,0,0,1-.239.247H4.141A2.438,2.438,0,0,1,3.124,4.155L3.1,4.171a4.717,4.717,0,0,1-.992.476L4.578,7.953V8.27Z" transform="translate(-12773.009 948.591)" fill="#007c3d"/>
    </g>
    <g id="Group_39956" data-name="Group 39956" transform="translate(12787.377 -906)">
      <g id="noun_investment_4050648-2" data-name="noun_investment_4050648" transform="translate(-12779.377 943)">
        <g id="Group_39955-3" data-name="Group 39955" transform="translate(0 0)">
          <path id="Path_43912-2" data-name="Path 43912" d="M31.408,39.307a5.807,5.807,0,0,0-4.666.879,4.782,4.782,0,0,0-1.229,1.462,4.782,4.782,0,0,0-1.229-1.462,5.807,5.807,0,0,0-4.666-.879.888.888,0,0,0-.636.636,5.807,5.807,0,0,0,.879,4.666,6.2,6.2,0,0,0,4.765,2.09v3.118a.888.888,0,0,0,1.777,0V46.7a6.2,6.2,0,0,0,4.765-2.09,5.807,5.807,0,0,0,.879-4.666A.888.888,0,0,0,31.408,39.307Zm-10.14,4.219a3.7,3.7,0,0,1-.649-2.581,3.7,3.7,0,0,1,2.581.649,4.452,4.452,0,0,1,1.4,3.33A4.454,4.454,0,0,1,21.268,43.526Zm8.49,0a4.451,4.451,0,0,1-3.33,1.4,4.452,4.452,0,0,1,1.4-3.33,3.477,3.477,0,0,1,2.162-.667c.153,0,.294.007.419.018a3.7,3.7,0,0,1-.649,2.581Z" transform="translate(-16.692 -19.706)" fill="#fff200"/>
          <path id="Path_43913-2" data-name="Path 43913" d="M23.669,18.939a9.046,9.046,0,1,0-9.046-9.046,9.046,9.046,0,0,0,9.046,9.046Zm0-16.316a7.27,7.27,0,1,1-7.27,7.27,7.27,7.27,0,0,1,7.27-7.27Z" transform="translate(-14.623 -0.846)" fill="#fff200"/>
        </g>
      </g>
      <path id="Union_37-2" data-name="Union 37" d="M3.384,8.27c-.1,0-.1,0-.352-.334q-.193-.254-.571-.764c-.5-.675-1.268-1.7-2.27-3.054L.15,4.063v-.3H.663c1.017,0,1.61-.352,1.812-1.079,0-.02,0-.038.007-.056H.24A.239.239,0,0,1,0,2.385l0-.506A.24.24,0,0,1,.24,1.656H2.382a1.219,1.219,0,0,0-.344-.41A1.977,1.977,0,0,0,1.126.974H.24A.239.239,0,0,1,0,.727L0,.221A.239.239,0,0,1,.24,0h4.9a.241.241,0,0,1,.215.246v.48a.238.238,0,0,1-.239.247H3.753a2.288,2.288,0,0,1,.325.669l0,.013,1.059,0a.241.241,0,0,1,.215.246v.48a.238.238,0,0,1-.239.247H4.141A2.438,2.438,0,0,1,3.124,4.155L3.1,4.171a4.717,4.717,0,0,1-.992.476L4.578,7.953V8.27Z" transform="translate(-12773.009 948.591)" fill="#fff200"/>
    </g>
    <g id="Group_39957" data-name="Group 39957" transform="translate(12787.377 -871.049)">
      <g id="noun_investment_4050648-3" data-name="noun_investment_4050648" transform="translate(-12779.377 943)">
        <g id="Group_39955-4" data-name="Group 39955" transform="translate(0 0)">
          <path id="Path_43912-3" data-name="Path 43912" d="M31.408,39.307a5.807,5.807,0,0,0-4.666.879,4.782,4.782,0,0,0-1.229,1.462,4.782,4.782,0,0,0-1.229-1.462,5.807,5.807,0,0,0-4.666-.879.888.888,0,0,0-.636.636,5.807,5.807,0,0,0,.879,4.666,6.2,6.2,0,0,0,4.765,2.09v3.118a.888.888,0,0,0,1.777,0V46.7a6.2,6.2,0,0,0,4.765-2.09,5.807,5.807,0,0,0,.879-4.666A.888.888,0,0,0,31.408,39.307Zm-10.14,4.219a3.7,3.7,0,0,1-.649-2.581,3.7,3.7,0,0,1,2.581.649,4.452,4.452,0,0,1,1.4,3.33A4.454,4.454,0,0,1,21.268,43.526Zm8.49,0a4.451,4.451,0,0,1-3.33,1.4,4.452,4.452,0,0,1,1.4-3.33,3.477,3.477,0,0,1,2.162-.667c.153,0,.294.007.419.018a3.7,3.7,0,0,1-.649,2.581Z" transform="translate(-16.692 -19.706)" fill="#fff"/>
          <path id="Path_43913-3" data-name="Path 43913" d="M23.669,18.939a9.046,9.046,0,1,0-9.046-9.046,9.046,9.046,0,0,0,9.046,9.046Zm0-16.316a7.27,7.27,0,1,1-7.27,7.27,7.27,7.27,0,0,1,7.27-7.27Z" transform="translate(-14.623 -0.846)" fill="#fff"/>
        </g>
      </g>
      <path id="Union_37-3" data-name="Union 37" d="M3.384,8.27c-.1,0-.1,0-.352-.334q-.193-.254-.571-.764c-.5-.675-1.268-1.7-2.27-3.054L.15,4.063v-.3H.663c1.017,0,1.61-.352,1.812-1.079,0-.02,0-.038.007-.056H.24A.239.239,0,0,1,0,2.385l0-.506A.24.24,0,0,1,.24,1.656H2.382a1.219,1.219,0,0,0-.344-.41A1.977,1.977,0,0,0,1.126.974H.24A.239.239,0,0,1,0,.727L0,.221A.239.239,0,0,1,.24,0h4.9a.241.241,0,0,1,.215.246v.48a.238.238,0,0,1-.239.247H3.753a2.288,2.288,0,0,1,.325.669l0,.013,1.059,0a.241.241,0,0,1,.215.246v.48a.238.238,0,0,1-.239.247H4.141A2.438,2.438,0,0,1,3.124,4.155L3.1,4.171a4.717,4.717,0,0,1-.992.476L4.578,7.953V8.27Z" transform="translate(-12773.009 948.591)" fill="#fff"/>
    </g>
  </g>
</svg>
