<svg xmlns="http://www.w3.org/2000/svg" width="55.3" height="51.951" viewBox="0 0 55.3 51.951">
  <g id="invest-with-us" transform="translate(-50.797 -73.357)">
    <g id="Group_39908" data-name="Group 39908" transform="translate(50.797 73.358)">
      <path id="Path_43877" data-name="Path 43877" d="M98.362,105.7a1.117,1.117,0,0,1-2.143-.63A100.949,100.949,0,0,1,100.2,93.61c.777-1.87-2.316.018-2.834.78a84.544,84.544,0,0,0-4.386,7.849,1.13,1.13,0,0,1-.847.615,14.654,14.654,0,0,0-8.709,7c-2.665,4.678-.575,10.819.33,13.015l8.235-2.1c-1.522-4.334-1.315-4.957,1.464-7.969,5.026-5.446,10.341-10.98,10.416-18.864.039-4.115-1.243-8.348-3.225-12.779-.692-1.548-1.438-.2-1.341.957l.723,8.561c3.161-.071,3.145,1.6,2.238,3.785A98.654,98.654,0,0,0,98.362,105.7ZM77.2,74.586a1.247,1.247,0,0,1,2.493,0v2.859a1.247,1.247,0,0,1-2.493,0ZM66.4,82.261A1.246,1.246,0,0,1,67.647,80.1l2.475,1.429a1.246,1.246,0,0,1-1.245,2.158Zm1.246,13.19A1.246,1.246,0,0,1,66.4,93.292l2.476-1.429a1.246,1.246,0,0,1,1.245,2.158Zm12.046,5.515a1.247,1.247,0,0,1-2.493,0V98.107a1.247,1.247,0,0,1,2.493,0Zm10.8-7.674a1.246,1.246,0,0,1-1.245,2.158L86.77,94.022a1.246,1.246,0,0,1,1.246-2.158ZM58.532,105.7a1.116,1.116,0,0,0,2.141-.63A100.478,100.478,0,0,0,56.7,93.61c-.776-1.87,2.318.018,2.835.78a85,85,0,0,1,4.387,7.849,1.128,1.128,0,0,0,.845.615,14.651,14.651,0,0,1,8.71,7c2.666,4.678.577,10.819-.33,13.015l-8.233-2.1c1.521-4.334,1.315-4.957-1.464-7.969-5.026-5.446-10.34-10.98-10.416-18.864-.04-4.115,1.242-8.348,3.224-12.779.692-1.548,1.438-.2,1.34.957l-.721,8.561c-3.163-.071-3.145,1.6-2.239,3.785A98.343,98.343,0,0,1,58.532,105.7ZM89.246,80.1a1.246,1.246,0,0,1,1.245,2.158l-2.475,1.429a1.246,1.246,0,0,1-1.246-2.158ZM59.076,91.178l.747-8.868c.346-4.094-3.987-5.694-5.614-2.059-2.1,4.692-3.454,9.218-3.411,13.717.083,8.66,5.493,14.383,11,20.354,2.549,2.76,2.245,2.911.6,6.756a1.117,1.117,0,0,0,.738,1.553l10.3,2.624a1.119,1.119,0,0,0,1.346-.576c.013-.027,4.513-9.1.621-15.931a17.211,17.211,0,0,0-9.716-7.956,81.512,81.512,0,0,0-4.312-7.657,5.532,5.532,0,0,0-2.307-1.959Zm38.739,0-.747-8.868c-.345-4.094,3.989-5.694,5.614-2.059,2.1,4.692,3.456,9.218,3.413,13.717-.083,8.66-5.493,14.383-11,20.354-2.547,2.76-2.245,2.911-.6,6.756a1.118,1.118,0,0,1-.741,1.553l-10.3,2.624a1.12,1.12,0,0,1-1.346-.576c-.012-.027-4.514-9.1-.621-15.931a17.218,17.218,0,0,1,9.716-7.956,82.332,82.332,0,0,1,4.311-7.657A5.546,5.546,0,0,1,97.815,91.178Z" transform="translate(-50.797 -73.357)" fill="#007c3d"/>
      <path id="Union_23" data-name="Union 23" d="M5.427,12.877,2.294,8.611a4.617,4.617,0,0,0-.849-.941,1.114,1.114,0,0,0-.69-.254H.482V5.567H1.771a6.173,6.173,0,0,0,.983-.076,2.723,2.723,0,0,0,.808-.257,1.655,1.655,0,0,0,.57-.478,1.278,1.278,0,0,0,.213-.468H0l.794-1.6H4.229a1.794,1.794,0,0,0-.112-.232,1.684,1.684,0,0,0-.366-.44,1.578,1.578,0,0,0-.519-.29A2.521,2.521,0,0,0,2.524,1.6H0L.794,0H8.972L8.177,1.6H6.033a3.13,3.13,0,0,1,.18.354,3.472,3.472,0,0,1,.22.73H8.972l-.794,1.6H6.453a3.436,3.436,0,0,1-.312.962A3.69,3.69,0,0,1,5.46,6.2a3.872,3.872,0,0,1-.927.685,5.205,5.205,0,0,1-.673.3l4.215,5.7ZM.755,7.137a1.384,1.384,0,0,1,.853.309,4.854,4.854,0,0,1,.9,1L5.563,12.6h0L2.513,8.444a4.854,4.854,0,0,0-.9-1A1.384,1.384,0,0,0,.755,7.137ZM5.9,5.122A3.4,3.4,0,0,1,5.27,6a3.587,3.587,0,0,1-.862.636,4.86,4.86,0,0,1-1,.4,4.86,4.86,0,0,0,1-.4A3.587,3.587,0,0,0,5.27,6,3.4,3.4,0,0,0,5.9,5.122a3.248,3.248,0,0,0,.319-1.113H8.01l.517-1.043L8.01,4.008H6.218A3.248,3.248,0,0,1,5.9,5.122ZM.444,4.008h0ZM4.6,2.966A2.049,2.049,0,0,0,3.926,1.8a2.221,2.221,0,0,0-1.4-.477h0a2.221,2.221,0,0,1,1.4.477A2.049,2.049,0,0,1,4.6,2.966ZM8.01,1.322,8.527.28,8.01,1.322h0Z" transform="translate(23.164 8.985)" fill="#007c3d"/>
    </g>
  </g>
</svg>
