<svg xmlns="http://www.w3.org/2000/svg" width="45.545" height="47.166" viewBox="0 0 45.545 47.166">
  <path id="ipo" d="M8.406,48.666H8.358l-4.665,0A1.172,1.172,0,0,1,2.565,47.5a.992.992,0,0,1,.3-.716,1.19,1.19,0,0,1,.833-.378H6.6l.744,0,.005-.745c0-.146,0-.292,0-.438V29.969H4.157A2.653,2.653,0,0,1,1.5,27.31c-.006-1.054,0-2.149,0-3.093q0-.776,0-1.554V7.8q0-.067,0-.135V7.663q0-.065,0-.131a7.866,7.866,0,0,1,.041-1.094A2.6,2.6,0,0,1,4.1,4.223H7.348V2.63A1.156,1.156,0,0,1,8.508,1.5h.036A1.155,1.155,0,0,1,9.6,2.63V4.223H36.885c.146,0,.253,0,.348.012a2.641,2.641,0,0,1,1.2.346,2.963,2.963,0,0,1,.864.857l.026.035.007.009c.015.021.034.049.06.081l.177.249.052.073.073.1.177.249c1.293,1.819,2.614,3.669,3.891,5.457l.288.4.245.343c.657.911,1.347,1.882,1.9,2.662l0,.006.162.229.268.377a2.536,2.536,0,0,1,.151,2.524l-.02.039-.014.04a.47.47,0,0,1-.055.112q-.32.445-.636.892l-.249.35c-1.443,2.021-2.871,4.02-4.572,6.4q-.386.54-.77,1.081l-.188.263q-.357.5-.716,1l-.071.1-.042.059c-.052.073-.11.156-.166.228l-.009.013a2.66,2.66,0,0,1-2.13,1.155H37.1c-.36,0-.717,0-1.072,0H9.6v.75c0,.036,0,.072,0,.108s0,.074,0,.108V46.408h3.55a1.165,1.165,0,0,1,1.129,1.158,1.007,1.007,0,0,1-.3.722,1.186,1.186,0,0,1-.829.375H8.43l-.024,0ZM3.756,6.472l0,.762c0,.363,0,.731,0,1.086v.206c0,.259,0,.515,0,.77V27.714l.327,0-.054.066.02.016.015.012,0,0,0,0,0,0,.074-.089.369,0,.8,0,1.153,0h.723l.888,0h28.2c.1,0,.2,0,.3,0s.222,0,.333,0h.39l.224-.319.1-.147,0-.007.108-.154c.131-.188.278-.4.426-.6q1.077-1.507,2.149-3.01l.944-1.323.036-.05.843-1.181c.8-1.129,1.606-2.253,2.41-3.379l.309-.432-.023-.032a1.53,1.53,0,0,0,.076-.2l-.282-.09-.114-.162-.072-.1-.011-.017-.3-.418-.137-.191-.2-.275-.8-1.126q-1.6-2.249-3.207-4.5c-.318-.443-.633-.891-.926-1.31-.436-.621-.887-1.264-1.353-1.893l-.223-.3-.3,0,0-.034-.05-.008-.015,0,.007,0-.009.043H36.9c-.427,0-.843,0-1.274,0l-1.261,0h-.01l-1.267,0H4.918c-.12,0-.254,0-.4-.005ZM31.914,23.615l-.376,0-.4,0H29.188a3.9,3.9,0,0,1-1.924-.345,2.812,2.812,0,0,1-1.425-2.46c0-.532,0-1.076,0-1.6v-.219q0-.46,0-.921V13.295a2.726,2.726,0,0,1,1.48-2.471l.011-.005a3.052,3.052,0,0,1,1.326-.316h2.56c.108,0,.222,0,.359,0,.113,0,.228,0,.341,0,.194,0,.343.006.466.018a2.74,2.74,0,0,1,2.6,2.66l0,.029c0,.021,0,.035,0,.055v6.966c0,.053,0,.108,0,.163v.092c0,.148.005.288,0,.422a2.811,2.811,0,0,1-2.651,2.707C32.219,23.612,32.088,23.615,31.914,23.615ZM29.158,12.741c-.134,0-.24,0-.345.005l-.722.027V13.5c0,.088,0,.175,0,.259v.077c0,.114,0,.208,0,.3v6.022c0,.074,0,.147,0,.22s0,.163,0,.244v.725l.725.024c.106,0,.215.005.333.005.23,0,.467-.007.658-.013h.032c.2-.005.387-.01.573-.01s.4,0,.584.01l.064,0c.189,0,.384.01.578.01.128,0,.252,0,.379-.007l.721-.028v-.721c0-.1,0-.209,0-.328,0-.1,0-.193,0-.287V12.771l-.512-.017a.7.7,0,0,1,.158.079l-.371.555.212-.634-.212-.007c-.107,0-.218-.005-.338-.005-.228,0-.458.006-.653.012h-.031c-.2.005-.385.01-.57.01s-.369,0-.565-.01h-.037C29.61,12.747,29.387,12.741,29.158,12.741ZM15.461,23.6h-.05a1.171,1.171,0,0,1-1.063-1.128V11.716a1.078,1.078,0,0,1,.445-.879l.008-.006a1.13,1.13,0,0,1,.576-.231l.029,0c.029,0,.062-.007.1-.009h.031c.03,0,.058,0,.079,0l.04,0h4.135a3.665,3.665,0,0,1,1.11.11,2.823,2.823,0,0,1,1.98,2.657v.022c0,.015,0,.051,0,.073v.014l0,2.088a6.255,6.255,0,0,1-.068,1.058A2.754,2.754,0,0,1,21.517,18.4a4.157,4.157,0,0,1-2.164.374H16.608v3.7A1.162,1.162,0,0,1,15.461,23.6ZM16.61,12.838v3.668h2.061c.146,0,.294,0,.472.008.152,0,.34.009.525.009l.244,0,.717-.021.011-.718c0-.208,0-.415-.006-.6,0-.128-.006-.278-.006-.425V12.838h-.75v-.05a.726.726,0,0,1,.086.005.721.721,0,0,0-.107-.007v.052ZM9.537,23.6h-.05a1.154,1.154,0,0,1-1.059-1.128V11.716a1.155,1.155,0,0,1,1.16-1.13h.036a1.172,1.172,0,0,1,1.06,1.13v10.76A1.163,1.163,0,0,1,9.537,23.6Z" transform="translate(-1.5 -1.5)" fill="#007c3d"/>
</svg>
