<svg xmlns="http://www.w3.org/2000/svg" width="32" height="32" viewBox="0 0 32 32">
  <g id="ipo" transform="translate(12848 -12879)">
    <g id="Group_39984" data-name="Group 39984" transform="translate(-12848 12879)">
      <g id="Group_39993" data-name="Group 39993" opacity="0">
        <rect id="Rectangle_18667" data-name="Rectangle 18667" width="32" height="32" fill="#e6e6e6"/>
        <rect id="Rectangle_18668" data-name="Rectangle 18668" width="27.733" height="27.733" transform="translate(2.133 2.133)" fill="#7c0000" opacity="0.134"/>
      </g>
      <path id="ipo-2" data-name="ipo" d="M3.649,26H1.159a.634.634,0,0,1-.6-.64.558.558,0,0,1,.156-.395.617.617,0,0,1,.44-.208H3.086l0-.411c0-.08,0-.161,0-.242V15.693H1.4A1.433,1.433,0,0,1,0,14.227c0-.581,0-1.185,0-1.705q0-.428,0-.857V3.474Q0,3.437,0,3.4v0q0-.036,0-.072a4.523,4.523,0,0,1,.022-.6A1.394,1.394,0,0,1,1.373,1.5H3.09V.623A.624.624,0,0,1,3.7,0h.019a.626.626,0,0,1,.56.623V1.5H18.7c.077,0,.134,0,.184.006a1.353,1.353,0,0,1,.634.191,1.6,1.6,0,0,1,.457.472l.014.019,0,.005c.008.012.018.027.032.044l.093.137.027.04.038.057.093.137c.683,1,1.381,2.022,2.056,3.008l.152.222.129.189c.347.5.712,1.038,1,1.468l0,0,.086.126.142.208a1.45,1.45,0,0,1,.08,1.391l-.01.021-.008.022a.264.264,0,0,1-.029.062q-.169.245-.336.492l-.132.193c-.762,1.114-1.517,2.216-2.416,3.528q-.2.3-.407.6l-.1.145-.378.553-.037.055-.022.032c-.027.04-.058.086-.088.126l0,.007a1.391,1.391,0,0,1-1.126.637H4.283v.413c0,.02,0,.04,0,.06s0,.041,0,.06v8.529H6.158a.63.63,0,0,1,.6.639.567.567,0,0,1-.158.4A.615.615,0,0,1,6.158,26H3.649ZM1.192,2.741l0,.42c0,.2,0,.4,0,.6v.114c0,.143,0,.284,0,.425V14.45h.173l-.029.036.011.009.008.006,0,0,0,0,0,0,.039-.049H18.371l.161,0,.176,0h.206l.118-.176.054-.081,0,0,.057-.085c.069-.1.147-.22.225-.333l1.136-1.66.5-.729.019-.028.446-.651,1.274-1.863.163-.238-.012-.017a.866.866,0,0,0,.04-.113l-.149-.05-.06-.089-.038-.057-.006-.009-.159-.23-.072-.105-.1-.152-.425-.621q-.848-1.24-1.694-2.479c-.168-.244-.335-.491-.489-.722-.231-.342-.469-.7-.715-1.043L18.9,2.754h-.156l0-.019-.027,0h0l0,.024h-.008l-.673,0H1.806l-.212,0Zm14.878,9.45H14.63A1.985,1.985,0,0,1,13.613,12a1.563,1.563,0,0,1-.753-1.356c0-.293,0-.593,0-.883V9.638q0-.254,0-.508V6.5a1.512,1.512,0,0,1,.782-1.362l.006,0a1.558,1.558,0,0,1,.7-.174H15.7l.19,0,.18,0a2.421,2.421,0,0,1,.246.01,1.491,1.491,0,0,1,.966.455,1.626,1.626,0,0,1,.409,1.011V6.45c0,.011,0,.019,0,.03v3.84c0,.029,0,.059,0,.09v.05c0,.082,0,.159,0,.233a1.609,1.609,0,0,1-.424,1.03,1.49,1.49,0,0,1-.977.462C16.232,12.189,16.162,12.191,16.07,12.191ZM14.614,6.2c-.071,0-.127,0-.182,0l-.381.015v.4c0,.049,0,.1,0,.143V6.8c0,.063,0,.114,0,.163v3.32c0,.041,0,.081,0,.122s0,.09,0,.134v.4l.383.013c.056,0,.114,0,.176,0,.122,0,.247,0,.348-.007h.017c.105,0,.2-.006.3-.006s.209,0,.309.005h.034c.1,0,.2.006.305.006.068,0,.133,0,.2,0l.381-.015v-.4c0-.056,0-.115,0-.181s0-.106,0-.158V6.213L16.234,6.2l-.113,0c-.057,0-.115,0-.179,0-.12,0-.242,0-.345.006h-.017c-.1,0-.2.006-.3.006s-.195,0-.3-.005h-.02C14.853,6.2,14.735,6.2,14.614,6.2ZM7.377,12.184H7.35a.634.634,0,0,1-.562-.622V5.632a.6.6,0,0,1,.235-.485l0,0a.583.583,0,0,1,.3-.128l.015,0,.054,0H7.46l.021,0H9.667a1.86,1.86,0,0,1,.586.061A1.549,1.549,0,0,1,11.3,6.538V6.55c0,.008,0,.028,0,.04V7.749a3.6,3.6,0,0,1-.036.583,1.516,1.516,0,0,1-.684.984,2.117,2.117,0,0,1-1.143.206H7.983v2.041A.627.627,0,0,1,7.377,12.184ZM7.984,6.25V8.272H9.073c.077,0,.156,0,.25,0s.18,0,.277,0h.129l.379-.011.006-.4c0-.115,0-.229,0-.329,0-.07,0-.153,0-.234V6.25h-.4V6.222a.368.368,0,0,1,.046,0,.366.366,0,0,0-.057,0V6.25ZM4.247,12.184H4.22a.625.625,0,0,1-.56-.622V5.632a.624.624,0,0,1,.613-.623h.019a.635.635,0,0,1,.56.623v5.931A.628.628,0,0,1,4.247,12.184Z" transform="translate(3.5 3.5)" fill="#007c3d" stroke="#007c3d" stroke-width="0.1"/>
    </g>
  </g>
</svg>
