<?xml version="1.0" encoding="utf-8"?>
<!-- Generator: Adobe Illustrator 23.0.1, SVG Export Plug-In . SVG Version: 6.00 Build 0)  -->
<svg version="1.1" id="Layer_1" xmlns="http://www.w3.org/2000/svg" xmlns:xlink="http://www.w3.org/1999/xlink" x="0px" y="0px"
	 viewBox="0 0 16 16" style="enable-background:new 0 0 16 16;" xml:space="preserve">
<style type="text/css">
	.st0{fill:#026A35;fill-opacity:0;}
	.st1{fill:#007C3D;}
</style>
<g transform="translate(-265 -112)">
	<g transform="translate(266.738 115)">
		<rect x="-5.8" y="-5.6" class="st0" width="24.2" height="24.2"/>
		<g transform="translate(5.937 -27.993)">
			<g transform="translate(0 33)">
				<g transform="translate(0 1.936)">
					<path class="st1" d="M6.8,4.9H-6.1c-0.8,0-1.4-0.6-1.4-1.4v-9.4c0-0.8,0.6-1.4,1.4-1.4H6.8c0.8,0,1.4,0.6,1.4,1.4v9.4
						C8.1,4.3,7.5,4.9,6.8,4.9z M-6.1-6.3c-0.2,0-0.5,0.2-0.5,0.5v9.4C-6.5,3.8-6.3,4-6.1,4H6.8C7,4,7.2,3.8,7.2,3.5v-9.4
						c0-0.2-0.2-0.5-0.5-0.5L-6.1-6.3z"/>
				</g>
				<g transform="translate(11.656 5.485)">
					<path class="st1" d="M-5.9-7.2h-3.9c-0.3,0-0.5-0.2-0.5-0.5c0-0.3,0.2-0.5,0.5-0.5H-6c0.3,0,0.5,0.2,0.5,0.5
						C-5.5-7.4-5.7-7.2-5.9-7.2L-5.9-7.2z"/>
				</g>
				<g transform="translate(3.912 4.517)">
					<path class="st1" d="M-5.9,0.3H-7c-0.8,0-1.4-0.6-1.4-1.4v-5.5c0-0.8,0.6-1.4,1.4-1.4h1.1c0.8,0,1.4,0.6,1.4,1.4V-1
						C-4.6-0.3-5.2,0.3-5.9,0.3z M-7-7c-0.2,0-0.5,0.2-0.5,0.5V-1c0,0.2,0.2,0.5,0.5,0.5h1.1c0.2,0,0.5-0.2,0.5-0.5v-5.5
						C-5.5-6.8-5.7-7-5.9-7H-7z"/>
				</g>
				<g transform="translate(5.848)">
					<path class="st1" d="M-8.4-2.5c-0.3,0-0.5-0.2-0.5-0.5v0v-3.4c0-0.3,0.2-0.5,0.5-0.5C-8.2-6.8-8-6.6-8-6.3v3.4
						C-8-2.7-8.2-2.5-8.4-2.5C-8.4-2.5-8.4-2.5-8.4-2.5z"/>
				</g>
				<g transform="translate(11.372 7.946)">
					<circle class="st1" cx="-9.1" cy="-8.3" r="0.4"/>
					<circle class="st1" cx="-7.6" cy="-8.3" r="0.4"/>
					<circle class="st1" cx="-6.1" cy="-8.3" r="0.4"/>
					<circle class="st1" cx="-9.1" cy="-6.8" r="0.4"/>
					<circle class="st1" cx="-7.6" cy="-6.8" r="0.4"/>
					<circle class="st1" cx="-6.1" cy="-6.8" r="0.4"/>
					<circle class="st1" cx="-9.1" cy="-5.3" r="0.4"/>
					<circle class="st1" cx="-7.6" cy="-5.3" r="0.4"/>
					<circle class="st1" cx="-6.1" cy="-5.3" r="0.4"/>
				</g>
			</g>
		</g>
	</g>
</g>
</svg>
