<svg xmlns="http://www.w3.org/2000/svg" width="60" height="52.692" viewBox="0 0 60 52.692"><defs><style>.a{fill:#fff;}</style></defs><g transform="translate(0 0)"><g transform="translate(0 5.671)"><path class="a" d="M54.727,128.021H5.273A5.3,5.3,0,0,1,0,122.7V86.316A5.3,5.3,0,0,1,5.273,81H54.727A5.3,5.3,0,0,1,60,86.316V122.7A5.3,5.3,0,0,1,54.727,128.021ZM5.273,84.544a1.767,1.767,0,0,0-1.758,1.772V122.7a1.767,1.767,0,0,0,1.758,1.772H54.727a1.767,1.767,0,0,0,1.758-1.772V86.316a1.767,1.767,0,0,0-1.758-1.772Z" transform="translate(0 -81)"/></g><g transform="translate(33.654 16.067)"><path class="a" d="M305.894,172.544H290.772a1.772,1.772,0,1,1,0-3.544h15.122a1.772,1.772,0,1,1,0,3.544Z" transform="translate(-289 -169)"/></g><g transform="translate(11.337 13.232)"><path class="a" d="M106.57,176.9h-4.253A5.323,5.323,0,0,1,97,171.582V150.316A5.322,5.322,0,0,1,102.316,145h4.253a5.323,5.323,0,0,1,5.316,5.316v21.266A5.322,5.322,0,0,1,106.57,176.9Zm-4.253-28.354a1.774,1.774,0,0,0-1.772,1.772v21.266a1.774,1.774,0,0,0,1.772,1.772h4.253a1.774,1.774,0,0,0,1.772-1.772V150.316a1.774,1.774,0,0,0-1.772-1.772Z" transform="translate(-97 -145)"/></g><g transform="translate(16.984)"><path class="a" d="M146.772,49.776A1.772,1.772,0,0,1,145,48V34.772a1.772,1.772,0,0,1,3.544,0V48A1.772,1.772,0,0,1,146.772,49.776Z" transform="translate(-145 -33)"/></g><g transform="translate(33.356 23.683)"><circle class="a" cx="2" cy="2" r="2"/><circle class="a" cx="2" cy="2" r="2" transform="translate(7)"/><circle class="a" cx="2" cy="2" r="2" transform="translate(15)"/><ellipse class="a" cx="2" cy="1.5" rx="2" ry="1.5" transform="translate(0 8)"/><ellipse class="a" cx="2" cy="1.5" rx="2" ry="1.5" transform="translate(7 8)"/><ellipse class="a" cx="2" cy="1.5" rx="2" ry="1.5" transform="translate(15 8)"/><circle class="a" cx="2" cy="2" r="2" transform="translate(0 15)"/><circle class="a" cx="2" cy="2" r="2" transform="translate(7 15)"/><circle class="a" cx="2" cy="2" r="2" transform="translate(15 15)"/></g></g></svg>