<?xml version="1.0" encoding="utf-8"?>
<!-- Generator: Adobe Illustrator 23.0.1, SVG Export Plug-In . SVG Version: 6.00 Build 0)  -->
<svg version="1.1" id="Layer_1" xmlns="http://www.w3.org/2000/svg" xmlns:xlink="http://www.w3.org/1999/xlink" x="0px" y="0px"
	 viewBox="0 0 24 24" style="enable-background:new 0 0 24 24;" xml:space="preserve">
<style type="text/css">
	.st0{fill:#007C3D;fill-opacity:0;}
	.st1{fill:#007C3D;stroke:#007C3D;stroke-width:0.2;}
	.st2{fill:#007C3D;}
</style>
<g transform="translate(643 1998)">
	<rect x="-646.5" y="-2001.4" class="st0" width="31.1" height="31.1"/>
	<g transform="translate(-640.002 -1995)">
		<path class="st1" d="M18.6,3h-10L7-2.1C6.9-2.3,6.6-2.5,6.3-2.5h-6.9c-1.1,0-2,0.9-2.1,2v13.7c0,1.1,0.9,2,2,2H7l1.7,5
			c0.1,0.3,0.3,0.5,0.6,0.5h9.4c1.1,0,2-0.9,2-2V5C20.7,3.9,19.8,3,18.6,3L18.6,3z M-0.6,13.9c-0.4,0-0.7-0.3-0.7-0.7V-0.5
			c0-0.4,0.3-0.7,0.7-0.7h6.4l5,15.1H-0.6z M10.7,15.3l-1.3,3l-1-3H10.7z M19.3,18.7c0,0.4-0.3,0.7-0.7,0.7h-8.3l2.1-4.5
			c0.1-0.2,0.1-0.3,0-0.5l-3.3-10h9.6c0.4,0,0.7,0.3,0.7,0.7L19.3,18.7z"/>
		<path class="st2" d="M17.2,8.4h-2V7.8c0-0.4-0.3-0.7-0.7-0.7c-0.4,0-0.7,0.3-0.7,0.7v0.7h-2c-0.4,0-0.7,0.3-0.7,0.7
			s0.3,0.7,0.7,0.7h4c-0.3,0.8-0.7,1.5-1.2,2.1c-0.1-0.2-0.2-0.3-0.3-0.5c-0.2-0.3-0.6-0.4-0.9-0.2c-0.3,0.2-0.4,0.6-0.2,0.9l0,0
			c0.2,0.3,0.4,0.6,0.6,0.8c-0.3,0.4-0.7,0.8-1,1c-0.3,0.3-0.3,0.7,0,1c0.3,0.3,0.7,0.3,1,0c0,0,0.4-0.4,0.9-1
			c0.5,0.6,0.8,0.9,0.9,0.9c0.3,0.3,0.7,0.3,1,0c0.3-0.3,0.3-0.7,0-1c0,0-0.4-0.4-1-1c0.8-0.9,1.4-2.1,1.8-3.2h0.1
			c0.4,0,0.7-0.3,0.7-0.7S17.6,8.4,17.2,8.4L17.2,8.4z"/>
		<path class="st2" d="M6.7,9.6c0-0.1,0-0.2-0.1-0.3L4.3,3.6C4.2,3.3,4,3.1,3.7,3.1c-0.3,0-0.6,0.2-0.6,0.4L0.8,9.3
			c0,0.1-0.1,0.2-0.1,0.3c0,0.4,0.3,0.6,0.6,0.6c0,0,0,0,0,0c0.3,0,0.5-0.2,0.6-0.5l0.3-0.8c0,0,0,0,0.1,0h2.5c0,0,0.1,0,0.1,0
			l0.3,0.8C5.5,10,5.7,10.2,6,10.2C6.4,10.2,6.7,10,6.7,9.6C6.7,9.6,6.7,9.6,6.7,9.6z M3.7,5.6C3.7,5.6,3.7,5.6,3.7,5.6l0.8,2
			c0,0,0,0,0,0c0,0,0,0,0,0H2.9c0,0,0,0,0,0c0,0,0,0,0,0L3.7,5.6C3.7,5.6,3.7,5.6,3.7,5.6z"/>
	</g>
</g>
</svg>
