<svg id="history" xmlns="http://www.w3.org/2000/svg" width="17.066" height="16" viewBox="0 0 17.066 16">
  <path id="Path_28367" data-name="Path 28367" d="M31.189,18.762l3.2,2.4a.533.533,0,0,0,.64-.853l-2.962-2.243V13.533a.533.533,0,1,0-1.067,0v4.8a.551.551,0,0,0,.189.429Z" transform="translate(-22.733 -10.067)" fill="#007c3d"/>
  <path id="Path_28368" data-name="Path 28368" d="M9.064,2A8,8,0,0,0,1.176,8.666l-.2-.3a.534.534,0,1,0-.885.6l1.067,1.6a.534.534,0,0,0,.389.237H1.6a.532.532,0,0,0,.376-.157L3.307,9.309a.534.534,0,1,0-.755-.755l-.331.333a6.933,6.933,0,1,1,6.842,8.045,6.562,6.562,0,0,1-5.432-2.709.533.533,0,0,0-.869.619A7.618,7.618,0,0,0,9.064,18a8,8,0,1,0,0-16Z" transform="translate(0.003 -2)" fill="#007c3d"/>
</svg>
