<svg xmlns="http://www.w3.org/2000/svg" width="48.507" height="57.505" viewBox="0 0 48.507 57.505">
  <g id="loans" transform="translate(12683.167 -12881.248)">
    <path id="Union_30" data-name="Union 30" d="M10,54.4l-.05-.014-1.871-.56A1.149,1.149,0,0,1,7.3,52.394a1.157,1.157,0,0,1,1.1-.821,1.141,1.141,0,0,1,.329.049l1.846.552a19.414,19.414,0,0,0,5.078.614,24.878,24.878,0,0,0,8.338-1.379L40.422,44.5c.335-.193.8-.633.648-1.007A.967.967,0,0,0,40.2,43a.888.888,0,0,0-.211.024l-.037.009-1.134.241a8.354,8.354,0,0,1-3.269.7l-4.429.943a4.18,4.18,0,0,1-3.981,2.921H15.656a1.15,1.15,0,0,1,0-2.3H27.141a1.872,1.872,0,0,0,.93-3.5l-2.194-.067,0-.181h-6.6a1.156,1.156,0,0,1-.69-.229l-1.031-.774a13.2,13.2,0,0,0-7.87-2.623,13.038,13.038,0,0,0-5.208,1.078L1.607,40.486a1.15,1.15,0,1,1-.914-2.111L3.57,37.13a15.431,15.431,0,0,1,2.71-.887q0-.12,0-.241v-.334A28.347,28.347,0,0,1,8.168,25.186a38.149,38.149,0,0,1,5.411-9.239.317.317,0,0,1,.028-.039l.023-.027,5.4-6.32A12.021,12.021,0,0,1,16.8,2.585V2.54A2.5,2.5,0,0,1,18.079.354a2.623,2.623,0,0,1,2.631,0l3.132,1.814a.331.331,0,0,0,.329,0L27.3.354a2.623,2.623,0,0,1,2.631,0A2.5,2.5,0,0,1,31.2,2.54a12.025,12.025,0,0,1-1.888,6.471l5.2,5.026a.515.515,0,0,1,.07.07A38.366,38.366,0,0,1,41.3,24.215,29,29,0,0,1,43.67,36a7.8,7.8,0,0,1-1.89,5.083,3.074,3.074,0,0,1,1.417,1.53,3.2,3.2,0,0,1-1.729,3.932c-.032.016-.064.032-.1.046L24.864,53.538l-.042.017a27.223,27.223,0,0,1-9.166,1.532A21.834,21.834,0,0,1,10,54.4ZM35.31,41.669l2.783-.593A5.657,5.657,0,0,0,41.369,36c0-7.542-2.535-13.626-8.478-20.341l-5.327-5.144a1.208,1.208,0,0,1-.184-.029H21.268L15.4,17.354a35.72,35.72,0,0,0-5.085,8.669,26,26,0,0,0-1.737,9.645V35.9q.555-.04,1.115-.04a15.416,15.416,0,0,1,9.25,3.083l.724.544h7.475a4.176,4.176,0,0,1,3.665,2.18ZM19.228,2.344a.22.22,0,0,0-.121.2v.045a9.728,9.728,0,0,0,1.77,5.6H27.1l.058-.084A9.744,9.744,0,0,0,28.905,2.54a.222.222,0,0,0-.126-.2.343.343,0,0,0-.166-.045.326.326,0,0,0-.164.046L25.323,4.158a2.635,2.635,0,0,1-2.634,0L19.56,2.343A.316.316,0,0,0,19.4,2.3h0A.34.34,0,0,0,19.228,2.344ZM25.591,34.91,22.14,30.757a4.756,4.756,0,0,0-.935-.916,1.328,1.328,0,0,0-.76-.247h-.3v-1.8h1.42a7.751,7.751,0,0,0,1.083-.074,3.307,3.307,0,0,0,.89-.25A1.777,1.777,0,0,0,24.165,27a1.185,1.185,0,0,0,.234-.456H19.614l.875-1.559h3.783a1.6,1.6,0,0,0-.122-.226,1.686,1.686,0,0,0-.4-.428,1.806,1.806,0,0,0-.572-.283,3.116,3.116,0,0,0-.779-.119h-2.78l.875-1.56h9.006l-.875,1.56H26.258a2.916,2.916,0,0,1,.2.345,3.1,3.1,0,0,1,.242.711h2.8l-.875,1.559h-1.9a3.068,3.068,0,0,1-.344.938,3.651,3.651,0,0,1-.75.921,4.269,4.269,0,0,1-1.021.667,6.073,6.073,0,0,1-.741.29l4.643,5.548Zm-4.207-5.288a5.027,5.027,0,0,1,1,.973l3.36,4.043h0l-3.36-4.043a5.027,5.027,0,0,0-1-.973,1.651,1.651,0,0,0-.94-.3A1.651,1.651,0,0,1,21.384,29.622Zm3.37-3.346h0ZM22.4,23.66a2.663,2.663,0,0,1,1.538.464,1.957,1.957,0,0,1,.74,1.136,1.957,1.957,0,0,0-.74-1.136A2.663,2.663,0,0,0,22.4,23.66h0Zm6.036,0h0Z" transform="translate(-12678.33 12881.248)" fill="#007c3d"/>
    <path id="Path_19797" data-name="Path 19797" d="M315.462,415.133a1,1,0,0,1-.88-.526l-8.462-15.715a1,1,0,0,1,.326-1.306l3.627-2.418a1,1,0,0,1,1.435.358l8.462,15.715a1,1,0,0,1-.326,1.306l-3.627,2.418A1,1,0,0,1,315.462,415.133Zm-7.15-16.388,7.51,13.947,1.955-1.3-7.51-13.947Z" transform="translate(-12989.016 12523.47)" fill="#007c3d"/>
    <path id="Path_19797_-_Outline" data-name="Path 19797 - Outline" d="M315.462,415.283a1.15,1.15,0,0,1-1.013-.6l-8.462-15.715a1.145,1.145,0,0,1,.375-1.5l3.627-2.418a1.15,1.15,0,0,1,1.65.412L320.1,411.17a1.145,1.145,0,0,1-.375,1.5L316.1,415.09A1.147,1.147,0,0,1,315.462,415.283Zm-4.835-20.133a.847.847,0,0,0-.471.143l-3.627,2.418a.846.846,0,0,0-.277,1.11l8.462,15.715a.85.85,0,0,0,1.22.3l3.627-2.418a.846.846,0,0,0,.277-1.11L311.375,395.6a.85.85,0,0,0-.748-.447Zm5.141,17.758L308.115,398.7l2.206-1.471,7.653,14.212Zm-7.259-14.114,7.367,13.681,1.7-1.136-7.367-13.681Z" transform="translate(-12989.016 12523.47)" fill="#007c3d"/>
  </g>
</svg>
