<svg xmlns="http://www.w3.org/2000/svg" width="14.063" height="20" viewBox="0 0 14.063 20"><defs><style>.a{fill:#707273;}</style></defs><g transform="translate(0)"><path class="a" d="M83.031,0A7.033,7.033,0,0,0,77.05,10.729l5.581,8.994a.586.586,0,0,0,.5.277h0a.586.586,0,0,0,.5-.285l5.439-9.082A7.033,7.033,0,0,0,83.031,0Zm5.034,10.032L83.12,18.289l-5.074-8.177a5.863,5.863,0,1,1,10.02-.079Z" transform="translate(-76)"/></g><g transform="translate(3.516 3.516)"><g transform="translate(0)"><path class="a" d="M169.516,90a3.516,3.516,0,1,0,3.516,3.516A3.52,3.52,0,0,0,169.516,90Zm0,5.867a2.352,2.352,0,1,1,2.348-2.352A2.353,2.353,0,0,1,169.516,95.867Z" transform="translate(-166 -90)"/></g></g></svg>