<svg xmlns="http://www.w3.org/2000/svg" width="22.156" height="20.771" viewBox="0 0 22.156 20.771"><defs><style>.a{fill:#007c3d;}</style></defs><g transform="translate(-3.6 -6.5)"><path class="a" d="M23.368,6.5H5.987A2.394,2.394,0,0,0,3.6,8.887V21.374a2.394,2.394,0,0,0,2.387,2.387H23.368a2.394,2.394,0,0,0,2.387-2.387V8.887A2.394,2.394,0,0,0,23.368,6.5Zm1.194,14.874a1.2,1.2,0,0,1-1.194,1.194H5.987a1.2,1.2,0,0,1-1.194-1.194V8.887A1.2,1.2,0,0,1,5.987,7.694H23.368a1.2,1.2,0,0,1,1.194,1.194Zm-5.8,5.3a.591.591,0,0,1-.6.6H11.192a.6.6,0,1,1,0-1.194h2.889v-.955a.6.6,0,1,1,1.194,0v.955h2.889A.591.591,0,0,1,18.76,26.674Zm.191-9.12a4.946,4.946,0,0,1-2.507-1.17,1.368,1.368,0,0,0,.263-.263,4.99,4.99,0,0,0,.883-3.462,2.858,2.858,0,0,0-2.913-2.984h-.1A2.871,2.871,0,0,0,11.67,12.66a4.99,4.99,0,0,0,.883,3.462,4.583,4.583,0,0,0,.358.334A5.381,5.381,0,0,1,10.4,17.578c-.979.239-1.5,1.17-1.409,2.483a.6.6,0,0,0,.6.549H9.64a.593.593,0,0,0,.549-.645c-.024-.406,0-1.122.5-1.241,2.1-.525,2.96-1.241,3.319-1.767a4.277,4.277,0,0,0,.573.048H14.7a3.02,3.02,0,0,0,.668-.072c.358.549,1.218,1.265,3.295,1.791.5.119.525.836.5,1.241a.593.593,0,0,0,.549.645h.048a.6.6,0,0,0,.6-.549C20.432,18.724,19.906,17.793,18.951,17.554ZM14.63,15.811h0a1.528,1.528,0,0,1-1.194-.477,3.941,3.941,0,0,1-.6-2.555v-.048c.072-1.671,1.218-1.862,1.719-1.862h.1c.5,0,1.647.191,1.719,1.862v.048a3.774,3.774,0,0,1-.6,2.555A1.361,1.361,0,0,1,14.63,15.811Z" transform="translate(0 0)"/></g></svg>