<svg xmlns="http://www.w3.org/2000/svg" xmlns:xlink="http://www.w3.org/1999/xlink" width="17.769" height="22" viewBox="0 0 17.769 22"><defs><style>.a{fill:#fff;}.b{clip-path:url(#a);}</style><clipPath id="a"><path class="a" d="M11.386,17.769a1,1,0,0,1-1-1v-9.7l-1.909,2a1.066,1.066,0,0,1-1.555,0,1.191,1.191,0,0,1,0-1.629l3.3-3.454a1.064,1.064,0,0,1,1.544-.012,1,1,0,0,1,.81.848l2.5,2.618a1.191,1.191,0,0,1,0,1.629,1.067,1.067,0,0,1-1.556,0l-.936-.98v8.686a1,1,0,0,1-1,1ZM16.5,15.227a1.056,1.056,0,0,1-1.1-1.043,1.1,1.1,0,0,1,1.1-1.091h1.1a2.2,2.2,0,0,0,2.3-2.086l-.042-6.779A2.213,2.213,0,0,0,17.6,2.08H4.4A2.24,2.24,0,0,0,2.113,4.228v6.779A2.216,2.216,0,0,0,4.4,13.127H5.5a1.051,1.051,0,1,1,0,2.1H4.4A4.263,4.263,0,0,1,0,11.007V4.228A4.27,4.27,0,0,1,4.4,0H17.6A4.381,4.381,0,0,1,22,4.362v6.645a4.263,4.263,0,0,1-4.4,4.22Z" transform="translate(17.77) rotate(90)"/></clipPath></defs><g transform="translate(0)"><path class="a" d="M11.386,17.769a1,1,0,0,1-1-1v-9.7l-1.909,2a1.066,1.066,0,0,1-1.555,0,1.191,1.191,0,0,1,0-1.629l3.3-3.454a1.064,1.064,0,0,1,1.544-.012,1,1,0,0,1,.81.848l2.5,2.618a1.191,1.191,0,0,1,0,1.629,1.067,1.067,0,0,1-1.556,0l-.936-.98v8.686a1,1,0,0,1-1,1ZM16.5,15.227a1.056,1.056,0,0,1-1.1-1.043,1.1,1.1,0,0,1,1.1-1.091h1.1a2.2,2.2,0,0,0,2.3-2.086l-.042-6.779A2.213,2.213,0,0,0,17.6,2.08H4.4A2.24,2.24,0,0,0,2.113,4.228v6.779A2.216,2.216,0,0,0,4.4,13.127H5.5a1.051,1.051,0,1,1,0,2.1H4.4A4.263,4.263,0,0,1,0,11.007V4.228A4.27,4.27,0,0,1,4.4,0H17.6A4.381,4.381,0,0,1,22,4.362v6.645a4.263,4.263,0,0,1-4.4,4.22Z" transform="translate(17.769) rotate(90)"/></g></svg>