<?xml version="1.0" encoding="utf-8"?>
<!-- Generator: Adobe Illustrator 23.0.1, SVG Export Plug-In . SVG Version: 6.00 Build 0)  -->
<svg version="1.1" id="Layer_1" xmlns="http://www.w3.org/2000/svg" xmlns:xlink="http://www.w3.org/1999/xlink" x="0px" y="0px"
	 viewBox="0 0 24 24" style="enable-background:new 0 0 24 24;" xml:space="preserve">
<style type="text/css">
	.st0{fill:#F53939;}
</style>
<g>
	<path class="st0" d="M12,24c-5.5,0-9.9-4.4-9.9-9.9c0-4.5,3-8.4,7.3-9.6c0.4-0.1,0.9,0.1,1,0.6s-0.1,0.9-0.6,1
		c-4.4,1.2-7,5.8-5.8,10.2c1.2,4.4,5.8,7,10.2,5.8c4.4-1.2,7-5.8,5.8-10.2c-0.8-2.7-2.9-4.9-5.6-5.7c-0.4-0.1-0.7-0.6-0.6-1
		c0.1-0.4,0.6-0.7,1-0.6l0,0c5.3,1.6,8.2,7.1,6.7,12.4C20.2,21.1,16.4,24,12,24z"/>
	<path class="st0" d="M12,10.8c-0.5,0-0.8-0.4-0.8-0.8c0,0,0,0,0,0V0.8C11.2,0.4,11.5,0,12,0c0.5,0,0.8,0.4,0.8,0.8v9.1
		C12.8,10.4,12.5,10.8,12,10.8C12,10.8,12,10.8,12,10.8z"/>
</g>
</svg>
