<svg id="Group_39338" data-name="Group 39338" xmlns="http://www.w3.org/2000/svg" width="34.692" height="28.596" viewBox="0 0 34.692 28.596">
  <g id="valid">
    <path id="Path_43224" data-name="Path 43224" d="M.5,7.3A3.769,3.769,0,0,1,4.237,3.5H30.62a3.769,3.769,0,0,1,3.738,3.8v8.292a.806.806,0,0,1-1.612,0V7.3A2.157,2.157,0,0,0,30.62,5.112H4.237A2.157,2.157,0,0,0,2.112,7.3V22.271a2.157,2.157,0,0,0,2.125,2.188H15.816a.806.806,0,0,1,0,1.612H4.237A3.769,3.769,0,0,1,.5,22.271Z" transform="translate(-0.5 -3.5)" fill="#007c3d" fill-rule="evenodd"/>
    <path id="Path_43225" data-name="Path 43225" d="M.5,7.306A.806.806,0,0,1,1.306,6.5H33.551a.806.806,0,1,1,0,1.612H1.306A.806.806,0,0,1,.5,7.306Z" transform="translate(-0.5 -1.663)" fill="#007c3d" fill-rule="evenodd"/>
    <path id="Path_43226" data-name="Path 43226" d="M2.5,12.306a.806.806,0,0,1,.806-.806H6.531a.806.806,0,0,1,0,1.612H3.306A.806.806,0,0,1,2.5,12.306Z" transform="translate(0.724 1.398)" fill="#007c3d" fill-rule="evenodd"/>
    <path id="Path_43232" data-name="Path 43232" d="M2.5,12.306a.806.806,0,0,1,.806-.806h6.807a.806.806,0,0,1,0,1.612H3.306A.806.806,0,0,1,2.5,12.306Z" transform="translate(6.099 1.398)" fill="#007c3d" fill-rule="evenodd"/>
    <path id="Path_43227" data-name="Path 43227" d="M2.5,14.806A.806.806,0,0,1,3.306,14H13.338a.806.806,0,1,1,0,1.612H3.306A.806.806,0,0,1,2.5,14.806Z" transform="translate(0.724 2.929)" fill="#007c3d" fill-rule="evenodd"/>
  </g>
  <g id="settings" transform="translate(19.069 12.973)">
    <g id="Group_39328" data-name="Group 39328">
      <path id="Path_43236" data-name="Path 43236" d="M14.586,6.074l-1.079-.183a6.093,6.093,0,0,0-.434-1.047l.636-.89a.947.947,0,0,0-.1-1.224l-.957-.957a.943.943,0,0,0-.671-.279.933.933,0,0,0-.549.177l-.893.636A6.029,6.029,0,0,0,9.451,1.86L9.271.794A.949.949,0,0,0,8.334,0H6.982a.949.949,0,0,0-.938.793L5.858,1.886a5.943,5.943,0,0,0-1.044.44L3.931,1.69a.949.949,0,0,0-1.224.1l-.96.957a.951.951,0,0,0-.1,1.224l.642.9a5.951,5.951,0,0,0-.427,1.05l-1.066.18A.949.949,0,0,0,0,7.044V8.4a.949.949,0,0,0,.793.938l1.092.186a5.943,5.943,0,0,0,.44,1.044l-.633.88a.947.947,0,0,0,.1,1.224l.957.957a.943.943,0,0,0,.671.279.933.933,0,0,0,.549-.177l.9-.642A6.075,6.075,0,0,0,5.89,13.5l.18,1.079a.949.949,0,0,0,.938.793H8.362a.949.949,0,0,0,.938-.793L9.483,13.5a6.093,6.093,0,0,0,1.047-.434l.89.636a.943.943,0,0,0,.552.177h0a.943.943,0,0,0,.671-.279l.957-.957a.951.951,0,0,0,.1-1.224l-.636-.893A6.049,6.049,0,0,0,13.5,9.481L14.58,9.3a.949.949,0,0,0,.793-.938V7.011A.937.937,0,0,0,14.586,6.074Zm-.074,2.29a.083.083,0,0,1-.071.083l-1.349.225a.431.431,0,0,0-.347.318,5.141,5.141,0,0,1-.559,1.346.434.434,0,0,0,.019.472L13,11.925a.087.087,0,0,1-.01.109l-.957.957a.082.082,0,0,1-.061.026A.079.079,0,0,1,11.924,13l-1.114-.793a.434.434,0,0,0-.472-.019,5.141,5.141,0,0,1-1.346.559.426.426,0,0,0-.318.347l-.228,1.349a.083.083,0,0,1-.083.071H7.01a.083.083,0,0,1-.083-.071L6.7,13.094a.431.431,0,0,0-.318-.347,5.338,5.338,0,0,1-1.317-.54.445.445,0,0,0-.218-.058.423.423,0,0,0-.25.08l-1.124.8a.1.1,0,0,1-.048.016.086.086,0,0,1-.061-.026l-.957-.957a.087.087,0,0,1-.01-.109l.79-1.108a.44.44,0,0,0,.019-.475,5.092,5.092,0,0,1-.565-1.342A.44.44,0,0,0,2.3,8.71L.938,8.479A.083.083,0,0,1,.867,8.4V7.044A.083.083,0,0,1,.938,6.96l1.339-.225a.434.434,0,0,0,.35-.321,5.136,5.136,0,0,1,.549-1.349A.429.429,0,0,0,3.154,4.6l-.8-1.124a.087.087,0,0,1,.01-.109l.957-.957a.082.082,0,0,1,.061-.026A.079.079,0,0,1,3.43,2.4l1.108.79a.44.44,0,0,0,.475.019,5.092,5.092,0,0,1,1.342-.565.44.44,0,0,0,.318-.347L6.9.936A.083.083,0,0,1,6.988.865H8.34a.083.083,0,0,1,.083.071l.225,1.339a.434.434,0,0,0,.321.35,5.212,5.212,0,0,1,1.378.565.434.434,0,0,0,.472-.019l1.108-.8a.1.1,0,0,1,.048-.016.086.086,0,0,1,.061.026l.957.957A.087.087,0,0,1,13,3.45L12.21,4.564a.434.434,0,0,0-.019.472,5.141,5.141,0,0,1,.559,1.346A.426.426,0,0,0,13.1,6.7l1.349.228a.083.083,0,0,1,.071.083V8.363Z" transform="translate(0 -0.001)" fill="#007c3d" stroke="#007c3d" stroke-width="0.5"/>
      <path id="Path_43237" data-name="Path 43237" d="M139.417,136a3.317,3.317,0,1,0,3.317,3.317A3.319,3.319,0,0,0,139.417,136Zm0,5.768a2.45,2.45,0,1,1,2.45-2.45A2.452,2.452,0,0,1,139.417,141.769Z" transform="translate(-131.729 -131.634)" fill="#007c3d" stroke="#007c3d" stroke-width="0.5"/>
    </g>
  </g>
</svg>
