<svg xmlns="http://www.w3.org/2000/svg" width="32" height="32" viewBox="0 0 32 32">
  <g id="my-cards" transform="translate(12848 -12879)">
    <g id="Group_39984" data-name="Group 39984" transform="translate(-12848 12879)">
      <rect id="Rectangle_18667" data-name="Rectangle 18667" width="32" height="32" fill="#e6e6e6" opacity="0"/>
      <rect id="Rectangle_18668" data-name="Rectangle 18668" width="27.733" height="27.733" transform="translate(2.133 2.133)" fill="#7c0000" opacity="0"/>
    </g>
    <g id="noun_User_Setting_3244863" data-name="noun_User Setting_3244863" transform="translate(-12844.8 12882.2)">
      <g id="Group_40034" data-name="Group 40034" transform="translate(0 0)">
        <path id="Path_43972" data-name="Path 43972" d="M13.486,2a5.486,5.486,0,1,0,5.486,5.486A5.5,5.5,0,0,0,13.486,2Zm0,1.829A3.657,3.657,0,1,1,9.829,7.486,3.643,3.643,0,0,1,13.486,3.829Z" transform="translate(-2.514 -2)" fill="#007c3d"/>
        <path id="Path_43973" data-name="Path 43973" d="M10.229,16A8.231,8.231,0,0,0,2,24.229v1.829a.914.914,0,0,0,.914.914h9.918a.914.914,0,1,0,0-1.829h-9v-.914a6.366,6.366,0,0,1,6.4-6.4H13.9A.914.914,0,1,0,13.9,16Z" transform="translate(-2 -3.2)" fill="#007c3d"/>
        <path id="Path_43974" data-name="Path 43974" d="M22.388,16a.915.915,0,0,0-.905.927v.995a4.551,4.551,0,0,0-1.6.673l-.7-.7a.885.885,0,0,0-.691-.293.924.924,0,0,0-.6,1.586l.705.705a4.548,4.548,0,0,0-.67,1.6h-.993a.914.914,0,1,0,0,1.829h1a4.55,4.55,0,0,0,.668,1.589l-.711.711a.914.914,0,1,0,1.293,1.293l.709-.709a4.55,4.55,0,0,0,1.6.671v.995a.914.914,0,1,0,1.828,0V26.88a4.547,4.547,0,0,0,1.6-.67l.714.714a.914.914,0,1,0,1.292-1.293l-.711-.711a4.55,4.55,0,0,0,.671-1.6h1a.914.914,0,1,0,0-1.829H26.88a4.55,4.55,0,0,0-.673-1.612l.705-.705a.915.915,0,0,0-.65-1.57h0a.914.914,0,0,0-.639.277l-.707.707a4.548,4.548,0,0,0-1.6-.671v-.993A.912.912,0,0,0,22.391,16Zm.013,3.657A2.743,2.743,0,1,1,19.658,22.4,2.729,2.729,0,0,1,22.4,19.657Z" transform="translate(-3.2 -3.2)" fill="#007c3d"/>
      </g>
    </g>
  </g>
</svg>
