<svg xmlns="http://www.w3.org/2000/svg" width="18.458" height="19.095" viewBox="0 0 18.458 19.095"><defs><style>.a,.b{fill:#007c3d;}.b{stroke:#007c3d;stroke-width:0.2px;}</style></defs><g transform="translate(-2 -1)"><g transform="translate(2 1)"><path class="a" d="M14.093,16.912A6.365,6.365,0,0,0,16,4.476V2.909A1.912,1.912,0,0,0,14.093,1H3.909A1.912,1.912,0,0,0,2,2.909V18.185a1.912,1.912,0,0,0,1.91,1.91H14.093A1.912,1.912,0,0,0,16,18.185a.637.637,0,0,0-1.273,0,.637.637,0,0,1-.636.637H3.909a.637.637,0,0,1-.637-.637V2.909a.638.638,0,0,1,.637-.637H14.093a.638.638,0,0,1,.636.637V4.215c-.209-.021-.422-.032-.636-.032A6.3,6.3,0,0,0,10.1,5.6l.156-.622a.637.637,0,0,0-1.235-.309L8.384,7.211A.636.636,0,0,0,9,8h2.546a.637.637,0,0,0,0-1.273h-.81a5.027,5.027,0,0,1,3.356-1.273,5.092,5.092,0,1,1-3.6,8.7.636.636,0,0,0-.9.9A6.326,6.326,0,0,0,14.093,16.912Z" transform="translate(-2 -1)"/><path class="a" d="M6.636,15.273h5.092a.636.636,0,1,0,0-1.273H6.636a.636.636,0,1,0,0,1.273Z" transform="translate(-3.454 -5.726)"/><path class="a" d="M12.365,18.637A.636.636,0,0,0,11.729,18H6.636a.636.636,0,1,0,0,1.273h5.092A.636.636,0,0,0,12.365,18.637Z" transform="translate(-3.454 -7.179)"/><path class="a" d="M6.636,11.273H7.909a.636.636,0,1,0,0-1.273H6.636a.636.636,0,1,0,0,1.273Z" transform="translate(-3.454 -4.272)"/><path class="a" d="M6.636,22a.636.636,0,1,0,0,1.273H9.182a.636.636,0,1,0,0-1.273Z" transform="translate(-3.454 -8.634)"/><path class="a" d="M6.636,7.273H7.909A.637.637,0,1,0,7.909,6H6.636a.637.637,0,0,0,0,1.273Z" transform="translate(-3.454 -2.817)"/><path class="b" d="M170.79,141.244h-.568a1.643,1.643,0,0,0-.307-.614h.875a.307.307,0,0,0,0-.614h-2.979a.307.307,0,0,0,0,.614h.86a1.075,1.075,0,0,1,.921.614h-1.781a.307.307,0,1,0,0,.614h1.781a1.306,1.306,0,0,1-.246.43,1.029,1.029,0,0,1-.676.338h-.86a.288.288,0,0,0-.215.507l2.134,2.012a.368.368,0,0,0,.215.077.307.307,0,0,0,.215-.092.276.276,0,0,0,.024-.39.27.27,0,0,0-.024-.024l-1.582-1.474h.092a1.628,1.628,0,0,0,1.121-.522,1.766,1.766,0,0,0,.43-.86h.568a.307.307,0,0,0,0-.614Z" transform="translate(-156.853 -132.782)"/></g></g></svg>