<svg xmlns="http://www.w3.org/2000/svg" width="32" height="32" viewBox="0 0 32 32">
  <g id="Group_40270" data-name="Group 40270" transform="translate(-308 -644)">
    <g id="Rectangle_18719" data-name="Rectangle 18719" transform="translate(308 644)" fill="#fff" stroke="#707070" stroke-width="1" opacity="0">
      <rect width="32" height="32" stroke="none"/>
      <rect x="0.5" y="0.5" width="31" height="31" fill="none"/>
    </g>
    <g id="mobile-payment" transform="translate(311 647)">
      <path id="Path_44135" data-name="Path 44135" d="M2.444,248.881a.381.381,0,0,0-.381-.381H.381a.381.381,0,0,0,0,.762H2.063A.381.381,0,0,0,2.444,248.881Z" transform="translate(0 -235.881)" fill="#fff" stroke="#fff" stroke-width="0.3"/>
      <path id="Path_44136" data-name="Path 44136" d="M32.721,347.951l-1.457.841a.381.381,0,1,0,.381.66l1.457-.841a.381.381,0,0,0-.381-.66Z" transform="translate(-29.495 -330.233)" fill="#fff" stroke="#fff" stroke-width="0.3"/>
      <path id="Path_44137" data-name="Path 44137" d="M439.261,348.792l-1.457-.841a.381.381,0,1,0-.381.66l1.457.841a.381.381,0,0,0,.381-.66Z" transform="translate(-415.03 -330.233)" fill="#fff" stroke="#fff" stroke-width="0.3"/>
      <path id="Path_44138" data-name="Path 44138" d="M465.931,248.5h-1.683a.381.381,0,0,0,0,.762h1.683a.381.381,0,0,0,0-.762Z" transform="translate(-440.312 -235.881)" fill="#fff" stroke="#fff" stroke-width="0.3"/>
      <path id="Path_44139" data-name="Path 44139" d="M437.613,134.136a.379.379,0,0,0,.19-.051l1.457-.841a.381.381,0,1,0-.381-.66l-1.457.841a.381.381,0,0,0,.191.711Z" transform="translate(-415.029 -125.803)" fill="#fff" stroke="#fff" stroke-width="0.3"/>
      <path id="Path_44140" data-name="Path 44140" d="M33.1,133.424l-1.457-.841a.381.381,0,0,0-.381.66l1.457.841a.381.381,0,0,0,.381-.66Z" transform="translate(-29.495 -125.802)" fill="#fff" stroke="#fff" stroke-width="0.3"/>
      <path id="Path_44141" data-name="Path 44141" d="M217.431,464.63a.381.381,0,0,0,0-.762h-1.682a.381.381,0,0,0,0,.762Z" transform="translate(-204.431 -440.312)" fill="#fff" stroke="#fff" stroke-width="0.3"/>
      <path id="Path_44144" data-name="Path 44144" d="M113.622,8.731V2.063A2.066,2.066,0,0,0,111.559,0h-10.1A2.066,2.066,0,0,0,99.4,2.063v2.6a.381.381,0,0,0,.762,0V3.286h2.093a.378.378,0,0,1,.34.21,1.136,1.136,0,0,0,1.021.631h5.79a1.135,1.135,0,0,0,1.021-.631.378.378,0,0,1,.34-.21h2.093v4.75a6.27,6.27,0,1,0,0,9.928v3.909h-8.953a.381.381,0,0,0,0,.762h8.953v1.3a1.3,1.3,0,0,1-1.3,1.3h-10.1a1.3,1.3,0,0,1-1.3-1.3v-1.3h2.223a.381.381,0,0,0,0-.762h-2.223V6.19a.381.381,0,0,0-.762,0V23.937A2.066,2.066,0,0,0,101.463,26h10.1a2.066,2.066,0,0,0,2.063-2.063V17.269a6.257,6.257,0,0,0,0-8.538Zm-10.082,4.65h.923a4.567,4.567,0,0,0,1.071,2.581l-.653.653A5.485,5.485,0,0,1,103.54,13.381Zm1.342-4,.653.653a4.567,4.567,0,0,0-1.071,2.581h-.923A5.485,5.485,0,0,1,104.882,9.386Zm4.153,7.44A3.826,3.826,0,1,1,112.86,13,3.83,3.83,0,0,1,109.035,16.826ZM112,9.5a4.567,4.567,0,0,0-2.581-1.071V7.505a5.485,5.485,0,0,1,3.233,1.342Zm-3.342-1.071A4.567,4.567,0,0,0,106.073,9.5l-.653-.653a5.485,5.485,0,0,1,3.233-1.342ZM106.073,16.5a4.567,4.567,0,0,0,2.581,1.071v.923a5.485,5.485,0,0,1-3.233-1.342Zm3.342,1.071A4.567,4.567,0,0,0,112,16.5l.653.653a5.485,5.485,0,0,1-3.233,1.342Zm3.772-.957-.653-.653a4.567,4.567,0,0,0,1.071-2.581h.923A5.486,5.486,0,0,1,113.188,16.614Zm.418-4a4.567,4.567,0,0,0-1.071-2.581l.653-.653a5.485,5.485,0,0,1,1.342,3.233Zm-2.839-10.1a1.136,1.136,0,0,0-1.021.631.378.378,0,0,1-.34.21h-5.79a.378.378,0,0,1-.34-.21,1.136,1.136,0,0,0-1.021-.631h-2.093v-.46a1.3,1.3,0,0,1,1.3-1.3h10.1a1.3,1.3,0,0,1,1.3,1.3v.461h-2.093Z" transform="translate(-94.352)" fill="#fff" stroke="#fff" stroke-width="0.3"/>
      <path id="Path_44145" data-name="Path 44145" d="M2.181.855a1.1,1.1,0,0,1-.389.612,1.808,1.808,0,0,1-.641.327L2.7,3.836H1.883L.736,2.313a3.534,3.534,0,0,0-.3-.366.383.383,0,0,0-.282-.113V1.36H.535a1.273,1.273,0,0,0,.58-.12A.648.648,0,0,0,1.442.855H.036L.23.3H1.455A.554.554,0,0,0,1.244-.02a.778.778,0,0,0-.431-.13H.036L.23-.7H3.075L2.88-.149H2.051A1.147,1.147,0,0,1,2.2.3h.875L2.88.855Z" transform="translate(12.964 11.521)" fill="#fff" stroke="#fff" stroke-width="0.3"/>
    </g>
  </g>
</svg>
