<?xml version="1.0" encoding="utf-8"?>
<!-- Generator: Adobe Illustrator 23.0.1, SVG Export Plug-In . SVG Version: 6.00 Build 0)  -->
<svg version="1.1" id="Layer_1" xmlns="http://www.w3.org/2000/svg" xmlns:xlink="http://www.w3.org/1999/xlink" x="0px" y="0px"
	 viewBox="0 0 32 32" style="enable-background:new 0 0 32 32;" xml:space="preserve">
<style type="text/css">
	.st0{fill:#026A35;fill-opacity:0;}
	.st1{fill:#026A35;}
	.st2{fill:#026A35;stroke:#026A35;stroke-width:0.5;}
</style>
<g transform="translate(-0.407)">
	<rect x="0.4" y="-2.8" class="st0" width="33.6" height="37.8"/>
	<g transform="translate(8.385 3.739)">
		<g transform="translate(0)">
			<path class="st1" d="M13.5-2.1H3.3c-1.6,0-2.9,1.5-2.9,3.3v22.4c0,1.8,1.3,3.3,2.9,3.3h10.2c1.6,0,2.9-1.5,2.9-3.3V1.2
				C16.4-0.6,15.1-2.1,13.5-2.1z M14.9,23.6c0,0.9-0.6,1.5-1.4,1.5H3.3c-0.8,0-1.4-0.7-1.4-1.5v-1.8h12.9V23.6z M14.9,20.1H1.9V3.6
				h12.9V20.1z M14.9,1.8H1.9V1.2c0-0.9,0.6-1.5,1.4-1.5h10.2c0.8,0,1.4,0.7,1.4,1.5V1.8z"/>
		</g>
		<g transform="translate(5.824 20.988)">
			<g transform="translate(0)">
				<path class="st1" d="M3.7,1.7H1.5C1,1.7,0.7,2.1,0.7,2.6c0,0.4,0.3,0.8,0.7,0.8h2.2c0.4,0,0.7-0.4,0.7-0.9
					C4.4,2.1,4.1,1.7,3.7,1.7z"/>
			</g>
		</g>
		<path class="st2" d="M11.5,7.7c0-0.2-0.2-0.4-0.4-0.4H5.9c-0.2,0-0.4,0.2-0.4,0.4c0,0.2,0.1,0.4,0.3,0.4c0,0,0,0,0.1,0h1.5
			c0.9,0,1.7,0.7,1.8,1.7H5.9c-0.2,0-0.4,0.2-0.4,0.4c0,0.2,0.1,0.4,0.3,0.4c0,0,0,0,0.1,0h3.3c-0.2,1-0.9,1.7-1.8,1.7H5.9
			c-0.2,0-0.4,0.2-0.4,0.4c0,0.1,0,0.2,0.1,0.3l3.7,4c0.1,0.2,0.4,0.2,0.5,0c0.1-0.2,0.1-0.4,0-0.6c0,0,0,0,0,0l-3.1-3.2h0.6
			c1.3,0,2.4-1.1,2.6-2.5h1.1c0.2,0,0.4-0.2,0.4-0.4c0-0.2-0.1-0.4-0.3-0.4c0,0,0,0-0.1,0H10C9.9,9.2,9.6,8.6,9.2,8.1h1.9
			C11.3,8.1,11.5,7.9,11.5,7.7z"/>
	</g>
</g>
</svg>
