<svg xmlns="http://www.w3.org/2000/svg" width="16.916" height="18.746" viewBox="0 0 16.916 18.746"><defs><style>.a{fill:#fff;}</style></defs><g transform="translate(-53.741 -5.713)"><g transform="translate(53.741 5.713)"><path class="a" d="M167.372,446.022h-1.91a.375.375,0,1,0,0,.75h1.91a.375.375,0,1,0,0-.75Z" transform="translate(-160.922 -429.525)"/><path class="a" d="M67.572,19.572h-8.4a.375.375,0,1,0,0,.75H64.2V21H54.75V8.848H64.2v2.8l-.617-.411a.375.375,0,0,0-.416,0l-3.6,2.4a.375.375,0,0,0-.167.312v.562a.375.375,0,0,0,.375.375H60v3.487h-.225a.375.375,0,0,0,0,.75h7.2a.375.375,0,1,0,0-.75h-.225V14.886h.225a.375.375,0,0,0,.375-.375v-.562a.375.375,0,0,0-.167-.312l-2.233-1.488V6.975A.976.976,0,0,0,63.973,6h-9A.976.976,0,0,0,54,6.975v16.8a.976.976,0,0,0,.975.975h9a.976.976,0,0,0,.975-.975V20.322h2.624a.375.375,0,0,0,0-.75Zm-6.823-4.649h.45v3.449h-.45Zm1.2,0H64.8v3.449H61.948Zm3.6,3.449V14.923H66v3.449Zm-5.379-4.237L63.373,12l3.2,2.136ZM54.975,6.75h9a.225.225,0,0,1,.225.225V8.1H54.75V6.975A.225.225,0,0,1,54.975,6.75Zm9,17.246h-9a.225.225,0,0,1-.225-.225V21.748H64.2v2.023a.225.225,0,0,1-.225.225Z" transform="translate(-54 -6)"/><path class="a" d="M427.923,199.192a.375.375,0,0,0,0,.53.823.823,0,0,1,0,1.164.375.375,0,0,0,.53.53,1.572,1.572,0,0,0,0-2.225A.375.375,0,0,0,427.923,199.192Z" transform="translate(-413.799 -191.843)"/><path class="a" d="M462.395,165.284a.375.375,0,1,0-.53.53,2.619,2.619,0,0,1,0,3.707.375.375,0,1,0,.53.53,3.369,3.369,0,0,0,0-4.768Z" transform="translate(-446.467 -159.207)"/><path class="a" d="M96.136,101.586a.375.375,0,0,0,.375-.375v-.227a1.276,1.276,0,0,0,1.2-1.272v-.037A1.276,1.276,0,0,0,96.436,98.4H95.8a.525.525,0,0,1,0-1.05h.93a.206.206,0,0,1,.206.215.375.375,0,1,0,.749.032.956.956,0,0,0-.955-1h-.218v-.225a.375.375,0,0,0-.75,0V96.6a1.274,1.274,0,1,0,.037,2.549h.637a.525.525,0,0,1,.525.525v.037a.525.525,0,0,1-.525.525H95.49a.207.207,0,0,1-.206-.21v-.039a.375.375,0,0,0-.368-.382H94.91a.375.375,0,0,0-.375.368v.039a.956.956,0,0,0,.956.974h.27v.225A.375.375,0,0,0,96.136,101.586Z" transform="translate(-92.986 -92.626)"/></g></g></svg>