<?xml version="1.0" encoding="utf-8"?>
<!-- Generator: Adobe Illustrator 23.0.1, SVG Export Plug-In . SVG Version: 6.00 Build 0)  -->
<svg version="1.1" id="Capa_1" xmlns="http://www.w3.org/2000/svg" xmlns:xlink="http://www.w3.org/1999/xlink" x="0px" y="0px"
	 viewBox="0 0 512 512" style="enable-background:new 0 0 512 512;" xml:space="preserve">
<style type="text/css">
	.st0{fill:#007C3D;stroke:#007C3D;stroke-width:0.3;}
	.st1{fill:#007C3D;}
</style>
<g id="edit" transform="translate(0 -2.53)">
	<g id="Group_37929" transform="translate(5.513 2.68)">
		<g id="Group_37928" transform="translate(0 0)">
			<path id="Path_43283" class="st0" d="M498.2,88.8c-0.5-1.4-0.9-2.9-1.2-4.4c-0.8-4.5-2.1-9-3.9-13.2
				c-10.7-25.7-31.4-45.9-57.2-56.1c-5.2-2-10.7-3.2-16.3-3.6h-1.3c-8.3-1-16.6,2-22.3,8.2c-33.9,34-68.5,68.4-101.9,101.9
				l-24.5,24.5l-8.9,8.9l-2.1,2.1c-1,1-37.1,38.8-43.1,45c-5,5.9-4.2,14.8,1.7,19.7c5.2,4.4,12.9,4.4,18.1-0.1
				c6.1-6.2,42.2-44.1,43.2-45.1l1.8-1.8l8.9-8.9l24.5-24.5c33.5-33.5,68-68,102-102.2l0,0h0.2c3.1,0.2,6.2,0.8,9.2,1.8
				c19.1,7.4,34.4,22.4,42.2,41.4c0.9,2.5,1.6,5.2,2.1,7.8l0.5,2.2l-0.3,0.3c-55.9,55.8-114,113.9-178,177.9
				c-0.2,0.3-0.5,0.4-0.9,0.5l-64.1,13.5l-3.3,0.7l0.6-2.9c4.5-21.4,9.1-43.4,13.9-65.1c1.7-7.5-3.1-15-10.6-16.6s-15,3.1-16.6,10.6
				c-4.7,21.7-9.4,43.9-13.9,65.3l-2.6,12.1c-1.6,7.2,0.5,14.8,5.7,20.1c4.1,4,9.6,6.3,15.3,6.2c1.6,0,3.3-0.2,4.9-0.5l12.6-2.6
				l64.1-13.5c5.7-1.1,10.9-3.9,14.9-8.1c63.8-64,122.2-122.2,177.9-177.9c5.1-5,8.2-11.7,8.8-18.9C498.6,92,498.5,90.4,498.2,88.8z
				"/>
		</g>
	</g>
	<g id="Group_37931" transform="translate(0 3.352)">
		<g id="Group_37930">
			<path id="Path_43284" class="st1" d="M458.4,272.7c-11.3,0-20.5,9.2-20.6,20.6v152.9c0,5-4,9-9,9c0,0,0,0-0.1,0H65.5
				c-5,0-9-4-9-9c0,0,0,0,0-0.1V82.8c0-5,4-9,9-9c0,0,0,0,0.1,0h160.8c11.4,0,20.6-9.2,20.6-20.6s-9.2-20.6-20.6-20.6H65.5
				c-27.7,0-50.2,22.5-50.2,50.2v363.3c0.1,27.6,22.5,50,50.2,50h363.3c27.7,0,50.1-22.5,50.2-50.2V293.2
				C478.9,281.9,469.7,272.7,458.4,272.7z"/>
		</g>
	</g>
</g>
</svg>
