<svg xmlns="http://www.w3.org/2000/svg" width="28" height="28.001" viewBox="0 0 28 28.001"><defs><style>.a{fill:#007c3d;}</style></defs><g transform="translate(-0.007)"><g transform="translate(9.007 5)"><path class="a" d="M158.607,85.333a5,5,0,0,0-5,5,1,1,0,1,0,2,0,3,3,0,0,1,6,0,1,1,0,1,0,2,0A5,5,0,0,0,158.607,85.333Z" transform="translate(-153.607 -85.333)"/></g><g transform="translate(9.007 10)"><path class="a" d="M163.294,182.959a1,1,0,0,0-1.389,0l-2.3,2.293V171.666a1,1,0,1,0-2,0v13.586l-2.293-2.293a1,1,0,0,0-1.414,1.414l4,4a1,1,0,0,0,1.414,0l0,0,4-4A1,1,0,0,0,163.294,182.959Z" transform="translate(-153.61 -170.666)"/></g><g transform="translate(0.007)"><g transform="translate(0)"><path class="a" d="M27.007,0h-26a1,1,0,0,0-1,1V19a1,1,0,0,0,1,1h9a1,1,0,0,0,0-2H6.917a6.008,6.008,0,0,0-4.91-4.91V6.91A6.008,6.008,0,0,0,6.917,2H21.1a6.008,6.008,0,0,0,4.91,4.91v6.18A6.008,6.008,0,0,0,21.1,18h-3.09a1,1,0,1,0,0,2h9a1,1,0,0,0,1-1V1A1,1,0,0,0,27.007,0ZM4.865,18H2.007V15.142A3.991,3.991,0,0,1,4.865,18ZM2.007,4.858V2H4.865A4,4,0,0,1,2.007,4.858ZM26.007,18H23.149a3.991,3.991,0,0,1,2.858-2.858Zm0-13.142A4,4,0,0,1,23.149,2h2.858Z" transform="translate(-0.007 0)"/></g></g></g></svg>