<svg xmlns="http://www.w3.org/2000/svg" width="28" height="28" viewBox="0 0 28 28"><defs><style>.a{fill:#007c3d;}</style></defs><g transform="translate(0 -0.002)"><g transform="translate(9 17.002)"><path class="a" d="M162.6,290.132a1,1,0,0,0-1,1,3,3,0,1,1-6,0,1,1,0,0,0-2,0,5,5,0,1,0,10,0A1,1,0,0,0,162.6,290.132Z" transform="translate(-153.599 -290.132)"/></g><g transform="translate(9.012 0.002)"><g transform="translate(0 0)"><path class="a" d="M163.5,4.295l-4-4a1,1,0,0,0-1.414,0l-4,4A1,1,0,0,0,155.5,5.709L157.8,3.416V17a1,1,0,1,0,2,0V3.416l2.293,2.293A1,1,0,0,0,163.5,4.295Z" transform="translate(-153.809 -0.002)"/></g></g><g transform="translate(0 8.002)"><path class="a" d="M27,136.531H18a1,1,0,1,0,0,2h3.09a6.008,6.008,0,0,0,4.91,4.91v6.18a6.008,6.008,0,0,0-4.91,4.91H6.91A6.008,6.008,0,0,0,2,149.621v-6.18a6.008,6.008,0,0,0,4.91-4.91H10a1,1,0,0,0,0-2H1a1,1,0,0,0-1,1v18a1,1,0,0,0,1,1H27a1,1,0,0,0,1-1v-18A1,1,0,0,0,27,136.531Zm-25,2H4.858A4,4,0,0,1,2,141.389v-2.858Zm0,16v-2.858a4,4,0,0,1,2.858,2.858Zm24,0H23.142A4,4,0,0,1,26,151.673Zm0-13.142a4,4,0,0,1-2.858-2.858H26Z" transform="translate(0 -136.531)"/></g></g></svg>