<svg xmlns="http://www.w3.org/2000/svg" width="70.089" height="69.241" viewBox="0 0 70.089 69.241"><defs><style>.a,.b{fill:#007c3d;stroke:#007c3d;}.b{stroke-width:0.5px;font-size:16px;font-family:HelveticaNeue-Medium, Helvetica Neue;font-weight:500;}</style></defs><g transform="translate(-2.339 -2.635)"><g transform="translate(2.852 3.02)"><path class="a" d="M69.857,18.088C35.95,2.214,37.681,2.783,36.91,3.139L4.9,18.1a3.557,3.557,0,0,0-1.707,4.742c.9,1.921,1.589,4.422,4.529,4.161V51.4A11.855,11.855,0,1,0,25.553,67.016H63.491a3.557,3.557,0,0,0,3.557-3.557V26.98c2.857.261,3.557-2.039,4.529-4.149a3.557,3.557,0,0,0-1.719-4.742Zm-44.3,42.846a9.484,9.484,0,1,1-2.385-7.384A9.484,9.484,0,0,1,25.553,60.934ZM23.182,43.305v5.928H21.3a15.222,15.222,0,0,0-4.043-1.186V43.305Zm-5.928-2.371V36.192a1.186,1.186,0,0,1,1.186-1.186h4.742v5.928ZM57.563,64.645H39.78V36.192a1.186,1.186,0,0,1,1.186-1.186H56.377a1.186,1.186,0,0,1,1.186,1.186Zm11.855-42.81-1,2.146a1.186,1.186,0,0,1-1.577.557L58.962,20.78a1.191,1.191,0,1,0-1.008,2.158l6.722,3.189V63.459a1.186,1.186,0,0,1-1.186,1.186H59.934V36.192a3.557,3.557,0,0,0-3.557-3.557H40.965a3.557,3.557,0,0,0-3.557,3.557V64.645H26.916A11.855,11.855,0,0,0,24.545,51.6H30.3a3.557,3.557,0,0,0,3.557-3.557V36.192A3.557,3.557,0,0,0,30.3,32.635H18.44a3.557,3.557,0,0,0-3.557,3.557V48.047a11.749,11.749,0,0,0-4.742,1.529V26.138L37.408,13.37l20.5,9.574a1.188,1.188,0,0,0,1-2.158L47.05,15.252C36.726,10.427,38,11.007,37.693,10.928c-1.186-.3-29.437,14.084-30.635,13.658-.652-.237-.723-.735-1.66-2.762a1.186,1.186,0,0,1,.557-1.577L37.408,5.522,68.849,20.234a1.186,1.186,0,0,1,.569,1.6ZM31.481,43.305v4.742A1.186,1.186,0,0,1,30.3,49.233H25.553V43.305Zm-5.928-2.371V35.006H30.3a1.186,1.186,0,0,1,1.186,1.186v4.742Z" transform="translate(-2.852 -3.02)"/><path class="a" d="M47.058,16.477l-1.494-.7a1.188,1.188,0,0,0-1,2.158l1.494.7a1.188,1.188,0,1,0,1-2.158Z" transform="translate(4.76 -0.673)"/><path class="a" d="M45,42.186v2.371a1.186,1.186,0,0,0,2.371,0V42.186a1.186,1.186,0,0,0-2.371,0Z" transform="translate(4.969 4.027)"/></g><text class="b" transform="translate(15.809 65.867)"><tspan x="-4.376" y="0">₹</tspan></text></g></svg>