<?xml version="1.0" encoding="utf-8"?>
<!-- Generator: Adobe Illustrator 23.0.1, SVG Export Plug-In . SVG Version: 6.00 Build 0)  -->
<svg version="1.1" id="Layer_1" xmlns="http://www.w3.org/2000/svg" xmlns:xlink="http://www.w3.org/1999/xlink" x="0px" y="0px"
	 viewBox="0 0 23.3 24.5" style="enable-background:new 0 0 23.3 24.5;" xml:space="preserve">
<style type="text/css">
	.st0{fill:#007C3D;}
</style>
<g id="Group_39458" transform="translate(1096.482 -434.1)">
	<path id="Path_43888" class="st0" d="M-1084.8,445.8c1.8,0,3.2-1.4,3.2-3.2c0-1.7-1.4-3.2-3.2-3.2c-1.7,0-3.2,1.4-3.2,3.2
		C-1087.9,444.4-1086.5,445.8-1084.8,445.8z M-1084.8,440.2c1.4,0,2.5,1.1,2.5,2.5c0,1.4-1.1,2.5-2.5,2.5c-1.4,0-2.5-1.1-2.5-2.5
		C-1087.2,441.3-1086.1,440.2-1084.8,440.2z"/>
	<path id="Path_43889" class="st0" d="M-1081.5,447.5c-0.9-0.8-2.1-1.2-3.3-1.2c-1.2,0-2.4,0.4-3.3,1.2c-1,0.8-1.7,1.8-2.1,3
		c-0.2,0.7-0.1,1.4,0.3,1.9c0.3,0.5,0.8,0.8,1.4,0.8h7.3c0.6,0,1.1-0.3,1.4-0.8c0.4-0.6,0.5-1.3,0.3-1.9
		C-1079.8,449.3-1080.5,448.2-1081.5,447.5z M-1080.3,451.9c-0.2,0.3-0.5,0.4-0.8,0.5h-7.3c-0.3,0-0.6-0.2-0.8-0.5
		c-0.3-0.4-0.3-0.9-0.2-1.3c0.3-1,1-1.9,1.8-2.6c0.8-0.7,1.8-1,2.8-1c1,0,2,0.4,2.8,1c0.8,0.7,1.5,1.6,1.8,2.6
		C-1079.9,451.1-1080,451.6-1080.3,451.9z"/>
	<path id="Path_43890" class="st0" d="M-1091.3,446c1.2,0,2.2-1,2.2-2.2c0-1.2-1-2.2-2.2-2.2c-1.2,0-2.2,1-2.2,2.2
		C-1093.5,445-1092.5,446-1091.3,446z M-1091.3,442.1c0.9,0,1.7,0.7,1.7,1.7c0,0.9-0.7,1.7-1.7,1.7c-0.9,0-1.7-0.7-1.7-1.7
		C-1093,442.9-1092.2,442.1-1091.3,442.1z"/>
	<path id="Path_43891" class="st0" d="M-1078.4,445.5c1.2,0,2.2-1,2.2-2.2s-1-2.2-2.2-2.2s-2.2,1-2.2,2.2
		S-1079.6,445.5-1078.4,445.5z M-1078.4,441.6c1,0,1.7,0.8,1.7,1.7c0,1-0.8,1.7-1.7,1.7c-1,0-1.7-0.8-1.7-1.7
		C-1080.1,442.3-1079.3,441.6-1078.4,441.6z"/>
	<path id="Path_43892" class="st0" d="M-1074.7,448.7c-0.3-0.8-0.8-1.5-1.4-2.1c-0.7-0.5-1.5-0.8-2.3-0.8c-0.8,0-1.6,0.3-2.3,0.8
		c-0.2,0.2-0.4,0.3-0.6,0.5c0.1,0.1,0.1,0.1,0.2,0.2l0.2,0.1c0.1-0.2,0.3-0.3,0.5-0.4c0.6-0.5,1.3-0.7,2-0.7c0.7,0,1.4,0.3,2,0.7
		c0.6,0.5,1,1.1,1.3,1.8c0.1,0.3,0.1,0.6-0.1,0.9c-0.1,0.2-0.3,0.3-0.6,0.3h-3.2c0,0.1,0,0.1,0.1,0.2c0,0.1,0.1,0.2,0.1,0.3h3.1
		c0.4,0,0.8-0.2,1-0.5C-1074.6,449.7-1074.5,449.2-1074.7,448.7z"/>
	<path id="Path_43893" class="st0" d="M-1094.4,450.2c-0.2-0.3-0.2-0.6-0.1-0.9c0.2-0.7,0.7-1.3,1.2-1.8c0.5-0.4,1.2-0.7,1.9-0.7
		c0.7,0,1.4,0.2,1.9,0.7c0.1,0.1,0.2,0.2,0.4,0.3c0.1-0.1,0.2-0.2,0.4-0.3c-0.1-0.1-0.3-0.3-0.4-0.4c-0.6-0.5-1.4-0.8-2.2-0.8
		c-0.8,0-1.6,0.3-2.2,0.8c-0.7,0.5-1.1,1.2-1.4,2c-0.2,0.4-0.1,0.9,0.2,1.3c0.2,0.3,0.6,0.5,1,0.5h3.1c0-0.2,0-0.3,0.1-0.5h-3.2
		C-1094.1,450.5-1094.3,450.3-1094.4,450.2z"/>
</g>
</svg>
