<svg xmlns="http://www.w3.org/2000/svg" xmlns:xlink="http://www.w3.org/1999/xlink" width="35" height="105" viewBox="0 0 35 105">
  <defs>
    <clipPath id="clip-my-accounts">
      <rect width="35" height="105"/>
    </clipPath>
  </defs>
  <g id="my-accounts" clip-path="url(#clip-my-accounts)">
    <path id="Union_32" data-name="Union 32" d="M.833,28.8a.834.834,0,0,1,0-1.668H30.165a.834.834,0,1,1,0,1.668Zm25.621-2.933H3.034a.834.834,0,1,1,0-1.668H4.4V12.668H3.034a.834.834,0,0,1-.835-.833V8.863a.832.832,0,0,1,.393-.707L15.424.127a.836.836,0,0,1,.885,0L29.141,8.156a.831.831,0,0,1,.392.707v2.971a.833.833,0,0,1-.835.833H27.333V24.2H28.7a.834.834,0,1,1,0,1.668H26.454ZM25.665,24.2V12.668h-2V24.2ZM22,24.2V12.668H18.533V24.2Zm-5.133,0V12.668h-2V24.2Zm-3.666,0V12.668H9.734V24.2Zm-5.132,0V12.668h-2V24.2ZM27.865,11V9.735h-24V11h24ZM25.853,8.066,15.866,1.819,5.88,8.066ZM14.766,6.8a.835.835,0,0,1,0-1.669h2.2a.835.835,0,1,1,0,1.669Z" transform="translate(2 3.1)" fill="#007c3d"/>
    <path id="Union_33" data-name="Union 33" d="M.833,28.8a.834.834,0,0,1,0-1.668H30.165a.834.834,0,1,1,0,1.668Zm25.621-2.933H3.034a.834.834,0,1,1,0-1.668H4.4V12.668H3.034a.834.834,0,0,1-.835-.833V8.863a.832.832,0,0,1,.393-.707L15.424.127a.836.836,0,0,1,.885,0L29.141,8.156a.831.831,0,0,1,.392.707v2.971a.833.833,0,0,1-.835.833H27.333V24.2H28.7a.834.834,0,1,1,0,1.668H26.454ZM25.665,24.2V12.668h-2V24.2ZM22,24.2V12.668H18.533V24.2Zm-5.133,0V12.668h-2V24.2Zm-3.666,0V12.668H9.734V24.2Zm-5.132,0V12.668h-2V24.2ZM27.865,11V9.735h-24V11h24ZM25.853,8.066,15.866,1.819,5.88,8.066ZM14.766,6.8a.835.835,0,0,1,0-1.669h2.2a.835.835,0,1,1,0,1.669Z" transform="translate(2 3.1)" fill="#007c3d"/>
    <path id="Union_34" data-name="Union 34" d="M.833,28.8a.834.834,0,0,1,0-1.668H30.165a.834.834,0,1,1,0,1.668Zm25.621-2.933H3.034a.834.834,0,1,1,0-1.668H4.4V12.668H3.034a.834.834,0,0,1-.835-.833V8.863a.832.832,0,0,1,.393-.707L15.424.127a.836.836,0,0,1,.885,0L29.141,8.156a.831.831,0,0,1,.392.707v2.971a.833.833,0,0,1-.835.833H27.333V24.2H28.7a.834.834,0,1,1,0,1.668H26.454ZM25.665,24.2V12.668h-2V24.2ZM22,24.2V12.668H18.533V24.2Zm-5.133,0V12.668h-2V24.2Zm-3.666,0V12.668H9.734V24.2Zm-5.132,0V12.668h-2V24.2ZM27.865,11V9.735h-24V11h24ZM25.853,8.066,15.866,1.819,5.88,8.066ZM14.766,6.8a.835.835,0,0,1,0-1.669h2.2a.835.835,0,1,1,0,1.669Z" transform="translate(2 38.1)" fill="#fff200"/>
    <g id="Group_39974" data-name="Group 39974" opacity="0">
      <rect id="Rectangle_18669" data-name="Rectangle 18669" width="35" height="35" fill="#e3e3e3"/>
      <rect id="Rectangle_18672" data-name="Rectangle 18672" width="35" height="35" transform="translate(0 35)" fill="#d5d5d5"/>
      <rect id="Rectangle_18673" data-name="Rectangle 18673" width="35" height="35" transform="translate(0 70)" fill="#c6c6c6"/>
      <rect id="Rectangle_18670" data-name="Rectangle 18670" width="31" height="31" transform="translate(2 2)" fill="#b5b5b5"/>
      <rect id="Rectangle_18680" data-name="Rectangle 18680" width="31" height="31" transform="translate(2 37)" fill="#b5b5b5"/>
      <rect id="Rectangle_18681" data-name="Rectangle 18681" width="31" height="31" transform="translate(2 72)" fill="#b5b5b5"/>
    </g>
    <path id="Union_35" data-name="Union 35" d="M.833,28.8a.834.834,0,0,1,0-1.668H30.165a.834.834,0,1,1,0,1.668Zm25.621-2.933H3.034a.834.834,0,1,1,0-1.668H4.4V12.668H3.034a.834.834,0,0,1-.835-.833V8.863a.832.832,0,0,1,.393-.707L15.424.127a.836.836,0,0,1,.885,0L29.141,8.156a.831.831,0,0,1,.392.707v2.971a.833.833,0,0,1-.835.833H27.333V24.2H28.7a.834.834,0,1,1,0,1.668H26.454ZM25.665,24.2V12.668h-2V24.2ZM22,24.2V12.668H18.533V24.2Zm-5.133,0V12.668h-2V24.2Zm-3.666,0V12.668H9.734V24.2Zm-5.132,0V12.668h-2V24.2ZM27.865,11V9.735h-24V11h24ZM25.853,8.066,15.866,1.819,5.88,8.066ZM14.766,6.8a.835.835,0,0,1,0-1.669h2.2a.835.835,0,1,1,0,1.669Z" transform="translate(2 73.1)" fill="#fff"/>
  </g>
</svg>
