<svg xmlns="http://www.w3.org/2000/svg" width="60" height="60" viewBox="0 0 60 60">
  <g id="my-cards" transform="translate(12848 -12879)">
    <g id="Group_39984" data-name="Group 39984">
      <rect id="Rectangle_18667" data-name="Rectangle 18667" width="60" height="60" transform="translate(-12848 12879)" fill="#e6e6e6" opacity="0"/>
      <rect id="Rectangle_18668" data-name="Rectangle 18668" width="52" height="52" transform="translate(-12844 12883)" fill="#7c0000" opacity="0"/>
    </g>
    <path id="my-cards-2" data-name="my-cards" d="M12.1,47.039a3.421,3.421,0,0,1-3.417-3.417V20.777A3.421,3.421,0,0,1,12.1,17.36H48.583A3.421,3.421,0,0,1,52,20.777V43.622a3.421,3.421,0,0,1-3.417,3.417Zm-1.02-26.261V43.622a1.021,1.021,0,0,0,1.02,1.02H48.583a1.021,1.021,0,0,0,1.019-1.02V20.777a1.021,1.021,0,0,0-1.019-1.019H12.1A1.021,1.021,0,0,0,11.078,20.777ZM37.16,40.839a1.2,1.2,0,0,1,0-2.4H44.6a1.2,1.2,0,0,1,0,2.4Zm-11.16,0a1.2,1.2,0,1,1,0-2.4h6.2a1.2,1.2,0,0,1,0,2.4Zm-11.16,0a1.2,1.2,0,1,1,0-2.4h6.2a1.2,1.2,0,0,1,0,2.4ZM37.2,29.1a4.3,4.3,0,1,1,4.3,4.3A4.3,4.3,0,0,1,37.2,29.1Zm2.4,0a1.9,1.9,0,1,0,1.9-1.9A1.9,1.9,0,0,0,39.6,29.1Zm-35.965.578A3.868,3.868,0,0,1,0,25.618V4.067A4.071,4.071,0,0,1,4.067,0H39.252a4.071,4.071,0,0,1,4.067,4.067V14.84a1.2,1.2,0,1,1-2.4,0V13.558H2.4v12.06c0,.9.565,1.664,1.236,1.664H6.158a1.2,1.2,0,1,1,0,2.4ZM2.4,11.16H40.922V8.6H2.4ZM40.922,6.2V4.067A1.671,1.671,0,0,0,39.252,2.4H4.067A1.671,1.671,0,0,0,2.4,4.067V6.2Z" transform="translate(-12844 12885.48)" fill="#007c3d"/>
  </g>
</svg>
