<svg xmlns="http://www.w3.org/2000/svg" width="30" height="30" viewBox="0 0 30 30">
  <g id="my-cards" transform="translate(12848 -12879)">
    <g id="Group_39984" data-name="Group 39984" transform="translate(-12848 12879)">
      <rect id="Rectangle_18667" data-name="Rectangle 18667" width="30" height="30" fill="#707273" opacity="0"/>
    </g>
    <path id="my-cards-2" data-name="my-cards" d="M5.144,20a1.454,1.454,0,0,1-1.453-1.453V8.834A1.454,1.454,0,0,1,5.144,7.381H20.657A1.454,1.454,0,0,1,22.11,8.834v9.713A1.454,1.454,0,0,1,20.657,20ZM4.71,8.834v9.713a.434.434,0,0,0,.434.434H20.657a.434.434,0,0,0,.433-.434V8.834a.434.434,0,0,0-.433-.433H5.144A.434.434,0,0,0,4.71,8.834Zm11.09,8.53a.51.51,0,0,1,0-1.019h3.163a.51.51,0,1,1,0,1.019Zm-4.745,0a.51.51,0,1,1,0-1.019h2.636a.51.51,0,1,1,0,1.019Zm-4.745,0a.51.51,0,1,1,0-1.019H8.946a.51.51,0,0,1,0,1.019Zm9.508-4.991A1.828,1.828,0,1,1,17.645,14.2,1.83,1.83,0,0,1,15.818,12.373Zm1.019,0a.809.809,0,1,0,.809-.808A.809.809,0,0,0,16.837,12.373Zm-15.292.246A1.645,1.645,0,0,1,0,10.892V1.729A1.731,1.731,0,0,1,1.729,0h14.96a1.731,1.731,0,0,1,1.729,1.729V6.31a.51.51,0,1,1-1.019,0V5.765H1.019v5.128c0,.383.24.707.525.707H2.618a.509.509,0,1,1,0,1.019ZM1.019,4.745H17.4V3.655H1.019ZM17.4,2.636V1.729a.711.711,0,0,0-.71-.71H1.729a.711.711,0,0,0-.71.71v.907Z" transform="translate(-12844 12884)" fill="#707273"/>
  </g>
</svg>
