<svg xmlns="http://www.w3.org/2000/svg"  viewBox="0 0 22 22"><defs><style>.a{fill:#fff;}</style></defs><path class="a" d="M20.625,0H1.375A1.375,1.375,0,0,0,0,1.375v19.25A1.375,1.375,0,0,0,1.375,22H7.563V20.625H1.375V18.563H7.563V17.188H1.375V15.125H7.563V13.75H1.375V1.375h19.25v8.938H22V1.375A1.375,1.375,0,0,0,20.625,0Z"/><path class="a" d="M18.25,9.125a4.125,4.125,0,1,0-4.125,4.125A4.125,4.125,0,0,0,18.25,9.125Zm-6.875,0a2.75,2.75,0,1,1,2.75,2.75A2.75,2.75,0,0,1,11.375,9.125Z" transform="translate(-3.125 -1.563)"/><rect class="a" width="1.375" height="1.375" transform="translate(17.188 6.875)"/><rect class="a" width="1.375" height="1.375" transform="translate(3.438 6.875)"/><path class="a" d="M25.688,18h-5.5a.687.687,0,0,0-.687.688V20.75H14.688a.687.687,0,0,0-.687.688v5.5a.687.687,0,0,0,.688.688h11a.687.687,0,0,0,.688-.687v-8.25A.687.687,0,0,0,25.688,18ZM19.5,26.25H15.375V24.875H19.5Zm0-2.75H15.375V22.125H19.5ZM25,26.25H20.875V24.875H25Zm0-2.75H20.875V22.125H25Zm0-2.75H20.875V19.375H25Z" transform="translate(-4.375 -5.625)"/></svg>