<svg xmlns="http://www.w3.org/2000/svg" width="111.54" height="44.393" viewBox="0 0 111.54 44.393"><defs><style>.a{fill:#38ac49;}.b{fill:#e98824;}.c{fill:#fff;}.d{fill:#edc91a;}.e{fill:#008c44;}.f{fill:#f47920;}.g{fill:#6d6e71;}</style></defs><g transform="translate(131.5 -155.9)"><path d="M-8.237,284.747l-3.1,2.547h-1.58l.335-.539H-111.82l2.045-4.015h97.188l-.335-.539h1.58ZM-59.657,288l-4.647,9.128H-58L-53.355,288Zm-52.8,0-4.647,9.128h6.135l2.658-5.242h7.975L-98.343,288Zm21.248-.093a5.113,5.113,0,0,0-4.536,2.77l-3.328,6.544h3.978l3.458-6.785h5.986l-.446.874h-4.926l-1.283,2.528h4.926l-1.729,3.383h3.978l4.74-9.332H-91.2Zm9.555,6.878-1.32,2.584h12.251a4.03,4.03,0,0,0,4.034-4.034,1.991,1.991,0,0,0-1.989-1.989h-7.12l.521-1.022h9.444l1.3-2.547h-9.946a5.973,5.973,0,0,0-5.41,3.569,1.678,1.678,0,0,0,1.487,2.435h7.51l-.521,1.022H-81.649Zm39.634-1,1.246-2.435h-5.893a5.1,5.1,0,0,0-4.536,2.788l-.372.725a1.7,1.7,0,0,0,1.524,2.472h11.433l3.737-7.324a1.513,1.513,0,0,0-1.338-2.194H-47.444l-1.338,2.64h9.592l-.465.892-1.692,3.346h-6.1l.428-.892h5Zm22.7-6.079a1.437,1.437,0,0,1,1.283,2.1l-5.056,9.946a4.732,4.732,0,0,1-4.22,2.584h-53.5l.651.781h-1.283l-2.528-2.082,2.528-2.082h1.283l-.651.781h53.595l1.376-2.7h-7.529a1.5,1.5,0,0,1-1.338-2.175l2.51-4.908a4.133,4.133,0,0,1,3.681-2.249h9.2m-3.012,2.435h-5.93l-2.194,4.313h5.93Z" transform="translate(-11.723 -102.821)"/><path class="a" d="M160.245,283.4l-2.045,4.015h19.185l2.045-4.015Z" transform="translate(-235.845 -103.798)"/><path class="b" d="M-88.355,283.4l-2.045,4.015h46.215l2.045-4.015Z" transform="translate(-33.46 -103.798)"/><path class="b" d="M296.479,280.5H294.9l.335.539H263.445l-2.045,4.015h33.834l-.335.558h1.58l3.123-2.565Z" transform="translate(-319.86 -101.437)"/><path class="c" d="M205.36,287.416c1.562-.8,2.305-.056,2.472.167l-.558.372a1.966,1.966,0,0,0-1.878-.13l-.037-.409m-.13-1.134.056.521c2.342-1.19,3.272.019,3.4.2l.688-.446c-.595-1.227-3.03-1.022-4.146-.279m-.13-1.153.056.5c2.937-1.3,4.424-.669,5.075.353l.706-.465c-1.264-2.026-4.313-1.357-5.837-.39" transform="translate(-274.026 -104.449)"/><path class="b" d="M203.123,265.051c3.439-1.989,6.953-1.524,8.049.632l-.93.613c-1-1.859-4.22-2.212-7.046-.483l-.074-.762m-.223-2.026.112,1.06c3.737-2.008,7.771-1.766,9.258.874l1.338-.892c-1.153-3.16-7.529-3.216-10.708-1.041" transform="translate(-272.235 -85.988)"/><path class="b" d="M-102.032,314.546h-7.975l-2.658,5.242H-118.8l4.647-9.128h14.11Zm9.146-4a5.113,5.113,0,0,0-4.536,2.77l-3.328,6.544h3.978l3.458-6.785h5.986l-.446.874h-4.945L-94,316.479h4.926l-1.71,3.383h3.978l4.74-9.332H-92.886Zm25.375,2.4,1.3-2.547h-9.946a6.016,6.016,0,0,0-5.428,3.569A1.678,1.678,0,0,0-80.1,316.4h7.51l-.521,1.022H-83.349l-1.32,2.584h12.251a4.03,4.03,0,0,0,4.034-4.034,2.007,2.007,0,0,0-1.989-2.008h-7.12l.521-1.022Z" transform="translate(-10.339 -125.779)"/><path class="a" d="M85.389,319.607h-6.3l4.647-9.128h6.3Zm21.769-9.314H95.929l-1.338,2.64H104.2l-.465.892-1.692,3.346h-6.1l.428-.892h5.019l1.246-2.435H96.747a5.1,5.1,0,0,0-4.536,2.789l-.372.725a1.7,1.7,0,0,0,1.524,2.472H104.8l3.737-7.324a1.548,1.548,0,0,0-1.376-2.212m16.917-.093a1.437,1.437,0,0,1,1.283,2.1l-5.056,9.946a4.725,4.725,0,0,1-4.2,2.584H62.56l.669.781h-1.3L59.4,323.529l2.528-2.063h1.3l-.669.781h53.595l1.376-2.7H110a1.5,1.5,0,0,1-1.338-2.175l2.51-4.908a4.133,4.133,0,0,1,3.681-2.249h9.221m-3.03,2.417h-5.93l-2.194,4.313h5.93Z" transform="translate(-155.412 -125.616)"/><path class="d" d="M159.592,293.132h-3.681a.169.169,0,0,1-.149-.26l.093-.186a.307.307,0,0,1,.279-.167h3.681a.169.169,0,0,1,.149.26l-.093.186a.3.3,0,0,1-.279.167m8.31,0a.286.286,0,0,0,.279-.186l.093-.186a.179.179,0,0,0-.149-.26h-3.681a.352.352,0,0,0-.3.167l-.093.186a.179.179,0,0,0,.149.26h3.7m8.31.019a.331.331,0,0,0,.3-.186l.093-.186a.179.179,0,0,0-.149-.26h-3.681a.352.352,0,0,0-.3.167l-.093.186a.179.179,0,0,0,.149.26h3.681m8.31.019a.331.331,0,0,0,.3-.186l.093-.186a.179.179,0,0,0-.149-.26h-3.681a.3.3,0,0,0-.279.167l-.093.186a.179.179,0,0,0,.149.26h3.662m-53.539,16.229a.229.229,0,0,0,.2-.13l.056-.13a.133.133,0,0,0-.112-.186h-2.6a.229.229,0,0,0-.2.13l-.074.13a.133.133,0,0,0,.112.186h2.621m12.6,0a.229.229,0,0,0,.2-.13l.056-.13a.133.133,0,0,0-.112-.186h-2.6a.229.229,0,0,0-.2.13l-.074.13a.133.133,0,0,0,.112.186h2.621m12.623,0a.229.229,0,0,0,.2-.13l.056-.13a.133.133,0,0,0-.112-.186h-2.6a.229.229,0,0,0-.2.13l-.074.13a.133.133,0,0,0,.112.186h2.621m12.6,0a.229.229,0,0,0,.2-.13l.056-.13a.133.133,0,0,0-.112-.186h-2.6a.229.229,0,0,0-.2.13l-.074.13a.133.133,0,0,0,.112.186h2.621" transform="translate(-211.452 -111.206)"/><path d="M-131.5,377.938l1.06-2.082h1.878l-.093.167h-1.617l-.39.744h1.45l-.093.167h-1.45l-.428.818h1.654l-.093.167H-131.5Zm3.644-.855q-.753.084-.948.446a.241.241,0,0,0-.037.186.188.188,0,0,0,.074.13.431.431,0,0,0,.186.074.982.982,0,0,0,.242.019,1.832,1.832,0,0,0,.446-.056,2.275,2.275,0,0,0,.446-.186c-.019.019-.019.056-.037.074v.074c0,.019.019.037.037.056s.037.019.074.019h.093a.236.236,0,0,0,.112-.019.8.8,0,0,0,.093-.019l.074-.13c-.112.019-.186.037-.2.019s-.019-.056.019-.13l.409-.818a.643.643,0,0,0,.056-.223.19.19,0,0,0-.093-.149.524.524,0,0,0-.2-.074,1.233,1.233,0,0,0-.279-.019,2.024,2.024,0,0,0-.335.019,1.4,1.4,0,0,0-.3.093,1.185,1.185,0,0,0-.26.149.793.793,0,0,0-.2.223h.242a.641.641,0,0,1,.149-.167,1.636,1.636,0,0,1,.186-.112c.056-.019.13-.037.2-.056a.982.982,0,0,1,.242-.019.5.5,0,0,1,.353.093q.084.084,0,.223a.406.406,0,0,0-.056.093.171.171,0,0,1-.112.074c-.037.019-.112.019-.167.037-.074,0-.13.019-.167.019Zm.576.3a.407.407,0,0,1-.167.186,1,1,0,0,1-.242.13,1.549,1.549,0,0,1-.279.074,1.505,1.505,0,0,1-.3.019.363.363,0,0,1-.149-.019c-.056-.019-.093-.019-.112-.056a.1.1,0,0,1-.056-.093.236.236,0,0,1,.019-.112.513.513,0,0,1,.26-.223,1.579,1.579,0,0,1,.465-.093c.112,0,.2-.019.316-.019a2.1,2.1,0,0,0,.335-.056Zm1.264.074a.4.4,0,0,0-.037.2.334.334,0,0,0,.074.167c.037.056.112.074.186.112a1.294,1.294,0,0,0,.3.037,2.25,2.25,0,0,0,.353-.019,1.391,1.391,0,0,0,.3-.074,1,1,0,0,0,.242-.13.527.527,0,0,0,.167-.186.2.2,0,0,0,.019-.223.368.368,0,0,0-.186-.13,1.007,1.007,0,0,0-.279-.074q-.167-.028-.279-.056a.522.522,0,0,1-.2-.093.113.113,0,0,1-.019-.149.46.46,0,0,1,.223-.186.783.783,0,0,1,.372-.074.559.559,0,0,1,.335.074.191.191,0,0,1,.056.242h.242c.056-.167.037-.3-.056-.372a.8.8,0,0,0-.483-.112,1.477,1.477,0,0,0-.595.112.741.741,0,0,0-.353.316.2.2,0,0,0-.019.223.368.368,0,0,0,.186.13,1.006,1.006,0,0,0,.279.074c.112.019.2.037.3.056a1.232,1.232,0,0,1,.2.074.134.134,0,0,1,.019.167.248.248,0,0,1-.093.112.787.787,0,0,1-.13.093.546.546,0,0,1-.186.056.984.984,0,0,1-.242.019.618.618,0,0,1-.372-.074q-.112-.084-.056-.279h-.26Zm2.063,1.041c.037,0,.056.019.093.019h.112a.935.935,0,0,0,.223-.037,1.387,1.387,0,0,0,.223-.13c.074-.056.149-.112.242-.186l.26-.26,1.506-1.469h-.26l-1.3,1.283v-1.283h-.26l.019,1.506a.81.81,0,0,1-.13.112.862.862,0,0,1-.13.13l-.167.112a.314.314,0,0,1-.186.056h-.093a.167.167,0,0,1-.093-.019Zm5.261-.706c-.037,0-.074.019-.112.019h-.093c-.056,0-.093,0-.112-.019a.04.04,0,0,1-.037-.037.14.14,0,0,1,.019-.074c.019-.019.019-.056.037-.093l.521-1.022h.39l.074-.149h-.372l.2-.409h-.242l-.2.409h-.279l-.074.149h.279l-.558,1.1c-.056.112-.074.186-.019.242a.349.349,0,0,0,.242.056.515.515,0,0,0,.167-.019.362.362,0,0,1,.13-.019Zm1.952.186a1.45,1.45,0,0,0,.409-.056,1.341,1.341,0,0,0,.372-.167,2.029,2.029,0,0,0,.316-.242,1.221,1.221,0,0,0,.223-.316.685.685,0,0,0,.093-.316.268.268,0,0,0-.056-.242.374.374,0,0,0-.2-.167,1.086,1.086,0,0,0-.39-.056,1.725,1.725,0,0,0-.446.056,1.764,1.764,0,0,0-.39.167,1.3,1.3,0,0,0-.3.242,1.221,1.221,0,0,0-.223.316.654.654,0,0,0-.093.335.343.343,0,0,0,.074.242.474.474,0,0,0,.223.149,1.519,1.519,0,0,0,.39.056m1.1-.8a.945.945,0,0,1-.167.242,2.231,2.231,0,0,1-.223.2,2.029,2.029,0,0,1-.279.149,1.083,1.083,0,0,1-.353.056,1.124,1.124,0,0,1-.279-.037.344.344,0,0,1-.149-.13.368.368,0,0,1-.037-.2.885.885,0,0,1,.093-.26.945.945,0,0,1,.167-.242,1.167,1.167,0,0,1,.223-.2,2.029,2.029,0,0,1,.279-.149,1.052,1.052,0,0,1,.335-.056.651.651,0,0,1,.3.056.345.345,0,0,1,.149.13.369.369,0,0,1,.019.2.606.606,0,0,1-.074.242m5.558-.725a.494.494,0,0,0,.019-.279.353.353,0,0,0-.13-.2.852.852,0,0,0-.26-.13,1.267,1.267,0,0,0-.39-.037,2.838,2.838,0,0,0-.558.056,2.478,2.478,0,0,0-.521.186,2,2,0,0,0-.446.335,1.725,1.725,0,0,0-.353.5,1.373,1.373,0,0,0-.149.409.568.568,0,0,0,.037.353.553.553,0,0,0,.26.242,1.3,1.3,0,0,0,.521.093,2.233,2.233,0,0,0,.521-.056,1.589,1.589,0,0,0,.446-.167,1.684,1.684,0,0,0,.353-.242,1.97,1.97,0,0,0,.279-.279h-.279a1.379,1.379,0,0,1-.242.223,2.427,2.427,0,0,1-.279.186.915.915,0,0,1-.316.112,1.144,1.144,0,0,1-.353.037,1.015,1.015,0,0,1-.446-.074.538.538,0,0,1-.2-.2.531.531,0,0,1-.019-.3,1.245,1.245,0,0,1,.13-.335,1.491,1.491,0,0,1,.242-.353,1.738,1.738,0,0,1,.335-.3,1.685,1.685,0,0,1,.409-.2,1.387,1.387,0,0,1,.483-.074.941.941,0,0,1,.521.112.327.327,0,0,1,.112.372h.279Zm.781.744a1.7,1.7,0,0,1,.149-.242,1.066,1.066,0,0,1,.2-.2.971.971,0,0,1,.279-.13.742.742,0,0,1,.353-.037l.093-.186a1.126,1.126,0,0,0-.446.074,1.162,1.162,0,0,0-.372.242h0l.149-.279h-.242l-.613,1.487h.074Zm3.123.056a.641.641,0,0,1-.167.223.744.744,0,0,1-.223.186.652.652,0,0,1-.26.112,1.438,1.438,0,0,1-.279.037c-.186,0-.3-.037-.353-.112a.3.3,0,0,1,.037-.3l.5-.985h-.242l-.5.985a.529.529,0,0,0-.074.223c0,.074,0,.13.037.167a.271.271,0,0,0,.167.112.774.774,0,0,0,.316.037.982.982,0,0,0,.242-.019c.074-.019.149-.037.2-.056s.13-.056.186-.074a1.094,1.094,0,0,1,.149-.074l-.112.2h.242l.762-1.487h-.223Zm2.38-1.134.13-.26h-.26l-.13.26Zm-.948,1.822.762-1.487h-.242l-.762,1.487Zm1.134-.483a.4.4,0,0,0-.037.2.227.227,0,0,0,.074.167c.037.056.112.074.186.112a1.294,1.294,0,0,0,.3.037,2.135,2.135,0,0,0,.353-.019,1.391,1.391,0,0,0,.3-.074,1,1,0,0,0,.242-.13.527.527,0,0,0,.167-.186.2.2,0,0,0,.019-.223.4.4,0,0,0-.167-.13,1.007,1.007,0,0,0-.279-.074q-.167-.028-.279-.056a.522.522,0,0,1-.2-.093.113.113,0,0,1-.019-.149.46.46,0,0,1,.223-.186.783.783,0,0,1,.372-.074.559.559,0,0,1,.335.074.191.191,0,0,1,.056.242h.242c.056-.167.037-.3-.056-.372a.8.8,0,0,0-.483-.112,1.477,1.477,0,0,0-.595.112.741.741,0,0,0-.353.316.2.2,0,0,0-.019.223.368.368,0,0,0,.186.13,1.006,1.006,0,0,0,.279.074c.112.019.2.037.3.056a1.232,1.232,0,0,1,.2.074.134.134,0,0,1,.019.167.493.493,0,0,1-.093.112.787.787,0,0,1-.13.093.546.546,0,0,1-.186.056.984.984,0,0,1-.242.019.618.618,0,0,1-.372-.074q-.112-.084-.056-.279h-.279Zm4.462-.223a.591.591,0,0,0,.074-.613c-.093-.149-.279-.2-.558-.2a1.585,1.585,0,0,0-.428.056,1.342,1.342,0,0,0-.372.167,1.386,1.386,0,0,0-.316.26,1.221,1.221,0,0,0-.223.316,1.074,1.074,0,0,0-.112.316.337.337,0,0,0,.037.242.374.374,0,0,0,.2.167,1.086,1.086,0,0,0,.39.056,2.059,2.059,0,0,0,.353-.037.821.821,0,0,0,.3-.112,1.186,1.186,0,0,0,.26-.149,2.23,2.23,0,0,0,.223-.2h-.26a1.028,1.028,0,0,1-.353.26,1.277,1.277,0,0,1-.446.093.621.621,0,0,1-.279-.056.344.344,0,0,1-.149-.13.306.306,0,0,1-.037-.186.529.529,0,0,1,.074-.223h1.617Zm-1.506-.149c.056-.074.112-.13.167-.2l.223-.167a.651.651,0,0,1,.26-.112.77.77,0,0,1,.3-.037.969.969,0,0,1,.26.037.315.315,0,0,1,.149.112.276.276,0,0,1,.037.167.551.551,0,0,1-.074.2Z" transform="translate(0 -179.021)"/><path class="e" d="M358.5,155.9l2.919,5.8-6.116,5.763Z" transform="translate(-396.304)"/><path class="f" d="M347.516,155.9l2.9,5.8-6.116,5.763Z" transform="translate(-387.349)"/><path class="g" d="M17.964,167.674,8.687,160.09l-2.082,7.548H4.3l3.216-11.619,9.276,7.566,2.1-7.585H21.2ZM65.8,165.332H54.233l1.952-7.064H67.747l.3-1.1a.978.978,0,0,0-.093-.837.863.863,0,0,0-.744-.335H55.645a1.453,1.453,0,0,0-.911.335,1.6,1.6,0,0,0-.558.837l-2.565,9.276a.937.937,0,0,0,.093.818.851.851,0,0,0,.725.335H63.992a1.453,1.453,0,0,0,.911-.335,1.516,1.516,0,0,0,.558-.818ZM38.654,156l-.632,2.249h5.837l-2.584,9.332h2.305l2.584-9.332h5.707L52.485,156Zm-3.03,0H24.061a.573.573,0,0,0-.186.019,1.512,1.512,0,0,0-.725.335,1.6,1.6,0,0,0-.558.837l-2.565,9.276a.937.937,0,0,0,.093.818.851.851,0,0,0,.725.335H32.408a1.453,1.453,0,0,0,.911-.335,1.516,1.516,0,0,0,.558-.818l.316-1.115H22.648l.651-2.38h9.258l.632-2.268H23.931l.669-2.417H36.145l.316-1.1a.978.978,0,0,0-.093-.837.832.832,0,0,0-.744-.353" transform="translate(-110.555 -0.081)"/><path class="g" d="M-.7,227.8l.595-2.1,1.022,1.506.39-1.376h.3l-.595,2.082-1.022-1.487L-.4,227.8Zm4.053,0h.335l-.353-2.1-1.58,2.1H2.07l.353-.483H3.26Zm-.725-.762.5-.669.093.669Zm3.123-.93.074-.279H4.617l-.074.279h.446L4.524,227.8h.3l.465-1.692Zm.8-.279L5.992,227.8h.316l.558-1.971Zm.874.967a.751.751,0,0,0,.744,1.022,1.27,1.27,0,0,0,.818-.3,1.3,1.3,0,0,0,.5-.725.814.814,0,0,0-.093-.725.721.721,0,0,0-.632-.3,1.307,1.307,0,0,0-.818.3,1.3,1.3,0,0,0-.521.725m.3,0a1.09,1.09,0,0,1,.353-.521.9.9,0,0,1,.576-.223.541.541,0,0,1,.465.223.561.561,0,0,1,.056.521,1.009,1.009,0,0,1-.353.521.878.878,0,0,1-.576.2.566.566,0,0,1-.446-.2.535.535,0,0,1-.074-.521m2.621,1,.39-1.376,1.022,1.487.576-2.082h-.3l-.39,1.376L10.621,225.7l-.576,2.1Zm3.755,0h.335l-.353-2.1-1.562,2.1h.316l.353-.483h.837Zm-.706-.762.5-.669.112.669ZM15.7,225.83l-.558,1.971h.874l.074-.279H15.51l.465-1.692Zm3.978,0H18.6l-.558,1.971h1.1l.074-.279h-.781l.186-.651h.762l.074-.279h-.762l.13-.465H19.6Zm.855,0-.558,1.971h.874l.074-.279h-.576l.483-1.692Zm2.714,0H22.166l-.558,1.971h1.078l.074-.279H21.98l.186-.651h.762l.074-.279H22.24l.13-.465h.781Zm2.287.093a.86.86,0,0,0-.465-.149,1.33,1.33,0,0,0-.892.353,1.517,1.517,0,0,0-.446.669.877.877,0,0,0,.093.725.721.721,0,0,0,.632.3,1.4,1.4,0,0,0,.576-.149l.112-.353-.167.112a.557.557,0,0,1-.149.074.746.746,0,0,1-.279.056.516.516,0,0,1-.446-.2.621.621,0,0,1-.056-.521.911.911,0,0,1,.353-.521.9.9,0,0,1,.576-.223.589.589,0,0,1,.465.223l.093-.39m1.785.186.074-.279H26.2l-.074.279h.446l-.465,1.692h.3l.465-1.692Zm1.171.837a.783.783,0,0,0,.372-.186.719.719,0,0,0,.223-.353.422.422,0,0,0-.074-.428.724.724,0,0,0-.521-.149h-.353l-.558,1.971h.3l.223-.8h.056l.335.8h.372l-.372-.855m-.13-.837h.112c.279,0,.39.093.316.3-.056.223-.223.316-.521.316H28.17Zm1.394.688a.763.763,0,0,0,.112.762.729.729,0,0,0,.613.26A1.444,1.444,0,0,0,31.8,226.8a.814.814,0,0,0-.093-.725.721.721,0,0,0-.632-.3,1.307,1.307,0,0,0-.818.3,1.6,1.6,0,0,0-.5.725m.3,0a1.09,1.09,0,0,1,.353-.521.9.9,0,0,1,.576-.223.541.541,0,0,1,.465.223.621.621,0,0,1,.056.521,1.009,1.009,0,0,1-.353.521.878.878,0,0,1-.576.2.566.566,0,0,1-.446-.2.535.535,0,0,1-.074-.521m2.621,1,.39-1.376,1.022,1.487.576-2.082h-.3l-.39,1.376L32.948,225.7l-.595,2.1Zm2.937-1.971-.558,1.971h.3l.558-1.971Zm2.658.093a.829.829,0,0,0-.483-.149,1.426,1.426,0,0,0-1.32,1.022.877.877,0,0,0,.093.725.721.721,0,0,0,.632.3,1.4,1.4,0,0,0,.576-.149l.112-.353-.167.112a.557.557,0,0,1-.149.074.621.621,0,0,1-.279.056.516.516,0,0,1-.446-.2.621.621,0,0,1-.056-.521,1.009,1.009,0,0,1,.353-.521.9.9,0,0,1,.576-.223.589.589,0,0,1,.465.223l.093-.39m3.067.186.074-.279h-1.19l-.074.279h.446l-.465,1.692h.3l.465-1.692Zm.372.688a.763.763,0,0,0,.112.762.729.729,0,0,0,.613.26,1.444,1.444,0,0,0,1.32-1.022.877.877,0,0,0-.093-.725.721.721,0,0,0-.632-.3,1.307,1.307,0,0,0-.818.3,1.6,1.6,0,0,0-.5.725m.3,0a1.09,1.09,0,0,1,.353-.521.9.9,0,0,1,.576-.223.519.519,0,0,1,.465.223.621.621,0,0,1,.056.521,1.009,1.009,0,0,1-.353.521.878.878,0,0,1-.576.2.566.566,0,0,1-.446-.2A.535.535,0,0,1,42,226.8m2.881-.967-.558,1.971H45.2l.074-.279H44.7l.465-1.692Zm1.617,0-.539,1.971h.874l.074-.279h-.576l.465-1.692Zm4.331.093a.86.86,0,0,0-.465-.149,1.426,1.426,0,0,0-1.32,1.022.877.877,0,0,0,.093.725.721.721,0,0,0,.632.3,1.4,1.4,0,0,0,.576-.149l.093-.353-.167.112a.557.557,0,0,1-.149.074.62.62,0,0,1-.279.056.516.516,0,0,1-.446-.2.561.561,0,0,1-.056-.521,1.009,1.009,0,0,1,.353-.521.9.9,0,0,1,.576-.223.589.589,0,0,1,.465.223l.093-.39m.483.874a.763.763,0,0,0,.112.762.729.729,0,0,0,.613.26,1.27,1.27,0,0,0,.818-.3,1.3,1.3,0,0,0,.5-.725.814.814,0,0,0-.093-.725.721.721,0,0,0-.632-.3,1.307,1.307,0,0,0-.818.3,1.6,1.6,0,0,0-.5.725m.316,0a1.09,1.09,0,0,1,.353-.521.9.9,0,0,1,.576-.223.541.541,0,0,1,.465.223.561.561,0,0,1,.056.521.942.942,0,0,1-.372.521.878.878,0,0,1-.576.2.566.566,0,0,1-.446-.2.538.538,0,0,1-.056-.521m2.863-.967-.558,1.971h.874l.074-.279h-.576l.465-1.692Zm1.636,0-.558,1.971h.874l.074-.279h-.576l.465-1.692Zm2.714,0H57.765l-.558,1.971h1.1l.074-.279h-.8l.186-.651h.762l.074-.279H57.84l.13-.465h.781Zm2.268.093a.86.86,0,0,0-.465-.149,1.426,1.426,0,0,0-1.32,1.022.877.877,0,0,0,.093.725.721.721,0,0,0,.632.3,1.4,1.4,0,0,0,.576-.149l.112-.353-.167.112a.557.557,0,0,1-.149.074.746.746,0,0,1-.279.056.516.516,0,0,1-.446-.2.561.561,0,0,1-.056-.521,1.009,1.009,0,0,1,.353-.521.9.9,0,0,1,.576-.223.589.589,0,0,1,.465.223l.074-.39m1.8.186.074-.279H61.8l-.074.279h.446l-.465,1.692H62l.465-1.692Zm.8-.279-.558,1.971h.3l.558-1.971Zm.874.967a.763.763,0,0,0,.112.762.729.729,0,0,0,.613.26,1.444,1.444,0,0,0,1.32-1.022.877.877,0,0,0-.093-.725.721.721,0,0,0-.632-.3,1.307,1.307,0,0,0-.818.3,1.363,1.363,0,0,0-.5.725m.3,0a.974.974,0,0,1,.353-.521.9.9,0,0,1,.576-.223.541.541,0,0,1,.465.223.561.561,0,0,1,.056.521.942.942,0,0,1-.372.521.878.878,0,0,1-.576.2.566.566,0,0,1-.446-.2.592.592,0,0,1-.056-.521m2.621,1,.39-1.376,1.022,1.487.595-2.082h-.3l-.39,1.376L67.8,225.7l-.595,2.1Z" transform="translate(-106.484 -56.824)"/></g></svg>