<svg xmlns="http://www.w3.org/2000/svg" width="60" height="60" viewBox="0 0 60 60">
  <g id="Group_40095" data-name="Group 40095" transform="translate(-1330 -496)">
    <rect id="Rectangle_18669" data-name="Rectangle 18669" width="60" height="60" transform="translate(1330 496)" fill="#e6e6e6" opacity="0"/>
    <rect id="Rectangle_18670" data-name="Rectangle 18670" width="52" height="52" transform="translate(1334 500)" fill="#7c0000" opacity="0"/>
    <g id="Group_40048" data-name="Group 40048" transform="translate(1031.619 269.355)">
      <g id="Group_39561" data-name="Group 39561" transform="translate(308.543 245.71)">
        <path id="Path_43239" data-name="Path 43239" d="M322.786,253.121a6.3,6.3,0,1,0,6.3,6.3A6.31,6.31,0,0,0,322.786,253.121Zm0,1.544a4.759,4.759,0,1,1-4.76,4.759A4.754,4.754,0,0,1,322.786,254.665Z" transform="translate(-316.482 -253.121)" fill="#007c3d" stroke="#007c3e" stroke-width="0.1"/>
      </g>
      <path id="Union_8" data-name="Union 8" d="M.97,30A.968.968,0,0,1,0,29.035V.971A.969.969,0,0,1,.97,0H47.424a.968.968,0,0,1,.965.971V29.035a.967.967,0,0,1-.965.965Zm.965-1.936H46.453V1.936H1.935Zm7.933-15.23V11.223H8.257a.773.773,0,0,1,0-1.547H9.869V8.061a.776.776,0,0,1,1.552,0V9.676h1.612a.773.773,0,0,1,0,1.547H11.42v1.611a.776.776,0,0,1-1.552,0Z" transform="translate(304.186 241.645)" fill="#007c3d" stroke="#007c3e" stroke-width="0.1"/>
      <path id="Path_43241" data-name="Path 43241" d="M358.45,255.534h23.221a.968.968,0,0,0,0-1.936H358.45a.968.968,0,0,0,0,1.936Z" transform="translate(-34.417 -7.719)" fill="#007c3d" stroke="#007c3e" stroke-width="0.1"/>
      <path id="Path_43242" data-name="Path 43242" d="M358.269,269.337h8.28a.968.968,0,0,0,0-1.935h-8.28a.968.968,0,0,0,0,1.935Z" transform="translate(-34.3 -16.633)" fill="#007c3d" stroke="#007c3e" stroke-width="0.1"/>
      <path id="Path_43243" data-name="Path 43243" d="M317.45,310.861h2.6a.968.968,0,0,0,0-1.935h-2.6a.968.968,0,0,0,0,1.935Z" transform="translate(-7.939 -43.449)" fill="#007c3d" stroke="#007c3e" stroke-width="0.1"/>
      <path id="Path_43244" data-name="Path 43244" d="M337.353,308.926h-2.6a.968.968,0,0,0,0,1.935h2.6a.968.968,0,1,0,0-1.935Z" transform="translate(-19.115 -43.449)" fill="#007c3d" stroke="#007c3e" stroke-width="0.1"/>
      <path id="Path_43245" data-name="Path 43245" d="M387.668,289.8l-3.791.731c-.1.02-.316.058-.358.057-.015-.012-.151-.135-.268-.8a.968.968,0,0,0-1.8-.3c-.043.077-.088.153-.136.226l0-.038a.968.968,0,0,0-1.849-.3,2.224,2.224,0,0,1-3.061.908,9.768,9.768,0,0,0,1.555-6.09,1.456,1.456,0,0,0-2.442-1.143,5.9,5.9,0,0,0-2.5,4.732,4.976,4.976,0,0,0,.822,2.67,7.434,7.434,0,0,1-2.2,1.61.968.968,0,1,0,.828,1.749,9.264,9.264,0,0,0,2.735-1.995,4.152,4.152,0,0,0,4.379.113.968.968,0,0,0,1.473.695,6.079,6.079,0,0,0,.994-.776,1.893,1.893,0,0,0,.878.576,2.632,2.632,0,0,0,1.317,0l3.793-.731a.968.968,0,0,0-.367-1.9Zm-12.556-1.114a3,3,0,0,1-.16-.925,3.778,3.778,0,0,1,1.106-2.614A7.862,7.862,0,0,1,375.112,288.69Z" transform="translate(-43.201 -26.498)" fill="#007c3d" stroke="#007c3e" stroke-width="0.1"/>
    </g>
  </g>
</svg>
