<svg xmlns="http://www.w3.org/2000/svg" width="26" height="26" viewBox="0 0 26 26"><defs><style>.a{fill:#127ede;}.b{fill:#3cb446;}</style></defs><path class="a" d="M25.493,179.881H11.449l1.118-1.936a.508.508,0,0,0-.186-.694l-3.492-2.016a.508.508,0,0,0-.694.186L5.55,180a1.752,1.752,0,0,0-3.122,1.47l-.008,0a1.752,1.752,0,0,0,.3,3.437L.07,189.493a.508.508,0,0,0,.186.694L3.748,192.2a.508.508,0,0,0,.694-.186l5.513-9.548v9.294a.508.508,0,0,0,.508.508H25.493a.508.508,0,0,0,.508-.508V180.389A.508.508,0,0,0,25.493,179.881ZM8.82,176.368l2.613,1.509-2.945,5.1L5.875,181.47Zm-1.551,8.721-2.613-1.509.711-1.231,2.613,1.509Zm-3.79-4.446a.736.736,0,0,1,1.275.736l-.368.638-.638-.368A.737.737,0,0,1,3.479,180.643Zm.031,2.891a.737.737,0,1,1-.269-1.006l.638.368Zm.306,7.535L1.2,189.561l2.945-5.1,2.613,1.509ZM10.97,180.9h5.281v10.359H10.97Zm14.015,10.359H19.7V188.5a.508.508,0,1,0-1.016,0v2.755H17.267V180.9h1.422v3.034a.508.508,0,0,0,1.016,0V180.9h5.281Z" transform="translate(-0.002 -166.272)"/><path class="b" d="M344.51,114.332a.508.508,0,0,0,.508-.508v-5.49a.508.508,0,1,0-1.016,0v5.49A.508.508,0,0,0,344.51,114.332Z" transform="translate(-326.534 -102.351)"/><path class="b" d="M405.2,114.332a.508.508,0,0,0,.508-.508,7.208,7.208,0,0,1,2.125-5.131.508.508,0,0,0-.718-.718,8.218,8.218,0,0,0-2.423,5.849A.508.508,0,0,0,405.2,114.332Z" transform="translate(-384.146 -102.351)"/><path class="b" d="M240.8,113.824a.508.508,0,0,0,1.016,0,8.218,8.218,0,0,0-2.423-5.849.508.508,0,0,0-.718.718A7.209,7.209,0,0,1,240.8,113.824Z" transform="translate(-226.412 -102.351)"/><path class="a" d="M391.176,1.693a.508.508,0,0,0,.508-.508V.508a.508.508,0,1,0-1.016,0v.677A.508.508,0,0,0,391.176,1.693Z" transform="translate(-370.83)"/><path class="a" d="M391.176,68.359a.508.508,0,0,0,.508-.508v-.677a.508.508,0,1,0-1.016,0v.677A.508.508,0,0,0,391.176,68.359Z" transform="translate(-370.83 -63.281)"/><path class="a" d="M417.843,41.016h.677a.508.508,0,1,0,0-1.016h-.677a.508.508,0,0,0,0,1.016Z" transform="translate(-396.143 -37.969)"/><path class="a" d="M351.176,41.016h.677a.508.508,0,0,0,0-1.016h-.677a.508.508,0,1,0,0,1.016Z" transform="translate(-332.861 -37.969)"/><path class="a" d="M165.369,36.3a1.625,1.625,0,1,0-1.625-1.625A1.627,1.627,0,0,0,165.369,36.3Zm0-2.234a.609.609,0,1,1-.609.609A.61.61,0,0,1,165.369,34.062Z" transform="translate(-155.429 -31.368)"/><path class="a" d="M283.82,45.347a.507.507,0,1,0-.359-.149A.51.51,0,0,0,283.82,45.347Z" transform="translate(-268.926 -42.08)"/><path class="a" d="M467.791,183.478a.508.508,0,1,0-.149-.359A.512.512,0,0,0,467.791,183.478Z" transform="translate(-443.895 -173.338)"/><path class="a" d="M492.51,67.687a.508.508,0,1,0-.359-.149A.512.512,0,0,0,492.51,67.687Z" transform="translate(-467.018 -63.285)"/><path class="a" d="M368.51,382.751a.508.508,0,1,0,.359.149A.51.51,0,0,0,368.51,382.751Z" transform="translate(-349.315 -363.315)"/></svg>