<svg xmlns="http://www.w3.org/2000/svg" xmlns:xlink="http://www.w3.org/1999/xlink" width="227.771" height="253.232" viewBox="0 0 227.771 253.232">
  <defs>
    <linearGradient id="linear-gradient" x1="0.11" y1="1.16" x2="0.934" y2="-0.236" gradientUnits="objectBoundingBox">
      <stop offset="0" stop-color="#e6f2f2"/>
      <stop offset="1" stop-color="#fff"/>
    </linearGradient>
    <linearGradient id="linear-gradient-2" x1="0.5" x2="0.5" y2="1" gradientUnits="objectBoundingBox">
      <stop offset="0" stop-color="#3b234c"/>
      <stop offset="0.337" stop-color="#402450"/>
      <stop offset="0.75" stop-color="#4f2a5c"/>
      <stop offset="1" stop-color="#5c2f67"/>
    </linearGradient>
    <linearGradient id="linear-gradient-5" x1="0.5" x2="0.5" y2="1" gradientUnits="objectBoundingBox">
      <stop offset="0" stop-color="#93e69a"/>
      <stop offset="1" stop-color="#1daec4"/>
    </linearGradient>
  </defs>
  <g id="Group_39578" data-name="Group 39578" transform="translate(-783.995 -244.324)">
    <circle id="Ellipse_2704" data-name="Ellipse 2704" cx="97.606" cy="97.606" r="97.606" transform="translate(807.176 244.324)" fill="url(#linear-gradient)"/>
    <g id="Group_39576" data-name="Group 39576" transform="translate(783.995 271.886)">
      <g id="Group_39574" data-name="Group 39574" transform="translate(0 0)">
        <g id="Group_39553" data-name="Group 39553" transform="translate(0 0)">
          <g id="Group_39546" data-name="Group 39546" transform="translate(65.634 60.364)">
            <g id="Group_39544" data-name="Group 39544" transform="translate(0)">
              <path id="Path_43264" data-name="Path 43264" d="M203.758,174.846v46.112h-43.5V164.406h33.061Z" transform="translate(-160.256 -164.406)" fill="#bff2d8"/>
              <path id="Path_43265" data-name="Path 43265" d="M226.238,174.849h-7.828a2.609,2.609,0,0,1-2.609-2.609v-7.828Z" transform="translate(-182.736 -164.408)" fill="#7bd5a7"/>
            </g>
            <g id="Group_39545" data-name="Group 39545" transform="translate(16.492 17.605)">
              <path id="Path_43266" data-name="Path 43266" d="M192.848,209.835a1.087,1.087,0,0,1-1.046-1.122l.186-5.337a1.087,1.087,0,0,1,1.122-1.046,3.091,3.091,0,1,0-2.981-3.2,1.087,1.087,0,0,1-2.168-.076,5.26,5.26,0,1,1,6.161,5.366l-.152,4.366A1.087,1.087,0,0,1,192.848,209.835Z" transform="translate(-187.961 -193.981)" fill="#6bad8b"/>
              <path id="Path_43267" data-name="Path 43267" d="M196.778,225.793A1.735,1.735,0,1,1,195.105,224,1.735,1.735,0,0,1,196.778,225.793Z" transform="translate(-190.125 -206.129)" fill="#6bad8b"/>
            </g>
          </g>
          <g id="Group_39549" data-name="Group 39549" transform="translate(0 39.073)">
            <g id="Group_39547" data-name="Group 39547" transform="translate(0 0)">
              <path id="Path_43268" data-name="Path 43268" d="M94.186,134.292l17.646,42.6-40.19,16.648L50,141.294l30.545-12.652Z" transform="translate(-50 -128.641)" fill="#c9eaff"/>
              <path id="Path_43269" data-name="Path 43269" d="M114.952,134.291l-7.23,3a2.609,2.609,0,0,1-3.41-1.413l-3-7.234Z" transform="translate(-70.768 -128.64)" fill="#9dd7fc"/>
            </g>
          </g>
          <g id="Group_39550" data-name="Group 39550" transform="translate(65.719 0)">
            <path id="Path_43270" data-name="Path 43270" d="M168.864,77.852a1.054,1.054,0,0,1-1.34-.652l-1.688-4.908a1.053,1.053,0,0,1,.652-1.34,3,3,0,1,0-3.817-1.862,1.054,1.054,0,1,1-1.992.687,5.11,5.11,0,1,1,7.457,2.721l1.382,4.014A1.054,1.054,0,0,1,168.864,77.852Z" transform="translate(-160.399 -63.003)" fill="#e8e9fd"/>
            <path id="Path_43271" data-name="Path 43271" d="M177.31,91.945a1.685,1.685,0,1,1-2.143-1.045A1.685,1.685,0,0,1,177.31,91.945Z" transform="translate(-165.916 -74.255)" fill="#e8e9fd"/>
          </g>
          <g id="Group_39551" data-name="Group 39551" transform="translate(115.062 7.91)">
            <path id="Path_43272" data-name="Path 43272" d="M247.482,93.979a1.255,1.255,0,0,1-.778-1.6l2.011-5.844a1.255,1.255,0,0,1,1.6-.778,3.577,3.577,0,1,0-2.217-4.547,1.255,1.255,0,1,1-2.374-.815,6.089,6.089,0,1,1,5,8.023l-1.646,4.78A1.255,1.255,0,0,1,247.482,93.979Z" transform="translate(-244.239 -76.29)" fill="#e8e9fd"/>
            <circle id="Ellipse_2645" data-name="Ellipse 2645" cx="2.008" cy="2.008" r="2.008" transform="translate(0 19.842)" fill="#e8e9fd"/>
          </g>
          <g id="Group_39552" data-name="Group 39552" transform="translate(203.461 64.938)">
            <path id="Path_43273" data-name="Path 43273" d="M407.429,186.114a8.215,8.215,0,1,1,11.619,0A8.215,8.215,0,0,1,407.429,186.114Zm1.056-1.056a6.722,6.722,0,1,0,0-9.506A6.722,6.722,0,0,0,408.486,185.058Z" transform="translate(-397.145 -172.09)" fill="#e8e9fd"/>
            <path id="Path_43274" data-name="Path 43274" d="M392.007,203.961l10.034-10.034,1.056,1.056-10.034,10.034a.746.746,0,0,1-1.056,0h0a.746.746,0,0,1,0-1.056Z" transform="translate(-391.788 -180.927)" fill="#e8e9fd"/>
          </g>
        </g>
        <g id="Group_39557" data-name="Group 39557" transform="translate(179.717 138.05) rotate(4.992)">
          <g id="Group_39555" data-name="Group 39555" transform="translate(0 0)">
            <g id="Group_39554" data-name="Group 39554" transform="translate(5.196 0)">
              <path id="Path_43275" data-name="Path 43275" d="M3.985,44.533c4.094.92,11.715-3.044,12.854-8.629C17.9,30.7,16.963,24.943,21.7,21.045s11.07-17.5,9.606-19.768C29.195-2,18.829,1.495,14.676,6.393s-2.631,8.161-5.558,11.855-7.01,8-8.767,13.672S3.985,44.533,3.985,44.533Z" transform="translate(0)" fill="#5fd284"/>
              <path id="Path_43276" data-name="Path 43276" d="M0,13.292A10.9,10.9,0,0,1,3.106,8.2,15.192,15.192,0,0,1,6.713,6.119,9.856,9.856,0,0,0,12.28,1.073,9.062,9.062,0,0,1,12.966,0c-.158,1.534-.3,3.08-.6,4.58C11.266,9.949,4.183,13.817,0,13.292Z" transform="translate(4.478 31.324)" fill="#38c092"/>
            </g>
            <path id="Path_43277" data-name="Path 43277" d="M.308,59.921l.018,0a.407.407,0,0,0,.479-.318A247.708,247.708,0,0,1,22.421.584.407.407,0,0,0,21.7.2,248.534,248.534,0,0,0,.008,59.447a.406.406,0,0,0,.3.475Z" transform="translate(0 14.853)" fill="#38c092"/>
          </g>
          <g id="Group_39556" data-name="Group 39556" transform="translate(2.368 25.068)">
            <path id="Path_43278" data-name="Path 43278" d="M1.374,30.02c-2.7-3.075-1.1-11.718,2.054-14.3S9.886,13.885,13,8.1C15.869,2.783,26.9-.719,27.789.125,29.5,1.748,27.4,11.2,22.863,14.507c-7.38,5.378-6.391,10.992-10.228,14.28C7.616,33.084,1.374,30.02,1.374,30.02Z" transform="translate(8.015 0)" fill="#5fd284"/>
            <path id="Path_43279" data-name="Path 43279" d="M.307,36.2a.407.407,0,0,0,.493-.3C5.168,18.385,21.1.865,21.259.69a.406.406,0,1,0-.6-.549C20.5.317,4.431,17.985.012,35.711a.407.407,0,0,0,.295.493Z" transform="translate(0 14.094)" fill="#38c092"/>
          </g>
        </g>
        <g id="Group_39567" data-name="Group 39567" transform="translate(27.935 26.622)">
          <path id="Path_43322" data-name="Path 43322" d="M333.174,274.56l-5.533-.644a1.289,1.289,0,0,1-1.142-1.281h0a1.29,1.29,0,0,1,1.29-1.29h5.382Z" transform="translate(-193.893 -163.027)" fill="#ffc3bd"/>
          <g id="Group_39561" data-name="Group 39561" transform="translate(66.196 0)">
            <path id="Path_43280" data-name="Path 43280" d="M323.117,164.823a7.549,7.549,0,1,1,0-10.675A7.549,7.549,0,0,1,323.117,164.823Z" transform="translate(-263.507 -151.937)" fill="url(#linear-gradient-2)"/>
            <path id="Path_43281" data-name="Path 43281" d="M313.949,165.649a7.8,7.8,0,1,1,10.851.177,7.805,7.805,0,0,1-10.851-.177Zm0,0a7.3,7.3,0,1,0-2.143-5.287,7.294,7.294,0,0,0,2.143,5.287Z" transform="translate(-263.521 -151.939)" fill="url(#linear-gradient-2)"/>
            <ellipse id="Ellipse_2646" data-name="Ellipse 2646" cx="7.705" cy="8.272" rx="7.705" ry="8.272" transform="translate(37.976 11.498) rotate(-45)" fill="#ff5f81"/>
            <path id="Path_43282" data-name="Path 43282" d="M321.167,174.851c0,10.779-7.929,19.516-17.709,19.516s-17.709-15.587-17.709-22.274c0-10.78,9.48-16.762,19.261-16.762S321.167,164.071,321.167,174.851Z" transform="translate(-263.279 -151.967)" fill="url(#linear-gradient-2)"/>
            <path id="Path_43283" data-name="Path 43283" d="M295.553,203.2c-8.915,3.1-16.863,13.179-32.429,35.47,0,0,4.641.924,15.719,3.647L299.5,220.194Z" transform="translate(-263.07 -152.413)" fill="#ffc3bd"/>
            <path id="Path_43284" data-name="Path 43284" d="M295.709,203.2h18.9l13.517,3.272c4.18,7.918-3.564,39.608,3.28,68.164,0,0-33.788,5.7-51.367,0,0,0,7.914-12.508,4.067-30.573-3.36-15.774-4.9-23.587.918-34.014Z" transform="translate(-263.227 -152.413)" fill="url(#linear-gradient-5)"/>
            <path id="Path_43285" data-name="Path 43285" d="M318.554,178.212a3.153,3.153,0,0,0-3.91-.01v-4.279a10.388,10.388,0,0,0-10.388-10.388,15.614,15.614,0,0,0-15.614,15.614v5.919a12.993,12.993,0,0,0,7.1,11.576v8.586l18.947-2.4-.043-16.209C318.138,187.49,320.978,180.257,318.554,178.212Z" transform="translate(-263.307 -152.045)" fill="#ffc3bd"/>
            <path id="Path_43286" data-name="Path 43286" d="M295.809,196.9v2.708c12.815,2.8,16.472-8.2,16.472-8.2C305.727,198.893,298.424,197.892,295.809,196.9Z" transform="translate(-263.373 -152.303)" fill="#ff847f"/>
            <path id="Path_43287" data-name="Path 43287" d="M328.536,206.5c-3.724,1.363-6.182,16.223-2.755,21.886l11.843,23.77-1.272,18.912c8.855,4.061,8.209,1.146,8.209,1.146s4.5-11.39,4.5-22.615C349.059,241.928,336.515,209.707,328.536,206.5Z" transform="translate(-263.636 -152.443)" fill="#ffc3bd"/>
            <g id="Group_39558" data-name="Group 39558" transform="translate(26.418 23.31)">
              <circle id="Ellipse_2647" data-name="Ellipse 2647" cx="0.99" cy="0.99" r="0.99" transform="translate(11.886 3.188)" fill="#0e1738"/>
              <circle id="Ellipse_2648" data-name="Ellipse 2648" cx="0.99" cy="0.99" r="0.99" transform="translate(2.75 3.188)" fill="#0e1738"/>
              <path id="Path_43288" data-name="Path 43288" d="M296.871,180.042c-.4,1.23-.948,2.367-1.389,3.513a7.314,7.314,0,0,0-.282.847c-.07.276-.117.553-.027.646a10.257,10.257,0,0,0,1.317,1.264,3.836,3.836,0,0,1-1.794-.886.85.85,0,0,1-.188-.309,1.274,1.274,0,0,1-.052-.32,2.322,2.322,0,0,1,.045-.548,5.693,5.693,0,0,1,.292-.962,10.552,10.552,0,0,1,2.078-3.244Z" transform="translate(-289.778 -175.508)" fill="#ff847f"/>
              <path id="Path_43289" data-name="Path 43289" d="M305.766,178.056a13.78,13.78,0,0,0-2.821-1.481,6.942,6.942,0,0,0-3.1-.153,3.153,3.153,0,0,1,1.554-.866,3.463,3.463,0,0,1,1.848.076A4.084,4.084,0,0,1,305.766,178.056Z" transform="translate(-289.83 -175.465)" fill="#0e1738"/>
              <path id="Path_43290" data-name="Path 43290" d="M289.735,178.057a4.084,4.084,0,0,1,2.52-2.423,3.462,3.462,0,0,1,1.848-.076,3.142,3.142,0,0,1,1.553.866,6.939,6.939,0,0,0-3.1.153A13.783,13.783,0,0,0,289.735,178.057Z" transform="translate(-289.735 -175.466)" fill="#0e1738"/>
            </g>
            <path id="Path_43291" data-name="Path 43291" d="M314.974,184.4c.544-.548,1.16-1.359.644-1.749-.047-.042-.126-.118-.222-.217a1.6,1.6,0,0,1-.21-.3,2.308,2.308,0,0,1-.24-.661,2.907,2.907,0,0,1,.067-1.366,1.413,1.413,0,0,1,.435-.686,1.7,1.7,0,0,1,.707-.272,2.247,2.247,0,0,1,1.37.148,1.557,1.557,0,0,1,.861,1.06,2.917,2.917,0,0,1-.031,1.255c-.094-.8-.393-1.62-1.049-1.778a1.87,1.87,0,0,0-1,0,1.286,1.286,0,0,0-.408.159.81.81,0,0,0-.172.339,2.346,2.346,0,0,0-.083,1.023,1.631,1.631,0,0,0,.127.483,1.191,1.191,0,0,0,.115.207c.036.054.092.126.181.234a1.068,1.068,0,0,1,.234.741,1.192,1.192,0,0,1-.3.652A3.331,3.331,0,0,1,314.974,184.4Z" transform="translate(-263.551 -152.187)" fill="#ff847f"/>
            <path id="Path_43292" data-name="Path 43292" d="M329.377,216.609l-5.347-.858c-.054,8.752,4.57,19.913,4.57,19.913s1.286,12.208-6.508,20.294-18.813,14.917-25.551,16.152-.163,1.4,17.03,1.4c5.219,0,8.194-.518,8.52,2.489,5.562-.627,9.253-1.247,9.253-1.247C326.217,253.358,329.277,230.208,329.377,216.609Z" transform="translate(-263.164 -152.529)" fill="#0e1738" opacity="0.15"/>
            <path id="Path_43293" data-name="Path 43293" d="M335.007,275.444l-7.053-.821a1.644,1.644,0,0,1-1.454-1.631h0a1.644,1.644,0,0,1,1.644-1.644h6.863Z" transform="translate(-263.658 -153.046)" fill="#ffc3bd"/>
            <path id="Path_43294" data-name="Path 43294" d="M314.744,203.2H295.832s-2.768,4.384,0,6.384a6.45,6.45,0,0,0,3.051.966l.911,11.112,4.349-11.394C309.328,209.335,314.744,206.666,314.744,203.2Z" transform="translate(-263.362 -152.413)" fill="#ffc3bd"/>
            <path id="Path_43295" data-name="Path 43295" d="M301.413,189.3a1.305,1.305,0,1,1-1.269-1.61A1.47,1.47,0,0,1,301.413,189.3Z" transform="translate(-263.401 -152.268)" fill="#ff847f"/>
            <g id="Group_39560" data-name="Group 39560" transform="translate(0 35.855)">
              <path id="Path_43296" data-name="Path 43296" d="M287.81,204.677l6.5,4.613-14.932,32.063a8.554,8.554,0,0,1-13.287,2.911h0a8.553,8.553,0,0,1-1.064-11.965Z" transform="translate(-263.07 -188.281)" fill="#ffc3bd"/>
              <path id="Path_43297" data-name="Path 43297" d="M288.032,204.527,287,199.384a1.089,1.089,0,0,1,0-.435l1.314-6.675a1.114,1.114,0,0,1,.285-.551l1.483-1.559a1.111,1.111,0,0,1,1.587-.023l.388.384a1.111,1.111,0,0,1,.134,1.418l-.918,1.336a1.109,1.109,0,0,0-.193.7h0a1.111,1.111,0,0,0,1.976.624l4.586-5.721a1.111,1.111,0,0,1,1.449-.252l5.406,3.333a1.111,1.111,0,0,1,.43,1.4L300.4,203.441a1.11,1.11,0,0,1-.247.35l-5.621,5.35Z" transform="translate(-263.292 -188.13)" fill="#ffc3bd"/>
              <g id="Group_39559" data-name="Group 39559" transform="translate(26.786 0)">
                <path id="Path_43298" data-name="Path 43298" d="M290.106,190.165a1.144,1.144,0,0,1,1.319-.281,2.2,2.2,0,0,1,.566.444,1.483,1.483,0,0,1,.448.584,1.212,1.212,0,0,1,.036.761,2.468,2.468,0,0,1-.35.652c-.245.388-.528.8-.741,1.168a.93.93,0,0,0,.2,1.064.9.9,0,0,0,1.045.129,5.2,5.2,0,0,0,.851-.99l.86-1.113,1.732-2.218.874-1.1.435-.552a1.451,1.451,0,0,1,1.631-.5,4.239,4.239,0,0,1,.681.372l1.2.731,2.4,1.461,1.2.744a1.962,1.962,0,0,1,.645.537,1.455,1.455,0,0,1,.272.87,1.859,1.859,0,0,1-.232.808l-.292.64-.584,1.28c-.784,1.7-1.543,3.419-2.353,5.11l-1.2,2.546a1.788,1.788,0,0,1-.427.657l-.518.477-1.038.95c-1.4,1.25-2.784,2.515-4.2,3.748,1.3-1.354,2.634-2.674,3.95-4.011l1-.99.5-.494a1.356,1.356,0,0,0,.305-.529l1.106-2.587c.728-1.73,1.506-3.437,2.259-5.155l.569-1.287a4.741,4.741,0,0,0,.446-1.171.743.743,0,0,0-.146-.446,1.273,1.273,0,0,0-.443-.337l-1.2-.731-2.387-1.49-1.193-.745c-.438-.289-.676-.435-1.021-.326a.779.779,0,0,0-.4.285l-.443.544-.887,1.093-1.789,2.175-.9,1.082-.45.544a1.9,1.9,0,0,1-.582.535,1.338,1.338,0,0,1-1.558-.239,1.31,1.31,0,0,1-.232-1.528c.284-.431.556-.772.834-1.163a2.239,2.239,0,0,0,.353-.561,1,1,0,0,0,.006-.624,1.287,1.287,0,0,0-.371-.54,2.147,2.147,0,0,0-.506-.454A1.087,1.087,0,0,0,290.106,190.165Z" transform="translate(-290.106 -188.131)" fill="#ff847f"/>
                <path id="Path_43299" data-name="Path 43299" d="M299.973,189.131a11.773,11.773,0,0,1-1.2,3.719,10.026,10.026,0,0,1-1.054,1.667,4.388,4.388,0,0,1-1.5,1.3,11.3,11.3,0,0,0,1.013-1.623c.3-.556.594-1.113.875-1.685C298.7,191.385,299.255,190.239,299.973,189.131Z" transform="translate(-290.163 -188.137)" fill="#ff847f"/>
                <path id="Path_43300" data-name="Path 43300" d="M301.927,190.332a9.912,9.912,0,0,1-.9,3.5,7.284,7.284,0,0,1-2.167,2.9c.534-1.1,1.009-2.132,1.491-3.207S301.312,191.387,301.927,190.332Z" transform="translate(-290.186 -188.148)" fill="#ff847f"/>
                <path id="Path_43301" data-name="Path 43301" d="M303.607,191.364a11.487,11.487,0,0,1-.82,3.574,8.227,8.227,0,0,1-1.967,3.1l1.277-3.375a26.3,26.3,0,0,1,1.511-3.3Z" transform="translate(-290.205 -188.158)" fill="#ff847f"/>
              </g>
            </g>
            <path id="Path_43302" data-name="Path 43302" d="M328.536,206.5c-3.724,1.363-6.183,16.223-2.755,21.886l5.588,13,13.785-10.972C339.78,219.394,332.885,208.249,328.536,206.5Z" transform="translate(-263.636 -152.443)" fill="url(#linear-gradient-5)"/>
            <path id="Path_43303" data-name="Path 43303" d="M310.266,161.02c-5.18-2.133-20.549-1.185-22.6,5.338v7.926s1.879.116,4.472.192l1.318-6.178.739,6.226a80.169,80.169,0,0,0,8.532-.24l.752-4.458.96,4.715,4.308.811s4.16,5.98,3.909,20.734l2.023-17.952S315.447,163.152,310.266,161.02Z" transform="translate(-263.298 -152.011)" fill="url(#linear-gradient-2)"/>
            <path id="Path_43304" data-name="Path 43304" d="M329.607,237.345a69.09,69.09,0,0,1,6.222-6.2,68.169,68.169,0,0,1,6.881-5.462,77.941,77.941,0,0,1-13.1,11.663Z" transform="translate(-263.687 -152.621)" fill="#fff"/>
          </g>
          <g id="Group_39563" data-name="Group 39563" transform="translate(0 93.831)">
            <path id="Path_43305" data-name="Path 43305" d="M159.567,248.659l-1.207-3.419a9.35,9.35,0,0,0-8.819-6.24H109.4a9.35,9.35,0,0,0-9.35,9.35v79.025a9.35,9.35,0,0,0,9.35,9.35H220.686a9.35,9.35,0,0,0,9.35-9.35V264.25a9.35,9.35,0,0,0-9.35-9.35h-52.3a9.351,9.351,0,0,1-8.819-6.241Z" transform="translate(-79.81 -239)" fill="#e2e2e2"/>
            <path id="Path_43308" data-name="Path 43308" d="M207,337.027v1.528a9.35,9.35,0,0,1-9.35,9.35H84.837c-5.164,0-10.231-3.764-11.311-8.412L56.975,268.412C55.887,263.764,59.2,260,64.368,260h40.143a12.335,12.335,0,0,1,10.123,5.611l1.927,3.077a12.335,12.335,0,0,0,10.123,5.609h52.3c5.164,0,10.231,3.769,11.311,8.412l12.77,54.835a2,2,0,0,0,3.933-.519Z" transform="translate(-56.768 -250.18)" fill="#d0d0d0"/>
          </g>
          <g id="Group_39566" data-name="Group 39566" transform="translate(65.057 145.07)">
            <g id="Group_39564" data-name="Group 39564" transform="translate(0 0)">
              <path id="Path_43312" data-name="Path 43312" d="M250,392.257a18.243,18.243,0,1,1,0-25.8A18.243,18.243,0,0,1,250,392.257Zm-2.345-2.346a14.925,14.925,0,1,0-21.108,0,14.925,14.925,0,0,0,21.108,0Z" transform="translate(-218.861 -361.115)" fill="#848484"/>
              <path id="Path_43313" data-name="Path 43313" d="M295.1,439.692l-22.28-22.28,2.345-2.346,22.281,22.281a1.659,1.659,0,0,1,0,2.345h0A1.658,1.658,0,0,1,295.1,439.692Z" transform="translate(-243.948 -386.2)" fill="#848484"/>
            </g>
            <g id="Group_39565" data-name="Group 39565" transform="translate(19.245 6.065)">
              <path id="Path_43314" data-name="Path 43314" d="M254.83,372.451c9,0,14.134,13.242,9.5,18.86a21.37,21.37,0,0,0-2.452-10.835,23.472,23.472,0,0,0-7.047-8.026Z" transform="translate(-254.83 -372.451)" fill="#fff" opacity="0.5"/>
            </g>
            <circle id="Ellipse_2794" data-name="Ellipse 2794" cx="14.925" cy="14.925" r="14.925" transform="translate(3.318 3.318)" fill="#fff" opacity="0.15"/>
          </g>
          <g id="Group_39577" data-name="Group 39577" transform="translate(138.106 108.317)">
            <path id="Path_43315" data-name="Path 43315" d="M342.319,270.061H335.1a1.244,1.244,0,0,0-1.257,1.231v3.99a1.05,1.05,0,0,0,1.136,1.038h.16a1.123,1.123,0,0,0,1.128-1.038h.016a1.122,1.122,0,0,0,1.128,1.038h.16a1.123,1.123,0,0,0,1.128-1.038h.016a1.123,1.123,0,0,0,1.128,1.038h.16c1.142,0,1.087-.905,1.128-1.484h.016a1.123,1.123,0,0,0,1.128,1.038h.16a1.122,1.122,0,0,0,1.128-1.038h.008v-3.544A1.244,1.244,0,0,0,342.319,270.061Z" transform="translate(-333.848 -270.061)" fill="#ffc3bd"/>
            <g id="Group_39568" data-name="Group 39568" transform="translate(2.142 0.544)">
              <path id="Path_43316" data-name="Path 43316" d="M336.875,270.061a10.5,10.5,0,0,1,.3,2.609,10.387,10.387,0,0,1-.289,2.609,10.354,10.354,0,0,1-.3-2.609A10.5,10.5,0,0,1,336.875,270.061Z" transform="translate(-336.585 -270.061)" fill="#ff847f"/>
              <path id="Path_43317" data-name="Path 43317" d="M339.983,270.061a11.743,11.743,0,0,1,0,5.219,10.389,10.389,0,0,1-.294-2.609A10.494,10.494,0,0,1,339.983,270.061Z" transform="translate(-337.26 -270.061)" fill="#ff847f"/>
              <path id="Path_43318" data-name="Path 43318" d="M343.1,270.061a8.815,8.815,0,0,1,.294,2.387,8.7,8.7,0,0,1-.294,2.388,8.724,8.724,0,0,1-.292-2.388,8.813,8.813,0,0,1,.293-2.387Z" transform="translate(-337.938 -270.061)" fill="#ff847f"/>
            </g>
          </g>
        </g>
        <g id="Group_39573" data-name="Group 39573" transform="translate(173.147 20.18)">
          <g id="Group_39572" data-name="Group 39572" transform="translate(14.538 8.694)">
            <g id="Group_39570" data-name="Group 39570" transform="translate(0 0)">
              <path id="Path_43319" data-name="Path 43319" d="M368.964,123.446a.815.815,0,0,1-.788-.845l.14-4.02a.815.815,0,0,1,.845-.788,2.328,2.328,0,1,0-2.245-2.408.816.816,0,0,1-1.631-.054,3.961,3.961,0,1,1,4.64,4.041l-.115,3.288a.815.815,0,0,1-.847.786Z" transform="translate(-365.285 -111.509)" fill="#9cafcd"/>
            </g>
            <g id="Group_39571" data-name="Group 39571" transform="translate(2.4 13.455)">
              <path id="Path_43320" data-name="Path 43320" d="M371.926,135.464a1.3,1.3,0,1,1-.349-.938A1.3,1.3,0,0,1,371.926,135.464Z" transform="translate(-369.318 -134.112)" fill="#9cafcd"/>
            </g>
          </g>
          <path id="Path_43321" data-name="Path 43321" d="M340.863,134.406l3.932-12.572a16.723,16.723,0,1,1,6.2,6.271ZM359.36,98.7a14.932,14.932,0,0,0-12.83,22.571l.2.343L344,130.351l6.988-4.346.472.3a14.931,14.931,0,1,0,7.9-27.6Z" transform="translate(-340.863 -96.902)" fill="#cfd7fe"/>
        </g>
      </g>
    </g>
  </g>
</svg>
