<svg xmlns="http://www.w3.org/2000/svg" width="11.667" height="13.749" viewBox="0 0 11.667 13.749">
  <g id="Group_39952" data-name="Group 39952" transform="translate(-1535.688 -744.441)">
    <path id="Union_3" data-name="Union 3" d="M-2691.46-678.251a.5.5,0,0,1-.54-.5,5.789,5.789,0,0,1,1.715-4.119,5.791,5.791,0,0,1,4.118-1.714,5.754,5.754,0,0,1,4.1,1.714,5.924,5.924,0,0,1,1.731,4.117.534.534,0,0,1-.541.5Zm1.386-4.4a5.493,5.493,0,0,0-1.626,3.907c0,.145.124.2.24.2h10.586a.237.237,0,0,0,.24-.2,5.619,5.619,0,0,0-1.643-3.908,5.454,5.454,0,0,0-3.891-1.625A5.492,5.492,0,0,0-2690.074-682.655Zm-1.2,3.667.013-.163a5.126,5.126,0,0,1,1.625-3.335,5.093,5.093,0,0,1,3.469-1.357,5.065,5.065,0,0,1,5.052,4.7l.011.16Zm1.843-3.278a4.829,4.829,0,0,0-1.515,2.977h9.519a4.766,4.766,0,0,0-4.739-4.255A4.789,4.789,0,0,0-2689.432-682.266Zm.769-3.74a3.444,3.444,0,0,1-1.037-2.46,3.538,3.538,0,0,1,3.534-3.534,3.443,3.443,0,0,1,2.477,1.038,3.538,3.538,0,0,1,1.013,2.5,3.494,3.494,0,0,1-3.49,3.49A3.524,3.524,0,0,1-2688.664-686.006Zm0-2.46a2.477,2.477,0,0,0,2.5,2.453,2.455,2.455,0,0,0,2.453-2.453,2.478,2.478,0,0,0-2.453-2.5A2.469,2.469,0,0,0-2688.663-688.466Z" transform="translate(4227.688 1436.441)" fill="#007c3d"/>
    <path id="Path_43226" data-name="Path 43226" d="M.738,176.293h9.848a4.939,4.939,0,0,0-9.848,0Zm10.239.738H.39a.354.354,0,0,1-.39-.347A5.7,5.7,0,0,1,5.683,171a5.731,5.731,0,0,1,5.683,5.683A.382.382,0,0,1,10.976,177.03Z" transform="translate(1535.838 581.01)" fill="#007c3d"/>
  </g>
</svg>
