<svg xmlns="http://www.w3.org/2000/svg" width="16.379" height="16.379" viewBox="0 0 16.379 16.379">
  <g id="completed" transform="translate(-26 -256.621)">
    <path id="Path_12680" data-name="Path 12680" d="M8.189,0a8.189,8.189,0,1,0,8.189,8.189A8.2,8.2,0,0,0,8.189,0Zm0,15.051a6.861,6.861,0,1,1,6.861-6.861A6.869,6.869,0,0,1,8.189,15.051Z" transform="translate(26 256.621)" fill="#444"/>
    <g id="noun_U_Turn_3322565" data-name="noun_U Turn_3322565" transform="translate(30.17 268.423) rotate(-90)">
      <g id="Group_39195" data-name="Group 39195" transform="translate(0)">
        <path id="Path_43272" data-name="Path 43272" d="M7.1,1.724,5.5.127A.423.423,0,0,0,5.435.073C5.425.066,5.413.061,5.4.055A.4.4,0,0,0,5.359.034L5.316.02,5.279.009a.43.43,0,0,0-.169,0L5.072.02,5.029.034a.4.4,0,0,0-.043.022c-.011.006-.022.01-.032.017a.444.444,0,0,0-.066.054l-1.6,1.6a.433.433,0,1,0,.612.612l.858-.858V5.224a1.947,1.947,0,1,1-3.895,0V.433A.433.433,0,1,0,0,.433V5.224a2.813,2.813,0,1,0,5.626,0V1.477l.858.858A.433.433,0,1,0,7.1,1.724Z" fill="#444" stroke="#444" stroke-width="0.4"/>
      </g>
    </g>
  </g>
</svg>
