<svg xmlns="http://www.w3.org/2000/svg" width="66" height="66" viewBox="0 0 66 66">
  <g id="notification" transform="translate(643.508 1998.508)" opacity="0.5">
    <rect id="Rectangle_982" data-name="Rectangle 982" width="66" height="66" transform="translate(-643.508 -1998.508)" fill="#646464" opacity="0"/>
    <g id="bell" transform="translate(-631.339 -1991.49)">
      <g id="Group_1701" data-name="Group 1701" transform="translate(0 0)">
        <path id="Path_12092" data-name="Path 12092" d="M100.792,37.01,98.371,35.4V21.385A17.151,17.151,0,0,0,82.8,4.328V1.557a1.557,1.557,0,0,0-3.114,0V4.328A17.151,17.151,0,0,0,64.114,21.385V35.4L61.693,37.01a1.557,1.557,0,0,0-.693,1.3v6.229a1.557,1.557,0,0,0,1.557,1.557H72.821a8.553,8.553,0,0,0,16.843,0H99.928a1.557,1.557,0,0,0,1.557-1.557V38.305A1.557,1.557,0,0,0,100.792,37.01ZM81.243,50.036a5.467,5.467,0,0,1-5.228-3.945H86.47A5.468,5.468,0,0,1,81.243,50.036Zm17.128-7.059H64.114V39.139l2.421-1.614a1.557,1.557,0,0,0,.693-1.3V21.385a14.014,14.014,0,1,1,28.028,0V36.229a1.557,1.557,0,0,0,.693,1.3l2.421,1.614Z" transform="translate(-61)" fill="#646464"/>
      </g>
    </g>
  </g>
</svg>
