<svg xmlns="http://www.w3.org/2000/svg" width="42" height="42" viewBox="0 0 42 42">
  <g id="Group_39999" data-name="Group 39999" transform="translate(-255 -392)">
    <path id="Path_43906" data-name="Path 43906" d="M0,0H42V42H0Z" transform="translate(255 392)" fill="#fff" opacity="0"/>
    <g id="noun_global_currency_3595304" data-name="noun_global currency_3595304" transform="translate(258 397)">
      <g id="Group_39987" data-name="Group 39987" transform="translate(0 0)">
        <g id="Path_43906-2" data-name="Path 43906" transform="translate(-2 -6)" fill="#007c3d">
          <path d="M 18.25777435302734 38.38793182373047 C 14.54367351531982 38.38793182373047 10.91391372680664 37.09404373168945 8.037134170532227 34.74459075927734 C 6.195363998413086 33.24041366577148 4.682623863220215 31.30998229980469 3.662453651428223 29.1619930267334 C 2.64228367805481 27.01400184631348 2.101983785629272 24.62171173095703 2.099983692169189 22.24377250671387 C 2.099983692169189 21.96590232849121 2.11945366859436 21.68640327453613 2.138293743133545 21.41610336303711 C 2.14336371421814 21.3432731628418 2.148443698883057 21.27045249938965 2.15316367149353 21.19754219055176 L 2.154623746871948 21.17507171630859 L 2.146303653717041 21.15415191650391 C 2.07495379447937 20.97454261779785 2.086063861846924 20.77366256713867 2.176793813705444 20.60301208496094 L 2.185893774032593 20.58589172363281 L 2.187933683395386 20.56660270690918 C 2.57633376121521 16.8991527557373 4.226293563842773 13.4431324005127 6.833893775939941 10.83517265319824 C 9.441483497619629 8.227202415466309 12.89727401733398 6.576762676239014 16.56467437744141 6.187862396240234 L 16.58133316040039 6.186102390289307 L 16.59651374816895 6.178992748260498 C 16.69728469848633 6.131832599639893 16.80935287475586 6.106912612915039 16.92061424255371 6.106912612915039 C 17.00426292419434 6.106912612915039 17.08684349060059 6.120532512664795 17.16606330871582 6.147392749786377 L 17.18477439880371 6.153732776641846 L 17.20448303222656 6.152482509613037 C 17.28187370300293 6.147592544555664 17.35915374755859 6.142272472381592 17.43643379211426 6.136942386627197 C 17.70009422302246 6.118782520294189 17.97273445129395 6.100002765655518 18.24383354187012 6.100002765655518 L 18.27048301696777 6.099982738494873 C 20.95529365539551 6.099982738494873 23.62046432495117 6.779422760009766 25.97787284851074 8.064852714538574 C 28.33549308776855 9.35039234161377 30.3503532409668 11.22300243377686 31.80461311340332 13.48023223876953 C 32.03787231445312 13.84078216552734 31.93436431884766 14.3236722946167 31.573974609375 14.55684280395508 C 31.4476146697998 14.63859272003174 31.30167388916016 14.68181228637695 31.15194320678711 14.68181228637695 C 30.88627433776855 14.68181228637695 30.64162445068359 14.54883289337158 30.49752426147461 14.3261022567749 C 29.18358421325684 12.28615283966064 27.36293411254883 10.59369277954102 25.23251342773438 9.431862831115723 C 23.10226440429688 8.270133018493652 20.69375419616699 7.656072616577148 18.26735305786133 7.656072616577148 L 18.24367332458496 7.656092643737793 C 18.07935333251953 7.656092643737793 17.91659355163574 7.667122364044189 17.75918388366699 7.677782535552979 C 17.67799377441406 7.683282375335693 17.59679412841797 7.688792705535889 17.51521301269531 7.692822456359863 L 17.44879341125488 7.696112632751465 L 17.42613410949707 7.758642673492432 C 16.87836456298828 9.270512580871582 16.41176414489746 11.1408224105835 16.62595367431641 11.62910270690918 L 16.63325309753418 11.64574241638184 L 16.64594459533691 11.65875244140625 C 16.92331314086914 11.94315242767334 17.0323429107666 12.35835266113281 16.93047332763672 12.74233245849609 C 16.76046371459961 13.46247291564941 15.81135368347168 14.2757625579834 14.18507385253906 15.09694290161133 C 12.8477840423584 15.77220249176025 11.42949390411377 16.26245307922363 11.0266637802124 16.39662170410156 L 10.55712413787842 16.55085182189941 C 8.429654121398926 17.24489212036133 8.046303749084473 17.36995315551758 8.046303749084473 20.92678260803223 C 8.046303749084473 21.35580253601074 7.697273731231689 21.70483207702637 7.268263816833496 21.70483207702637 L 3.77829384803772 21.70483207702637 L 3.681403875350952 21.70483207702637 L 3.678343772888184 21.80167198181152 C 3.676433801651001 21.86211204528809 3.672133684158325 21.92391204833984 3.667983770370483 21.98367309570312 C 3.662123680114746 22.06789207458496 3.656073808670044 22.15497207641602 3.656073808670044 22.24385261535645 C 3.654903650283813 25.23273277282715 4.559593677520752 28.10732269287109 6.272353649139404 30.55680274963379 L 6.321813583374023 30.62754249572754 L 6.399023532867432 30.58894348144531 L 9.554634094238281 29.01127243041992 C 9.661883354187012 28.95794296264648 9.781973838806152 28.9296932220459 9.9017333984375 28.9296932220459 C 10.10982418060303 28.9296932220459 10.30554389953613 29.01053237915039 10.4528636932373 29.15731239318848 L 13.9649133682251 32.66936111450195 C 14.06451416015625 32.76896286010742 14.13518333435059 32.89385223388672 14.16926383972168 33.03052139282227 L 15.01290416717529 36.4046516418457 L 15.0278434753418 36.46442413330078 L 15.08795356750488 36.47795104980469 C 16.13042449951172 36.71261215209961 17.2007942199707 36.83160400390625 18.26933288574219 36.83160400390625 C 19.23884391784668 36.83159255981445 20.21210289001465 36.73343276977539 21.16206359863281 36.53984069824219 C 21.21347427368164 36.52939224243164 21.26593399047852 36.52409362792969 21.31791305541992 36.52409362792969 C 21.68579292297363 36.52409362792969 22.00608444213867 36.78621292114258 22.07948303222656 37.14735412597656 C 22.12088394165039 37.35102081298828 22.08049392700195 37.55862426757812 21.96575355529785 37.7319221496582 C 21.85101318359375 37.90521240234375 21.67566299438477 38.02344131469727 21.47199440002441 38.0648307800293 C 20.41586303710938 38.27923202514648 19.33443450927734 38.38793182373047 18.25777435302734 38.38793182373047 Z M 9.748913764953613 30.65406227111816 L 9.684443473815918 30.68630218505859 L 7.431283950805664 31.81292343139648 L 7.314043998718262 31.87154197692871 L 7.401553630828857 31.9691219329834 C 8.958744049072266 33.70562362670898 10.93510341644287 35.05927276611328 13.11696338653564 35.88371276855469 L 13.29569339752197 35.95125198364258 L 13.24932384490967 35.76590347290039 L 12.7184534072876 33.64410400390625 L 12.7117338180542 33.61724090576172 L 12.69215393066406 33.59766387939453 L 9.799873352050781 30.70503234863281 L 9.748913764953613 30.65406227111816 Z M 15.72629356384277 7.8828125 L 15.55940341949463 7.914392471313477 C 12.5770435333252 8.478862762451172 9.885443687438965 9.930622100830078 7.775593757629395 12.11273288726807 C 5.665733814239502 14.29484272003174 4.305393695831299 17.03378295898438 3.841633796691895 20.0334529876709 L 3.823813676834106 20.14873313903809 L 3.940463781356812 20.14873313903809 L 6.403913974761963 20.14873313903809 L 6.500593662261963 20.14873313903809 L 6.503853797912598 20.0521125793457 C 6.623503684997559 16.5098934173584 7.526124000549316 15.90291213989258 10.07512378692627 15.0714225769043 L 10.53413391113281 14.92050266265869 C 12.24347400665283 14.4202823638916 13.83754348754883 13.62595272064209 15.26893329620361 12.5605525970459 L 15.34024333953857 12.50747299194336 L 15.29588413238525 12.43043231964111 C 14.84318351745605 11.64425277709961 14.97005367279053 10.16847229003906 15.67294406890869 8.044062614440918 L 15.72629356384277 7.8828125 Z" stroke="none"/>
          <path d="M 18.25777435302734 38.28793334960938 C 19.32779312133789 38.28793334960938 20.40253448486328 38.17990112304688 21.45207405090332 37.96684265136719 C 21.62956428527832 37.93076324462891 21.78238296508789 37.82773208618164 21.88237380981445 37.67671203613281 C 21.98237419128418 37.52569198608398 22.01757431030273 37.34477233886719 21.98149299621582 37.16726303100586 C 21.91752433776855 36.85253143310547 21.63844299316406 36.62409210205078 21.31791305541992 36.62409210205078 C 21.27261352539062 36.62409210205078 21.22684288024902 36.62872314453125 21.18203353881836 36.63782119750977 C 20.22552299499512 36.8327522277832 19.24555397033691 36.93159103393555 18.26933288574219 36.93160247802734 C 17.19343376159668 36.93160247802734 16.11567306518555 36.81179428100586 15.065993309021 36.57551193237305 L 14.94577407836914 36.54845428466797 L 14.07223415374756 33.05472183227539 C 14.04254341125488 32.93565368652344 13.98098373413086 32.82685089111328 13.89420413970947 32.74007415771484 L 10.38227367401123 29.22815322875977 C 10.25383377075195 29.10017204284668 10.08317375183105 29.02969169616699 9.9017333984375 29.02969169616699 C 9.795864105224609 29.02969169616699 9.69399356842041 29.05365180969238 9.599353790283203 29.10072326660156 L 6.289323806762695 30.75559234619141 L 6.190393924713135 30.61411285400391 C 4.465823650360107 28.1477222442627 3.554893732070923 25.2533130645752 3.556073665618896 22.24385261535645 C 3.556073665618896 22.15150260925293 3.562253713607788 22.06266212463379 3.568223714828491 21.97674179077148 C 3.572503805160522 21.91519165039062 3.576543807983398 21.85706329345703 3.578393697738647 21.79851341247559 L 3.584513664245605 21.60483169555664 L 7.268263816833496 21.60483169555664 C 7.642133712768555 21.60483169555664 7.946303844451904 21.30066299438477 7.946303844451904 20.92678260803223 C 7.946303844451904 19.22311210632324 8.017124176025391 18.24577331542969 8.404193878173828 17.63204193115234 C 8.788543701171875 17.02262306213379 9.442584037780762 16.80926322937012 10.52592372894287 16.45585250854492 L 10.99506378173828 16.3017520904541 C 13.49463367462158 15.46921253204346 16.52325439453125 14.03214263916016 16.83248329162598 12.72203254699707 L 16.83382415771484 12.71669292449951 C 16.92671394348145 12.36654281616211 16.82728385925293 11.98791217803955 16.57435417175293 11.72857284545898 L 16.54898452758789 11.70255279541016 L 16.53438377380371 11.66927242279053 C 16.30734443664551 11.15169239044189 16.76383399963379 9.293062210083008 17.33211326599121 7.724572658538818 L 17.3774242401123 7.599522590637207 L 17.51027297973633 7.592942714691162 C 17.59124374389648 7.588942527770996 17.67183303833008 7.583472728729248 17.7524242401123 7.578012466430664 C 17.9114933013916 7.567232608795166 18.07597351074219 7.556092739105225 18.24357414245605 7.556092739105225 L 18.26735305786133 7.55607271194458 C 20.71043395996094 7.55607271194458 23.1355037689209 8.174352645874023 25.28039360046387 9.344072341918945 C 27.42546463012695 10.51388263702393 29.25862312316895 12.21798229217529 30.58148384094238 14.27178287506104 C 30.70708465576172 14.46591281890869 30.92034339904785 14.58181285858154 31.15194320678711 14.58181285858154 C 31.2823429107666 14.58181285858154 31.40950393676758 14.5441427230835 31.5196533203125 14.47288227081299 C 31.83375358581543 14.26966285705566 31.92396354675293 13.84880256652832 31.72054290771484 13.53439235687256 C 30.27531433105469 11.29118251800537 28.27298355102539 9.43021297454834 25.93000411987305 8.152652740478516 C 23.58723449707031 6.875202655792236 20.93861389160156 6.199982643127441 18.27048301696777 6.199982643127441 L 18.24383354187012 6.200002670288086 C 17.97617340087891 6.200002670288086 17.70528411865234 6.218662738800049 17.44330406188965 6.236712455749512 C 17.3658332824707 6.242052555084229 17.28836441040039 6.247382640838623 17.21078300476074 6.252282619476318 L 17.17136383056641 6.254772663116455 L 17.13396453857422 6.242092609405518 C 16.9735050201416 6.187705516815186 16.79233360290527 6.197775363922119 16.63889312744141 6.269562721252441 L 16.60854339599609 6.283772468566895 L 16.57521438598633 6.287302494049072 C 12.93050384521484 6.673802375793457 9.496073722839355 8.314042091369629 6.904603958129883 10.9058723449707 C 4.313133716583252 13.49771213531494 2.673373699188232 16.93236351013184 2.287383794784546 20.57713317871094 L 2.283293724060059 20.61571311950684 L 2.265083789825439 20.64996337890625 C 2.188163757324219 20.79464340209961 2.178743839263916 20.96495246887207 2.239243745803833 21.11723327636719 L 2.255863666534424 21.15907287597656 L 2.252953767776489 21.20400238037109 C 2.248223781585693 21.2770824432373 2.243133783340454 21.35006332397461 2.238053798675537 21.42305183410645 C 2.219333648681641 21.69164276123047 2.199983835220337 21.96938323974609 2.199983835220337 22.24368286132812 C 2.201973676681519 24.60691261291504 2.738923788070679 26.9843921661377 3.75278377532959 29.11909294128418 C 4.76664400100708 31.25379180908203 6.270013809204102 33.17227172851562 8.100393295288086 34.66714096069336 C 10.95937347412109 37.00204086303711 14.56666374206543 38.28793334960938 18.25777435302734 38.28793334960938 M 9.76866340637207 30.53238296508789 L 12.80202388763428 33.56611251831055 L 13.43908405303955 36.11233139038086 L 13.08162403106689 35.97726440429688 C 10.88483333587646 35.14717102050781 8.894953727722168 33.78427124023438 7.327103614807129 32.03588104248047 L 7.152083873748779 31.84072303771973 L 9.76866340637207 30.53238296508789 M 15.87458419799805 7.752972602844238 L 15.76788330078125 8.075472831726074 C 15.08409404754639 10.14215278625488 14.95084381103516 11.6308126449585 15.38254356384277 12.38053226470947 L 15.47126388549805 12.53461265563965 L 15.32864379882812 12.64077281951904 C 13.88858318328857 13.71262836456299 12.28482151031494 14.5119743347168 10.56209850311279 15.01656627655029 L 10.10613346099854 15.1664924621582 C 8.79681396484375 15.59359264373779 7.987843990325928 15.94850254058838 7.463293552398682 16.59975242614746 C 6.919873714447021 17.27442169189453 6.662833690643311 18.30791282653809 6.603803634643555 20.05548286437988 L 6.597273826599121 20.24873161315918 L 3.70716381072998 20.24873161315918 L 3.7428138256073 20.01817321777344 C 4.209743976593018 16.99796295166016 5.579393863677979 14.24027252197266 7.703693866729736 12.04322242736816 C 9.828003883361816 9.846162796020508 12.5380334854126 8.384472846984863 15.54081344604492 7.816142559051514 L 15.87458419799805 7.752972602844238 M 18.25776863098145 38.48793792724609 C 14.54253101348877 38.48793792724609 10.90201854705811 37.21343612670898 7.973883628845215 34.82204437255859 C 4.196943759918213 31.73742294311523 2.004093647003174 27.12033271789551 1.999983787536621 22.24385261535645 C 1.999983787536621 21.88850212097168 2.030713796615601 21.54080200195312 2.05337381362915 21.19107246398926 C 1.971313714981079 20.98451232910156 1.984153747558594 20.75232315063477 2.088493824005127 20.55607223510742 C 2.896513700485229 12.92624282836914 8.924413681030273 6.897492408752441 16.55412292480469 6.088422775268555 C 16.75616264343262 5.99387264251709 16.98692321777344 5.981061458587646 17.19817352294922 6.052682399749756 C 17.55456352233887 6.030167579650879 17.90854454040527 5.999977588653564 18.27048301696777 5.999980926513672 C 23.77608489990234 5.999980926513672 28.90618705749512 8.79681396484375 31.88867378234863 13.4260721206665 C 32.15221405029297 13.83341217041016 32.0356330871582 14.37726211547852 31.62829399108887 14.64080238342285 C 31.22095108032227 14.90434265136719 30.67710304260254 14.78776264190674 30.41356468200684 14.38042259216309 C 27.74946403503418 10.24428272247314 23.16432952880859 7.747987747192383 18.24383354187012 7.756092548370361 C 17.99956321716309 7.756092548370361 17.76152420043945 7.780762672424316 17.5201530456543 7.792702674865723 C 16.9130744934082 9.468282699584961 16.53955459594727 11.18319225311279 16.71753311157227 11.58893299102783 C 17.02100372314453 11.90009212493896 17.13858413696289 12.34786224365234 17.02713394165039 12.76797294616699 C 16.6043529510498 14.5591926574707 11.98091411590576 16.1841926574707 11.05826377868652 16.49150276184082 L 10.58833408355713 16.6458625793457 C 8.471183776855469 17.33653259277344 8.146304130554199 17.44243240356445 8.146304130554199 20.92678260803223 C 8.146304130554199 21.41171264648438 7.753193855285645 21.80483245849609 7.268263816833496 21.80483245849609 L 3.77829384803772 21.80483245849609 C 3.773643732070923 21.95190238952637 3.756073713302612 22.09563255310059 3.756073713302612 22.24385261535645 C 3.754913806915283 25.19709205627441 4.661983966827393 28.07924270629883 6.35430383682251 30.49950218200684 L 9.509913444519043 28.92183303833008 C 9.848104476928711 28.75363922119141 10.25588417053223 28.81988143920898 10.52344417572021 29.08647346496582 L 14.03562355041504 32.59865188598633 C 14.14807415008545 32.71110153198242 14.22781372070312 32.85203170776367 14.2662935256958 33.00632095336914 L 15.10991382598877 36.38039398193359 C 17.09370613098145 36.82695388793945 19.14962577819824 36.847900390625 21.14209365844727 36.44185256958008 L 21.14209365844727 36.44186401367188 C 21.6173210144043 36.34527587890625 22.08089256286621 36.65220260620117 22.1774845123291 37.12743377685547 C 22.27408409118652 37.6026725769043 21.96714401245117 38.06624221801758 21.49191284179688 38.16283416748047 C 20.41791915893555 38.38085174560547 19.33472633361816 38.48793792724609 18.25776863098145 38.48793792724609 Z M 13.15231418609619 35.7901725769043 L 12.62144374847412 33.66837310791016 L 9.729164123535156 30.77574348449707 L 7.476003646850586 31.90236282348633 L 7.476013660430908 31.90236282348633 C 9.029233932495117 33.63444137573242 10.97600364685059 34.96782302856445 13.15231418609619 35.7901725769043 Z M 15.57800388336182 8.012652397155762 C 9.54128360748291 9.155202865600586 4.879173755645752 13.97697257995605 3.940463781356812 20.04873275756836 L 6.403913974761963 20.04873275756836 C 6.525703907012939 16.44312286376953 7.478373527526855 15.81330299377441 10.044114112854 14.97635269165039 L 10.50289344787598 14.82550239562988 C 12.19841384887695 14.32927227020264 13.79205417633057 13.53515243530273 15.20922374725342 12.48033237457275 C 14.65842342376709 11.52378273010254 15.00859355926514 9.733622550964355 15.57800388336182 8.012652397155762 Z" stroke="none" fill="#fff"/>
        </g>
        <g id="Path_43907" data-name="Path 43907" transform="translate(-3.829 -7.463)" fill="#007c3d">
          <path d="M 37.19506072998047 31.94874000549316 L 19.63414001464844 31.94874000549316 C 18.23839950561523 31.94720077514648 17.10153961181641 30.81034088134766 17.10000038146973 29.41448974609375 L 17.10000038146973 20.63414001464844 C 17.10153961181641 19.23839950561523 18.23839950561523 18.10153961181641 19.63425064086914 18.10000038146973 L 37.19506072998047 18.10000038146973 C 38.5908088684082 18.10153007507324 39.72766876220703 19.23838996887207 39.72920227050781 20.63425064086914 L 39.72920227050781 29.41460037231445 C 39.72766876220703 30.81034088134766 38.5908088684082 31.94720077514648 37.19495010375977 31.94874000549316 L 37.19506072998047 31.94874000549316 Z M 19.6340503692627 19.65608978271484 C 19.09529113769531 19.65657997131348 18.65657997131348 20.09529113769531 18.65608978271484 20.6340503692627 L 18.65608978271484 29.41460037231445 C 18.65657997131348 29.95344924926758 19.09529113769531 30.39216041564941 19.6340503692627 30.39265060424805 L 37.19506072998047 30.39265060424805 C 37.73392105102539 30.39216995239258 38.17263031005859 29.95346069335938 38.17311096191406 29.4146900177002 L 38.17311859130859 20.63414001464844 C 38.17263031005859 20.09529113769531 37.73392105102539 19.65657997131348 37.19514846801758 19.65608978271484 L 19.63414001464844 19.65608978271484 L 19.6340503692627 19.65608978271484 Z" stroke="none"/>
          <path d="M 19.63414001464844 18.20000076293945 L 19.63436126708984 18.20000076293945 C 18.29352188110352 18.20148086547852 17.20146942138672 19.29351997375488 17.20000076293945 20.63414001464844 L 17.20000076293945 29.41438102722168 C 17.20146942138672 30.75522041320801 18.29352188110352 31.84725952148438 19.63414001464844 31.84873962402344 L 37.19483947753906 31.84873962402344 C 38.53568267822266 31.84725952148438 39.62773132324219 30.75522041320801 39.62919998168945 29.41460037231445 L 39.62919998168945 20.63435935974121 C 39.62773132324219 19.29351043701172 38.53569030761719 18.20146942138672 37.19506072998047 18.20000076293945 L 19.63414001464844 18.20000076293945 M 37.19524002075195 30.49265098571777 L 19.63396072387695 30.49265098571777 C 19.0401611328125 30.49210929870605 18.5566291809082 30.00857925415039 18.55609130859375 29.41460037231445 L 18.55609130859375 20.63396072387695 C 18.5566291809082 20.0401611328125 19.0401611328125 19.55663108825684 19.63414001464844 19.55608940124512 L 37.19524002075195 19.55608940124512 C 37.78903961181641 19.55661964416504 38.2725830078125 20.0401496887207 38.27312088012695 20.63414001464844 L 38.27310943603516 29.41477966308594 C 38.2725830078125 30.00857925415039 37.7890510559082 30.49210929870605 37.19524002075195 30.49265098571777 M 19.63414001464844 18 L 37.19506072998047 18 C 38.64919281005859 18.00159072875977 39.82761001586914 19.18000030517578 39.82920074462891 20.63414001464844 L 39.82920074462891 29.41460037231445 C 39.82761001586914 30.86873054504395 38.64919281005859 32.04714202880859 37.19506072998047 32.04874038696289 L 19.63414001464844 32.04874038696289 C 18.18000030517578 32.04714202880859 17.00159072875977 30.86873054504395 17 29.41460037231445 L 17 20.63414001464844 C 17.00159072875977 19.18000030517578 18.18000030517578 18.0015983581543 19.63414001464844 18 Z M 37.19506072998047 30.29265022277832 C 37.6798210144043 30.29220962524414 38.07267761230469 29.89935111999512 38.07311248779297 29.41460037231445 L 38.0731201171875 20.63414001464844 C 38.07267761230469 20.14938926696777 37.6798210144043 19.75651931762695 37.19506072998047 19.75609016418457 L 19.63414001464844 19.75609016418457 C 19.14937973022461 19.75653076171875 18.75653076171875 20.14938926696777 18.7560920715332 20.63414001464844 L 18.7560920715332 29.41460037231445 C 18.75653076171875 29.89935111999512 19.14937973022461 30.29220962524414 19.63414001464844 30.29265022277832 L 37.19506072998047 30.29265022277832 Z" stroke="none" fill="#fff"/>
        </g>
        <g id="Path_43908" data-name="Path 43908" transform="translate(-2.976 -7.951)" fill="#007c3d">
          <path d="M 12.63438701629639 29.80240249633789 C 12.60897159576416 29.80233001708984 12.58328533172607 29.80094909667969 12.55805015563965 29.79830169677734 C 12.32454013824463 29.77538108825684 12.11658954620361 29.65063095092773 11.98686981201172 29.45596122741699 L 10.23077011108398 26.82180213928223 C 10.09681034088135 26.62053108215332 10.0638599395752 26.37347221374512 10.14038944244385 26.14406204223633 L 11.01844024658203 23.5098819732666 C 11.095139503479 23.27864265441895 11.27882957458496 23.09480094909668 11.50986957550049 23.01797103881836 L 14.14408016204834 22.13990211486816 C 14.22363948822021 22.11337280273438 14.30644989013672 22.09991264343262 14.39021968841553 22.09991264343262 C 14.55455017089844 22.09991264343262 14.71185970306396 22.15068244934082 14.84511947631836 22.2467212677002 C 15.04749965667725 22.39255142211914 15.16831970214844 22.6285514831543 15.16831970214844 22.87803268432617 L 15.16831970214844 27.26826095581055 C 15.16827964782715 27.47605133056641 15.08730983734131 27.67141151428223 14.94034957885742 27.81832122802734 L 13.18412017822266 29.57456207275391 C 13.03721523284912 29.72143745422363 12.84199619293213 29.80235290527344 12.63438701629639 29.80240249633789 Z M 13.61223030090332 23.9572925567627 L 13.48058986663818 24.00120162963867 L 12.41903018951416 24.35531234741211 L 12.37162017822266 24.37112236022949 L 12.35581016540527 24.41854095458984 L 11.75216007232666 26.22873115539551 L 11.73668003082275 26.27512168884277 L 11.76381015777588 26.31582260131836 L 12.68733024597168 27.70146179199219 L 12.75496959686279 27.80295181274414 L 12.84122943878174 27.71673202514648 L 13.58292007446289 26.97540283203125 L 13.61223030090332 26.94611167907715 L 13.61223030090332 26.90467262268066 L 13.61223030090332 24.09606170654297 L 13.61223030090332 23.9572925567627 Z" stroke="none"/>
          <path d="M 14.39021015167236 22.19991111755371 L 14.39021968841553 22.19991111755371 C 14.31723976135254 22.19991111755371 14.24506950378418 22.21163177490234 14.17570972442627 22.23477172851562 L 11.54142951965332 23.11286163330078 C 11.34017944335938 23.17978096008301 11.1801700592041 23.33992195129395 11.11330986022949 23.54150199890137 L 10.23524951934814 26.17570114135742 C 10.16854953765869 26.37566184997559 10.19726943969727 26.59098243713379 10.31396961212158 26.76633262634277 L 12.0700798034668 29.4005012512207 C 12.18311023712158 29.57011222839355 12.36427974700928 29.67880249023438 12.56849956512451 29.6988410949707 C 12.7746467590332 29.72050857543945 12.97013568878174 29.64709281921387 13.11340999603271 29.50385093688965 L 14.86964988708496 27.74759101867676 C 14.99773025512695 27.61957168579102 15.06828022003174 27.44932174682617 15.06832027435303 27.26826095581055 L 15.06832027435303 22.87803268432617 C 15.06832027435303 22.66061210632324 14.9630298614502 22.45494270324707 14.78666019439697 22.32784271240234 C 14.67053031921387 22.24416160583496 14.53343963623047 22.19992256164551 14.39021015167236 22.19991111755371 M 12.73939990997314 27.95990180969238 L 11.62634944915771 26.28987121582031 L 12.29255962371826 24.29208183288574 L 13.71222972869873 23.81851196289062 L 13.71222972869873 26.98754119873047 L 12.73939990997314 27.95990180969238 M 14.39022350311279 21.99991607666016 C 14.57219696044922 21.99992561340332 14.75221729278564 22.05650520324707 14.90359020233154 22.16559219360352 C 15.13261032104492 22.33062171936035 15.26832008361816 22.5956916809082 15.26832008361816 22.87803268432617 L 15.26832008361816 27.26826095581055 C 15.26826953887939 27.50112152099609 15.17572975158691 27.72442245483398 15.0110502243042 27.88904190063477 L 13.2548303604126 29.64527130126953 C 13.06969928741455 29.83036804199219 12.80783557891846 29.9250659942627 12.54761028289795 29.89775276184082 C 12.28588008880615 29.87207221984863 12.04948997497559 29.73026275634766 11.90365028381348 29.51141166687012 L 10.14756011962891 26.87727165222168 C 9.997429847717285 26.65169143676758 9.959779739379883 26.36945152282715 10.04553031921387 26.11241149902344 L 10.92356967926025 23.47826194763184 C 11.01054000854492 23.21604156494141 11.21617031097412 23.01025199890137 11.47832012176514 22.92308235168457 L 14.11246013641357 22.0450325012207 C 14.20320129394531 22.01476860046387 14.29695129394531 21.99991226196289 14.39022350311279 21.99991607666016 Z M 12.77054023742676 27.6460018157959 L 13.51222991943359 26.90467262268066 L 13.51222991943359 24.09606170654297 L 12.45067024230957 24.45017242431641 L 11.84702014923096 26.26035118103027 L 12.77054023742676 27.6460018157959 Z" stroke="none" fill="#fff"/>
        </g>
        <g id="Path_43909" data-name="Path 43909" transform="translate(-4.317 -9.659)" fill="#007c3d">
          <path d="M 34.17068862915039 37.65608596801758 L 21.87804794311523 37.65608596801758 C 21.44902801513672 37.65608596801758 21.09999847412109 37.30705261230469 21.09999847412109 36.87804412841797 C 21.09999847412109 36.44903564453125 21.44902801513672 36.10000228881836 21.87804794311523 36.10000228881836 L 34.17068862915039 36.10000228881836 C 34.59969711303711 36.10000228881836 34.94872665405273 36.44903564453125 34.94872665405273 36.87804412841797 C 34.94872665405273 37.30705261230469 34.59969711303711 37.65608596801758 34.17068862915039 37.65608596801758 Z" stroke="none"/>
          <path d="M 21.87804794311523 36.20000457763672 C 21.50416564941406 36.20000457763672 21.19999694824219 36.50417327880859 21.19999694824219 36.87804412841797 C 21.19999694824219 37.25191497802734 21.50416564941406 37.55608367919922 21.87804794311523 37.55608367919922 L 34.17069625854492 37.55608367919922 C 34.5445671081543 37.55608367919922 34.84873580932617 37.25191497802734 34.84873580932617 36.87804412841797 C 34.84873580932617 36.50417327880859 34.5445671081543 36.20000457763672 34.17069625854492 36.20000457763672 L 21.87804794311523 36.20000457763672 M 21.87804794311523 36.00000381469727 L 34.17069625854492 36.00000381469727 C 34.65562438964844 36.00000381469727 35.04873657226562 36.39312362670898 35.04873657226562 36.87804412841797 C 35.04873657226562 37.36297225952148 34.65562438964844 37.75608444213867 34.17069625854492 37.75608444213867 L 21.87804794311523 37.75608444213867 C 21.39311599731445 37.75608444213867 20.99999618530273 37.36297225952148 20.99999618530273 36.87804412841797 C 20.99999618530273 36.39312362670898 21.39311599731445 36.00000381469727 21.87804794311523 36.00000381469727 Z" stroke="none" fill="#fff"/>
        </g>
        <g id="Path_43911" data-name="Path 43911" transform="translate(-4.195 -7.829)" fill="#007c3d">
          <path d="M 23.51218414306641 22.65609741210938 L 20.87804412841797 22.65609741210938 C 20.44902420043945 22.65609741210938 20.09999465942383 22.30706787109375 20.09999465942383 21.87804794311523 C 20.09999465942383 21.44902801513672 20.44902420043945 21.09999847412109 20.87804412841797 21.09999847412109 L 23.51218414306641 21.09999847412109 C 23.94120407104492 21.09999847412109 24.29023361206055 21.44902801513672 24.29023361206055 21.87804794311523 C 24.29023361206055 22.30706787109375 23.94120407104492 22.65609741210938 23.51218414306641 22.65609741210938 Z" stroke="none"/>
          <path d="M 20.87804412841797 21.19999885559082 C 20.50416374206543 21.19999885559082 20.19999504089355 21.5041675567627 20.19999504089355 21.87804794311523 C 20.19999504089355 22.25192832946777 20.50416374206543 22.55609703063965 20.87804412841797 22.55609703063965 L 23.51218414306641 22.55609703063965 C 23.88606452941895 22.55609703063965 24.19023323059082 22.25192832946777 24.19023323059082 21.87804794311523 C 24.19023323059082 21.5041675567627 23.88606452941895 21.19999885559082 23.51218414306641 21.19999885559082 L 20.87804412841797 21.19999885559082 M 20.87804412841797 20.99999809265137 L 23.51218414306641 20.99999809265137 C 23.99711418151855 20.99999809265137 24.39023399353027 21.39311790466309 24.39023399353027 21.87804794311523 C 24.39023399353027 22.36297798156738 23.99711418151855 22.7560977935791 23.51218414306641 22.7560977935791 L 20.87804412841797 22.7560977935791 C 20.39311408996582 22.7560977935791 19.9999942779541 22.36297798156738 19.9999942779541 21.87804794311523 C 19.9999942779541 21.39311790466309 20.39311408996582 20.99999809265137 20.87804412841797 20.99999809265137 Z" stroke="none" fill="#fff"/>
        </g>
        <g id="Path_43912" data-name="Path 43912" transform="translate(-6.024 -8.805)" fill="#007c3d">
          <path d="M 38.51219177246094 30.65609741210938 L 35.8780517578125 30.65609741210938 C 35.44903182983398 30.65609741210938 35.10000228881836 30.30706787109375 35.10000228881836 29.87804794311523 C 35.10000228881836 29.44902801513672 35.44903182983398 29.09999847412109 35.8780517578125 29.09999847412109 L 38.51219177246094 29.09999847412109 C 38.94120025634766 29.09999847412109 39.29023361206055 29.44902801513672 39.29023361206055 29.87804794311523 C 39.29023361206055 30.30706787109375 38.94120025634766 30.65609741210938 38.51219177246094 30.65609741210938 Z" stroke="none"/>
          <path d="M 35.8780517578125 29.19999885559082 C 35.50417327880859 29.19999885559082 35.20000076293945 29.5041675567627 35.20000076293945 29.87804794311523 C 35.20000076293945 30.25192832946777 35.50417327880859 30.55609703063965 35.8780517578125 30.55609703063965 L 38.51219177246094 30.55609703063965 C 38.88606262207031 30.55609703063965 39.19023132324219 30.25192832946777 39.19023132324219 29.87804794311523 C 39.19023132324219 29.5041675567627 38.88606262207031 29.19999885559082 38.51219177246094 29.19999885559082 L 35.8780517578125 29.19999885559082 M 35.8780517578125 28.99999809265137 L 38.51219177246094 28.99999809265137 C 38.99711227416992 28.99999809265137 39.39023208618164 29.39311790466309 39.39023208618164 29.87804794311523 C 39.39023208618164 30.36297798156738 38.99711227416992 30.7560977935791 38.51219177246094 30.7560977935791 L 35.8780517578125 30.7560977935791 C 35.39311218261719 30.7560977935791 35 30.36297798156738 35 29.87804794311523 C 35 29.39311790466309 35.39311218261719 28.99999809265137 35.8780517578125 28.99999809265137 Z" stroke="none" fill="#fff"/>
        </g>
      </g>
      <path id="Path_43913" data-name="Path 43913" d="M50.488,46.991a.5.5,0,0,1,.5.5h1A1.5,1.5,0,0,0,50.488,46V45h-1v1H48v1.493a1.5,1.5,0,0,0,1.493,1.493h1a.5.5,0,0,1,.5.5v.5H49.493a.5.5,0,0,1-.5-.5H48a1.5,1.5,0,0,0,1.493,1.493v1h1v-1h1.493V49.479a1.5,1.5,0,0,0-1.493-1.493h-1a.5.5,0,0,1-.5-.5v-.5Z" transform="translate(-24.99 -31.327)" fill="#007c3d"/>
    </g>
  </g>
</svg>
