<svg xmlns="http://www.w3.org/2000/svg" width="32" height="32" viewBox="0 0 32 32">
  <g id="Group_40230" data-name="Group 40230" transform="translate(-45 -652)">
    <rect id="Rectangle_18710" data-name="Rectangle 18710" width="32" height="32" transform="translate(45 652)" fill="#fff" opacity="0"/>
    <g id="noun_deposit_2254220" transform="translate(48.206 654.471)">
      <g id="Group_40228" data-name="Group 40228" transform="translate(0.794 0.529)">
        <path id="Path_44103" data-name="Path 44103" d="M.794,289.062v22.286H24.937V289.062Zm1.857,1.857H23.079v2.786H20.294v1.857h2.786v9.286H20.294v1.857h2.786v2.786H2.651Zm8.357,2.786a6.5,6.5,0,1,0,6.5,6.5A6.514,6.514,0,0,0,11.008,293.705Zm-.929,1.95v1.939A2.8,2.8,0,0,0,8.4,299.277H6.458a4.623,4.623,0,0,1,3.622-3.622Zm1.857,0a4.623,4.623,0,0,1,3.622,3.622H13.62a2.8,2.8,0,0,0-1.683-1.683Zm-.929,3.622a.929.929,0,1,1-.929.929A.915.915,0,0,1,11.008,299.277Zm-4.55,1.857H8.4a2.8,2.8,0,0,0,1.683,1.683v1.939A4.623,4.623,0,0,1,6.458,301.134Zm7.162,0h1.939a4.623,4.623,0,0,1-3.622,3.622v-1.939a2.8,2.8,0,0,0,1.683-1.683ZM2.651,313.205v1.857H8.222v-1.857Zm14.857,0v1.857h5.571v-1.857Z" transform="translate(-0.794 -289.062)" fill="#007c3d" stroke="#fff" stroke-width="0.5"/>
      </g>
    </g>
  </g>
</svg>
