<svg xmlns="http://www.w3.org/2000/svg" xmlns:xlink="http://www.w3.org/1999/xlink" width="176.541" height="169.83" viewBox="0 0 176.541 169.83">
  <defs>
    <linearGradient id="linear-gradient" x1="-1.818" y1="0.097" x2="-1.46" y2="2.512" gradientUnits="objectBoundingBox">
      <stop offset="0" stop-color="#ff9085"/>
      <stop offset="1" stop-color="#fb6fbb"/>
    </linearGradient>
    <clipPath id="clip-path">
      <path id="Path_31293" data-name="Path 31293" d="M1998.4,1696.067c.013,6.572-.244,13.26-.267,19.878,3.464,1.436,7.574,3.04,9.772-1.079,3.056-5.728,14.368-4.666,19.392-3.179,6.218,1.84,20.027,4.569,20-4.966-.022-7.938-3.184-12.82,6.318-14.766s14.717-7.142,13.4-15.922c-1.388-9.239,9.9-17.511,3.848-25.078-10.545-13.185-28.083,6.719-31.287,19.68s-9.251,7.984-18.21,7.848c-12.23-.186-6.067,13.149-11.76,16.783C2005.138,1698.113,2002.837,1696.588,1998.4,1696.067Z" transform="translate(-1998.13 -1646.62)" fill="none"/>
    </clipPath>
    <clipPath id="clip-path-2">
      <path id="Path_31302" data-name="Path 31302" d="M2004.114,1070.784q-8.6-3.035-17.131-6.448c-.1.062-.807-12.405,5.823-17.49,13.085-9.8,6.187-22.467,4.556-29.463-2.734-9.955.247-20.745,10.64-16.45,10.148,3.947,13.735-16.044,13.508-32.067-.764-7.934,7.677-15.615,15.393-16.169,7.9-.749,15.066,5.629,15.9,21.3,1.8,18.318-12.682,26.132-18.53,33.915-5.752,7.637,4.932,17-4.99,22.767-8.382,5.213-18.58,8.094-15.878,17.389C2016.212,1057.285,2014.651,1064.021,2004.114,1070.784Z" transform="translate(-1986.912 -952.638)" fill="none"/>
    </clipPath>
    <linearGradient id="linear-gradient-2" x1="2.607" y1="0.655" x2="2.02" y2="1.588" gradientUnits="objectBoundingBox">
      <stop offset="0" stop-color="#aa80f9"/>
      <stop offset="0.996" stop-color="#6165d7"/>
    </linearGradient>
    <linearGradient id="linear-gradient-3" y1="0.5" x2="1" y2="0.5" gradientUnits="objectBoundingBox">
      <stop offset="0" stop-color="#444b8c"/>
      <stop offset="0.996" stop-color="#26264f"/>
    </linearGradient>
    <linearGradient id="linear-gradient-4" x1="7.268" y1="-2.41" x2="7.448" y2="2.649" gradientUnits="objectBoundingBox">
      <stop offset="0.004" stop-color="#26264f"/>
      <stop offset="1" stop-color="#444b8c"/>
    </linearGradient>
    <linearGradient id="linear-gradient-5" x1="26.147" y1="1.152" x2="26.025" y2="-5.07" gradientUnits="objectBoundingBox">
      <stop offset="0" stop-color="#893976"/>
      <stop offset="1" stop-color="#311944"/>
    </linearGradient>
    <linearGradient id="linear-gradient-6" x1="11.192" y1="-1.485" x2="11.476" y2="1.472" xlink:href="#linear-gradient-4"/>
    <linearGradient id="linear-gradient-7" x1="18.71" y1="1.353" x2="18.624" y2="-3.032" xlink:href="#linear-gradient-5"/>
    <linearGradient id="linear-gradient-8" x1="0" y1="0.5" x2="1" y2="0.5" xlink:href="#linear-gradient"/>
    <linearGradient id="linear-gradient-11" x1="0.227" y1="-0.53" x2="0.608" y2="-0.074" xlink:href="#linear-gradient-4"/>
    <linearGradient id="linear-gradient-12" x1="0.285" y1="-0.393" x2="0.82" y2="0.838" gradientUnits="objectBoundingBox">
      <stop offset="0" stop-color="#ffc444"/>
      <stop offset="0.996" stop-color="#f36f56"/>
    </linearGradient>
    <linearGradient id="linear-gradient-13" x1="0.715" y1="-0.516" x2="0.31" y2="0.082" gradientUnits="objectBoundingBox">
      <stop offset="0.004" stop-color="#6165d7"/>
      <stop offset="1" stop-color="#aa80f9"/>
    </linearGradient>
    <linearGradient id="linear-gradient-14" x1="1.014" y1="-0.572" x2="-0.03" y2="-0.074" xlink:href="#linear-gradient-2"/>
    <linearGradient id="linear-gradient-15" x1="1.103" y1="-9.612" x2="0.693" y2="-6.584" xlink:href="#linear-gradient-4"/>
    <linearGradient id="linear-gradient-16" x1="1.398" y1="-0.672" x2="-0.097" y2="-0.146" xlink:href="#linear-gradient-2"/>
    <linearGradient id="linear-gradient-17" x1="0.324" y1="-4.241" x2="1.35" y2="-4.241" xlink:href="#linear-gradient-5"/>
    <linearGradient id="linear-gradient-18" x1="0.138" y1="-0.578" x2="0.788" y2="0.821" xlink:href="#linear-gradient-12"/>
    <linearGradient id="linear-gradient-19" x1="0.17" y1="-0.697" x2="1.474" y2="1.676" gradientUnits="objectBoundingBox">
      <stop offset="0" stop-color="#ffc444"/>
      <stop offset="0.247" stop-color="#fcaf48"/>
      <stop offset="0.996" stop-color="#f36f56"/>
    </linearGradient>
    <linearGradient id="linear-gradient-20" x1="2.191" y1="1.31" x2="2.881" y2="-0.449" xlink:href="#linear-gradient-5"/>
    <linearGradient id="linear-gradient-21" x1="6.215" y1="1.177" x2="9.917" y2="-0.797" xlink:href="#linear-gradient-5"/>
    <linearGradient id="linear-gradient-22" x1="0.319" y1="-0.013" x2="0.693" y2="0.811" xlink:href="#linear-gradient-5"/>
    <linearGradient id="linear-gradient-23" x1="-0.085" y1="0.5" x2="1.065" y2="0.5" gradientUnits="objectBoundingBox">
      <stop offset="0" stop-color="#f57e53"/>
      <stop offset="0.005" stop-color="#f58152"/>
      <stop offset="0.042" stop-color="#f8994d"/>
      <stop offset="0.084" stop-color="#fbac49"/>
      <stop offset="0.133" stop-color="#fdb946"/>
      <stop offset="0.196" stop-color="#fec144"/>
      <stop offset="0.318" stop-color="#ffc444"/>
      <stop offset="0.455" stop-color="#fdb946"/>
      <stop offset="0.694" stop-color="#f99c4c"/>
      <stop offset="0.996" stop-color="#f36f56"/>
    </linearGradient>
    <linearGradient id="linear-gradient-24" x1="0.495" y1="0.179" x2="0.556" y2="4.091" gradientUnits="objectBoundingBox">
      <stop offset="0" stop-color="#ffdb44"/>
      <stop offset="1" stop-color="#feef06"/>
    </linearGradient>
    <linearGradient id="linear-gradient-25" x1="0.492" y1="-0.777" x2="0.511" y2="1.295" xlink:href="#linear-gradient-24"/>
    <linearGradient id="linear-gradient-26" x1="-0.119" y1="-41.607" x2="-0.1" y2="-39.175" gradientUnits="objectBoundingBox">
      <stop offset="0.004" stop-color="#f36f56"/>
      <stop offset="0.306" stop-color="#f99c4c"/>
      <stop offset="0.545" stop-color="#fdb946"/>
      <stop offset="0.682" stop-color="#ffc444"/>
      <stop offset="0.804" stop-color="#fec144"/>
      <stop offset="0.867" stop-color="#fdb946"/>
      <stop offset="0.916" stop-color="#fbac49"/>
      <stop offset="0.958" stop-color="#f8994d"/>
      <stop offset="0.995" stop-color="#f58152"/>
      <stop offset="1" stop-color="#f57e53"/>
    </linearGradient>
    <linearGradient id="linear-gradient-30" x1="0.163" y1="-37.96" x2="0.181" y2="-35.528" xlink:href="#linear-gradient-26"/>
    <linearGradient id="linear-gradient-34" x1="-0.081" y1="-34.325" x2="-0.062" y2="-31.894" xlink:href="#linear-gradient-26"/>
    <linearGradient id="linear-gradient-38" x1="-0.228" y1="-30.679" x2="-0.209" y2="-28.248" xlink:href="#linear-gradient-26"/>
    <linearGradient id="linear-gradient-42" x1="-0.119" y1="-26.746" x2="-0.1" y2="-24.314" xlink:href="#linear-gradient-26"/>
    <linearGradient id="linear-gradient-46" x1="0.163" y1="-23.1" x2="0.181" y2="-20.668" xlink:href="#linear-gradient-26"/>
    <linearGradient id="linear-gradient-50" x1="-0.081" y1="-19.465" x2="-0.062" y2="-17.033" xlink:href="#linear-gradient-26"/>
    <linearGradient id="linear-gradient-54" x1="0.046" y1="-15.818" x2="0.065" y2="-13.387" xlink:href="#linear-gradient-26"/>
    <linearGradient id="linear-gradient-55" x1="0.618" y1="-0.405" x2="2.323" y2="-0.405" xlink:href="#linear-gradient-23"/>
    <linearGradient id="linear-gradient-56" x1="1.539" y1="-0.592" x2="1.642" y2="0.028" xlink:href="#linear-gradient-24"/>
    <linearGradient id="linear-gradient-57" x1="1.537" y1="-0.618" x2="1.568" y2="-0.428" xlink:href="#linear-gradient-24"/>
    <linearGradient id="linear-gradient-58" x1="-4.616" y1="-0.978" x2="-4.584" y2="-0.785" xlink:href="#linear-gradient-26"/>
    <linearGradient id="linear-gradient-59" x1="-13.554" y1="-2.962" x2="-12.413" y2="-2.962" gradientUnits="objectBoundingBox">
      <stop offset="0" stop-color="#40447e"/>
      <stop offset="0.996" stop-color="#3c3b6b"/>
    </linearGradient>
    <linearGradient id="linear-gradient-60" x1="17.395" y1="-12.999" x2="51.777" y2="13.614" xlink:href="#linear-gradient-12"/>
    <linearGradient id="linear-gradient-61" x1="0.632" y1="-0.174" x2="1.901" y2="0.838" gradientUnits="objectBoundingBox">
      <stop offset="0" stop-color="#311944"/>
      <stop offset="1" stop-color="#a03976"/>
    </linearGradient>
    <linearGradient id="linear-gradient-62" x1="-0.897" y1="0.5" x2="0.103" y2="0.5" xlink:href="#linear-gradient-61"/>
    <linearGradient id="linear-gradient-63" x1="0.887" y1="0.891" x2="4.381" y2="-0.074" gradientUnits="objectBoundingBox">
      <stop offset="0" stop-color="#311944"/>
      <stop offset="1" stop-color="#893976"/>
    </linearGradient>
    <linearGradient id="linear-gradient-64" x1="4.415" y1="1.788" x2="3.107" y2="0.456" xlink:href="#linear-gradient-2"/>
    <linearGradient id="linear-gradient-65" x1="0.255" y1="-1.426" x2="0.753" y2="-0.667" xlink:href="#linear-gradient-2"/>
    <linearGradient id="linear-gradient-66" x1="1.699" y1="0.902" x2="1.473" y2="0.081" xlink:href="#linear-gradient-2"/>
    <linearGradient id="linear-gradient-67" x1="3.415" y1="0.61" x2="6.775" y2="-1.562" xlink:href="#linear-gradient-12"/>
    <linearGradient id="linear-gradient-68" x1="2.037" y1="1.357" x2="1.448" y2="0.3" xlink:href="#linear-gradient-2"/>
    <linearGradient id="linear-gradient-69" x1="7.933" y1="1.432" x2="8.057" y2="-0.175" xlink:href="#linear-gradient-12"/>
    <linearGradient id="linear-gradient-70" x1="-7.055" y1="1.603" x2="-7.862" y2="-0.224" gradientUnits="objectBoundingBox">
      <stop offset="0" stop-color="#311944"/>
      <stop offset="1" stop-color="#6b3976"/>
    </linearGradient>
    <linearGradient id="linear-gradient-71" x1="4.563" y1="0.25" x2="4.527" y2="3.419" xlink:href="#linear-gradient-12"/>
    <linearGradient id="linear-gradient-72" x1="1.377" y1="0.248" x2="2.234" y2="0.248" xlink:href="#linear-gradient-59"/>
    <linearGradient id="linear-gradient-73" x1="-4.113" y1="1.614" x2="-3.12" y2="1.614" xlink:href="#linear-gradient-59"/>
    <linearGradient id="linear-gradient-74" x1="19.058" y1="-6.901" x2="82.242" y2="52.319" xlink:href="#linear-gradient-12"/>
    <linearGradient id="linear-gradient-75" x1="-0.289" y1="-0.089" x2="4.547" y2="-0.743" xlink:href="#linear-gradient-61"/>
    <linearGradient id="linear-gradient-76" x1="0.036" y1="-3.05" x2="-0.218" y2="1.224" xlink:href="#linear-gradient-61"/>
    <linearGradient id="linear-gradient-77" x1="0.925" y1="0.568" x2="2.128" y2="-0.901" xlink:href="#linear-gradient"/>
    <linearGradient id="linear-gradient-78" x1="0.453" y1="1.209" x2="0.493" y2="0.605" xlink:href="#linear-gradient-4"/>
    <linearGradient id="linear-gradient-79" x1="0.341" y1="0.939" x2="0.642" y2="-0.276" xlink:href="#linear-gradient-4"/>
    <linearGradient id="linear-gradient-80" x1="0" y1="0.5" x2="1" y2="0.5" xlink:href="#linear-gradient-4"/>
    <linearGradient id="linear-gradient-81" x1="0.384" y1="1.047" x2="0.649" y2="-0.416" xlink:href="#linear-gradient-4"/>
    <linearGradient id="linear-gradient-84" x1="0.475" y1="1.004" x2="0.576" y2="-0.995" xlink:href="#linear-gradient-4"/>
    <linearGradient id="linear-gradient-85" x1="0.429" y1="0.313" x2="1.075" y2="1.164" gradientUnits="objectBoundingBox">
      <stop offset="0" stop-color="#fcb148"/>
      <stop offset="0.052" stop-color="#fdb946"/>
      <stop offset="0.142" stop-color="#fec144"/>
      <stop offset="0.318" stop-color="#ffc444"/>
      <stop offset="0.485" stop-color="#fdb946"/>
      <stop offset="0.775" stop-color="#f99c4c"/>
      <stop offset="0.866" stop-color="#f8924f"/>
      <stop offset="1" stop-color="#f8924f"/>
    </linearGradient>
    <linearGradient id="linear-gradient-86" x1="-0.641" y1="0.986" x2="0.67" y2="0.427" gradientUnits="objectBoundingBox">
      <stop offset="0.494" stop-color="#ebeff2"/>
      <stop offset="1" stop-color="#fff"/>
    </linearGradient>
    <linearGradient id="linear-gradient-87" x1="-0.788" y1="1.049" x2="0.523" y2="0.49" xlink:href="#linear-gradient-86"/>
    <linearGradient id="linear-gradient-88" x1="-0.573" y1="10.266" x2="0.045" y2="4.833" xlink:href="#linear-gradient-86"/>
    <linearGradient id="linear-gradient-89" x1="0.546" y1="0.061" x2="0.39" y2="1.002" xlink:href="#linear-gradient-85"/>
  </defs>
  <g id="Group_39805" data-name="Group 39805" transform="translate(-392.047 -431.718)">
    <path id="Path_31286" data-name="Path 31286" d="M552.975,596.209c3.376-37.457-36.039-49.468-63.457-39.222-27.64,10.329-34.558-5.491-73.675.043-39.609,5.6-17.813,62.942-17.813,62.942s7.732,50.136,15.872,73.133c8.1,22.872,79.18,12.77,96.509,11.654,17.23-1.11,32.255-.16,46.553-25.846C571.237,653.274,549.61,633.542,552.975,596.209Z" transform="translate(0 -114.392)" fill="#f4f7fa"/>
    <g id="Group_39753" data-name="Group 39753" transform="translate(489.352 505.323)">
      <g id="Group_39752" data-name="Group 39752">
        <path id="Path_31287" data-name="Path 31287" d="M2029.262,1715.811a7.883,7.883,0,0,1-2.606-2.651c-1.46-3.949-4.675-11.167-3.062-15.316.276-.709,3.72-.338,4.386-.855,2.253-.3,3.053-.26,5.057-1.594,5.916-3.94-.471-16.98,11.82-16.875,9,.077,15,5.121,18.216-7.856s20.742-32.862,31.29-19.684c6.053,7.563-5.238,15.839-3.848,25.078,1.321,8.779-3.9,13.974-13.4,15.922s-6.335,6.824-6.318,14.768c.02,9.542-13.76,6.787-20.013,4.972C2045.751,1710.258,2031.942,1709.934,2029.262,1715.811Z" transform="translate(-2021.636 -1646.645)" fill="url(#linear-gradient)"/>
        <g id="Group_39751" data-name="Group 39751">
          <g id="Group_39750" data-name="Group 39750" clip-path="url(#clip-path)">
            <g id="Group_39749" data-name="Group 39749" transform="translate(3.454 -2.478)">
              <path id="Path_31288" data-name="Path 31288" d="M2055.169,1695.365l-.032-.225A77.756,77.756,0,0,0,2097,1675.1a94.012,94.012,0,0,0,25.066-39.685l.216.072a94.237,94.237,0,0,1-25.128,39.781A77.982,77.982,0,0,1,2055.169,1695.365Z" transform="translate(-2055.137 -1633.617)" fill="#fcfdfe"/>
              <path id="Path_31289" data-name="Path 31289" d="M2370.23,2553.923c-6.924-5.038-19.853-9.285-28.822-9.467l0-.228c9.008.183,22,4.449,28.951,9.51Z" transform="translate(-2324.065 -2487.369)" fill="#fcfdfe"/>
              <path id="Path_31290" data-name="Path 31290" d="M2154.558,2178.2l-.093-.208c4.251-1.91,7.373-5.9,9.28-11.848a53.068,53.068,0,0,0,2.153-15.756h.228a53.281,53.281,0,0,1-2.164,15.824C2162.035,2172.227,2158.871,2176.259,2154.558,2178.2Z" transform="translate(-2148.447 -2117.386)" fill="#fcfdfe"/>
              <path id="Path_31291" data-name="Path 31291" d="M2772.417,2222.954l-.1-.2c7.838-4.017,17.018-2.806,23.339-1.084l-.06.22C2789.31,2220.176,2780.189,2218.971,2772.417,2222.954Z" transform="translate(-2728.862 -2182.837)" fill="#fcfdfe"/>
              <path id="Path_31292" data-name="Path 31292" d="M2967.061,1630.277l-.211-.085c1.6-3.944,3.589-12.358-.987-24.394l.213-.081C2970.679,1617.825,2968.668,1626.3,2967.061,1630.277Z" transform="translate(-2910.686 -1605.717)" fill="#fcfdfe"/>
            </g>
          </g>
        </g>
      </g>
    </g>
    <g id="Group_39757" data-name="Group 39757" transform="translate(488.673 463.278)">
      <g id="Group_39756" data-name="Group 39756" transform="translate(0 0)">
        <g id="Group_39755" data-name="Group 39755" clip-path="url(#clip-path-2)">
          <path id="Path_31294" data-name="Path 31294" d="M2004.114,1070.784q-8.6-3.035-17.131-6.448c-.1.062-.807-12.405,5.823-17.49,13.085-9.8,6.187-22.467,4.556-29.463-2.7-9.94.191-19.5,9.994-17.613,10.893,1.888,14.569-14.875,14.154-30.9-.764-7.934,7.677-15.615,15.393-16.169,7.9-.749,15.066,5.629,15.9,21.3,1.8,18.318-12.682,26.132-18.53,33.915-5.752,7.637,4.932,17-4.99,22.767-8.382,5.213-18.58,8.094-15.878,17.389C2016.212,1057.285,2014.651,1064.021,2004.114,1070.784Z" transform="translate(-1986.912 -952.638)" fill="url(#linear-gradient-2)"/>
          <g id="Group_39754" data-name="Group 39754" transform="translate(4.38 -4.661)">
            <path id="Path_31295" data-name="Path 31295" d="M2137.659,997.607l-.245-.03a347.426,347.426,0,0,1,20.124-47.088c1.72-3.727,3.558-7.465,5.336-11.08,4.759-9.679,9.681-19.688,12.577-30.069a66.664,66.664,0,0,0,1.068-33.578l.24-.055a66.9,66.9,0,0,1-1.071,33.7c-2.9,10.4-7.829,20.422-12.594,30.111-1.777,3.614-3.615,7.351-5.336,11.081A348.994,348.994,0,0,0,2137.659,997.607Z" transform="translate(-2132.676 -875.708)" fill="#beb8f2"/>
            <path id="Path_31296" data-name="Path 31296" d="M2703.115,1280.381l-.151-.2c7.162-5.533,15.95-13.685,20.672-18.064,3.8-3.528,3.825-3.523,3.966-3.472l-.042.116.029.117c-.189.084-1.776,1.556-3.785,3.42C2719.079,1266.685,2710.285,1274.842,2703.115,1280.381Z" transform="translate(-2663.961 -1235.439)" fill="#beb8f2"/>
            <path id="Path_31297" data-name="Path 31297" d="M2580.429,1100.469c-1.04-15.25-10.327-23.253-11.114-23.5a.1.1,0,0,0,.061-.006l-.093-.229c.069-.028.139,0,.251.073,1.975,1.234,10.164,9.319,11.141,23.646Z" transform="translate(-2538.379 -1064.544)" fill="#beb8f2"/>
            <path id="Path_31298" data-name="Path 31298" d="M2180.978,1744.9l-.24-.055c1.642-7.142.638-15.4-2.985-24.548a79.344,79.344,0,0,0-7.539-14.316c-.226-.343-.3-.464-.328-.516l.225-.1c.017.038.146.234.309.481a79.609,79.609,0,0,1,7.563,14.361C2181.624,1729.4,2182.632,1737.711,2180.978,1744.9Z" transform="translate(-2163.179 -1655.102)" fill="#beb8f2"/>
            <path id="Path_31299" data-name="Path 31299" d="M2405.891,2124.906l-.187-.161c8.007-9.276,22.815-7.01,22.935-6.954l.07.132-.109.1-.013-.121-.035.116C2428.415,2117.987,2413.837,2115.7,2405.891,2124.906Z" transform="translate(-2384.711 -2042.272)" fill="#beb8f2"/>
            <path id="Path_31300" data-name="Path 31300" d="M2065.568,2534.537l-.245-.034c.44-3.167-.214-8.856-5.827-17.981-.3-.5-.3-.5-.288-.561l.239.062-.12-.031.117-.035c.015.036.129.221.261.437C2065.359,2525.58,2066.014,2531.331,2065.568,2534.537Z" transform="translate(-2059.203 -2416.581)" fill="#beb8f2"/>
            <path id="Path_31301" data-name="Path 31301" d="M2194.957,2590.88l-.227-.1c.98-2.281,4.357-6.446,15.963-8.718.16-.031.262-.051.3-.061l.064.239c-.039.01-.147.032-.316.065C2199.246,2584.557,2195.918,2588.644,2194.957,2590.88Z" transform="translate(-2186.519 -2478.627)" fill="#beb8f2"/>
          </g>
        </g>
      </g>
    </g>
    <g id="Group_39767" data-name="Group 39767" transform="translate(421.248 431.718)">
      <path id="Path_31303" data-name="Path 31303" d="M981.392,663.96l-102.862-6.273c-2.369-.122-4.5,2.6-4.5,4.892V802.207c0,3.174,3.075,3.812,5.444,3.557l101.919-10.973a4.009,4.009,0,0,0,3.365-4.012v-123A3.741,3.741,0,0,0,981.392,663.96Z" transform="translate(-874.029 -643.993)" fill="#97a6b7"/>
      <path id="Path_31304" data-name="Path 31304" d="M1009.316,660.011l-103.065-5.345a3.987,3.987,0,0,0-4.3,3.953V799.339a3.734,3.734,0,0,0,4.3,3.709l103.065-11.183a4.031,4.031,0,0,0,3.365-4.043V663.864A3.759,3.759,0,0,0,1009.316,660.011Z" transform="translate(-900.261 -641.153)" fill="#d8dee8"/>
      <path id="Path_31305" data-name="Path 31305" d="M936.928,830.776a2.022,2.022,0,0,1-2.32-2.007V688.349a2.159,2.159,0,0,1,2.32-2.138l103.065,5.132a2.035,2.035,0,0,1,1.823,2.084V817.618a2.182,2.182,0,0,1-1.823,2.187Z" transform="translate(-930.938 -670.789)" fill="#fff" opacity="0.74"/>
      <path id="Path_31306" data-name="Path 31306" d="M1197.561,966.44l-88.152,8.953V845.844l88.152,3.5Z" transform="translate(-1095.148 -820.754)" fill="#fff"/>
      <path id="Path_31307" data-name="Path 31307" d="M1436.185,700.013l-35.23.465.79-8.376a2.232,2.232,0,0,1,1.789-2.141L1409.5,689a2.166,2.166,0,0,0,1.614-1.306l.647-1.481,15.606,1.016Z" transform="translate(-1369.031 -670.79)" fill="#97a6b7" opacity="0.3" style="mix-blend-mode: multiply;isolation: isolate"/>
      <path id="Path_31308" data-name="Path 31308" d="M1455,455.508a1.921,1.921,0,0,0-1.795-1.656l-5.629-.266a4.677,4.677,0,0,1-4.334-5.081l.217-6.423a2.047,2.047,0,0,0-1.87-2.209l-1.849-.116a2.443,2.443,0,0,1-2.152-2.915,4.353,4.353,0,0,0-3.87-5.113,5.144,5.144,0,0,0-5.236,4.527,3.088,3.088,0,0,1-.391,1.144,2.859,2.859,0,0,1-2.6,1.461l-1.908-.12a2.55,2.55,0,0,0-2.547,1.986l-1.586,6.519a6.109,6.109,0,0,1-6.022,4.727l-6.175-.292a2.666,2.666,0,0,0-2.47,1.548l-3.721,7.784a.9.9,0,0,0,.735,1.349l53.552,1.875a1.032,1.032,0,0,0,.975-1.208Zm-22.043-18.22a1.277,1.277,0,0,1-1.142-1.51,1.507,1.507,0,0,1,1.53-1.331,1.277,1.277,0,0,1,1.138,1.51A1.508,1.508,0,0,1,1432.957,437.288Z" transform="translate(-1369.032 -431.718)" fill="url(#linear-gradient-3)"/>
      <path id="Path_31309" data-name="Path 31309" d="M1460.234,458.381a1.921,1.921,0,0,0-1.795-1.656l-5.63-.266a4.677,4.677,0,0,1-4.334-5.081l.217-6.423a2.047,2.047,0,0,0-1.87-2.209l-1.85-.116a2.443,2.443,0,0,1-2.151-2.915,4.353,4.353,0,0,0-3.87-5.113,5.145,5.145,0,0,0-5.236,4.527,3.089,3.089,0,0,1-.391,1.144,2.858,2.858,0,0,1-2.6,1.461l-1.908-.12a2.549,2.549,0,0,0-2.547,1.986l-1.587,6.52a6.109,6.109,0,0,1-6.022,4.727l-6.175-.292a2.666,2.666,0,0,0-2.47,1.548l-3.721,7.784a.9.9,0,0,0,.735,1.349l53.552,1.875a1.033,1.033,0,0,0,.976-1.208Zm-22.042-18.22a1.277,1.277,0,0,1-1.142-1.51,1.508,1.508,0,0,1,1.53-1.331,1.277,1.277,0,0,1,1.138,1.51A1.508,1.508,0,0,1,1438.192,440.161Z" transform="translate(-1373.95 -434.417)" fill="#97a6b7"/>
      <g id="Group_39758" data-name="Group 39758" transform="translate(32.241 10.265)">
        <path id="Path_31310" data-name="Path 31310" d="M1451.07,618.422c-4.777-3.109-8.442-.9-11.42-4.411-3.187-3.753-1.037-8.695-4.335-11.026-2.111-1.493-3.995-.176-6.45-.58a6.588,6.588,0,0,1-2.856-1.259l-1.323,5.437a6.11,6.11,0,0,1-6.022,4.727l-6.175-.292a2.666,2.666,0,0,0-2.47,1.548l-3.721,7.784a.9.9,0,0,0,.735,1.349l48.668,1.7A14.96,14.96,0,0,0,1451.07,618.422Z" transform="translate(-1406.191 -601.146)" fill="#fff" opacity="0.5" style="mix-blend-mode: soft-light;isolation: isolate"/>
      </g>
      <g id="Group_39763" data-name="Group 39763" transform="translate(25.539 35.232)">
        <g id="Group_39759" data-name="Group 39759" transform="translate(0 49.641)">
          <path id="Path_31311" data-name="Path 31311" d="M1303.684,1859.183v7.292l-7.2.256v-7.362Zm.911-.935-9.024.234v9.193l9.024-.321Z" transform="translate(-1295.57 -1856.695)" fill="#d8dee8"/>
          <path id="Path_31312" data-name="Path 31312" d="M1555.961,1841.135l-56.591,2.014v-9.074l56.591-1.467Z" transform="translate(-1487.022 -1832.608)" fill="#d8dee8"/>
        </g>
        <g id="Group_39760" data-name="Group 39760" transform="translate(0 62.066)">
          <path id="Path_31313" data-name="Path 31313" d="M1303.684,2078.191v7.292l-7.2.358v-7.361Zm.911-.948-9.024.361v9.193l9.024-.448Z" transform="translate(-1295.57 -2074.846)" fill="#d8dee8"/>
          <path id="Path_31314" data-name="Path 31314" d="M1555.961,2046.211l-56.591,2.81v-9.074l56.591-2.264Z" transform="translate(-1487.022 -2037.684)" fill="#d8dee8"/>
        </g>
        <g id="Group_39761" data-name="Group 39761" transform="translate(0 74.491)">
          <path id="Path_31315" data-name="Path 31315" d="M1303.684,2297.2v7.29l-7.2.459v-7.36Zm.911-.961-9.024.488v9.193l9.024-.575Z" transform="translate(-1295.57 -2292.997)" fill="#d8dee8"/>
          <path id="Path_31316" data-name="Path 31316" d="M1555.961,2251.286l-56.591,3.607v-9.074l56.591-3.06Z" transform="translate(-1487.022 -2242.759)" fill="#d8dee8"/>
        </g>
        <g id="Group_39762" data-name="Group 39762" transform="translate(0 86.915)">
          <path id="Path_31317" data-name="Path 31317" d="M1303.684,2516.207v7.289l-7.2.561V2516.7Zm.911-.975-9.024.615v9.193l9.024-.7Z" transform="translate(-1295.57 -2511.148)" fill="#d8dee8"/>
          <path id="Path_31318" data-name="Path 31318" d="M1555.961,2456.361l-56.591,4.4v-9.074l56.591-3.857Z" transform="translate(-1487.022 -2447.834)" fill="#d8dee8"/>
        </g>
        <path id="Path_31319" data-name="Path 31319" d="M1331.456,1055.544l-35.886.609v-42.905l35.886,1.009Z" transform="translate(-1295.57 -1013.247)" fill="#d8dee8"/>
        <path id="Path_31320" data-name="Path 31320" d="M2008.33,1038.527l-27.417-.608v-5.4l27.417.771Z" transform="translate(-1939.391 -1031.347)" fill="#d8dee8"/>
        <path id="Path_31321" data-name="Path 31321" d="M2008.33,1278.294l-27.417-.246v-2.7l27.417.328Z" transform="translate(-1939.391 -1259.466)" fill="#d8dee8"/>
        <path id="Path_31322" data-name="Path 31322" d="M2008.33,1351.67l-27.417-.112v-2.7l27.417.193Z" transform="translate(-1939.391 -1328.522)" fill="#d8dee8"/>
        <path id="Path_31323" data-name="Path 31323" d="M2008.33,1425.046l-27.417.022v-2.7l27.417.059Z" transform="translate(-1939.391 -1397.579)" fill="#d8dee8"/>
      </g>
      <g id="Group_39764" data-name="Group 39764" transform="translate(24.97 86.142)">
        <path id="Path_31324" data-name="Path 31324" d="M1289.492,1862.4a.567.567,0,0,1-.334-.108l-2.749-1.992a.569.569,0,1,1,.668-.922l2.338,1.694,6.715-7.344a.569.569,0,0,1,.84.768l-7.058,7.719A.568.568,0,0,1,1289.492,1862.4Z" transform="translate(-1286.174 -1853.539)" fill="#97a6b7"/>
      </g>
      <g id="Group_39765" data-name="Group 39765" transform="translate(24.515 100.03)">
        <path id="Path_31325" data-name="Path 31325" d="M1281.976,2091.628a.569.569,0,0,1-.334-.108l-2.749-1.992a.569.569,0,1,1,.668-.922l2.338,1.694,6.715-7.345a.569.569,0,0,1,.84.768l-7.058,7.719A.569.569,0,0,1,1281.976,2091.628Z" transform="translate(-1278.658 -2082.77)" fill="#97a6b7"/>
      </g>
      <g id="Group_39766" data-name="Group 39766" transform="translate(24.515 112.78)">
        <path id="Path_31326" data-name="Path 31326" d="M1281.976,2302.07a.567.567,0,0,1-.334-.108l-2.749-1.992a.569.569,0,1,1,.668-.922l2.338,1.694,6.715-7.344a.569.569,0,0,1,.84.768l-7.058,7.719A.569.569,0,0,1,1281.976,2302.07Z" transform="translate(-1278.658 -2293.213)" fill="#97a6b7"/>
      </g>
    </g>
    <g id="Group_39769" data-name="Group 39769" transform="translate(512.369 516.331)">
      <path id="Path_31327" data-name="Path 31327" d="M2530.466,3017.778s-3.993,1.814-4.058,2.1,2.568-.1,3.643-.055,1.959-.276,1.862-.731-.473-1.6-.473-1.6Z" transform="translate(-2517.417 -2945.448)" fill="url(#linear-gradient-4)"/>
      <path id="Path_31328" data-name="Path 31328" d="M2590.993,2994.517l.243,1.8a1.409,1.409,0,0,0,1.057-.041l.181-1.972Z" transform="translate(-2578.091 -2923.66)" fill="url(#linear-gradient-5)"/>
      <path id="Path_31329" data-name="Path 31329" d="M2856.642,2998.562l.464.746a.888.888,0,0,1,.106.7c-.162.62-.487,1.828-.628,2.143-.193.429-2.776.684-2.776.684s-.23-.324.306-.716.881-.453,1.071-1.031a15.085,15.085,0,0,0,.316-2.213Z" transform="translate(-2824.936 -2927.662)" fill="url(#linear-gradient-6)"/>
      <path id="Path_31330" data-name="Path 31330" d="M2869.438,2963.97a24.086,24.086,0,0,1,1,2.654s.269.344.779-.163.231-.228.231-.228l-.1-2.478Z" transform="translate(-2839.666 -2894.964)" fill="url(#linear-gradient-7)"/>
      <path id="Path_31331" data-name="Path 31331" d="M2552.388,2363.006c-.211,5.362-.219,11.188.089,17.412.348,7.009,1.045,13.486,1.926,19.358.327.01.671.012,1.03,0,.242-.007.477-.019.7-.034a44.64,44.64,0,0,0,1.48-4.731,45.585,45.585,0,0,0,1.033-5.54c.769-6.074-.132-6.6.492-11.1.553-3.986,1.339-4.142,2.261-9.8,1-6.141.256-7.062-.107-7.4C2559.753,2359.754,2556.13,2360.719,2552.388,2363.006Z" transform="translate(-2541.683 -2328.264)" fill="url(#linear-gradient-8)"/>
      <path id="Path_31332" data-name="Path 31332" d="M2571.66,2361.184c-1.471-1.351-4.836-.533-8.39,1.529,4.088,4.417,4.534,7.283,4.044,9.142-.554,2.1-2.238,2.707-2.232,5,.008,2.824,2.556,3.572,2.5,6.56-.036,1.976-1.156,1.956-1.42,4.4-.313,2.887,1.15,3.882.676,6.019a5.782,5.782,0,0,1-2.443,3.357c.12.877.242,1.746.37,2.6.327.01.67.012,1.029,0q.364-.01.7-.034a44.582,44.582,0,0,0,1.479-4.731,45.528,45.528,0,0,0,1.033-5.54c.769-6.073-.132-6.6.492-11.1.553-3.986,1.338-4.142,2.261-9.8C2572.768,2362.438,2572.022,2361.517,2571.66,2361.184Z" transform="translate(-2552.047 -2328.277)" opacity="0.3" fill="url(#linear-gradient-8)" style="mix-blend-mode: multiply;isolation: isolate"/>
      <path id="Path_31333" data-name="Path 31333" d="M2596.534,2354.115a120.424,120.424,0,0,1,16.507,35.33,2.145,2.145,0,0,0,1.178.183,2.192,2.192,0,0,0,1.335-.721,34.69,34.69,0,0,0,.306-8.55,29.479,29.479,0,0,0-1.2-6.427c-.972-3.135-1.64-3.311-2.908-6.627-1.316-3.443-1-4.3-2.258-8.609a56.837,56.837,0,0,0-2.814-7.553Z" transform="translate(-2583.296 -2319.463)" fill="url(#linear-gradient-8)"/>
      <path id="Path_31334" data-name="Path 31334" d="M2535.238,1840.931c-3.229-3.136-4.909-3.281-5.514-5.532-.6-2.225.171-5.332,2.368-6.536,2.624-1.438,5.142.165,7.128,1.895,2.281,1.988,4.187,3.535,7.374,3.582,2.708.039,5.408-.448,8.108-.044a8.8,8.8,0,0,1,2.243.633c2.933,1.287,2.115,5.759,5.1,6.785,2,.685,2.954-1.109,5.766-.973,3.3.159,6.31,2.844,7.7,5.55,2.539,4.946.1,10.79-3.029,13.951-2.574,2.6-7.357,5.134-10.471,3.565-2.46-1.239-2.583-4.388-4.9-4.65-1.646-.186-2.086,1.349-4.168,1.681-3.418.545-6.623-2.894-7.5-3.833-2.491-2.674-1.712-3.8-4.582-8.634A33.479,33.479,0,0,0,2535.238,1840.931Z" transform="translate(-2520.349 -1828.306)" fill="url(#linear-gradient-11)"/>
      <path id="Path_31335" data-name="Path 31335" d="M2381.732,1959.017c-2.725,2.995-4.738,7.977-3.126,9.743a3.278,3.278,0,0,0,2.109.8c2.89.357,4.264-1.77,5.394-1.217,1.451.71.592,5.084.257,8.42-.59,5.883-2.166,6.917-1.118,8.94,1.363,2.633,5.227,3.188,6.271,3.338,3.572.513,4.171-1.148,8.083-.953,4.469.222,4.88,2.448,8.153,1.852,2.99-.545,4.2-2.684,6.409-1.989,1.384.434,1.653,1.5,3,1.528a3.2,3.2,0,0,0,3.077-2.229c.272-1.5-1.382-3.6-4.281-3.9a9.189,9.189,0,0,1-5.221-.178c-3.393-1.209-4.9-4.353-6.573-7.845-1.158-2.416-3.286-6.856-2.756-12.338.219-2.261.714-2.878.221-4.149-.683-1.764-5.028-4.509-10.078-4.345A14.526,14.526,0,0,0,2381.732,1959.017Z" transform="translate(-2378.031 -1946.845)" fill="url(#linear-gradient-12)"/>
      <g id="Group_39768" data-name="Group 39768" transform="translate(0.766 15.731)">
        <path id="Path_31336" data-name="Path 31336" d="M2391.7,2091.023l9.705,1.378a.264.264,0,0,1,.219.2l3.287,13.2c.047.189-.206.625-.4.584l-9.5-2.3a.265.265,0,0,1-.2-.189l-3.559-12.374C2391.2,2091.344,2391.508,2091,2391.7,2091.023Z" transform="translate(-2391.212 -2090.836)" fill="url(#linear-gradient-13)"/>
        <path id="Path_31337" data-name="Path 31337" d="M2390.974,2095.893l9.705,1.377a.264.264,0,0,1,.219.2l3.287,13.2a.264.264,0,0,1-.311.322l-9.585-2.034a.264.264,0,0,1-.2-.189l-3.407-12.547A.264.264,0,0,1,2390.974,2095.893Z" transform="translate(-2390.673 -2095.41)" fill="url(#linear-gradient-14)"/>
        <path id="Path_31338" data-name="Path 31338" d="M2434.546,2089.193l-.272-1.053a.141.141,0,0,1,.151-.176l3.547.363a.142.142,0,0,1,.124.112l.241,1.159a.141.141,0,0,1-.156.168l-3.517-.469A.141.141,0,0,1,2434.546,2089.193Z" transform="translate(-2431.628 -2087.964)" fill="url(#linear-gradient-15)"/>
        <path id="Path_31339" data-name="Path 31339" d="M2398.557,2107.336c-.423-2.117.755-3.347-.144-5.051-1.273-2.41-4.6-1.786-5.42-3.709a2.91,2.91,0,0,1,.207-2.367l-2.226-.316a.264.264,0,0,0-.292.331l3.407,12.547a.264.264,0,0,0,.2.189l5.825,1.236A5.825,5.825,0,0,1,2398.557,2107.336Z" transform="translate(-2390.673 -2095.411)" opacity="0.3" fill="url(#linear-gradient-16)" style="mix-blend-mode: multiply;isolation: isolate"/>
      </g>
      <path id="Path_31340" data-name="Path 31340" d="M2558.211,2241.083a8.7,8.7,0,0,1-1.974-.859,3.571,3.571,0,0,0-1.915-1.106c-.84-.054-1.726.285-1.35.422s1.021.979,1.542,1.337a5.345,5.345,0,0,0,2.016.522,4.787,4.787,0,0,1,1.107.66Z" transform="translate(-2542.29 -2214.223)" fill="url(#linear-gradient-17)"/>
      <path id="Path_31341" data-name="Path 31341" d="M2522.408,2041.909a9.187,9.187,0,0,1-5.221-.178c-3.392-1.209-4.9-4.353-6.573-7.845-1.158-2.416-3.286-6.855-2.756-12.338.219-2.261.714-2.878.221-4.149a4.111,4.111,0,0,0-.282-.576,4.756,4.756,0,0,0-2.583,2.725c-.644,2.155,1.148,4.154-.074,5.944-1.17,1.715-3.553.963-4.22,2.468-.719,1.623,1.871,2.911,1.724,5.518-.176,3.128-4.076,4.269-3.633,6.419.384,1.863,3.53,2.054,3.429,3.022-.119,1.151-4.741,2.549-8.393.743a7.951,7.951,0,0,1-2.519-1.986,3.279,3.279,0,0,0,.168,2.585c1.363,2.633,5.227,3.188,6.271,3.338,3.572.513,4.171-1.148,8.084-.953,4.468.222,4.88,2.448,8.153,1.852,2.99-.545,4.2-2.684,6.409-1.989,1.384.434,1.653,1.5,3,1.528a3.2,3.2,0,0,0,3.077-2.229C2526.961,2044.3,2525.307,2042.208,2522.408,2041.909Z" transform="translate(-2484.482 -2005.401)" opacity="0.3" fill="url(#linear-gradient-18)" style="mix-blend-mode: multiply;isolation: isolate"/>
      <path id="Path_31342" data-name="Path 31342" d="M2616.323,1981.464l-1.607,2.277c.663.414,7.77,4.711,13.541,1.767a8.631,8.631,0,0,0,3.8-3.484,9.412,9.412,0,0,0,.723-6.278c-.572-3.806-2.866-7.972-6.525-9.926a24.027,24.027,0,0,0-4.7-1.677c-1.357-.382-3.5-.9-3.566-.7-.033.1.458.282.788.516,2.028,1.437-1.219,6.185,1.063,8.855,2.187,2.557,5.37,2.5,5.663,4.643a3.147,3.147,0,0,1-.7,2.19C2623.369,1981.706,2620.006,1982.346,2616.323,1981.464Z" transform="translate(-2600.376 -1955.218)" fill="url(#linear-gradient-19)"/>
      <path id="Path_31343" data-name="Path 31343" d="M2521.374,1893.6s.616,2.639,1.668,3.148,2.731,1.141,2.93,1.34-6.021,1.537-9.3.292c1-.322,1.276-.43,1.276-.43a5.807,5.807,0,0,0,1.265-.662,4.51,4.51,0,0,0,1.311-1.5l-.167-1.48Z" transform="translate(-2508.269 -1889.645)" fill="url(#linear-gradient-20)"/>
      <path id="Path_31344" data-name="Path 31344" d="M2564.462,1872.346a1.488,1.488,0,0,1-1.6.689c-.939-.234-.645-2.626.044-2.967a1.275,1.275,0,0,1,.986.031,1.415,1.415,0,0,1,.608,1.534c.221-.09.428-.051.491.057.079.137-.094.352-.133.4A.77.77,0,0,1,2564.462,1872.346Z" transform="translate(-2551.107 -1867.459)" fill="url(#linear-gradient-21)"/>
      <path id="Path_31345" data-name="Path 31345" d="M2401.5,2127.486s-.8-1.532,0-1.968a3.216,3.216,0,0,1,2.109,0,1.962,1.962,0,0,1-.779.708A6.369,6.369,0,0,0,2401.5,2127.486Z" transform="translate(-2399.747 -2107.328)" fill="url(#linear-gradient-22)"/>
    </g>
    <g id="Group_39788" data-name="Group 39788" transform="translate(402.773 551.078)">
      <g id="Group_39771" data-name="Group 39771" transform="translate(6.59 39.06)">
        <path id="Path_31346" data-name="Path 31346" d="M678.074,3097.307v5.257c0,1.7,10.612,3.076,23.7,3.076s23.7-1.377,23.7-3.076v-5.257Z" transform="translate(-678.06 -3094.231)" fill="url(#linear-gradient-23)"/>
        <ellipse id="Ellipse_2872" data-name="Ellipse 2872" cx="23.704" cy="3.076" rx="23.704" ry="3.076" transform="translate(0.014)" fill="url(#linear-gradient-24)"/>
        <path id="Path_31347" data-name="Path 31347" d="M701.563,3096.276c-11.594,0-23.717-1.107-23.717-3.243,0-.117.042-.324.159-.324s.067.161.067.279c0,1.354,9.648,2.864,23.491,2.864s23.491-1.509,23.491-2.864c0-.117.02-.227.137-.227s.089.157.089.274C725.281,3095.17,713.157,3096.276,701.563,3096.276Z" transform="translate(-677.846 -3089.911)" fill="url(#linear-gradient-25)"/>
        <g id="Group_39770" data-name="Group 39770" transform="translate(8.786 1.911)">
          <path id="Path_31348" data-name="Path 31348" d="M835.549,3079.408c.233-.161.48-.32.745-.477a4.721,4.721,0,0,1,1.018-.425,9.765,9.765,0,0,1,1.563-.309,19.8,19.8,0,0,1,2.34-.126q1.374-.007,2.58.087a17.592,17.592,0,0,1,2.122.281,6.586,6.586,0,0,1,1.489.462,1.179,1.179,0,0,1,.681.631l2.669.027a2.6,2.6,0,0,1,.512.047c.149.031.221.069.222.115v.22l-3.431-.033a1.73,1.73,0,0,1-.92.739,9.309,9.309,0,0,1-1.882.58l-1.25-.174a1.445,1.445,0,0,1-.276-.065c-.072-.026-.107-.055-.107-.086s.1-.091.29-.145.412-.121.654-.2a6.637,6.637,0,0,0,.716-.283.972.972,0,0,0,.47-.39l-8.1-.08a7.624,7.624,0,0,1-.715.461,4.665,4.665,0,0,1-1.051.408,11.006,11.006,0,0,1-1.63.294,23.017,23.017,0,0,1-2.457.12c-.742,0-1.465-.024-2.173-.084a14.869,14.869,0,0,1-1.886-.269,5.872,5.872,0,0,1-1.353-.443c-.351-.176-.548-.378-.589-.606l-2.2-.023a2.879,2.879,0,0,1-.519-.046c-.152-.03-.229-.068-.229-.117v-.22l3,.029a1.614,1.614,0,0,1,.821-.6,9.353,9.353,0,0,1,1.525-.459l1.006.138c.306.043.457.093.458.151,0,.031-.062.07-.188.115l-.451.166a4.168,4.168,0,0,0-.5.226,1.059,1.059,0,0,0-.366.293Zm-7.412.3a.8.8,0,0,0,.4.373,3.169,3.169,0,0,0,.763.258,7.714,7.714,0,0,0,1.029.148q.574.047,1.2.044a12.5,12.5,0,0,0,1.273-.062,7.423,7.423,0,0,0,.953-.161,4.458,4.458,0,0,0,.716-.237,4,4,0,0,0,.547-.292Zm17.631-.2a.826.826,0,0,0-.436-.384,3.94,3.94,0,0,0-.878-.277,9.739,9.739,0,0,0-1.245-.167q-.708-.055-1.564-.051a12.126,12.126,0,0,0-1.311.068,6.809,6.809,0,0,0-.953.173,3.46,3.46,0,0,0-.684.253,4.895,4.895,0,0,0-.525.309Z" transform="translate(-822.857 -3078.072)" fill="#fcb048"/>
        </g>
        <path id="Path_31349" data-name="Path 31349" d="M707.561,3052.03c-10.569,0-21.574.93-23.334,2.73a2.107,2.107,0,0,1,.192.2c1.484-1.25,10.57-2.509,23.142-2.509,12.894,0,22.126,1.324,23.245,2.6a2.132,2.132,0,0,1,.177-.2C729.529,3052.995,718.318,3052.03,707.561,3052.03Z" transform="translate(-683.84 -3051.697)" fill="url(#linear-gradient-26)"/>
      </g>
      <g id="Group_39773" data-name="Group 39773" transform="translate(0 33.538)">
        <path id="Path_31350" data-name="Path 31350" d="M569.31,3006.156v5.258c0,1.7,10.613,3.076,23.7,3.076s23.7-1.377,23.7-3.076v-5.258Z" transform="translate(-569.296 -3003.08)" fill="url(#linear-gradient-23)"/>
        <ellipse id="Ellipse_2873" data-name="Ellipse 2873" cx="23.704" cy="3.076" rx="23.704" ry="3.076" transform="translate(0.014)" fill="url(#linear-gradient-24)"/>
        <path id="Path_31351" data-name="Path 31351" d="M592.8,3005.126c-11.594,0-23.717-1.107-23.717-3.243,0-.118.042-.324.159-.324s.067.161.067.279c0,1.355,9.648,2.864,23.491,2.864s23.491-1.509,23.491-2.864c0-.117.02-.227.137-.227s.089.156.089.274C616.517,3004.02,604.393,3005.126,592.8,3005.126Z" transform="translate(-569.082 -2998.761)" fill="url(#linear-gradient-25)"/>
        <g id="Group_39772" data-name="Group 39772" transform="translate(8.786 1.911)">
          <path id="Path_31352" data-name="Path 31352" d="M726.785,2988.257c.232-.161.48-.319.745-.476a4.681,4.681,0,0,1,1.018-.425,9.738,9.738,0,0,1,1.563-.309,19.857,19.857,0,0,1,2.341-.126q1.374-.007,2.58.087a17.492,17.492,0,0,1,2.122.281,6.55,6.55,0,0,1,1.489.462,1.179,1.179,0,0,1,.681.631l2.669.027a2.622,2.622,0,0,1,.512.047c.149.031.221.069.221.115v.22l-3.431-.033a1.729,1.729,0,0,1-.92.739,9.313,9.313,0,0,1-1.881.581l-1.25-.174a1.427,1.427,0,0,1-.276-.065c-.072-.026-.107-.055-.107-.086s.1-.09.29-.145.411-.122.654-.2a6.694,6.694,0,0,0,.716-.283.976.976,0,0,0,.47-.39l-8.1-.08a7.626,7.626,0,0,1-.715.462,4.66,4.66,0,0,1-1.051.408,11.074,11.074,0,0,1-1.63.295,23.145,23.145,0,0,1-2.457.12c-.742,0-1.465-.024-2.173-.084a14.829,14.829,0,0,1-1.886-.269,5.874,5.874,0,0,1-1.353-.443c-.351-.176-.548-.378-.589-.606l-2.2-.023a2.9,2.9,0,0,1-.519-.046c-.152-.029-.229-.068-.229-.117v-.22l3,.029a1.614,1.614,0,0,1,.821-.6,9.38,9.38,0,0,1,1.525-.459l1.006.138c.306.043.457.093.458.151,0,.031-.062.07-.188.116s-.278.1-.451.165a4.13,4.13,0,0,0-.5.226,1.066,1.066,0,0,0-.366.293Zm-7.412.3a.8.8,0,0,0,.4.373,3.193,3.193,0,0,0,.763.258,7.757,7.757,0,0,0,1.029.148q.574.047,1.2.044a12.554,12.554,0,0,0,1.273-.063,7.335,7.335,0,0,0,.952-.161,4.412,4.412,0,0,0,.716-.237,3.976,3.976,0,0,0,.547-.292Zm17.631-.2a.824.824,0,0,0-.436-.384,3.927,3.927,0,0,0-.878-.277,9.647,9.647,0,0,0-1.245-.167q-.708-.055-1.564-.051a11.939,11.939,0,0,0-1.31.068,6.74,6.74,0,0,0-.953.173,3.446,3.446,0,0,0-.684.253,4.849,4.849,0,0,0-.525.309Z" transform="translate(-714.093 -2986.92)" fill="#fcb048"/>
        </g>
        <path id="Path_31353" data-name="Path 31353" d="M598.8,2960.878c-10.569,0-21.574.93-23.334,2.73a2.128,2.128,0,0,1,.192.2c1.484-1.25,10.571-2.509,23.142-2.509,12.894,0,22.126,1.324,23.245,2.6a2.163,2.163,0,0,1,.177-.2C620.766,2961.843,609.555,2960.878,598.8,2960.878Z" transform="translate(-575.077 -2960.545)" fill="url(#linear-gradient-30)"/>
      </g>
      <g id="Group_39775" data-name="Group 39775" transform="translate(5.686 28.032)">
        <path id="Path_31354" data-name="Path 31354" d="M663.159,2915.272v5.258c0,1.7,10.612,3.076,23.7,3.076s23.7-1.377,23.7-3.076v-5.258Z" transform="translate(-663.145 -2912.196)" fill="url(#linear-gradient-23)"/>
        <ellipse id="Ellipse_2874" data-name="Ellipse 2874" cx="23.704" cy="3.076" rx="23.704" ry="3.076" transform="translate(0.014)" fill="url(#linear-gradient-24)"/>
        <path id="Path_31355" data-name="Path 31355" d="M686.647,2914.241c-11.594,0-23.717-1.107-23.717-3.243,0-.117.042-.323.159-.323s.067.161.067.279c0,1.355,9.648,2.864,23.491,2.864s23.491-1.509,23.491-2.864c0-.117.02-.227.137-.227s.089.156.089.274C710.365,2913.135,698.241,2914.241,686.647,2914.241Z" transform="translate(-662.93 -2907.876)" fill="url(#linear-gradient-25)"/>
        <g id="Group_39774" data-name="Group 39774" transform="translate(8.786 1.911)">
          <path id="Path_31356" data-name="Path 31356" d="M820.633,2897.373c.233-.161.48-.32.745-.477a4.693,4.693,0,0,1,1.018-.424,9.762,9.762,0,0,1,1.563-.309,19.91,19.91,0,0,1,2.341-.126q1.374-.007,2.58.087a17.646,17.646,0,0,1,2.122.281,6.565,6.565,0,0,1,1.489.462,1.18,1.18,0,0,1,.681.631l2.669.027a2.624,2.624,0,0,1,.512.047c.149.031.221.069.222.116v.219l-3.431-.033a1.731,1.731,0,0,1-.92.739,9.36,9.36,0,0,1-1.881.58l-1.25-.174a1.447,1.447,0,0,1-.276-.065c-.072-.026-.107-.055-.107-.086s.1-.09.29-.144.411-.122.654-.2a6.648,6.648,0,0,0,.716-.283.972.972,0,0,0,.47-.39l-8.1-.081a7.593,7.593,0,0,1-.715.461,4.65,4.65,0,0,1-1.051.408,11.039,11.039,0,0,1-1.63.294,23.137,23.137,0,0,1-2.457.12c-.742,0-1.465-.025-2.173-.084a14.875,14.875,0,0,1-1.886-.269,5.883,5.883,0,0,1-1.353-.443c-.351-.176-.548-.378-.589-.606l-2.2-.022a2.9,2.9,0,0,1-.519-.046c-.152-.029-.229-.068-.229-.117v-.22l3,.029a1.617,1.617,0,0,1,.821-.6,9.408,9.408,0,0,1,1.525-.458l1.006.138c.306.043.457.093.458.151,0,.031-.062.07-.188.116s-.278.1-.451.165a4.155,4.155,0,0,0-.5.226,1.065,1.065,0,0,0-.366.293Zm-7.412.3a.8.8,0,0,0,.4.372,3.17,3.17,0,0,0,.763.258,7.835,7.835,0,0,0,1.028.148q.574.047,1.2.044a12.621,12.621,0,0,0,1.273-.063,7.375,7.375,0,0,0,.953-.161,4.39,4.39,0,0,0,.716-.237,3.979,3.979,0,0,0,.547-.292Zm17.631-.2a.827.827,0,0,0-.436-.384,3.965,3.965,0,0,0-.878-.277,9.733,9.733,0,0,0-1.245-.167q-.708-.055-1.564-.051a12,12,0,0,0-1.311.068,6.7,6.7,0,0,0-.953.173,3.432,3.432,0,0,0-.684.253,4.861,4.861,0,0,0-.525.309Z" transform="translate(-807.941 -2896.036)" fill="#fcb048"/>
        </g>
        <path id="Path_31357" data-name="Path 31357" d="M692.646,2870c-10.569,0-21.574.93-23.334,2.73a2.09,2.09,0,0,1,.192.2c1.484-1.25,10.571-2.509,23.142-2.509,12.894,0,22.126,1.324,23.245,2.6a2.188,2.188,0,0,1,.177-.2C714.614,2870.959,703.4,2870,692.646,2870Z" transform="translate(-668.925 -2869.662)" fill="url(#linear-gradient-34)"/>
      </g>
      <g id="Group_39777" data-name="Group 39777" transform="translate(9.136 22.509)">
        <path id="Path_31358" data-name="Path 31358" d="M720.108,2824.121v5.257c0,1.7,10.612,3.076,23.7,3.076s23.7-1.377,23.7-3.076v-5.257Z" transform="translate(-720.094 -2821.045)" fill="url(#linear-gradient-23)"/>
        <ellipse id="Ellipse_2875" data-name="Ellipse 2875" cx="23.704" cy="3.076" rx="23.704" ry="3.076" transform="translate(0.014)" fill="url(#linear-gradient-24)"/>
        <path id="Path_31359" data-name="Path 31359" d="M743.6,2823.089c-11.594,0-23.717-1.107-23.717-3.243,0-.117.042-.323.159-.323s.067.161.067.278c0,1.355,9.648,2.864,23.491,2.864s23.491-1.509,23.491-2.864c0-.117.02-.227.137-.227s.089.157.089.274C767.315,2821.984,755.191,2823.089,743.6,2823.089Z" transform="translate(-719.88 -2816.725)" fill="url(#linear-gradient-25)"/>
        <g id="Group_39776" data-name="Group 39776" transform="translate(8.786 1.911)">
          <path id="Path_31360" data-name="Path 31360" d="M877.583,2806.221c.233-.161.48-.32.745-.477a4.7,4.7,0,0,1,1.018-.425,9.767,9.767,0,0,1,1.563-.309,19.911,19.911,0,0,1,2.341-.126q1.374-.007,2.58.087a17.59,17.59,0,0,1,2.122.281,6.559,6.559,0,0,1,1.489.462,1.18,1.18,0,0,1,.681.631l2.669.027a2.624,2.624,0,0,1,.512.047c.149.031.221.069.221.116v.219l-3.431-.033a1.731,1.731,0,0,1-.92.739,9.357,9.357,0,0,1-1.881.58l-1.25-.174a1.443,1.443,0,0,1-.276-.065c-.072-.026-.107-.055-.107-.086s.1-.09.29-.144.412-.122.654-.2a6.644,6.644,0,0,0,.716-.283.973.973,0,0,0,.47-.39l-8.1-.081a7.626,7.626,0,0,1-.715.461,4.648,4.648,0,0,1-1.051.408,10.975,10.975,0,0,1-1.63.294,23,23,0,0,1-2.457.12c-.742,0-1.465-.025-2.173-.084a14.877,14.877,0,0,1-1.886-.269,5.884,5.884,0,0,1-1.353-.443c-.351-.176-.548-.378-.589-.606l-2.2-.022a2.9,2.9,0,0,1-.519-.046c-.152-.03-.229-.068-.229-.117v-.22l3,.029a1.616,1.616,0,0,1,.821-.6,9.406,9.406,0,0,1,1.525-.459l1.006.138c.306.043.457.093.458.151,0,.031-.062.07-.188.116s-.278.1-.451.165a4.127,4.127,0,0,0-.5.226,1.065,1.065,0,0,0-.366.293Zm-7.412.3a.794.794,0,0,0,.4.372,3.18,3.18,0,0,0,.763.258,7.834,7.834,0,0,0,1.029.148q.574.047,1.2.044a12.553,12.553,0,0,0,1.273-.063,7.427,7.427,0,0,0,.953-.161,4.385,4.385,0,0,0,.716-.237,3.946,3.946,0,0,0,.547-.292Zm17.631-.2a.826.826,0,0,0-.436-.384,3.953,3.953,0,0,0-.878-.277,9.733,9.733,0,0,0-1.245-.167q-.708-.055-1.564-.051a11.932,11.932,0,0,0-1.31.068,6.7,6.7,0,0,0-.953.173,3.459,3.459,0,0,0-.684.253,4.822,4.822,0,0,0-.525.309Z" transform="translate(-864.891 -2804.885)" fill="#fcb048"/>
        </g>
        <path id="Path_31361" data-name="Path 31361" d="M749.595,2778.843c-10.569,0-21.574.93-23.334,2.73a2.159,2.159,0,0,1,.192.2c1.484-1.25,10.57-2.509,23.142-2.509,12.894,0,22.126,1.324,23.245,2.6a2.139,2.139,0,0,1,.177-.2C771.563,2779.807,760.352,2778.843,749.595,2778.843Z" transform="translate(-725.874 -2778.51)" fill="url(#linear-gradient-38)"/>
      </g>
      <g id="Group_39779" data-name="Group 39779" transform="translate(6.59 16.551)">
        <path id="Path_31362" data-name="Path 31362" d="M678.074,2725.779v5.257c0,1.7,10.612,3.076,23.7,3.076s23.7-1.377,23.7-3.076v-5.257Z" transform="translate(-678.06 -2722.703)" fill="url(#linear-gradient-23)"/>
        <ellipse id="Ellipse_2876" data-name="Ellipse 2876" cx="23.704" cy="3.076" rx="23.704" ry="3.076" transform="translate(0.014)" fill="url(#linear-gradient-24)"/>
        <path id="Path_31363" data-name="Path 31363" d="M701.563,2724.748c-11.594,0-23.717-1.107-23.717-3.243,0-.117.042-.324.159-.324s.067.161.067.279c0,1.355,9.648,2.864,23.491,2.864s23.491-1.509,23.491-2.864c0-.117.02-.227.137-.227s.089.157.089.274C725.281,2723.642,713.157,2724.748,701.563,2724.748Z" transform="translate(-677.846 -2718.384)" fill="url(#linear-gradient-25)"/>
        <g id="Group_39778" data-name="Group 39778" transform="translate(8.786 1.911)">
          <path id="Path_31364" data-name="Path 31364" d="M835.549,2707.879c.233-.161.48-.32.745-.476a4.684,4.684,0,0,1,1.018-.425,9.76,9.76,0,0,1,1.563-.309,19.91,19.91,0,0,1,2.34-.126q1.374-.007,2.58.087a17.585,17.585,0,0,1,2.122.281,6.549,6.549,0,0,1,1.489.462,1.179,1.179,0,0,1,.681.631l2.669.027a2.624,2.624,0,0,1,.512.047c.149.031.221.069.222.116v.219l-3.431-.033a1.732,1.732,0,0,1-.92.739,9.34,9.34,0,0,1-1.882.58l-1.25-.174a1.444,1.444,0,0,1-.276-.065c-.072-.026-.107-.054-.107-.086s.1-.09.29-.145.412-.122.654-.2a6.688,6.688,0,0,0,.716-.283.974.974,0,0,0,.47-.39l-8.1-.081a7.624,7.624,0,0,1-.715.462,4.653,4.653,0,0,1-1.051.408,11.009,11.009,0,0,1-1.63.294,23,23,0,0,1-2.457.12c-.742,0-1.465-.025-2.173-.084a14.869,14.869,0,0,1-1.886-.269,5.871,5.871,0,0,1-1.353-.443c-.351-.176-.548-.378-.589-.606l-2.2-.022a2.922,2.922,0,0,1-.519-.046c-.152-.029-.229-.068-.229-.117v-.22l3,.029a1.614,1.614,0,0,1,.821-.605,9.4,9.4,0,0,1,1.525-.458l1.006.138c.306.043.457.093.458.151,0,.031-.062.07-.188.116s-.278.1-.451.165a4.093,4.093,0,0,0-.5.226,1.065,1.065,0,0,0-.366.293Zm-7.412.3a.8.8,0,0,0,.4.373,3.18,3.18,0,0,0,.763.258,7.838,7.838,0,0,0,1.029.148q.574.047,1.2.044a12.554,12.554,0,0,0,1.273-.063,7.38,7.38,0,0,0,.953-.161,4.386,4.386,0,0,0,.716-.237,3.946,3.946,0,0,0,.547-.292Zm17.631-.2a.825.825,0,0,0-.436-.384,3.941,3.941,0,0,0-.878-.277,9.689,9.689,0,0,0-1.245-.167q-.708-.054-1.564-.051a12,12,0,0,0-1.311.068,6.7,6.7,0,0,0-.953.173,3.43,3.43,0,0,0-.684.253,4.854,4.854,0,0,0-.525.309Z" transform="translate(-822.857 -2706.542)" fill="#fcb048"/>
        </g>
        <path id="Path_31365" data-name="Path 31365" d="M707.561,2680.5c-10.569,0-21.574.93-23.334,2.73a2.166,2.166,0,0,1,.192.2c1.484-1.25,10.57-2.509,23.142-2.509,12.894,0,22.126,1.324,23.245,2.6a2.195,2.195,0,0,1,.177-.2C729.529,2681.466,718.318,2680.5,707.561,2680.5Z" transform="translate(-683.84 -2680.168)" fill="url(#linear-gradient-42)"/>
      </g>
      <g id="Group_39781" data-name="Group 39781" transform="translate(0 11.029)">
        <path id="Path_31366" data-name="Path 31366" d="M569.31,2634.628v5.257c0,1.7,10.613,3.076,23.7,3.076s23.7-1.377,23.7-3.076v-5.257Z" transform="translate(-569.296 -2631.552)" fill="url(#linear-gradient-23)"/>
        <ellipse id="Ellipse_2877" data-name="Ellipse 2877" cx="23.704" cy="3.076" rx="23.704" ry="3.076" transform="translate(0.014)" fill="url(#linear-gradient-24)"/>
        <path id="Path_31367" data-name="Path 31367" d="M592.8,2633.6c-11.594,0-23.717-1.107-23.717-3.243,0-.117.042-.324.159-.324s.067.161.067.279c0,1.354,9.648,2.864,23.491,2.864s23.491-1.509,23.491-2.864c0-.117.02-.227.137-.227s.089.156.089.274C616.517,2632.49,604.393,2633.6,592.8,2633.6Z" transform="translate(-569.082 -2627.231)" fill="url(#linear-gradient-25)"/>
        <g id="Group_39780" data-name="Group 39780" transform="translate(8.786 1.911)">
          <path id="Path_31368" data-name="Path 31368" d="M726.785,2616.728c.232-.161.48-.32.745-.477a4.681,4.681,0,0,1,1.018-.425,9.74,9.74,0,0,1,1.563-.309,19.8,19.8,0,0,1,2.341-.126q1.374-.007,2.58.087a17.492,17.492,0,0,1,2.122.281,6.55,6.55,0,0,1,1.489.462,1.179,1.179,0,0,1,.681.631l2.669.027a2.643,2.643,0,0,1,.512.047c.149.031.221.069.221.115v.22l-3.431-.033a1.731,1.731,0,0,1-.92.739,9.33,9.33,0,0,1-1.881.58l-1.25-.174a1.466,1.466,0,0,1-.276-.065c-.072-.026-.107-.055-.107-.086s.1-.09.29-.145.411-.122.654-.2a6.545,6.545,0,0,0,.716-.283.971.971,0,0,0,.47-.39l-8.1-.08a7.726,7.726,0,0,1-.715.461,4.649,4.649,0,0,1-1.051.408,10.95,10.95,0,0,1-1.63.294,23,23,0,0,1-2.457.12c-.742,0-1.465-.025-2.173-.084a14.873,14.873,0,0,1-1.886-.269,5.886,5.886,0,0,1-1.353-.443c-.351-.176-.548-.378-.589-.607l-2.2-.023a2.812,2.812,0,0,1-.519-.046c-.152-.029-.229-.068-.229-.117v-.22l3,.029a1.615,1.615,0,0,1,.821-.605,9.48,9.48,0,0,1,1.525-.458l1.006.138c.306.043.457.093.458.151,0,.031-.062.069-.188.116s-.278.1-.451.165a4.092,4.092,0,0,0-.5.226,1.058,1.058,0,0,0-.366.293Zm-7.412.3a.8.8,0,0,0,.4.373,3.192,3.192,0,0,0,.763.258,7.839,7.839,0,0,0,1.029.148q.574.047,1.2.044a12.477,12.477,0,0,0,1.273-.063,7.38,7.38,0,0,0,.952-.161,4.46,4.46,0,0,0,.716-.237,3.977,3.977,0,0,0,.547-.292Zm17.631-.2a.827.827,0,0,0-.436-.384,3.94,3.94,0,0,0-.878-.277,9.73,9.73,0,0,0-1.245-.167q-.708-.055-1.564-.051a12.062,12.062,0,0,0-1.31.068,6.74,6.74,0,0,0-.953.173,3.492,3.492,0,0,0-.684.253,4.734,4.734,0,0,0-.525.309Z" transform="translate(-714.093 -2615.391)" fill="#fcb048"/>
        </g>
        <path id="Path_31369" data-name="Path 31369" d="M598.8,2589.35c-10.569,0-21.574.93-23.334,2.73a2.1,2.1,0,0,1,.192.2c1.484-1.25,10.571-2.509,23.142-2.509,12.894,0,22.126,1.324,23.245,2.6a2.132,2.132,0,0,1,.177-.2C620.766,2590.314,609.555,2589.35,598.8,2589.35Z" transform="translate(-575.077 -2589.017)" fill="url(#linear-gradient-46)"/>
      </g>
      <g id="Group_39783" data-name="Group 39783" transform="translate(5.686 5.522)">
        <path id="Path_31370" data-name="Path 31370" d="M663.159,2543.743V2549c0,1.7,10.612,3.076,23.7,3.076s23.7-1.377,23.7-3.076v-5.258Z" transform="translate(-663.145 -2540.667)" fill="url(#linear-gradient-23)"/>
        <ellipse id="Ellipse_2878" data-name="Ellipse 2878" cx="23.704" cy="3.076" rx="23.704" ry="3.076" transform="translate(0.014)" fill="url(#linear-gradient-24)"/>
        <path id="Path_31371" data-name="Path 31371" d="M686.647,2542.712c-11.594,0-23.717-1.107-23.717-3.243,0-.117.042-.324.159-.324s.067.161.067.279c0,1.354,9.648,2.864,23.491,2.864s23.491-1.509,23.491-2.864c0-.117.02-.227.137-.227s.089.156.089.274C710.365,2541.606,698.241,2542.712,686.647,2542.712Z" transform="translate(-662.93 -2536.347)" fill="url(#linear-gradient-25)"/>
        <g id="Group_39782" data-name="Group 39782" transform="translate(8.786 1.911)">
          <path id="Path_31372" data-name="Path 31372" d="M820.633,2525.844c.233-.161.48-.32.745-.477a4.68,4.68,0,0,1,1.018-.425,9.687,9.687,0,0,1,1.563-.309,19.739,19.739,0,0,1,2.341-.127q1.374-.007,2.58.087a17.593,17.593,0,0,1,2.122.281,6.566,6.566,0,0,1,1.489.462,1.178,1.178,0,0,1,.681.631l2.669.027a2.623,2.623,0,0,1,.512.047c.149.03.221.069.222.115v.22l-3.431-.033a1.73,1.73,0,0,1-.92.738,9.3,9.3,0,0,1-1.881.581l-1.25-.174a1.445,1.445,0,0,1-.276-.065c-.072-.026-.107-.055-.107-.086s.1-.091.29-.145.411-.121.654-.2a6.547,6.547,0,0,0,.716-.283.97.97,0,0,0,.47-.39l-8.1-.08a7.642,7.642,0,0,1-.715.461,4.651,4.651,0,0,1-1.051.408,10.972,10.972,0,0,1-1.63.295,23.072,23.072,0,0,1-2.457.12c-.742,0-1.465-.024-2.173-.084a14.961,14.961,0,0,1-1.886-.269,5.884,5.884,0,0,1-1.353-.443c-.351-.176-.548-.378-.589-.607l-2.2-.023a2.854,2.854,0,0,1-.519-.046c-.152-.029-.229-.068-.229-.117v-.219l3,.029a1.615,1.615,0,0,1,.821-.605,9.406,9.406,0,0,1,1.525-.459l1.006.138c.306.043.457.093.458.151,0,.031-.062.07-.188.116s-.278.1-.451.165a4.083,4.083,0,0,0-.5.226,1.058,1.058,0,0,0-.366.293Zm-7.412.3a.8.8,0,0,0,.4.373,3.182,3.182,0,0,0,.763.258,7.674,7.674,0,0,0,1.028.148q.574.048,1.2.044a12.415,12.415,0,0,0,1.273-.063,7.375,7.375,0,0,0,.953-.161,4.488,4.488,0,0,0,.716-.236,3.98,3.98,0,0,0,.547-.293Zm17.631-.2a.826.826,0,0,0-.436-.384,3.925,3.925,0,0,0-.878-.277,9.736,9.736,0,0,0-1.245-.167q-.708-.055-1.564-.051a12.058,12.058,0,0,0-1.311.068,6.778,6.778,0,0,0-.953.173,3.494,3.494,0,0,0-.684.253,4.861,4.861,0,0,0-.525.309Z" transform="translate(-807.941 -2524.507)" fill="#fcb048"/>
        </g>
        <path id="Path_31373" data-name="Path 31373" d="M692.646,2498.466c-10.569,0-21.574.93-23.334,2.73a2.123,2.123,0,0,1,.192.2c1.484-1.25,10.571-2.509,23.142-2.509,12.894,0,22.126,1.324,23.245,2.605a2.159,2.159,0,0,1,.177-.2C714.614,2499.43,703.4,2498.466,692.646,2498.466Z" transform="translate(-668.925 -2498.133)" fill="url(#linear-gradient-50)"/>
      </g>
      <g id="Group_39785" data-name="Group 39785" transform="translate(2.728)">
        <path id="Path_31374" data-name="Path 31374" d="M614.344,2452.592v5.258c0,1.7,10.612,3.076,23.7,3.076s23.7-1.377,23.7-3.076v-5.258Z" transform="translate(-614.33 -2449.516)" fill="url(#linear-gradient-23)"/>
        <ellipse id="Ellipse_2879" data-name="Ellipse 2879" cx="23.704" cy="3.076" rx="23.704" ry="3.076" transform="translate(0.014)" fill="url(#linear-gradient-24)"/>
        <path id="Path_31375" data-name="Path 31375" d="M637.833,2451.56c-11.594,0-23.717-1.107-23.717-3.243,0-.117.042-.323.159-.323s.067.161.067.279c0,1.355,9.648,2.864,23.491,2.864s23.491-1.509,23.491-2.864c0-.117.02-.227.137-.227s.089.156.089.274C661.551,2450.454,649.427,2451.56,637.833,2451.56Z" transform="translate(-614.116 -2445.195)" fill="url(#linear-gradient-25)"/>
        <g id="Group_39784" data-name="Group 39784" transform="translate(8.786 1.911)">
          <path id="Path_31376" data-name="Path 31376" d="M771.819,2434.693c.232-.161.48-.32.745-.477a4.7,4.7,0,0,1,1.018-.424,9.711,9.711,0,0,1,1.563-.309,19.8,19.8,0,0,1,2.341-.126q1.374-.007,2.58.087a17.49,17.49,0,0,1,2.121.281,6.564,6.564,0,0,1,1.49.462,1.179,1.179,0,0,1,.681.631l2.669.027a2.64,2.64,0,0,1,.512.048c.149.031.221.069.222.115v.22l-3.431-.033a1.727,1.727,0,0,1-.92.739,9.308,9.308,0,0,1-1.881.581l-1.25-.174a1.445,1.445,0,0,1-.276-.065c-.072-.026-.107-.055-.107-.086s.1-.091.29-.145.412-.121.655-.2a6.576,6.576,0,0,0,.716-.283.972.972,0,0,0,.47-.39l-8.1-.08a7.726,7.726,0,0,1-.715.462,4.672,4.672,0,0,1-1.051.408,11.01,11.01,0,0,1-1.63.294,23.074,23.074,0,0,1-2.457.12c-.742,0-1.465-.024-2.173-.084a14.923,14.923,0,0,1-1.886-.269,5.9,5.9,0,0,1-1.353-.443c-.351-.176-.548-.378-.589-.606l-2.2-.023a2.855,2.855,0,0,1-.519-.046c-.151-.029-.229-.068-.229-.117v-.22l3,.029a1.614,1.614,0,0,1,.821-.605,9.406,9.406,0,0,1,1.525-.458l1.006.138c.306.043.457.093.458.151,0,.031-.062.07-.188.116s-.278.1-.451.166a4.044,4.044,0,0,0-.5.226,1.061,1.061,0,0,0-.366.293Zm-7.412.3a.8.8,0,0,0,.4.373,3.18,3.18,0,0,0,.763.258,7.8,7.8,0,0,0,1.028.148q.574.047,1.2.044a12.422,12.422,0,0,0,1.273-.063,7.34,7.34,0,0,0,.953-.161,4.486,4.486,0,0,0,.716-.236,4.033,4.033,0,0,0,.547-.292Zm17.631-.2a.824.824,0,0,0-.436-.384,3.926,3.926,0,0,0-.878-.277,9.687,9.687,0,0,0-1.245-.167q-.708-.054-1.564-.051a12.064,12.064,0,0,0-1.311.068,6.775,6.775,0,0,0-.953.173,3.491,3.491,0,0,0-.684.253,4.81,4.81,0,0,0-.525.309Z" transform="translate(-759.127 -2433.357)" fill="#fcb048"/>
        </g>
        <path id="Path_31377" data-name="Path 31377" d="M643.832,2407.314c-10.569,0-21.574.93-23.334,2.73a2.145,2.145,0,0,1,.192.2c1.484-1.25,10.57-2.509,23.142-2.509,12.894,0,22.126,1.324,23.245,2.6a2.17,2.17,0,0,1,.177-.2C665.8,2408.279,654.589,2407.314,643.832,2407.314Z" transform="translate(-620.111 -2406.981)" fill="url(#linear-gradient-54)"/>
      </g>
      <g id="Group_39787" data-name="Group 39787" transform="translate(52.378 6.697)">
        <path id="Path_31378" data-name="Path 31378" d="M1438.134,2513.768l-4.284,3.047c-1.384.985,3.645,10.431,11.233,21.1s14.861,18.518,16.246,17.533l4.284-3.047Z" transform="translate(-1433.62 -2513.682)" fill="url(#linear-gradient-55)"/>
        <path id="Path_31379" data-name="Path 31379" d="M1532.043,2551.106c-1.384.985-8.658-6.865-16.246-17.533s-12.617-20.114-11.232-21.1,8.658,6.865,16.246,17.533S1533.428,2550.121,1532.043,2551.106Z" transform="translate(-1500.051 -2512.389)" fill="url(#linear-gradient-56)"/>
        <path id="Path_31380" data-name="Path 31380" d="M1513.842,2533.661c-6.72-9.448-12.845-19.969-11.1-21.207.1-.068.288-.154.356-.058s-.093.148-.188.216c-1.1.785,3.258,9.521,11.282,20.8s14.846,18.268,15.95,17.483c.1-.068.2-.115.265-.02s-.076.164-.172.231C1528.491,2552.347,1520.562,2543.109,1513.842,2533.661Z" transform="translate(-1498.269 -2512.354)" fill="url(#linear-gradient-57)"/>
        <g id="Group_39786" data-name="Group 39786" transform="translate(9.361 7.259)">
          <path id="Path_31381" data-name="Path 31381" d="M1595.584,2642.586c.266.1.539.206.82.331a4.72,4.72,0,0,1,.936.584,9.734,9.734,0,0,1,1.157,1.094,19.769,19.769,0,0,1,1.46,1.834q.8,1.116,1.424,2.153a17.574,17.574,0,0,1,1,1.892,6.568,6.568,0,0,1,.487,1.481,1.18,1.18,0,0,1-.12.921l1.525,2.191a2.617,2.617,0,0,1,.258.444c.062.139.072.22.034.247l-.178.128-1.962-2.815a1.729,1.729,0,0,1-1.135-.321,9.317,9.317,0,0,1-1.564-1.2l-.583-1.119a1.459,1.459,0,0,1-.107-.263c-.02-.074-.017-.119.008-.137s.13.026.286.152.338.265.544.417a6.621,6.621,0,0,0,.646.419.973.973,0,0,0,.59.157l-4.629-6.646a7.642,7.642,0,0,1-.791-.315,4.642,4.642,0,0,1-.942-.62,10.95,10.95,0,0,1-1.184-1.157,23.078,23.078,0,0,1-1.522-1.933q-.65-.9-1.191-1.819a14.924,14.924,0,0,1-.874-1.692,5.889,5.889,0,0,1-.423-1.359.949.949,0,0,1,.153-.831l-1.255-1.8a2.884,2.884,0,0,1-.264-.449c-.064-.141-.077-.226-.037-.255l.178-.128,1.718,2.465a1.616,1.616,0,0,1,.969.319,9.411,9.411,0,0,1,1.257.977l.471.9c.142.274.189.427.142.46-.025.018-.092-.01-.2-.086s-.243-.167-.4-.271a4.106,4.106,0,0,0-.474-.277,1.066,1.066,0,0,0-.451-.129Zm-4.54-5.866a.8.8,0,0,0-.072.541,3.177,3.177,0,0,0,.233.771,7.807,7.807,0,0,0,.475.924q.294.5.659,1a12.5,12.5,0,0,0,.789,1,7.366,7.366,0,0,0,.683.682,4.444,4.444,0,0,0,.608.447,3.99,3.99,0,0,0,.555.276Zm10.38,14.253a.825.825,0,0,0,.06-.578,3.939,3.939,0,0,0-.283-.876,9.69,9.69,0,0,0-.585-1.111q-.366-.609-.865-1.3a12.058,12.058,0,0,0-.815-1.029,6.769,6.769,0,0,0-.693-.676,3.464,3.464,0,0,0-.6-.411,4.853,4.853,0,0,0-.556-.248Z" transform="translate(-1588.131 -2632.17)" fill="#fcb048"/>
        </g>
        <path id="Path_31382" data-name="Path 31382" d="M1526.776,2536.093c-6.126-8.613-13.262-17.041-15.75-17.432a2.145,2.145,0,0,1-.053.275c1.879.484,8.171,7.159,15.458,17.4,7.474,10.507,11.746,18.8,11.351,20.452a2.083,2.083,0,0,1,.266.028C1538.724,2554.553,1533.011,2544.858,1526.776,2536.093Z" transform="translate(-1506.287 -2518.279)" fill="url(#linear-gradient-58)"/>
      </g>
    </g>
    <g id="Group_39802" data-name="Group 39802" transform="translate(412.748 512.334)">
      <g id="Group_39801" data-name="Group 39801" transform="translate(0)">
        <g id="Group_39792" data-name="Group 39792" transform="translate(13.556 32.205)">
          <g id="Group_39789" data-name="Group 39789" transform="translate(38.468 24.903)">
            <path id="Path_31383" data-name="Path 31383" d="M1596.492,2740.254c.022-.66,1.371-1.383,2.15-1.046a2.039,2.039,0,0,1,.549.449,6.337,6.337,0,0,1,.861,1.037c.9,1.381,2.982,2.683,2.739,3.16-.175.343-1.5.155-2.52-.36-.819-.414-.811-.723-2.16-1.8C1596.919,2740.741,1596.479,2740.636,1596.492,2740.254Z" transform="translate(-1596.244 -2737.051)" fill="url(#linear-gradient-59)"/>
            <path id="Path_31384" data-name="Path 31384" d="M1592.4,2706.119l.988,1.625a.9.9,0,0,0,1,.4.583.583,0,0,0,.347-.872l-1.455-2.341Z" transform="translate(-1592.399 -2704.934)" fill="url(#linear-gradient-60)"/>
          </g>
          <g id="Group_39791" data-name="Group 39791">
            <path id="Path_31385" data-name="Path 31385" d="M958.671,2295.533c-3.083,1.35-.243,9.877,8.515,10.18,10.613.367,22.626,5.521,28.828,14.976.622-.278,2.037-.574,1.664-1.3-5.132-10.029-10.737-16.629-16.157-19.641C973.327,2295.19,967.449,2291.691,958.671,2295.533Z" transform="translate(-957.468 -2293.888)" fill="url(#linear-gradient-61)"/>
            <g id="Group_39790" data-name="Group 39790" transform="translate(0)" opacity="0.3" style="mix-blend-mode: multiply;isolation: isolate">
              <path id="Path_31386" data-name="Path 31386" d="M986.04,2307.4c1.154,1.271,1.985-.305,3.063-1.174a28.969,28.969,0,0,0-7.58-6.483c-8.195-4.554-14.073-8.052-22.851-4.211-3.083,1.35-.243,9.877,8.515,10.18a39.374,39.374,0,0,1,9.684,1.6C979.962,2306.514,983.249,2303.463,986.04,2307.4Z" transform="translate(-957.469 -2293.888)" fill="url(#linear-gradient-62)"/>
            </g>
          </g>
        </g>
        <g id="Group_39793" data-name="Group 39793" transform="translate(7.906 31.708)">
          <path id="Path_31387" data-name="Path 31387" d="M867.359,2294.6l-.648-.234s-2.152-3.773-2.479-4.725c-.4-1.161,8.206-1.073,11.748-3.4,3.722-2.449-.678,4.092-.678,4.092Z" transform="translate(-864.219 -2285.688)" fill="url(#linear-gradient-63)"/>
        </g>
        <g id="Group_39796" data-name="Group 39796" transform="translate(0 7.835)">
          <path id="Path_31388" data-name="Path 31388" d="M1023.327,1927.744s2.721,1.291,4.087,7.81c1.027,4.9,5.027,9.959,5.027,9.959l-.514,3.437-4.461-.6-1.2-1.474-1.343-10.079Z" transform="translate(-1005.781 -1925.557)" fill="url(#linear-gradient-64)"/>
          <g id="Group_39795" data-name="Group 39795" transform="translate(1.016)">
            <path id="Path_31389" data-name="Path 31389" d="M761.624,1891.733s-7.285-1.357-9.992,6.662c-2.5,7.4-.726,11.136,3.9,19.433.465.834,1.54,1.175,1.591,1.29q.413.928.821,1.925a35.352,35.352,0,0,1,14.951-3.6s-2.118-14.675-3.485-19.749C768,1892.46,763.561,1891.87,761.624,1891.733Z" transform="translate(-750.497 -1891.646)" fill="url(#linear-gradient-65)"/>
            <g id="Group_39794" data-name="Group 39794" transform="translate(0 5.281)" opacity="0.3" style="mix-blend-mode: multiply;isolation: isolate">
              <path id="Path_31390" data-name="Path 31390" d="M767.309,1996.105c-3.461.646-7.6-.863-8.52-3.311a38.28,38.28,0,0,1-1.388-5.219c-.547-2.225-1.006-2.7-2.994-5.057a13.136,13.136,0,0,1-2.18-3.7,13.147,13.147,0,0,0-.594,1.468c-2.5,7.4-.726,11.136,3.9,19.433.465.834,1.54,1.175,1.591,1.29q.413.928.822,1.924a35.35,35.35,0,0,1,14.951-3.6s-.386-2.325-.847-5.568A8.357,8.357,0,0,1,767.309,1996.105Z" transform="translate(-750.497 -1978.818)" fill="url(#linear-gradient-66)"/>
            </g>
          </g>
          <path id="Path_31391" data-name="Path 31391" d="M946.95,2204.708a6.779,6.779,0,0,0,2.373.4,5.4,5.4,0,0,1,2.144.013c1.1.2,3.376.233,2.538-1.211a3.482,3.482,0,0,0-4.181-1.4,5.627,5.627,0,0,1-2.1.708Z" transform="translate(-934.031 -2183.435)" fill="url(#linear-gradient-67)"/>
          <path id="Path_31392" data-name="Path 31392" d="M739.546,1932.929s-4.037-.781-5.739,12.478c-.882,6.877,5.233,7.807,13.118,7.349.792-.845.848-3.151.848-3.151s-9.881.834-8.441-4.495C740.946,1939.137,742.015,1933.026,739.546,1932.929Z" transform="translate(-733.722 -1930.42)" fill="url(#linear-gradient-68)"/>
          <path id="Path_31393" data-name="Path 31393" d="M900.333,1906.713c-.055,0-.11,0-.167-.005-2.022-.126-3.725-2.441-3.8-2.54a.1.1,0,1,1,.16-.116c.017.023,1.72,2.339,3.649,2.459a1.478,1.478,0,0,0,1.219-.393,2.2,2.2,0,0,0,.438-1.55.1.1,0,0,1,.2-.021,2.36,2.36,0,0,1-.491,1.707A1.6,1.6,0,0,1,900.333,1906.713Z" transform="translate(-886.497 -1903.262)" fill="#9f73f8"/>
          <path id="Path_31394" data-name="Path 31394" d="M865.168,2289.11a.1.1,0,0,1-.041-.188c.081-.037,8.149-3.671,14.258-3.259a.1.1,0,0,1,.092.1.1.1,0,0,1-.1.092c-6.066-.407-14.083,3.2-14.163,3.241A.1.1,0,0,1,865.168,2289.11Z" transform="translate(-857.111 -2261.761)" fill="#ae87f9"/>
        </g>
        <g id="Group_39797" data-name="Group 39797" transform="translate(11.662)">
          <path id="Path_31395" data-name="Path 31395" d="M927.569,1835.282a17.544,17.544,0,0,1-.513,3.538c-.319.527.3,1.407,1.713,1.924s.755-2.917.755-2.917Z" transform="translate(-926.927 -1830.862)" fill="url(#linear-gradient-69)"/>
          <path id="Path_31396" data-name="Path 31396" d="M933.389,1767.526c1.727-.627,2.316-4.714,1.461-5.163-.491-.257-.937.962-2.757,1.43-1.417.364-2.319-.074-2.923.635a2.135,2.135,0,0,0-.449,1.33,5.372,5.372,0,0,0,.225,1.192c.144.56.129.537.176.7a7.479,7.479,0,0,0,.939,1.985,5.237,5.237,0,0,1,.536-.729,4.607,4.607,0,0,1,.88-.776A5.842,5.842,0,0,1,933.389,1767.526Z" transform="translate(-928.569 -1762.328)" fill="url(#linear-gradient-70)"/>
          <path id="Path_31397" data-name="Path 31397" d="M926.9,1829.762a2.825,2.825,0,0,0,1.983,1.956c1.44.361,2.662-2.736,1.977-3.7a1.87,1.87,0,0,0-1.334-.627c-.315-.012-.452.077-.966.048-.475-.027-.583-.115-.751-.047-.21.086-.441.389-.462,1.4a.806.806,0,0,0-.735-.533.506.506,0,0,0-.247.123C926.051,1828.685,926.233,1829.252,926.9,1829.762Z" transform="translate(-926.215 -1823.429)" fill="url(#linear-gradient-71)"/>
        </g>
        <g id="Group_39798" data-name="Group 39798" transform="translate(13.045 23.397)">
          <path id="Path_31398" data-name="Path 31398" d="M949.312,2275.439a.177.177,0,0,0-.176.073c-.005.008-.081.334-.085.343a.167.167,0,0,0,.057.2l5.348,3.826,12.524-.833-5.422-1.273Z" transform="translate(-949.039 -2267.746)" fill="#26264f"/>
          <path id="Path_31399" data-name="Path 31399" d="M950.715,2274.717a.167.167,0,0,0-.125.3l5.348,3.826,12.524-.833-5.422-1.273Z" transform="translate(-950.431 -2267.069)" fill="#444b8c"/>
          <path id="Path_31400" data-name="Path 31400" d="M1036.049,2160.11l4.571-11.341a.422.422,0,0,1,.456-.26l14,2.14a.422.422,0,0,1,.333.563l-3.934,10.674a.422.422,0,0,1-.448.273l-14.674-1.826Z" transform="translate(-1030.777 -2148.505)" fill="url(#linear-gradient-72)"/>
          <path id="Path_31401" data-name="Path 31401" d="M1038.466,2165l4.68-11.588a.423.423,0,0,1,.455-.259l14,2.14a.422.422,0,0,1,.333.563L1054,2166.536a.422.422,0,0,1-.446.274Z" transform="translate(-1033.048 -2152.871)" fill="#26264f"/>
          <path id="Path_31402" data-name="Path 31402" d="M1038.466,2308.39l15.092,1.8a.422.422,0,0,0,.446-.273l1.187-3.22c-5,1.064-10.414-.313-15.672-.917Z" transform="translate(-1033.048 -2296.256)" fill="#1f1f44"/>
        </g>
        <g id="Group_39800" data-name="Group 39800" transform="translate(10.041 34.365)">
          <path id="Path_31403" data-name="Path 31403" d="M1449.124,2408.626c.02-.737-.174-1.62,1.534-1.679a21.288,21.288,0,0,1,5,.911c2.506.655,2.605,2.31-1.3,2.106C1451.812,2409.831,1449.1,2409.674,1449.124,2408.626Z" transform="translate(-1415.822 -2402.255)" fill="url(#linear-gradient-73)"/>
          <path id="Path_31404" data-name="Path 31404" d="M1466.246,2413.751a.688.688,0,0,1-.76.551c-.762-.127-.507-.459-.41-.845s-.115-.741.76-.551A.663.663,0,0,1,1466.246,2413.751Z" transform="translate(-1430.696 -2407.806)" fill="url(#linear-gradient-74)"/>
          <path id="Path_31405" data-name="Path 31405" d="M1348.609,2352.619l.756.115a38.615,38.615,0,0,1,4.89,2.867c.784.4,1.147,3.173-1.308,2.5a14.518,14.518,0,0,0-5.979.2Z" transform="translate(-1319.856 -2351.22)" fill="url(#linear-gradient-75)"/>
          <path id="Path_31406" data-name="Path 31406" d="M920.273,2341.416c-4.848.595-11.744-.356-13.151-.573-1.8-.277-7.583,2.317-7.646,3.954,0,0-.53,2.517,4.93,4.527l13.419.973c4.685-1.118,11.8-3.716,12.363-5.641C931.365,2340.66,926.017,2340.71,920.273,2341.416Z" transform="translate(-899.463 -2340.139)" fill="url(#linear-gradient-76)"/>
          <g id="Group_39799" data-name="Group 39799" transform="translate(5.187)" opacity="0.3" style="mix-blend-mode: multiply;isolation: isolate">
            <path id="Path_31407" data-name="Path 31407" d="M990.682,2333.29c3.483.725,5.007-1.456,9.427-.825,2.864.408,3.57,1.516,5.251,1.027a5.323,5.323,0,0,0,3-2.791,25.109,25.109,0,0,0-7.664.114c-4.709.578-11.35-.3-13.016-.552-.049-.008-.992-.725-.992-.725s-.935.2-1.616.379A12.914,12.914,0,0,0,990.682,2333.29Z" transform="translate(-985.073 -2329.538)" fill="url(#linear-gradient-77)"/>
          </g>
        </g>
      </g>
    </g>
    <g id="Group_39804" data-name="Group 39804" transform="translate(412.153 462.853)">
      <path id="Path_31408" data-name="Path 31408" d="M753.264,959.6c0-7.718-6.571-13.974-14.676-13.974s-14.676,6.257-14.676,13.974a13.766,13.766,0,0,0,6.135,11.365,5.765,5.765,0,0,1,2.531,4.757v1.069A4.207,4.207,0,0,0,736.785,981h3.606a4.207,4.207,0,0,0,4.207-4.207v-1.069a5.765,5.765,0,0,1,2.531-4.757A13.766,13.766,0,0,0,753.264,959.6Z" transform="translate(-723.912 -945.627)" fill="#f4f7fa" opacity="0.75"/>
      <ellipse id="Ellipse_2880" data-name="Ellipse 2880" cx="3.256" cy="1.724" rx="3.256" ry="1.724" transform="translate(11.421 39.879)" fill="url(#linear-gradient-78)"/>
      <path id="Path_31409" data-name="Path 31409" d="M894.757,1581.487v1.76a1.546,1.546,0,0,0,.876,1.4,8.25,8.25,0,0,0,3.79.7,8.515,8.515,0,0,0,3.023-.527,1.572,1.572,0,0,0,.961-1.456v-.974Z" transform="translate(-884.406 -1542.963)" fill="url(#linear-gradient-79)"/>
      <path id="Path_31410" data-name="Path 31410" d="M894.757,1583.029a1.715,1.715,0,0,0,.456.319c.837.4,6.321,1.291,7.643.794a1.781,1.781,0,0,0,.462-.255,1.6,1.6,0,0,0,.09-.525v-.974l-8.651-.9Z" transform="translate(-884.406 -1542.963)" opacity="0.3" fill="url(#linear-gradient-80)" style="mix-blend-mode: multiply;isolation: isolate"/>
      <path id="Path_31411" data-name="Path 31411" d="M886.967,1561.65a.825.825,0,0,0-.911.821v.05a1.735,1.735,0,0,0,.983,1.568c.837.4,6.321,1.291,7.644.794a1.6,1.6,0,0,0,1.079-1.533v-.04a.826.826,0,0,0-.74-.821Z" transform="translate(-876.232 -1524.324)" fill="url(#linear-gradient-81)"/>
      <path id="Path_31412" data-name="Path 31412" d="M897.185,1562.489l-8.054-.839a.824.824,0,0,0-.772.363,1.723,1.723,0,0,0,.844.885c.837.4,6.554,1.408,7.643.894a1.889,1.889,0,0,0,.935-.947A.824.824,0,0,0,897.185,1562.489Z" transform="translate(-878.396 -1524.324)" opacity="0.3" fill="url(#linear-gradient-80)" style="mix-blend-mode: multiply;isolation: isolate"/>
      <path id="Path_31413" data-name="Path 31413" d="M886.652,1514.651a.6.6,0,0,0-.6.6v1.379a1.735,1.735,0,0,0,.983,1.568c.837.4,6.554,1.408,7.644.894a1.819,1.819,0,0,0,1.079-1.633v-2.208a.6.6,0,0,0-.6-.6Z" transform="translate(-876.232 -1480.176)" fill="url(#linear-gradient-80)"/>
      <ellipse id="Ellipse_2881" data-name="Ellipse 2881" cx="4.733" cy="1.119" rx="4.733" ry="1.119" transform="translate(9.944 33.785)" fill="url(#linear-gradient-84)"/>
      <path id="Path_31414" data-name="Path 31414" d="M753.264,959.6c0-7.718-6.571-13.974-14.676-13.974s-14.676,6.257-14.676,13.974a13.766,13.766,0,0,0,6.135,11.365,5.765,5.765,0,0,1,2.531,4.757v1.069A4.207,4.207,0,0,0,736.785,981h3.606a4.207,4.207,0,0,0,4.207-4.207v-1.069a5.765,5.765,0,0,1,2.531-4.757A13.766,13.766,0,0,0,753.264,959.6Z" transform="translate(-723.912 -945.627)" fill="url(#linear-gradient-85)"/>
      <ellipse id="Ellipse_2882" data-name="Ellipse 2882" cx="3.463" cy="0.819" rx="3.463" ry="0.819" transform="translate(11.213 33.203)" fill="#f4f7fa" opacity="0.5" style="mix-blend-mode: soft-light;isolation: isolate"/>
      <g id="Group_39803" data-name="Group 39803" transform="translate(11.026 12.44)">
        <path id="Path_31415" data-name="Path 31415" d="M908.655,1202.027a.2.2,0,0,1-.2-.175l-2.548-19.812a.2.2,0,1,1,.4-.051l2.548,19.812a.2.2,0,0,1-.173.224Z" transform="translate(-905.908 -1179.945)" fill="url(#linear-gradient-86)"/>
        <path id="Path_31416" data-name="Path 31416" d="M974.266,1202.026l-.026,0a.2.2,0,0,1-.173-.224l2.548-19.812a.2.2,0,0,1,.4.051l-2.548,19.812A.2.2,0,0,1,974.266,1202.026Z" transform="translate(-969.936 -1179.945)" fill="url(#linear-gradient-87)"/>
        <path id="Path_31417" data-name="Path 31417" d="M917.686,1153.038a.2.2,0,0,1-.167-.09l-.7-1.067a.032.032,0,0,0-.029-.016.031.031,0,0,0-.027.017l-.464.778a.432.432,0,0,1-.732.018l-.637-.956a.033.033,0,0,0-.027-.016.034.034,0,0,0-.027.015l-.56.809a.433.433,0,0,1-.355.187h0a.434.434,0,0,1-.356-.186l-.807-1.156a.037.037,0,0,0-.029-.015.032.032,0,0,0-.027.017l-.737,1.272a.2.2,0,1,1-.346-.2l.737-1.272a.432.432,0,0,1,.73-.031l.807,1.156a.032.032,0,0,0,.027.015.032.032,0,0,0,.026-.015l.56-.809a.432.432,0,0,1,.716.007l.637.956c.007.011.018.02.029.016a.031.031,0,0,0,.027-.017l.464-.777a.432.432,0,0,1,.734-.016l.7,1.067a.2.2,0,0,1-.167.31Z" transform="translate(-911.281 -1150.959)" fill="url(#linear-gradient-88)"/>
      </g>
      <path id="Path_31418" data-name="Path 31418" d="M738.854,1005.862c.314-5.386,9.395-6.647,9.356-11.457-.024-2.963-3.632-5.163-4.4-5.6-5.677-3.247-12.665.5-14.108-2.151a2.478,2.478,0,0,1-.095-1.79,3.836,3.836,0,0,1,.96-1.723,13.606,13.606,0,0,0-.518,23.066,5.765,5.765,0,0,1,2.531,4.757v1.069a4.207,4.207,0,0,0,4.207,4.207h3.606a4.207,4.207,0,0,0,4.207-4.207v-.855a2.761,2.761,0,0,1-1.691.64C740.738,1011.8,738.7,1008.543,738.854,1005.862Z" transform="translate(-723.912 -980.865)" opacity="0.3" fill="url(#linear-gradient-89)" style="mix-blend-mode: multiply;isolation: isolate"/>
      <ellipse id="Ellipse_2883" data-name="Ellipse 2883" cx="12.629" cy="12.179" rx="12.629" ry="12.179" transform="translate(2.282 2.34)" fill="#f4f7fa" opacity="0.44" style="mix-blend-mode: soft-light;isolation: isolate"/>
    </g>
  </g>
</svg>
