<svg xmlns="http://www.w3.org/2000/svg" xmlns:xlink="http://www.w3.org/1999/xlink" width="35" height="105" viewBox="0 0 35 105">
  <defs>
    <clipPath id="clip-Others">
      <rect width="35" height="105"/>
    </clipPath>
  </defs>
  <g id="Others" clip-path="url(#clip-Others)">
    <g id="Group_39980" data-name="Group 39980" opacity="0">
      <rect id="Rectangle_18669" data-name="Rectangle 18669" width="35" height="35" fill="#e3e3e3"/>
      <rect id="Rectangle_18672" data-name="Rectangle 18672" width="35" height="35" transform="translate(0 35)" fill="#d5d5d5"/>
      <rect id="Rectangle_18673" data-name="Rectangle 18673" width="35" height="35" transform="translate(0 70)" fill="#c6c6c6"/>
      <rect id="Rectangle_18670" data-name="Rectangle 18670" width="31" height="31" transform="translate(2 2)" fill="#b5b5b5"/>
      <rect id="Rectangle_18682" data-name="Rectangle 18682" width="31" height="31" transform="translate(2 37)" fill="#b5b5b5"/>
      <rect id="Rectangle_18683" data-name="Rectangle 18683" width="31" height="31" transform="translate(2 72)" fill="#b5b5b5"/>
    </g>
    <g id="Group_39962" data-name="Group 39962" transform="translate(1.799 1.799)">
      <path id="Subtraction_12" data-name="Subtraction 12" d="M15.5,31A15.5,15.5,0,1,1,31,15.5,15.518,15.518,0,0,1,15.5,31Zm0-29.108A13.614,13.614,0,0,0,5.873,25.127,13.615,13.615,0,0,0,25.128,5.873,13.522,13.522,0,0,0,15.5,1.892Zm8.427,16.853a3.262,3.262,0,1,1,2.288-.956A3.224,3.224,0,0,1,23.927,18.745Zm0-4.6A1.353,1.353,0,1,0,25.279,15.5,1.338,1.338,0,0,0,23.927,14.147Zm-8.427,4.6a3.262,3.262,0,1,1,2.289-.956A3.216,3.216,0,0,1,15.5,18.745Zm0-4.6A1.353,1.353,0,1,0,16.853,15.5,1.338,1.338,0,0,0,15.5,14.147Zm-8.427,4.6a3.262,3.262,0,1,1,2.289-.956A3.216,3.216,0,0,1,7.073,18.745Zm0-4.6A1.353,1.353,0,1,0,8.423,15.5,1.338,1.338,0,0,0,7.073,14.147Z" transform="translate(0.201 0.201)" fill="#007c3d"/>
    </g>
    <g id="Group_39963" data-name="Group 39963" transform="translate(1.799 36.799)">
      <path id="Subtraction_12-2" data-name="Subtraction 12" d="M15.5,31A15.5,15.5,0,1,1,31,15.5,15.518,15.518,0,0,1,15.5,31Zm0-29.108A13.614,13.614,0,0,0,5.873,25.127,13.615,13.615,0,0,0,25.128,5.873,13.522,13.522,0,0,0,15.5,1.892Zm8.427,16.853a3.262,3.262,0,1,1,2.288-.956A3.224,3.224,0,0,1,23.927,18.745Zm0-4.6A1.353,1.353,0,1,0,25.279,15.5,1.338,1.338,0,0,0,23.927,14.147Zm-8.427,4.6a3.262,3.262,0,1,1,2.289-.956A3.216,3.216,0,0,1,15.5,18.745Zm0-4.6A1.353,1.353,0,1,0,16.853,15.5,1.338,1.338,0,0,0,15.5,14.147Zm-8.427,4.6a3.262,3.262,0,1,1,2.289-.956A3.216,3.216,0,0,1,7.073,18.745Zm0-4.6A1.353,1.353,0,1,0,8.423,15.5,1.338,1.338,0,0,0,7.073,14.147Z" transform="translate(0.201 0.201)" fill="#fff200"/>
    </g>
    <g id="Group_39964" data-name="Group 39964" transform="translate(1.799 71.799)">
      <path id="Subtraction_12-3" data-name="Subtraction 12" d="M15.5,31A15.5,15.5,0,1,1,31,15.5,15.518,15.518,0,0,1,15.5,31Zm0-29.108A13.614,13.614,0,0,0,5.873,25.127,13.615,13.615,0,0,0,25.128,5.873,13.522,13.522,0,0,0,15.5,1.892Zm8.427,16.853a3.262,3.262,0,1,1,2.288-.956A3.224,3.224,0,0,1,23.927,18.745Zm0-4.6A1.353,1.353,0,1,0,25.279,15.5,1.338,1.338,0,0,0,23.927,14.147Zm-8.427,4.6a3.262,3.262,0,1,1,2.289-.956A3.216,3.216,0,0,1,15.5,18.745Zm0-4.6A1.353,1.353,0,1,0,16.853,15.5,1.338,1.338,0,0,0,15.5,14.147Zm-8.427,4.6a3.262,3.262,0,1,1,2.289-.956A3.216,3.216,0,0,1,7.073,18.745Zm0-4.6A1.353,1.353,0,1,0,8.423,15.5,1.338,1.338,0,0,0,7.073,14.147Z" transform="translate(0.201 0.201)" fill="#fff"/>
    </g>
  </g>
</svg>
