<svg xmlns="http://www.w3.org/2000/svg" width="201.539" height="200" viewBox="0 0 201.539 200">
  <g id="Group_19" data-name="Group 19" transform="translate(0 0)">
    <path id="Forma_1" data-name="Forma 1" d="M12.077,198.635A12.093,12.093,0,0,1,0,186.6V12.039A12.092,12.092,0,0,1,12.077,0h93.6a12.093,12.093,0,0,1,12.078,12.039V49.294h17.753a10.933,10.933,0,0,1,10.931,10.9v44.248a10.926,10.926,0,0,1-10.923,10.895l-17.761.021V186.6a12.093,12.093,0,0,1-12.077,12.039ZM9.057,186.6a3.055,3.055,0,0,0,3.019,3.009h93.6a3.054,3.054,0,0,0,3.02-3.009V170.043H9.057Zm0-25.581h99.635V115.367l-8.372.009L83.737,129.8a4.53,4.53,0,0,1-7.506-3.4V115.376l-9.466-.044h.025a10.928,10.928,0,0,1-10.934-10.895V60.191a10.929,10.929,0,0,1,10.934-10.9H108.7V37.619H9.057ZM65.466,58.877a1.826,1.826,0,0,0-.556,1.315v44.251a1.9,1.9,0,0,0,1.878,1.869h.021l13.97.065a4.529,4.529,0,0,1,4.508,4.515v5.586l10.357-9.01a4.551,4.551,0,0,1,2.97-1.114l36.891-.048a1.862,1.862,0,0,0,1.319-.553,1.836,1.836,0,0,0,.556-1.315V60.193a1.889,1.889,0,0,0-1.873-1.869H66.788A1.867,1.867,0,0,0,65.466,58.877ZM9.057,12.039V28.592H108.7V12.039a3.056,3.056,0,0,0-3.02-3.01h-93.6A3.055,3.055,0,0,0,9.057,12.039Zm45.3,167.037a4.524,4.524,0,1,1,4.524,4.51A4.516,4.516,0,0,1,54.356,179.076Zm57.373-87.284a4.524,4.524,0,1,1,4.524,4.51A4.516,4.516,0,0,1,111.729,91.792Zm-15.108,0a4.524,4.524,0,1,1,4.524,4.51A4.516,4.516,0,0,1,96.62,91.792Zm-15.093,0a4.523,4.523,0,1,1,4.523,4.51A4.516,4.516,0,0,1,81.528,91.792Z" transform="translate(43.5 1.365)" fill="#37474f"/>
    <path id="Shape_1_copy_6" data-name="Shape 1 copy 6" d="M194.7,194.128a3.422,3.422,0,1,1,3.422,3.407A3.414,3.414,0,0,1,194.7,194.128Zm-174.276-44.3a3.224,3.224,0,0,1,3.417-3.406,3.407,3.407,0,1,1,0,6.815A3.225,3.225,0,0,1,20.419,149.833Zm151.8-17.108a3.422,3.422,0,1,1,3.422,3.407A3.414,3.414,0,0,1,172.222,132.725ZM3.324,88.5a3.422,3.422,0,1,1,3.422,3.407A3.414,3.414,0,0,1,3.324,88.5ZM186.287,40.512a2.35,2.35,0,0,1-2.35-2.35V33.7h-3.42A3.224,3.224,0,0,1,177.1,30.29a3.224,3.224,0,0,1,3.417-3.407h3.42V22.418a2.35,2.35,0,0,1,2.35-2.35h2.129a2.35,2.35,0,0,1,2.35,2.35v4.464h3.421A3.224,3.224,0,0,1,197.6,30.29a3.224,3.224,0,0,1-3.417,3.407h-3.421v4.465a2.35,2.35,0,0,1-2.35,2.35ZM13.584,30.58A10.054,10.054,0,0,0,3.332,20.358c-4.442,0-4.442-6.814,0-6.814A10.054,10.054,0,0,0,13.584,3.322c0-4.429,6.836-4.429,6.836,0A10.054,10.054,0,0,0,30.671,13.544c4.442,0,4.442,6.814,0,6.814A10.054,10.054,0,0,0,20.419,30.58,3.241,3.241,0,0,1,17,33.9,3.241,3.241,0,0,1,13.584,30.58Zm0-13.629A16.158,16.158,0,0,1,17,20.358a16.158,16.158,0,0,1,3.417-3.406A16.183,16.183,0,0,1,17,13.544,16.183,16.183,0,0,1,13.585,16.951Z" transform="translate(0 0)" fill="#00b4f0"/>
  </g>
</svg>
