<svg xmlns="http://www.w3.org/2000/svg" width="100.77" height="100" viewBox="0 0 100.77 100">
  <g id="OTP" transform="translate(0 0)">
    <path id="Forma_1" data-name="Forma 1" d="M6.038,99.318A6.047,6.047,0,0,1,0,93.3V6.02A6.046,6.046,0,0,1,6.038,0h46.8a6.047,6.047,0,0,1,6.039,6.02V24.647h8.877A5.467,5.467,0,0,1,73.22,30.1V52.22a5.463,5.463,0,0,1-5.462,5.447l-8.881.01V93.3a6.047,6.047,0,0,1-6.039,6.02ZM4.529,93.3a1.527,1.527,0,0,0,1.51,1.5h46.8a1.527,1.527,0,0,0,1.51-1.5V85.022H4.529Zm0-12.791H54.346V57.683l-4.186,0L41.869,64.9a2.265,2.265,0,0,1-3.753-1.7V57.688l-4.733-.022H33.4a5.464,5.464,0,0,1-5.467-5.447V30.1A5.464,5.464,0,0,1,33.4,24.647H54.348V18.81H4.529Zm28.2-51.069a.913.913,0,0,0-.278.658V52.222a.948.948,0,0,0,.939.934h.01l6.985.033a2.265,2.265,0,0,1,2.254,2.257v2.793l5.179-4.505a2.276,2.276,0,0,1,1.485-.557l18.446-.024a.931.931,0,0,0,.66-.277.918.918,0,0,0,.278-.658V30.1a.945.945,0,0,0-.936-.934H33.394A.933.933,0,0,0,32.733,29.439ZM4.529,6.02V14.3H54.348V6.02a1.528,1.528,0,0,0-1.51-1.505H6.038A1.528,1.528,0,0,0,4.529,6.02ZM27.178,89.538a2.262,2.262,0,1,1,2.262,2.255A2.258,2.258,0,0,1,27.178,89.538ZM55.864,45.9a2.262,2.262,0,1,1,2.262,2.255A2.258,2.258,0,0,1,55.864,45.9Zm-7.554,0a2.262,2.262,0,1,1,2.262,2.255A2.258,2.258,0,0,1,48.31,45.9Zm-7.546,0a2.262,2.262,0,1,1,2.261,2.255A2.258,2.258,0,0,1,40.764,45.9Z" transform="translate(21.75 0.682)" fill="#37474f"/>
    <path id="Shape_1_copy_6" data-name="Shape 1 copy 6" d="M97.348,97.064a1.711,1.711,0,1,1,1.711,1.7A1.707,1.707,0,0,1,97.348,97.064ZM10.205,74.918a1.621,1.621,0,0,1,1.714-1.706,1.705,1.705,0,1,1,0,3.41A1.619,1.619,0,0,1,10.205,74.918Zm75.906-8.555a1.711,1.711,0,1,1,1.711,1.7A1.708,1.708,0,0,1,86.111,66.362ZM1.661,44.251a1.711,1.711,0,1,1,1.711,1.7A1.708,1.708,0,0,1,1.661,44.251Zm90.307-25.7v-1.7H90.253a1.6,1.6,0,0,1-1.7-1.7,1.6,1.6,0,0,1,1.7-1.7h1.715v-1.7a1.707,1.707,0,0,1,3.415,0v1.7h1.706a1.61,1.61,0,0,1,1.7,1.7,1.611,1.611,0,0,1-1.7,1.7H95.383v1.7a1.707,1.707,0,0,1-3.415,0ZM6.79,15.291a5.023,5.023,0,0,0-5.122-5.112,1.7,1.7,0,0,1,0-3.407A5.021,5.021,0,0,0,6.79,1.661a1.71,1.71,0,0,1,3.418,0,5.029,5.029,0,0,0,5.132,5.11,1.7,1.7,0,0,1,0,3.407,5.031,5.031,0,0,0-5.132,5.112A1.62,1.62,0,0,1,8.5,16.951,1.62,1.62,0,0,1,6.79,15.291Zm0-6.815a8.094,8.094,0,0,1,1.714,1.7,8,8,0,0,1,1.7-1.7,7.968,7.968,0,0,1-1.7-1.7A8.06,8.06,0,0,1,6.79,8.476Z" transform="translate(0 0)" fill="#007c3d"/>
  </g>
</svg>
