<svg xmlns="http://www.w3.org/2000/svg" width="14" height="16" viewBox="0 0 14 16">
  <g id="password" transform="translate(-32)">
    <g id="Group_35983" data-name="Group 35983" transform="translate(32)">
      <g id="Group_35982" data-name="Group 35982">
        <circle id="Ellipse_2671" data-name="Ellipse 2671" cx="0.625" cy="0.625" r="0.625" transform="translate(9.938 10.188)" fill="#37474f"/>
        <path id="Path_28100" data-name="Path 28100" d="M45.375,11.313A.625.625,0,0,0,46,10.688V8.375a2.5,2.5,0,0,0-2.5-2.5h-.751v-2.2a3.751,3.751,0,0,0-7.5,0v2.2H34.5a2.5,2.5,0,0,0-2.5,2.5V13.5A2.5,2.5,0,0,0,34.5,16h9A2.5,2.5,0,0,0,46,13.5a.625.625,0,0,0-1.25,0,1.251,1.251,0,0,1-1.25,1.25h-9a1.251,1.251,0,0,1-1.25-1.25V8.375a1.251,1.251,0,0,1,1.25-1.25h9a1.251,1.251,0,0,1,1.25,1.25v2.313A.625.625,0,0,0,45.375,11.313ZM41.5,5.875h-5v-2.2a2.5,2.5,0,0,1,5,0Z" transform="translate(-32)" fill="#37474f"/>
        <circle id="Ellipse_2672" data-name="Ellipse 2672" cx="0.625" cy="0.625" r="0.625" transform="translate(5.219 10.188)" fill="#37474f"/>
        <circle id="Ellipse_2673" data-name="Ellipse 2673" cx="0.625" cy="0.625" r="0.625" transform="translate(2.875 10.188)" fill="#37474f"/>
        <circle id="Ellipse_2674" data-name="Ellipse 2674" cx="0.625" cy="0.625" r="0.625" transform="translate(7.563 10.188)" fill="#37474f"/>
      </g>
    </g>
  </g>
</svg>
