<svg xmlns="http://www.w3.org/2000/svg"  viewBox="0 0 18.393 22"><defs><style>.a{fill:#fff;}</style></defs><path class="a" d="M21.188,4.324,16.944.2a.718.718,0,0,0-.5-.2H5.122A2.093,2.093,0,0,0,3,2.062V19.937A2.093,2.093,0,0,0,5.122,22H19.271a2.093,2.093,0,0,0,2.122-2.062V4.812a.678.678,0,0,0-.205-.488Zm-1.21,15.613a.7.7,0,0,1-.707.688H5.122a.7.7,0,0,1-.707-.687V2.062a.7.7,0,0,1,.707-.687H15.734v2.75A1.4,1.4,0,0,0,17.149,5.5h2.83Z" transform="translate(-3 0)"/><path class="a" d="M10.277,11a2.277,2.277,0,1,0,2.277,2.277A2.277,2.277,0,0,0,10.277,11Zm0,3.036a.759.759,0,1,1,.759-.759A.759.759,0,0,1,10.277,14.036Z" transform="translate(-4.54 -3.619)"/><path class="a" d="M10.277,21a2.277,2.277,0,1,0,2.277,2.277A2.277,2.277,0,0,0,10.277,21Zm0,3.036a.759.759,0,1,1,.759-.759A.759.759,0,0,1,10.277,24.036Z" transform="translate(-4.54 -6.908)"/><rect class="a" width="6.071" height="1.518" transform="translate(8.528 7.589)"/><rect class="a" width="3.036" height="1.518" transform="translate(9.287 9.865)"/><rect class="a" width="6.071" height="1.518" transform="translate(8.528 14.419)"/><rect class="a" width="3.036" height="1.518" transform="translate(9.287 16.695)"/></svg>