<?xml version="1.0" encoding="utf-8"?>
<!-- Generator: Adobe Illustrator 23.0.1, SVG Export Plug-In . SVG Version: 6.00 Build 0)  -->
<svg version="1.1" id="Layer_1" xmlns="http://www.w3.org/2000/svg" xmlns:xlink="http://www.w3.org/1999/xlink" x="0px" y="0px"
	 viewBox="0 0 23.5 25.1" style="enable-background:new 0 0 23.5 25.1;" xml:space="preserve">
<style type="text/css">
	.st0{fill:#007C3D;}
</style>
<g transform="translate(-32)">
	<g transform="translate(32)">
		<g transform="translate(0)">
			<path class="st0" d="M21.5,17.6c0.5,0,1-0.4,1-1v-3.5c0-2.1-1.7-3.8-3.8-3.8h-1.1V5.9c-0.1-3.2-2.7-5.7-5.9-5.6
				C8.6,0.4,6.1,2.8,6,5.9v3.4H4.9C2.8,9.3,1,11,1,13.1V21c0,2.1,1.7,3.8,3.8,3.8h13.8c2.1,0,3.8-1.7,3.8-3.8c0-0.5-0.4-1-1-1
				c-0.5,0-1,0.4-1,1c0,1.1-0.9,1.9-1.9,1.9H4.9C3.8,22.9,3,22,3,21v-7.9c0-1.1,0.9-1.9,1.9-1.9h13.8c1.1,0,1.9,0.9,1.9,1.9v3.5
				C20.6,17.2,21,17.6,21.5,17.6z M15.6,9.3H7.9V5.9c0.1-2.1,1.9-3.7,4-3.6c2,0.1,3.6,1.7,3.6,3.6L15.6,9.3z"/>
			<circle class="st0" cx="11.9" cy="17" r="1"/>
			<circle class="st0" cx="8" cy="17" r="1"/>
			<circle class="st0" cx="15.7" cy="17" r="1"/>
		</g>
	</g>
</g>
</svg>
