<svg xmlns="http://www.w3.org/2000/svg" width="32" height="32" viewBox="0 0 32 32">
  <g id="Group_40205" data-name="Group 40205" transform="translate(-45 -406)">
    <rect id="Rectangle_18707" data-name="Rectangle 18707" width="32" height="32" transform="translate(45 406)" fill="#fff" opacity="0"/>
    <g id="noun_pay_bill_3011833" data-name="noun_pay bill_3011833" transform="translate(48.969 406)">
      <g id="Group_40223" data-name="Group 40223" transform="translate(2.031 2)">
        <g id="Group_40222" data-name="Group 40222">
          <g id="Group_40218" data-name="Group 40218" transform="translate(0 3.135)">
            <g id="Group_40217" data-name="Group 40217" transform="translate(2.152 2.703)">
              <g id="Group_40211" data-name="Group 40211">
                <g id="Group_40207" data-name="Group 40207">
                  <path id="Path_44087" data-name="Path 44087" d="M25.471,35.483a2.242,2.242,0,0,1-2.206-2.272c0-1.13,1.581-2.9,1.9-3.238a.424.424,0,0,1,.616,0c.317.342,1.9,2.108,1.9,3.238A2.242,2.242,0,0,1,25.471,35.483Zm0-4.592a5.565,5.565,0,0,0-1.367,2.32,1.369,1.369,0,1,0,2.734,0A5.564,5.564,0,0,0,25.471,30.891Z" transform="translate(-23.265 -29.84)" fill="#007c3d" stroke="#357a44" stroke-width="0.5"/>
                </g>
                <g id="Group_40210" data-name="Group 40210" transform="translate(6.151 2.455)">
                  <g id="Group_40208" data-name="Group 40208">
                    <path id="Path_44088" data-name="Path 44088" d="M63.911,37.619H57.79a.419.419,0,0,1,0-.839h6.121a.419.419,0,0,1,0,.839Z" transform="translate(-57.371 -36.78)" fill="#007c3d" stroke="#357a44" stroke-width="0.5"/>
                  </g>
                  <g id="Group_40209" data-name="Group 40209" transform="translate(0 1.891)">
                    <path id="Path_44089" data-name="Path 44089" d="M62.041,46.638H57.79a.419.419,0,0,1,0-.839h4.251a.419.419,0,0,1,0,.839Z" transform="translate(-57.371 -45.799)" fill="#007c3d" stroke="#357a44" stroke-width="0.5"/>
                  </g>
                </g>
              </g>
              <g id="Group_40216" data-name="Group 40216" transform="translate(0.378 7.732)">
                <g id="Group_40212" data-name="Group 40212">
                  <path id="Path_44090" data-name="Path 44090" d="M25.731,72.161a.423.423,0,0,1-.341-.663l1.281-1.79-1.187,0a.423.423,0,0,1-.326-.684l1.753-2.155a.419.419,0,0,1,.651.529l-1.2,1.469,1.121,0a.423.423,0,0,1,.342.663l-1.757,2.455A.418.418,0,0,1,25.731,72.161Z" transform="translate(-25.069 -66.717)" fill="#007c3d" stroke="#357a44" stroke-width="0.5"/>
                </g>
                <g id="Group_40215" data-name="Group 40215" transform="translate(5.328 1.898)">
                  <g id="Group_40213" data-name="Group 40213">
                    <path id="Path_44091" data-name="Path 44091" d="M62.172,76.609h-6.5a.419.419,0,1,1,0-.839h6.5a.419.419,0,0,1,0,.839Z" transform="translate(-55.25 -75.77)" fill="#007c3d" stroke="#357a44" stroke-width="0.5"/>
                  </g>
                  <g id="Group_40214" data-name="Group 40214" transform="translate(0 2.022)">
                    <path id="Path_44092" data-name="Path 44092" d="M60.185,86.251H55.669a.419.419,0,0,1,0-.839h4.515a.419.419,0,0,1,0,.839Z" transform="translate(-55.25 -85.412)" fill="#007c3d" stroke="#357a44" stroke-width="0.5"/>
                  </g>
                </g>
              </g>
            </g>
            <path id="Path_44093" data-name="Path 44093" d="M33.034,34.989c-.455-.52-1.155-.421-1.775-.423L31.228,22.66a.419.419,0,0,0-.419-.418h0a.419.419,0,0,0-.418.42l.032,11.9L19.29,34.528a.424.424,0,0,0-.42.44c.086,1.752-.127,2.879-.651,3.446a2.328,2.328,0,0,1-1.819.516,2.61,2.61,0,0,1-2.559-2.653V18.17a.388.388,0,0,1,.392-.382c3.8.007,11.016.022,11.357.03a.425.425,0,0,0,.447-.419c0-.419-.284-.421-.906-.424l-1.29,0-3.913-.01-5.692-.012A1.228,1.228,0,0,0,13,18.17V36.278a3.449,3.449,0,0,0,3.4,3.492c.319,0,12.945.046,13.02.046h0c2.183-.052,3.61-1.449,3.916-3.831a1.268,1.268,0,0,0-.3-1Zm-.53.889c-.178,1.384-.861,3.045-3.093,3.1-2.422,0-7.645-.016-10.545-.028.62-.7.9-1.844.857-3.58l11.788.039c.353,0,1.067-.1.994.47C32.326,37.262,32.52,35.755,32.5,35.878Z" transform="translate(-13.002 -16.95)" fill="#007c3d" stroke="#357a44" stroke-width="0.5"/>
          </g>
          <g id="Group_40221" data-name="Group 40221" transform="translate(14.292 -1.21)">
            <g id="Group_40219" data-name="Group 40219">
              <path id="Path_44094" data-name="Path 44094" d="M85.309,10.381a4.191,4.191,0,1,1,4.146-4.19A4.173,4.173,0,0,1,85.309,10.381Zm0-7.4a3.211,3.211,0,1,0,3.166,3.21A3.192,3.192,0,0,0,85.309,2.98Z" transform="translate(-81.163 -2)" fill="#007c3d" stroke="#357a44" stroke-width="0.5"/>
            </g>
          </g>
          <path id="Union_45" data-name="Union 45" d="M1.32,3.224c-.039,0-.039,0-.137-.13L.96,2.8.075,1.606.058,1.584V1.469h.2c.4,0,.628-.137.706-.421l0-.022H.094A.093.093,0,0,1,0,.93v-.2A.094.094,0,0,1,.094.646H.929A.475.475,0,0,0,.794.486.771.771,0,0,0,.439.38H.094A.093.093,0,0,1,0,.283v-.2A.093.093,0,0,1,.094,0H2a.094.094,0,0,1,.084.1V.283A.093.093,0,0,1,2,.38H1.463A.892.892,0,0,1,1.59.641l0,.005H2a.094.094,0,0,1,.084.1V.93a.093.093,0,0,1-.093.1H1.615a.95.95,0,0,1-.4.594l-.009.006a1.839,1.839,0,0,1-.387.186L1.785,3.1v.124Z" transform="translate(17.402 1.509)" fill="#007c3d" stroke="#007c3d" stroke-width="0.1"/>
        </g>
      </g>
    </g>
  </g>
</svg>
