<svg xmlns="http://www.w3.org/2000/svg" width="23.124" height="22.029" viewBox="0 0 23.124 22.029"><defs><style>.a{fill:#007c3d;}</style></defs><g transform="translate(-6.784 -8.521)"><g transform="translate(6.784 8.521)"><path class="a" d="M34.392,30.927H28.474v.943h3.1a3.561,3.561,0,0,0,.348,1.186,5.4,5.4,0,0,0,2.327,2.365,3.74,3.74,0,0,0,1.091.365v3.988a3.74,3.74,0,0,0-1.091.365A5.4,5.4,0,0,0,31.921,42.5a3.561,3.561,0,0,0-.348,1.186H20.2a3.561,3.561,0,0,0-.348-1.186,5.4,5.4,0,0,0-2.327-2.365,3.74,3.74,0,0,0-1.091-.365V35.786a3.74,3.74,0,0,0,1.091-.365,5.4,5.4,0,0,0,2.327-2.365A3.555,3.555,0,0,0,20.2,31.87h3.076v-.943h-5.9a1.893,1.893,0,0,0-1.889,1.89v9.927a1.893,1.893,0,0,0,1.889,1.889H34.392a1.893,1.893,0,0,0,1.89-1.889V32.817A1.894,1.894,0,0,0,34.392,30.927Zm.282,3.653a4.306,4.306,0,0,1-1.08-.8,4.263,4.263,0,0,1-.825-1.139,2.741,2.741,0,0,1-.25-.775h1.873a.951.951,0,0,1,.947.947v2.008A2.955,2.955,0,0,1,34.674,34.58ZM16.707,32.148a.942.942,0,0,1,.668-.279h1.873a2.741,2.741,0,0,1-.25.775,4.462,4.462,0,0,1-1.905,1.935,2.936,2.936,0,0,1-.665.245V32.817A.942.942,0,0,1,16.707,32.148Zm0,11.263a.942.942,0,0,1-.279-.668V40.735a2.936,2.936,0,0,1,.665.245,4.307,4.307,0,0,1,1.08.8A4.26,4.26,0,0,1,19,42.915a2.741,2.741,0,0,1,.25.775H17.375A.943.943,0,0,1,16.707,43.411Zm18.353,0a.942.942,0,0,1-.668.279H32.519a2.741,2.741,0,0,1,.25-.775,4.462,4.462,0,0,1,1.905-1.935,2.938,2.938,0,0,1,.665-.245v2.008A.943.943,0,0,1,35.06,43.411Z" transform="translate(-13.158 -24.932)"/><path class="a" d="M43.675,48.3a2.341,2.341,0,1,0,2.341-2.341A2.342,2.342,0,0,0,43.675,48.3Zm3.909,0a1.569,1.569,0,1,1-.46-1.109A1.562,1.562,0,0,1,47.584,48.3Z" transform="translate(-33.29 -35.428)"/><path class="a" d="M46.568,12.348h0l1.021-1.021v5.79a.471.471,0,1,0,.943,0v-5.79l1.021,1.021a.471.471,0,0,0,.667-.667l-2.159-2.16-2.16,2.16a.472.472,0,0,0,.667.667Z" transform="translate(-37.165 -9.521)"/><path class="a" d="M46.568,14.761h0l1.021,1.021V9.992a.471.471,0,1,1,.943,0v5.79l1.021-1.021a.471.471,0,0,1,.667.667l-2.159,2.16-2.16-2.16a.472.472,0,0,1,.667-.667Z" transform="translate(-33.475 -7.057)"/><circle class="a" cx="0.786" cy="0.786" r="0.786" transform="translate(7.027 8.96)"/><circle class="a" cx="0.786" cy="0.786" r="0.786" transform="translate(16.884 15.163)"/><path class="a" d="M26.359,52.113a.942.942,0,0,1-.668.279H8.674a.951.951,0,0,1-.947-.947V41.518a.951.951,0,0,1,.947-.947v-.943a1.894,1.894,0,0,0-1.89,1.89v9.927a1.894,1.894,0,0,0,1.89,1.89H25.691a1.893,1.893,0,0,0,1.889-1.89h-.943A.941.941,0,0,1,26.359,52.113Z" transform="translate(-6.784 -31.306)"/></g></g></svg>