<svg xmlns="http://www.w3.org/2000/svg" width="18.509" height="22.099" viewBox="0 0 18.509 22.099">
  <g id="Group_39618" data-name="Group 39618" transform="translate(-344.4 -190.764)">
    <path id="Path_43244" data-name="Path 43244" d="M367.9,194.54h3.863a7.061,7.061,0,0,1,1.254.109,3.147,3.147,0,0,1,1.068.386,2.062,2.062,0,0,1,.743.774,2.567,2.567,0,0,1,.279,1.268,2.341,2.341,0,0,1-.835,2.013,13.9,13.9,0,0,1,3.622,1.115,4.492,4.492,0,0,0,1.918-3.963,5.934,5.934,0,0,0-.511-2.6,4.252,4.252,0,0,0-1.44-1.687,6.231,6.231,0,0,0-2.228-.913,13.8,13.8,0,0,0-2.879-.279H367.9Z" transform="translate(-17.959)" fill="#fdb933"/>
    <path id="Path_43245" data-name="Path 43245" d="M354.181,199.709h-4.921V194.54h0v-3.776H344.4v22.1h10.709a11.3,11.3,0,0,0,2.894-.371,7.73,7.73,0,0,0,2.506-1.145,5.649,5.649,0,0,0,1.749-2,6.088,6.088,0,0,0,.65-2.9,6.367,6.367,0,0,0-1.006-3.544c-1.245-1.928-3.946-3.2-7.722-3.2m3.575,7.892a2.328,2.328,0,0,1-.789.882,3.358,3.358,0,0,1-1.145.465,6.547,6.547,0,0,1-1.362.139h-5.2V203.02h5.293a4.105,4.105,0,0,1,2.539.727,2.859,2.859,0,0,1,.958,2.43,3.035,3.035,0,0,1-.293,1.423" transform="translate(0)" fill="#f47920"/>
  </g>
</svg>
