<svg xmlns="http://www.w3.org/2000/svg" width="24" height="24" viewBox="0 0 24 24">
  <g id="feedback" transform="translate(0 0.458)">
    <rect id="Rectangle_982" data-name="Rectangle 982" width="24" height="24" transform="translate(0 -0.458)" fill="#7e2323" opacity="0"/>
    <path id="Path_15404" data-name="Path 15404" d="M0,0H20V20H0Z" transform="translate(2 2)" fill="#e88e8e" opacity="0"/>
    <g id="Group_34297" data-name="Group 34297" transform="translate(-24 -546.458)">
      <path id="reminders" d="M16.079,13.572a1.822,1.822,0,0,1-1.762,1.879H13a.628.628,0,0,1-1.256,0H10.4a1.822,1.822,0,0,1-1.762-1.879.605.605,0,0,1,.412-.59.786.786,0,0,0,.495-.712v-.619a2.84,2.84,0,0,1,2.2-2.756V8.479a.628.628,0,0,1,1.256,0V8.9a2.84,2.84,0,0,1,2.171,2.749v.619a.786.786,0,0,0,.495.712A.605.605,0,0,1,16.079,13.572Zm-1.334.322a1.973,1.973,0,0,1-.829-1.625v-.619a1.575,1.575,0,0,0-1.547-1.57h-.024a1.575,1.575,0,0,0-1.547,1.57v.619a1.973,1.973,0,0,1-.829,1.625.454.454,0,0,0,.428.3h3.919A.454.454,0,0,0,14.745,13.895ZM13.567,0H2.512A2.515,2.515,0,0,0,0,2.512V13.567a2.515,2.515,0,0,0,2.512,2.512H7.286a.628.628,0,0,0,0-1.256H2.512a1.258,1.258,0,0,1-1.256-1.256V2.512A1.258,1.258,0,0,1,2.512,1.256H13.567a1.258,1.258,0,0,1,1.256,1.256V8.165a.628.628,0,0,0,1.256,0V2.512A2.515,2.515,0,0,0,13.567,0Z" transform="translate(27.921 550.921)" fill="#007c3d"/>
      <path id="Path_25844" data-name="Path 25844" d="M126.1,94.474a.345.345,0,0,0-.345-.345h-4.872a.345.345,0,0,0,0,.69h1.394a1.748,1.748,0,0,1,1.711,1.4h-3.106a.345.345,0,0,0,0,.69h3.106a1.748,1.748,0,0,1-1.711,1.4h-1.394a.345.345,0,0,0-.237.6l3.485,3.293a.345.345,0,1,0,.474-.5L121.751,99h.527a2.439,2.439,0,0,0,2.411-2.09h1.068a.345.345,0,1,0,0-.69h-1.068a2.432,2.432,0,0,0-.715-1.4h1.783A.345.345,0,0,0,126.1,94.474Zm0,0" transform="translate(-89.048 460.527)" fill="#007c3d" stroke="#007c3e" stroke-width="0.3"/>
    </g>
  </g>
</svg>
