<?xml version="1.0" encoding="utf-8"?>
<!-- Generator: Adobe Illustrator 23.0.1, SVG Export Plug-In . SVG Version: 6.00 Build 0)  -->
<svg version="1.1" id="Layer_1" xmlns="http://www.w3.org/2000/svg" xmlns:xlink="http://www.w3.org/1999/xlink" x="0px" y="0px"
	 viewBox="0 0 18 18" style="enable-background:new 0 0 18 18;" xml:space="preserve">
<style type="text/css">
	.st0{fill:#007C3D;}
</style>
<g>
	<path class="st0" d="M14.4,11.3c-0.5-0.2-1.1,0-1.4,0.4l-1.5,2c0,0,0,0,0,0c0-0.8-0.6-1.4-1.4-1.4H7.3c-0.9-0.7-2.1-0.9-3.1-0.4V12
		c0-0.2-0.2-0.4-0.4-0.4H1.5C1.2,11.6,1,11.7,1,12v5.5c0,0.2,0.2,0.4,0.4,0.4h2.3c0.2,0,0.4-0.2,0.4-0.4v-0.4H11
		c1,0,1.9-0.5,2.4-1.3l1.6-2.5c0.1-0.2,0.2-0.4,0.2-0.7C15.2,12,14.9,11.5,14.4,11.3z M3.3,17.1H1.9v-4.7h1.4V17.1z M14.3,12.8
		l-1.6,2.5c-0.4,0.6-1,1-1.7,1H4.1V13l0.1-0.1c0.8-0.6,1.8-0.5,2.5,0.2c0.1,0.1,0.2,0.1,0.3,0.1H10c0.3,0,0.5,0.3,0.5,0.6
		c0,0.3-0.2,0.5-0.5,0.5h-3c-0.2,0-0.4,0.2-0.4,0.4c0,0.2,0.2,0.4,0.4,0.4h3.3c0.6,0,1.3-0.3,1.6-0.8l1.6-2.1
		c0.1-0.2,0.4-0.2,0.6-0.1c0.1,0.1,0.2,0.2,0.2,0.3C14.4,12.6,14.4,12.7,14.3,12.8L14.3,12.8z"/>
	<path class="st0" d="M9.3,10.3c2.1,0,3.9-1.7,3.9-3.9c0-2.1-1.7-3.9-3.9-3.9c-2.1,0-3.9,1.7-3.9,3.9c0,0,0,0,0,0
		C5.4,8.6,7.1,10.3,9.3,10.3z M9.3,3.5c1.6,0,2.9,1.3,2.9,2.9c0,1.6-1.3,2.9-2.9,2.9c-1.6,0-2.9-1.3-2.9-2.9l0,0
		C6.3,4.8,7.6,3.5,9.3,3.5L9.3,3.5z"/>
	<g transform="translate(20.595 0) rotate(90)">
		<path class="st0" d="M4.4,5.2H1.1l1.1-1.1c0.1-0.1,0.1-0.3,0-0.4c-0.1-0.1-0.3-0.1-0.4,0L0.2,5.3l0,0c-0.1,0.1-0.1,0.3,0,0.4l0,0
			l1.6,1.6c0.1,0.1,0.3,0.1,0.4,0c0.1-0.1,0.1-0.3,0-0.4L1.1,5.8h3.3c0.2,0,0.3-0.1,0.3-0.3C4.7,5.3,4.6,5.2,4.4,5.2z"/>
	</g>
	<path class="st0" d="M10.5,5.6H10c0-0.2-0.1-0.3-0.2-0.5h0.7c0.1,0,0.2-0.1,0.2-0.3c0-0.1-0.1-0.2-0.2-0.2H8.2
		C8,4.6,7.9,4.7,7.9,4.8C7.9,5,8,5.1,8.1,5.1c0,0,0,0,0,0h0.7c0.3,0,0.6,0.2,0.7,0.5H8.2C8,5.6,7.9,5.7,7.9,5.8C7.9,5.9,8,6,8.1,6
		c0,0,0,0,0,0h1.4c0,0.1-0.1,0.2-0.2,0.3C9.2,6.5,9,6.6,8.8,6.6H8.2C8,6.6,7.9,6.7,7.9,6.8C7.9,6.9,7.9,7,8,7l1.6,1.6
		c0,0,0.1,0.1,0.2,0.1c0.1,0,0.1,0,0.2-0.1c0.1-0.1,0.1-0.2,0-0.3c0,0,0,0,0,0c0,0,0,0,0,0L8.7,7.1h0.1c0.3,0,0.6-0.2,0.9-0.4
		C9.9,6.5,10,6.3,10,6h0.4c0.1,0,0.2-0.1,0.3-0.2C10.7,5.7,10.6,5.6,10.5,5.6C10.5,5.6,10.5,5.6,10.5,5.6L10.5,5.6z"/>
</g>
</svg>
