<?xml version="1.0" encoding="utf-8"?>
<!-- Generator: Adobe Illustrator 23.0.1, SVG Export Plug-In . SVG Version: 6.00 Build 0)  -->
<svg version="1.1" id="Layer_1" xmlns:svgjs="http://svgjs.com/svgjs"
	 xmlns="http://www.w3.org/2000/svg" xmlns:xlink="http://www.w3.org/1999/xlink" x="0px" y="0px" viewBox="0 0 512 512"
	 style="enable-background:new 0 0 512 512;" xml:space="preserve">
<style type="text/css">
	.st0{fill:#FAA400;}
	.st1{fill:#FFFFFF;}
</style>
<g>
	<g>
		<circle class="st0" cx="256" cy="256" r="232.5"/>
		<path class="st0" d="M256,508C117.1,508,4,395,4,256C4,117.1,117.1,4,256,4c139,0,252,113.1,252,252C508,395,395,508,256,508z
			 M256,43C138.6,43,43,138.6,43,256s95.5,213,213,213s213-95.5,213-213C469,138.6,373.4,43,256,43z"/>
	</g>
	<path class="st1" d="M369.2,315.9H229.9c-12.8,0-23.2-10.4-23.2-23.2V153.3c0-12.8,10.4-23.2,23.2-23.2s23.2,10.4,23.2,23.2v116.1
		h116.1c12.8,0,23.2,10.4,23.2,23.2S382.1,315.9,369.2,315.9z"/>
</g>
</svg>
