<svg xmlns="http://www.w3.org/2000/svg" width="60" height="60" viewBox="0 0 60 60">
  <g id="Group_40050" data-name="Group 40050" transform="translate(-1330 -496)">
    <rect id="Rectangle_18669" data-name="Rectangle 18669" width="60" height="60" transform="translate(1330 496)" fill="#e6e6e6" opacity="0"/>
    <rect id="Rectangle_18670" data-name="Rectangle 18670" width="52" height="52" transform="translate(1334 500)" fill="#7c0000" opacity="0.005"/>
    <g id="payment" transform="translate(1310.531 504)">
      <path id="Path_44029" data-name="Path 44029" d="M67.6,18.154a1.289,1.289,0,0,0,1.289-1.289V6.49A6.5,6.5,0,0,0,62.392,0h-25.9a6.451,6.451,0,0,0-6.444,6.444V42.688a1.291,1.291,0,0,0,2.22.892l1.649-1.722L35.662,43.6a1.289,1.289,0,0,0,1.823,0l1.651-1.65L40.8,43.6a1.289,1.289,0,0,0,1.815,0l1.694-1.68,1.695,1.68a1.289,1.289,0,0,0,1.814,0l2.171-2.148a11.6,11.6,0,1,0,8.49-20.591V18.154ZM66.308,6.49v9.085H58.483V6.49a3.912,3.912,0,1,1,7.825,0ZM46.916,40.874l-1.7-1.681a1.289,1.289,0,0,0-1.815,0l-1.694,1.679L40.04,39.215a1.289,1.289,0,0,0-1.819,0l-1.647,1.646L34.812,39.1a1.288,1.288,0,0,0-1.843.02l-.34.355V6.444a3.87,3.87,0,0,1,3.866-3.866H57.221A6.456,6.456,0,0,0,55.905,6.49V20.873a11.611,11.611,0,0,0-7.734,18.759ZM66.257,32.4a9.023,9.023,0,1,1-9.023-9.023A9.034,9.034,0,0,1,66.257,32.4Z" fill="#007c3d"/>
      <path id="Path_44030" data-name="Path 44030" d="M294.9,321.651v2.633h-2.609a1.289,1.289,0,0,0,0,2.578h3.9a1.289,1.289,0,0,0,1.289-1.289v-3.922a1.289,1.289,0,1,0-2.578,0Z" transform="translate(-238.524 -292.831)" fill="#007c3d"/>
      <path id="Path_44032" data-name="Path 44032" d="M98.733,256.08H92.288a1.289,1.289,0,0,0,0,2.578h6.445a1.289,1.289,0,0,0,0-2.578Z" transform="translate(-55.71 -234.073)" fill="#007c3d"/>
      <path id="Path_44033" data-name="Path 44033" d="M98.688,316.18h-6.45a1.289,1.289,0,0,0,0,2.578h6.45a1.289,1.289,0,0,0,0-2.578Z" transform="translate(-55.665 -289.008)" fill="#007c3d"/>
      <path id="Path_44034" data-name="Path 44034" d="M98.642,376.08H92.188a1.289,1.289,0,0,0,0,2.578h6.454a1.289,1.289,0,0,0,0-2.578Z" transform="translate(-55.619 -343.761)" fill="#007c3d"/>
      <path id="Union_11" data-name="Union 11" d="M4.468,11.6.287,6.726.276,5.5H2.384a2.577,2.577,0,0,0,1.456-.387,1.6,1.6,0,0,0,.617-.777H0L.464,2.744H4.436A1.955,1.955,0,0,0,2.426,1.6H.014L.487,0H8L7.536,1.6h-1.6a3.4,3.4,0,0,1,.424,1.149H8L7.536,4.339H6.392A2.9,2.9,0,0,1,5.25,6.368a4.283,4.283,0,0,1-2.341.72l3.581,4.16V11.6Z" transform="translate(38.796 6.693)" fill="#007c3d"/>
    </g>
  </g>
</svg>
