<svg xmlns="http://www.w3.org/2000/svg" width="60" height="60" viewBox="0 0 60 60">
  <g id="Group_40050" data-name="Group 40050" transform="translate(-1330 -496)">
    <rect id="Rectangle_18669" data-name="Rectangle 18669" width="60" height="60" transform="translate(1330 496)" fill="#e6e6e6" opacity="0"/>
    <rect id="Rectangle_18670" data-name="Rectangle 18670" width="52" height="52" transform="translate(1334 500)" fill="#7c0000" opacity="0.005"/>
    <g id="Group_40049" data-name="Group 40049" transform="translate(1245.571 -9874.865)">
      <path id="Subtraction_6" data-name="Subtraction 6" d="M12.4,43.52a1.856,1.856,0,0,1-.972-.3l-4.683-3.1L2.624,42.89a1.736,1.736,0,0,1-.937.275,1.7,1.7,0,0,1-.8-.2A1.7,1.7,0,0,1,0,41.447V1.184A1.2,1.2,0,0,1,1.184,0H34.816A1.2,1.2,0,0,1,36,1.184V41.447a1.7,1.7,0,0,1-2.614,1.45L29.26,40.112l-4.689,3.11a1.67,1.67,0,0,1-.925.273,1.813,1.813,0,0,1-.964-.279L18,40.112,13.315,43.22l-.014.01A1.588,1.588,0,0,1,12.4,43.52ZM18,37.6a1.6,1.6,0,0,1,.907.243l4.7,3.118,4.633-3.106a1.831,1.831,0,0,1,.966-.278,1.651,1.651,0,0,1,.923.273l3.5,2.335V2.369H2.369V40.185l3.5-2.33a1.831,1.831,0,0,1,.966-.278,1.666,1.666,0,0,1,.923.273l4.637,3.108L17.079,37.9l.014-.012A1.6,1.6,0,0,1,18,37.6Z" transform="translate(96.429 10378.865)" fill="#007c3d"/>
      <path id="Subtraction_5" data-name="Subtraction 5" d="M19.869,2.371H1.184A1.2,1.2,0,0,1,0,1.184,1.2,1.2,0,0,1,1.184,0H19.869a1.2,1.2,0,0,1,1.184,1.184A1.2,1.2,0,0,1,19.869,2.371Z" transform="translate(103.669 10402.652)" fill="#007c3d"/>
      <path id="Subtraction_8" data-name="Subtraction 8" d="M19.869,2.371H1.184A1.2,1.2,0,0,1,0,1.184,1.2,1.2,0,0,1,1.184,0H19.869a1.2,1.2,0,0,1,1.184,1.184A1.2,1.2,0,0,1,19.869,2.371Z" transform="translate(103.669 10396.99)" fill="#007c3d"/>
      <path id="Subtraction_4" data-name="Subtraction 4" d="M10.874,2.368H1.188A1.2,1.2,0,0,1,0,1.182,1.2,1.2,0,0,1,1.188,0h9.686a1.2,1.2,0,0,1,1.182,1.182A1.2,1.2,0,0,1,10.874,2.368Z" transform="translate(103.667 10408.312)" fill="#007c3d"/>
      <path id="Union_9" data-name="Union 9" d="M3.621,9.389.232,5.445l-.009-.99H1.932a2.09,2.09,0,0,0,1.18-.313,1.292,1.292,0,0,0,.5-.629H0L.376,2.221H3.595a1.585,1.585,0,0,0-1.629-.93H.011L.395,0H6.483L6.107,1.291h-1.3a2.75,2.75,0,0,1,.343.93H6.483L6.107,3.512H5.18a2.345,2.345,0,0,1-.925,1.642,3.473,3.473,0,0,1-1.9.583l2.9,3.368v.284Z" transform="translate(111.489 10384.312)" fill="#007c3d"/>
    </g>
  </g>
</svg>
