<?xml version="1.0" encoding="utf-8"?>
<!-- Generator: Adobe Illustrator 23.0.1, SVG Export Plug-In . SVG Version: 6.00 Build 0)  -->
<svg version="1.1" id="Layer_1" xmlns="http://www.w3.org/2000/svg" xmlns:xlink="http://www.w3.org/1999/xlink" x="0px" y="0px"
	 viewBox="0 0 16 16" style="enable-background:new 0 0 16 16;" xml:space="preserve">
<style type="text/css">
	.st0{fill:#F0A10B;}
	.st1{fill:#F0A10B;stroke:#FFFFFF;stroke-width:1.4;}
</style>
<g id="pending" transform="translate(-26 -256.621)">
	<g id="Group_37846">
		<path id="Path_12680" class="st0" d="M34,257.7c-3.8,0-6.9,3.1-6.9,6.9s3.1,6.9,6.9,6.9s6.9-3.1,6.9-6.9
			C40.9,260.8,37.8,257.7,34,257.7z M34,270.4c-3.2,0-5.8-2.6-5.8-5.8c0-3.2,2.6-5.8,5.8-5.8s5.8,2.6,5.8,5.8l0,0
			C39.8,267.8,37.2,270.4,34,270.4z"/>
		<path id="Path_43222" class="st1" d="M37,267h-4c-0.6,0-1.1-0.5-1.1-1.1v-4c0-0.6,0.5-1.1,1.1-1.1c0.6,0,1.1,0.5,1.1,1.1
			c0,0,0,0,0,0v2.9H37c0.6,0,1.1,0.5,1.1,1.1C38.1,266.5,37.6,267,37,267C37,267,37,267,37,267L37,267z"/>
	</g>
</g>
</svg>
