<?xml version="1.0" encoding="utf-8"?>
<!-- Generator: Adobe Illustrator 23.0.1, SVG Export Plug-In . SVG Version: 6.00 Build 0)  -->
<svg version="1.1" id="Layer_1" xmlns="http://www.w3.org/2000/svg" xmlns:xlink="http://www.w3.org/1999/xlink" x="0px" y="0px"
	 viewBox="0 0 16 16" style="enable-background:new 0 0 16 16;" xml:space="preserve">
<style type="text/css">
	.st0{fill:#007C3D;fill-opacity:0;}
	.st1{fill:#007C3D;}
</style>
<g id="FAQ" transform="translate(643 1998)">
	<rect id="Rectangle_982" x="-645.6" y="-2000.6" class="st0" width="21.3" height="21.3"/>
	<path id="User" class="st1" d="M-629-1982.5h-12c-0.6,0-1-0.4-1-1v-2.1c0-1,0.6-1.9,1.6-2.3l3.1-1.2c0.2-0.1,0.3-0.3,0.3-0.5v-0.4
		c-0.9-0.2-1.5-1-1.5-1.9v-2c0-1.9,1.6-3.5,3.5-3.5c1.9,0,3.5,1.6,3.5,3.5v2c0,0.9-0.6,1.7-1.5,1.9l0,0v0.4c0,0.2,0.1,0.4,0.3,0.5
		l3.1,1.2c1,0.4,1.6,1.3,1.6,2.3v2.1C-628-1983-628.4-1982.5-629-1982.5C-629-1982.5-629-1982.5-629-1982.5z M-635-1996.5
		c-1.4,0-2.5,1.1-2.5,2.5v2c0,0.4,0.3,0.8,0.7,1c0.4,0.1,0.8,0.5,0.8,1v0.4c0,0.6-0.4,1.2-1,1.4l-3.1,1.2c-0.6,0.2-0.9,0.8-0.9,1.4
		v2.1h12v-2.1c0-0.6-0.4-1.2-0.9-1.4l-3.1-1.2c-0.6-0.2-0.9-0.8-0.9-1.4v-0.4c0-0.5,0.3-0.9,0.8-1c0.4-0.1,0.7-0.5,0.7-1v-2
		C-632.5-1995.4-633.6-1996.5-635-1996.5z"/>
</g>
</svg>
