<svg xmlns="http://www.w3.org/2000/svg" width="17.029" height="17" viewBox="0 0 17.029 17">
  <g id="phone-call" transform="translate(0.53 0.5)">
    <path id="Path_2692" data-name="Path 2692" d="M12.859,16a6.872,6.872,0,0,1-2.354-.5,17.66,17.66,0,0,1-5.939-4.066A17.673,17.673,0,0,1,.5,5.494C-.165,3.731-.167,2.285.5,1.623c.1-.1.192-.2.292-.3A3.134,3.134,0,0,1,2.98,0,2.624,2.624,0,0,1,4.827,1.185c1.829,2.274,1,3.085.05,4.024l-.168.167C4.553,5.532,4.258,6.255,7,9a15.213,15.213,0,0,0,2.269,1.948c.384.25,1.071.627,1.353.345l.17-.171c.939-.952,1.749-1.774,4.022.053A2.622,2.622,0,0,1,16,13.021a3.118,3.118,0,0,1-1.32,2.193c-.1.1-.207.2-.3.292A2.1,2.1,0,0,1,12.859,16ZM2.916.538c-.643,0-1.224.611-1.738,1.152-.1.109-.2.214-.3.313C.383,2.5.433,3.791,1,5.3a17.131,17.131,0,0,0,3.945,5.749A17.119,17.119,0,0,0,10.7,15c1.513.572,2.808.62,3.3.128.1-.1.2-.2.313-.3.553-.525,1.18-1.12,1.152-1.781a2.176,2.176,0,0,0-.982-1.45c-1.894-1.523-2.423-.985-3.3-.095l-.172.174c-.42.42-1.1.327-2.027-.274A15.714,15.714,0,0,1,6.621,9.377C4.344,7.1,3.616,5.708,4.329,4.994l.172-.17c.893-.878,1.432-1.408-.092-3.3A2.183,2.183,0,0,0,2.958.539Z" transform="translate(0 0)" fill="#007c3d" stroke="#007c3d" stroke-width="1"/>
  </g>
</svg>
