<svg xmlns="http://www.w3.org/2000/svg" width="19.931" height="19.932" viewBox="0 0 19.931 19.932"><defs><style>.a{fill:#fff;}</style></defs><path class="a" d="M2.572,84.172l2.516,2.516a8.8,8.8,0,0,0,11.322.936,1.757,1.757,0,0,0,.2-2.663l-2.4-2.4a1.754,1.754,0,0,0-2.477,0l-.826.826a1.751,1.751,0,0,1-2.477,0L5.875,80.83a1.751,1.751,0,0,1,0-2.477h0l.826-.826a1.754,1.754,0,0,0,0-2.477l-2.4-2.4a1.757,1.757,0,0,0-2.663.2,8.817,8.817,0,0,0,.936,11.322Zm10.813-.787,2.4,2.4a.589.589,0,0,1-.057.888q-.209.149-.425.282L12.146,83.8l.413-.413A.585.585,0,0,1,13.385,83.385ZM7.6,84.211a2.919,2.919,0,0,0,3.675.372l2.93,2.93a7.7,7.7,0,0,1-8.3-1.65L3.4,83.346a7.7,7.7,0,0,1-1.65-8.3l2.93,2.93a2.919,2.919,0,0,0,.372,3.675ZM3.473,73.473l2.4,2.4a.584.584,0,0,1,0,.826l-.413.413L2.3,73.954q.133-.216.282-.425a.589.589,0,0,1,.888-.057Z" transform="translate(-0.007 -69.322)"/><path class="a" d="M287.574,1.168a7.015,7.015,0,0,1,7.007,7.007.584.584,0,1,0,1.168,0A8.184,8.184,0,0,0,287.574,0a.584.584,0,1,0,0,1.168Z" transform="translate(-275.818)"/><path class="a" d="M287.575,181.167h0a.584.584,0,0,0,1.168,0A1.169,1.169,0,0,0,287.575,180a.584.584,0,1,0,0,1.167Z" transform="translate(-275.819 -172.993)"/><path class="a" d="M287.574,121.168a2.338,2.338,0,0,1,2.336,2.336.584.584,0,0,0,1.168,0,3.508,3.508,0,0,0-3.5-3.5.584.584,0,1,0,0,1.168Z" transform="translate(-275.818 -115.329)"/><path class="a" d="M287.574,61.168a4.677,4.677,0,0,1,4.671,4.671.584.584,0,1,0,1.168,0A5.846,5.846,0,0,0,287.574,60a.584.584,0,1,0,0,1.168Z" transform="translate(-275.818 -57.664)"/></svg>