<svg xmlns="http://www.w3.org/2000/svg" width="60" height="60" viewBox="0 0 60 60">
  <g id="Group_40106" data-name="Group 40106" transform="translate(-737 1832)">
    <g id="ipo" transform="translate(13585 -14711)">
      <g id="Group_39984" data-name="Group 39984">
        <g id="Group_39993" data-name="Group 39993">
          <rect id="Rectangle_18667" data-name="Rectangle 18667" width="60" height="60" transform="translate(-12848 12879)" fill="#e6e6e6" opacity="0"/>
          <rect id="Rectangle_18668" data-name="Rectangle 18668" width="52" height="52" transform="translate(-12844 12883)" fill="#7c0000" opacity="0"/>
        </g>
      </g>
    </g>
    <g id="clipboard" transform="translate(743 -1826.589)">
      <path id="Path_44035" data-name="Path 44035" d="M73.1,251.308l-3.316,3.316-1.04-1.04a.957.957,0,0,0-1.354,1.354l1.717,1.717a.957.957,0,0,0,1.353,0l3.993-3.993a.957.957,0,0,0-1.353-1.353Zm0,0" transform="translate(-60.689 -227.003)" fill="#007c3d"/>
      <path id="Path_44036" data-name="Path 44036" d="M178.551,294.523h4.509a.957.957,0,0,0,0-1.914h-4.509a.957.957,0,1,0,0,1.914Zm0,0" transform="translate(-160.597 -264.606)" fill="#007c3d"/>
      <path id="Path_44037" data-name="Path 44037" d="M73.1,360.37l-3.316,3.316-1.04-1.04A.957.957,0,0,0,67.392,364l1.717,1.717a.957.957,0,0,0,1.353,0l3.993-3.993A.957.957,0,0,0,73.1,360.37Zm0,0" transform="translate(-60.689 -325.628)" fill="#007c3d"/>
      <path id="Path_44038" data-name="Path 44038" d="M186.067,402.629a.957.957,0,0,0-.957-.957h-6.559a.957.957,0,0,0,0,1.914h6.559A.957.957,0,0,0,186.067,402.629Zm0,0" transform="translate(-160.597 -363.231)" fill="#007c3d"/>
      <path id="Path_44039" data-name="Path 44039" d="M178.551,359.727h8.608a.957.957,0,0,0,0-1.914h-8.608a.957.957,0,1,0,0,1.914Zm0,0" transform="translate(-160.597 -323.569)" fill="#007c3d"/>
      <path id="Path_44040" data-name="Path 44040" d="M73.1,142.308l-3.316,3.316-1.04-1.04a.957.957,0,0,0-1.354,1.354l1.717,1.717a.957.957,0,0,0,1.353,0l3.993-3.993a.957.957,0,0,0-1.353-1.353Zm0,0" transform="translate(-60.689 -128.435)" fill="#007c3d"/>
      <path id="Path_44041" data-name="Path 44041" d="M178.551,185.523h4.3a.957.957,0,0,0,0-1.914h-4.3a.957.957,0,0,0,0,1.914Zm0,0" transform="translate(-160.597 -166.037)" fill="#007c3d"/>
      <path id="Path_44042" data-name="Path 44042" d="M149.157,492a.957.957,0,1,0,.676.28A.967.967,0,0,0,149.157,492Zm0,0" transform="translate(-134.016 -444.914)" fill="#007c3d"/>
      <path id="Path_44043" data-name="Path 44043" d="M315.562,155.949l-6.891,2.151a.957.957,0,0,0-.672.913v6.136a10.357,10.357,0,0,0,7.594,9.964.961.961,0,0,0,.507,0,10.357,10.357,0,0,0,7.594-9.963v-6.136a.957.957,0,0,0-.672-.914l-6.891-2.151A.958.958,0,0,0,315.562,155.949Zm6.219,3.769v5.432a8.44,8.44,0,0,1-5.934,8.044,8.44,8.44,0,0,1-5.934-8.044v-5.432l5.934-1.852Zm0,0" transform="translate(-278.523 -140.985)" fill="#007c3d"/>
      <path id="Path_44044" data-name="Path 44044" d="M48.328,14.3l-10.7-3.339a.955.955,0,0,0-.307-.051h0a.963.963,0,0,0-.307.051l-1.032.322V5.162a2.874,2.874,0,0,0-2.871-2.871h-6.97V.957A.957.957,0,0,0,25.186,0H10.8a.957.957,0,0,0-.957.957V2.291H2.871A2.874,2.874,0,0,0,0,5.162V46.129A2.874,2.874,0,0,0,2.871,49h7.963a.957.957,0,1,0,0-1.914H2.871a.958.958,0,0,1-.957-.957V5.162A.958.958,0,0,1,2.871,4.2h6.97v1a2.068,2.068,0,0,0,2.066,2.065h12.17a2.068,2.068,0,0,0,2.066-2.065v-1h6.97a.958.958,0,0,1,.957.957v6.719l-4.785,1.494H17.953a.957.957,0,0,0,0,1.914h7.7v8.518h-7.7a.957.957,0,0,0,0,1.914h7.781A14.2,14.2,0,0,0,34.07,37.11v3.947H30.912a2.874,2.874,0,0,0-2.871,2.871v3.158H19.448a.957.957,0,1,0,0,1.914H29a.957.957,0,0,0,.677-.28L35.7,42.69a.957.957,0,0,0,.28-.677V37.8q.57.16,1.16.274a.953.953,0,0,0,.36,0A14.178,14.178,0,0,0,49,24.165V15.214A.957.957,0,0,0,48.328,14.3Zm-24.1-9.092a.152.152,0,0,1-.152.151H11.907a.152.152,0,0,1-.152-.151V1.914H24.229Zm6.683,37.763h1.8l-2.762,2.762v-1.8A.958.958,0,0,1,30.912,42.971ZM47.086,24.165a12.262,12.262,0,0,1-9.762,11.992,12.262,12.262,0,0,1-9.762-11.992V15.918L35.2,13.535a.947.947,0,0,0,.229-.071l1.9-.593,9.762,3.048Zm0,0" fill="#007c3d"/>
      <path id="Path_44045" data-name="Path 44045" d="M351.162,231.354a.954.954,0,0,1-.677-.28l-2.2-2.2a.957.957,0,0,1,1.353-1.354l1.528,1.528,3.243-3.243a.957.957,0,1,1,1.354,1.353l-3.92,3.92A.955.955,0,0,1,351.162,231.354Zm0,0" transform="translate(-314.695 -203.937)" fill="#007c3d"/>
    </g>
  </g>
</svg>
