<svg xmlns="http://www.w3.org/2000/svg" width="60" height="60" viewBox="0 0 60 60">
  <g id="Group_40107" data-name="Group 40107" transform="translate(-866 1832)">
    <g id="fd-rd" transform="translate(14159 -14895)">
      <g id="Group_39998" data-name="Group 39998" transform="translate(-445 184)">
        <rect id="Rectangle_18667" data-name="Rectangle 18667" width="60" height="60" transform="translate(-12848 12879)" fill="#adadad" opacity="0"/>
        <path id="Path_44059" data-name="Path 44059" d="M0,0H52V52H0Z" transform="translate(-12844 12883)" fill="#7c0000" opacity="0"/>
      </g>
    </g>
    <g id="Page-1" transform="translate(870.983 -1827)">
      <g id="_033---Insurance" data-name="033---Insurance" transform="translate(0.017 0.001)">
        <path id="Shape" d="M40.167,5.542,27.667.07A.833.833,0,0,0,27,.07L14.5,5.542a.833.833,0,0,0-.5.763V19.389a9.178,9.178,0,0,0,3.8,7.423l8.639,6.231a1.525,1.525,0,0,0,1.788,0l8.639-6.23a9.178,9.178,0,0,0,3.8-7.423V6.305A.833.833,0,0,0,40.167,5.542ZM39,19.389a7.508,7.508,0,0,1-3.108,6.072l-8.558,6.173-8.558-6.173a7.508,7.508,0,0,1-3.108-6.072V6.85L27.333,1.743,39,6.85Z" transform="translate(-2.348 -0.001)" fill="#007c3d"/>
        <path id="Shape-2" data-name="Shape" d="M27.667,4.436,18.5,8.449a.833.833,0,0,0-.5.763v10.9a5.833,5.833,0,0,0,2.417,4.72l7.1,5.118a.833.833,0,0,0,.975,0l7.1-5.118A5.833,5.833,0,0,0,38,20.117V9.213a.833.833,0,0,0-.5-.763L28.333,4.436A.833.833,0,0,0,27.667,4.436Zm8.667,5.321v10.36a4.167,4.167,0,0,1-1.725,3.368L28,28.252l-6.608-4.767a4.167,4.167,0,0,1-1.725-3.368V9.757L28,6.109Z" transform="translate(-3.014 -0.728)" fill="#007c3d"/>
        <path id="Shape-3" data-name="Shape" d="M6.907,32.041,5.1,27.829A2.657,2.657,0,1,0,.244,29.975L3.51,37.159a8.851,8.851,0,0,0,1.809,2.612l5.136,5.137A1.657,1.657,0,0,0,10,46.041v6.667a1.667,1.667,0,0,0,1.667,1.667h9.167A1.667,1.667,0,0,0,22.5,52.708V46.041a1.667,1.667,0,0,0-1.667-1.667V42.824a8.732,8.732,0,0,0-1.827-5.458,6,6,0,0,0-2.778-2.026,16.485,16.485,0,0,1-4.771-3.062A3.833,3.833,0,0,0,6.907,32.041ZM20.836,52.708H11.67V46.041h9.167Zm-3.128-14.3a7.071,7.071,0,0,1,1.461,4.418v1.551H12.279L6.5,38.593A7.208,7.208,0,0,1,5.026,36.47L1.76,29.286a.99.99,0,1,1,1.812-.8l1.864,4.348a9.833,9.833,0,0,0,2.1,3.1l3.807,3.808a.833.833,0,1,0,1.178-1.178L8.716,34.759a8.219,8.219,0,0,1-1.028-1.25,2.167,2.167,0,0,1,2.7.045A17.767,17.767,0,0,0,15.7,36.921,4.378,4.378,0,0,1,17.709,38.406Z" transform="translate(-0.017 -4.374)" fill="#007c3d"/>
        <path id="Shape-4" data-name="Shape" d="M21.667,53h-.833a.833.833,0,1,0,0,1.667h.833a.833.833,0,1,0,0-1.667Z" transform="translate(-3.348 -8.833)" fill="#007c3d"/>
        <path id="Shape-5" data-name="Shape" d="M51.993,37.152l3.266-7.184a2.657,2.657,0,1,0-4.86-2.146l-1.8,4.2a3.843,3.843,0,0,0-4.559.25,16.485,16.485,0,0,1-4.771,3.062,6,6,0,0,0-2.778,2.026,8.732,8.732,0,0,0-1.827,5.461v1.551A1.667,1.667,0,0,0,33,46.033V52.7a1.667,1.667,0,0,0,1.667,1.667h9.167A1.667,1.667,0,0,0,45.5,52.7V46.033a1.657,1.657,0,0,0-.452-1.133l5.136-5.137A8.851,8.851,0,0,0,51.993,37.152ZM43.833,52.7H34.667V46.033h9.167Zm-.609-8.333H36.333V42.816A7.071,7.071,0,0,1,37.794,38.4a4.38,4.38,0,0,1,2-1.486,17.76,17.76,0,0,0,5.318-3.367,2.167,2.167,0,0,1,2.7-.052,8.172,8.172,0,0,1-1.033,1.258L42.977,38.56a.833.833,0,0,0,1.178,1.178l3.807-3.808a9.833,9.833,0,0,0,2.1-3.1l1.864-4.348a.99.99,0,1,1,1.812.8l-3.266,7.184A7.208,7.208,0,0,1,49,38.586Z" transform="translate(-5.514 -4.367)" fill="#007c3d"/>
        <path id="Shape-6" data-name="Shape" d="M38.667,53h-.833a.833.833,0,1,0,0,1.667h.833a.833.833,0,1,0,0-1.667Z" transform="translate(-6.181 -8.833)" fill="#007c3d"/>
        <path id="Shape-7" data-name="Shape" d="M24.333,19.667a.833.833,0,1,0-1,1.333l3.333,2.5a.833.833,0,0,0,.5.167.891.891,0,0,0,.141-.012.833.833,0,0,0,.553-.359l6.667-10a.833.833,0,0,0-1.387-.925l-6.178,9.268Z" transform="translate(-3.848 -2)" fill="#007c3d"/>
      </g>
    </g>
  </g>
</svg>
