<svg xmlns="http://www.w3.org/2000/svg" width="20" height="17" viewBox="0 0 20 17">
  <g id="Polygon_1" data-name="Polygon 1" fill="none">
    <path d="M8.276,2.931a2,2,0,0,1,3.448,0l6.5,11.055A2,2,0,0,1,16.5,17H3.5a2,2,0,0,1-1.724-3.014Z" stroke="none"/>
    <path d="M 9.999999046325684 2.944611549377441 C 9.828028678894043 2.944611549377441 9.399788856506348 2.99265193939209 9.138058662414551 3.437591552734375 L 2.634899139404297 14.49298095703125 C 2.36945915222168 14.94424152374268 2.542198181152344 15.3450813293457 2.628778457641602 15.49648094177246 C 2.715368270874023 15.64787101745605 2.973289489746094 16.00000190734863 3.496829986572266 16.00000190734863 L 16.50317001342773 16.00000190734863 C 17.02670860290527 16.00000190734863 17.28462982177734 15.64787101745605 17.37121963500977 15.49648094177246 C 17.45779800415039 15.3450813293457 17.63053894042969 14.94424152374268 17.36509895324707 14.49298095703125 L 10.86192893981934 3.437591552734375 C 10.60020923614502 2.99265193939209 10.17196941375732 2.944611549377441 9.999999046325684 2.944611549377441 M 9.999999046325684 1.944614410400391 C 10.66860866546631 1.944614410400391 11.33721923828125 2.273265838623047 11.72386932373047 2.930571556091309 L 18.22702980041504 13.9859619140625 C 19.01130867004395 15.31922149658203 18.04999923706055 17.00000190734863 16.50317001342773 17.00000190734863 L 3.496829986572266 17.00000190734863 C 1.94999885559082 17.00000190734863 0.9886894226074219 15.31922149658203 1.772968292236328 13.9859619140625 L 8.276128768920898 2.930571556091309 C 8.662778854370117 2.273265838623047 9.331389427185059 1.944614410400391 9.999999046325684 1.944614410400391 Z" stroke="none" fill="#a5a5a5"/>
  </g>
</svg>
