<svg xmlns="http://www.w3.org/2000/svg" width="61.925" height="36.242" viewBox="0 0 61.925 36.242">
  <g id="positive-pay" transform="translate(-131.719 -240.207)">
    <path id="Path_43256" data-name="Path 43256" d="M169.117,242.316h22.354V274.4H133.7V242.316h40.187a1,1,0,0,0,0-2.009H132.761a.98.98,0,0,0-.942,1v34.033a.992.992,0,0,0,1,1h59.715a.992.992,0,0,0,1-1V241.312a1.089,1.089,0,0,0-1.067-1h-22.04Z" transform="translate(0 0)" fill="#007c3d" stroke="#007c3e" stroke-width="0.2"/>
    <path id="Path_43257" data-name="Path 43257" d="M212.875,260.5a.992.992,0,0,0,1-1v-8.163a.992.992,0,0,0-1-1H201.887a.992.992,0,0,0-1,1v8.163a.992.992,0,0,0,1,1Zm-9.984-8.163h9.042v6.153h-9.042Z" transform="translate(-25.697 -3.728)" fill="#007c3d" stroke="#007c3e" stroke-width="0.2"/>
    <path id="Path_43258" data-name="Path 43258" d="M206.364,283.507H184.387a1,1,0,0,0,0,2.009h21.977a1,1,0,0,0,0-2.009Z" transform="translate(-19.186 -16.074)" fill="#007c3d" stroke="#007c3e" stroke-width="0.2"/>
    <path id="Path_43259" data-name="Path 43259" d="M155.182,284.512a.992.992,0,0,0,1,1h13.626a1,1,0,1,0,0-2.009H156.187A.992.992,0,0,0,155.182,284.512Z" transform="translate(-8.693 -16.074)" fill="#007c3d" stroke="#007c3e" stroke-width="0.2"/>
    <path id="Path_43260" data-name="Path 43260" d="M183.482,274.512a.992.992,0,0,0,1,1H206.4a1,1,0,1,0,0-2.009H184.487A1.033,1.033,0,0,0,183.482,274.512Z" transform="translate(-19.223 -12.353)" fill="#007c3d" stroke="#007c3e" stroke-width="0.2"/>
    <g id="Group_39562" data-name="Group 39562" transform="translate(136.551 246.641)">
      <path id="Path_43261" data-name="Path 43261" d="M140.46,256.408h0a1.111,1.111,0,0,0,1.109-1.107V252.61H144.3a1.108,1.108,0,0,0-.037-2.215h-3.836a1.07,1.07,0,0,0-.7.305,1.124,1.124,0,0,0-.371.8v3.8A1.112,1.112,0,0,0,140.46,256.408Z" transform="translate(-139.355 -250.394)" fill="#007c3d" stroke="#007c3e" stroke-width="0.2"/>
      <path id="Path_43262" data-name="Path 43262" d="M144.3,271.232h-2.728V268.5a1.109,1.109,0,0,0-1.041-1.041,1.094,1.094,0,0,0-.8.278,1.118,1.118,0,0,0-.372.8v3.8a1.112,1.112,0,0,0,1.107,1.105H144.3a1.109,1.109,0,0,0,.764-1.843A1.1,1.1,0,0,0,144.3,271.232Z" transform="translate(-139.355 -256.744)" fill="#007c3d" stroke="#007c3e" stroke-width="0.2"/>
      <path id="Path_43263" data-name="Path 43263" d="M157.464,252.609h2.728V255.3a1.108,1.108,0,0,0,2.216,0v-3.836a1.071,1.071,0,0,0-.305-.7,1.124,1.124,0,0,0-.8-.371h-3.837a1.109,1.109,0,0,0-.764,1.843A1.1,1.1,0,0,0,157.464,252.609Z" transform="translate(-145.705 -250.394)" fill="#007c3d" stroke="#007c3e" stroke-width="0.2"/>
      <path id="Path_43264" data-name="Path 43264" d="M161.365,267.461a1.107,1.107,0,0,0-1.174,1.078v2.69h-2.728a1.108,1.108,0,0,0,.037,2.215h3.8a1.112,1.112,0,0,0,1.105-1.107V268.5A1.109,1.109,0,0,0,161.365,267.461Z" transform="translate(-145.705 -256.744)" fill="#007c3d" stroke="#007c3e" stroke-width="0.2"/>
      <path id="Path_43265" data-name="Path 43265" d="M154.887,261.931H140.71a1.107,1.107,0,0,0,0,2.215h14.177a1.107,1.107,0,1,0,0-2.215Z" transform="translate(-139.447 -254.687)" fill="#007c3d" stroke="#007c3e" stroke-width="0.2"/>
    </g>
  </g>
</svg>
