<svg xmlns="http://www.w3.org/2000/svg" width="60" height="60" viewBox="0 0 60 60">
  <g id="positive-pay" transform="translate(12848 -12879)">
    <g id="Group_39984" data-name="Group 39984">
      <g id="Group_39995" data-name="Group 39995" opacity="0">
        <rect id="Rectangle_18667" data-name="Rectangle 18667" width="60" height="60" transform="translate(-12848 12879)" fill="#e6e6e6"/>
        <rect id="Rectangle_18668" data-name="Rectangle 18668" width="52" height="52" transform="translate(-12844 12883)" fill="#7c0000" opacity="0.134"/>
      </g>
      <g id="positive-pay-2" data-name="positive-pay" transform="translate(-12975.568 12653.943)">
        <path id="Union_41" data-name="Union 41" d="M.988,30.359A.977.977,0,0,1,0,29.373V.988A.964.964,0,0,1,.934,0h49.8a1.054,1.054,0,0,1,1.038.973v28.4a.974.974,0,0,1-.985.987Zm.883-1.921H49.749V1.976H1.871Z" transform="translate(131.669 240.156)" fill="#007c3d"/>
        <path id="Path_43256_-_Outline" data-name="Path 43256 - Outline" d="M132.6,240.057h49.8a1.151,1.151,0,0,1,1.138,1.06l0,.028v28.384a1.076,1.076,0,0,1-1.087,1.087h-49.8a1.076,1.076,0,0,1-1.087-1.087V241.144A1.063,1.063,0,0,1,132.6,240.057Zm30.96.5H132.6a.572.572,0,0,0-.536.589v28.384a.576.576,0,0,0,.589.589h49.8a.576.576,0,0,0,.589-.589V241.159a.658.658,0,0,0-.641-.6H167.824a1.114,1.114,0,0,1,0,1.177h13.994v27.259H133.14V241.733h29.651Zm3.342,1.177a.589.589,0,0,0,0-1.177H164.16l-.773,1.177Zm-3.846.5H133.639v26.262H181.32V242.231Z" transform="translate(0 0)" fill="#007c3e"/>
        <path id="Path_43257" data-name="Path 43257" d="M210.884,258.81a.827.827,0,0,0,.838-.838v-6.808a.827.827,0,0,0-.838-.838H201.72a.827.827,0,0,0-.838.838v6.808a.827.827,0,0,0,.838.838ZM202.558,252H210.1v5.132h-7.541Z" transform="translate(-32.897 -4.773)" fill="#007c3d"/>
        <path id="Path_43257_-_Outline" data-name="Path 43257 - Outline" d="M210.884,258.909h-9.165a.927.927,0,0,1-.937-.937v-6.808a.927.927,0,0,1,.937-.937h9.165a.927.927,0,0,1,.937.937v6.808A.927.927,0,0,1,210.884,258.909Zm-9.165-8.484a.731.731,0,0,0-.738.738v6.808a.731.731,0,0,0,.738.738h9.165a.731.731,0,0,0,.738-.738v-6.808a.731.731,0,0,0-.738-.738Zm8.479,6.808h-7.74V251.9h7.74Zm-7.541-.2H210V252.1h-7.342Z" transform="translate(-32.896 -4.773)" fill="#007c3e"/>
        <path id="Path_43258" data-name="Path 43258" d="M202.549,283.507H184.22a.838.838,0,0,0,0,1.676h18.329a.838.838,0,1,0,0-1.676Z" transform="translate(-24.561 -20.578)" fill="#007c3d"/>
        <path id="Path_43258_-_Outline" data-name="Path 43258 - Outline" d="M184.219,283.407h18.329a.937.937,0,0,1,0,1.875H184.219a.937.937,0,0,1,0-1.875Zm18.329,1.676a.738.738,0,0,0,0-1.477H184.219a.738.738,0,0,0,0,1.477Z" transform="translate(-24.561 -20.577)" fill="#007c3e"/>
        <path id="Path_43259" data-name="Path 43259" d="M155.182,284.345a.827.827,0,0,0,.838.838h11.364a.838.838,0,1,0,0-1.676H156.02A.827.827,0,0,0,155.182,284.345Z" transform="translate(-11.129 -20.578)" fill="#007c3d"/>
        <path id="Path_43259_-_Outline" data-name="Path 43259 - Outline" d="M156.019,283.407h11.364a.937.937,0,1,1,0,1.875H156.019a.937.937,0,1,1,0-1.875Zm11.364,1.676a.738.738,0,1,0,0-1.477H156.019a.738.738,0,1,0,0,1.477Z" transform="translate(-11.129 -20.577)" fill="#007c3e"/>
        <path id="Path_43260" data-name="Path 43260" d="M183.482,274.345a.827.827,0,0,0,.838.838H202.6a.838.838,0,1,0,0-1.676H184.32A.861.861,0,0,0,183.482,274.345Z" transform="translate(-24.609 -15.815)" fill="#007c3d"/>
        <path id="Path_43260_-_Outline" data-name="Path 43260 - Outline" d="M202.6,275.282H184.319a.927.927,0,0,1-.937-.937.962.962,0,0,1,.937-.937H202.6a.937.937,0,1,1,0,1.875Zm-18.277-1.676a.758.758,0,0,0-.738.738.731.731,0,0,0,.738.738H202.6a.738.738,0,1,0,0-1.477Z" transform="translate(-24.608 -15.814)" fill="#007c3e"/>
        <g id="Group_39562" data-name="Group 39562" transform="translate(135.665 245.489)">
          <path id="Path_43261" data-name="Path 43261" d="M140.277,255.409h0a.926.926,0,0,0,.925-.923v-2.244h2.275a.924.924,0,0,0-.031-1.847h-3.2a.892.892,0,0,0-.583.255.937.937,0,0,0-.309.668v3.17A.927.927,0,0,0,140.277,255.409Z" transform="translate(-139.256 -250.294)" fill="#007c3d"/>
          <path id="Path_43261_-_Outline" data-name="Path 43261 - Outline" d="M140.278,255.508h0a1.027,1.027,0,0,1-1.021-1.021v-3.176a1.041,1.041,0,0,1,.34-.734.991.991,0,0,1,.647-.282h3.21a1.035,1.035,0,0,1,.737.343,1.024,1.024,0,0,1-.706,1.7H141.3v2.145A1.027,1.027,0,0,1,140.278,255.508Zm-.824-4.189v3.168a.827.827,0,0,0,.823.822v0a.827.827,0,0,0,.825-.824v-2.343h2.371a.825.825,0,0,0-.031-1.648H140.25a.8.8,0,0,0-.514.223l-.006.006A.834.834,0,0,0,139.454,251.32Z" transform="translate(-139.255 -250.294)" fill="#007c3e"/>
          <path id="Path_43262" data-name="Path 43262" d="M143.478,270.606H141.2V268.33a.925.925,0,0,0-.868-.868.912.912,0,0,0-.669.232.932.932,0,0,0-.31.668v3.17a.927.927,0,0,0,.923.922h3.2a.925.925,0,0,0,.637-1.537A.915.915,0,0,0,143.478,270.606Z" transform="translate(-139.256 -258.423)" fill="#007c3d"/>
          <path id="Path_43262_-_Outline" data-name="Path 43262 - Outline" d="M140.278,272.552h0a1.027,1.027,0,0,1-1.022-1.021v-3.176a1.035,1.035,0,0,1,.343-.737,1.024,1.024,0,0,1,1.7.705V270.5h2.181a1.024,1.024,0,0,1,.962,1.082,1.025,1.025,0,0,1-.962.962h-3.206Zm-.824-4.189v3.168a.828.828,0,0,0,.824.822h3.2a.825.825,0,0,0,.565-1.371.816.816,0,0,0-.565-.276H141.1v-2.371a.825.825,0,0,0-.775-.772l-.053,0a.818.818,0,0,0-.544.208A.828.828,0,0,0,139.454,268.363Z" transform="translate(-139.255 -258.422)" fill="#007c3e"/>
          <path id="Path_43263" data-name="Path 43263" d="M157.291,252.241h2.275v2.246a.924.924,0,0,0,1.848,0v-3.2a.893.893,0,0,0-.254-.583.937.937,0,0,0-.668-.309h-3.2a.925.925,0,0,0-.637,1.537A.916.916,0,0,0,157.291,252.241Z" transform="translate(-147.384 -250.294)" fill="#007c3d"/>
          <path id="Path_43263_-_Outline" data-name="Path 43263 - Outline" d="M160.49,250.294h.006a1.041,1.041,0,0,1,.734.34.993.993,0,0,1,.282.647v3.2a1.024,1.024,0,0,1-2.047,0v-2.146h-2.181a1.024,1.024,0,0,1-.962-1.083,1.025,1.025,0,0,1,.962-.962h3.206Zm.823,1a.8.8,0,0,0-.224-.514l-.006-.006a.835.835,0,0,0-.6-.276h-3.194a.825.825,0,0,0-.565,1.371.817.817,0,0,0,.565.276h2.371v2.345a.825.825,0,0,0,1.649,0Z" transform="translate(-147.384 -250.294)" fill="#007c3e"/>
          <path id="Path_43264" data-name="Path 43264" d="M160.544,267.461a.923.923,0,0,0-.979.9V270.6h-2.275a.924.924,0,0,0,.031,1.847h3.17a.928.928,0,0,0,.922-.924v-3.2A.925.925,0,0,0,160.544,267.461Z" transform="translate(-147.384 -258.423)" fill="#007c3d"/>
          <path id="Path_43264_-_Outline" data-name="Path 43264 - Outline" d="M160.48,267.359h0l.071,0a1.024,1.024,0,0,1,.961.962v3.205a1.028,1.028,0,0,1-1.021,1.023h-3.176a1.034,1.034,0,0,1-.737-.343,1.024,1.024,0,0,1,.705-1.7h2.181v-2.15A1.024,1.024,0,0,1,160.48,267.359Zm.833.973a.826.826,0,0,0-.775-.772l-.058,0a.827.827,0,0,0-.815.8v2.34h-2.371a.825.825,0,0,0,.031,1.648h3.168a.828.828,0,0,0,.822-.824Z" transform="translate(-147.384 -258.422)" fill="#007c3e"/>
          <path id="Path_43265" data-name="Path 43265" d="M152.35,261.931H140.526a.924.924,0,0,0,0,1.847H152.35a.924.924,0,1,0,0-1.847Z" transform="translate(-139.374 -255.79)" fill="#007c3d"/>
          <path id="Path_43265_-_Outline" data-name="Path 43265 - Outline" d="M140.526,261.831H152.35a1.023,1.023,0,1,1,0,2.046H140.526a1.023,1.023,0,0,1,0-2.046Zm11.824,1.847a.824.824,0,1,0,0-1.648H140.526a.824.824,0,0,0,0,1.648Z" transform="translate(-139.373 -255.789)" fill="#007c3e"/>
        </g>
      </g>
    </g>
  </g>
</svg>
