<svg xmlns="http://www.w3.org/2000/svg" width="104" height="50" viewBox="0 0 104 50">
  <g id="Group_36686" data-name="Group 36686" transform="translate(-60.228 -451.55)">
    <path id="Path_43131" data-name="Path 43131" d="M68.807,451.651a2.671,2.671,0,0,1,1.96.664,2.95,2.95,0,0,1,0,3.734,2.6,2.6,0,0,1-1.96.66H66.2v3.5h-1.14v-8.558Zm-.38,4.1a2.008,2.008,0,0,0,1.418-.394,1.751,1.751,0,0,0,0-2.344,2.1,2.1,0,0,0-1.418-.4H66.2v3.136Z" transform="translate(4.829 0.101)" fill="#424143"/>
    <path id="Path_43132" data-name="Path 43132" d="M68.959,454.348a4.206,4.206,0,0,1,.772-1.43,3.789,3.789,0,0,1,1.282-1,4.473,4.473,0,0,1,3.572,0,3.778,3.778,0,0,1,1.284,1,4.237,4.237,0,0,1,.77,1.43,5.631,5.631,0,0,1,0,3.37,4.237,4.237,0,0,1-.77,1.43,3.661,3.661,0,0,1-1.284.988,4.517,4.517,0,0,1-3.572,0,3.671,3.671,0,0,1-1.282-.988,4.207,4.207,0,0,1-.772-1.43,5.631,5.631,0,0,1,0-3.37m1.048,2.96a3.441,3.441,0,0,0,.528,1.132,2.692,2.692,0,0,0,.922.81,3.114,3.114,0,0,0,2.684,0,2.674,2.674,0,0,0,.922-.81,3.441,3.441,0,0,0,.528-1.132,4.922,4.922,0,0,0,0-2.55,3.452,3.452,0,0,0-.528-1.134,2.648,2.648,0,0,0-.922-.808,3.077,3.077,0,0,0-2.684,0,2.666,2.666,0,0,0-.922.808,3.452,3.452,0,0,0-.528,1.134,4.922,4.922,0,0,0,0,2.55" transform="translate(8.669)" fill="#424143"/>
    <path id="Path_43133" data-name="Path 43133" d="M80.433,460.21l-1.954-7.192h-.024l-1.978,7.192H75.293L73.1,451.652h1.162l1.678,7.12h.024l1.918-7.12h1.234l1.892,7.12h.026l1.736-7.12h1.138l-2.288,8.558Z" transform="translate(13.176 0.102)" fill="#424143"/>
    <path id="Path_43134" data-name="Path 43134" d="M84.951,451.651v.96h-4.77v2.72h4.446v.96H80.181v2.958h4.806v.96H79.043v-8.558Z" transform="translate(19.239 0.101)" fill="#424143"/>
    <path id="Path_43135" data-name="Path 43135" d="M86.73,451.652a2.806,2.806,0,0,1,1.912.6,2.067,2.067,0,0,1,.69,1.642,2.622,2.622,0,0,1-.354,1.366,1.827,1.827,0,0,1-1.134.8v.022a1.575,1.575,0,0,1,.606.242l.372.4a1.784,1.784,0,0,1,.2.522,5.556,5.556,0,0,1,.1.6c.016.212.028.422.036.638a5.225,5.225,0,0,0,.06.636,3.906,3.906,0,0,0,.136.59,1.506,1.506,0,0,0,.27.5H88.36l-.162-.36a4.074,4.074,0,0,1-.054-.512c-.008-.186-.016-.386-.024-.6a3.919,3.919,0,0,0-.072-.634c-.032-.206-.072-.406-.12-.594a1.426,1.426,0,0,0-.228-.492l-.406-.336a1.544,1.544,0,0,0-.672-.124H83.844v3.656H82.7v-8.558Zm.24,3.882a1.628,1.628,0,0,0,.628-.234,1.244,1.244,0,0,0,.432-.466,1.558,1.558,0,0,0,.162-.76,1.536,1.536,0,0,0-.358-1.056,1.47,1.47,0,0,0-1.162-.406H83.844V455.6h2.37a4.587,4.587,0,0,0,.756-.062" transform="translate(22.988 0.102)" fill="#424143"/>
    <path id="Path_43136" data-name="Path 43136" d="M92.718,451.651v.96h-4.77v2.72h4.446v.96H87.948v2.958h4.806v.96H86.81v-8.558Z" transform="translate(27.181 0.101)" fill="#424143"/>
    <path id="Path_43137" data-name="Path 43137" d="M93.407,451.651a4.265,4.265,0,0,1,3.044,1.008,4.03,4.03,0,0,1,1.068,3.066,6.925,6.925,0,0,1-.24,1.914,3.583,3.583,0,0,1-.744,1.4,3.2,3.2,0,0,1-1.282.868,5.131,5.131,0,0,1-1.846.3H90.471v-8.558Zm.1,7.6a4.66,4.66,0,0,0,.478-.028,2.67,2.67,0,0,0,.612-.144,2.89,2.89,0,0,0,.642-.332,2.069,2.069,0,0,0,.568-.586,3.208,3.208,0,0,0,.414-.93,4.867,4.867,0,0,0,.162-1.348,5.7,5.7,0,0,0-.15-1.37,2.661,2.661,0,0,0-.492-1.032,2.155,2.155,0,0,0-.88-.648,3.594,3.594,0,0,0-1.33-.218H91.611v6.636Z" transform="translate(30.932 0.101)" fill="#424143"/>
    <path id="Path_43138" data-name="Path 43138" d="M99.459,451.651c.182,0,.38,0,.594.008s.418.016.628.036a4.469,4.469,0,0,1,.58.09l.462.178a2.252,2.252,0,0,1,.714.7,1.936,1.936,0,0,1,.292,1.09,2.064,2.064,0,0,1-.33,1.18,1.934,1.934,0,0,1-.938.738v.024a1.966,1.966,0,0,1,1.208.718,2.155,2.155,0,0,1,.42,1.344,2.546,2.546,0,0,1-.168.91,2.285,2.285,0,0,1-.5.786,2.486,2.486,0,0,1-.814.55,2.8,2.8,0,0,1-1.12.21H96.355v-8.558Zm.31,3.68a2.252,2.252,0,0,0,1.4-.34,1.241,1.241,0,0,0,.426-1.028,1.491,1.491,0,0,0-.144-.718l-.394-.406a1.594,1.594,0,0,0-.584-.188,5.535,5.535,0,0,0-.7-.038H97.493v2.718Zm.576,3.918a1.624,1.624,0,0,0,1.18-.406,1.5,1.5,0,0,0,.426-1.126,1.414,1.414,0,0,0-.156-.694,1.205,1.205,0,0,0-.412-.438,1.753,1.753,0,0,0-.594-.23,3.618,3.618,0,0,0-.7-.064h-2.6v2.958Z" transform="translate(36.948 0.101)" fill="#424143"/>
    <path id="Path_43139" data-name="Path 43139" d="M104.451,460.21h-1.138v-3.5L100,451.652h1.356l2.564,4.074,2.5-4.074h1.3l-3.272,5.058Z" transform="translate(40.688 0.102)" fill="#424143"/>
    <path id="Path_43140" data-name="Path 43140" d="M61.052,473.821h.772l-.718,2.992a1.283,1.283,0,0,0,.064,1,.906.906,0,0,0,.814.334,1.42,1.42,0,0,0,.972-.334,1.853,1.853,0,0,0,.546-1l.716-2.992h.776l-.728,3.06a2.677,2.677,0,0,1-.854,1.5,2.467,2.467,0,0,1-1.6.5,1.617,1.617,0,0,1-1.362-.5,1.781,1.781,0,0,1-.126-1.5Z" transform="translate(0 22.608)" fill="#424143"/>
    <path id="Path_43141" data-name="Path 43141" d="M62.561,478.844l1.222-5.122,2.33,3.016L66.3,477l.2.33.816-3.412h.722l-1.224,5.12-2.378-3.066-.182-.27-.15-.288-.816,3.426Z" transform="translate(2.333 22.508)" fill="#424143"/>
    <path id="Path_43142" data-name="Path 43142" d="M65.263,478.744l1.18-4.922h.776l-1.172,4.922Z" transform="translate(5.036 22.608)" fill="#424143"/>
    <path id="Path_43143" data-name="Path 43143" d="M66.215,478.744l1.178-4.922h2.676l-.162.676H68.015l-.3,1.224h1.9l-.166.71h-1.9l-.556,2.312Z" transform="translate(5.987 22.608)" fill="#424143"/>
    <path id="Path_43144" data-name="Path 43144" d="M67.984,478.744l1.18-4.922h.778l-1.182,4.922Z" transform="translate(7.756 22.608)" fill="#424143"/>
    <path id="Path_43145" data-name="Path 43145" d="M68.932,478.744l1.182-4.922h2.678l-.162.676H70.736l-.3,1.234h1.9l-.17.7h-1.9l-.38,1.592h1.9l-.17.718Z" transform="translate(8.896 22.608)" fill="#424143"/>
    <path id="Path_43146" data-name="Path 43146" d="M70.723,478.745l1.174-4.924h1.054a6.045,6.045,0,0,1,1.414.106,1.409,1.409,0,0,1,.652.352,1.473,1.473,0,0,1,.432.842,2.874,2.874,0,0,1-.064,1.164,3.794,3.794,0,0,1-.494,1.164,2.932,2.932,0,0,1-.836.832,2.686,2.686,0,0,1-.8.358,5.9,5.9,0,0,1-1.28.106H70.723Zm.95-.724h.658a3.468,3.468,0,0,0,.826-.076,1.52,1.52,0,0,0,.53-.244,2.032,2.032,0,0,0,.554-.6,2.985,2.985,0,0,0,.33-.83,2.183,2.183,0,0,0,.062-.822,1.067,1.067,0,0,0-.268-.588l-.422-.254a3.857,3.857,0,0,0-.872-.07H72.5Z" transform="translate(10.729 22.608)" fill="#424143"/>
    <path id="Path_43147" data-name="Path 43147" d="M75.48,476.534l-.528,2.21h-.736l1.184-4.922h1.174a3.665,3.665,0,0,1,.762.058l.388.19a.817.817,0,0,1,.24.468,1.472,1.472,0,0,1-.022.642,2.128,2.128,0,0,1-.278.642,1.617,1.617,0,0,1-.47.464l-.476.19a3.593,3.593,0,0,1-.784.058H75.48Zm.206-.658h.2a1.925,1.925,0,0,0,.9-.144.768.768,0,0,0,.336-.512c.066-.26.03-.45-.1-.55a1.33,1.33,0,0,0-.81-.162h-.2Z" transform="translate(14.296 22.608)" fill="#424143"/>
    <path id="Path_43148" data-name="Path 43148" d="M79.314,478.844l-.242-1.27h-1.9l-.856,1.27H75.5l3.546-5.122,1.1,5.122Zm-1.692-1.932H78.96l-.218-1.124-.032-.248-.02-.312-.154.3-.152.262Z" transform="translate(15.61 22.508)" fill="#424143"/>
    <path id="Path_43149" data-name="Path 43149" d="M78.6,478.744l.536-2.252-.976-2.67h.822l.606,1.67.05.166.048.228.156-.224.15-.19,1.43-1.65H82.2l-2.294,2.67-.54,2.252Z" transform="translate(18.328 22.608)" fill="#424143"/>
    <path id="Path_43150" data-name="Path 43150" d="M84.582,476.414l.034-.316.036-.354-.166.332-.216.344-1.884,2.624-.616-2.678-.062-.316-.022-.306-.106.322-.146.354-1.094,2.426h-.72l2.364-5.128.67,3.1.048.246.054.424c.084-.138.2-.326.35-.536l.086-.138,2.13-3.1-.07,5.128H84.53Z" transform="translate(19.828 22.504)" fill="#424143"/>
    <path id="Path_43151" data-name="Path 43151" d="M82.746,478.744l1.182-4.922H86.61l-.168.676H84.55l-.3,1.234h1.9l-.168.7h-1.9l-.38,1.592h1.9l-.172.718Z" transform="translate(23.015 22.608)" fill="#424143"/>
    <path id="Path_43152" data-name="Path 43152" d="M84.534,478.844l1.222-5.122,2.334,3.016.19.266.186.33.818-3.412h.722l-1.222,5.12-2.378-3.066-.178-.27-.152-.288-.826,3.426Z" transform="translate(24.851 22.508)" fill="#424143"/>
    <path id="Path_43153" data-name="Path 43153" d="M89.544,474.5l-1.016,4.246h-.784L88.76,474.5H87.488l.16-.676h3.326l-.16.676Z" transform="translate(27.859 22.608)" fill="#424143"/>
    <path id="Path_43154" data-name="Path 43154" d="M88.922,477.816l.688-.3a.653.653,0,0,0,.21.5.814.814,0,0,0,.558.174.934.934,0,0,0,.6-.2.967.967,0,0,0,.334-.534c.068-.288-.1-.548-.516-.768l-.134-.074a2.443,2.443,0,0,1-.888-.72,1.025,1.025,0,0,1-.074-.786,1.674,1.674,0,0,1,.634-.976,1.785,1.785,0,0,1,1.134-.376,1.474,1.474,0,0,1,.842.216.819.819,0,0,1,.344.6l-.686.33-.234-.34-.374-.108a.83.83,0,0,0-.534.172l-.3.442c-.072.3.138.574.614.834l.088.042a2.052,2.052,0,0,1,.82.664,1.011,1.011,0,0,1,.068.8,1.932,1.932,0,0,1-.688,1.114,2.023,2.023,0,0,1-1.262.41,1.375,1.375,0,0,1-.938-.29,1.026,1.026,0,0,1-.31-.828" transform="translate(29.326 22.551)" fill="#424143"/>
    <path id="Path_43155" data-name="Path 43155" d="M91.8,478.744l1.182-4.922h.78l-1.184,4.922Z" transform="translate(32.258 22.608)" fill="#424143"/>
    <path id="Path_43156" data-name="Path 43156" d="M92.753,478.844l1.23-5.122,2.326,3.016.18.266.2.33.814-3.412h.722L97,479.042l-2.376-3.066-.178-.27-.158-.288-.816,3.426Z" transform="translate(33.254 22.508)" fill="#424143"/>
    <path id="Path_43157" data-name="Path 43157" d="M97.76,474.5l-1.012,4.246h-.786l1.016-4.246H95.706l.16-.676H99.19l-.158.676Z" transform="translate(36.258 22.608)" fill="#424143"/>
    <path id="Path_43158" data-name="Path 43158" d="M97.159,478.744l1.18-4.922h2.676l-.166.676h-1.9l-.3,1.234h1.9l-.17.7h-1.9l-.384,1.592H100l-.172.718Z" transform="translate(37.745 22.608)" fill="#424143"/>
    <path id="Path_43159" data-name="Path 43159" d="M100.2,476.543l-.528,2.2h-.732l1.18-4.924h1.088a3.437,3.437,0,0,1,.728.062l.4.214a.878.878,0,0,1,.232.458,1.488,1.488,0,0,1-.026.624,1.812,1.812,0,0,1-.5.922,1.557,1.557,0,0,1-.916.4l1.116,2.242h-.888l-1.07-2.2Zm.194-.624h.142a1.722,1.722,0,0,0,.862-.154.8.8,0,0,0,.332-.52.57.57,0,0,0-.084-.574,1.237,1.237,0,0,0-.772-.164h-.138Z" transform="translate(39.569 22.608)" fill="#424143"/>
    <path id="Path_43160" data-name="Path 43160" d="M100.825,478.744,102,473.822h2.682l-.164.676h-1.894l-.3,1.224h1.9l-.166.71h-1.9l-.552,2.312Z" transform="translate(41.493 22.608)" fill="#424143"/>
    <path id="Path_43161" data-name="Path 43161" d="M105.964,478.844l-.236-1.27h-1.9l-.866,1.27h-.816l3.552-5.122,1.094,5.122Zm-1.694-1.932h1.338l-.222-1.124-.028-.248-.018-.312-.156.3-.15.262Z" transform="translate(43.006 22.508)" fill="#424143"/>
    <path id="Path_43162" data-name="Path 43162" d="M109.231,475.073a1.756,1.756,0,0,0-.6-.43,1.85,1.85,0,0,0-.744-.148,2.1,2.1,0,0,0-1.4.522,2.406,2.406,0,0,0-.816,1.34,1.609,1.609,0,0,0,.162,1.316,1.246,1.246,0,0,0,1.1.518,2.483,2.483,0,0,0,.844-.156,3.357,3.357,0,0,0,.85-.468l-.216.9a2.818,2.818,0,0,1-.768.342,2.926,2.926,0,0,1-.832.122,2.445,2.445,0,0,1-.974-.184,1.8,1.8,0,0,1-.69-.55,1.749,1.749,0,0,1-.33-.832,2.376,2.376,0,0,1,.046-1.02,3.476,3.476,0,0,1,2.128-2.4,2.992,2.992,0,0,1,1.046-.182,2.217,2.217,0,0,1,.78.124,2.052,2.052,0,0,1,.65.382Z" transform="translate(45.643 22.549)" fill="#424143"/>
    <path id="Path_43163" data-name="Path 43163" d="M107.042,478.744l1.182-4.922H110.9l-.164.676h-1.9l-.292,1.234h1.9l-.166.7h-1.9l-.386,1.592h1.9l-.174.718Z" transform="translate(47.906 22.608)" fill="#424143"/>
    <path id="Path_43164" data-name="Path 43164" d="M102.608,485.143H97.244l7.464-26.94h5.364Z" transform="translate(37.914 6.85)" fill="#6e6f71"/>
    <path id="Path_43165" data-name="Path 43165" d="M117.876,459.014a1.978,1.978,0,0,0-1.726-.766H86.662l-1.466,5.27h5.37v0h21.462l-1.56,5.642H89.006v-.014H83.642l-4.45,16.072h5.362l2.992-10.788h24.126a3.4,3.4,0,0,0,2.13-.772,3.6,3.6,0,0,0,1.316-1.9l2.982-10.788a2.192,2.192,0,0,0-.224-1.948" transform="translate(19.613 6.897)" fill="#6e6f71"/>
    <path id="Path_43166" data-name="Path 43166" d="M93.664,483.424a2.463,2.463,0,0,1-2.372,1.81H63.62a1.915,1.915,0,0,1-1.68-.776,2.143,2.143,0,0,1-.238-1.906l6.754-24.308h5.366L67.8,479.956H89.264L95.3,458.244h5.368Z" transform="translate(1.36 6.893)" fill="#6e6f71"/>
    <path id="Path_43167" data-name="Path 43167" d="M112.033,458.232l6.788,13.5-14.278,13.5Z" transform="translate(45.407 6.88)" fill="#028c45"/>
    <path id="Path_43168" data-name="Path 43168" d="M109.661,458.232l6.78,13.5-14.282,13.5Z" transform="translate(43.023 6.88)" fill="#f47920"/>
  </g>
</svg>
