<svg xmlns="http://www.w3.org/2000/svg" width="52" height="25" viewBox="0 0 52 25">
  <g id="Group_36665" data-name="Group 36665" transform="translate(-60.228 -451.55)">
    <path id="Path_43131" data-name="Path 43131" d="M66.932,451.651a1.336,1.336,0,0,1,.98.332,1.475,1.475,0,0,1,0,1.867,1.3,1.3,0,0,1-.98.33H65.627v1.75h-.57v-4.279Zm-.19,2.049a1,1,0,0,0,.709-.2.876.876,0,0,0,0-1.172,1.05,1.05,0,0,0-.709-.2H65.627V453.7Z" fill="#424143"/>
    <path id="Path_43132" data-name="Path 43132" d="M68.83,452.949a2.1,2.1,0,0,1,.386-.715,1.9,1.9,0,0,1,.641-.5,2.237,2.237,0,0,1,1.786,0,1.889,1.889,0,0,1,.642.5,2.118,2.118,0,0,1,.385.715,2.816,2.816,0,0,1,0,1.685,2.119,2.119,0,0,1-.385.715,1.83,1.83,0,0,1-.642.494,2.259,2.259,0,0,1-1.786,0,1.836,1.836,0,0,1-.641-.494,2.1,2.1,0,0,1-.386-.715,2.816,2.816,0,0,1,0-1.685m.524,1.48a1.721,1.721,0,0,0,.264.566,1.346,1.346,0,0,0,.461.4,1.557,1.557,0,0,0,1.342,0,1.337,1.337,0,0,0,.461-.4,1.721,1.721,0,0,0,.264-.566,2.461,2.461,0,0,0,0-1.275,1.726,1.726,0,0,0-.264-.567,1.324,1.324,0,0,0-.461-.4,1.539,1.539,0,0,0-1.342,0,1.333,1.333,0,0,0-.461.4,1.726,1.726,0,0,0-.264.567,2.461,2.461,0,0,0,0,1.275" transform="translate(0.098)" fill="#424143"/>
    <path id="Path_43133" data-name="Path 43133" d="M76.766,455.931l-.977-3.6h-.012l-.989,3.6H74.2l-1.1-4.279h.581l.839,3.56h.012l.959-3.56h.617l.946,3.56h.013l.868-3.56H78.5l-1.144,4.279Z" transform="translate(0.153)" fill="#424143"/>
    <path id="Path_43134" data-name="Path 43134" d="M82,451.651v.48H79.612v1.36h2.223v.48H79.612v1.479h2.4v.48H79.043v-4.279Z" transform="translate(0.212)" fill="#424143"/>
    <path id="Path_43135" data-name="Path 43135" d="M84.717,451.652a1.4,1.4,0,0,1,.956.3,1.034,1.034,0,0,1,.345.821,1.311,1.311,0,0,1-.177.683.914.914,0,0,1-.567.4v.011a.788.788,0,0,1,.3.121l.186.2a.892.892,0,0,1,.1.261,2.778,2.778,0,0,1,.052.3c.008.106.014.211.018.319a2.612,2.612,0,0,0,.03.318,1.953,1.953,0,0,0,.068.3.753.753,0,0,0,.135.25h-.635l-.081-.18a2.037,2.037,0,0,1-.027-.256c0-.093-.008-.193-.012-.3a1.96,1.96,0,0,0-.036-.317c-.016-.1-.036-.2-.06-.3a.713.713,0,0,0-.114-.246l-.2-.168a.772.772,0,0,0-.336-.062H83.274v1.828H82.7v-4.279Zm.12,1.941a.814.814,0,0,0,.314-.117.622.622,0,0,0,.216-.233.779.779,0,0,0,.081-.38.768.768,0,0,0-.179-.528.735.735,0,0,0-.581-.2H83.274v1.492h1.185a2.293,2.293,0,0,0,.378-.031" transform="translate(0.256)" fill="#424143"/>
    <path id="Path_43136" data-name="Path 43136" d="M89.764,451.651v.48H87.379v1.36H89.6v.48H87.379v1.479h2.4v.48H86.81v-4.279Z" transform="translate(0.299)" fill="#424143"/>
    <path id="Path_43137" data-name="Path 43137" d="M91.939,451.651a2.132,2.132,0,0,1,1.522.5A2.015,2.015,0,0,1,94,453.688a3.462,3.462,0,0,1-.12.957,1.792,1.792,0,0,1-.372.7,1.6,1.6,0,0,1-.641.434,2.566,2.566,0,0,1-.923.15H90.471v-4.279Zm.048,3.8a2.33,2.33,0,0,0,.239-.014,1.335,1.335,0,0,0,.306-.072,1.445,1.445,0,0,0,.321-.166,1.035,1.035,0,0,0,.284-.293,1.6,1.6,0,0,0,.207-.465,2.433,2.433,0,0,0,.081-.674,2.85,2.85,0,0,0-.075-.685,1.331,1.331,0,0,0-.246-.516,1.077,1.077,0,0,0-.44-.324,1.8,1.8,0,0,0-.665-.109h-.958v3.318Z" transform="translate(0.345)" fill="#424143"/>
    <path id="Path_43138" data-name="Path 43138" d="M97.907,451.651c.091,0,.19,0,.3,0s.209.008.314.018a2.235,2.235,0,0,1,.29.045l.231.089a1.126,1.126,0,0,1,.357.348.968.968,0,0,1,.146.545,1.032,1.032,0,0,1-.165.59.967.967,0,0,1-.469.369v.012a.983.983,0,0,1,.6.359,1.077,1.077,0,0,1,.21.672,1.273,1.273,0,0,1-.084.455,1.143,1.143,0,0,1-.249.393,1.243,1.243,0,0,1-.407.275,1.4,1.4,0,0,1-.56.1H96.355v-4.279Zm.155,1.84a1.126,1.126,0,0,0,.7-.17.621.621,0,0,0,.213-.514.745.745,0,0,0-.072-.359l-.2-.2a.8.8,0,0,0-.292-.094,2.767,2.767,0,0,0-.35-.019H96.924v1.359Zm.288,1.959a.812.812,0,0,0,.59-.2.748.748,0,0,0,.213-.563.707.707,0,0,0-.078-.347.6.6,0,0,0-.206-.219.876.876,0,0,0-.3-.115,1.809,1.809,0,0,0-.348-.032h-1.3v1.479Z" transform="translate(0.41)" fill="#424143"/>
    <path id="Path_43139" data-name="Path 43139" d="M102.227,455.931h-.569v-1.75L100,451.652h.678l1.282,2.037,1.252-2.037h.648l-1.636,2.529Z" transform="translate(0.456)" fill="#424143"/>
    <path id="Path_43140" data-name="Path 43140" d="M60.64,473.821h.386l-.359,1.5a.642.642,0,0,0,.032.5.453.453,0,0,0,.407.167.71.71,0,0,0,.486-.167.927.927,0,0,0,.273-.5l.358-1.5h.388l-.364,1.53a1.338,1.338,0,0,1-.427.749,1.233,1.233,0,0,1-.8.248.808.808,0,0,1-.681-.248.89.89,0,0,1-.063-.749Z" transform="translate(0 0.168)" fill="#424143"/>
    <path id="Path_43141" data-name="Path 43141" d="M62.561,476.283l.611-2.561,1.165,1.508.091.133.1.165.408-1.706H65.3l-.612,2.56-1.189-1.533-.091-.135-.075-.144-.408,1.713Z" transform="translate(0 0.168)" fill="#424143"/>
    <path id="Path_43142" data-name="Path 43142" d="M65.263,476.283l.59-2.461h.388l-.586,2.461Z" transform="translate(0 0.168)" fill="#424143"/>
    <path id="Path_43143" data-name="Path 43143" d="M66.215,476.283l.589-2.461h1.338l-.081.338h-.946l-.15.612h.948l-.083.355h-.948l-.278,1.156Z" transform="translate(0 0.168)" fill="#424143"/>
    <path id="Path_43144" data-name="Path 43144" d="M67.984,476.283l.59-2.461h.389l-.591,2.461Z" transform="translate(0 0.168)" fill="#424143"/>
    <path id="Path_43145" data-name="Path 43145" d="M68.932,476.283l.591-2.461h1.339l-.081.338h-.947l-.15.617h.95l-.085.351H69.6l-.19.8h.948l-.085.359Z" transform="translate(0.096 0.168)" fill="#424143"/>
    <path id="Path_43146" data-name="Path 43146" d="M70.723,476.283l.587-2.462h.527a3.022,3.022,0,0,1,.707.053.7.7,0,0,1,.326.176.737.737,0,0,1,.216.421,1.437,1.437,0,0,1-.032.582,1.9,1.9,0,0,1-.247.582,1.466,1.466,0,0,1-.418.416,1.343,1.343,0,0,1-.4.179,2.951,2.951,0,0,1-.64.053h-.628Zm.475-.362h.329a1.734,1.734,0,0,0,.413-.038.76.76,0,0,0,.265-.122,1.016,1.016,0,0,0,.277-.3,1.493,1.493,0,0,0,.165-.415,1.092,1.092,0,0,0,.031-.411.534.534,0,0,0-.134-.294l-.211-.127a1.929,1.929,0,0,0-.436-.035h-.284Z" transform="translate(0.117 0.168)" fill="#424143"/>
    <path id="Path_43147" data-name="Path 43147" d="M74.848,475.178l-.264,1.1h-.368l.592-2.461h.587a1.832,1.832,0,0,1,.381.029l.194.1a.408.408,0,0,1,.12.234.736.736,0,0,1-.011.321,1.064,1.064,0,0,1-.139.321.809.809,0,0,1-.235.232l-.238.1a1.8,1.8,0,0,1-.392.029h-.227Zm.1-.329h.1a.962.962,0,0,0,.451-.072.384.384,0,0,0,.168-.256c.033-.13.015-.225-.049-.275a.665.665,0,0,0-.4-.081h-.1Z" transform="translate(0.154 0.168)" fill="#424143"/>
    <path id="Path_43148" data-name="Path 43148" d="M77.406,476.283l-.121-.635h-.95l-.428.635H75.5l1.773-2.561.549,2.561Zm-.846-.966h.669l-.109-.562-.016-.124-.01-.156-.077.149-.076.131Z" transform="translate(0.17 0.168)" fill="#424143"/>
    <path id="Path_43149" data-name="Path 43149" d="M78.38,476.283l.268-1.126-.488-1.335h.411l.3.835.025.083.024.114.078-.112.075-.1.715-.825h.391l-1.147,1.335-.27,1.126Z" transform="translate(0.198 0.168)" fill="#424143"/>
    <path id="Path_43150" data-name="Path 43150" d="M82.1,475.066l.017-.158.018-.177-.083.166-.108.172L81,476.381l-.308-1.339-.031-.158-.011-.153-.053.161-.073.177-.547,1.213h-.36l1.182-2.564.335,1.552.024.123.027.212c.042-.069.1-.163.175-.268l.043-.069,1.065-1.55-.035,2.564h-.361Z" transform="translate(0.218 0.168)" fill="#424143"/>
    <path id="Path_43151" data-name="Path 43151" d="M82.746,476.283l.591-2.461h1.341l-.084.338h-.946l-.149.617h.948l-.084.351h-.949l-.19.8h.948l-.086.359Z" transform="translate(0.248 0.168)" fill="#424143"/>
    <path id="Path_43152" data-name="Path 43152" d="M84.534,476.283l.611-2.561,1.167,1.508.095.133.093.165.409-1.706h.361l-.611,2.56-1.189-1.533-.089-.135-.076-.144-.413,1.713Z" transform="translate(0.272 0.168)" fill="#424143"/>
    <path id="Path_43153" data-name="Path 43153" d="M88.516,474.16l-.508,2.123h-.392l.508-2.123h-.636l.08-.338h1.663l-.08.338Z" transform="translate(0.299 0.168)" fill="#424143"/>
    <path id="Path_43154" data-name="Path 43154" d="M88.922,475.79l.344-.149a.327.327,0,0,0,.105.252.407.407,0,0,0,.279.087.467.467,0,0,0,.3-.1.484.484,0,0,0,.167-.267c.034-.144-.052-.274-.258-.384l-.067-.037a1.221,1.221,0,0,1-.444-.36.512.512,0,0,1-.037-.393.837.837,0,0,1,.317-.488.892.892,0,0,1,.567-.188.737.737,0,0,1,.421.108.409.409,0,0,1,.172.3l-.343.165-.117-.17-.187-.054a.415.415,0,0,0-.267.086l-.148.221c-.036.149.069.287.307.417l.044.021a1.026,1.026,0,0,1,.41.332.505.505,0,0,1,.034.4.966.966,0,0,1-.344.557,1.012,1.012,0,0,1-.631.2.688.688,0,0,1-.469-.145.513.513,0,0,1-.155-.414" transform="translate(0.316 0.168)" fill="#424143"/>
    <path id="Path_43155" data-name="Path 43155" d="M91.8,476.283l.591-2.461h.39l-.592,2.461Z" transform="translate(0.342 0.168)" fill="#424143"/>
    <path id="Path_43156" data-name="Path 43156" d="M92.753,476.283l.615-2.561,1.163,1.508.09.133.1.165.407-1.706h.361l-.613,2.56-1.188-1.533-.089-.135-.079-.144-.408,1.713Z" transform="translate(0.365 0.168)" fill="#424143"/>
    <path id="Path_43157" data-name="Path 43157" d="M96.733,474.16l-.506,2.123h-.393l.508-2.123h-.636l.08-.338h1.662l-.079.338Z" transform="translate(0.39 0.168)" fill="#424143"/>
    <path id="Path_43158" data-name="Path 43158" d="M97.159,476.283l.59-2.461h1.338L99,474.16h-.949l-.148.617h.951l-.085.351h-.948l-.192.8h.949l-.086.359Z" transform="translate(0.407 0.168)" fill="#424143"/>
    <path id="Path_43159" data-name="Path 43159" d="M99.575,475.182l-.264,1.1h-.366l.59-2.462h.544a1.719,1.719,0,0,1,.364.031l.2.107a.439.439,0,0,1,.116.229.744.744,0,0,1-.013.312.906.906,0,0,1-.249.461.779.779,0,0,1-.458.2l.558,1.121h-.444l-.535-1.1Zm.1-.312h.071a.861.861,0,0,0,.431-.077.4.4,0,0,0,.166-.26.285.285,0,0,0-.042-.287.619.619,0,0,0-.386-.082h-.069Z" transform="translate(0.426 0.168)" fill="#424143"/>
    <path id="Path_43160" data-name="Path 43160" d="M100.825,476.283l.588-2.461h1.341l-.082.338h-.947l-.149.612h.949l-.083.355h-.952l-.276,1.156Z" transform="translate(0.448 0.168)" fill="#424143"/>
    <path id="Path_43161" data-name="Path 43161" d="M104.053,476.283l-.118-.635h-.952l-.433.635h-.408l1.776-2.561.547,2.561Zm-.847-.966h.669l-.111-.562-.014-.124-.009-.156-.078.149-.075.131Z" transform="translate(0.546 0.168)" fill="#424143"/>
    <path id="Path_43162" data-name="Path 43162" d="M107,474.418a.878.878,0,0,0-.3-.215.925.925,0,0,0-.372-.074,1.049,1.049,0,0,0-.7.261,1.2,1.2,0,0,0-.408.67.8.8,0,0,0,.081.658.623.623,0,0,0,.548.259,1.241,1.241,0,0,0,.422-.078,1.679,1.679,0,0,0,.425-.234l-.108.452a1.409,1.409,0,0,1-.384.171,1.463,1.463,0,0,1-.416.061,1.222,1.222,0,0,1-.487-.092.9.9,0,0,1-.345-.275.875.875,0,0,1-.165-.416,1.188,1.188,0,0,1,.023-.51,1.738,1.738,0,0,1,1.064-1.2,1.5,1.5,0,0,1,.523-.091,1.108,1.108,0,0,1,.39.062,1.026,1.026,0,0,1,.325.191Z" transform="translate(0.546 0.168)" fill="#424143"/>
    <path id="Path_43163" data-name="Path 43163" d="M107.042,476.283l.591-2.461h1.338l-.082.338h-.951l-.146.617h.949l-.083.351h-.95l-.193.8h.951l-.087.359Z" transform="translate(0.546 0.168)" fill="#424143"/>
    <path id="Path_43164" data-name="Path 43164" d="M99.926,471.673H97.244l3.732-13.47h2.682Z" transform="translate(0.449 0.099)" fill="#6e6f71"/>
    <path id="Path_43165" data-name="Path 43165" d="M98.534,458.631a.989.989,0,0,0-.863-.383H82.927l-.733,2.635h2.685v0H95.61l-.78,2.821H84.1V463.7H81.417l-2.225,8.036h2.681l1.5-5.394H95.432a1.7,1.7,0,0,0,1.065-.386,1.8,1.8,0,0,0,.658-.952l1.491-5.394a1.1,1.1,0,0,0-.112-.974" transform="translate(0.324 0.099)" fill="#6e6f71"/>
    <path id="Path_43166" data-name="Path 43166" d="M77.626,470.834a1.231,1.231,0,0,1-1.186.9H62.6a.958.958,0,0,1-.84-.388,1.072,1.072,0,0,1-.119-.953l3.377-12.154h2.683L64.692,469.1H75.426l3.016-10.856h2.684Z" transform="translate(0 0.099)" fill="#6e6f71"/>
    <path id="Path_43167" data-name="Path 43167" d="M108.288,458.232l3.394,6.75-7.139,6.752Z" transform="translate(0.546 0.099)" fill="#028c45"/>
    <path id="Path_43168" data-name="Path 43168" d="M105.91,458.232l3.39,6.75-7.141,6.752Z" transform="translate(0.546 0.099)" fill="#f47920"/>
  </g>
</svg>
