<svg xmlns="http://www.w3.org/2000/svg" width="40.109" height="49.547" viewBox="0 0 40.109 49.547">
  <g id="premium-pay" transform="translate(-7 -3)">
    <path id="Path_43881" data-name="Path 43881" d="M46.391,46.648V4.18A1.183,1.183,0,0,0,45.211,3H12.18A1.183,1.183,0,0,0,11,4.18V46.648a1.183,1.183,0,0,0,1.18,1.18H45.211A1.183,1.183,0,0,0,46.391,46.648Zm-2.359-1.18H13.359V5.359H44.031Z" transform="translate(0.719)" fill="#007c3d"/>
    <path id="Path_43882" data-name="Path 43882" d="M8.18,7A1.183,1.183,0,0,0,7,8.18V50.648a1.183,1.183,0,0,0,1.18,1.18H41.211a1.18,1.18,0,0,0,0-2.359H9.359V8.18A1.183,1.183,0,0,0,8.18,7Z" transform="translate(0 0.719)" fill="#007c3d"/>
    <path id="Path_43884" data-name="Path 43884" d="M27.617,35.234A10.617,10.617,0,1,0,17,24.617,10.633,10.633,0,0,0,27.617,35.234Zm0-18.875a8.258,8.258,0,1,1-8.258,8.258A8.267,8.267,0,0,1,27.617,16.359Z" transform="translate(1.797 1.977)" fill="#007c3d"/>
    <path id="Union_25" data-name="Union 25" d="M4.894,10.576l-2.825-3.5A3.949,3.949,0,0,0,1.3,6.3,1.066,1.066,0,0,0,.68,6.091H.435V4.572H1.6a6.1,6.1,0,0,0,.886-.063A2.63,2.63,0,0,0,3.212,4.3a1.468,1.468,0,0,0,.514-.393,1.009,1.009,0,0,0,.192-.385H0L.716,2.206h3.1a1.393,1.393,0,0,0-.431-.552,1.466,1.466,0,0,0-.468-.238,2.475,2.475,0,0,0-.638-.1H0L.716,0H8.09L7.374,1.316H5.44a2.491,2.491,0,0,1,.162.291,2.666,2.666,0,0,1,.2.6H8.09L7.374,3.522H5.819a2.649,2.649,0,0,1-.282.79,3.056,3.056,0,0,1-.614.777,3.491,3.491,0,0,1-.836.562,4.937,4.937,0,0,1-.606.245l3.8,4.679ZM.68,5.861a1.326,1.326,0,0,1,.769.254,4.154,4.154,0,0,1,.816.82l2.751,3.411h0L2.266,6.936a4.154,4.154,0,0,0-.816-.82A1.326,1.326,0,0,0,.68,5.861ZM5.319,4.207a2.813,2.813,0,0,1-.567.718,3.234,3.234,0,0,1-.777.523,4.642,4.642,0,0,1-.9.327,4.642,4.642,0,0,0,.9-.327,3.234,3.234,0,0,0,.777-.523,2.813,2.813,0,0,0,.567-.718,2.491,2.491,0,0,0,.288-.914H7.223l.466-.856-.466.856H5.607A2.491,2.491,0,0,1,5.319,4.207ZM.4,3.292h0Zm3.745-.856a1.657,1.657,0,0,0-.606-.958,2.129,2.129,0,0,0-1.259-.392h0a2.129,2.129,0,0,1,1.259.392A1.657,1.657,0,0,1,4.146,2.436Zm3.077-1.35L7.689.23l-.466.856h0Z" transform="translate(25.317 21.875)" fill="#007c3d"/>
  </g>
</svg>
