<svg xmlns="http://www.w3.org/2000/svg" width="16" height="16" viewBox="0 0 16 16"><defs><style>.a{fill:#007c3d;}</style></defs><path class="a" d="M13.656,4.031h-.437V2.344A2.346,2.346,0,0,0,10.875,0H5.125A2.346,2.346,0,0,0,2.781,2.344V4.031H2.344A2.346,2.346,0,0,0,0,6.375v3.75a2.346,2.346,0,0,0,2.344,2.344h.438v2.125A1.408,1.408,0,0,0,4.188,16h7.625a1.408,1.408,0,0,0,1.406-1.406V12.469h.438A2.346,2.346,0,0,0,16,10.125V6.375A2.346,2.346,0,0,0,13.656,4.031ZM3.719,2.344A1.408,1.408,0,0,1,5.125.938h5.75a1.408,1.408,0,0,1,1.406,1.406V4.031H3.719Zm8.563,12.25a.469.469,0,0,1-.469.469H4.188a.469.469,0,0,1-.469-.469V9.969h8.563Zm2.781-4.469a1.408,1.408,0,0,1-1.406,1.406h-.437V9.969H13.5a.469.469,0,0,0,0-.937H2.5a.469.469,0,0,0,0,.938h.281v1.563H2.344A1.408,1.408,0,0,1,.938,10.125V6.375A1.408,1.408,0,0,1,2.344,4.969H13.656a1.408,1.408,0,0,1,1.406,1.406Z"/><path class="a" d="M203.969,353h-2.5a.469.469,0,0,0,0,.938h2.5a.469.469,0,0,0,0-.937Z" transform="translate(-194.719 -341.969)"/><path class="a" d="M203.969,417h-2.5a.469.469,0,0,0,0,.938h2.5a.469.469,0,0,0,0-.937Z" transform="translate(-194.719 -403.969)"/><path class="a" d="M66.969,193h-1.5a.469.469,0,0,0,0,.938h1.5a.469.469,0,0,0,0-.937Z" transform="translate(-62.969 -186.969)"/></svg>