<?xml version="1.0" encoding="utf-8"?>
<!-- Generator: Adobe Illustrator 23.0.1, SVG Export Plug-In . SVG Version: 6.00 Build 0)  -->
<svg version="1.1" id="Layer_1" xmlns="http://www.w3.org/2000/svg" xmlns:xlink="http://www.w3.org/1999/xlink" x="0px" y="0px"
	 viewBox="0 0 16 16" style="enable-background:new 0 0 16 16;" xml:space="preserve">
<style type="text/css">
	.st0{fill:#007C3D;}
</style>
<g id="privacy-policy" transform="translate(-61)">
	<path id="Path_43268" class="st0" d="M74.9,3.8L71.8,1c-0.1-0.1-0.2-0.1-0.3-0.1h-6.9c-0.9,0-1.7,0.7-1.7,1.5v11.2
		c0,0.8,0.8,1.5,1.7,1.5h8.7c0.9,0,1.7-0.7,1.7-1.5V4.1C75.1,4,75,3.9,74.9,3.8z M72,2.3l1.5,1.4H72V2.3z M73.4,14.3h-8.7
		c-0.4,0-0.8-0.3-0.8-0.7c0,0,0,0,0,0V2.4c0-0.4,0.4-0.7,0.8-0.7l0,0H71v2.4c0,0.2,0.2,0.4,0.5,0.4l0,0h2.7v9.1
		C74.1,14,73.8,14.3,73.4,14.3z"/>
	<path id="Path_43269" class="st0" d="M72.1,6.5c-0.6,0-1.1-0.3-1.4-0.8l-0.1-0.1c-0.1-0.1-0.2-0.2-0.4-0.2h-2.5
		c-0.2,0-0.3,0.1-0.4,0.2l-0.1,0.1c-0.3,0.5-0.8,0.8-1.4,0.8c-0.3,0-0.5,0.2-0.5,0.4v2.4c0,1.9,1.4,3.6,3.5,4.1c0.1,0,0.2,0,0.3,0
		c2-0.5,3.5-2.2,3.5-4.1V6.9C72.6,6.7,72.4,6.5,72.1,6.5z M71.6,9.3c0,1.5-1.1,2.8-2.7,3.3c-1.6-0.5-2.7-1.8-2.7-3.3v-2
		c0.7-0.1,1.3-0.5,1.7-1.1H70c0.4,0.6,1,1,1.7,1.1L71.6,9.3z"/>
	<path id="Path_43270" class="st0" d="M70,8.3l-1.4,1.3L68,9.1c-0.2-0.2-0.5-0.2-0.7,0c-0.2,0.2-0.2,0.4,0,0.6l0.9,0.8
		c0.2,0.2,0.5,0.2,0.7,0c0,0,0,0,0,0l1.8-1.6c0.2-0.2,0.2-0.4,0-0.6C70.5,8.2,70.2,8.2,70,8.3L70,8.3z"/>
</g>
</svg>
