<svg xmlns="http://www.w3.org/2000/svg" width="35" height="35" viewBox="0 0 35 35"><defs><style>.a{fill:#fff200;}.b{fill:#a3001d;fill-rule:evenodd;}</style></defs><g transform="translate(-27.633 -137.633)"><circle class="a" cx="17.5" cy="17.5" r="17.5" transform="translate(27.633 137.633)"/><path class="b" d="M351.019,440.312l.027-.291.027-.2.033-.195.041-.193.047-.19.055-.187.061-.184.068-.181.075-.178.081-.174.087-.171.093-.167.1-.163.1-.159.111-.156.115-.15.121-.147.127-.142.131-.137.136-.132.141-.127.145-.123.15-.117.154-.112.158-.106.163-.1.167-.094.169-.088.174-.082.177-.076.18-.069.252-.086v-1.116h.065l.163-.01.159-.019.156-.026.153-.034.151-.041.147-.047.144-.055.14-.06.137-.066.134-.072.131-.078.127-.083.124-.088.121-.092.117-.1.114-.1.11-.1.108-.108.1-.111.1-.114.1-.117.094-.119.178-.244.164-.25.151-.256.137-.257.06-.121.226-.312.224-.288.11-.133.11-.126.109-.119.11-.112.11-.106.11-.1.112-.093.113-.087.114-.081.116-.075.119-.07.121-.065.125-.06.128-.055.132-.051.136-.046.141-.042.145-.038.151-.033.158-.029.163-.026.169-.022.176-.019.373-.027c.173-.008.346-.014.519-.017v2.59l-.11-.018-.113-.012-.112-.006h-.11l-.107,0-.106.01-.1.015-.1.02-.1.025-.1.029-.094.034-.092.039-.09.043-.087.046-.085.05-.082.055-.08.057-.152.124-.141.135-.131.145-.12.154-.11.161-.1.166-.086.168c-.155.287-.3.577-.473.857-.059.1-.12.189-.184.282-.049.068-.1.134-.151.2s-.11.127-.167.189l-.123.121c-.066.059-.133.115-.2.171l-.15.108-.163.1-.088.049-.267.142.35.163.165.085.161.09.158.1.154.1.151.107.146.112.143.117.138.121.134.126.129.131.125.135.12.14.115.144.11.148.1.152.1.156.093.16.088.163.083.167.077.169.071.173.064.176.059.179.052.181.045.184.039.186.032.189.025.191.018.193.011.195,0,.2,0,.2-.011.2-.02.2-.026.2-.034.193-.04.19-.048.188-.054.185-.061.182-.068.179-.073.176-.08.172-.086.169-.092.165-.1.162-.1.158-.109.154-.114.15-.119.145-.125.141-.129.136-.134.132-.139.127-.143.121-.147.117-.152.112-.156.106-.16.1-.164.095-.167.088-.171.083-.56.245.594.03.171.017.167.025.166.034.162.042.159.049.156.056.152.064.148.071.145.078.141.084.136.09.132.1.126.1.121.108.117.114.111.119.106.125.1.129.093.134.088.139.08.143.074.147.067.15.06.154.053.158.045.161.038.164.029.167.021.169.013.172,0,.174,0,.177-.014.175-.021.172-.03.169-.039.166-.046.163-.055.16-.062.156-.069.153-.076.148-.083.144-.09.14-.1.135-.1.13-.108.125-.114.119-.119.114-.125.108-.13.1-.135.1-.14.09-.144.083-.148.076-.153.069-.156.062-.16.054-.163.046-.167.039-.169.03-.172.021-.175.014-.177,0-.173,0-.171-.012-.168-.021-.165-.029-.163-.037-.159-.045-.157-.052-.153-.059-.15-.066-.145-.073-.142-.08-.138-.086-.134-.092-.128-.1-.124-.1-.119-.109-.114-.115-.108-.12-.1-.125-.1-.13-.091-.135-.084-.139-.078-.143-.071-.147-.064-.151-.058-.154-.05-.158-.043-.16-.035-.163-.027-.166-.019-.169-.014-.219v-8.8h2.344v2.877l.229-.093.183-.087.175-.1.167-.112.158-.125.148-.135.138-.145.126-.156.115-.165.1-.173.09-.182.077-.189.033-.1.056-.2.022-.1.018-.1.014-.1.01-.105.006-.106,0-.108,0-.139-.011-.137-.017-.135-.024-.133-.03-.13-.036-.129-.043-.125-.049-.123-.055-.12-.06-.117-.065-.114-.071-.11-.075-.106-.08-.1-.086-.1-.089-.094-.094-.09-.1-.085-.1-.08-.106-.076-.11-.07-.113-.066-.117-.06-.12-.055-.123-.049-.126-.042-.128-.037-.131-.03-.133-.024-.136-.017-.137-.01-.139,0-.127,0-.125.008-.124.014-.122.02-.12.026-.118.031-.116.036-.114.04-.111.046-.109.051-.106.055-.1.059-.1.064-.1.068-.094.072-.091.076-.088.08-.084.084-.08.088-.077.091-.072.094-.069.1-.064.1-.06.1-.056.106-.051.109-.046.111-.042.114-.036.116-.031.117-.026.121-.021.127V452.5h-2.506V440.312Zm7.115,7.617-.112.006-.109.017-.105.027a1.483,1.483,0,0,0-.15.059c-.048.025-.093.051-.138.079s-.084.063-.125.1-.074.075-.109.115-.063.084-.092.129a1.468,1.468,0,0,0-.073.142,1.608,1.608,0,0,0-.053.153l-.021.108-.012.11v.113l.012.11.021.108a1.6,1.6,0,0,0,.053.153,1.561,1.561,0,0,0,.073.143c.029.045.059.087.092.128a1.49,1.49,0,0,0,.109.115c.04.035.081.067.125.1s.09.055.138.08.1.042.15.059l.105.027.109.017.112.005.112-.005.109-.017a1.5,1.5,0,0,0,.156-.045c.051-.02.1-.042.146-.066a1.5,1.5,0,0,0,.134-.086c.042-.033.081-.067.12-.1s.071-.078.1-.12a1.483,1.483,0,0,0,.086-.134c.025-.048.046-.1.066-.146s.032-.1.045-.156l.016-.109.006-.112-.006-.112-.016-.109c-.013-.054-.027-.1-.045-.156s-.042-.1-.066-.146-.055-.09-.086-.134-.067-.081-.1-.12-.078-.07-.12-.1a1.524,1.524,0,0,0-.134-.086c-.048-.025-.1-.046-.146-.066s-.1-.032-.156-.044l-.109-.017Z" transform="translate(-311.696 -286.786)"/></g></svg>