<svg xmlns="http://www.w3.org/2000/svg" width="17.623" height="22.023" viewBox="0 0 17.623 22.023">
  <g id="noun_theme_3167932" transform="translate(-1.058 -0.529)">
    <g id="Group_39649" data-name="Group 39649" transform="translate(1.058 0.529)">
      <path id="Path_43840" data-name="Path 43840" d="M2.159,291.179a1.1,1.1,0,0,0-1.1,1.106v7.606a1.1,1.1,0,0,0,0,.185V304.4a1.1,1.1,0,0,0,1.1,1.1H6.564v6.61a1.1,1.1,0,0,0,1.106,1.1h4.408a1.1,1.1,0,0,0,1.1-1.1v-6.61h4.408a1.1,1.1,0,0,0,1.1-1.1v-4.332a1.1,1.1,0,0,0,0-.138v-7.643a1.1,1.1,0,0,0-1.1-1.105H2.159Zm1.106,2.2h13.21v5.5H3.265Zm0,7.707h13.21v2.2h-4.3c-.029,0-.059,0-.088,0a1.1,1.1,0,0,0-1.114,1.1v6.61h-2.2V304.4a1.1,1.1,0,0,0-1.112-1.123,1.138,1.138,0,0,0-.163.016H3.265Z" transform="translate(-1.058 -291.179)" fill="#fff"/>
    </g>
  </g>
</svg>
