<svg xmlns="http://www.w3.org/2000/svg" xmlns:xlink="http://www.w3.org/1999/xlink" width="35" height="115" viewBox="0 0 35 115">
  <defs>
    <clipPath id="clip-psb-sprite-icon">
      <rect width="35" height="115"/>
    </clipPath>
  </defs>
  <g id="psb-sprite-icon" clip-path="url(#clip-psb-sprite-icon)">
    <g id="dashboard-green">
      <g id="Group_8454" data-name="Group 8454" transform="translate(7.368 7.368)">
        <path id="Rectangle_16930" data-name="Rectangle 16930" d="M2.917,1.75A1.168,1.168,0,0,0,1.75,2.917V6.294A1.168,1.168,0,0,0,2.917,7.461H6.294A1.168,1.168,0,0,0,7.461,6.294V2.917A1.168,1.168,0,0,0,6.294,1.75H2.917m0-1.75H6.294A2.917,2.917,0,0,1,9.211,2.917V6.294A2.917,2.917,0,0,1,6.294,9.211H2.917A2.917,2.917,0,0,1,0,6.294V2.917A2.917,2.917,0,0,1,2.917,0Z" transform="translate(0 0)" fill="#007c3d"/>
        <path id="Rectangle_16931" data-name="Rectangle 16931" d="M2.917,1.75A1.168,1.168,0,0,0,1.75,2.917V6.294A1.168,1.168,0,0,0,2.917,7.461H6.294A1.168,1.168,0,0,0,7.461,6.294V2.917A1.168,1.168,0,0,0,6.294,1.75H2.917m0-1.75H6.294A2.917,2.917,0,0,1,9.211,2.917V6.294A2.917,2.917,0,0,1,6.294,9.211H2.917A2.917,2.917,0,0,1,0,6.294V2.917A2.917,2.917,0,0,1,2.917,0Z" transform="translate(11.053 0)" fill="#007c3d"/>
        <path id="Rectangle_16932" data-name="Rectangle 16932" d="M2.917,1.75A1.168,1.168,0,0,0,1.75,2.917V6.294A1.168,1.168,0,0,0,2.917,7.461H6.294A1.168,1.168,0,0,0,7.461,6.294V2.917A1.168,1.168,0,0,0,6.294,1.75H2.917m0-1.75H6.294A2.917,2.917,0,0,1,9.211,2.917V6.294A2.917,2.917,0,0,1,6.294,9.211H2.917A2.917,2.917,0,0,1,0,6.294V2.917A2.917,2.917,0,0,1,2.917,0Z" transform="translate(11.053 11.053)" fill="#007c3d"/>
        <path id="Rectangle_16933" data-name="Rectangle 16933" d="M2.917,1.75A1.168,1.168,0,0,0,1.75,2.917V6.294A1.168,1.168,0,0,0,2.917,7.461H6.294A1.168,1.168,0,0,0,7.461,6.294V2.917A1.168,1.168,0,0,0,6.294,1.75H2.917m0-1.75H6.294A2.917,2.917,0,0,1,9.211,2.917V6.294A2.917,2.917,0,0,1,6.294,9.211H2.917A2.917,2.917,0,0,1,0,6.294V2.917A2.917,2.917,0,0,1,2.917,0Z" transform="translate(0 11.053)" fill="#007c3d"/>
      </g>
      <path id="Rectangle_16934" data-name="Rectangle 16934" d="M5.833,1.75A4.088,4.088,0,0,0,1.75,5.833V29.167A4.088,4.088,0,0,0,5.833,33.25H29.167a4.088,4.088,0,0,0,4.083-4.083V5.833A4.088,4.088,0,0,0,29.167,1.75H5.833m0-1.75H29.167A5.833,5.833,0,0,1,35,5.833V29.167A5.833,5.833,0,0,1,29.167,35H5.833A5.833,5.833,0,0,1,0,29.167V5.833A5.833,5.833,0,0,1,5.833,0Z" fill="#007c3d"/>
    </g>
    <g id="dashboard-green-2" data-name="dashboard-green" transform="translate(0 40)">
      <g id="Group_8454-2" data-name="Group 8454" transform="translate(7.368 7.368)">
        <path id="Rectangle_16930-2" data-name="Rectangle 16930" d="M2.917,1.75A1.168,1.168,0,0,0,1.75,2.917V6.294A1.168,1.168,0,0,0,2.917,7.461H6.294A1.168,1.168,0,0,0,7.461,6.294V2.917A1.168,1.168,0,0,0,6.294,1.75H2.917m0-1.75H6.294A2.917,2.917,0,0,1,9.211,2.917V6.294A2.917,2.917,0,0,1,6.294,9.211H2.917A2.917,2.917,0,0,1,0,6.294V2.917A2.917,2.917,0,0,1,2.917,0Z" transform="translate(0 0)" fill="#fff200"/>
        <path id="Rectangle_16931-2" data-name="Rectangle 16931" d="M2.917,1.75A1.168,1.168,0,0,0,1.75,2.917V6.294A1.168,1.168,0,0,0,2.917,7.461H6.294A1.168,1.168,0,0,0,7.461,6.294V2.917A1.168,1.168,0,0,0,6.294,1.75H2.917m0-1.75H6.294A2.917,2.917,0,0,1,9.211,2.917V6.294A2.917,2.917,0,0,1,6.294,9.211H2.917A2.917,2.917,0,0,1,0,6.294V2.917A2.917,2.917,0,0,1,2.917,0Z" transform="translate(11.053 0)" fill="#fff200"/>
        <path id="Rectangle_16932-2" data-name="Rectangle 16932" d="M2.917,1.75A1.168,1.168,0,0,0,1.75,2.917V6.294A1.168,1.168,0,0,0,2.917,7.461H6.294A1.168,1.168,0,0,0,7.461,6.294V2.917A1.168,1.168,0,0,0,6.294,1.75H2.917m0-1.75H6.294A2.917,2.917,0,0,1,9.211,2.917V6.294A2.917,2.917,0,0,1,6.294,9.211H2.917A2.917,2.917,0,0,1,0,6.294V2.917A2.917,2.917,0,0,1,2.917,0Z" transform="translate(11.053 11.053)" fill="#fff200"/>
        <path id="Rectangle_16933-2" data-name="Rectangle 16933" d="M2.917,1.75A1.168,1.168,0,0,0,1.75,2.917V6.294A1.168,1.168,0,0,0,2.917,7.461H6.294A1.168,1.168,0,0,0,7.461,6.294V2.917A1.168,1.168,0,0,0,6.294,1.75H2.917m0-1.75H6.294A2.917,2.917,0,0,1,9.211,2.917V6.294A2.917,2.917,0,0,1,6.294,9.211H2.917A2.917,2.917,0,0,1,0,6.294V2.917A2.917,2.917,0,0,1,2.917,0Z" transform="translate(0 11.053)" fill="#fff200"/>
      </g>
      <path id="Rectangle_16934-2" data-name="Rectangle 16934" d="M5.833,1.75A4.088,4.088,0,0,0,1.75,5.833V29.167A4.088,4.088,0,0,0,5.833,33.25H29.167a4.088,4.088,0,0,0,4.083-4.083V5.833A4.088,4.088,0,0,0,29.167,1.75H5.833m0-1.75H29.167A5.833,5.833,0,0,1,35,5.833V29.167A5.833,5.833,0,0,1,29.167,35H5.833A5.833,5.833,0,0,1,0,29.167V5.833A5.833,5.833,0,0,1,5.833,0Z" fill="#fff200"/>
    </g>
    <g id="dashboard-green-3" data-name="dashboard-green" transform="translate(0 80)">
      <g id="Group_8454-3" data-name="Group 8454" transform="translate(7.368 7.368)">
        <path id="Rectangle_16930-3" data-name="Rectangle 16930" d="M2.917,1.75A1.168,1.168,0,0,0,1.75,2.917V6.294A1.168,1.168,0,0,0,2.917,7.461H6.294A1.168,1.168,0,0,0,7.461,6.294V2.917A1.168,1.168,0,0,0,6.294,1.75H2.917m0-1.75H6.294A2.917,2.917,0,0,1,9.211,2.917V6.294A2.917,2.917,0,0,1,6.294,9.211H2.917A2.917,2.917,0,0,1,0,6.294V2.917A2.917,2.917,0,0,1,2.917,0Z" transform="translate(0 0)" fill="#fff"/>
        <path id="Rectangle_16931-3" data-name="Rectangle 16931" d="M2.917,1.75A1.168,1.168,0,0,0,1.75,2.917V6.294A1.168,1.168,0,0,0,2.917,7.461H6.294A1.168,1.168,0,0,0,7.461,6.294V2.917A1.168,1.168,0,0,0,6.294,1.75H2.917m0-1.75H6.294A2.917,2.917,0,0,1,9.211,2.917V6.294A2.917,2.917,0,0,1,6.294,9.211H2.917A2.917,2.917,0,0,1,0,6.294V2.917A2.917,2.917,0,0,1,2.917,0Z" transform="translate(11.053 0)" fill="#fff"/>
        <path id="Rectangle_16932-3" data-name="Rectangle 16932" d="M2.917,1.75A1.168,1.168,0,0,0,1.75,2.917V6.294A1.168,1.168,0,0,0,2.917,7.461H6.294A1.168,1.168,0,0,0,7.461,6.294V2.917A1.168,1.168,0,0,0,6.294,1.75H2.917m0-1.75H6.294A2.917,2.917,0,0,1,9.211,2.917V6.294A2.917,2.917,0,0,1,6.294,9.211H2.917A2.917,2.917,0,0,1,0,6.294V2.917A2.917,2.917,0,0,1,2.917,0Z" transform="translate(11.053 11.053)" fill="#fff"/>
        <path id="Rectangle_16933-3" data-name="Rectangle 16933" d="M2.917,1.75A1.168,1.168,0,0,0,1.75,2.917V6.294A1.168,1.168,0,0,0,2.917,7.461H6.294A1.168,1.168,0,0,0,7.461,6.294V2.917A1.168,1.168,0,0,0,6.294,1.75H2.917m0-1.75H6.294A2.917,2.917,0,0,1,9.211,2.917V6.294A2.917,2.917,0,0,1,6.294,9.211H2.917A2.917,2.917,0,0,1,0,6.294V2.917A2.917,2.917,0,0,1,2.917,0Z" transform="translate(0 11.053)" fill="#fff"/>
      </g>
      <path id="Rectangle_16934-3" data-name="Rectangle 16934" d="M5.833,1.75A4.088,4.088,0,0,0,1.75,5.833V29.167A4.088,4.088,0,0,0,5.833,33.25H29.167a4.088,4.088,0,0,0,4.083-4.083V5.833A4.088,4.088,0,0,0,29.167,1.75H5.833m0-1.75H29.167A5.833,5.833,0,0,1,35,5.833V29.167A5.833,5.833,0,0,1,29.167,35H5.833A5.833,5.833,0,0,1,0,29.167V5.833A5.833,5.833,0,0,1,5.833,0Z" fill="#fff"/>
    </g>
  </g>
</svg>
