<svg xmlns="http://www.w3.org/2000/svg" width="9.016" height="20.372" viewBox="0 0 9.016 20.372"><defs><style>.a{fill:#a3001d;fill-rule:evenodd;}</style></defs><path class="a" d="M356.464,467.932l-.186.192-.189-.2.186-.192.189.2Zm1.371-1.324h.482a.543.543,0,0,0-.133-.32.271.271,0,0,0-.228-.117c-.185.025-.236.288-.121.438Zm-.768.625a.265.265,0,0,0-.08.085.245.245,0,0,0-.052.143.222.222,0,0,0,.067.182.293.293,0,0,0,.169.053.2.2,0,0,0,.081-.008l.088-.045-.272-.409Zm.379.343-.268-.409a.191.191,0,0,1,.08-.021h.087a.215.215,0,0,1,.149.057.249.249,0,0,1,.076.2.226.226,0,0,1-.123.178Zm.279-.962a.551.551,0,0,1-.112-.233.33.33,0,0,1,.1-.3.4.4,0,0,1,.238-.083.359.359,0,0,1,.288.156.889.889,0,0,1,.169.449h.23l.09.179h-.271v1.4l-.249-.105v-1.291h-.312v1.4l-.225-.105v-.394a.443.443,0,0,1-.137.1.645.645,0,0,1-.3.07.526.526,0,0,1-.192-.029.574.574,0,0,1-.182-.112.52.52,0,0,1-.152-.344.417.417,0,0,1,.112-.26.558.558,0,0,1,.407-.145.616.616,0,0,1,.277.076.456.456,0,0,1,.165.149v-.4h-1.026l-.085-.179,1.167.008Zm-2.714.171a.588.588,0,0,1,.031.526l.091.05a.322.322,0,0,0,.16.036.407.407,0,0,0,.057,0c.02,0,.011-.014.047-.029a.461.461,0,0,0,.139-.078v-.5Zm-.144,0h-.638v.768a.121.121,0,0,1-.131.123h-.07a.191.191,0,0,0-.038-.006l-.108-.021-.153-.15.165.009c.055,0,.083-.019.083-.057v-.666h-.415v.766a.257.257,0,0,0,.01.069.067.067,0,0,0,.028.044l.765.5a.534.534,0,0,1,.12.1.169.169,0,0,1,.034.087.473.473,0,0,1-.1.192l-.149-.135a.237.237,0,0,0,.037-.049.108.108,0,0,0,.016-.05c0-.024-.023-.056-.076-.087l-.854-.49a.21.21,0,0,1-.09-.2v-.745h-.19l-.087-.179h2.853l.085.179h-.185v1.4l-.246-.105v-.57a.3.3,0,0,0-.049.018.571.571,0,0,1-.088.028c-.035.009-.027.014-.049.014a.435.435,0,0,1-.186-.041A.5.5,0,0,1,355,467.4l-.061.066a.51.51,0,0,1-.07.06.487.487,0,0,0-.068.039.06.06,0,0,0-.015.018.036.036,0,0,0,0,.012l.087.1.145.156.227.24-.064.134c-.252-.288-.469-.506-.545-.6a.951.951,0,0,1-.15-.237c-.018-.057.06-.182.166-.195a.111.111,0,0,1,.136.058c0-.011.053,0,.07-.04.11-.091.2-.173.006-.429Zm-3.228-.177.406,0a.576.576,0,0,0-.146-.328.275.275,0,0,0-.228-.1c-.1,0-.189.068-.164.252a.349.349,0,0,0,.132.183Zm-.207.18h-.474v.48q0,.228.154.228a.453.453,0,0,0,.155-.036.843.843,0,0,0,.084-.038.654.654,0,0,0,.082-.049v-.586Zm1.453,1.144-.186.192-.189-.2.186-.192.189.2Zm-1.374-1.326a.432.432,0,0,1-.2-.33.334.334,0,0,1,.115-.218.329.329,0,0,1,.233-.066.359.359,0,0,1,.288.156.917.917,0,0,1,.191.457h.23l.081.179h-.27v1.4l-.24-.105v-1.291l-.274,0v1.393l-.237-.105v-.5l-.054.029a.471.471,0,0,1-.049.02.57.57,0,0,1-.129.021.562.562,0,0,1-.306-.12.366.366,0,0,1-.164-.264v-.475h-.217l-.087-.182Z" transform="translate(-350.423 -448.166)"/><path class="a" d="M351.017,437.653l.021-.219.02-.149.025-.147.031-.145.036-.143.042-.141.046-.138.051-.136.056-.134.061-.131.065-.129.07-.126.075-.123.079-.12.084-.117.087-.113.091-.11.1-.107.1-.1.1-.1.107-.1.11-.092.113-.088.116-.084.119-.08.123-.075.126-.071.128-.066.131-.062.133-.057.136-.052.19-.065v-.841h.049l.123-.008.12-.014.118-.02.115-.025.113-.031.111-.036.108-.041.106-.045.1-.05.1-.054.1-.059.1-.062.093-.066.091-.069.088-.072.086-.076.083-.078.081-.081.078-.084.076-.086.073-.088.071-.089.134-.184.124-.189.113-.193.1-.194.045-.091.17-.235.169-.217.083-.1.083-.095.082-.089.083-.085.083-.08.083-.075.084-.07.085-.065.086-.061.087-.057.089-.053.091-.049.094-.045.1-.042.1-.038.1-.035.106-.031.109-.028.114-.025.119-.022.123-.02.128-.017.132-.014.281-.021c.131-.006.261-.011.391-.013v1.951l-.083-.014-.085-.009-.084,0h-.083l-.081,0-.08.007-.078.012-.076.015-.075.019-.073.022-.071.026-.069.029-.068.032-.066.035-.064.038-.062.041-.06.043-.114.093-.107.1-.1.109-.09.116-.083.121-.074.125-.065.127c-.117.217-.23.435-.356.646-.044.072-.09.143-.139.213-.037.051-.075.1-.114.151s-.083.1-.126.142l-.092.091c-.05.044-.1.087-.153.129l-.113.081-.123.078-.066.037-.2.107.263.123.125.064.122.068.119.072.116.076.114.081.11.084.108.088.1.091.1.1.1.1.094.1.09.105.087.109.083.111.079.114.075.117.07.12.066.123.063.126.058.128.054.13.048.132.044.135.039.136.034.139.029.14.024.142.019.144.014.146.008.147,0,.149,0,.151-.008.15-.015.148-.02.147-.025.145-.03.143-.036.141-.041.139-.046.137-.051.135-.055.132-.06.13-.065.127-.069.125-.073.122-.078.119-.082.116-.086.113-.09.109-.094.106-.1.1-.1.1-.1.1-.108.091-.111.088-.115.084-.117.08-.121.075-.123.071-.126.066-.129.063-.422.185.448.023.129.013.126.019.125.025.122.031.12.037.118.042.114.048.112.053.109.059.106.063.1.068.1.073.1.077.091.082.088.086.084.089.08.094.075.1.07.1.066.1.061.108.056.111.05.113.045.116.04.119.034.121.028.124.022.126.016.128.01.13,0,.131,0,.133-.01.131-.016.13-.023.128-.029.125-.035.123-.041.12-.046.117-.052.115-.057.112-.063.108-.068.106-.072.1-.077.1-.082.094-.086.09-.09.086-.094.082-.1.077-.1.072-.106.068-.109.063-.112.057-.115.052-.117.046-.121.041-.123.035-.126.029-.127.023-.13.016-.131.01-.133,0-.13,0-.129-.009-.127-.016-.125-.021-.123-.028-.12-.034-.118-.039-.115-.044-.113-.049-.11-.055-.107-.06-.1-.065-.1-.069-.1-.074-.093-.079-.089-.082-.086-.087-.082-.09-.077-.094-.073-.1-.068-.1-.064-.1-.059-.108-.054-.11-.048-.113-.044-.116-.038-.119-.032-.121-.026-.123-.02-.125-.015-.127-.01-.165v-6.631h1.766v2.168l.173-.07.138-.065.132-.075.126-.085.119-.094.112-.1.1-.11.1-.117.087-.124.078-.131.068-.137.058-.142.025-.073.042-.15.017-.077.014-.077.011-.079.008-.079,0-.08v-.081l0-.1-.008-.1-.013-.1-.018-.1-.023-.1-.027-.1-.032-.094-.037-.093-.041-.09-.045-.088-.049-.086-.053-.083-.057-.08-.061-.077-.065-.074-.067-.07-.071-.068-.074-.064-.077-.061-.08-.057-.083-.053-.086-.049-.088-.045-.09-.041-.093-.037-.095-.032-.1-.028-.1-.022-.1-.018-.1-.013-.1-.008-.1,0-.1,0-.094.006-.093.011-.092.015-.09.02-.089.023-.088.027-.086.03-.084.035-.082.038-.08.042-.078.044-.075.048-.074.051-.071.054-.069.057-.066.06-.064.063-.061.066-.058.068-.054.071-.052.073-.048.076-.045.078-.042.08-.038.082-.035.084-.031.086-.027.087-.023.089-.02.091-.016.1v9.251h-1.888v-9.183Zm5.361,5.739-.085,0-.082.013-.079.021a1.129,1.129,0,0,0-.113.044c-.036.019-.07.038-.1.06s-.063.047-.094.074-.056.056-.082.087-.047.064-.069.1a1.111,1.111,0,0,0-.055.107c-.016.039-.028.076-.04.115l-.016.081-.009.083v.085l.009.083.016.081c.012.04.024.077.04.115a1.172,1.172,0,0,0,.055.108c.022.034.044.066.069.1a1.123,1.123,0,0,0,.082.087c.03.026.061.05.094.074s.068.042.1.06.074.031.113.044l.079.021.082.013.085,0,.085,0,.082-.013a1.129,1.129,0,0,0,.118-.034c.038-.015.074-.031.11-.05a1.133,1.133,0,0,0,.1-.065c.032-.025.061-.05.09-.078s.053-.059.078-.09a1.13,1.13,0,0,0,.065-.1c.019-.036.035-.072.05-.11s.024-.077.034-.118l.012-.082,0-.085,0-.085-.012-.082c-.01-.041-.02-.078-.034-.118s-.031-.074-.05-.11-.041-.068-.065-.1-.051-.061-.078-.09-.059-.053-.09-.078a1.152,1.152,0,0,0-.1-.065c-.036-.019-.072-.035-.11-.05s-.078-.024-.118-.033l-.082-.013Z" transform="translate(-350.725 -429.524)"/></svg>