<svg id="Component_172_10" data-name="Component 172 – 10" xmlns="http://www.w3.org/2000/svg" width="213.523" height="56" viewBox="0 0 213.523 56">
  <g id="Group_40130" data-name="Group 40130" transform="translate(0 0)">
    <g id="Group_40122" data-name="Group 40122" transform="translate(0 0)">
      <g id="wi-fi" transform="translate(175.061 0)">
        <g id="Group_39658" data-name="Group 39658" transform="translate(0)">
          <path id="Path_43342" data-name="Path 43342" d="M10,8.768c-.018-.019-.037-.035-.056-.052l-.055-.052a.267.267,0,0,0-.031-.026,3.97,3.97,0,0,0-5.484.129L4.2,8.944l-.244.244A.764.764,0,0,0,5.04,10.269l.42-.42a2.453,2.453,0,0,1,3.464,0l.3.294A.758.758,0,0,0,10.519,9.6a.744.744,0,0,0-.22-.533Z" transform="translate(-0.28 -1.993)" fill="#fff"/>
          <path id="Path_43343" data-name="Path 43343" d="M10.215,4.755,9.963,4.5s0,0,0,0l-.2-.2a.72.72,0,0,0-.113-.091A6.626,6.626,0,0,0,.7,4.414c-.012.011-.026.019-.038.031L.2,4.9a.7.7,0,0,0,.986.985l.457-.456a.059.059,0,0,1,.009-.01,5.231,5.231,0,0,1,7.218-.04l.359.36a.7.7,0,0,0,.985-.986Z" transform="translate(1.582 0.515)" fill="#fff"/>
          <path id="Path_44029" data-name="Path 44029" d="M13.318,5.419l-.33-.33s0,0,0,0l-.26-.262a.939.939,0,0,0-.148-.118A8.638,8.638,0,0,0,.908,4.975c-.016.014-.033.024-.049.04l-.6.6A.909.909,0,0,0,1.549,6.9l.6-.595a.077.077,0,0,1,.011-.013,6.819,6.819,0,0,1,9.411-.052l.468.469a.909.909,0,0,0,1.285-1.285Z" transform="translate(0 -2.569)" fill="#fff"/>
        </g>
      </g>
      <g id="Group_40119" data-name="Group 40119" transform="translate(0 9.446)">
        <circle id="Ellipse_2679" data-name="Ellipse 2679" cx="14.001" cy="14.001" r="14.001" transform="translate(3.335 22.317) rotate(-45)" fill="#fff"/>
        <g id="Group_39529" data-name="Group 39529" transform="translate(0 1.548)">
          <path id="Path_28512" data-name="Path 28512" d="M493.836,475.614a22.132,22.132,0,0,0-11.144,19.34c0,12.153,9.567,21.995,21.368,21.982a18.172,18.172,0,0,0,18.565-18.425,6.119,6.119,0,0,0-.391-2.4l.008.55c0,10.1-7.946,18.792-17.747,18.8-11.2.012-20.771-9.827-20.771-21.375C483.724,486.484,488.258,479.736,493.836,475.614Z" transform="translate(-482.692 -475.614)" fill="#fff" fill-rule="evenodd"/>
        </g>
        <g id="Group_39530" data-name="Group 39530" transform="translate(11.134 4.206)">
          <path id="Path_28513" data-name="Path 28513" d="M603.972,543.542a22.286,22.286,0,0,0,22.377-.051c10.56-6.076,14.329-19.255,8.417-29.434a18.235,18.235,0,0,0-25.294-6.811,6.154,6.154,0,0,0-1.892,1.539l.474-.282c8.781-5.052,20.3-2.538,25.213,5.917,5.611,9.663,1.847,22.841-8.189,28.615C618.474,546.835,610.343,546.3,603.972,543.542Z" transform="translate(-603.972 -504.668)" fill="#fff" fill-rule="evenodd"/>
        </g>
        <g id="Group_39531" data-name="Group 39531" transform="translate(3.609)">
          <path id="Path_28514" data-name="Path 28514" d="M565.626,481.019a22.132,22.132,0,0,0-11.233-19.289c-10.56-6.077-23.9-2.74-29.786,7.452a18.108,18.108,0,0,0,6.729,25.237,6.17,6.17,0,0,0,2.283.863l-.482-.268c-8.781-5.053-12.357-16.254-7.465-24.719,5.59-9.674,18.924-13.014,28.96-7.24C561.236,466.856,564.834,474.143,565.626,481.019Z" transform="translate(-522.007 -458.697)" fill="#fff" fill-rule="evenodd"/>
        </g>
        <g id="Group_39532" data-name="Group 39532" transform="translate(18.1 10.949)">
          <path id="Path_28515" data-name="Path 28515" d="M686.646,797.98l-.209.214-.213-.218.209-.214.212.218Zm1.542-1.478h.542a.6.6,0,0,0-.149-.357.307.307,0,0,0-.257-.13c-.208.028-.265.322-.136.489Zm-.864.7a.292.292,0,0,0-.089.095.275.275,0,0,0-.059.159.245.245,0,0,0,.075.2.33.33,0,0,0,.19.06.224.224,0,0,0,.092-.009l.1-.051-.306-.456Zm.426.383-.3-.456a.211.211,0,0,1,.09-.024h.1a.242.242,0,0,1,.167.063.276.276,0,0,1,.085.218.253.253,0,0,1-.138.2Zm.314-1.073a.616.616,0,0,1-.126-.26.366.366,0,0,1,.11-.332.458.458,0,0,1,.267-.092.4.4,0,0,1,.324.174.992.992,0,0,1,.19.5h.258l.1.2h-.3v1.557l-.28-.117V796.7h-.351v1.557L688,798.14v-.44a.5.5,0,0,1-.154.113.73.73,0,0,1-.336.079.587.587,0,0,1-.216-.032.646.646,0,0,1-.205-.125.581.581,0,0,1-.17-.384.464.464,0,0,1,.126-.29.631.631,0,0,1,.458-.162.7.7,0,0,1,.312.085.513.513,0,0,1,.186.166V796.7h-1.153l-.095-.2,1.312.008Zm-3.052.191a.653.653,0,0,1,.035.587l.1.056a.362.362,0,0,0,.18.04.438.438,0,0,0,.064-.005c.023,0,.013-.016.053-.032a.529.529,0,0,0,.157-.087V796.7Zm-.163,0h-.716v.858a.135.135,0,0,1-.148.137h-.079a.221.221,0,0,0-.042-.006l-.121-.023-.172-.167.185.01c.062,0,.093-.021.093-.063V796.7h-.466v.854a.276.276,0,0,0,.012.077.078.078,0,0,0,.031.05l.86.556a.584.584,0,0,1,.136.107.19.19,0,0,1,.038.1.525.525,0,0,1-.108.215l-.167-.151a.286.286,0,0,0,.041-.055.117.117,0,0,0,.018-.055c0-.027-.026-.063-.085-.1l-.96-.546a.235.235,0,0,1-.1-.221V796.7h-.214l-.1-.2h3.208l.094.2h-.208v1.557l-.276-.117V797.5a.282.282,0,0,0-.056.02.749.749,0,0,1-.1.032c-.039.01-.031.015-.055.015a.486.486,0,0,1-.209-.045.573.573,0,0,1-.179-.136l-.068.073a.543.543,0,0,1-.079.067.542.542,0,0,0-.077.043.065.065,0,0,0-.016.02.04.04,0,0,0-.005.014l.1.114.163.174.255.268-.072.15c-.283-.322-.528-.566-.613-.675a1.042,1.042,0,0,1-.169-.264c-.02-.063.068-.2.187-.217a.124.124,0,0,1,.152.064c0-.013.06-.005.08-.044.124-.1.22-.192.007-.478Zm-3.63-.2.457,0a.638.638,0,0,0-.164-.366.312.312,0,0,0-.257-.117c-.117.006-.212.076-.185.281a.387.387,0,0,0,.148.2Zm-.233.2h-.533v.536q0,.254.173.255a.51.51,0,0,0,.173-.04.875.875,0,0,0,.094-.042.709.709,0,0,0,.092-.055V796.7Zm1.634,1.276-.209.214-.213-.218.209-.214.213.218Zm-1.545-1.479a.482.482,0,0,1-.221-.368.349.349,0,0,1,.392-.316.4.4,0,0,1,.324.174,1.022,1.022,0,0,1,.215.51h.258l.091.2h-.3v1.557l-.27-.117V796.7l-.307,0v1.554l-.267-.117v-.556l-.061.032a.538.538,0,0,1-.055.021.625.625,0,0,1-.145.023.634.634,0,0,1-.344-.134.406.406,0,0,1-.185-.295V796.7h-.244l-.1-.2Z" transform="translate(-679.854 -775.921)" fill-rule="evenodd"/>
          <path id="Path_28516" data-name="Path 28516" d="M683.392,587.441l.023-.245.022-.166.028-.164.034-.162.041-.159.046-.157.052-.154.058-.152.063-.149.069-.146.074-.144.079-.14.084-.137.089-.134.093-.13.1-.127.1-.123.107-.119.111-.115.116-.111.119-.107.123-.1.127-.1.131-.094.134-.089.138-.084.141-.079.144-.075.147-.069.15-.064.153-.058.214-.072v-.938h.055l.138-.009.135-.016.132-.022.13-.028.127-.034.125-.04.122-.046.119-.051.116-.056.114-.061.11-.065.108-.069.1-.074.1-.078.1-.081.1-.084.094-.088.091-.091.088-.093.085-.1.083-.1.079-.1.151-.205.139-.211.128-.214.116-.216.05-.1.191-.263.19-.242.094-.112.093-.106.093-.1.092-.094.093-.089.093-.083.094-.078.1-.073.1-.068.1-.063.1-.059.1-.055.106-.05.109-.046.112-.043.115-.038.12-.035.123-.031.128-.028.133-.025.138-.022.144-.018.149-.016.317-.023c.146-.007.293-.012.439-.014v2.178l-.093-.015-.1-.011-.094-.005h-.093l-.091,0-.089.009-.088.013-.086.017-.084.021-.082.025-.08.029-.078.033-.076.036-.074.039-.072.042-.07.045-.068.048-.129.1-.12.114-.111.122-.1.129-.093.135-.083.14-.073.141c-.131.242-.258.485-.4.721-.05.081-.1.159-.156.237-.042.057-.084.113-.128.168s-.093.107-.142.159l-.1.1c-.057.05-.113.1-.172.144l-.127.091-.138.087-.074.042-.227.119.3.138.14.071.137.076.134.081.131.085.128.09.124.094.121.1.117.1.113.106.109.11.106.114.1.118.1.121.093.124.089.128.084.131.08.134.075.137.07.14.065.142.06.145.055.148.049.15.044.152.039.155.033.157.027.159.022.161.015.163.009.164,0,.166,0,.169-.01.168-.016.166-.022.164-.028.162-.034.16-.04.158-.046.155-.052.153-.057.15-.062.148-.068.145-.073.142-.078.139-.083.136-.088.133-.092.129-.1.126-.1.122-.105.118-.11.115-.114.111-.118.106-.122.1-.125.1-.129.094-.132.089-.135.084-.139.08-.142.074-.145.07-.474.206.5.025.145.015.142.021.14.028.137.035.135.041.132.047.129.053.126.06.122.065.119.071.115.076.112.081.107.086.1.091.1.1.094.1.089.1.084.108.079.113.074.116.068.12.063.123.057.127.051.129.044.133.038.136.032.138.025.14.018.142.011.144,0,.146,0,.149-.011.146-.019.145-.026.143-.033.14-.039.137-.046.134-.052.132-.058.128-.065.125-.07.121-.076.117-.081.114-.087.109-.092.105-.1.1-.1.1-.106.091-.11.086-.114.081-.118.075-.122.07-.126.064-.129.058-.133.052-.135.046-.138.039-.141.032-.143.025-.146.019-.148.011-.15,0-.146,0-.144-.011-.143-.017-.14-.024-.138-.031-.135-.037-.133-.044-.13-.05-.127-.056-.123-.061-.12-.067-.117-.072-.113-.077-.109-.082-.1-.088-.1-.092-.1-.1-.092-.1-.087-.105-.082-.109-.077-.113-.071-.116-.066-.12-.061-.123-.055-.127-.049-.13-.042-.132-.036-.135-.03-.137-.023-.14-.016-.142-.012-.184v-7.4h1.986v2.419l.194-.078.156-.073.149-.084.141-.095.134-.1.126-.114.117-.122.108-.131.1-.139.088-.146.076-.152.065-.159.028-.082.047-.167.019-.085.015-.086.012-.088.009-.088.005-.089,0-.091,0-.116-.009-.115-.015-.114-.02-.112-.026-.11-.031-.108-.036-.106-.041-.1-.046-.1-.051-.1-.055-.1-.06-.092-.064-.089-.068-.086-.072-.083-.076-.079-.08-.075-.083-.072-.087-.068-.09-.064-.093-.059-.1-.055-.1-.05-.1-.046-.1-.041-.107-.036-.109-.031-.111-.025-.113-.02-.115-.015-.116-.009-.118,0-.107,0-.106.007-.1.012-.1.017-.1.021-.1.026-.1.03-.1.034-.095.039-.092.042-.09.047-.088.05-.085.054-.082.057-.08.061-.077.064-.074.067-.071.07-.068.073-.065.076-.062.079-.058.082-.055.084-.051.087-.047.089-.043.091-.039.093-.035.1-.031.1-.026.1-.022.1-.018.107v10.323h-2.123V587.441Zm6.028,6.4-.1,0-.092.014-.089.023c-.044.015-.085.031-.127.05s-.078.042-.117.067-.071.053-.106.082-.063.062-.093.1-.053.071-.078.109a1.281,1.281,0,0,0-.062.12c-.017.043-.031.084-.044.129l-.018.09-.01.093v.095l.01.093.018.09c.013.044.027.086.044.129a1.314,1.314,0,0,0,.062.12c.024.038.05.073.078.109s.06.065.093.1.068.056.106.082.076.046.117.067a1.282,1.282,0,0,0,.127.05l.089.023.092.014.1,0,.095,0,.092-.014a1.356,1.356,0,0,0,.133-.037c.043-.017.083-.035.124-.055s.076-.046.113-.072.069-.056.1-.087.06-.065.088-.1.05-.073.073-.112.039-.081.056-.123a1.3,1.3,0,0,0,.038-.132l.014-.092,0-.094,0-.094-.014-.091a1.268,1.268,0,0,0-.038-.132,1.3,1.3,0,0,0-.056-.123c-.023-.039-.046-.076-.073-.113s-.057-.068-.088-.1-.066-.059-.1-.087-.074-.05-.113-.072-.081-.039-.124-.056-.087-.027-.133-.037l-.092-.014Z" transform="translate(-683.063 -578.369)" fill-rule="evenodd"/>
        </g>
      </g>
    </g>
  </g>
  <g id="Group_40131" data-name="Group 40131" transform="translate(58.024 8.877)">
    <path id="Path_44042" data-name="Path 44042" d="M4.656-37.274h7.907a13.659,13.659,0,0,1,3.669.474A9.349,9.349,0,0,1,19.2-35.419,6.658,6.658,0,0,1,21.2-33.184a6.218,6.218,0,0,1,.727,3.036,6,6,0,0,1-.706,2.973,6.27,6.27,0,0,1-1.866,2.087,8.437,8.437,0,0,1-2.625,1.233,11.069,11.069,0,0,1-3,.411q-.654,0-1.37-.032t-1.381-.095q-.664-.063-1.223-.137a8.36,8.36,0,0,1-.9-.158v11.554h-4.2Zm4.2,12q.7.19,1.508.38a7.247,7.247,0,0,0,1.655.19,6.327,6.327,0,0,0,2.372-.411,4.731,4.731,0,0,0,1.687-1.107,4.564,4.564,0,0,0,1-1.645,6,6,0,0,0,.337-2.024,5.822,5.822,0,0,0-.432-2.288,5.078,5.078,0,0,0-1.191-1.739,5.33,5.33,0,0,0-1.782-1.107,6.071,6.071,0,0,0-2.182-.39H8.852Zm22.73,11.955a6.794,6.794,0,0,0,1.834-.253,5.232,5.232,0,0,0,1.613-.748,3.937,3.937,0,0,0,1.139-1.223,3.218,3.218,0,0,0,.432-1.676,3.615,3.615,0,0,0-.59-2.035A6.944,6.944,0,0,0,34.46-20.9a14.893,14.893,0,0,0-2.193-1.4q-1.233-.654-2.53-1.318t-2.53-1.392a12.814,12.814,0,0,1-2.193-1.613,7.577,7.577,0,0,1-1.55-1.982,5.254,5.254,0,0,1-.59-2.53,6.527,6.527,0,0,1,.538-2.657,5.988,5.988,0,0,1,1.581-2.13,7.441,7.441,0,0,1,2.562-1.413,10.988,10.988,0,0,1,3.479-.506,9.38,9.38,0,0,1,5.6,1.486,8.221,8.221,0,0,1,2.962,4.291l-2.151.991a9.978,9.978,0,0,0-.959-2.108,6.493,6.493,0,0,0-1.392-1.623,5.981,5.981,0,0,0-1.866-1.044,7.185,7.185,0,0,0-2.383-.369,5.958,5.958,0,0,0-2.066.327,4.451,4.451,0,0,0-1.476.864,3.569,3.569,0,0,0-.886,1.212,3.39,3.39,0,0,0-.3,1.37,2.959,2.959,0,0,0,.6,1.8,7.319,7.319,0,0,0,1.6,1.539,19.354,19.354,0,0,0,2.267,1.4q1.265.675,2.583,1.37t2.583,1.455a14.825,14.825,0,0,1,2.267,1.655,7.738,7.738,0,0,1,1.6,1.961,4.742,4.742,0,0,1,.6,2.372,6.9,6.9,0,0,1-.569,2.783,6.34,6.34,0,0,1-1.687,2.277,8.245,8.245,0,0,1-2.8,1.539,12.193,12.193,0,0,1-3.9.569,11.873,11.873,0,0,1-3.215-.4,8.245,8.245,0,0,1-2.5-1.149A7.5,7.5,0,0,1,23.707-15.1a10.412,10.412,0,0,1-1.276-2.477l2.256-.928a7.388,7.388,0,0,0,2.6,3.827A6.978,6.978,0,0,0,31.582-13.323ZM44.107-37.274H54.164a14.174,14.174,0,0,1,3.648.443,9.256,9.256,0,0,1,2.857,1.255,6.08,6.08,0,0,1,1.855,1.94,4.833,4.833,0,0,1,.664,2.5,7.263,7.263,0,0,1-.211,1.824,4.143,4.143,0,0,1-.738,1.5,6.3,6.3,0,0,1-1.4,1.3,15.578,15.578,0,0,1-2.2,1.244v.084a8.892,8.892,0,0,1,2.4.717,6.27,6.27,0,0,1,1.845,1.3,5.509,5.509,0,0,1,1.181,1.824,6.166,6.166,0,0,1,.411,2.3,5.8,5.8,0,0,1-.622,2.646,6.405,6.405,0,0,1-1.761,2.14,8.716,8.716,0,0,1-2.752,1.434,11.532,11.532,0,0,1-3.595.527H44.107Zm4.2,11.238h5.334a6.517,6.517,0,0,0,2.245-.358,4.789,4.789,0,0,0,1.655-.991,4.151,4.151,0,0,0,1.023-1.5,4.98,4.98,0,0,0,.348-1.877,4.722,4.722,0,0,0-.411-1.992,3.867,3.867,0,0,0-1.286-1.529,6.569,6.569,0,0,0-2.224-.98,13.058,13.058,0,0,0-3.226-.348H48.3Zm0,11.892h4.533a12.729,12.729,0,0,0,3.173-.348,6.572,6.572,0,0,0,2.214-.98,4,4,0,0,0,1.3-1.508,4.434,4.434,0,0,0,.422-1.95,6.2,6.2,0,0,0-.38-2.193,4.347,4.347,0,0,0-1.233-1.761,6.117,6.117,0,0,0-2.235-1.181,11.452,11.452,0,0,0-3.384-.432H48.3Z" transform="translate(-4.656 37.844)" fill="#fff"/>
    <path id="Path_44041" data-name="Path 44041" d="M41.97-31.561h3.816v3.521a12.709,12.709,0,0,1,3.627-2.952,8.268,8.268,0,0,1,3.837-.97,3.968,3.968,0,0,1,1.887.464,5.148,5.148,0,0,1,1.539,1.255,5.969,5.969,0,0,1,1.044,1.855,6.7,6.7,0,0,1,.38,2.267v13.81H54.262V-25.488a4.258,4.258,0,0,0-.854-2.889,2.8,2.8,0,0,0-2.2-.97,4.52,4.52,0,0,0-1.286.2,8.246,8.246,0,0,0-1.381.559,10.355,10.355,0,0,0-1.4.864,12.6,12.6,0,0,0-1.349,1.139v14.274H41.97Zm20.558-4.364h4.2v23.614h-4.2ZM75.96-24.708A13.332,13.332,0,0,0,76.74-20,10.109,10.109,0,0,0,78.9-16.485a9.422,9.422,0,0,0,3.268,2.2,10.757,10.757,0,0,0,4.1.77,6.556,6.556,0,0,0,2.53-.506,9.54,9.54,0,0,0,2.267-1.328A11.715,11.715,0,0,0,92.943-17.2,11.618,11.618,0,0,0,94.3-19.29l1.75,1.139a15.337,15.337,0,0,1-1.813,2.425,12.219,12.219,0,0,1-2.425,2.045,12.5,12.5,0,0,1-3.11,1.423,13.144,13.144,0,0,1-3.89.538,14.711,14.711,0,0,1-5.64-1.044,13.359,13.359,0,0,1-4.343-2.815,12.528,12.528,0,0,1-2.794-4.133,12.783,12.783,0,0,1-.991-5,12.7,12.7,0,0,1,1.012-5.018,12.858,12.858,0,0,1,2.846-4.185,13.658,13.658,0,0,1,4.407-2.867,14.8,14.8,0,0,1,5.714-1.065,11.92,11.92,0,0,1,3.658.538,12.975,12.975,0,0,1,3.057,1.423,12.9,12.9,0,0,1,2.467,2.045,14.364,14.364,0,0,1,1.845,2.425L94.24-30.19a12.365,12.365,0,0,0-3.5-4.449,7.362,7.362,0,0,0-4.449-1.413,10.518,10.518,0,0,0-4.059.78,9.379,9.379,0,0,0-3.279,2.256,10.706,10.706,0,0,0-2.193,3.574A13.188,13.188,0,0,0,75.96-24.708Z" transform="translate(59.447 37.844)" fill="#fff"/>
  </g>
  <path id="Path_44043" data-name="Path 44043" d="M15.028-14.06A7.281,7.281,0,0,0,17.91-14.6a6.007,6.007,0,0,0,2.152-1.525,6.767,6.767,0,0,0,1.347-2.339,9.165,9.165,0,0,0,.468-3V-37.054h3.967v15.585a12.355,12.355,0,0,1-.748,4.36,9.96,9.96,0,0,1-2.152,3.461,9.856,9.856,0,0,1-3.405,2.283,11.761,11.761,0,0,1-4.509.823,11.761,11.761,0,0,1-4.509-.823,9.856,9.856,0,0,1-3.405-2.283A9.96,9.96,0,0,1,4.962-17.11a12.355,12.355,0,0,1-.748-4.36V-37.054H8.2v15.566a9.422,9.422,0,0,0,.458,3.012A6.638,6.638,0,0,0,10-16.127,6.007,6.007,0,0,0,12.147-14.6,7.281,7.281,0,0,0,15.028-14.06Z" transform="translate(129.521 45.542)" fill="#fff"/>
  <path id="Path_44148" data-name="Path 44148" d="M.615-21.756H2.674L6.42-15.6l3.746-6.154h2.068L7.308-14.111v5.16H5.541v-5.16ZM16.006-9.962a2.211,2.211,0,0,0,2.179-1.181,5.8,5.8,0,0,0,.59-2.628,4.608,4.608,0,0,0-.426-2.127,2.4,2.4,0,0,0-2.325-1.29,2.3,2.3,0,0,0-2.13,1.1,5.019,5.019,0,0,0-.666,2.65,4.368,4.368,0,0,0,.666,2.484A2.359,2.359,0,0,0,16.006-9.962Zm.062-8.595a4.347,4.347,0,0,1,3.107,1.2,4.649,4.649,0,0,1,1.269,3.539,6,6,0,0,1-1.118,3.731,4.077,4.077,0,0,1-3.47,1.473,3.951,3.951,0,0,1-3.115-1.3,5.088,5.088,0,0,1-1.154-3.5A5.5,5.5,0,0,1,12.8-17.162,4.115,4.115,0,0,1,16.068-18.557Zm8.236.27v6.2a2.573,2.573,0,0,0,.231,1.168,1.617,1.617,0,0,0,1.589.837A2.246,2.246,0,0,0,28.4-11.548a5.716,5.716,0,0,0,.328-2.153v-4.585h1.6V-8.95H28.813l.018-1.377a3.18,3.18,0,0,1-.772.9A3.438,3.438,0,0,1,25.84-8.7a2.878,2.878,0,0,1-2.769-1.334,3.912,3.912,0,0,1-.4-1.909v-6.346Zm18.31,1.508a6.728,6.728,0,0,0,1.163-.95,1.942,1.942,0,0,0,.524-1.316,1.383,1.383,0,0,0-.382-.976,1.339,1.339,0,0,0-1.03-.41,1.454,1.454,0,0,0-1.367.645,1.4,1.4,0,0,0-.2.724,1.932,1.932,0,0,0,.3,1.02A9.452,9.452,0,0,0,42.615-16.778Zm-.408,6.747a3.13,3.13,0,0,0,1.7-.445,3.677,3.677,0,0,0,1.092-.994L42.047-15a8.948,8.948,0,0,0-1.633,1.255,2.3,2.3,0,0,0-.586,1.6,1.82,1.82,0,0,0,.759,1.569A2.713,2.713,0,0,0,42.206-10.031Zm-1.047-6.041a6.576,6.576,0,0,1-1.105-1.569,3.049,3.049,0,0,1-.28-1.229,2.721,2.721,0,0,1,.852-2.053,3.162,3.162,0,0,1,2.281-.815,2.878,2.878,0,0,1,2.121.758,2.466,2.466,0,0,1,.763,1.813A3.212,3.212,0,0,1,45-17.014a7.405,7.405,0,0,1-1.544,1.247l2.379,2.789q.24-.7.333-1.042a9.658,9.658,0,0,0,.191-.963h1.518a9.377,9.377,0,0,1-.6,2.358q-.453,1.129-.453.911L49.138-8.95H47.079l-1.225-1.464a6.379,6.379,0,0,1-1.331,1.133,4.669,4.669,0,0,1-2.432.628,3.693,3.693,0,0,1-2.956-1.077,3.631,3.631,0,0,1-.923-2.428,3.46,3.46,0,0,1,.9-2.432A9.813,9.813,0,0,1,41.159-16.072Zm15.949-5.684h1.784V-8.95H57.108ZM73.031-22.1a5.4,5.4,0,0,1,3.843,1.281,4.5,4.5,0,0,1,1.518,2.911H76.67A3.507,3.507,0,0,0,75.5-19.873a3.746,3.746,0,0,0-2.454-.724,3.968,3.968,0,0,0-3.111,1.329,5.984,5.984,0,0,0-1.185,4.075,5.844,5.844,0,0,0,1.07,3.648,3.765,3.765,0,0,0,3.191,1.4,3.39,3.39,0,0,0,2.973-1.473,5.545,5.545,0,0,0,.808-2.04h1.722a5.731,5.731,0,0,1-1.527,3.391A5.483,5.483,0,0,1,72.8-8.619,5.59,5.59,0,0,1,68.984-9.97q-2.033-1.787-2.033-5.518a6.966,6.966,0,0,1,1.527-4.646A5.621,5.621,0,0,1,73.031-22.1ZM84.587-9.962a2.211,2.211,0,0,0,2.179-1.181,5.8,5.8,0,0,0,.59-2.628A4.608,4.608,0,0,0,86.93-15.9a2.4,2.4,0,0,0-2.325-1.29,2.3,2.3,0,0,0-2.13,1.1,5.019,5.019,0,0,0-.666,2.65,4.368,4.368,0,0,0,.666,2.484A2.359,2.359,0,0,0,84.587-9.962Zm.062-8.595a4.347,4.347,0,0,1,3.107,1.2,4.649,4.649,0,0,1,1.269,3.539,6,6,0,0,1-1.118,3.731,4.077,4.077,0,0,1-3.47,1.473,3.951,3.951,0,0,1-3.115-1.3,5.088,5.088,0,0,1-1.154-3.5,5.5,5.5,0,0,1,1.216-3.748A4.115,4.115,0,0,1,84.649-18.557Zm6.639.27h1.518v1.325a4.24,4.24,0,0,1,1.429-1.177,3.869,3.869,0,0,1,1.678-.357,2.778,2.778,0,0,1,2.734,1.386,4.845,4.845,0,0,1,.391,2.171V-8.95H97.412v-5.884a3.137,3.137,0,0,0-.257-1.377,1.565,1.565,0,0,0-1.544-.872,3.2,3.2,0,0,0-.932.113,2.4,2.4,0,0,0-1.154.767,2.3,2.3,0,0,0-.519.955,6.313,6.313,0,0,0-.12,1.408v4.89h-1.6Zm10.473,0h1.518v1.325a4.241,4.241,0,0,1,1.429-1.177,3.869,3.869,0,0,1,1.678-.357,2.778,2.778,0,0,1,2.734,1.386,4.845,4.845,0,0,1,.391,2.171V-8.95h-1.624v-5.884a3.136,3.136,0,0,0-.257-1.377,1.565,1.565,0,0,0-1.544-.872,3.2,3.2,0,0,0-.932.113A2.4,2.4,0,0,0,104-16.2a2.3,2.3,0,0,0-.519.955,6.314,6.314,0,0,0-.12,1.408v4.89h-1.6Zm14.432-.209a4.4,4.4,0,0,1,1.962.466,3.6,3.6,0,0,1,1.447,1.207,4.121,4.121,0,0,1,.639,1.648,10.591,10.591,0,0,1,.142,2.057h-6.968a3.943,3.943,0,0,0,.683,2.28,2.306,2.306,0,0,0,1.979.859,2.582,2.582,0,0,0,2-.811,2.718,2.718,0,0,0,.6-1.09h1.571a3.211,3.211,0,0,1-.413,1.146,4.084,4.084,0,0,1-.786,1.033,3.745,3.745,0,0,1-1.8.941,5.569,5.569,0,0,1-1.3.139,4.038,4.038,0,0,1-3.009-1.268A4.881,4.881,0,0,1,111.7-13.44a5.305,5.305,0,0,1,1.243-3.652A4.133,4.133,0,0,1,116.193-18.5Zm2.547,4.132a4.01,4.01,0,0,0-.453-1.63,2.331,2.331,0,0,0-2.192-1.133,2.451,2.451,0,0,0-1.846.78,2.919,2.919,0,0,0-.79,1.983Zm7.633-4.193a4.2,4.2,0,0,1,2.614.767,3.648,3.648,0,0,1,1.212,2.641h-1.553A2.792,2.792,0,0,0,128-16.582a2.068,2.068,0,0,0-1.624-.571,2.244,2.244,0,0,0-2.183,1.464,5.726,5.726,0,0,0-.426,2.345,4.351,4.351,0,0,0,.6,2.362,2.081,2.081,0,0,0,1.9.959,2.1,2.1,0,0,0,1.575-.6,3.261,3.261,0,0,0,.8-1.634H130.2a4.068,4.068,0,0,1-1.331,2.715,4.2,4.2,0,0,1-2.725.859,3.665,3.665,0,0,1-2.973-1.338,5.062,5.062,0,0,1-1.109-3.343,5.565,5.565,0,0,1,1.216-3.827A3.96,3.96,0,0,1,126.373-18.557Zm6.106-2.336H134.1v2.606h1.518v1.281H134.1v6.093a.656.656,0,0,0,.337.654,1.457,1.457,0,0,0,.621.1q.115,0,.249,0t.311-.022V-8.95a3.624,3.624,0,0,1-.572.113,5.541,5.541,0,0,1-.644.035,1.75,1.75,0,0,1-1.518-.562,2.465,2.465,0,0,1-.4-1.46v-6.18h-1.287v-1.281h1.287Zm9.053,2.4a4.4,4.4,0,0,1,1.962.466,3.6,3.6,0,0,1,1.447,1.207,4.121,4.121,0,0,1,.639,1.648,10.588,10.588,0,0,1,.142,2.057h-6.968a3.942,3.942,0,0,0,.683,2.28,2.306,2.306,0,0,0,1.979.859,2.582,2.582,0,0,0,2-.811,2.718,2.718,0,0,0,.6-1.09h1.571a3.212,3.212,0,0,1-.413,1.146,4.084,4.084,0,0,1-.786,1.033,3.745,3.745,0,0,1-1.8.941,5.569,5.569,0,0,1-1.3.139,4.038,4.038,0,0,1-3.009-1.268,4.881,4.881,0,0,1-1.234-3.552,5.305,5.305,0,0,1,1.243-3.652A4.133,4.133,0,0,1,141.533-18.5Zm2.547,4.132a4.01,4.01,0,0,0-.453-1.63,2.331,2.331,0,0,0-2.192-1.133,2.451,2.451,0,0,0-1.846.78,2.919,2.919,0,0,0-.79,1.983Zm4.979.854A4.564,4.564,0,0,0,149.707-11a2.283,2.283,0,0,0,2.077,1.011,2.2,2.2,0,0,0,1.824-.937,4.366,4.366,0,0,0,.714-2.689,3.926,3.926,0,0,0-.737-2.619,2.314,2.314,0,0,0-1.82-.85,2.419,2.419,0,0,0-1.957.907A4.1,4.1,0,0,0,149.059-13.509Zm2.405-4.943a3.43,3.43,0,0,1,1.828.453,4.263,4.263,0,0,1,.967.915V-21.8H155.8V-8.95h-1.438v-1.3A3.431,3.431,0,0,1,153.036-9a3.843,3.843,0,0,1-1.749.384,3.566,3.566,0,0,1-2.752-1.312,5.07,5.07,0,0,1-1.163-3.491,5.95,5.95,0,0,1,1.061-3.535A3.493,3.493,0,0,1,151.465-18.452Z" transform="translate(57.409 64.611)" fill="#fff"/>
</svg>
