<?xml version="1.0" encoding="utf-8"?>
<!-- Generator: Adobe Illustrator 23.0.1, SVG Export Plug-In . SVG Version: 6.00 Build 0)  -->
<svg version="1.1" id="Layer_1" xmlns="http://www.w3.org/2000/svg" xmlns:xlink="http://www.w3.org/1999/xlink" x="0px" y="0px"
	 viewBox="0 0 170 170" style="enable-background:new 0 0 170 170;" xml:space="preserve" width="105" height="105">
<style type="text/css">
	.st0{fill:#09A7C1;}
	.st1{fill:#E8F4ED;}
	.st2{opacity:0.15;fill:#326598;enable-background:new    ;}
	.st3{fill:#FFFFFF;}
	.st4{fill:#064E29;}
	.st5{fill:#037D3F;}
	.st6{opacity:0.5;fill:#059549;enable-background:new    ;}
	.st7{fill:#A1D1B8;}
	.st8{fill:#C4E5F3;}
	.st9{fill:#4CB266;}
	.st10{opacity:0.2;fill:#326598;enable-background:new    ;}
	.st11{fill:#FDD800;}
	.st12{fill-rule:evenodd;clip-rule:evenodd;fill:#A31E21;}
	.st13{fill:#4AC2C5;}
	.st14{fill:#D67CB3;}
	.st15{fill:#C9D3EC;}
	.st16{fill-rule:evenodd;clip-rule:evenodd;fill:#FDD800;}
</style>
<g id="Group_36834" transform="translate(-2124.733 -2211.395)">
	<path id="Rectangle_18350" class="st0" d="M2172,2229.4L2172,2229.4c5.7,0,10.3,4.6,10.3,10.3v44.5c0,5.7-4.6,10.3-10.3,10.3h0
		c-5.7,0-10.3-4.6-10.3-10.3v-44.5C2161.7,2234,2166.3,2229.4,2172,2229.4z"/>
	<g id="Group_36832" transform="translate(2180.352 2211.395)">
		<path id="Path_43221" class="st1" d="M111.9,47.7c-4.7,0-8.5,3.8-8.5,8.5c0,0,0,0,0,0v86.7c0,4.2-3.4,7.6-7.6,7.6
			c-4.2,0-7.6-3.4-7.6-7.6c0,0,0,0,0,0V47.7H111.9z"/>
		<path id="Path_43222" class="st2" d="M98.1,47.7c-2.7,0-4.3,3.9-4.3,6.4v88.7c0,2.9-1.1,5.5-2.8,6.8c-1.7-1.3-2.8-3.8-2.8-6.7
			V47.7H98.1z"/>
		<path id="Path_43223" class="st3" d="M112,47.7L112,47.7c-0.1,0-0.1,0-0.2,0H112z"/>
		<path id="Path_43224" class="st4" d="M95.7,150.5H12.5c-5.8,0-10.6-4.7-10.6-10.6l0,0V59.5h65.6V28.3c0-2.4,0.9-4.8,2.4-6.6
			c0.2-0.2,0.4-0.4,0.6-0.6c4-4,10.6-4,14.6,0c1.9,1.9,3,4.6,3,7.3v114.6C88.2,147.1,91.6,150.5,95.7,150.5z"/>
		<path id="Path_43225" class="st5" d="M82.9,150.5H12.5c-5.8,0-10.6-4.7-10.6-10.6l0,0V59.5h65.6V28.3c-0.7-3.9,1.9-7.5,5.8-8.2
			c3.9-0.7,7.5,1.9,8.2,5.8c0.4,2.2-0.3,4.4-1.8,6.1v112.4C79.7,146.8,80.9,149.1,82.9,150.5z"/>
		<path id="Path_43226" class="st6" d="M62.8,84.8v44.4c0,2.4-1.9,4.3-4.3,4.3c0,0,0,0,0,0H1.9V84.8H62.8z"/>
		<path id="Path_43227" class="st1" d="M77.9,18c-5.7,0-10.3,4.6-10.3,10.3V125c0,2.4-1.9,4.3-4.3,4.3c0,0,0,0,0,0h-77.5
			c-2.4,0-4.3-1.9-4.3-4.3V28.2c0-5.6,4.6-10.2,10.2-10.2L77.9,18z"/>
		<path id="Path_43228" class="st7" d="M25.6,32.8H-9.3c-1.4,0-2.5-1.1-2.5-2.5l0,0c0-1.4,1.1-2.5,2.5-2.5h34.9
			c1.4,0,2.5,1.1,2.5,2.5l0,0C28.1,31.7,27,32.8,25.6,32.8z"/>
		<path id="Path_43229" class="st7" d="M13.9,43.8H-9.3c-1.4,0-2.5-1.1-2.5-2.5l0,0c0-1.4,1.1-2.5,2.5-2.5c0,0,0,0,0,0h23.2
			c1.4,0,2.5,1.1,2.5,2.5c0,0,0,0,0,0l0,0C16.4,42.7,15.3,43.8,13.9,43.8z"/>
		<path id="Rectangle_18351" class="st7" d="M-9.3,54.9h23.2c1.4,0,2.5,1.1,2.5,2.5l0,0c0,1.4-1.1,2.5-2.5,2.5H-9.3
			c-1.4,0-2.5-1.1-2.5-2.5l0,0C-11.7,56-10.6,54.9-9.3,54.9z"/>
		<path id="Path_43230" class="st7" d="M13.9,96.2H-9.3c-1.4,0-2.5-1.1-2.5-2.5c0,0,0,0,0,0l0,0c0-1.4,1.1-2.5,2.5-2.5h23.2
			c1.4,0,2.5,1.1,2.5,2.5c0,0,0,0,0,0l0,0C16.4,95.1,15.3,96.2,13.9,96.2C13.9,96.2,13.9,96.2,13.9,96.2z"/>
		<path id="Path_43232" class="st8" d="M25.7,115h-35c-1.4,0-2.5-1.1-2.5-2.5c0,0,0,0,0,0l0,0c0-1.4,1.1-2.5,2.5-2.5h35
			c1.4,0,2.5,1.1,2.5,2.5l0,0C28.1,113.9,27,115,25.7,115z"/>
		<path id="Path_43233" class="st7" d="M58.1,80.2H37.9c-1.4,0-2.5-1.1-2.5-2.5v0l0,0c0-1.4,1.1-2.5,2.5-2.5c0,0,0,0,0,0h20.1
			c1.4,0,2.5,1.1,2.5,2.5c0,0,0,0,0,0l0,0C60.5,79.1,59.4,80.2,58.1,80.2z"/>
		<path id="Rectangle_18352" class="st7" d="M48.9,65.1h9.2c1.4,0,2.5,1.1,2.5,2.5l0,0c0,1.4-1.1,2.5-2.5,2.5h-9.2
			c-1.4,0-2.5-1.1-2.5-2.5l0,0C46.5,66.2,47.6,65.1,48.9,65.1z"/>
		<path id="Rectangle_18353" class="st7" d="M48.9,54.9h9.2c1.4,0,2.5,1.1,2.5,2.5l0,0c0,1.4-1.1,2.5-2.5,2.5h-9.2
			c-1.4,0-2.5-1.1-2.5-2.5l0,0C46.5,56,47.6,54.9,48.9,54.9z"/>
		<path id="Rectangle_18354" class="st7" d="M-9.3,65.1h31.6c1.4,0,2.5,1.1,2.5,2.5l0,0c0,1.4-1.1,2.5-2.5,2.5H-9.3
			c-1.4,0-2.5-1.1-2.5-2.5l0,0C-11.7,66.2-10.6,65.1-9.3,65.1z"/>
		<path id="Rectangle_18355" class="st7" d="M-9.3,75.3h22.1c1.4,0,2.5,1.1,2.5,2.5l0,0c0,1.4-1.1,2.5-2.5,2.5H-9.3
			c-1.4,0-2.5-1.1-2.5-2.5l0,0C-11.7,76.4-10.6,75.3-9.3,75.3z"/>
		<path id="Rectangle_18356" class="st9" d="M39.6,110.1h18.5c1.4,0,2.5,1.1,2.5,2.5l0,0c0,1.4-1.1,2.5-2.5,2.5H39.6
			c-1.4,0-2.5-1.1-2.5-2.5l0,0C37.1,111.2,38.2,110.1,39.6,110.1z"/>
	</g>
	<g id="Group_36833" transform="translate(2124.733 2220.462)">
		<path id="Path_43234" class="st10" d="M41.5,29.6c-1.5,0-3.1,0.1-4.6,0.4v50.4c13.9,2.5,27.2-6.7,29.8-20.6
			C69.2,45.9,59.9,32.6,46,30C44.5,29.8,43,29.6,41.5,29.6z"/>
		<circle id="Ellipse_2360" class="st11" cx="38.4" cy="51.4" r="25.6"/>
		<circle id="Ellipse_2361" class="st3" cx="7.5" cy="73.7" r="6.4"/>
		<circle id="Ellipse_2362" class="st3" cx="20.9" cy="81.6" r="3.1"/>
	</g>
	<g id="Group_39896" transform="translate(2169.197 2243.938)">
		<path id="Path_19479" class="st12" d="M-3.2,47.6l-0.4,0.4l-0.4-0.4l0.4-0.4L-3.2,47.6L-3.2,47.6z M-0.4,44.9h1
			c0-0.2-0.1-0.5-0.3-0.6C0.2,44.1,0,44-0.2,44C-0.6,44.1-0.7,44.6-0.4,44.9L-0.4,44.9z M-2,46.2c-0.1,0-0.1,0.1-0.2,0.2
			c-0.1,0.1-0.1,0.2-0.1,0.3c0,0.1,0,0.3,0.1,0.4c0.1,0.1,0.2,0.1,0.3,0.1c0.1,0,0.1,0,0.2,0l0.2-0.1L-2,46.2L-2,46.2z M-1.2,46.8
			L-1.7,46c0,0,0.1,0,0.2,0h0.2c0.1,0,0.2,0,0.3,0.1c0.1,0.1,0.2,0.2,0.2,0.4C-1,46.6-1.1,46.8-1.2,46.8L-1.2,46.8z M-0.6,44.9
			c-0.1-0.1-0.2-0.3-0.2-0.5c0-0.2,0-0.4,0.2-0.6c0.1-0.1,0.3-0.2,0.5-0.2c0.2,0,0.4,0.1,0.6,0.3c0.2,0.3,0.3,0.6,0.3,0.9h0.5
			l0.2,0.4H0.8v2.8l-0.5-0.2v-2.6h-0.6v2.8l-0.4-0.2v-0.8c-0.1,0.1-0.2,0.2-0.3,0.2c-0.2,0.1-0.4,0.1-0.6,0.1c-0.1,0-0.3,0-0.4-0.1
			c-0.1-0.1-0.3-0.1-0.4-0.2c-0.2-0.2-0.3-0.4-0.3-0.7c0-0.2,0.1-0.4,0.2-0.5c0.2-0.2,0.5-0.3,0.8-0.3c0.2,0,0.4,0.1,0.6,0.2
			c0.1,0.1,0.2,0.2,0.3,0.3v-0.8h-2.1L-3,44.9L-0.6,44.9L-0.6,44.9z M-6.1,45.3c0.2,0.3,0.2,0.7,0.1,1.1l0.2,0.1
			c0.1,0.1,0.2,0.1,0.3,0.1c0,0,0.1,0,0.1,0c0,0,0,0,0.1-0.1c0.1,0,0.2-0.1,0.3-0.2v-1L-6.1,45.3z M-6.4,45.3h-1.3v1.5
			c0,0.1-0.1,0.2-0.2,0.2c0,0,0,0,0,0H-8c0,0,0,0-0.1,0l-0.2,0l-0.3-0.3l0.3,0c0.1,0,0.2,0,0.2-0.1v-1.3H-9v1.5c0,0,0,0.1,0,0.1
			c0,0,0,0.1,0.1,0.1l1.5,1c0.1,0.1,0.2,0.1,0.2,0.2c0,0.1,0.1,0.1,0.1,0.2c0,0.1-0.1,0.3-0.2,0.4l-0.3-0.3c0,0,0.1-0.1,0.1-0.1
			c0,0,0-0.1,0-0.1c0,0,0-0.1-0.2-0.2l-1.7-1c-0.1-0.1-0.2-0.2-0.2-0.4v-1.5h-0.4l-0.2-0.4h5.7l0.2,0.4h-0.4v2.8L-5,47.9v-1.2
			c0,0-0.1,0-0.1,0c-0.1,0-0.1,0-0.2,0.1c-0.1,0-0.1,0-0.1,0c-0.1,0-0.3,0-0.4-0.1c-0.1-0.1-0.2-0.1-0.3-0.2l-0.1,0.1
			c0,0-0.1,0.1-0.1,0.1c0,0-0.1,0-0.1,0.1c0,0,0,0,0,0c0,0,0,0,0,0c0.1,0.1,0.1,0.1,0.2,0.2c0,0,0.1,0.1,0.3,0.3l0.5,0.5l-0.1,0.3
			c-0.5-0.6-0.9-1-1.1-1.2c-0.1-0.1-0.2-0.3-0.3-0.5c0-0.1,0.1-0.4,0.3-0.4c0.1,0,0.2,0,0.3,0.1c0,0,0.1,0,0.1-0.1
			C-6.1,45.9-6,45.8-6.4,45.3L-6.4,45.3z M-12.8,44.9l0.8,0c0-0.2-0.1-0.5-0.3-0.7c-0.1-0.1-0.3-0.2-0.5-0.2c-0.2,0-0.4,0.1-0.3,0.5
			C-13,44.7-12.9,44.8-12.8,44.9L-12.8,44.9z M-13.2,45.3h-0.9v1c0,0.3,0.1,0.5,0.3,0.5c0.1,0,0.2,0,0.3-0.1c0.1,0,0.1,0,0.2-0.1
			c0.1,0,0.1-0.1,0.2-0.1V45.3L-13.2,45.3z M-10.3,47.6l-0.4,0.4l-0.4-0.4l0.4-0.4L-10.3,47.6L-10.3,47.6z M-13.1,44.9
			c-0.2-0.1-0.4-0.4-0.4-0.7c0-0.2,0.1-0.3,0.2-0.4c0.1-0.1,0.3-0.1,0.5-0.1c0.2,0,0.4,0.1,0.6,0.3c0.2,0.3,0.3,0.6,0.4,0.9h0.5
			l0.2,0.4h-0.5v2.8l-0.5-0.2v-2.6l-0.5,0v2.8l-0.5-0.2v-1c0,0-0.1,0-0.1,0.1c0,0-0.1,0-0.1,0c-0.1,0-0.2,0-0.3,0
			c-0.2,0-0.4-0.1-0.6-0.2c-0.2-0.1-0.3-0.3-0.3-0.5v-1h-0.4l-0.2-0.4L-13.1,44.9z"/>
		<path id="Path_19480" class="st12" d="M-14.6,24.2l0-0.4l0-0.3l0-0.3l0.1-0.3l0.1-0.3l0.1-0.3l0.1-0.3l0.1-0.3l0.1-0.3l0.1-0.3
			l0.1-0.3l0.1-0.3l0.1-0.2l0.2-0.2l0.2-0.2l0.2-0.2l0.2-0.2l0.2-0.2l0.2-0.2l0.2-0.2l0.2-0.2l0.2-0.2l0.2-0.2l0.2-0.2l0.2-0.2
			l0.2-0.2l0.3-0.1l0.3-0.1l0.3-0.1l0.3-0.1l0.3-0.1l0.4-0.1v-1.7H-9l0.2,0l0.2,0l0.2,0l0.2-0.1l0.2-0.1l0.2-0.1l0.2-0.1l0.2-0.1
			l0.2-0.1l0.2-0.1l0.2-0.1l0.2-0.1l0.2-0.1l0.2-0.1l0.2-0.1l0.2-0.2l0.2-0.2l0.2-0.2l0.2-0.2l0.2-0.2l0.1-0.2l0.1-0.2l0.3-0.4
			l0.2-0.4l0.2-0.4l0.2-0.4l0.1-0.2l0.3-0.5l0.3-0.4l0.2-0.2l0.2-0.2l0.2-0.2l0.2-0.2l0.2-0.2L-2,9.4l0.2-0.1l0.2-0.1L-1.5,9
			l0.2-0.1l0.2-0.1L-1,8.6l0.2-0.1l0.2-0.1l0.2-0.1l0.2-0.1L0,8.3l0.2-0.1l0.2,0l0.2,0l0.2,0l0.3,0l0.3,0L2,8c0.3,0,0.5,0,0.8,0v3.9
			l-0.2,0l-0.2,0l-0.2,0H2.1l-0.2,0l-0.2,0l-0.2,0l-0.2,0l-0.1,0l-0.1,0L1.1,12l-0.1,0.1l-0.1,0.1l-0.1,0.1l-0.1,0.1l-0.1,0.1
			l-0.1,0.1L0,12.6l-0.2,0.2l-0.2,0.2l-0.2,0.2l-0.2,0.2l-0.1,0.3L-1,14c-0.2,0.4-0.5,0.9-0.7,1.3c-0.1,0.1-0.2,0.3-0.3,0.4
			C-2,15.9-2.1,16-2.2,16.1c-0.1,0.1-0.2,0.2-0.3,0.3l-0.2,0.2c-0.1,0.1-0.2,0.2-0.3,0.3l-0.2,0.2l-0.2,0.2l-0.1,0.1L-4,17.4
			l0.5,0.2l0.2,0.1l0.2,0.1l0.2,0.1l0.2,0.2l0.2,0.2l0.2,0.2l0.2,0.2l0.2,0.2l0.2,0.2l0.2,0.2l0.2,0.2l0.2,0.2l0.2,0.2l0.2,0.2
			l0.2,0.2l0.2,0.2L0,20.8l0.1,0.2l0.1,0.3l0.1,0.3l0.1,0.3l0.1,0.3l0.1,0.3l0.1,0.3l0.1,0.3l0.1,0.3l0,0.3l0,0.3l0,0.3l0,0.3l0,0.3
			L1,25l0,0.3l0,0.3l0,0.3l-0.1,0.3l-0.1,0.3l-0.1,0.3L0.6,27l-0.1,0.3l-0.1,0.3l-0.1,0.3l-0.1,0.3l-0.1,0.3l-0.1,0.3l-0.1,0.2
			l-0.2,0.2l-0.2,0.2l-0.2,0.2l-0.2,0.2L-1.1,30l-0.2,0.2l-0.2,0.2l-0.2,0.2l-0.2,0.2l-0.2,0.2l-0.2,0.2l-0.2,0.2l-0.2,0.2l-0.2,0.1
			l-0.3,0.1l-0.3,0.1l-0.8,0.4l0.9,0l0.3,0l0.3,0l0.3,0.1l0.2,0.1l0.2,0.1l0.2,0.1l0.2,0.1l0.2,0.1l0.2,0.1l0.2,0.1l0.2,0.1l0.2,0.1
			l0.2,0.2l0.2,0.2l0.2,0.2l0.2,0.2l0.2,0.2l0.1,0.2l0.1,0.2l0.1,0.2L0.6,35l0.1,0.2l0.1,0.2L1,35.6L1,35.9l0.1,0.2l0.1,0.2l0,0.3
			l0,0.3l0,0.3l0,0.3l0,0.3l0,0.3l0,0.3l0,0.3l-0.1,0.3L1,38.9l-0.1,0.2l-0.1,0.2l-0.1,0.2l-0.1,0.2l-0.1,0.2l-0.1,0.2l-0.1,0.2
			l-0.2,0.2l-0.2,0.2l-0.2,0.2l-0.2,0.2l-0.2,0.2l-0.2,0.2L-1,41.7l-0.2,0.1L-1.5,42l-0.2,0.1l-0.2,0.1l-0.2,0.1l-0.2,0.1l-0.2,0.1
			l-0.3,0.1l-0.3,0l-0.3,0l-0.3,0l-0.3,0l-0.3,0l-0.3,0l-0.3,0l-0.2,0l-0.2-0.1l-0.2-0.1l-0.2-0.1l-0.2-0.1l-0.2-0.1L-6.3,42
			l-0.2-0.1l-0.2-0.1L-7,41.6l-0.2-0.1l-0.2-0.2l-0.2-0.2L-7.7,41l-0.2-0.2L-8,40.6l-0.1-0.2l-0.1-0.2L-8.4,40l-0.1-0.2l-0.1-0.2
			l-0.1-0.2l-0.1-0.2l-0.1-0.2L-9,38.6L-9,38.4l0-0.3l0-0.3l0-0.3V24.2h3.5v4.3l0.3-0.1l0.3-0.1l0.3-0.2l0.3-0.2l0.2-0.2l0.2-0.2
			l0.2-0.2l0.2-0.2l0.2-0.2l0.2-0.3l0.1-0.3l0.1-0.3l0-0.1l0.1-0.3l0-0.2l0-0.2l0-0.2l0-0.2l0-0.2v-0.2l0-0.2l0-0.2l0-0.2l0-0.2
			l0-0.2l-0.1-0.2L-3,23.3l-0.1-0.2l-0.1-0.2l-0.1-0.2l-0.1-0.2l-0.1-0.2l-0.1-0.2l-0.1-0.2l-0.1-0.1L-4,21.8l-0.1-0.1l-0.1-0.1
			l-0.2-0.1l-0.2-0.1l-0.2-0.1l-0.2-0.1L-5.1,21l-0.2-0.1l-0.2-0.1l-0.2-0.1l-0.2-0.1l-0.2,0l-0.2,0l-0.2,0l-0.2,0l-0.2,0l-0.2,0
			l-0.2,0l-0.2,0l-0.2,0l-0.2,0l-0.2,0l-0.2,0.1l-0.2,0.1l-0.2,0.1L-8.6,21l-0.2,0.1l-0.2,0.1l-0.2,0.1l-0.1,0.1l-0.1,0.1l-0.1,0.1
			l-0.1,0.1l-0.1,0.1L-9.9,22l-0.1,0.1l-0.1,0.1l-0.1,0.1l-0.1,0.2l-0.1,0.2l-0.1,0.2l-0.1,0.2l-0.1,0.2l-0.1,0.2l-0.1,0.2l0,0.2
			l0,0.2l0,0.2v18.5h-3.8L-14.6,24.2L-14.6,24.2z M-3.9,35.7l-0.2,0l-0.2,0l-0.2,0c-0.1,0-0.2,0.1-0.2,0.1c-0.1,0-0.1,0.1-0.2,0.1
			c-0.1,0-0.1,0.1-0.2,0.1s-0.1,0.1-0.2,0.2c-0.1,0.1-0.1,0.1-0.1,0.2c0,0.1-0.1,0.1-0.1,0.2c0,0.1-0.1,0.2-0.1,0.2l0,0.2l0,0.2v0.2
			l0,0.2l0,0.2c0,0.1,0,0.2,0.1,0.2c0,0.1,0.1,0.1,0.1,0.2c0,0.1,0.1,0.1,0.1,0.2c0.1,0.1,0.1,0.1,0.2,0.2c0.1,0.1,0.1,0.1,0.2,0.1
			c0.1,0,0.1,0.1,0.2,0.1c0.1,0,0.1,0.1,0.2,0.1l0.2,0l0.2,0l0.2,0l0.2,0l0.2,0c0.1,0,0.2,0,0.2-0.1c0.1,0,0.1-0.1,0.2-0.1
			c0.1,0,0.1-0.1,0.2-0.1c0.1,0,0.1-0.1,0.2-0.2s0.1-0.1,0.2-0.2c0-0.1,0.1-0.1,0.1-0.2c0-0.1,0.1-0.1,0.1-0.2c0-0.1,0-0.2,0.1-0.2
			l0-0.2l0-0.2l0-0.2l0-0.2c0-0.1,0-0.2-0.1-0.2c0-0.1-0.1-0.1-0.1-0.2c0-0.1-0.1-0.1-0.1-0.2s-0.1-0.1-0.2-0.2
			c-0.1-0.1-0.1-0.1-0.2-0.2C-3,36-3.1,36-3.1,35.9c-0.1,0-0.1-0.1-0.2-0.1s-0.2,0-0.2-0.1l-0.2,0L-3.9,35.7z"/>
	</g>
	<path id="Path_43238" class="st13" d="M2179.9,2361.1c-1.3,0.1-2.3,1.2-2.2,2.5c0.1,1.3,1.2,2.3,2.5,2.2c1.3-0.1,2.3-1.2,2.2-2.5
		C2182.3,2362,2181.2,2361,2179.9,2361.1z"/>
	<path id="Path_43239" class="st5" d="M2284.2,2252.3c0.2,0,0.4-0.2,0.3-0.5c-0.3-1.5,0.8-3,2.3-3.3c0.5-0.1,1,0,1.5,0.1
		c1.9,0.7,4-0.2,4.7-2.1c0.2-0.6,0.3-1.3,0.2-1.9c0-0.2-0.2-0.4-0.5-0.3c-0.1,0-0.2,0.1-0.3,0.2c-0.1,0.1-0.1,0.2-0.1,0.3
		c0.3,1.5-0.8,3-2.3,3.3c-0.5,0.1-1,0-1.5-0.1c-1.2-0.5-2.6-0.2-3.6,0.6c-0.3,0.3-0.6,0.6-0.8,1c-0.1,0.2-0.2,0.4-0.3,0.6
		c-0.2,0.6-0.3,1.2-0.2,1.8C2283.7,2252.1,2284,2252.3,2284.2,2252.3z"/>
	<path id="Path_43240" class="st5" d="M2147,2346.9c0.2,0,0.4-0.2,0.3-0.5c0,0,0,0,0,0c-0.3-1.5,0.8-3,2.3-3.3c0.5-0.1,1,0,1.5,0.1
		c1.9,0.7,4-0.2,4.7-2.1c0.2-0.6,0.3-1.3,0.2-1.9c0-0.1-0.1-0.2-0.2-0.3c-0.1-0.1-0.2-0.1-0.3-0.1c-0.1,0-0.2,0.1-0.3,0.2
		c-0.1,0.1-0.1,0.2-0.1,0.3c0.3,1.5-0.8,3-2.3,3.3c-0.5,0.1-1,0-1.5-0.1c-1.2-0.5-2.6-0.2-3.6,0.6c-0.3,0.3-0.6,0.6-0.8,1
		c-0.1,0.2-0.2,0.4-0.3,0.6c-0.2,0.6-0.3,1.2-0.2,1.8C2146.6,2346.8,2146.8,2347,2147,2346.9z"/>
	<g id="Group_39902" transform="translate(2142.167 2212.714)">
		<path id="Path_25422" class="st14" d="M4.5,17.6c-1.3,0.1-2.3,1.2-2.2,2.5c0.1,1.3,1.2,2.3,2.5,2.2c1.3-0.1,2.3-1.2,2.2-2.5
			C7,18.5,5.9,17.5,4.5,17.6C4.5,17.6,4.5,17.6,4.5,17.6z"/>
		<path id="Path_25423" class="st5" d="M3.5,37.1C3.4,36.9,3.2,36.9,3,37c-1.4,0.8-3.1,0.3-3.9-1.1c-0.2-0.4-0.4-0.9-0.4-1.4
			c0-2-1.6-3.7-3.6-3.7c-0.7,0-1.3,0.2-1.9,0.5c-0.2,0.1-0.3,0.4-0.2,0.6c0.1,0.1,0.1,0.2,0.3,0.2c0.1,0,0.2,0,0.3,0
			c1.4-0.8,3.1-0.3,3.9,1.1c0.3,0.4,0.4,0.9,0.4,1.4c0,1.3,0.7,2.5,1.8,3.2C0.1,37.9,0.5,38,1,38.1c0.2,0,0.4,0.1,0.6,0.1
			c0.6,0,1.2-0.2,1.8-0.5C3.6,37.6,3.7,37.3,3.5,37.1z"/>
	</g>
	<path id="Path_43241" class="st15" d="M2176.8,2347.5c0,0,0,0.1,0,0.1c-0.1,0.1-0.2,0.2-0.3,0.2h-6.7c-0.2,0-0.3-0.1-0.3-0.3
		c0-0.1,0-0.1,0.1-0.2l3.3-4.2c0.1-0.1,0.3-0.2,0.5-0.1c0,0,0,0,0.1,0.1l3.3,4.2C2176.8,2347.4,2176.8,2347.4,2176.8,2347.5z
		 M2170.5,2347.2h5.3l-2.7-3.4L2170.5,2347.2z"/>
	<path id="Path_43242" class="st15" d="M2279.9,2243c0,0-0.1,0-0.1,0c-0.1-0.1-0.2-0.2-0.2-0.3l0-6.7c0-0.1,0.1-0.2,0.2-0.3
		c0.1-0.1,0.2,0,0.3,0l4.2,3.4c0.1,0.1,0.2,0.3,0.1,0.5c0,0,0,0-0.1,0.1l-4.2,3.3C2280.1,2243,2280,2243,2279.9,2243z
		 M2280.3,2236.7l0,5.3l3.4-2.7L2280.3,2236.7z"/>
	<g id="Group_39903" transform="translate(2185.125 2342.638)">
		<path id="Rectangle_18555" class="st5" d="M-17.4-22.6H57c1.5,0,2.8,1.2,2.8,2.8V-8c0,1.5-1.2,2.8-2.8,2.8h-74.4
			c-1.5,0-2.8-1.2-2.8-2.8v-11.7C-20.2-21.3-18.9-22.6-17.4-22.6z"/>
		<g id="Group_39900" transform="translate(6.499 2.44)">
			<rect id="Rectangle_18556" x="-22.2" y="-23.3" class="st11" width="10" height="14.3"/>
			<g id="Group_39898" transform="translate(2.938 0.649)">
				<path id="Path_19479-2" class="st12" d="M-19.1-10.5l-0.1,0.1l-0.1-0.1l0.1-0.1L-19.1-10.5L-19.1-10.5z M-18.2-11.3h0.3
					c0-0.1,0-0.2-0.1-0.2c0,0-0.1-0.1-0.1-0.1C-18.2-11.6-18.3-11.4-18.2-11.3L-18.2-11.3z M-18.7-10.9
					C-18.7-10.9-18.7-10.9-18.7-10.9c-0.1,0.1-0.1,0.1-0.1,0.1c0,0,0,0.1,0,0.1c0,0,0.1,0,0.1,0c0,0,0,0,0.1,0l0.1,0L-18.7-10.9
					L-18.7-10.9z M-18.5-10.7l-0.2-0.3c0,0,0,0,0.1,0h0.1c0,0,0.1,0,0.1,0c0,0,0.1,0.1,0,0.1C-18.4-10.8-18.4-10.7-18.5-10.7
					L-18.5-10.7z M-18.3-11.3c0,0-0.1-0.1-0.1-0.2c0-0.1,0-0.1,0.1-0.2c0,0,0.1-0.1,0.2-0.1c0.1,0,0.1,0,0.2,0.1
					c0.1,0.1,0.1,0.2,0.1,0.3h0.2l0.1,0.1h-0.2v0.9l-0.2-0.1v-0.9h-0.2v0.9l-0.1-0.1v-0.3c0,0-0.1,0.1-0.1,0.1c-0.1,0-0.1,0-0.2,0
					c0,0-0.1,0-0.1,0c0,0-0.1,0-0.1-0.1c-0.1-0.1-0.1-0.1-0.1-0.2c0-0.1,0-0.1,0.1-0.2c0.1-0.1,0.2-0.1,0.3-0.1c0.1,0,0.1,0,0.2,0.1
					c0,0,0.1,0.1,0.1,0.1v-0.3H-19l-0.1-0.1L-18.3-11.3L-18.3-11.3z M-20.1-11.2c0.1,0.1,0.1,0.2,0,0.3l0.1,0c0,0,0.1,0,0.1,0
					c0,0,0,0,0,0c0,0,0,0,0,0c0,0,0.1,0,0.1-0.1v-0.3L-20.1-11.2z M-20.1-11.2h-0.4v0.5c0,0,0,0.1-0.1,0.1c0,0,0,0,0,0h0
					c0,0,0,0,0,0l-0.1,0l-0.1-0.1l0.1,0c0,0,0.1,0,0.1,0v-0.4H-21v0.5c0,0,0,0,0,0c0,0,0,0,0,0l0.5,0.3c0,0,0.1,0,0.1,0.1
					c0,0,0,0,0,0.1c0,0,0,0.1-0.1,0.1l-0.1-0.1c0,0,0,0,0,0c0,0,0,0,0,0c0,0,0,0,0-0.1l-0.6-0.3c0,0-0.1-0.1-0.1-0.1v-0.5h-0.1
					l-0.1-0.1h1.9l0.1,0.1h-0.1v0.9l-0.2-0.1v-0.4c0,0,0,0,0,0c0,0,0,0-0.1,0c0,0,0,0,0,0c0,0-0.1,0-0.1,0c0,0-0.1,0-0.1-0.1l0,0
					c0,0,0,0,0,0c0,0,0,0,0,0c0,0,0,0,0,0c0,0,0,0,0,0l0.1,0.1l0.1,0.1l0.1,0.2l0,0.1c-0.2-0.2-0.3-0.3-0.4-0.4c0,0-0.1-0.1-0.1-0.2
					c0,0,0-0.1,0.1-0.1c0,0,0.1,0,0.1,0c0,0,0,0,0,0C-20.1-11-20-11-20.1-11.2L-20.1-11.2z M-22.3-11.3h0.3c0-0.1,0-0.2-0.1-0.2
					c0,0-0.1-0.1-0.1-0.1c-0.1,0-0.1,0-0.1,0.2C-22.3-11.4-22.3-11.4-22.3-11.3L-22.3-11.3z M-22.4-11.2h-0.3v0.3
					c0,0.1,0,0.2,0.1,0.1c0,0,0.1,0,0.1,0c0,0,0,0,0.1,0c0,0,0,0,0.1,0L-22.4-11.2L-22.4-11.2z M-21.5-10.5l-0.1,0.1l-0.1-0.1
					l0.1-0.1L-21.5-10.5L-21.5-10.5z M-22.4-11.3c-0.1,0-0.1-0.1-0.1-0.2c0-0.1,0-0.1,0.1-0.1c0,0,0.1,0,0.2,0c0.1,0,0.1,0,0.2,0.1
					c0.1,0.1,0.1,0.2,0.1,0.3h0.2l0.1,0.1h-0.2v0.9l-0.2-0.1v-0.9h-0.2v0.9l-0.2-0.1v-0.3l0,0c0,0,0,0,0,0c0,0-0.1,0-0.1,0
					c-0.1,0-0.1,0-0.2-0.1c-0.1,0-0.1-0.1-0.1-0.2v-0.3H-23l-0.1-0.1L-22.4-11.3z"/>
				<path id="Path_19480-2" class="st12" d="M-22.9-18.1l0-0.1l0-0.1l0-0.1l0-0.1l0-0.1l0-0.1l0-0.1l0-0.1l0-0.1l0-0.1l0-0.1l0-0.1
					l0-0.1l0.1-0.1l0.1-0.1l0.1-0.1l0.1-0.1l0.1-0.1l0.1-0.1l0.1-0.1l0.1-0.1l0.1-0.1l0.1-0.1l0.1-0.1l0.1-0.1l0.1,0l0.1,0l0.1,0
					l0.1,0l0.1,0l0.1,0l0.1,0V-21h0l0.1,0l0.1,0l0.1,0l0.1,0l0.1,0l0.1,0l0.1,0l0.1,0l0.1,0l0.1,0l0.1,0l0.1,0l0.1,0l0.1,0l0.1,0
					l0.1,0l0.1-0.1l0.1-0.1l0.1-0.1l0-0.1l0-0.1l0-0.1l0.1-0.1l0.1-0.1l0.1-0.1l0.1-0.1l0-0.1l0.1-0.2l0.1-0.1l0.1-0.1l0.1-0.1
					l0.1-0.1l0.1-0.1l0.1-0.1l0.1,0l0.1,0l0.1,0l0.1,0l0.1,0l0.1,0l0.1,0l0.1,0l0.1,0l0.1,0l0.1,0l0.1,0l0.1,0l0.1,0l0.1,0l0.1,0
					l0.1,0l0.1,0l0.2,0c0.1,0,0.2,0,0.3,0v1.3l-0.1,0l-0.1,0h-0.1h-0.1h-0.1l-0.1,0l-0.1,0l-0.1,0l0,0l0,0l0,0l0,0l0,0l0,0l0,0l0,0
					l0,0L-18-22l-0.1,0.1l-0.1,0.1l-0.1,0.1l-0.1,0.1l0,0.1l0,0.1c-0.1,0.1-0.2,0.3-0.2,0.4c0,0-0.1,0.1-0.1,0.1c0,0,0,0.1-0.1,0.1
					c0,0-0.1,0.1-0.1,0.1l-0.1,0.1c0,0-0.1,0.1-0.1,0.1l-0.1,0.1l-0.1,0.1l0,0l-0.1,0.1l0.2,0.1l0.1,0l0.1,0l0.1,0l0.1,0.1l0.1,0.1
					l0.1,0.1l0.1,0.1l0.1,0.1l0.1,0.1l0.1,0.1l0.1,0.1l0.1,0.1l0.1,0.1l0.1,0.1l0.1,0.1l0,0.1l0,0.1l0,0.1l0,0.1l0,0.1l0,0.1l0,0.1
					l0,0.1l0,0.1l0,0.1l0,0.1l0,0.1l0,0.1l0,0.1l0,0.1v0.1v0.1l0,0.1l0,0.1l0,0.1l0,0.1l0,0.1l0,0.1l0,0.1l0,0.1l0,0.1l0,0.1l0,0.1
					l0,0.1l0,0.1l0,0.1l-0.1,0.1l-0.1,0.1l-0.1,0.1l-0.1,0.1l-0.1,0.1l-0.1,0.1l-0.1,0.1l-0.1,0.1l-0.1,0.1l-0.1,0.1l-0.1,0.1
					l-0.1,0.1l-0.1,0l-0.1,0l-0.1,0l-0.1,0l-0.3,0.1l0.3,0l0.1,0l0.1,0l0.1,0l0.1,0l0.1,0l0.1,0l0.1,0l0.1,0l0.1,0l0.1,0l0.1,0
					l0.1,0l0.1,0.1l0.1,0.1l0.1,0.1l0.1,0.1l0.1,0.1l0,0.1l0,0.1l0,0.1l0,0.1l0,0.1l0,0.1l0,0.1l0,0.1l0,0.1l0,0.1l0,0.1l0,0.1
					l0,0.1v0.1v0.1l0,0.1l0,0.1l0,0.1l0,0.1l0,0.1l0,0.1l0,0.1l0,0.1l0,0.1l0,0.1l0,0.1l0,0.1l-0.1,0.1l-0.1,0.1l-0.1,0.1l-0.1,0.1
					l-0.1,0.1l-0.1,0.1l-0.1,0l-0.1,0l-0.1,0l-0.1,0l-0.1,0l-0.1,0l-0.1,0l-0.1,0l-0.1,0l-0.1,0l-0.1,0l-0.1,0h-0.1h-0.1l-0.1,0
					l-0.1,0l-0.1,0l-0.1,0l-0.1,0l-0.1,0l-0.1,0l-0.1,0l-0.1,0l-0.1,0l-0.1,0l-0.1,0l-0.1,0l-0.1-0.1l-0.1-0.1l-0.1-0.1l-0.1-0.1
					l-0.1-0.1l0-0.1l0-0.1l0-0.1l0-0.1l0-0.1l0-0.1l0-0.1l0-0.1l0-0.1l0-0.1l0-0.1l0-0.1l0-0.1v-4.4h1.2v1.4l0.1,0l0.1,0l0.1,0
					l0.1-0.1l0.1-0.1l0.1-0.1l0.1-0.1l0.1-0.1l0.1-0.1l0.1-0.1l0-0.1l0-0.1l0,0l0-0.1l0-0.1l0-0.1l0-0.1l0-0.1v-0.1V-18v-0.1l0-0.1
					l0-0.1l0-0.1l0-0.1l0-0.1l0-0.1l0-0.1l0-0.1l0-0.1l0-0.1l0-0.1l0-0.1l0-0.1l0,0l0,0l0,0l0,0l-0.1,0l-0.1,0l-0.1,0l-0.1,0l-0.1,0
					l-0.1,0l-0.1,0l-0.1,0l-0.1,0l-0.1,0l-0.1,0l-0.1,0l-0.1,0h-0.1h-0.1l-0.1,0l-0.1,0l-0.1,0l-0.1,0l-0.1,0l-0.1,0l-0.1,0l-0.1,0
					l-0.1,0l-0.1,0l-0.1,0l0,0l0,0l0,0l0,0l0,0l0,0l0,0l0,0l0,0l0,0l0,0l0,0.1l0,0.1l0,0.1l0,0.1l0,0.1l0,0.1l0,0.1l0,0.1l0,0.1v6.1
					h-1.2L-22.9-18.1L-22.9-18.1z M-19.3-14.4L-19.3-14.4l-0.1,0l-0.1,0c0,0,0,0-0.1,0c0,0,0,0-0.1,0c0,0,0,0-0.1,0s0,0-0.1,0.1
					c0,0,0,0,0,0.1c0,0,0,0,0,0.1c0,0,0,0,0,0.1l0,0.1l0,0.1v0.1l0,0.1l0,0.1c0,0,0,0.1,0,0.1c0,0,0,0,0,0.1c0,0,0,0,0,0.1
					c0,0,0,0,0.1,0.1c0,0,0,0,0.1,0c0,0,0,0,0.1,0c0,0,0,0,0.1,0l0.1,0l0.1,0h0.1h0.1l0.1,0c0,0,0.1,0,0.1,0c0,0,0,0,0.1,0
					c0,0,0,0,0.1,0c0,0,0,0,0.1-0.1c0,0,0,0,0.1-0.1s0,0,0-0.1c0,0,0,0,0-0.1s0-0.1,0-0.1l0-0.1v-0.1v-0.1l0-0.1c0,0,0-0.1,0-0.1
					s0,0,0-0.1c0,0,0,0,0-0.1c0,0,0,0-0.1-0.1c0,0,0,0-0.1-0.1c0,0,0,0-0.1,0c0,0,0,0-0.1,0c0,0-0.1,0-0.1,0L-19.3-14.4L-19.3-14.4z
					"/>
			</g>
		</g>
		<path id="Path_43236" class="st16" d="M-1.5-12v-2.7c0-0.2,0-0.3-0.1-0.3c-0.1-0.1-0.3-0.1-0.4-0.1v-0.1h2c0.4,0,0.9,0.1,1.3,0.2
			c0.3,0.2,0.4,0.5,0.4,0.8c0,0.3-0.2,0.7-0.5,0.8c-0.5,0.2-1,0.3-1.5,0.3h-0.2v1.2c0,0.1,0,0.2,0.1,0.3c0.1,0.1,0.3,0.1,0.5,0.1
			v0.1h-2.2v-0.1c0.2,0,0.3,0,0.4-0.1C-1.5-11.8-1.5-11.9-1.5-12L-1.5-12z M-0.5-13.4h0.1c0.3,0,0.5,0,0.7-0.2
			c0.2-0.2,0.2-0.5,0.2-0.7c0-0.2,0-0.5-0.2-0.6c-0.1-0.1-0.3-0.2-0.5-0.2c-0.1,0-0.2,0-0.3,0.1c-0.1,0.1-0.1,0.2-0.1,0.2L-0.5-13.4
			L-0.5-13.4z M3-14.1v1.8c0,0.1,0,0.3,0.1,0.4c0.1,0.1,0.2,0.1,0.3,0.1c0.1,0,0.2,0,0.3-0.1c0.1,0,0.1-0.1,0.2-0.2l0,0v-1.5
			c0-0.1,0-0.2-0.1-0.3c-0.1-0.1-0.2-0.1-0.3-0.1v-0.1h1.3v2c0,0.1,0,0.2,0.1,0.2c0.1,0.1,0.2,0.1,0.3,0.1l0,0v0.1
			c-0.2,0-0.4,0.1-0.6,0.1c-0.2,0-0.4,0.1-0.6,0.1l0,0v-0.4l0,0c-0.1,0.1-0.2,0.1-0.3,0.2c-0.2,0.1-0.4,0.2-0.6,0.2
			c-0.2,0-0.5,0-0.6-0.2c-0.2-0.2-0.2-0.4-0.2-0.6v-1.3c0-0.1,0-0.2-0.1-0.3c-0.1-0.1-0.2-0.1-0.2-0.1v-0.1L3-14.1L3-14.1z M5.7-12
			v-1.5c0-0.1,0-0.2-0.1-0.3c0-0.1-0.1-0.1-0.3-0.1v-0.1h1.2v0.4l0,0c0.1-0.1,0.2-0.2,0.3-0.3c0.2-0.1,0.4-0.2,0.7-0.2
			c0.2,0,0.4,0.1,0.6,0.2c0.2,0.1,0.2,0.3,0.2,0.6v1.3c0,0.1,0,0.2,0.1,0.3c0.1,0.1,0.2,0.1,0.3,0.1v0.1H7.2v-0.1
			c0.1,0,0.2,0,0.3-0.1c0.1-0.1,0.1-0.2,0.1-0.3v-1.2c0-0.2,0-0.3-0.1-0.4c-0.1-0.1-0.2-0.1-0.3-0.1c-0.1,0-0.2,0-0.3,0.1
			c-0.1,0.1-0.1,0.1-0.2,0.2l0,0v1.4c0,0.1,0,0.2,0.1,0.3c0,0.1,0.1,0.1,0.3,0.1v0.1H5.4v-0.1c0.1,0,0.2,0,0.3-0.1
			C5.7-11.8,5.8-11.9,5.7-12L5.7-12z M9.6-13.6v2.7c0,0.1,0,0.2-0.1,0.3c-0.1,0.1-0.1,0.1-0.2,0.1c-0.1,0-0.2,0-0.2-0.1
			c0,0,0-0.1,0.1-0.2c0.1-0.1,0.1-0.2,0.1-0.3c-0.1-0.1-0.2-0.2-0.3-0.2c-0.1,0-0.2,0-0.3,0.1c-0.1,0.1-0.1,0.1-0.1,0.2
			c0,0.2,0.1,0.3,0.2,0.4c0.2,0.1,0.4,0.2,0.6,0.2c0.3,0,0.7-0.1,0.9-0.3c0.2-0.3,0.3-0.6,0.3-1v-2.5H9.2v0.1c0.2,0,0.3,0,0.3,0.1
			C9.5-13.8,9.6-13.7,9.6-13.6L9.6-13.6z M10-15.4c0.1,0,0.2,0,0.3,0.1c0.1,0.1,0.2,0.2,0.2,0.3c0,0.1-0.1,0.2-0.2,0.3
			c-0.2,0.2-0.5,0.2-0.7,0c-0.1-0.1-0.2-0.2-0.2-0.3c0-0.1,0.1-0.2,0.2-0.3C9.8-15.3,9.9-15.4,10-15.4L10-15.4z M11.8-11.4
			c-0.2,0-0.4,0-0.5-0.2c-0.1-0.1-0.2-0.3-0.2-0.4c0-0.2,0.1-0.4,0.3-0.5c0.3-0.2,0.5-0.3,0.8-0.4l0.6-0.2l0,0v-0.4
			c0-0.1,0-0.3-0.1-0.4C12.5-14,12.4-14,12.2-14c-0.1,0-0.2,0-0.3,0.1c-0.1,0.1-0.1,0.1,0,0.2c0.1,0.1,0.2,0.3,0.1,0.4
			c-0.1,0.1-0.2,0.2-0.4,0.2c-0.1,0-0.2,0-0.3-0.1c-0.1-0.1-0.1-0.2-0.1-0.3c0-0.2,0.1-0.4,0.3-0.5c0.3-0.1,0.5-0.2,0.8-0.2
			c0.3,0,0.7,0.1,1,0.2c0.2,0.1,0.3,0.4,0.3,0.6v1.4c0,0,0,0.1,0,0.1c0,0,0.1,0.1,0.1,0.1c0,0,0.1,0,0.1,0l0.1-0.1l0.1,0.1
			c-0.1,0.1-0.2,0.2-0.3,0.2c-0.1,0.1-0.2,0.1-0.4,0.1c-0.2,0-0.3,0-0.4-0.2c-0.1-0.1-0.1-0.1-0.1-0.2l0,0c-0.1,0.1-0.2,0.2-0.3,0.2
			C12.2-11.4,12-11.4,11.8-11.4L11.8-11.4z M12.8-12v-0.8l0,0l-0.1,0c-0.2,0-0.4,0.1-0.5,0.3c-0.1,0.1-0.2,0.2-0.2,0.4
			c0,0.1,0,0.2,0.1,0.3c0.1,0.1,0.2,0.1,0.2,0.1c0.1,0,0.2,0,0.3-0.1C12.6-11.9,12.7-12,12.8-12L12.8-12z M14.6-14.7
			c0-0.1,0-0.2-0.1-0.3c-0.1-0.1-0.2-0.1-0.3-0.1v-0.1h1.2v1.5l0,0c0.2-0.2,0.5-0.3,0.8-0.3c0.3,0,0.6,0.1,0.9,0.4
			c0.2,0.3,0.3,0.6,0.3,0.9c0,0.4-0.1,0.8-0.4,1.1c-0.3,0.3-0.7,0.4-1.1,0.4c-0.3,0-0.6-0.1-0.8-0.3l-0.1-0.1l0,0l-0.5,0.3h-0.1
			L14.6-14.7L14.6-14.7z M15.9-11.6c0.2,0,0.4-0.1,0.5-0.3c0.1-0.3,0.1-0.6,0.1-0.9c0-0.3,0-0.6-0.1-0.8c-0.1-0.2-0.3-0.2-0.5-0.2
			c-0.2,0-0.4,0.1-0.4,0.3l0,0v1.5c0,0.1,0,0.2,0.1,0.2c0,0.1,0.1,0.1,0.1,0.2C15.7-11.6,15.8-11.6,15.9-11.6z M20.6-14.5
			c0-0.3,0.1-0.5,0.3-0.6c0.3-0.2,0.6-0.3,0.9-0.3c0.3,0,0.6,0.1,0.8,0.2c0.2,0.1,0.3,0.3,0.3,0.5c0,0.2-0.1,0.4-0.4,0.6
			c-0.2,0.1-0.4,0.2-0.6,0.2l0.6,0.8l0.4,0.5c0.1-0.1,0.2-0.2,0.3-0.3c0.1-0.1,0.1-0.1,0.1-0.2c0.1-0.1,0.1-0.3,0.1-0.4
			c-0.1-0.1-0.2-0.1-0.4-0.1v-0.2h1.3v0.2c-0.1,0-0.3,0-0.4,0.1c-0.1,0.1-0.2,0.2-0.3,0.3c-0.1,0.1-0.2,0.3-0.3,0.4
			c-0.1,0.2-0.2,0.3-0.3,0.4l0.2,0.2c0.1,0.1,0.2,0.2,0.3,0.3c0.1,0.1,0.2,0.1,0.3,0.1c0.1,0,0.1,0,0.2-0.1c0.1,0,0.1-0.1,0.2-0.2
			l0.1,0.1c-0.1,0.2-0.3,0.4-0.4,0.6c-0.2,0.1-0.4,0.2-0.6,0.2c-0.1,0-0.3,0-0.4-0.1c-0.1-0.1-0.3-0.2-0.4-0.3l-0.1-0.1
			c-0.2,0.1-0.4,0.2-0.6,0.3c-0.3,0.1-0.6,0.2-0.9,0.2c-0.3,0-0.6-0.1-0.9-0.3c-0.2-0.2-0.3-0.4-0.3-0.7c0-0.3,0.2-0.6,0.4-0.8
			c0.3-0.2,0.6-0.4,0.9-0.5c-0.1-0.1-0.1-0.2-0.2-0.3C20.6-14.2,20.6-14.3,20.6-14.5L20.6-14.5z M21.6-11.8c0.1,0,0.3-0.1,0.4-0.1
			l0.2-0.1l-0.4-0.5c-0.2-0.2-0.4-0.5-0.6-0.8L21-13.5c-0.1,0-0.2,0.1-0.3,0.2c-0.1,0.1-0.2,0.2-0.2,0.4c0,0.3,0.1,0.6,0.3,0.8
			C21-11.9,21.3-11.8,21.6-11.8L21.6-11.8z M21.3-14.8c0,0.1,0.1,0.3,0.1,0.4c0.1,0.2,0.2,0.3,0.3,0.4c0.1,0,0.1-0.1,0.2-0.1
			c0.1-0.1,0.2-0.2,0.3-0.3c0-0.2-0.1-0.4-0.2-0.5c-0.1-0.1-0.2-0.2-0.4-0.2c-0.1,0-0.2,0-0.3,0.1C21.3-15,21.3-14.9,21.3-14.8
			L21.3-14.8z M29.1-14.2c-0.1-0.3-0.3-0.6-0.5-0.8c-0.2-0.2-0.5-0.3-0.7-0.3c-0.2,0-0.4,0-0.5,0.2c-0.1,0.1-0.2,0.2-0.2,0.4
			c0,0.2,0.1,0.3,0.2,0.4c0.2,0.2,0.5,0.3,0.7,0.4c0.4,0.1,0.7,0.3,1.1,0.6c0.2,0.2,0.3,0.4,0.3,0.7c0,0.4-0.2,0.7-0.4,0.9
			c-0.3,0.2-0.7,0.4-1.1,0.3c-0.3,0-0.6-0.1-0.9-0.2c-0.1,0-0.1,0-0.2,0c-0.1,0-0.1,0.1-0.1,0.2v0.1h-0.2v-1.4h0.2
			c0.1,0.3,0.2,0.6,0.5,0.9c0.2,0.2,0.5,0.3,0.8,0.3c0.2,0,0.4,0,0.6-0.2c0.1-0.1,0.2-0.3,0.2-0.5c0-0.2-0.1-0.3-0.2-0.4
			c-0.2-0.2-0.5-0.3-0.8-0.4c-0.3-0.1-0.7-0.3-1-0.6c-0.2-0.2-0.3-0.4-0.3-0.7c0-0.3,0.1-0.6,0.4-0.8c0.3-0.2,0.7-0.3,1-0.3
			c0.3,0,0.5,0.1,0.8,0.2c0.1,0,0.2,0.1,0.3,0.1c0.1,0,0.1-0.1,0.1-0.2l0-0.1h0.2v1.2L29.1-14.2L29.1-14.2z M30.1-12v-1.5
			c0-0.1,0-0.2-0.1-0.3c0-0.1-0.1-0.1-0.3-0.1v-0.1H31v2c0,0.1,0,0.2,0.1,0.3c0,0.1,0.1,0.1,0.3,0.1v0.1h-1.6v-0.1
			c0.1,0,0.2,0,0.3-0.1C30.1-11.8,30.1-11.9,30.1-12L30.1-12z M30.6-15.4c0.2,0,0.4,0.1,0.5,0.3c0,0,0,0.1,0,0.1
			c0,0.1,0,0.2-0.1,0.3c-0.1,0.1-0.2,0.1-0.4,0.1c-0.1,0-0.2-0.1-0.3-0.1c-0.1-0.1-0.1-0.2-0.1-0.3c0-0.1,0-0.2,0.1-0.3
			C30.3-15.3,30.4-15.4,30.6-15.4L30.6-15.4z M31.9-12v-1.5c0-0.1,0-0.2-0.1-0.3c0-0.1-0.1-0.1-0.3-0.1v-0.1h1.2v0.4l0,0
			c0.1-0.1,0.2-0.2,0.3-0.3c0.2-0.1,0.4-0.2,0.7-0.2c0.2,0,0.4,0.1,0.6,0.2c0.2,0.1,0.2,0.3,0.2,0.6v1.3c0,0.1,0,0.2,0.1,0.3
			c0,0.1,0.1,0.1,0.2,0.1v0.1h-1.5v-0.1c0.1,0,0.2,0,0.3-0.1c0.1-0.1,0.1-0.2,0.1-0.3v-1.2c0-0.2,0-0.3-0.1-0.4
			c-0.1-0.1-0.2-0.1-0.3-0.1c-0.1,0-0.2,0-0.3,0.1c-0.1,0.1-0.1,0.1-0.2,0.2l0,0v1.4c0,0.1,0,0.2,0.1,0.3c0,0.1,0.1,0.1,0.3,0.1v0.1
			h-1.6v-0.1c0.1,0,0.2,0,0.3-0.1C31.9-11.8,31.9-11.9,31.9-12L31.9-12z M36.3-11.4c-0.3,0-0.6-0.1-0.8-0.4c-0.2-0.3-0.3-0.6-0.3-1
			c0-0.4,0.1-0.7,0.4-1c0.2-0.3,0.5-0.4,0.9-0.4c0.2,0,0.4,0.1,0.6,0.2c0.1,0,0.1,0.1,0.2,0.1l0,0v-0.9c0-0.1,0-0.2-0.1-0.3
			c-0.1-0.1-0.2-0.1-0.4-0.1v-0.1H38v3.3c0,0.1,0,0.2,0.1,0.2c0,0.1,0.1,0.1,0.3,0.1l0,0v0.1c-0.2,0-0.4,0.1-0.6,0.1
			c-0.2,0-0.4,0.1-0.6,0.1l0,0v-0.3l0,0c0,0.1-0.1,0.1-0.1,0.1C36.8-11.5,36.5-11.4,36.3-11.4L36.3-11.4z M36.7-13.8
			c-0.2,0-0.4,0.1-0.4,0.3c-0.1,0.3-0.2,0.5-0.1,0.8c0,0.3,0,0.5,0.1,0.8c0.1,0.2,0.2,0.3,0.4,0.3c0.2,0,0.3-0.1,0.4-0.2
			c0.1-0.1,0.1-0.1,0.1-0.2l0,0v-1.5l0,0c0-0.1-0.1-0.1-0.2-0.2C36.9-13.8,36.8-13.8,36.7-13.8L36.7-13.8z M40.8-12v-2.7
			c0-0.1,0-0.2-0.1-0.3c-0.1-0.1-0.3-0.1-0.4-0.1v-0.1h2c0.4,0,0.8,0,1.2,0.2c0.3,0.1,0.4,0.4,0.4,0.7c0,0.3-0.2,0.6-0.5,0.7
			c-0.2,0.1-0.4,0.2-0.6,0.2l0,0c0.3,0,0.5,0.1,0.7,0.2c0.3,0.1,0.5,0.4,0.5,0.7c0,0.3-0.2,0.6-0.5,0.8c-0.4,0.2-0.8,0.3-1.2,0.3
			h-2.1v-0.1c0.2,0,0.3,0,0.4-0.1C40.8-11.8,40.8-11.9,40.8-12L40.8-12z M41.8-14.8v1.3h0.1c0.2,0,0.5-0.1,0.7-0.2
			c0.1-0.2,0.2-0.4,0.2-0.6c0-0.2,0-0.4-0.2-0.6c-0.1-0.1-0.3-0.2-0.5-0.2c-0.1,0-0.2,0-0.3,0.1C41.8-15,41.8-14.9,41.8-14.8
			L41.8-14.8z M41.8-13.4v1.4c0,0.1,0,0.2,0.1,0.2c0.1,0.1,0.2,0.1,0.3,0.1h0c0.2,0,0.4,0,0.6-0.2c0.1-0.2,0.2-0.4,0.2-0.7
			c0-0.2-0.1-0.5-0.2-0.6c-0.2-0.2-0.5-0.2-0.8-0.2L41.8-13.4z M45.2-11.4c-0.2,0-0.4,0-0.5-0.2c-0.1-0.1-0.2-0.3-0.2-0.4
			c0-0.2,0.1-0.4,0.3-0.5c0.2-0.2,0.5-0.3,0.8-0.4l0.6-0.2l0,0v-0.4c0-0.1,0-0.3-0.1-0.4C46-13.9,45.9-14,45.7-14
			c-0.1,0-0.3,0-0.3,0.1c-0.1,0.1-0.1,0.1,0,0.2c0.1,0.1,0.2,0.3,0.1,0.4c-0.1,0.1-0.2,0.2-0.4,0.2c-0.1,0-0.2,0-0.3-0.1
			c-0.1-0.1-0.1-0.2-0.1-0.3c0-0.2,0.1-0.4,0.3-0.5c0.3-0.1,0.5-0.2,0.8-0.2c0.3,0,0.7,0.1,1,0.2c0.2,0.1,0.3,0.4,0.3,0.6v1.4
			c0,0,0,0.1,0.1,0.1c0,0,0.1,0.1,0.1,0.1c0,0,0.1,0,0.1,0c0,0,0.1,0,0.1-0.1l0.1,0.1c-0.1,0.1-0.2,0.2-0.3,0.2
			c-0.1,0.1-0.2,0.1-0.4,0.1c-0.2,0-0.3,0-0.4-0.2c-0.1-0.1-0.1-0.1-0.1-0.2l0,0c-0.1,0.1-0.2,0.2-0.4,0.2
			C45.7-11.4,45.5-11.4,45.2-11.4L45.2-11.4z M46.2-12v-0.8l0,0l-0.1,0c-0.2,0-0.4,0.1-0.5,0.3c-0.1,0.1-0.2,0.2-0.2,0.4
			c0,0.1,0,0.2,0.1,0.3c0.1,0,0.2,0.1,0.2,0.1c0.1,0,0.2,0,0.3-0.1C46.1-11.9,46.2-12,46.2-12L46.2-12z M48-12v-1.5
			c0-0.1,0-0.2-0.1-0.3c-0.1-0.1-0.2-0.1-0.3-0.1v-0.1h1.2v0.4l0,0c0.1-0.1,0.2-0.2,0.3-0.3c0.2-0.1,0.4-0.2,0.7-0.2
			c0.2,0,0.4,0.1,0.6,0.2c0.2,0.1,0.3,0.3,0.3,0.6v1.3c0,0.2,0,0.3,0.1,0.3c0,0.1,0.1,0.1,0.2,0.1v0.1h-1.5v-0.1
			c0.1,0,0.2,0,0.3-0.1c0-0.1,0.1-0.2,0.1-0.3v-1.2c0-0.2,0-0.3-0.1-0.4c-0.1-0.1-0.1-0.1-0.3-0.1c-0.1,0-0.2,0-0.3,0.1
			c-0.1,0.1-0.1,0.1-0.2,0.2l0,0v1.4c0,0.2,0,0.3,0.1,0.3c0.1,0.1,0.2,0.1,0.3,0.1v0.1h-1.6v-0.1c0.1,0,0.2,0,0.3-0.1
			C48-11.8,48-11.9,48-12L48-12z M51.5-12v-2.7c0-0.1,0-0.2-0.1-0.3c0-0.1-0.1-0.1-0.2-0.1v-0.1h1.2v2.4l0,0l0.5-0.4
			c0.3-0.3,0.4-0.4,0.5-0.5c0-0.1-0.1-0.1-0.4-0.1v-0.1h1.4v0.1c-0.1,0-0.3,0-0.4,0.1c-0.2,0.1-0.3,0.2-0.5,0.3l-0.3,0.3l0,0l1,1.2
			c0.1,0.1,0.2,0.2,0.3,0.3c0.1,0,0.1,0.1,0.2,0.1v0.1h-1.5v-0.1c0.2,0,0.2,0,0.2-0.1c0-0.1-0.1-0.2-0.2-0.3l-0.6-0.7l0,0l-0.1,0.1
			l0,0v0.6c0,0.1,0,0.2,0.1,0.3c0.1,0.1,0.2,0.1,0.3,0.1v0.1h-1.5v-0.1c0.1,0,0.2,0,0.2-0.1C51.5-11.8,51.5-11.9,51.5-12L51.5-12z"
			/>
		<path id="Path_43237" class="st16" d="M10-6.6H9.7C9.6-6.7,9.5-6.9,9.5-7.1C9.4-7.3,9.4-7.5,9.4-7.7c0-0.2,0-0.4,0.1-0.6
			c0.1-0.2,0.2-0.4,0.3-0.5H10C9.9-8.6,9.8-8.4,9.8-8.2C9.7-8,9.7-7.9,9.7-7.7c0,0.1,0,0.3,0.1,0.4l0.1,0.4C9.9-6.8,9.9-6.7,10-6.6
			L10-6.6z M11.8-7.1h-0.4l-0.2-0.4h-0.7l-0.1,0.4H10l0.7-1.7h0.4L11.8-7.1L11.8-7.1z M11.1-7.7l-0.2-0.6l-0.2,0.6H11.1z M13.4-7.7
			V-8h0.7v0.7c-0.1,0.1-0.2,0.2-0.3,0.2C13.7-7.1,13.6-7,13.4-7c-0.2,0-0.3,0-0.4-0.1c-0.1-0.1-0.2-0.2-0.3-0.3
			c-0.1-0.1-0.1-0.3-0.1-0.4c0-0.2,0-0.3,0.1-0.5c0.1-0.1,0.2-0.3,0.3-0.3c0.3-0.1,0.6-0.1,0.9,0.1c0.1,0.1,0.2,0.2,0.2,0.4
			l-0.3,0.1c0-0.1-0.1-0.2-0.1-0.2c-0.1-0.1-0.2-0.1-0.2-0.1c-0.1,0-0.3,0-0.4,0.2C13-8.3,12.9-8.1,12.9-8c0,0.2,0,0.3,0.1,0.5
			c0.1,0.1,0.2,0.1,0.4,0.1c0.1,0,0.1,0,0.2,0c0.1,0,0.1-0.1,0.2-0.1v-0.2L13.4-7.7z M14.4-7.7c0-0.1,0-0.2,0.1-0.3
			c0.1-0.1,0.1-0.2,0.2-0.2c0.1-0.1,0.2-0.1,0.3-0.1c0.4,0,0.6,0.3,0.6,0.6c0,0,0,0,0,0c0,0.2-0.1,0.3-0.2,0.4
			C15.4-7.1,15.2-7,15.1-7c-0.1,0-0.2,0-0.3-0.1c-0.1-0.1-0.2-0.1-0.2-0.2C14.4-7.5,14.4-7.6,14.4-7.7L14.4-7.7z M14.8-7.7
			c0,0.1,0,0.2,0.1,0.3c0.1,0.1,0.2,0.1,0.2,0.1c0.1,0,0.2,0,0.2-0.1c0.1-0.2,0.1-0.4,0-0.6c-0.1-0.1-0.1-0.1-0.2-0.1
			c-0.1,0-0.2,0-0.2,0.1C14.8-7.9,14.7-7.8,14.8-7.7L14.8-7.7z M16.3-7.1l-0.5-1.2h0.3l0.2,0.6l0.1,0.2c0-0.1,0-0.1,0.1-0.1
			c0,0,0-0.1,0-0.1l0.2-0.6h0.3l-0.5,1.2H16.3z M17.9-8.3v0.3h-0.2v0.5c0,0.1,0,0.1,0,0.2c0,0,0,0,0,0.1h0.1c0,0,0.1,0,0.1,0l0,0.3
			C17.8-7,17.7-7,17.6-7c-0.1,0-0.1,0-0.2-0.1c-0.1,0-0.1,0-0.1-0.1c0,0,0-0.1-0.1-0.1v-0.8h-0.2v-0.3h0.2v-0.2l0.3-0.2v0.4
			L17.9-8.3z M18.1-7.1v-0.3h0.3v0.3H18.1z M19.3-7.7c0-0.1,0-0.2,0.1-0.3c0.1-0.1,0.1-0.2,0.2-0.2c0.1-0.1,0.2-0.1,0.3-0.1
			c0.3,0,0.6,0.3,0.6,0.6c0,0,0,0,0,0c0,0.2-0.1,0.3-0.2,0.4C20.3-7.1,20.2-7,20-7c-0.1,0-0.2,0-0.3-0.1c-0.1-0.1-0.2-0.1-0.2-0.2
			C19.4-7.5,19.3-7.6,19.3-7.7L19.3-7.7z M19.7-7.7c0,0.1,0,0.2,0.1,0.3c0.1,0.1,0.2,0.1,0.2,0.1c0.1,0,0.2,0,0.2-0.1
			c0.1-0.2,0.1-0.4,0-0.6C20.2-8,20.1-8.1,20-8.1c-0.1,0-0.2,0-0.2,0.1C19.7-7.9,19.7-7.8,19.7-7.7L19.7-7.7z M20.7-8.3h0.2v-0.1
			c0-0.1,0-0.2,0-0.2c0-0.1,0.1-0.1,0.1-0.1c0.1,0,0.2-0.1,0.2-0.1c0.1,0,0.2,0,0.3,0.1l-0.1,0.2c0,0-0.1,0-0.1,0
			c-0.1,0-0.1,0-0.1,0c0,0,0,0.1,0,0.1v0.1h0.2v0.3h-0.2v1h-0.3v-1h-0.2L20.7-8.3L20.7-8.3z M22.4-7.1v-1.7h0.3v1.7H22.4z M24.2-7.1
			h-0.3v-0.6c0-0.1,0-0.2,0-0.2c0,0,0-0.1-0.1-0.1c0,0-0.1,0-0.1,0c-0.1,0-0.1,0-0.2,0.1c0,0-0.1,0.1-0.1,0.1c0,0.1,0,0.2,0,0.3v0.6
			H23v-1.2h0.3v0.2c0.1-0.1,0.3-0.2,0.4-0.2c0.1,0,0.1,0,0.2,0.1c0.1,0,0.1,0.1,0.1,0.1c0,0,0.1,0.1,0.1,0.1L24.2-7.1L24.2-7.1z
			 M25.6-7.1h-0.3v-0.2c-0.1,0.1-0.1,0.1-0.2,0.2c-0.1,0-0.1,0-0.2,0.1c-0.1,0-0.3-0.1-0.4-0.2c-0.1-0.1-0.2-0.3-0.2-0.5
			c0-0.2,0-0.4,0.2-0.5c0.1-0.1,0.2-0.2,0.4-0.2c0.1,0,0.3,0.1,0.4,0.2v-0.6h0.3V-7.1L25.6-7.1z M24.8-7.7c0,0.1,0,0.2,0.1,0.3
			c0.1,0.1,0.1,0.1,0.2,0.1c0.1,0,0.1-0.1,0.2-0.1c0.1-0.1,0.1-0.2,0.1-0.3c0-0.1,0-0.2-0.1-0.3c-0.1-0.1-0.1-0.1-0.2-0.1
			c-0.1,0-0.1,0-0.2,0.1C24.8-7.9,24.8-7.8,24.8-7.7L24.8-7.7z M26-8.5v-0.3h0.3v0.3H26z M26-7.1v-1.2h0.3v1.2H26z M26.9-7.9L26.6-8
			c0-0.1,0.1-0.2,0.2-0.3c0.1-0.1,0.2-0.1,0.4-0.1c0.1,0,0.2,0,0.3,0.1c0.2,0.1,0.3,0.3,0.2,0.4v0.4c0,0.1,0,0.2,0,0.2
			c0,0.1,0,0.1,0.1,0.2h-0.3c0,0,0-0.1-0.1-0.1v-0.1c-0.1,0.1-0.1,0.1-0.2,0.1C27.1-7.1,27-7,27-7c-0.1,0-0.2,0-0.3-0.1
			c-0.1-0.1-0.1-0.2-0.1-0.3c0-0.1,0-0.1,0.1-0.2c0,0,0.1-0.1,0.1-0.1c0.1,0,0.2-0.1,0.3-0.1c0.1,0,0.2,0,0.3-0.1v-0.1
			c0,0,0-0.1-0.1-0.1c0,0-0.1,0-0.2,0c0,0-0.1,0-0.1,0C26.9-8,26.9-8,26.9-7.9L26.9-7.9z M27.3-7.7c-0.1,0-0.1,0-0.2,0.1
			c-0.1,0-0.1,0-0.2,0.1c0,0-0.1,0.1-0.1,0.1c0,0.1,0.1,0.2,0.2,0.2c0,0,0,0,0,0c0.1,0,0.1,0,0.2-0.1c0.1-0.1,0.1-0.1,0.1-0.1
			C27.3-7.5,27.3-7.5,27.3-7.7L27.3-7.7L27.3-7.7z M28.6-8.8H29v1.2c0,0.1,0.1,0.1,0.1,0.2c0.1,0,0.2,0.1,0.2,0.1
			c0.1,0,0.2,0,0.2-0.1c0,0,0.1-0.1,0.1-0.2c0-0.1,0-0.2,0-0.3v-1H30v0.9c0,0.2,0,0.3,0,0.4c0,0.1-0.1,0.2-0.1,0.2
			c-0.1,0.1-0.1,0.1-0.2,0.2C29.6-7,29.4-7,29.3-7c-0.1,0-0.3,0-0.4-0.1c-0.1,0-0.1-0.1-0.2-0.1c0-0.1-0.1-0.1-0.1-0.2
			c0-0.1,0-0.3,0-0.4L28.6-8.8L28.6-8.8z M31.5-7.1h-0.3v-0.6c0-0.1,0-0.2,0-0.2c0-0.1,0-0.1-0.1-0.1c0,0-0.1,0-0.1,0
			c-0.1,0-0.1,0-0.2,0.1c0,0-0.1,0.1-0.1,0.1c0,0.1,0,0.2,0,0.3v0.6h-0.3v-1.2h0.3v0.2c0.1-0.2,0.4-0.3,0.6-0.2
			c0.1,0,0.1,0.1,0.1,0.1c0,0,0.1,0.1,0.1,0.1L31.5-7.1L31.5-7.1z M33-7.1h-0.3v-0.2c-0.1,0.1-0.1,0.1-0.2,0.2c-0.1,0-0.1,0-0.2,0.1
			c-0.1,0-0.3-0.1-0.4-0.2c-0.1-0.1-0.2-0.3-0.2-0.5c0-0.2,0-0.4,0.2-0.5c0.1-0.1,0.2-0.2,0.4-0.2c0.1,0,0.3,0.1,0.4,0.2v-0.6H33
			V-7.1L33-7.1z M32.1-7.7c0,0.1,0,0.2,0.1,0.3c0,0.1,0.1,0.1,0.2,0.1c0.1,0,0.2,0,0.2-0.1c0.1-0.1,0.1-0.2,0.1-0.3
			c0-0.1,0-0.2-0.1-0.3c-0.1-0.1-0.1-0.1-0.2-0.1c-0.1,0-0.1,0-0.2,0.1C32.1-7.9,32.1-7.8,32.1-7.7L32.1-7.7z M34-7.5l0.3,0.1
			c0,0.1-0.1,0.2-0.2,0.3C34.1-7.1,33.9-7,33.8-7c-0.2,0-0.4-0.1-0.5-0.2c-0.1-0.1-0.1-0.3-0.1-0.4c0-0.2,0-0.3,0.2-0.5
			c0.1-0.1,0.3-0.2,0.4-0.2c0.2,0,0.3,0.1,0.4,0.2c0.1,0.2,0.2,0.4,0.2,0.6h-0.8c0,0.1,0,0.2,0.1,0.2c0,0.1,0.1,0.1,0.2,0.1
			c0,0,0.1,0,0.1,0C34-7.4,34-7.4,34-7.5L34-7.5z M34.1-7.8C34-7.9,34-8,34-8c0-0.1-0.1-0.1-0.2-0.1c-0.1,0-0.1,0-0.2,0.1
			c-0.1,0.1-0.1,0.1-0.1,0.2H34.1z M35-7.1h-0.3v-1.2h0.3v0.2c0-0.1,0.1-0.1,0.2-0.2c0,0,0.1-0.1,0.1-0.1c0.1,0,0.2,0,0.2,0.1
			L35.3-8c0,0-0.1,0-0.2-0.1c0,0-0.1,0-0.1,0.1C35-8,35-7.9,35-7.9c0,0.1,0,0.3,0,0.4L35-7.1L35-7.1z M36.1-8.3h-0.2v-0.4l-0.3,0.2
			v0.2h-0.2v0.3h0.2v0.8c0,0.1,0,0.1,0.1,0.1c0,0.1,0.1,0.1,0.1,0.1c0,0,0.1,0,0.2,0.1c0.1,0,0.2,0,0.3-0.1l0-0.3c0,0-0.1,0-0.1,0
			H36c0,0,0,0,0-0.1v-0.7h0.2L36.1-8.3L36.1-8.3z M36.6-7.9L36.3-8c0-0.1,0.1-0.2,0.2-0.3c0.1-0.1,0.2-0.1,0.4-0.1
			c0.1,0,0.2,0,0.3,0.1c0.1,0.1,0.1,0.1,0.1,0.1c0.1,0.1,0.1,0.2,0.1,0.3v0.4c0,0.1,0,0.2,0,0.2c0,0.1,0,0.1,0.1,0.2h-0.3
			c0,0,0-0.1,0-0.1v-0.1C37-7.2,37-7.1,36.9-7.1c-0.1,0-0.1,0.1-0.2,0.1c-0.1,0-0.2,0-0.3-0.1c-0.1-0.1-0.1-0.2-0.1-0.3
			c0-0.1,0-0.1,0-0.2c0-0.1,0.1-0.1,0.2-0.1c0.1,0,0.2-0.1,0.3-0.1c0.1,0,0.2,0,0.3-0.1v-0.1c0,0,0-0.1-0.1-0.1c0,0-0.1,0-0.2,0
			c0,0-0.1,0-0.1,0C36.7-8,36.6-8,36.6-7.9L36.6-7.9z M37.1-7.7c-0.1,0-0.1,0-0.2,0.1c-0.1,0-0.1,0-0.2,0.1c0,0,0,0.1-0.1,0.1
			c0,0.1,0.1,0.2,0.2,0.2c0,0,0,0,0,0c0.1,0,0.1,0,0.2-0.1C37-7.4,37-7.4,37-7.5C37.1-7.5,37.1-7.5,37.1-7.7L37.1-7.7L37.1-7.7z
			 M37.7-7.1v-1.7H38v0.9l0.4-0.4h0.4l-0.4,0.5l0.5,0.8h-0.4l-0.3-0.6L38-7.5v0.4L37.7-7.1z M39-8.5v-0.3h0.3v0.3H39z M39-7.1v-1.2
			h0.3v1.2H39z M40.8-7.1h-0.3v-0.6c0-0.1,0-0.2,0-0.2c0,0,0-0.1-0.1-0.1c0,0-0.1,0-0.1,0c-0.1,0-0.1,0-0.2,0.1
			c-0.1,0-0.1,0.1-0.1,0.1c0,0.1,0,0.2,0,0.3v0.6h-0.3v-1.2H40v0.2c0.1-0.2,0.4-0.3,0.6-0.2c0.1,0,0.1,0.1,0.1,0.1
			c0,0,0.1,0.1,0.1,0.1c0,0.1,0,0.1,0,0.2L40.8-7.1L40.8-7.1z M41.2-7l0.4,0c0,0,0,0.1,0.1,0.1c0,0,0.1,0,0.1,0c0.1,0,0.2,0,0.2,0
			c0.1,0,0.1-0.1,0.1-0.1c0,0,0-0.1,0-0.1v-0.2c-0.1,0.1-0.2,0.2-0.4,0.2c-0.2,0-0.3-0.1-0.4-0.2c-0.1-0.1-0.1-0.3-0.1-0.4
			c0-0.2,0-0.4,0.2-0.5c0.1-0.1,0.2-0.2,0.4-0.2c0.2,0,0.3,0.1,0.4,0.2v-0.2h0.3v1.1c0,0.1,0,0.2,0,0.3c0,0.1-0.1,0.1-0.1,0.2
			c-0.1,0-0.1,0.1-0.2,0.1c-0.1,0-0.2,0.1-0.3,0.1c-0.2,0-0.3,0-0.4-0.1C41.2-6.7,41.1-6.8,41.2-7L41.2-7L41.2-7z M41.4-7.7
			c0,0.1,0,0.2,0.1,0.3c0,0.1,0.1,0.1,0.2,0.1c0.1,0,0.2,0,0.2-0.1C42-7.6,42-7.8,41.9-8c-0.1-0.1-0.1-0.1-0.2-0.1
			c-0.1,0-0.1,0-0.2,0.1C41.5-7.9,41.4-7.8,41.4-7.7L41.4-7.7z M42.6-6.6c0.1-0.2,0.1-0.3,0.1-0.3c0-0.1,0.1-0.2,0.1-0.2
			c0-0.1,0-0.2,0.1-0.3v-0.3c0-0.2,0-0.4-0.1-0.5c0-0.2-0.1-0.4-0.2-0.6h0.2c0.1,0.2,0.2,0.3,0.3,0.5c0.1,0.2,0.1,0.4,0.1,0.6
			c0,0.2,0,0.4-0.1,0.5C43-7,42.9-6.7,42.8-6.6L42.6-6.6z"/>
		<g id="Group_39899" transform="translate(47.055 0.921)">
			<path id="Path_19449" class="st16" d="M-33.5-20.6c0-0.1,0-0.1-0.1-0.2c0-0.1-0.1-0.1-0.1-0.2c-0.1,0-0.1-0.1-0.2-0.1
				c-0.1,0-0.2,0-0.2,0c-0.1,0-0.1,0-0.2,0c-0.1,0-0.1,0-0.2,0.1c0,0-0.1,0.1-0.1,0.1c0,0.1,0,0.1,0,0.2c0,0.1,0,0.1,0,0.2
				c0,0,0.1,0.1,0.1,0.1c0,0,0.1,0.1,0.1,0.1c0.1,0,0.1,0,0.2,0.1c0.1,0,0.1,0,0.2,0c0,0,0.1,0,0.1,0c0,0,0.1,0,0.1,0
				c0,0,0.1,0,0.1,0c0,0,0,0,0,0.1c0,0,0,0.1,0,0.1s0,0.1,0,0.1c0,0,0,0.1,0,0.1c0,0.1,0,0.1,0,0.2c0,0,0,0.1,0.1,0.1
				c0,0,0.1,0.1,0.1,0.1c0,0,0.1,0,0.1,0c0,0,0.1,0,0.1,0c0,0,0,0,0.1,0c0,0,0,0,0-0.1c0,0,0,0,0-0.1c0,0,0,0,0,0l0,0c0,0,0,0,0,0
				c0,0,0,0,0-0.1c0,0,0-0.1,0-0.1c0-0.1,0-0.1,0-0.2s0-0.1,0-0.2c0-0.1,0-0.1,0-0.2C-33.5-20.5-33.5-20.6-33.5-20.6L-33.5-20.6z
				 M-32.8-20.9h1c0,0.1,0,0.1,0,0.2c0,0.1,0,0.1-0.1,0.1c0,0-0.1,0.1-0.1,0.1c-0.1,0-0.1,0-0.2,0h-0.6c0,0,0,0,0,0c0,0,0,0,0-0.1
				c0,0,0,0,0-0.1c0,0,0-0.1,0-0.1c0,0,0,0,0-0.1C-32.8-20.7-32.8-20.8-32.8-20.9C-32.8-20.8-32.8-20.9-32.8-20.9L-32.8-20.9z
				 M-32.6-20.2h0.3c0.1,0,0.1,0,0.2,0c0,0,0.1,0,0.1,0.1c0,0,0,0.1,0,0.1c0,0,0,0,0,0.1c0,0,0,0,0,0.1c0,0,0,0-0.1,0
				c0,0-0.1,0-0.1,0c-0.1,0-0.1,0-0.2,0c0,0-0.1,0-0.1-0.1c0,0-0.1-0.1-0.1-0.1C-32.6-20-32.6-20.1-32.6-20.2
				C-32.6-20.1-32.6-20.1-32.6-20.2L-32.6-20.2z M-33.8-20.7C-33.8-20.7-33.8-20.6-33.8-20.7c-0.1,0.1-0.1,0.1-0.2,0.1
				c0,0-0.1,0-0.1,0c0,0-0.1,0-0.1,0c0,0-0.1,0-0.1,0c0,0-0.1,0-0.1-0.1c0,0,0,0,0-0.1c0,0,0-0.1,0-0.1c0,0,0,0,0.1-0.1
				c0,0,0.1,0,0.1,0c0,0,0.1,0,0.1,0c0.1,0,0.1,0,0.2,0C-33.9-20.8-33.8-20.7-33.8-20.7L-33.8-20.7z M-31.8-21.3h0.4l0.1-0.2
				c0-0.1,0.1-0.1,0.1-0.2s0.1-0.2,0.2-0.2c0.1-0.1,0.1-0.2,0.2-0.2c0.1-0.1,0.2-0.1,0.2-0.2c0.1-0.1,0.2-0.1,0.3-0.1
				c0.1,0,0.2-0.1,0.3-0.1c0.1,0,0.1,0,0.2,0c0.1,0,0.1,0.1,0.1,0.1c0,0,0.1,0.1,0.1,0.1c0,0,0.1,0.1,0.1,0.1c0,0,0,0.1,0,0.1
				c0,0,0,0.1,0,0.1c0,0,0,0,0,0h0.3l0,0c0,0,0-0.1,0-0.1s0-0.1-0.1-0.2c0-0.1,0-0.1-0.1-0.2c0-0.1-0.1-0.1-0.1-0.2
				c0-0.1-0.1-0.1-0.1-0.2c-0.1,0-0.1-0.1-0.2-0.1c-0.1,0-0.2,0-0.2,0c-0.1,0-0.3,0-0.4,0.1c-0.1,0-0.2,0.1-0.3,0.1
				c-0.1,0.1-0.2,0.1-0.3,0.2c-0.1,0.1-0.2,0.2-0.2,0.3c-0.1,0.1-0.1,0.2-0.2,0.3c-0.1,0.1-0.1,0.2-0.2,0.3c0,0,0-0.1-0.1-0.1
				c0,0-0.1-0.1-0.1-0.1c0,0-0.1-0.1-0.1-0.1c0,0-0.1,0-0.1-0.1c-0.1,0-0.1,0-0.2,0c-0.1,0-0.2,0-0.3,0c-0.1,0-0.2,0.1-0.3,0.1
				c-0.1,0.1-0.2,0.1-0.2,0.2c-0.1,0.1-0.1,0.2-0.1,0.4h-0.3v0.3h0.2c0,0.2,0,0.3,0,0.5c0,0.1,0.1,0.3,0.1,0.4
				c0,0.1,0.1,0.2,0.2,0.3c0.1,0.1,0.2,0.1,0.2,0.2c0.1,0,0.2,0.1,0.3,0.1c0.1,0,0.1,0,0.2,0c0.1,0,0.1,0,0.1-0.1
				c0,0,0.1-0.1,0.1-0.1c0,0,0-0.1,0-0.1c0,0,0-0.1,0-0.1c0,0,0-0.1,0-0.1c0,0,0-0.1,0-0.1c0,0,0,0,0-0.1c0,0,0,0,0-0.1
				c0,0,0,0,0.1,0c0,0,0.1,0,0.1-0.1c0,0,0.1-0.1,0.1-0.1c0-0.1,0.1-0.1,0.1-0.2c0-0.1,0-0.2,0-0.2h0.3v-0.3h-1.5
				c0-0.1,0-0.1,0.1-0.2c0-0.1,0.1-0.1,0.1-0.2c0,0,0.1-0.1,0.1-0.1c0.1,0,0.1,0,0.2,0c0.1,0,0.1,0,0.2,0c0,0,0.1,0,0.1,0.1
				c0,0,0.1,0,0.1,0.1C-31.8-21.5-31.8-21.4-31.8-21.3C-31.8-21.4-31.8-21.4-31.8-21.3C-31.8-21.4-31.8-21.4-31.8-21.3L-31.8-21.3z
				 M-28.9-21.1v0.3h-0.3v1.4h-0.3v-0.7h-0.5c0,0.1,0,0.1,0,0.2c0,0.1,0,0.1,0,0.2c0,0,0,0.1,0,0.1c0,0,0,0.1-0.1,0.1
				c0,0-0.1,0-0.1,0c0,0-0.1,0-0.1,0c0,0,0,0-0.1-0.1c0,0,0,0,0-0.1c0,0,0,0,0,0c0,0,0,0,0-0.1l0-0.1c0,0,0-0.1,0.1-0.1
				c0,0,0-0.1,0-0.1c0-0.1,0-0.1,0-0.2c0-0.1,0-0.2-0.1-0.3c0,0,0-0.1,0-0.1c0,0,0,0,0-0.1l0,0h-0.1v-0.3L-28.9-21.1z M-29.5-20.9
				v0.4h-0.5v0c0,0,0,0,0-0.1c0,0,0,0,0-0.1c0,0,0-0.1,0-0.1c0,0,0,0,0-0.1c0,0,0-0.1,0-0.1c0,0,0,0,0-0.1l0,0L-29.5-20.9z
				 M-28.5-20.9v1.4h-0.3v-1.4H-29v-0.3h0.2v-0.2c0,0,0-0.1,0-0.1c0,0,0-0.1-0.1-0.1c0,0-0.1,0-0.1,0c0,0-0.1,0-0.1,0c0,0,0,0-0.1,0
				c0,0,0,0,0,0.1c0,0,0,0,0,0c0,0,0,0,0,0l-0.2-0.2c0,0,0,0,0,0c0,0,0,0,0-0.1c0.1-0.1,0.2-0.2,0.3-0.2c0.1,0,0.1,0,0.2,0
				c0,0,0.1,0,0.1,0c0,0,0.1,0,0.1,0c0,0,0.1,0.1,0.1,0.1c0,0,0.1,0.1,0.1,0.1c0,0,0,0.1,0,0.2v0.2h0.4v0.3L-28.5-20.9z M-29.5-19.7
				v0.1c0,0,0.1,0,0.1,0c0,0,0.1,0,0.1,0c0,0,0.1,0,0.1,0.1c0,0,0.1,0.1,0.1,0.1c0,0,0.1,0.1,0.1,0.1c0,0,0,0.1,0,0.1c0,0,0,0,0,0
				c0,0,0,0-0.1,0l-0.1-0.1c0,0-0.1-0.1-0.2-0.1c0,0,0,0-0.1,0c0,0,0,0-0.1,0c0,0,0,0-0.1,0h0c0,0,0,0,0,0c0,0,0,0,0,0
				c0,0,0,0-0.1,0c-0.1,0-0.1,0-0.2,0c0,0-0.1,0-0.1-0.1c0,0,0-0.1,0-0.1c0,0,0-0.1,0-0.1c0,0,0,0,0-0.1c0,0,0,0,0.1,0c0,0,0,0,0,0
				l0,0v-0.1L-29.5-19.7z M-27-20.7c-0.1,0-0.1,0-0.2,0c-0.1,0-0.1,0-0.2,0.1c0,0-0.1,0.1-0.1,0.1c0,0.1,0,0.1,0,0.2
				c0,0.1,0,0.1,0,0.2c0,0,0.1,0.1,0.1,0.1c0,0,0.1,0.1,0.1,0.1c0.1,0,0.1,0,0.2,0c0,0,0,0.1,0.1,0.1c0,0,0.1,0.1,0.1,0.1
				c0,0,0.1,0.1,0.1,0.1c0.1,0,0.1,0.1,0.2,0.1c0.1,0,0.1,0,0.2,0c0,0,0.1,0,0.1,0c0,0,0.1,0,0.1,0c0,0,0.1,0,0.1,0l0.1-0.3
				c0,0,0,0-0.1,0c0,0-0.1,0-0.1,0c0,0-0.1,0-0.1,0c0,0-0.1,0-0.1,0c0,0-0.1,0-0.1,0c0,0-0.1,0-0.1,0c0,0-0.1,0-0.1-0.1
				c0,0,0,0,0-0.1c0,0,0,0,0,0c0,0,0,0,0,0h0.6v-0.3h-0.9c0,0-0.1,0-0.1,0c0,0-0.1,0-0.1,0c0,0,0,0,0-0.1c0,0,0-0.1,0-0.1
				c0,0,0,0,0.1,0c0,0,0.1,0,0.1,0h1v-0.4h0.3v-0.3h-1.8v0.3h1.1v0.1L-27-20.7z M-25.7-20.9v-0.3h0.8v0.3h-0.4v0.7h-0.3v-0.7
				L-25.7-20.9z M-25.1-20.9L-25.1-20.9l0.1,1.4h0.3v-1.4h0.5v-0.3h-0.5v-0.1c0-0.1,0-0.1,0-0.2c0,0,0-0.1,0.1-0.1c0,0,0.1,0,0.1,0
				c0,0,0.1,0,0.1,0c0,0,0,0,0.1,0c0,0,0,0,0,0c0,0,0,0,0,0l0.2-0.1c0,0,0,0,0,0c0,0,0,0,0-0.1c0,0,0,0-0.1-0.1c0,0-0.1,0-0.1-0.1
				c0,0-0.1,0-0.1-0.1c-0.1,0-0.1,0-0.2,0c0,0-0.1,0-0.1,0c0,0-0.1,0-0.1,0c0,0-0.1,0.1-0.1,0.1c0,0-0.1,0.1-0.1,0.1
				c0,0,0,0.1,0,0.2v0.2h-0.1L-25.1-20.9L-25.1-20.9z M-22.9-21.1v0.3h-0.4v1c0,0.1,0,0.1,0,0.2c0,0,0,0.1-0.1,0.1
				c0,0-0.1,0-0.1,0.1c0,0-0.1,0-0.1,0c0,0-0.1,0-0.1,0c-0.1,0-0.1,0-0.2,0c-0.1,0-0.1-0.1-0.2-0.1c-0.1,0-0.1-0.1-0.2-0.2
				c0-0.1-0.1-0.1-0.1-0.2c0-0.1,0-0.2,0-0.2c0,0,0-0.1,0-0.1c0,0,0-0.1,0.1-0.1c0,0,0.1,0,0.1,0c0,0,0.1,0,0.1,0h0.3v0.3H-24
				c0,0,0,0-0.1,0c0,0,0,0,0,0c0,0.1,0,0.1,0,0.1c0,0,0.1,0.1,0.1,0.1c0,0,0.1,0.1,0.2,0.1c0.1,0,0.1,0,0.2,0c0,0,0,0,0,0
				c0,0,0,0,0-0.1v-1h-0.9v-0.3L-22.9-21.1z M-21.2-20.9h0.4v-0.3H-23v0.3h0.8v0.2h-0.6c0,0-0.1,0-0.1,0c0,0-0.1,0-0.1,0.1
				c0,0,0,0.1-0.1,0.1c0,0,0,0.1,0,0.1c0,0.1,0,0.2,0,0.2c0,0.1,0.1,0.2,0.1,0.2c0,0.1,0.1,0.1,0.1,0.2c0.1,0.1,0.1,0.1,0.2,0.1
				c0.1,0,0.1,0,0.2,0c0,0,0.1,0,0.1,0c0,0,0.1,0,0.1,0c0,0,0.1,0,0.1-0.1c0,0,0.1-0.1,0.1-0.1c0,0,0-0.1,0-0.1v-1h0.3v1.4h0.3
				L-21.2-20.9L-21.2-20.9z M-22.1-20.4v0.5c0,0,0,0,0,0c0,0,0,0,0,0c0,0,0,0-0.1,0c0,0-0.1,0-0.1,0c0,0-0.1,0-0.1-0.1
				c0,0-0.1-0.1-0.1-0.1c0,0,0-0.1-0.1-0.1c0,0,0-0.1,0-0.1c0,0,0,0,0,0c0,0,0,0,0-0.1c0,0,0,0,0,0c0,0,0.1,0,0.1,0L-22.1-20.4z
				 M-22.3-19.5v0.2c0,0,0.1,0,0.1,0c0,0,0.1,0,0.1,0c0,0,0.1,0,0.1,0c0,0,0.1,0,0.1,0s0.1,0,0.1,0c0,0,0.1,0,0.1,0c0,0,0.1,0,0.1,0
				c0,0,0.1,0,0.1,0v-0.2c0,0-0.1,0-0.1,0c0,0-0.1,0-0.1,0c0,0-0.1,0-0.1,0s-0.1,0-0.1,0s-0.1,0-0.1,0c0,0-0.1,0-0.1,0
				c0,0-0.1,0-0.1,0C-22.2-19.4-22.3-19.4-22.3-19.5L-22.3-19.5z M-20-20.9h-0.9v-0.3h1.5v0.3h-0.3v1c0,0.1,0,0.1,0,0.2
				c0,0,0,0.1-0.1,0.1c0,0-0.1,0-0.1,0.1c0,0-0.1,0-0.1,0c0,0-0.1,0-0.1,0c-0.1,0-0.1,0-0.2,0c-0.1,0-0.1-0.1-0.2-0.1
				c-0.1,0-0.1-0.1-0.2-0.2c0-0.1-0.1-0.1-0.1-0.2c0-0.1,0-0.2,0-0.2c0,0,0-0.1,0-0.1c0,0,0-0.1,0.1-0.1c0,0,0,0,0.1,0
				c0,0,0,0,0.1,0h0.6L-20-20.9L-20-20.9z M-20.5-20.3C-20.5-20.3-20.5-20.3-20.5-20.3C-20.6-20.3-20.6-20.3-20.5-20.3
				C-20.6-20.2-20.6-20.2-20.5-20.3c-0.1,0.1-0.1,0.2,0,0.2c0,0,0.1,0.1,0.1,0.1c0,0,0.1,0.1,0.2,0.1c0.1,0,0.1,0,0.2,0c0,0,0,0,0,0
				c0,0,0,0,0-0.1v-0.4L-20.5-20.3z M-21-19.5v0.2c0,0,0.1,0,0.1,0c0,0,0.1,0,0.1,0c0,0,0.1,0,0.1,0c0,0,0.1,0,0.1,0
				c0.1,0,0.1,0,0.1,0c0,0,0.1,0,0.1,0c0,0,0.1,0,0.1,0c0,0,0.1,0,0.1,0v-0.2c0,0-0.1,0-0.1,0c0,0-0.1,0-0.1,0c0,0-0.1,0-0.1,0
				c0,0-0.1,0-0.1,0c-0.1,0-0.1,0-0.1,0c0,0-0.1,0-0.1,0c0,0-0.1,0-0.1,0C-20.9-19.4-20.9-19.4-21-19.5L-21-19.5z M-21-19.1v0.2
				c0,0,0.1,0,0.1,0c0,0,0.1,0,0.1,0c0,0,0.1,0,0.1,0c0,0,0.1,0,0.1,0c0.1,0,0.1,0,0.1,0c0,0,0.1,0,0.1,0c0,0,0.1,0,0.1,0
				c0,0,0.1,0,0.1,0v-0.2c0,0-0.1,0-0.1,0c0,0-0.1,0-0.1,0c0,0-0.1,0-0.1,0c0,0-0.1,0-0.1,0c-0.1,0-0.1,0-0.1,0c0,0-0.1,0-0.1,0
				c0,0-0.1,0-0.1,0C-20.9-19.1-20.9-19.1-21-19.1L-21-19.1z M-18.7-20.9h1.1v0.5h-0.6v-0.3c0,0-0.1,0-0.1,0c0,0-0.1,0-0.1,0
				c0,0-0.1,0-0.1,0c0,0-0.1,0-0.1,0.1c0,0-0.1,0.1-0.1,0.1c0,0,0,0.1,0,0.1c0,0,0,0.1,0,0.1c0,0,0,0,0,0.1c0,0,0,0,0,0h0.2v0.6h0.3
				v-0.6h0.6v0.6h0.3v-1.4h0.3v-0.3h-1.7L-18.7-20.9L-18.7-20.9z M-16.6-20.9v1.4h-0.3v-1.4H-17v-0.3h0.2v-0.2c0,0,0-0.1,0-0.1
				c0,0,0-0.1-0.1-0.1c0,0-0.1,0-0.1,0c0,0-0.1,0-0.1,0c0,0,0,0-0.1,0c0,0,0,0,0,0.1c0,0,0,0,0,0c0,0,0,0,0,0l-0.2-0.2c0,0,0,0,0,0
				c0,0,0,0,0-0.1c0-0.1,0.1-0.1,0.2-0.1c0,0,0.1,0,0.1-0.1c0.1,0,0.1,0,0.2,0c0,0,0.1,0,0.1,0c0,0,0.1,0,0.1,0c0,0,0.1,0.1,0.1,0.1
				c0,0,0.1,0.1,0.1,0.1c0,0,0,0.1,0,0.2v0.2h0.4v0.3L-16.6-20.9z"/>
			<path id="Path_19450" class="st16" d="M-14.3-20.2c0-0.1,0.1-0.1,0.1-0.2c0-0.1,0.1-0.2,0.1-0.3c0-0.1,0-0.2,0-0.3h0.3v-0.3h-1.8
				v0.3h1.1c0,0,0,0.1,0,0.1c0,0,0,0.1,0,0.1s0,0.1,0,0.1c0,0,0,0,0,0.1c0-0.1-0.1-0.1-0.2-0.1c0,0-0.1-0.1-0.2-0.1
				c-0.1,0-0.1,0-0.2,0c-0.1,0-0.1,0-0.2,0c-0.1,0-0.1,0-0.2,0.1c0,0-0.1,0.1-0.1,0.1c0,0,0,0.1-0.1,0.1c0,0,0,0.1,0,0.1
				c0,0.1,0,0.1,0,0.2c0,0.1,0.1,0.1,0.1,0.1c0,0,0.1,0.1,0.1,0.1c0.1,0,0.1,0,0.2,0.1c0.1,0,0.1,0,0.2,0c0.1,0,0.1,0,0.2,0
				c0.1,0,0.1,0,0.1-0.1c0,0,0.1-0.1,0.1-0.1c0,0,0,0.1,0,0.1c0,0,0,0.1,0,0.1c0,0,0,0.1,0,0.1c0,0,0,0.1,0,0.1l0,0h0.3c0,0,0,0,0,0
				c0,0,0-0.1,0-0.1c0-0.1,0-0.1-0.1-0.2C-14.2-20-14.2-20.1-14.3-20.2L-14.3-20.2z M-15-20.4c0,0,0.1,0,0.1,0c0,0,0.1,0,0.1,0.1
				c0,0,0.1,0,0.1,0.1c0,0,0,0.1,0.1,0.1c0,0,0,0,0,0c0,0,0,0,0,0.1c0,0,0,0-0.1,0.1c0,0,0,0-0.1,0c0,0-0.1,0-0.1,0c0,0-0.1,0-0.1,0
				c0,0-0.1,0-0.1-0.1c0,0,0-0.1-0.1-0.1c0,0,0-0.1,0-0.1c0,0,0-0.1,0-0.1c0,0,0-0.1,0.1-0.1C-15.1-20.4-15.1-20.4-15-20.4
				C-15-20.4-15-20.4-15-20.4L-15-20.4z M-13.4-20.9v1.4h-0.3v-1.4h-0.2v-0.3h0.2v-0.2c0,0,0-0.1,0-0.1c0,0,0-0.1-0.1-0.1
				c0,0-0.1,0-0.1,0c0,0-0.1,0-0.1,0c0,0,0,0-0.1,0c0,0,0,0,0,0.1c0,0,0,0,0,0l0,0l-0.2-0.2c0,0,0,0,0,0c0,0,0,0,0-0.1
				c0,0,0,0,0.1-0.1c0.1-0.1,0.1-0.1,0.2-0.1c0.1,0,0.1,0,0.2,0c0,0,0.1,0,0.1,0c0,0,0.1,0,0.1,0c0,0,0.1,0.1,0.1,0.1
				c0,0,0.1,0.1,0.1,0.1c0,0,0,0.1,0,0.2v0.2h0.4v0.3L-13.4-20.9z M-10.6-20.9h1.1c0,0,0,0,0,0.1c0,0,0,0.1,0,0.1c0,0,0,0.1,0,0.1
				c0,0,0,0.1-0.1,0.1c0,0-0.1,0-0.1,0c0,0-0.1,0-0.1,0c0,0-0.1,0-0.1,0c0,0-0.1,0-0.1,0c0,0-0.1,0-0.1,0c-0.1,0-0.2,0-0.3,0
				c-0.1,0-0.1,0.1-0.1,0.1c0,0,0,0.1,0,0.1c0,0,0.1,0.1,0.1,0.1c0,0,0.1,0,0.1,0c0,0,0.1,0,0.1,0c0,0,0.1,0,0.1,0c0,0,0,0,0.1,0
				l0.1,0c0,0,0,0,0.1,0c0,0,0.1,0,0.1,0c0,0,0.1,0,0.1,0c0,0,0,0,0.1,0c0,0,0,0,0,0.1c0,0,0,0,0,0.1c0,0.1,0,0.1,0,0.2
				c0,0-0.1,0.1-0.1,0.1c-0.1,0-0.1,0-0.2,0c-0.1,0-0.1,0-0.2,0c-0.1,0-0.1,0-0.2-0.1c0,0-0.1,0-0.1-0.1c0,0-0.1,0-0.1-0.1
				c0,0,0,0-0.1-0.1c0,0,0,0,0,0c0,0,0,0,0,0c0,0,0,0,0,0c0,0,0,0,0,0c0,0,0,0.1,0,0.1c0,0,0,0.1,0.1,0.1c0,0,0.1,0.1,0.1,0.1
				c0,0,0.1,0.1,0.2,0.1c0.1,0,0.1,0.1,0.2,0.1c0.1,0,0.2,0,0.2,0c0.1,0,0.1,0,0.2,0c0.1,0,0.1,0,0.2,0c0.1,0,0.1-0.1,0.1-0.1
				c0,0,0.1-0.1,0.1-0.2c0-0.1,0-0.2,0-0.2c0,0,0-0.1,0-0.1c0,0,0-0.1-0.1-0.1c0,0,0,0-0.1-0.1c0,0,0,0-0.1,0c0,0,0,0,0.1,0
				c0,0,0.1,0,0.1-0.1c0,0,0-0.1,0.1-0.1c0,0,0-0.1,0-0.1c0-0.1,0-0.1,0-0.2h0.3v-0.3h-1.8L-10.6-20.9L-10.6-20.9z M-8.9-20.9v-0.3
				h0.1v-0.2c0-0.1,0-0.1,0-0.2c0,0,0-0.1,0.1-0.1c0,0,0.1-0.1,0.1-0.1c0,0,0.1,0,0.1,0c0,0,0.1,0,0.1,0c0.1,0,0.1,0,0.2,0
				c0,0,0.1,0,0.1,0.1c0,0,0.1,0,0.1,0.1c0,0,0,0,0.1,0.1c0,0,0,0,0,0.1c0,0,0,0,0,0l-0.2,0.1c0,0,0,0,0,0c0,0,0,0,0,0
				c0,0,0,0-0.1,0c0,0-0.1,0-0.1,0c0,0-0.1,0-0.1,0c0,0-0.1,0-0.1,0.1c0,0.1,0,0.1,0,0.2v0.1H-8v0.3h-0.5v1.4h-0.3L-8.9-20.9
				L-8.9-20.9z M-6.7-21.1h-1.5v0.3h0.9v1c0,0,0,0,0,0.1c0,0,0,0,0,0c-0.1,0-0.1,0-0.2,0c-0.1,0-0.1,0-0.2-0.1c0,0-0.1-0.1-0.1-0.1
				c0,0,0-0.1,0-0.1c0,0,0,0,0,0c0,0,0,0,0.1,0h0.1v-0.3H-8c0,0-0.1,0-0.1,0c0,0-0.1,0-0.1,0c0,0,0,0-0.1,0.1c0,0,0,0.1,0,0.1
				c0,0.1,0,0.2,0,0.2c0,0.1,0.1,0.1,0.1,0.2c0.1,0.1,0.1,0.1,0.2,0.2c0.1,0,0.1,0.1,0.2,0.1c0.1,0,0.1,0,0.2,0c0,0,0.1,0,0.1,0
				c0,0,0.1,0,0.1,0c0,0,0.1,0,0.1-0.1c0,0,0.1-0.1,0.1-0.1c0-0.1,0-0.1,0-0.2v-1h0.4L-6.7-21.1z"/>
			<path id="Path_19451" class="st16" d="M-10.5-21.1h-1.8v0.3h1.2v0.1h-0.5c-0.1,0-0.1,0-0.2,0c0,0-0.1,0.1-0.1,0.1
				c0,0-0.1,0.1-0.1,0.1c0,0.1,0,0.1,0,0.2c0,0.1,0,0.2,0,0.2c0,0.1,0.1,0.2,0.1,0.2c0,0.1,0.1,0.1,0.2,0.2c0.1,0.1,0.1,0.1,0.2,0.1
				c0.1,0,0.2,0,0.2,0c0.1,0,0.1,0,0.2,0c0.1,0,0.1-0.1,0.1-0.1c0-0.1,0.1-0.1,0.1-0.2c0,0,0-0.1,0-0.1c-0.1-0.1-0.2-0.2-0.3-0.2
				c0,0-0.1,0-0.1,0c0,0-0.1,0-0.1,0c0,0-0.1,0-0.1,0.1c0,0-0.1,0-0.1,0l0,0c0,0,0,0,0,0c0,0,0,0,0-0.1c0,0,0-0.1,0-0.1
				c0,0,0-0.1,0-0.1c0,0,0.1,0,0.1-0.1c0,0,0.1,0,0.1,0h0.6v-0.4h0.3L-10.5-21.1L-10.5-21.1z M-11.9-19.7c0.1,0,0.1,0,0.2,0.1
				c0,0,0,0.1,0,0.1c0,0.1,0,0.1-0.1,0.2c0,0-0.1,0-0.1,0c0,0-0.1,0-0.1,0c0,0-0.1,0-0.1-0.1c0,0,0-0.1,0-0.1c0,0,0-0.1,0-0.1
				C-12-19.6-12-19.6-11.9-19.7C-12-19.6-11.9-19.7-11.9-19.7L-11.9-19.7z M-11.3-19.8C-11.3-19.8-11.3-19.8-11.3-19.8
				c-0.1,0-0.1,0-0.2-0.1c0,0,0,0-0.1,0c0,0,0,0,0,0c0,0,0,0,0,0c0,0,0,0,0.1,0c0,0,0.1,0,0.1,0c0,0,0,0,0.1,0c0,0,0,0,0.1,0
				c0,0,0,0,0.1,0c0,0,0,0,0,0.1c0,0,0,0,0,0.1C-11.2-19.8-11.2-19.8-11.3-19.8C-11.2-19.8-11.3-19.8-11.3-19.8L-11.3-19.8z"/>
		</g>
	</g>
</g>
</svg>
