<svg xmlns="http://www.w3.org/2000/svg" width="245.99" height="197.419" viewBox="0 0 245.99 197.419">
  <g id="Group_36834" data-name="Group 36834" transform="translate(-2124.733 -2211.395)">
    <rect id="Rectangle_18350" data-name="Rectangle 18350" width="29.827" height="94.281" rx="14.913" transform="translate(2180.352 2211.396)" fill="#06a7c1"/>
    <g id="Group_36832" data-name="Group 36832" transform="translate(2180.352 2211.395)">
      <path id="Path_43221" data-name="Path 43221" d="M3318.149,2446.332a12.349,12.349,0,0,0-12.348,12.351v125.493a10.97,10.97,0,1,1-21.94,0V2446.332Z" transform="translate(-3129.282 -2403.384)" fill="#e6f8ef"/>
      <path id="Path_43222" data-name="Path 43222" d="M3298.269,2446.332c-3.907,0-6.289,5.631-6.289,9.327v128.274c0,4.266-1.649,7.977-4.078,9.871-2.407-1.862-4.041-5.475-4.041-9.629V2446.332Z" transform="translate(-3129.282 -2403.384)" fill="#326497" opacity="0.15" style="mix-blend-mode: multiply;isolation: isolate"/>
      <path id="Path_43223" data-name="Path 43223" d="M3473.2,2446.332v.005c-.083-.005-.164-.005-.249-.005Z" transform="translate(-3284.082 -2403.384)" fill="#fff"/>
      <path id="Path_43224" data-name="Path 43224" d="M2731.646,2401.263h-120.42a15.3,15.3,0,0,1-15.3-15.3V2269.626h94.925v-45.211a14.837,14.837,0,0,1,3.519-9.618c.267-.322.551-.63.849-.927a14.913,14.913,0,0,1,25.458,10.546v165.877A10.972,10.972,0,0,0,2731.646,2401.263Z" transform="translate(-2566.096 -2209.5)" fill="#024d28"/>
      <path id="Path_43225" data-name="Path 43225" d="M2713.05,2425.164H2611.224a15.3,15.3,0,0,1-15.3-15.3V2293.527h94.921v-45.211a10.259,10.259,0,1,1,17.584,5.274v162.63A10.951,10.951,0,0,0,2713.05,2425.164Z" transform="translate(-2566.095 -2233.403)" fill="#007c3d"/>
      <path id="Path_43226" data-name="Path 43226" d="M2683.984,2742.407v64.258a6.279,6.279,0,0,1-6.283,6.276h-81.777v-70.534Z" transform="translate(-2566.095 -2645.768)" fill="#02954a" opacity="0.5"/>
      <path id="Path_43227" data-name="Path 43227" d="M2571.1,2209.495a14.917,14.917,0,0,0-14.916,14.915v139.862a6.279,6.279,0,0,1-6.281,6.279H2437.719a6.281,6.281,0,0,1-6.281-6.279V2224.3a14.806,14.806,0,0,1,14.8-14.8Z" transform="translate(-2431.438 -2209.495)" fill="#e6f8ef"/>
      <path id="Path_43228" data-name="Path 43228" d="M2540.811,2295.612h-50.469a3.559,3.559,0,0,1-3.559-3.558h0a3.558,3.558,0,0,1,3.559-3.557h50.469a3.557,3.557,0,0,1,3.557,3.557h0A3.558,3.558,0,0,1,2540.811,2295.612Z" transform="translate(-2476.747 -2274.17)" fill="#a1d2b9"/>
      <path id="Path_43229" data-name="Path 43229" d="M2523.935,2383.422h-33.594a3.558,3.558,0,0,1-3.559-3.557h0a3.558,3.558,0,0,1,3.559-3.558h33.594a3.557,3.557,0,0,1,3.558,3.558h0A3.558,3.558,0,0,1,2523.935,2383.422Z" transform="translate(-2476.747 -2346.057)" fill="#a1d2b9"/>
      <rect id="Rectangle_18351" data-name="Rectangle 18351" width="40.711" height="7.115" rx="3.558" transform="translate(10.036 53.417)" fill="#a1d2b9"/>
      <path id="Path_43230" data-name="Path 43230" d="M2523.935,2801.549h-33.594a3.559,3.559,0,0,1-3.559-3.559h0a3.558,3.558,0,0,1,3.559-3.557h33.594a3.557,3.557,0,0,1,3.558,3.557h0A3.558,3.558,0,0,1,2523.935,2801.549Z" transform="translate(-2476.747 -2688.36)" fill="#a1d2b9"/>
      <path id="Path_43232" data-name="Path 43232" d="M2540.941,2951.624h-50.6a3.559,3.559,0,0,1-3.559-3.559h0a3.558,3.558,0,0,1,3.559-3.557h50.6a3.557,3.557,0,0,1,3.557,3.557h0A3.558,3.558,0,0,1,2540.941,2951.624Z" transform="translate(-2476.747 -2811.221)" fill="#c3e5f4"/>
      <path id="Path_43233" data-name="Path 43233" d="M2896.284,2673.792h-29.132a3.558,3.558,0,0,1-3.558-3.558h0a3.556,3.556,0,0,1,3.558-3.557h29.132a3.556,3.556,0,0,1,3.557,3.557h0A3.558,3.558,0,0,1,2896.284,2673.792Z" transform="translate(-2785.227 -2583.771)" fill="#a1d2b9"/>
      <rect id="Rectangle_18352" data-name="Rectangle 18352" width="20.355" height="7.115" rx="3.558" transform="translate(94.259 68.162)" fill="#a1d2b9"/>
      <rect id="Rectangle_18353" data-name="Rectangle 18353" width="20.355" height="7.115" rx="3.558" transform="translate(94.259 53.417)" fill="#a1d2b9"/>
      <rect id="Rectangle_18354" data-name="Rectangle 18354" width="52.801" height="7.115" rx="3.558" transform="translate(10.036 68.162)" fill="#a1d2b9"/>
      <rect id="Rectangle_18355" data-name="Rectangle 18355" width="39.04" height="7.115" rx="3.558" transform="translate(10.036 82.906)" fill="#a1d2b9"/>
      <rect id="Rectangle_18356" data-name="Rectangle 18356" width="33.85" height="7.115" rx="3.558" transform="translate(80.764 133.288)" fill="#4bb266"/>
    </g>
    <g id="Group_36833" data-name="Group 36833" transform="translate(2124.733 2220.462)">
      <path id="Path_43234" data-name="Path 43234" d="M2437.64,2374.736a37.3,37.3,0,0,0-6.6.584v72.943a37.059,37.059,0,1,0,6.6-73.527Z" transform="translate(-2375.497 -2353.838)" fill="#326497" opacity="0.2" style="mix-blend-mode: multiply;isolation: isolate"/>
      <circle id="Ellipse_2360" data-name="Ellipse 2360" cx="37.057" cy="37.057" r="37.057" transform="translate(5.303 52.406) rotate(-45)" fill="#ffd800"/>
      <circle id="Ellipse_2361" data-name="Ellipse 2361" cx="9.251" cy="9.251" r="9.251" transform="translate(0 84.71) rotate(-45)" fill="#fff"/>
      <circle id="Ellipse_2362" data-name="Ellipse 2362" cx="4.498" cy="4.498" r="4.498" transform="translate(27.851 91.568)" fill="#fff"/>
    </g>
    <g id="Group_39896" data-name="Group 39896" transform="translate(2169.197 2243.938)">
      <path id="Path_19479" data-name="Path 19479" d="M367.887,471.617l-.539.557-.546-.566.537-.557.547.566Zm3.963-3.84,1.393,0a1.577,1.577,0,0,0-.383-.927.782.782,0,0,0-.66-.34c-.536.074-.683.836-.35,1.272Zm-2.222,1.813a.768.768,0,0,0-.23.247.713.713,0,0,0-.151.414.646.646,0,0,0,.192.527.845.845,0,0,0,.489.155.57.57,0,0,0,.235-.024l.253-.132-.787-1.186Zm1.1,1-.774-1.187a.553.553,0,0,1,.23-.062h.251a.62.62,0,0,1,.43.166.722.722,0,0,1,.219.566.655.655,0,0,1-.356.517Zm.807-2.79a1.6,1.6,0,0,1-.325-.675.959.959,0,0,1,.283-.862,1.165,1.165,0,0,1,.687-.24,1.037,1.037,0,0,1,.832.452,2.584,2.584,0,0,1,.487,1.3h.664l.261.519h-.783v4.047l-.719-.3v-3.742h-.9v4.047l-.65-.3v-1.141a1.276,1.276,0,0,1-.4.292,1.862,1.862,0,0,1-.863.2,1.516,1.516,0,0,1-.555-.084,1.66,1.66,0,0,1-.527-.326,1.51,1.51,0,0,1-.438-1,1.208,1.208,0,0,1,.325-.754,1.609,1.609,0,0,1,1.176-.421,1.775,1.775,0,0,1,.8.221,1.314,1.314,0,0,1,.478.432v-1.169H368.4l-.244-.519,3.375.023Zm-7.848.5a1.709,1.709,0,0,1,.09,1.525l.263.146a.931.931,0,0,0,.462.1,1.174,1.174,0,0,0,.165-.013c.058-.009.033-.041.136-.084a1.333,1.333,0,0,0,.4-.226v-1.454Zm-.417,0h-1.843v2.228a.349.349,0,0,1-.38.357h-.2a.567.567,0,0,0-.109-.017l-.311-.061-.441-.435.476.026c.158.008.239-.055.239-.166v-1.932h-1.2v2.22a.752.752,0,0,0,.03.2.2.2,0,0,0,.081.129l2.212,1.445a1.555,1.555,0,0,1,.348.279.494.494,0,0,1,.1.253,1.374,1.374,0,0,1-.277.557l-.43-.391a.705.705,0,0,0,.106-.143.314.314,0,0,0,.045-.144c0-.07-.065-.163-.219-.251l-2.468-1.421a.61.61,0,0,1-.262-.574v-2.159h-.55l-.252-.519h8.248l.244.519h-.536v4.047l-.712-.3V470.38a.9.9,0,0,0-.143.053,1.608,1.608,0,0,1-.254.082c-.1.027-.079.04-.141.04a1.256,1.256,0,0,1-.537-.118,1.464,1.464,0,0,1-.461-.353l-.175.191a1.472,1.472,0,0,1-.2.174,1.444,1.444,0,0,0-.2.113.175.175,0,0,0-.042.053.1.1,0,0,0-.013.034c.1.11.179.21.253.3.017.017.157.169.42.452l.656.7-.184.388c-.728-.835-1.357-1.469-1.576-1.752a2.763,2.763,0,0,1-.434-.686c-.051-.165.174-.527.481-.564a.32.32,0,0,1,.393.167c0-.033.152-.013.2-.115.318-.265.567-.5.019-1.243Zm-9.333-.513,1.174-.006a1.671,1.671,0,0,0-.421-.951.794.794,0,0,0-.66-.3c-.3.014-.547.2-.475.73a1.008,1.008,0,0,0,.382.53Zm-.6.522h-1.371v1.394q0,.661.445.66a1.3,1.3,0,0,0,.447-.1,2.469,2.469,0,0,0,.243-.109,1.874,1.874,0,0,0,.236-.143v-1.7Zm4.2,3.318-.539.557-.547-.566.538-.557.547.566Zm-3.973-3.845a1.252,1.252,0,0,1-.568-.957.971.971,0,0,1,.334-.631.949.949,0,0,1,.674-.191,1.037,1.037,0,0,1,.832.454,2.668,2.668,0,0,1,.552,1.326h.664l.235.519H355.5v4.047l-.694-.3v-3.742l-.791.008v4.039l-.684-.3v-1.444c-.062.036-.114.062-.157.083a1.272,1.272,0,0,1-.141.057,1.641,1.641,0,0,1-.373.061,1.62,1.62,0,0,1-.885-.349,1.06,1.06,0,0,1-.475-.766V468.3h-.628l-.251-.527Z" transform="translate(-350.423 -414.292)" fill="#a3001d" fill-rule="evenodd"/>
      <path id="Path_19480" data-name="Path 19480" d="M351.026,453.1l.059-.636.058-.431.072-.425.089-.421.1-.415.12-.408.133-.4.148-.4.163-.388.177-.38.19-.374.2-.366.216-.356.228-.347.241-.34.252-.329.264-.32.275-.31.286-.3.3-.289.308-.278.317-.268.327-.255.336-.244.345-.231.355-.219.363-.205.369-.193.379-.179.386-.166.393-.152.55-.189v-2.438h.141l.355-.023.347-.041.341-.056.333-.074.328-.089.319-.1.314-.119.305-.132.3-.145.291-.157.286-.17.277-.18.27-.192.263-.2.256-.21.249-.22.24-.227.234-.235.226-.243.219-.249.212-.255.205-.259.387-.533.358-.547.328-.559.3-.562.13-.265.492-.682.488-.629.24-.291.241-.275.237-.259.239-.245.239-.231.24-.217.243-.2.246-.19.249-.177.253-.165.259-.153.264-.143.271-.131.28-.12.288-.111.3-.1.307-.091.316-.082.329-.072.343-.064.354-.057.369-.048.383-.041.812-.06c.377-.017.753-.031,1.131-.037v5.659l-.24-.039-.246-.027-.243-.014h-.239l-.233.01-.231.021-.225.034-.22.044-.216.055-.211.064-.205.075-.2.085-.2.094-.189.1-.185.111-.179.119-.174.125-.331.271-.308.3-.285.316-.261.336-.239.352-.215.363-.187.367c-.338.628-.664,1.262-1.03,1.873-.129.21-.262.414-.4.617-.107.149-.216.293-.329.436s-.24.278-.365.413l-.267.264c-.144.129-.29.252-.441.374l-.328.235-.354.225-.191.108-.582.311.762.357.36.186.352.2.345.208.336.221.329.234.318.244.311.255.3.265.293.276.281.286.272.295.261.3.25.315.24.323.227.332.218.34.2.349.192.356.181.365.167.37.156.377.14.384.129.391.113.4.1.4.085.407.069.413.055.418.04.422.024.425.008.431-.008.439-.024.435-.042.429-.057.427-.073.421-.088.415-.1.41-.118.4-.133.4-.147.391-.16.384-.174.376-.188.369-.2.362-.212.353-.225.344-.237.336-.249.327-.26.318-.271.308-.281.3-.292.288-.3.276-.312.265-.321.255-.332.244-.339.231-.349.218-.356.207-.365.193-.372.181-1.22.536,1.295.067.372.037.365.055.362.073.353.091.346.106.341.123.331.139.324.154.315.17.307.183.3.2.287.211.275.224.264.237.254.249.242.259.23.272.216.282.2.292.191.3.175.312.161.32.145.329.131.336.115.345.1.352.082.359.064.364.047.37.028.376.01.38-.01.387-.03.381-.046.376-.066.37-.085.363-.1.357-.119.349-.134.34-.151.334-.165.323-.181.315-.2.306-.209.295-.223.285-.236.274-.249.261-.26.25-.273.237-.284.224-.294.21-.305.2-.314.181-.324.166-.332.151-.339.135-.349.119-.355.1-.363.085-.367.067-.374.046-.38.03-.386.01-.376-.01-.372-.027-.366-.047-.36-.062-.354-.081-.348-.1-.342-.113-.333-.129-.327-.143-.316-.16-.31-.175-.3-.187-.291-.2-.28-.214-.27-.228-.258-.238-.247-.252-.236-.262-.223-.272-.211-.283-.2-.3-.184-.3-.169-.312-.156-.321-.14-.329-.126-.336-.109-.344-.093-.35-.076-.357-.058-.363-.043-.369-.03-.479V453.1h5.106v6.288l.5-.2.4-.19.382-.218.365-.245.343-.272.324-.295.3-.318.276-.34.252-.36.226-.378.2-.4.168-.413.072-.211.121-.434.048-.223.04-.224.031-.228.022-.23.014-.233,0-.235-.007-.3-.024-.3-.037-.3-.052-.29-.066-.285-.079-.282-.093-.274-.106-.27-.119-.262-.13-.255-.143-.248-.154-.239-.164-.233-.175-.224-.187-.215-.195-.2-.205-.2-.215-.186-.223-.176-.231-.166-.24-.153-.247-.143-.254-.132-.26-.119-.268-.106-.274-.093-.28-.081-.286-.065-.29-.052-.3-.038-.3-.023-.3-.007-.277.006-.273.019-.27.031-.266.044-.262.057-.257.067-.253.078-.249.088-.242.1-.237.111-.232.121-.226.129-.218.14-.213.149-.205.157-.2.166-.191.174-.184.183-.175.191-.167.2-.157.205-.15.211-.14.22-.13.225-.121.231-.11.238-.1.242-.09.248-.079.254-.068.257-.056.263-.047.278v26.828h-5.46V453.1Zm15.5,16.645-.244.013-.237.037-.229.06a3.245,3.245,0,0,0-.326.129c-.1.054-.2.111-.3.173s-.182.138-.271.214-.161.163-.237.251-.137.184-.2.282a3.18,3.18,0,0,0-.158.311,3.536,3.536,0,0,0-.115.335l-.047.235-.026.241v.247l.026.241.047.235a3.535,3.535,0,0,0,.115.335,3.373,3.373,0,0,0,.158.312c.064.1.129.19.2.281a3.321,3.321,0,0,0,.237.251c.088.077.177.146.271.214s.2.121.3.174.213.091.326.129l.229.06.237.037.244.011.245-.011.238-.037a3.3,3.3,0,0,0,.34-.1c.11-.044.213-.091.318-.145a3.217,3.217,0,0,0,.291-.187c.092-.072.177-.146.261-.227s.154-.17.226-.262a3.41,3.41,0,0,0,.187-.292c.054-.105.1-.208.144-.319s.069-.224.1-.342l.035-.238.013-.246-.013-.245-.035-.238c-.028-.118-.059-.227-.1-.342s-.091-.214-.144-.319-.119-.2-.187-.292-.147-.177-.226-.262-.17-.153-.261-.226a3.377,3.377,0,0,0-.291-.189c-.1-.054-.209-.1-.318-.144s-.225-.07-.34-.1l-.238-.037Z" transform="translate(-350.179 -429.524)" fill="#a3001d" fill-rule="evenodd"/>
    </g>
    <path id="Path_43238" data-name="Path 43238" d="M583.553,204.491a3.422,3.422,0,1,0,3.592,3.244A3.423,3.423,0,0,0,583.553,204.491Z" transform="translate(1623.115 2197.483)" fill="#00d6d2"/>
    <path id="Path_43239" data-name="Path 43239" d="M640.717,120.6a.592.592,0,0,0,.491-.677,4.1,4.1,0,0,1,5.5-4.492,5.278,5.278,0,0,0,7.067-5.839.589.589,0,0,0-.681-.479.591.591,0,0,0-.388.247.558.558,0,0,0-.093.434,4.1,4.1,0,0,1-5.49,4.536,5.219,5.219,0,0,0-5.208.848,5.285,5.285,0,0,0-1.224,1.423,5.144,5.144,0,0,0-.4.851,5.317,5.317,0,0,0-.246,2.66A.592.592,0,0,0,640.717,120.6Z" transform="translate(1716.869 2123.895)" fill="#007c3d"/>
    <path id="Path_43240" data-name="Path 43240" d="M533.081,206.983a.591.591,0,0,0,.491-.677,4.1,4.1,0,0,1,5.5-4.492,5.278,5.278,0,0,0,7.067-5.839.586.586,0,0,0-.244-.382.576.576,0,0,0-.435-.1.594.594,0,0,0-.389.247.558.558,0,0,0-.091.434,4.1,4.1,0,0,1-5.49,4.536,5.222,5.222,0,0,0-5.21.848,5.316,5.316,0,0,0-1.224,1.424,5.17,5.17,0,0,0-.4.85,5.288,5.288,0,0,0-.245,2.66A.59.59,0,0,0,533.081,206.983Z" transform="translate(1626.062 2174.491)" fill="#007c3d"/>
    <g id="Group_39902" data-name="Group 39902" transform="translate(2142.167 2212.714)">
      <path id="Path_25422" data-name="Path 25422" d="M545.677,49.585a3.422,3.422,0,1,0,3.592,3.245A3.422,3.422,0,0,0,545.677,49.585Z" transform="translate(-529.134 -49.58)" fill="#ff70e9"/>
      <path id="Path_25423" data-name="Path 25423" d="M546.921,74.014a.591.591,0,0,0-.8-.232,4.1,4.1,0,0,1-6.1-3.636,5.278,5.278,0,0,0-7.9-4.653.587.587,0,0,0-.219.8.592.592,0,0,0,.365.28.559.559,0,0,0,.44-.06,4.1,4.1,0,0,1,6.136,3.615,5.22,5.22,0,0,0,2.573,4.606,5.294,5.294,0,0,0,1.755.666,5.23,5.23,0,0,0,.937.085,5.31,5.31,0,0,0,2.584-.676A.59.59,0,0,0,546.921,74.014Z" transform="translate(-531.825 -45.722)" fill="#007c3d"/>
    </g>
    <path id="Path_43241" data-name="Path 43241" d="M566.289,187.746a.462.462,0,0,1-.047.206.473.473,0,0,1-.425.266h-9.683a.472.472,0,0,1-.371-.765l4.842-6.127a.472.472,0,0,1,.741,0l4.842,6.127A.476.476,0,0,1,566.289,187.746Zm-9.18-.473h7.733l-3.867-4.893Z" transform="translate(1636.012 2194.583)" fill="#c6d4ff"/>
    <path id="Path_43242" data-name="Path 43242" d="M635.741,109.745a.456.456,0,0,1-.206-.048.468.468,0,0,1-.265-.425l.035-9.684a.474.474,0,0,1,.268-.424.469.469,0,0,1,.5.056l6.109,4.865a.473.473,0,0,1,0,.741l-6.145,4.818A.461.461,0,0,1,635.741,109.745Zm.506-9.177-.029,7.733,4.907-3.849Z" transform="translate(1715.676 2121.361)" fill="#c6d4ff"/>
    <g id="Group_39903" data-name="Group 39903" transform="translate(2185.125 2342.638)">
      <rect id="Rectangle_18555" data-name="Rectangle 18555" width="115.668" height="24.984" rx="4" transform="translate(0 0)" fill="#007c3d"/>
      <g id="Group_39900" data-name="Group 39900" transform="translate(6.499 2.44)">
        <rect id="Rectangle_18556" data-name="Rectangle 18556" width="14.457" height="20.746" fill="#ffd800"/>
        <g id="Group_39898" data-name="Group 39898" transform="translate(2.938 0.649)">
          <path id="Path_19479-2" data-name="Path 19479" d="M356.172,467.844l-.177.183-.18-.186.177-.184.18.186Zm1.3-1.264h.459a.519.519,0,0,0-.126-.305.257.257,0,0,0-.217-.112c-.176.024-.225.275-.115.419Zm-.731.6a.254.254,0,0,0-.076.081.234.234,0,0,0-.05.136.213.213,0,0,0,.063.174.278.278,0,0,0,.161.051.187.187,0,0,0,.077-.008l.083-.043-.259-.391Zm.361.328-.255-.391a.183.183,0,0,1,.076-.021h.083a.2.2,0,0,1,.142.055.238.238,0,0,1,.072.186.216.216,0,0,1-.117.17Zm.266-.918a.527.527,0,0,1-.107-.222.316.316,0,0,1,.093-.284.383.383,0,0,1,.226-.079.341.341,0,0,1,.274.149.85.85,0,0,1,.161.428h.219l.086.171h-.258v1.332l-.237-.1v-1.232h-.3v1.332l-.214-.1v-.376a.421.421,0,0,1-.13.1.613.613,0,0,1-.284.067.5.5,0,0,1-.183-.027.546.546,0,0,1-.174-.107.5.5,0,0,1-.144-.328.4.4,0,0,1,.107-.248.529.529,0,0,1,.387-.139.584.584,0,0,1,.264.073.433.433,0,0,1,.157.142v-.385h-.976l-.08-.171,1.111.008Zm-2.583.163a.562.562,0,0,1,.03.5l.087.048a.307.307,0,0,0,.152.034.384.384,0,0,0,.054,0c.019,0,.011-.014.045-.027a.437.437,0,0,0,.133-.074v-.479Zm-.137,0h-.607v.733a.115.115,0,0,1-.125.118h-.066a.193.193,0,0,0-.036-.006l-.1-.02-.145-.143.157.008c.052,0,.079-.018.079-.055v-.636h-.395v.731a.246.246,0,0,0,.01.066.065.065,0,0,0,.027.042l.728.476a.512.512,0,0,1,.114.092.163.163,0,0,1,.032.083.453.453,0,0,1-.091.183l-.142-.129a.231.231,0,0,0,.035-.047.1.1,0,0,0,.015-.048c0-.023-.021-.054-.072-.083l-.812-.468a.2.2,0,0,1-.086-.189v-.711h-.181l-.083-.171h2.715l.08.171h-.176v1.332l-.234-.1v-.544a.3.3,0,0,0-.047.017.52.52,0,0,1-.084.027c-.033.009-.026.013-.046.013a.413.413,0,0,1-.177-.039.483.483,0,0,1-.152-.116l-.058.063a.481.481,0,0,1-.066.057.465.465,0,0,0-.065.037.057.057,0,0,0-.014.017.033.033,0,0,0,0,.011l.083.1.138.149.216.23-.061.128c-.24-.275-.447-.483-.519-.577a.912.912,0,0,1-.143-.226c-.017-.054.057-.174.158-.186a.105.105,0,0,1,.129.055c0-.011.05,0,.067-.038.1-.087.187-.165.006-.409Zm-3.072-.169.387,0a.551.551,0,0,0-.139-.313.262.262,0,0,0-.217-.1c-.1,0-.18.065-.156.24a.332.332,0,0,0,.126.174Zm-.2.172h-.451v.459q0,.218.147.217a.428.428,0,0,0,.147-.034.819.819,0,0,0,.08-.036.619.619,0,0,0,.078-.047v-.559Zm1.383,1.092-.177.183-.18-.186.177-.184.18.186Zm-1.308-1.266a.412.412,0,0,1-.187-.315.319.319,0,0,1,.11-.208.312.312,0,0,1,.222-.063.341.341,0,0,1,.274.149.877.877,0,0,1,.182.436h.219l.077.171h-.257v1.332l-.228-.1v-1.232l-.261,0v1.329l-.225-.1v-.475l-.052.027a.406.406,0,0,1-.046.019.541.541,0,0,1-.123.02.533.533,0,0,1-.291-.115.349.349,0,0,1-.156-.252v-.453h-.207l-.083-.174Z" transform="translate(-350.423 -448.975)" fill="#a3001d" fill-rule="evenodd"/>
          <path id="Path_19480-2" data-name="Path 19480" d="M351.017,437.284l.019-.21.019-.142.024-.14.029-.139.034-.137.04-.134.044-.132.049-.13.053-.128.058-.125.062-.123.066-.12.071-.117.075-.114.08-.112.083-.108.087-.105.091-.1.094-.1.1-.1.1-.091.1-.088.108-.084.111-.08.114-.076.117-.072.12-.068.121-.064.125-.059.127-.055.129-.05.181-.062v-.8h.047l.117-.007.114-.014.112-.019.11-.024.108-.029.105-.034.1-.039.1-.043.1-.048.1-.052.094-.056.091-.059.089-.063.087-.066.084-.069.082-.072.079-.075.077-.077.074-.08.072-.082.07-.084.067-.085.127-.176.118-.18.108-.184.1-.185.043-.087.162-.224.16-.207.079-.1.079-.091.078-.085.079-.081.079-.076.079-.071.08-.067.081-.063.082-.058.083-.054.085-.05.087-.047.089-.043.092-.04.095-.036.1-.033.1-.03.1-.027.108-.024.113-.021.117-.019.121-.016.126-.014.267-.02c.124-.006.248-.01.372-.012v1.863l-.079-.013-.081-.009-.08,0H359l-.077,0-.076.007-.074.011-.073.014-.071.018-.069.021-.068.025-.066.028-.065.031-.062.033-.061.036-.059.039-.057.041-.109.089-.1.1-.094.1-.086.111-.079.116-.071.119-.061.121c-.111.207-.219.415-.339.616-.042.069-.086.136-.132.2-.035.049-.071.1-.108.144s-.079.092-.12.136l-.088.087c-.047.042-.1.083-.145.123l-.108.077-.117.074-.063.035-.192.1.251.118.119.061.116.065.114.069.111.073.108.077.1.08.1.084.1.087.1.091.093.094.089.1.086.1.082.1.079.106.075.109.072.112.067.115.063.117.06.12.055.122.051.124.046.126.042.129.037.13.033.132.028.134.023.136.018.138.013.139.008.14,0,.142,0,.145-.008.143-.014.141-.019.14-.024.139-.029.137-.034.135-.039.133-.044.131-.048.129-.053.127-.057.124-.062.121-.066.119-.07.116-.074.114-.078.111-.082.108-.086.1-.089.1-.093.1-.1.095-.1.091-.1.087-.106.084-.109.08-.112.076-.115.072-.117.068-.12.063-.122.06-.4.176.426.022.122.012.12.018.119.024.116.03.114.035.112.041.109.046.106.051.1.056.1.06.1.065.094.07.091.074.087.078.084.082.08.085.076.09.071.093.067.1.063.1.058.1.053.105.048.108.043.111.038.113.032.116.027.118.021.12.015.122.009.124,0,.125,0,.127-.01.126-.015.124-.022.122-.028.119-.033.118-.039.115-.044.112-.05.11-.054.106-.06.1-.065.1-.069.1-.074.094-.078.09-.082.086-.086.082-.09.078-.093.074-.1.069-.1.065-.1.06-.107.055-.109.05-.112.044-.115.039-.117.033-.119.028-.121.022-.123.015-.125.01-.127,0-.124,0-.122-.009-.12-.015-.119-.021-.117-.026-.115-.032-.113-.037-.11-.042-.107-.047-.1-.053-.1-.057-.1-.062-.1-.066-.092-.071-.089-.075-.085-.078-.081-.083-.078-.086-.073-.09-.069-.093-.065-.1-.061-.1-.056-.1-.051-.105-.046-.108-.041-.111-.036-.113-.031-.115-.025-.118-.019-.119-.014-.121-.01-.158v-6.33h1.681v2.07l.164-.067.132-.062.126-.072.12-.081.113-.09.107-.1.1-.1.091-.112.083-.119.074-.125.065-.131.055-.136.024-.069.04-.143.016-.073.013-.074.01-.075.007-.076,0-.077v-.078l0-.1-.008-.1-.012-.1-.017-.1-.022-.094-.026-.093-.031-.09-.035-.089-.039-.086-.043-.084-.047-.082-.051-.079-.054-.077-.058-.074-.061-.071-.064-.067-.067-.065-.071-.061-.073-.058-.076-.055-.079-.05-.081-.047-.084-.043-.086-.039-.088-.035-.09-.03-.092-.027-.094-.022-.1-.017-.1-.013-.1-.008-.1,0-.091,0-.09.006-.089.01-.087.014-.086.019-.085.022-.083.026-.082.029-.08.033-.078.036-.076.04-.074.042-.072.046-.07.049-.067.052-.065.055-.063.057-.06.06-.058.063-.055.065-.052.068-.049.069-.046.072-.043.074-.04.076-.036.078-.033.08-.03.082-.026.083-.022.085-.019.087-.015.092v8.831h-1.8v-8.767Zm5.1,5.479-.081,0-.078.012-.076.02a1.064,1.064,0,0,0-.107.042c-.034.018-.066.036-.1.057s-.06.045-.089.07-.053.054-.078.083-.045.061-.066.093a1.041,1.041,0,0,0-.052.1c-.015.037-.027.072-.038.11l-.015.077-.008.079v.081l.008.079.015.077c.011.038.023.073.038.11a1.117,1.117,0,0,0,.052.1c.021.032.042.063.066.092a1.081,1.081,0,0,0,.078.083c.029.025.058.048.089.07s.065.04.1.057.07.03.107.042l.076.02.078.012.081,0,.08,0,.078-.012a1.094,1.094,0,0,0,.112-.032c.036-.015.07-.03.1-.048a1.066,1.066,0,0,0,.1-.062c.03-.024.058-.048.086-.075s.051-.056.075-.086.042-.063.061-.1.033-.069.047-.105.023-.074.032-.112l.012-.078,0-.081,0-.081-.012-.078c-.009-.039-.02-.075-.032-.112s-.03-.07-.047-.1-.039-.065-.061-.1-.048-.058-.075-.086-.056-.051-.086-.074a1.1,1.1,0,0,0-.1-.062c-.034-.018-.069-.033-.1-.048s-.074-.023-.112-.032l-.078-.012Z" transform="translate(-350.739 -429.524)" fill="#a3001d" fill-rule="evenodd"/>
        </g>
      </g>
      <path id="Path_43236" data-name="Path 43236" d="M387.184,445.625v-3.908c0-.23-.038-.383-.153-.46a1.04,1.04,0,0,0-.649-.153v-.192h2.941a3.9,3.9,0,0,1,1.833.345,1.335,1.335,0,0,1,.611,1.111,1.244,1.244,0,0,1-.687,1.188,4.18,4.18,0,0,1-2.1.383h-.306v1.686a.65.65,0,0,0,.153.46,1.291,1.291,0,0,0,.688.153v.192h-3.132v-.192a1.041,1.041,0,0,0,.649-.153c.115-.077.153-.23.153-.46Zm1.49-1.954h.153a1.629,1.629,0,0,0,1.069-.268,1.517,1.517,0,0,0,.306-1.034,1.262,1.262,0,0,0-.267-.92.932.932,0,0,0-.764-.268.823.823,0,0,0-.382.077.469.469,0,0,0-.114.345v2.069Zm5.079-1v2.644a1.075,1.075,0,0,0,.115.574.448.448,0,0,0,.382.154,1.246,1.246,0,0,0,.5-.154,1.687,1.687,0,0,0,.267-.23h0V443.48a.668.668,0,0,0-.115-.46c-.076-.115-.229-.153-.458-.153v-.192h1.871v2.95c0,.191,0,.307.076.344a.611.611,0,0,0,.42.115h0v.191c-.344.038-.649.077-.878.115-.268.038-.573.077-.916.153h0v-.536h0a3.388,3.388,0,0,1-.382.306,2.027,2.027,0,0,1-.917.23,1.251,1.251,0,0,1-.916-.268,1.156,1.156,0,0,1-.344-.881V443.48a1.334,1.334,0,0,0-.076-.5.466.466,0,0,0-.344-.115v-.192h1.719Zm3.933,2.95V443.48a.793.793,0,0,0-.114-.5c-.038-.077-.191-.115-.382-.115v-.192h1.757v.613h0a1.327,1.327,0,0,1,.382-.421,1.58,1.58,0,0,1,.955-.307,1.207,1.207,0,0,1,.878.345.992.992,0,0,1,.344.8v1.916a1.336,1.336,0,0,0,.076.5.506.506,0,0,0,.382.115v.192h-2.215v-.192c.191,0,.344-.038.382-.115a.793.793,0,0,0,.115-.5V443.94a1.314,1.314,0,0,0-.115-.651.475.475,0,0,0-.42-.153.733.733,0,0,0-.458.153,2.163,2.163,0,0,0-.306.268h0v2.069a.79.79,0,0,0,.115.5c.038.076.191.115.382.115v.192H397.19v-.192c.191,0,.344-.038.382-.115a.793.793,0,0,0,.114-.5Zm5.538-2.26v3.869a1.257,1.257,0,0,1-.076.46.372.372,0,0,1-.344.153c-.153,0-.268,0-.306-.077-.038-.038,0-.115.076-.23a.491.491,0,0,0,.076-.5.548.548,0,0,0-.5-.268.679.679,0,0,0-.382.154.529.529,0,0,0-.191.345.736.736,0,0,0,.344.613,1.575,1.575,0,0,0,.878.23,1.761,1.761,0,0,0,1.3-.421,2.049,2.049,0,0,0,.42-1.379v-3.639h-1.872v.192c.229,0,.421.038.458.115.077.038.115.192.115.383Zm.611-2.566a.7.7,0,0,1,.5.153.664.664,0,0,1,.229.46.546.546,0,0,1-.229.46.739.739,0,0,1-.993,0,.547.547,0,0,1-.229-.46.665.665,0,0,1,.229-.46.7.7,0,0,1,.5-.153Zm2.6,5.746a1.1,1.1,0,0,1-.726-.23.878.878,0,0,1-.306-.651,1.056,1.056,0,0,1,.382-.728A4.127,4.127,0,0,1,407,444.4l.878-.23h0v-.613a.8.8,0,0,0-.191-.575.841.841,0,0,0-.611-.153.558.558,0,0,0-.458.153c-.114.115-.114.192,0,.306a.5.5,0,0,1,.153.574.6.6,0,0,1-.573.268.813.813,0,0,1-.458-.115.525.525,0,0,1-.153-.421.8.8,0,0,1,.5-.728,2.3,2.3,0,0,1,1.222-.307,2.808,2.808,0,0,1,1.375.307.981.981,0,0,1,.459.881v2.03a.783.783,0,0,0,.038.191.2.2,0,0,0,.153.077.14.14,0,0,0,.114-.038l.076-.077.153.153a1.051,1.051,0,0,1-.458.345,1.639,1.639,0,0,1-.535.153.75.75,0,0,1-.611-.23.741.741,0,0,1-.191-.344h0a1.939,1.939,0,0,1-.5.344,2.127,2.127,0,0,1-.955.192Zm1.451-.919v-1.188h0l-.114.038a1.585,1.585,0,0,0-.764.383.691.691,0,0,0-.267.574.775.775,0,0,0,.115.421.464.464,0,0,0,.344.115.628.628,0,0,0,.382-.077c.076-.077.191-.153.305-.268Zm2.559-3.908a1.321,1.321,0,0,0-.077-.5.55.55,0,0,0-.42-.115v-.192h1.795v2.107h0a1.592,1.592,0,0,1,1.107-.46,1.729,1.729,0,0,1,1.26.537,1.993,1.993,0,0,1,.5,1.341,2.056,2.056,0,0,1-.573,1.532,2.1,2.1,0,0,1-1.528.575,1.874,1.874,0,0,1-1.146-.383l-.076-.076h0l-.726.46h-.114v-4.827Zm1.909,4.6a.76.76,0,0,0,.688-.421,3.685,3.685,0,0,0,.191-1.341,2.923,2.923,0,0,0-.191-1.188.771.771,0,0,0-.688-.345.717.717,0,0,0-.611.46h0v2.146a1.119,1.119,0,0,0,.076.344.391.391,0,0,0,.191.23.616.616,0,0,0,.344.115Zm6.76-4.252a1.129,1.129,0,0,1,.5-.919,2.267,2.267,0,0,1,1.3-.383,2.123,2.123,0,0,1,1.145.306.868.868,0,0,1,.42.728c0,.306-.191.575-.611.843a2.536,2.536,0,0,1-.8.345l.84,1.111.573.689c.153-.191.267-.344.382-.5.076-.115.115-.191.191-.306a.651.651,0,0,0,.076-.575c-.076-.115-.268-.191-.573-.191v-.23h1.909v.23a1.009,1.009,0,0,0-.535.115,3.252,3.252,0,0,0-.382.5,2.716,2.716,0,0,1-.382.537,3.879,3.879,0,0,1-.5.613l.229.268a1.807,1.807,0,0,0,.42.383.87.87,0,0,0,.42.115.9.9,0,0,0,.305-.077,1.685,1.685,0,0,0,.267-.23l.153.076a2.052,2.052,0,0,1-.649.8,1.336,1.336,0,0,1-.879.268,2.041,2.041,0,0,1-.611-.153,2.722,2.722,0,0,1-.534-.383l-.115-.192a6.17,6.17,0,0,1-.84.46,3.033,3.033,0,0,1-1.3.268,2,2,0,0,1-1.26-.421,1.347,1.347,0,0,1-.5-1.034,1.527,1.527,0,0,1,.573-1.149,5.778,5.778,0,0,1,1.26-.728,2.858,2.858,0,0,1-.267-.46,1.725,1.725,0,0,1-.229-.728Zm1.451,3.907a1.4,1.4,0,0,0,.611-.191l.268-.153-.611-.728c-.267-.345-.573-.728-.916-1.188l-.153-.192a1.677,1.677,0,0,0-.382.23.728.728,0,0,0-.306.575,1.672,1.672,0,0,0,.458,1.111,1.38,1.38,0,0,0,1.031.536Zm-.382-4.405a1.515,1.515,0,0,0,.191.536,3.281,3.281,0,0,0,.5.651.772.772,0,0,0,.306-.153.612.612,0,0,0,.382-.5,1.126,1.126,0,0,0-.267-.728.675.675,0,0,0-.573-.307.507.507,0,0,0-.382.115.493.493,0,0,0-.153.383Zm11.228,1a2.507,2.507,0,0,0-.687-1.111,1.64,1.64,0,0,0-1.069-.421,1.211,1.211,0,0,0-.764.23.69.69,0,0,0-.267.574.637.637,0,0,0,.305.575,3.123,3.123,0,0,0,1.031.536,4.919,4.919,0,0,1,1.528.843,1.434,1.434,0,0,1,.458,1.035,1.566,1.566,0,0,1-.649,1.3,2.622,2.622,0,0,1-1.642.5,4.833,4.833,0,0,1-1.337-.268,1.229,1.229,0,0,0-.306-.038.393.393,0,0,0-.191.23v.077h-.306v-2.03h.267a2.568,2.568,0,0,0,.688,1.264,1.8,1.8,0,0,0,1.222.46,1.45,1.45,0,0,0,.84-.23.96.96,0,0,0,.306-.69.742.742,0,0,0-.306-.613,4.236,4.236,0,0,0-1.107-.536,4.312,4.312,0,0,1-1.375-.8,1.43,1.43,0,0,1-.458-1.034,1.388,1.388,0,0,1,.573-1.188,2.167,2.167,0,0,1,1.49-.46,3.364,3.364,0,0,1,1.108.23.974.974,0,0,0,.42.077.39.39,0,0,0,.191-.23l.038-.077h.267v1.8h-.267Zm1.566,3.065V443.48a.792.792,0,0,0-.115-.5c-.038-.077-.191-.115-.382-.115v-.192h1.757v2.95a.789.789,0,0,0,.115.5c.038.076.191.115.381.115v.192h-2.253v-.192c.191,0,.344-.038.382-.115a.792.792,0,0,0,.115-.5Zm.611-4.827a.607.607,0,0,1,.726.613.635.635,0,0,1-.191.46.825.825,0,0,1-.534.192.8.8,0,0,1-.5-.192.516.516,0,0,1-.191-.46.609.609,0,0,1,.191-.46.768.768,0,0,1,.5-.153Zm1.986,4.827V443.48a.792.792,0,0,0-.115-.5c-.038-.077-.191-.115-.382-.115v-.192h1.757v.613h0a2,2,0,0,1,.382-.421,1.577,1.577,0,0,1,.955-.307,1.206,1.206,0,0,1,.878.345.99.99,0,0,1,.344.8v1.916a.794.794,0,0,0,.114.5c.038.076.153.115.344.115v.192h-2.215v-.192c.191,0,.343-.038.382-.115a.793.793,0,0,0,.115-.5V443.94a1.315,1.315,0,0,0-.115-.651.476.476,0,0,0-.42-.153.733.733,0,0,0-.458.153,2.134,2.134,0,0,0-.306.268h0v2.069a.793.793,0,0,0,.114.5c.038.076.191.115.382.115v.192h-2.253v-.192c.191,0,.344-.038.382-.115a.792.792,0,0,0,.115-.5Zm6.3.919a1.4,1.4,0,0,1-1.184-.536,2.11,2.11,0,0,1-.458-1.418,2.132,2.132,0,0,1,.535-1.456,1.63,1.63,0,0,1,1.261-.575,1.416,1.416,0,0,1,.84.307.391.391,0,0,1,.229.191h0v-1.341a.667.667,0,0,0-.114-.46c-.076-.115-.268-.153-.534-.153v-.192h1.947v4.712c0,.191.038.307.115.344.038.077.191.115.42.115h0v.191q-.516.057-.917.115c-.267.038-.535.077-.917.153h0v-.5h0a.46.46,0,0,1-.191.191,1.638,1.638,0,0,1-1.031.307Zm.535-3.525a.62.62,0,0,0-.611.383,2.385,2.385,0,0,0-.191,1.188,2.841,2.841,0,0,0,.153,1.149.642.642,0,0,0,.573.383.811.811,0,0,0,.573-.268,1.156,1.156,0,0,0,.191-.268h0V443.48h0a.716.716,0,0,0-.229-.268.794.794,0,0,0-.459-.192Zm6,2.605v-3.908a.648.648,0,0,0-.153-.46,1.231,1.231,0,0,0-.649-.153v-.192h2.864a3.611,3.611,0,0,1,1.757.307,1.024,1.024,0,0,1,.611.957,1.093,1.093,0,0,1-.687,1,2.419,2.419,0,0,1-.841.268h0a3.907,3.907,0,0,1,1.069.345,1.173,1.173,0,0,1,.764,1.073,1.352,1.352,0,0,1-.688,1.149,3.2,3.2,0,0,1-1.795.421H447.6v-.192a1.232,1.232,0,0,0,.649-.153.649.649,0,0,0,.153-.46Zm1.49-4.061V443.4h.153a1.625,1.625,0,0,0,.993-.268,1.264,1.264,0,0,0,.267-.92,1.191,1.191,0,0,0-.229-.8.85.85,0,0,0-.726-.268.57.57,0,0,0-.382.115.5.5,0,0,0-.076.307Zm0,2.069V445.7a.471.471,0,0,0,.114.345.615.615,0,0,0,.42.115h.038a.874.874,0,0,0,.8-.307,1.475,1.475,0,0,0,.267-1,1.132,1.132,0,0,0-.344-.919,1.941,1.941,0,0,0-1.146-.307Zm4.927,2.911a1.1,1.1,0,0,1-.726-.23.841.841,0,0,1-.267-.651.926.926,0,0,1,.382-.728,3.446,3.446,0,0,1,1.184-.536l.879-.23h0v-.613a.66.66,0,0,0-.191-.575.79.79,0,0,0-.573-.153.648.648,0,0,0-.5.153c-.114.115-.114.192,0,.306.191.191.267.383.153.574-.076.192-.306.268-.573.268a.814.814,0,0,1-.459-.115.7.7,0,0,1-.153-.421.873.873,0,0,1,.5-.728,2.3,2.3,0,0,1,1.222-.307,2.608,2.608,0,0,1,1.375.307.982.982,0,0,1,.458.881v2.03a.225.225,0,0,0,.076.191c0,.039.076.077.115.077a.141.141,0,0,0,.115-.038c.038,0,.076-.039.114-.077l.114.153a1.048,1.048,0,0,1-.458.345,1.635,1.635,0,0,1-.534.153.75.75,0,0,1-.611-.23.486.486,0,0,1-.153-.344h0a2.113,2.113,0,0,1-.535.344,2.031,2.031,0,0,1-.955.192Zm1.451-.919v-1.188h0l-.115.038a1.585,1.585,0,0,0-.764.383.69.69,0,0,0-.267.574.775.775,0,0,0,.115.421.612.612,0,0,0,.344.115.627.627,0,0,0,.382-.077c.076-.077.191-.153.306-.268Zm2.6,0V443.48a1.338,1.338,0,0,0-.076-.5.551.551,0,0,0-.42-.115v-.192h1.757v.613h0a2.008,2.008,0,0,1,.382-.421,1.761,1.761,0,0,1,.954-.307,1.148,1.148,0,0,1,.879.345.918.918,0,0,1,.382.8v1.916c0,.23,0,.422.076.5q.057.115.344.115v.192H460.93v-.192a.551.551,0,0,0,.42-.115,1.337,1.337,0,0,0,.076-.5V443.94a1.315,1.315,0,0,0-.114-.651c-.076-.115-.191-.153-.42-.153a.734.734,0,0,0-.458.153,1.752,1.752,0,0,0-.267.268h0v2.069c0,.23,0,.422.076.5a.507.507,0,0,0,.382.115v.192h-2.253v-.192a.551.551,0,0,0,.42-.115,1.339,1.339,0,0,0,.076-.5Zm5.08,0v-3.908a1.321,1.321,0,0,0-.077-.5c-.038-.077-.191-.115-.344-.115v-.192h1.719v3.525h0l.688-.613c.42-.383.649-.613.687-.766,0-.115-.191-.191-.573-.191v-.192h1.986v.192a1.274,1.274,0,0,0-.573.115,6.738,6.738,0,0,0-.687.5l-.5.46h0l1.375,1.686a3.684,3.684,0,0,0,.42.5.507.507,0,0,0,.267.115v.192h-2.177v-.192q.344,0,.344-.115a1.031,1.031,0,0,0-.267-.5l-.8-1h0l-.191.192h0v.8a1.337,1.337,0,0,0,.076.5.506.506,0,0,0,.382.115v.192h-2.177v-.192c.153,0,.306-.038.344-.115A1.325,1.325,0,0,0,463.948,445.625Z" transform="translate(-360.217 -430.412)" fill="#ffd800" fill-rule="evenodd"/>
      <path id="Path_43237" data-name="Path 43237" d="M422.807,464.414h-.344a3.357,3.357,0,0,1-.381-.843,2.977,2.977,0,0,1-.153-.8,2.319,2.319,0,0,1,.191-.919,2.672,2.672,0,0,1,.382-.728h.306a4.1,4.1,0,0,0-.306.881,2.487,2.487,0,0,0-.114.766,2.971,2.971,0,0,0,.076.574l.115.575c.076.115.115.268.229.5Zm2.6-.766h-.535l-.229-.536h-.993l-.191.536h-.535l.955-2.49h.534l.993,2.49Zm-.917-.958-.343-.919-.344.919Zm3.323.077v-.421h1.069v.958a2.347,2.347,0,0,1-.458.307,1.579,1.579,0,0,1-.611.115,1.286,1.286,0,0,1-.649-.191,1.061,1.061,0,0,1-.458-.46,1.81,1.81,0,0,1-.153-.651,1.326,1.326,0,0,1,.191-.689.973.973,0,0,1,.458-.5,1.557,1.557,0,0,1,1.337.077.947.947,0,0,1,.306.536l-.5.115a.528.528,0,0,0-.191-.307.533.533,0,0,0-.344-.115.64.64,0,0,0-.535.23.976.976,0,0,0-.191.613,1.142,1.142,0,0,0,.191.69.756.756,0,0,0,.535.191.945.945,0,0,0,.305-.038,1.64,1.64,0,0,0,.268-.153v-.307Zm1.413-.038a1.023,1.023,0,0,1,.115-.46.751.751,0,0,1,.344-.345,1.058,1.058,0,0,1,.5-.115.917.917,0,0,1,.917.958.792.792,0,0,1-.268.651.815.815,0,0,1-.649.306,1.057,1.057,0,0,1-.5-.115.752.752,0,0,1-.344-.345,1.115,1.115,0,0,1-.115-.536Zm.5.038a.686.686,0,0,0,.115.421.532.532,0,0,0,.343.115.433.433,0,0,0,.306-.115.83.83,0,0,0,0-.843.471.471,0,0,0-.306-.153.568.568,0,0,0-.343.153.688.688,0,0,0-.115.421Zm2.253.881-.726-1.8h.5l.344.919.076.307c.038-.077.038-.115.077-.154a.291.291,0,0,1,.038-.153l.343-.919h.5l-.726,1.8Zm2.253-1.8v.383h-.344v.728a1.359,1.359,0,0,0,.038.268c0,.038,0,.038.038.077h.076a.417.417,0,0,0,.191-.038l.038.383a1.126,1.126,0,0,1-.382.077.542.542,0,0,1-.229-.077c-.076,0-.114-.038-.153-.115-.038-.038-.038-.076-.077-.153V462.23H433.2v-.383h.229V461.5l.459-.268v.613Zm.343,1.8v-.46h.459v.46Zm1.8-.919a1.022,1.022,0,0,1,.114-.46.749.749,0,0,1,.344-.345,1.055,1.055,0,0,1,.5-.115.916.916,0,0,1,.916.958.791.791,0,0,1-.267.651.874.874,0,0,1-.649.306,1.055,1.055,0,0,1-.5-.115.749.749,0,0,1-.344-.345,1.113,1.113,0,0,1-.114-.536Zm.5.038a.69.69,0,0,0,.114.421.533.533,0,0,0,.344.115.433.433,0,0,0,.306-.115.833.833,0,0,0,0-.843.472.472,0,0,0-.306-.153.569.569,0,0,0-.344.153.691.691,0,0,0-.114.421Zm1.528-.919h.267v-.115c0-.154.038-.268.038-.345a.467.467,0,0,1,.191-.192.76.76,0,0,1,.344-.077,1.359,1.359,0,0,1,.382.077l-.076.345a.346.346,0,0,0-.191-.038c-.076,0-.114,0-.152.038a.285.285,0,0,0-.039.192v.115h.344v.383h-.344v1.417h-.5V462.23h-.267v-.383Zm2.329,1.8v-2.49h.5v2.49Zm2.6,0h-.458v-.919c0-.192,0-.307-.038-.345a.2.2,0,0,0-.076-.153.345.345,0,0,0-.191-.038.281.281,0,0,0-.229.077.526.526,0,0,0-.114.153,1.2,1.2,0,0,0-.038.421v.8h-.5v-1.8h.458v.268a.742.742,0,0,1,.611-.306.709.709,0,0,1,.267.076.385.385,0,0,1,.191.153.851.851,0,0,1,.115.192v1.417Zm2.138,0h-.42v-.23a1.653,1.653,0,0,1-.268.23.9.9,0,0,1-.305.077.8.8,0,0,1-.535-.268.939.939,0,0,1-.229-.69,1.108,1.108,0,0,1,.229-.728.693.693,0,0,1,.535-.23.665.665,0,0,1,.535.268v-.92h.458v2.49Zm-1.26-.919a1.029,1.029,0,0,0,.076.421.4.4,0,0,0,.344.191.485.485,0,0,0,.267-.153.617.617,0,0,0,.115-.421.819.819,0,0,0-.115-.46.376.376,0,0,0-.306-.115.412.412,0,0,0-.268.115.689.689,0,0,0-.114.421Zm1.757-1.111v-.46h.458v.46Zm0,2.03v-1.8h.458v1.8Zm1.3-1.226-.42-.077a.552.552,0,0,1,.229-.383.807.807,0,0,1,.535-.153,1.5,1.5,0,0,1,.5.076.474.474,0,0,1,.267.613v.574a.855.855,0,0,0,.038.345.552.552,0,0,0,.076.23h-.458c-.038,0-.038-.077-.076-.115v-.076a.683.683,0,0,1-.268.191.717.717,0,0,1-.305.077.693.693,0,0,1-.42-.153.493.493,0,0,1-.153-.383.459.459,0,0,1,.077-.306.379.379,0,0,1,.191-.154,2.365,2.365,0,0,1,.382-.115,1.928,1.928,0,0,0,.458-.115v-.077a.292.292,0,0,0-.076-.191c-.038-.038-.114-.038-.268-.038a.342.342,0,0,0-.191.038.408.408,0,0,0-.114.191Zm.649.383a1.7,1.7,0,0,0-.306.077.319.319,0,0,0-.229.076.2.2,0,0,0-.114.153.262.262,0,0,0,.267.268.546.546,0,0,0,.229-.077c.076-.077.115-.115.115-.191.038-.038.038-.115.038-.23V462.8Zm1.91-1.647h.5v1.762a.616.616,0,0,0,.153.268.513.513,0,0,0,.344.077c.153,0,.267,0,.344-.077a.327.327,0,0,0,.114-.23,4.01,4.01,0,0,0,.038-.422v-1.379h.5V462.5c0,.268-.038.5-.038.613a.772.772,0,0,1-.153.307,2.1,2.1,0,0,1-.306.23,1.491,1.491,0,0,1-.5.077,1.107,1.107,0,0,1-.535-.115.69.69,0,0,1-.268-.191.974.974,0,0,1-.153-.268,3.128,3.128,0,0,1-.038-.651v-1.341Zm4.124,2.49h-.458v-.919c0-.192,0-.307-.038-.345,0-.076-.038-.115-.115-.153-.039-.038-.077-.038-.153-.038a.28.28,0,0,0-.229.077c-.038.038-.115.076-.115.153a1.2,1.2,0,0,0-.038.421v.8h-.5v-1.8h.458v.268a.676.676,0,0,1,.878-.23.381.381,0,0,1,.191.153.856.856,0,0,1,.114.192v1.417Zm2.139,0h-.42v-.23c-.076.077-.191.153-.267.23a.9.9,0,0,1-.306.077.73.73,0,0,1-.535-.268.94.94,0,0,1-.229-.69,1.108,1.108,0,0,1,.229-.728.693.693,0,0,1,.535-.23.665.665,0,0,1,.535.268v-.92h.458v2.49Zm-1.26-.919a1.029,1.029,0,0,0,.076.421.39.39,0,0,0,.306.191.472.472,0,0,0,.306-.153.617.617,0,0,0,.115-.421.818.818,0,0,0-.115-.46.433.433,0,0,0-.306-.115.347.347,0,0,0-.268.115.689.689,0,0,0-.115.421Zm2.788.345.458.115a.7.7,0,0,1-.267.383,1.083,1.083,0,0,1-.5.153.77.77,0,0,1-.687-.344.793.793,0,0,1-.191-.613.936.936,0,0,1,.229-.689.71.71,0,0,1,.611-.268.829.829,0,0,1,.611.268,1.26,1.26,0,0,1,.229.8h-1.184a.469.469,0,0,0,.115.344.346.346,0,0,0,.267.115.286.286,0,0,0,.191-.038.621.621,0,0,0,.114-.23Zm.038-.46c-.038-.154-.038-.268-.114-.307a.347.347,0,0,0-.268-.115.272.272,0,0,0-.229.115.378.378,0,0,0-.115.307Zm1.3,1.034h-.458v-1.8h.42v.268a.65.65,0,0,1,.229-.23.292.292,0,0,1,.191-.076.433.433,0,0,1,.306.115l-.153.383a.543.543,0,0,0-.229-.077.288.288,0,0,0-.152.077.841.841,0,0,0-.115.192,2.4,2.4,0,0,0-.038.613v.536Zm1.719-1.8h-.306v-.613l-.5.268v.345h-.229v.383h.229v1.149c.038.077.038.115.076.153.038.077.076.115.153.115a.542.542,0,0,0,.229.077,1.129,1.129,0,0,0,.382-.077l-.038-.383a.415.415,0,0,1-.191.038h-.076c-.038-.038-.038-.038-.038-.077v-1h.306v-.383Zm.687.574-.42-.077a.552.552,0,0,1,.229-.383.746.746,0,0,1,.535-.153,1.5,1.5,0,0,1,.5.076c.076.077.153.115.191.192.076.077.076.23.076.421v.574a.857.857,0,0,0,.038.345.546.546,0,0,0,.076.23h-.5a.189.189,0,0,0-.038-.115v-.076a1.152,1.152,0,0,1-.267.191.717.717,0,0,1-.305.077.693.693,0,0,1-.42-.153.492.492,0,0,1-.153-.383.841.841,0,0,1,.038-.306.483.483,0,0,1,.229-.154,1.542,1.542,0,0,1,.382-.115,1.924,1.924,0,0,0,.458-.115v-.077a.292.292,0,0,0-.076-.191c-.038-.038-.115-.038-.268-.038a.285.285,0,0,0-.191.038.4.4,0,0,0-.115.191Zm.649.383a1.7,1.7,0,0,0-.306.077.548.548,0,0,0-.268.076.289.289,0,0,0-.076.153.262.262,0,0,0,.268.268.546.546,0,0,0,.229-.077c.076-.077.115-.115.115-.191.038-.038.038-.115.038-.23V462.8Zm.917.843v-2.49h.458V462.5l.573-.651h.573l-.611.689.687,1.111h-.535l-.458-.8-.229.23v.574Zm1.948-2.03v-.46h.458v.46Zm0,2.03v-1.8h.458v1.8Zm2.6,0h-.458v-.919a2.124,2.124,0,0,0-.038-.345.531.531,0,0,0-.114-.153c-.038-.038-.076-.038-.153-.038a.28.28,0,0,0-.229.077c-.076.038-.114.076-.114.153a1.2,1.2,0,0,0-.038.421v.8h-.5v-1.8h.459v.268a.676.676,0,0,1,.878-.23.382.382,0,0,1,.191.153.3.3,0,0,1,.076.192.747.747,0,0,1,.038.306v1.111Zm.459.154.534.038a.2.2,0,0,0,.076.153.286.286,0,0,0,.191.038c.115,0,.229,0,.267-.038.076-.038.076-.077.115-.153a1.684,1.684,0,0,0,.038-.192v-.268a.686.686,0,0,1-.573.268.632.632,0,0,1-.573-.307.923.923,0,0,1-.153-.574,1.109,1.109,0,0,1,.229-.728.693.693,0,0,1,.535-.23.609.609,0,0,1,.535.306v-.268h.459v1.647a1.59,1.59,0,0,1-.038.46,1.729,1.729,0,0,1-.153.268,1.86,1.86,0,0,1-.268.115,1.125,1.125,0,0,1-.381.077.937.937,0,0,1-.649-.191.389.389,0,0,1-.191-.383V463.8Zm.419-1.073a.618.618,0,0,0,.115.421.346.346,0,0,0,.267.115.506.506,0,0,0,.305-.115.833.833,0,0,0,0-.843.432.432,0,0,0-.305-.115.346.346,0,0,0-.267.115.689.689,0,0,0-.115.421Zm1.6,1.686c.077-.23.153-.383.191-.5a3.615,3.615,0,0,0,.115-.345c.038-.153.038-.268.076-.421v-.383a2.492,2.492,0,0,0-.076-.766,4.054,4.054,0,0,0-.306-.881h.306a3.788,3.788,0,0,1,.42.766,3.427,3.427,0,0,1,.115.843,2.87,2.87,0,0,1-.115.766,2.466,2.466,0,0,1-.42.919Z" transform="translate(-379.227 -441.27)" fill="#ffd800" fill-rule="evenodd"/>
      <g id="Group_39899" data-name="Group 39899" transform="translate(47.055 0.921)">
        <path id="Path_19449" data-name="Path 19449" d="M432.95,423.74a.643.643,0,0,0-.073-.3.7.7,0,0,0-.2-.227.9.9,0,0,0-.281-.142,1.1,1.1,0,0,0-.329-.05,1.048,1.048,0,0,0-.291.04.836.836,0,0,0-.25.117.6.6,0,0,0-.174.19.507.507,0,0,0-.066.258.521.521,0,0,0,.05.226.587.587,0,0,0,.133.18.823.823,0,0,0,.193.132,1.061,1.061,0,0,0,.229.08,1.075,1.075,0,0,0,.24.028.566.566,0,0,0,.172-.026.735.735,0,0,0,.129-.06c.037-.023.073-.044.107-.062-.006.024-.013.06-.021.106s-.015.1-.022.162-.014.123-.019.188-.008.127-.008.188a.811.811,0,0,0,.039.248.673.673,0,0,0,.1.19.489.489,0,0,0,.13.123.26.26,0,0,0,.135.043,1.021,1.021,0,0,0,.129-.005.179.179,0,0,0,.092-.033.1.1,0,0,0,.036-.083.144.144,0,0,0-.02-.081.124.124,0,0,0-.049-.041l-.065-.029a.231.231,0,0,1-.065-.047.244.244,0,0,1-.049-.1.609.609,0,0,1-.02-.17c0-.1.005-.188.014-.275s.019-.173.03-.256.022-.167.03-.251a2.47,2.47,0,0,0,.014-.26Zm1.121-.363h1.417a1.31,1.31,0,0,1-.02.244.611.611,0,0,1-.078.211.4.4,0,0,1-.16.149.574.574,0,0,1-.268.057h-.836s0-.012-.008-.034-.011-.051-.017-.086-.013-.072-.018-.113a.88.88,0,0,1-.008-.115c0-.017,0-.043,0-.078s0-.075,0-.117,0-.081,0-.117Zm.175,1.043h.506a.66.66,0,0,1,.254.043.323.323,0,0,1,.147.11.278.278,0,0,1,.047.155.4.4,0,0,1-.008.091.18.18,0,0,1-.037.078.184.184,0,0,1-.084.056.455.455,0,0,1-.15.02.556.556,0,0,1-.224-.047.709.709,0,0,1-.182-.117.972.972,0,0,1-.138-.149.948.948,0,0,1-.09-.143.426.426,0,0,1-.039-.1Zm-1.665-.757a.428.428,0,0,1-.105.117.6.6,0,0,1-.166.09.647.647,0,0,1-.212.036.617.617,0,0,1-.136-.016.572.572,0,0,1-.137-.046.319.319,0,0,1-.105-.078.166.166,0,0,1-.042-.11.214.214,0,0,1,.038-.124.29.29,0,0,1,.1-.084.535.535,0,0,1,.138-.05.762.762,0,0,1,.154-.015.6.6,0,0,1,.309.067.388.388,0,0,1,.166.214Zm2.922-.953h.517l.131-.249c.052-.1.112-.2.18-.312s.146-.224.232-.337a3.091,3.091,0,0,1,.288-.326,2.18,2.18,0,0,1,.349-.278,1.706,1.706,0,0,1,.413-.194,1.627,1.627,0,0,1,.481-.073.7.7,0,0,1,.28.057.735.735,0,0,1,.217.146,1.041,1.041,0,0,1,.161.2,1.593,1.593,0,0,1,.112.217,2.031,2.031,0,0,1,.07.2c.018.061.03.109.037.146s.011.056.011.057h.377l-.012-.061c-.007-.039-.02-.092-.038-.159s-.042-.141-.074-.224a2.2,2.2,0,0,0-.113-.259,1.759,1.759,0,0,0-.162-.258,1.285,1.285,0,0,0-.217-.225,1.011,1.011,0,0,0-.279-.159.986.986,0,0,0-.347-.061,2.257,2.257,0,0,0-.595.076,1.932,1.932,0,0,0-.488.207,2.253,2.253,0,0,0-.4.309,3.239,3.239,0,0,0-.335.383q-.154.206-.29.426t-.266.442c-.024-.035-.051-.073-.085-.115a1.155,1.155,0,0,0-.116-.129.93.93,0,0,0-.157-.12.827.827,0,0,0-.2-.089.92.92,0,0,0-.256-.035,1.559,1.559,0,0,0-.425.055,1.1,1.1,0,0,0-.375.181,1.04,1.04,0,0,0-.288.335,1.517,1.517,0,0,0-.165.518H433.3v.374h.35a3.465,3.465,0,0,0,.067.7,2.259,2.259,0,0,0,.184.551,1.5,1.5,0,0,0,.28.4,1.112,1.112,0,0,0,.351.242,1.02,1.02,0,0,0,.4.081.918.918,0,0,0,.292-.043.606.606,0,0,0,.2-.11.561.561,0,0,0,.124-.147.636.636,0,0,0,.063-.157.56.56,0,0,0,.017-.137.49.49,0,0,0-.022-.146.588.588,0,0,0-.053-.123,1.052,1.052,0,0,0-.067-.1c-.024-.029-.045-.056-.064-.078a.632.632,0,0,0,.08-.048.689.689,0,0,0,.119-.1.842.842,0,0,0,.126-.17,1.06,1.06,0,0,0,.1-.255,1.52,1.52,0,0,0,.045-.355h.381V423h-2.16a1.429,1.429,0,0,1,.081-.293.73.73,0,0,1,.14-.223.569.569,0,0,1,.216-.141.871.871,0,0,1,.309-.05.954.954,0,0,1,.248.031.633.633,0,0,1,.176.077.516.516,0,0,1,.115.1.507.507,0,0,1,.067.1.429.429,0,0,1,.032.077.161.161,0,0,1,.008.03Zm4.2.293v.374h-.432v1.964h-.436V424.4h-.658a1.6,1.6,0,0,1-.006.227,1.394,1.394,0,0,1-.037.222.87.87,0,0,1-.071.191.406.406,0,0,1-.106.134.223.223,0,0,1-.142.05.34.34,0,0,1-.158-.032.21.21,0,0,1-.086-.075.243.243,0,0,1-.036-.088.332.332,0,0,1-.007-.071.24.24,0,0,1,.025-.087l.061-.13c.024-.051.048-.109.073-.173a1.6,1.6,0,0,0,.061-.216,1.332,1.332,0,0,0,.025-.26,1.216,1.216,0,0,0-.081-.436,1.281,1.281,0,0,0-.067-.148c-.023-.041-.042-.072-.057-.094l-.024-.033h-.109V423Zm-.868.374V424h-.661l0-.03c0-.019-.007-.045-.012-.076s-.011-.066-.018-.1-.015-.073-.023-.108a.922.922,0,0,0-.028-.094c-.018-.044-.034-.083-.05-.114s-.028-.056-.039-.074l-.016-.026Zm1.393,0v1.972l-.416,0v-1.975h-.229V423h.226v-.258a.413.413,0,0,0-.019-.138.175.175,0,0,0-.074-.1.282.282,0,0,0-.156-.037.26.26,0,0,0-.116.027.312.312,0,0,0-.085.062.4.4,0,0,0-.057.076.465.465,0,0,0-.032.062c-.006.017-.009.026-.009.027l-.343-.223s.005-.011.016-.031a.681.681,0,0,1,.051-.078.758.758,0,0,1,.4-.281.834.834,0,0,1,.234-.031.525.525,0,0,1,.149.023.718.718,0,0,1,.16.072.69.69,0,0,1,.145.122.588.588,0,0,1,.105.174.625.625,0,0,1,.04.226v.3h.541v.374Zm-1.4,1.768v.184a1.275,1.275,0,0,1,.144.048.828.828,0,0,1,.123.062,1.42,1.42,0,0,1,.133.092,1.882,1.882,0,0,1,.2.186,1.549,1.549,0,0,1,.14.17.681.681,0,0,1,.071.124c.012.03.011.047,0,.047a.209.209,0,0,1-.086-.048l-.165-.122c-.068-.051-.147-.106-.239-.165a.471.471,0,0,0-.1-.045.686.686,0,0,0-.1-.025c-.031-.005-.055-.008-.074-.01l-.029,0a.32.32,0,0,1-.014.032.369.369,0,0,1-.047.07.309.309,0,0,1-.087.07.292.292,0,0,1-.281-.008.306.306,0,0,1-.111-.105.294.294,0,0,1-.043-.152.27.27,0,0,1,.025-.118.254.254,0,0,1,.061-.077.3.3,0,0,1,.073-.045.326.326,0,0,1,.061-.021l.025-.005v-.137Zm3.63-1.565a1.54,1.54,0,0,0-.253.017.6.6,0,0,0-.219.076.4.4,0,0,0-.154.171.684.684,0,0,0-.059.3.673.673,0,0,0,.052.267.52.52,0,0,0,.136.188.568.568,0,0,0,.194.109.666.666,0,0,0,.224.03.449.449,0,0,0,.074.162.817.817,0,0,0,.148.162,1.126,1.126,0,0,0,.209.14,1.232,1.232,0,0,0,.254.1,1.12,1.12,0,0,0,.284.038,1.01,1.01,0,0,0,.144-.009.747.747,0,0,0,.118-.027c.038-.013.079-.027.123-.046l.09-.4a.333.333,0,0,1-.08.049.878.878,0,0,1-.116.042.94.94,0,0,1-.127.03.631.631,0,0,1-.116.012.88.88,0,0,1-.2-.023.832.832,0,0,1-.168-.058.518.518,0,0,1-.116-.075.114.114,0,0,1-.043-.074.049.049,0,0,1,.015-.041.083.083,0,0,1,.047-.01h.856v-.406h-1.28a1.283,1.283,0,0,1-.18-.009.232.232,0,0,1-.117-.043.123.123,0,0,1-.042-.1.127.127,0,0,1,.042-.1.218.218,0,0,1,.11-.044,1.043,1.043,0,0,1,.155-.009h1.385v-.621h.506V423h-2.584v.374h1.662v.2Zm1.775-.2V423h1.14v.374h-.537v1.058l-.416,0v-1.062Zm.973,0h.128v1.964h.416v-1.964h.665V423h-.661v-.117a.636.636,0,0,1,.038-.236.24.24,0,0,1,.094-.116.221.221,0,0,1,.118-.03.432.432,0,0,1,.165.03.317.317,0,0,1,.1.066.288.288,0,0,1,.051.065.213.213,0,0,1,.014.03l.311-.2s-.005-.011-.016-.031a.687.687,0,0,0-.051-.078.761.761,0,0,0-.089-.1.778.778,0,0,0-.134-.1.742.742,0,0,0-.181-.078.864.864,0,0,0-.234-.031.547.547,0,0,0-.149.023.727.727,0,0,0-.16.072.659.659,0,0,0-.145.122.567.567,0,0,0-.1.174.6.6,0,0,0-.041.225V423H445.2v.374Zm3.187-.374v.374h-.517v1.468a.625.625,0,0,1-.041.24.364.364,0,0,1-.108.146.435.435,0,0,1-.147.075.727.727,0,0,1-.159.027c-.054,0-.1,0-.145,0a.871.871,0,0,1-.308-.06,1.2,1.2,0,0,1-.3-.164,1.309,1.309,0,0,1-.251-.244,1.2,1.2,0,0,1-.174-.3.929.929,0,0,1-.065-.335.351.351,0,0,1,.038-.167.264.264,0,0,1,.094-.1.376.376,0,0,1,.117-.045.549.549,0,0,1,.11-.011H447v.406h-.207a.434.434,0,0,0-.1.007c-.02.005-.029.02-.028.044a.479.479,0,0,0,.051.212.559.559,0,0,0,.144.178.694.694,0,0,0,.223.122.889.889,0,0,0,.29.046.079.079,0,0,0,.064-.027.121.121,0,0,0,.022-.079v-1.444h-1.3V423Zm2.374.374h.514V423H448.25v.374h1.187v.344h-.813a.243.243,0,0,0-.11.032.444.444,0,0,0-.117.09.493.493,0,0,0-.094.143.481.481,0,0,0-.038.188,1.285,1.285,0,0,0,.05.347,1.352,1.352,0,0,0,.14.317,1.191,1.191,0,0,0,.214.259.955.955,0,0,0,.27.175.783.783,0,0,0,.311.064,1.015,1.015,0,0,0,.145-.009.794.794,0,0,0,.159-.037.488.488,0,0,0,.147-.079.379.379,0,0,0,.107-.137.506.506,0,0,0,.042-.21v-1.487h.5v1.964h.413v-1.964Zm-1.327.749v.675a.147.147,0,0,1-.019.071.161.161,0,0,1-.061.063.22.22,0,0,1-.11.027.347.347,0,0,1-.156-.042.674.674,0,0,1-.149-.106.95.95,0,0,1-.127-.146.837.837,0,0,1-.088-.159.4.4,0,0,1-.033-.145.549.549,0,0,1,0-.058.249.249,0,0,1,.017-.079.148.148,0,0,1,.057-.07.217.217,0,0,1,.12-.03Zm-.276,1.319v.328c.068.02.132.036.19.049s.117.024.173.033.114.014.174.018.127.005.2.005.151,0,.217-.005a1.753,1.753,0,0,0,.186-.019,1.4,1.4,0,0,0,.177-.037c.06-.016.123-.036.191-.06v-.313q-.107.034-.2.056a1.781,1.781,0,0,1-.178.036c-.059.009-.119.016-.183.019s-.134.006-.212.006-.137,0-.2-.006a1.756,1.756,0,0,1-.176-.021c-.056-.009-.114-.021-.172-.036s-.122-.033-.189-.055Zm3.311-2.069H451.18V423h2.206v.374h-.506v1.468a.628.628,0,0,1-.041.24.363.363,0,0,1-.108.146.433.433,0,0,1-.146.075.736.736,0,0,1-.159.027c-.053,0-.1,0-.145,0a.873.873,0,0,1-.308-.06,1.2,1.2,0,0,1-.295-.164,1.322,1.322,0,0,1-.251-.244,1.2,1.2,0,0,1-.174-.3.929.929,0,0,1-.065-.335.419.419,0,0,1,.035-.177.357.357,0,0,1,.088-.122.377.377,0,0,1,.111-.069.3.3,0,0,1,.108-.022h.938v-.465Zm-.677.871a.125.125,0,0,0-.075.02.1.1,0,0,0-.034.047.159.159,0,0,0-.008.054.48.48,0,0,0,.051.212.557.557,0,0,0,.144.178.7.7,0,0,0,.223.122.889.889,0,0,0,.29.046.078.078,0,0,0,.063-.027.122.122,0,0,0,.022-.079v-.574Zm-.657,1.2v.328c.068.02.132.036.19.049s.117.024.173.033.114.014.175.018.126.005.2.005.151,0,.217-.005a1.754,1.754,0,0,0,.186-.019,1.393,1.393,0,0,0,.177-.037c.06-.016.123-.036.191-.06v-.313q-.108.034-.2.056a1.786,1.786,0,0,1-.178.036c-.058.009-.119.016-.183.019s-.134.006-.212.006-.137,0-.2-.006a1.745,1.745,0,0,1-.176-.021c-.057-.009-.114-.021-.172-.036s-.122-.033-.189-.055Zm0,.492v.328c.068.02.132.036.19.049s.117.024.173.033.114.014.175.018.126.005.2.005.151,0,.217-.005a1.77,1.77,0,0,0,.186-.019,1.393,1.393,0,0,0,.177-.037c.06-.016.123-.036.191-.06v-.313c-.072.023-.138.041-.2.056a1.8,1.8,0,0,1-.178.036c-.058.008-.119.015-.183.019s-.134.006-.212.006-.137,0-.2-.007a1.594,1.594,0,0,1-.176-.02,1.708,1.708,0,0,1-.172-.036c-.059-.015-.122-.033-.189-.055Zm3.327-2.56h1.6v.7h-.836V423.7a1.764,1.764,0,0,0-.212.01.6.6,0,0,0-.145.036.451.451,0,0,0-.112.068,1.511,1.511,0,0,0-.115.1.518.518,0,0,0-.1.137.669.669,0,0,0-.05.147.92.92,0,0,0-.018.135.847.847,0,0,0,0,.1c0,.025,0,.037,0,.038h.331v.855h.417v-.855h.836v.867h.416v-1.964h.506V423H454.46v.374Zm3.047,0v1.972l-.416,0v-1.975h-.229V423h.226v-.258a.425.425,0,0,0-.019-.138.179.179,0,0,0-.074-.1.281.281,0,0,0-.156-.037.259.259,0,0,0-.116.027.3.3,0,0,0-.085.062.384.384,0,0,0-.057.076.469.469,0,0,0-.032.062c-.006.017-.009.026-.009.027l-.343-.223s.005-.011.016-.031a.678.678,0,0,1,.051-.078.777.777,0,0,1,.223-.2.735.735,0,0,1,.181-.078.829.829,0,0,1,.233-.031.522.522,0,0,1,.149.023.71.71,0,0,1,.16.072.691.691,0,0,1,.145.122.587.587,0,0,1,.105.174.614.614,0,0,1,.04.226v.3h.541v.374Z" transform="translate(-431.289 -420.559)" fill="#ffd800" fill-rule="evenodd"/>
        <path id="Path_19450" data-name="Path 19450" d="M492.677,426.166a1.752,1.752,0,0,0,.128-.279,2.267,2.267,0,0,0,.1-.363,2.035,2.035,0,0,0,.029-.415h.506v-.374h-2.568v.374h1.615a1.057,1.057,0,0,1-.006.176c-.008.063-.018.124-.032.184s-.026.113-.041.158a.8.8,0,0,1-.034.1,1.726,1.726,0,0,0-.229-.2.871.871,0,0,0-.232-.12.81.81,0,0,0-.258-.04.91.91,0,0,0-.281.042.759.759,0,0,0-.218.113.707.707,0,0,0-.155.16.672.672,0,0,0-.093.185.6.6,0,0,0-.031.187.743.743,0,0,0,.053.285.659.659,0,0,0,.141.214.782.782,0,0,0,.2.148.955.955,0,0,0,.23.086.982.982,0,0,0,.232.028.827.827,0,0,0,.26-.039.855.855,0,0,0,.205-.1c.061-.042.124-.089.185-.14a.547.547,0,0,1,.046.112c.014.045.026.091.036.141s.018.1.025.14.013.079.016.107l.005.043.443,0a.547.547,0,0,0,0-.064,1.4,1.4,0,0,0-.025-.181,2.07,2.07,0,0,0-.08-.287,2.774,2.774,0,0,0-.167-.378Zm-1.016-.421a.48.48,0,0,1,.173.032.539.539,0,0,1,.14.084.741.741,0,0,1,.11.11,1.09,1.09,0,0,1,.083.114c-.008.017-.02.039-.033.067a.737.737,0,0,1-.051.088.485.485,0,0,1-.077.089.4.4,0,0,1-.112.069.411.411,0,0,1-.152.027.548.548,0,0,1-.2-.035.368.368,0,0,1-.136-.087.345.345,0,0,1-.077-.117.335.335,0,0,1-.025-.125.273.273,0,0,1,.034-.132.331.331,0,0,1,.086-.1.406.406,0,0,1,.115-.063.367.367,0,0,1,.123-.022Zm2.3-.637v1.972l-.416,0v-1.975h-.229v-.374h.226v-.258a.414.414,0,0,0-.019-.138.177.177,0,0,0-.074-.1.281.281,0,0,0-.156-.037.259.259,0,0,0-.116.027.3.3,0,0,0-.085.062.387.387,0,0,0-.057.076.485.485,0,0,0-.032.062l-.009.027-.343-.222a.342.342,0,0,1,.016-.031.671.671,0,0,1,.051-.078.735.735,0,0,1,.09-.1.746.746,0,0,1,.314-.179.825.825,0,0,1,.233-.031.528.528,0,0,1,.149.023.718.718,0,0,1,.16.072.686.686,0,0,1,.145.122.586.586,0,0,1,.105.173.615.615,0,0,1,.04.226v.3h.541v.374Zm4.008,0h1.642a.19.19,0,0,1,.036.111.506.506,0,0,1-.017.152.616.616,0,0,1-.062.156.4.4,0,0,1-.1.122.21.21,0,0,1-.129.049.361.361,0,0,1-.123-.024c-.038-.014-.079-.031-.122-.05a.858.858,0,0,0-.148-.051.8.8,0,0,0-.2-.023,1,1,0,0,0-.413.065.216.216,0,0,0-.14.2.251.251,0,0,0,.052.159.324.324,0,0,0,.133.094.721.721,0,0,0,.183.044,1.48,1.48,0,0,0,.2.012,1,1,0,0,0,.13-.007.607.607,0,0,0,.09-.016l.081-.019a.656.656,0,0,1,.1-.016,1.272,1.272,0,0,1,.149-.007.306.306,0,0,1,.108.021.4.4,0,0,1,.1.057.326.326,0,0,1,.072.083.192.192,0,0,1,.028.1.4.4,0,0,1-.067.241.374.374,0,0,1-.189.133.9.9,0,0,1-.288.04,1.449,1.449,0,0,1-.309-.031,1.11,1.11,0,0,1-.232-.077,1,1,0,0,1-.169-.1,1.212,1.212,0,0,1-.122-.1c-.034-.031-.062-.057-.086-.077a.116.116,0,0,0-.066-.031.277.277,0,0,0-.071.007.036.036,0,0,0-.026.026.184.184,0,0,0,0,.053.26.26,0,0,0,.031.105.768.768,0,0,0,.094.143,1.1,1.1,0,0,0,.16.155,1.2,1.2,0,0,0,.224.142,1.362,1.362,0,0,0,.291.1,1.553,1.553,0,0,0,.359.04,2.01,2.01,0,0,0,.278-.017.964.964,0,0,0,.247-.066.608.608,0,0,0,.2-.134.6.6,0,0,0,.132-.226,1.072,1.072,0,0,0,.048-.337.356.356,0,0,0-.039-.151.657.657,0,0,0-.09-.135.723.723,0,0,0-.1-.1.2.2,0,0,0-.079-.041.369.369,0,0,0,.076-.056.879.879,0,0,0,.105-.113.971.971,0,0,0,.1-.162.8.8,0,0,0,.069-.2.727.727,0,0,0,.005-.24h.506v-.374h-2.638v.374Zm2.518,0v-.374h.136v-.313a.612.612,0,0,1,.041-.225.556.556,0,0,1,.105-.174.654.654,0,0,1,.144-.122.722.722,0,0,1,.16-.072.545.545,0,0,1,.149-.023.873.873,0,0,1,.234.031.746.746,0,0,1,.181.078.78.78,0,0,1,.134.1.749.749,0,0,1,.089.1.566.566,0,0,1,.051.078.333.333,0,0,1,.016.031l-.311.2a.2.2,0,0,0-.014-.03.263.263,0,0,0-.051-.065.308.308,0,0,0-.1-.066.428.428,0,0,0-.165-.03.219.219,0,0,0-.118.03.24.24,0,0,0-.094.116.622.622,0,0,0-.037.236v.117h.661v.374h-.665v1.964h-.416v-1.964Zm3.187-.374h-2.226v.374h1.3v1.444a.122.122,0,0,1-.022.079.078.078,0,0,1-.063.027.887.887,0,0,1-.29-.046.7.7,0,0,1-.223-.122.555.555,0,0,1-.144-.178.476.476,0,0,1-.051-.212.039.039,0,0,1,.029-.044.436.436,0,0,1,.1-.007h.206v-.406h-.467a.535.535,0,0,0-.11.011.38.38,0,0,0-.117.045.264.264,0,0,0-.094.1.349.349,0,0,0-.037.167.92.92,0,0,0,.065.335,1.2,1.2,0,0,0,.174.3,1.323,1.323,0,0,0,.251.244,1.2,1.2,0,0,0,.295.164.876.876,0,0,0,.308.06c.043,0,.092,0,.145,0a.72.72,0,0,0,.159-.027.438.438,0,0,0,.147-.075.365.365,0,0,0,.107-.146.626.626,0,0,0,.041-.24v-1.468h.518Z" transform="translate(-463.151 -422.29)" fill="#ffd800" fill-rule="evenodd"/>
        <path id="Path_19451" data-name="Path 19451" d="M503.362,425.8h-2.65v.374h1.732v.172h-.693a.532.532,0,0,0-.234.05.5.5,0,0,0-.172.136.621.621,0,0,0-.107.2.752.752,0,0,0-.036.233,1.185,1.185,0,0,0,.056.355,1.26,1.26,0,0,0,.154.32,1.207,1.207,0,0,0,.235.261,1.065,1.065,0,0,0,.295.175.939.939,0,0,0,.338.064.654.654,0,0,0,.3-.069.532.532,0,0,0,.206-.186.506.506,0,0,0,.076-.272.534.534,0,0,0-.04-.206.527.527,0,0,0-.492-.329.668.668,0,0,0-.175.026,1.267,1.267,0,0,0-.172.062q-.082.037-.148.074c-.043.025-.078.045-.1.062l-.039.026a.21.21,0,0,1-.039-.058.646.646,0,0,1-.037-.1.414.414,0,0,1-.018-.111.287.287,0,0,1,.049-.173.25.25,0,0,1,.123-.087.494.494,0,0,1,.162-.025h.926v-.6h.506V425.8Zm-1.977,2.151a.273.273,0,0,1,.237.127.244.244,0,0,1,.039.135.282.282,0,0,1-.131.238.244.244,0,0,1-.134.039.267.267,0,0,1-.134-.035.28.28,0,0,1-.1-.094.249.249,0,0,1-.04-.132.266.266,0,0,1,.033-.137.272.272,0,0,1,.093-.1.263.263,0,0,1,.135-.04Zm.9-.173a.4.4,0,0,1-.122-.023.807.807,0,0,1-.126-.052.817.817,0,0,1-.1-.06.134.134,0,0,1-.048-.044.633.633,0,0,1,.06-.039c.029-.018.062-.036.1-.054a.977.977,0,0,1,.112-.047.336.336,0,0,1,.1-.02.409.409,0,0,1,.093.009.155.155,0,0,1,.084.046.159.159,0,0,1,.036.113.135.135,0,0,1-.031.081.259.259,0,0,1-.073.065A.165.165,0,0,1,502.288,427.775Z" transform="translate(-468.416 -423.352)" fill="#ffd800" fill-rule="evenodd"/>
      </g>
    </g>
  </g>
</svg>
