<?xml version="1.0" encoding="utf-8"?>
<!-- Generator: Adobe Illustrator 23.0.1, SVG Export Plug-In . SVG Version: 6.00 Build 0)  -->
<svg version="1.1" id="Layer_1" xmlns="http://www.w3.org/2000/svg" xmlns:xlink="http://www.w3.org/1999/xlink" x="0px" y="0px"
	 viewBox="0 0 512 512" style="enable-background:new 0 0 512 512;" xml:space="preserve">
<style type="text/css">
	.st0{fill:#FFFFFF;}
</style>
<g>
	<path d="M206.7,60H60v146.6h146.6L206.7,60L206.7,60z M176.7,176.7H90V90h86.6L176.7,176.7L176.7,176.7z"/>
	<path d="M118.3,118.3h30v30h-30L118.3,118.3z"/>
	<path d="M60,452h146.6V305.3H60L60,452z M90,335.3h86.6V422H90V335.3z"/>
	<path d="M452,320.3h-30V422h-29.4v-22.3h-30V422H326v30h126V320.3z"/>
	<path d="M118.3,363.7h30v30h-30L118.3,363.7z"/>
	<path d="M452,60H305.4v146.6H452V60z M422,176.7h-86.6V90H422V176.7z"/>
	<path d="M363.7,118.3h30v30h-30V118.3z"/>
	<path d="M120,241h86.6v30H120L120,241z"/>
	<path d="M60,241h30v30H60L60,241z"/>
	<path d="M236.7,241h111.6v30H236.7V241z"/>
	<path d="M452,290.3V241h-73.7v30H422v19.3L452,290.3z"/>
	<path d="M241,120h30v86.6h-30L241,120z"/>
	<path d="M241,60h30v30h-30L241,60z"/>
	<path d="M271,392h22.3v-30H271v-56.6h-30V452h55v-30h-25L271,392z"/>
	<path d="M332.6,357.7h30v-22.3H387v-30h-78.7v30h24.3L332.6,357.7z"/>
	<path class="st0" d="M407,0v30h75v75h30V0L407,0z"/>
	<path class="st0" d="M30,30h75V0H0v105h30V30z"/>
	<path class="st0" d="M482,482h-75v30h105V407h-30L482,482z"/>
	<path class="st0" d="M30,407H0v105h105v-30H30V407z"/>
</g>
</svg>
