<?xml version="1.0" encoding="utf-8"?>
<!-- Generator: Adobe Illustrator 23.0.1, SVG Export Plug-In . SVG Version: 6.00 Build 0)  -->
<svg version="1.1" id="Layer_1" xmlns="http://www.w3.org/2000/svg" xmlns:xlink="http://www.w3.org/1999/xlink" x="0px" y="0px"
	 viewBox="0 0 682 682" style="enable-background:new 0 0 682 682;" xml:space="preserve">
<style type="text/css">
	.st0{fill:#FFFFFF;}
</style>
<path class="st0" d="M18.2,113.6c7.3,0,13.2-5.9,13.2-13.2V32h65.9c7.3,0,13.2-5.9,13.2-13.2c0-7.3-5.9-13.2-13.2-13.2H18.2
	C10.9,5.7,5,11.6,5,18.9v81.6C5,107.7,10.9,113.6,18.2,113.6z"/>
<path class="st0" d="M663.8,5.7h-79.1c-7.3,0-13.2,5.9-13.2,13.2c0,7.3,5.9,13.2,13.2,13.2h65.9v68.4c0,7.3,5.9,13.2,13.2,13.2
	c7.3,0,13.2-5.9,13.2-13.2V18.9C677,11.6,671.1,5.7,663.8,5.7z"/>
<path class="st0" d="M97.3,650.8H31.4v-68.4c0-7.3-5.9-13.2-13.2-13.2c-7.3,0-13.2,5.9-13.2,13.2v81.6c0,7.3,5.9,13.2,13.2,13.2
	h79.1c7.3,0,13.2-5.9,13.2-13.2C110.5,656.7,104.5,650.8,97.3,650.8z"/>
<path class="st0" d="M663.8,569.2c-7.3,0-13.2,5.9-13.2,13.2v68.4h-65.9c-7.3,0-13.2,5.9-13.2,13.2c0,7.3,5.9,13.2,13.2,13.2h79.1
	c7.3,0,13.2-5.9,13.2-13.2v-81.6C677,575.1,671.1,569.2,663.8,569.2z"/>
<g>
	<path d="M274.8,82.1H80.2v194.6h194.6L274.8,82.1L274.8,82.1z M235,236.9H120v-115h115L235,236.9L235,236.9z"/>
	<path d="M157.6,159.5h39.8v39.8h-39.8V159.5z"/>
	<path d="M80.2,602.3h194.6V407.7H80.2L80.2,602.3z M120,447.5h115v115H120V447.5z"/>
	<path d="M600.4,427.6h-39.8v134.9h-39v-29.6h-39.8v29.6h-48.6v39.8h167.2V427.6z"/>
	<path d="M157.6,485.1h39.8v39.8h-39.8V485.1z"/>
	<path d="M600.4,82.1H405.8v194.6h194.6V82.1z M560.6,236.9h-115v-115h115V236.9z"/>
	<path d="M483.2,159.5H523v39.8h-39.8V159.5z"/>
	<path d="M159.8,322.3h115v39.8h-115V322.3z"/>
	<path d="M80.2,322.3H120v39.8H80.2V322.3z"/>
	<path d="M314.6,322.3h148.2v39.8H314.6V322.3z"/>
	<path d="M600.4,387.7v-65.5h-97.8v39.8h58v25.7L600.4,387.7z"/>
	<path d="M320.4,161.7h39.8v115h-39.8L320.4,161.7z"/>
	<path d="M320.4,82h39.8v39.8h-39.8L320.4,82z"/>
	<path d="M360.2,522.7h29.6v-39.8h-29.6v-75.2h-39.8v194.6h73v-39.8h-33.2L360.2,522.7z"/>
	<path d="M442,477.1h39.8v-29.6h32.3v-39.8H409.7v39.8H442L442,477.1z"/>
</g>
</svg>
