<svg xmlns="http://www.w3.org/2000/svg" width="30.367" height="23.233" viewBox="0 0 30.367 23.233"><defs><style>.a{fill:#fff;fill-rule:evenodd;}</style></defs><path class="a" d="M12.751,22.342a.947.947,0,1,1,0-1.894h.821a.947.947,0,1,1,0,1.894Zm.694-12.627a.947.947,0,1,1-1.894,0V8.894a.947.947,0,0,1,1.894,0Zm5.808,10.606a.947.947,0,0,1,0-1.894h.821a.947.947,0,1,1,0,1.894ZM-.286,14.2H4.121a.937.937,0,0,0-.019.189v2.841a.947.947,0,1,0,1.894,0V14.387a.936.936,0,0,0-.019-.189h8.352v1.073H9.342a.947.947,0,1,0,0,1.894h5.935a.947.947,0,0,0,.947-.947V14.2h3.535v2.778a.947.947,0,0,0,1.894,0V14.2h6.534a.947.947,0,0,0,0-1.894H23.862V10.473h.947a.947.947,0,0,0,0-1.894H20.074a.947.947,0,1,0,0,1.894h1.894V12.3H16.223V9.841a.947.947,0,1,0-1.894,0V12.3H-.286a.947.947,0,0,0-.947.947.947.947,0,0,0,.947.947ZM16.1,2.581a.947.947,0,0,1,1.894,0V7.569a.947.947,0,1,1-1.894,0Zm-5.619.379h2.147V2.581a.947.947,0,0,1,1.894,0V5.738a.947.947,0,0,1-1.894,0V4.854H10.478V5.3a.947.947,0,1,1-1.894,0V2.581a.947.947,0,0,1,1.894,0ZM2.9,10.41a.947.947,0,0,1,0-1.894H9.91a.947.947,0,0,1,0,1.894ZM23.547,22.973v.947a.947.947,0,0,0,1.894,0V18.238a.947.947,0,1,0-1.894,0v2.841H20.39a.947.947,0,1,0,0,1.894Zm-9.659,1.894h2.841a.947.947,0,0,0,.947-.947V19.059a.947.947,0,0,0-1.894,0v3.914H13.887a.947.947,0,1,0,0,1.894Zm-5.24-5.745a.947.947,0,0,1,1.894,0V21.9a.947.947,0,1,1-1.894,0ZM2.9,19H6.88a.947.947,0,0,1,.947.947V23.92a.947.947,0,0,1-.947.947H2.9a.947.947,0,0,1-.947-.947V19.943A.947.947,0,0,1,2.9,19Zm3.03,1.894H3.849v2.083H5.933ZM21.021,1.634H25a.947.947,0,0,1,.947.947V6.559A.947.947,0,0,1,25,7.506H21.021a.947.947,0,0,1-.947-.947V2.581A.947.947,0,0,1,21.021,1.634Zm3.03,1.894H21.968V5.612h2.083ZM2.9,1.634a.947.947,0,0,0-.947.947V6.559a.947.947,0,0,0,.947.947H6.88a.947.947,0,0,0,.947-.947V2.581a.947.947,0,0,0-.947-.947Zm3.03,1.894V5.612H3.849V3.528Z" transform="translate(1.233 -1.634)"/></svg>