<?xml version="1.0" encoding="utf-8"?>
<!-- Generator: Adobe Illustrator 23.0.1, SVG Export Plug-In . SVG Version: 6.00 Build 0)  -->
<svg version="1.1" id="Layer_3" xmlns="http://www.w3.org/2000/svg" xmlns:xlink="http://www.w3.org/1999/xlink" x="0px" y="0px"
	 viewBox="0 0 512 512" style="enable-background:new 0 0 512 512;" xml:space="preserve">
<g>
	<path d="M16.2,174.3h147.9c5.1,0,9.2-4.1,9.2-9.2V17.2c0-5.1-4.1-9.2-9.2-9.2H16.2C11.1,8,7,12.1,7,17.2v147.9
		C7,170.2,11.1,174.3,16.2,174.3z M25.5,26.5h129.4v129.4H25.5V26.5z"/>
	<path d="M127.1,45H53.2c-5.1,0-9.2,4.1-9.2,9.2v73.9c0,5.1,4.1,9.2,9.2,9.2h73.9c5.1,0,9.2-4.1,9.2-9.2V54.2
		C136.4,49.1,132.2,45,127.1,45z M117.9,118.9H62.4V63.4h55.4V118.9z"/>
	<path d="M16.2,507h147.9c5.1,0,9.2-4.1,9.2-9.2V349.9c0-5.1-4.1-9.2-9.2-9.2H16.2c-5.1,0-9.2,4.1-9.2,9.2v147.9
		C7,502.9,11.1,507,16.2,507z M25.5,359.1h129.4v129.4H25.5V359.1z"/>
	<path d="M127.1,377.6H53.2c-5.1,0-9.2,4.1-9.2,9.2v73.9c0,5.1,4.1,9.2,9.2,9.2h73.9c5.1,0,9.2-4.1,9.2-9.2v-73.9
		C136.4,381.8,132.2,377.6,127.1,377.6z M117.9,451.6H62.4v-55.4h55.4V451.6z"/>
	<path d="M348.9,174.3h147.9c5.1,0,9.2-4.1,9.2-9.2V17.2c0-5.1-4.1-9.2-9.2-9.2H348.9c-5.1,0-9.2,4.1-9.2,9.2v147.9
		C339.7,170.2,343.8,174.3,348.9,174.3z M358.1,26.5h129.4v129.4H358.1V26.5z"/>
	<path d="M459.8,45h-73.9c-5.1,0-9.2,4.1-9.2,9.2v73.9c0,5.1,4.1,9.2,9.2,9.2h73.9c5.1,0,9.2-4.1,9.2-9.2V54.2
		C469,49.1,464.9,45,459.8,45z M450.6,118.9h-55.4V63.4h55.4V118.9z"/>
	<path d="M256.5,8h64.7v18.5h-64.7V8z"/>
	<path d="M228.8,63.4h55.4v37h18.5v-37h18.5V45H238V8h-18.5v46.2C219.5,59.3,223.7,63.4,228.8,63.4z"/>
	<path d="M191.8,118.9h18.5v18.5h-18.5V118.9z"/>
	<path d="M247.3,165.1v-27.7h73.9v-18.5h-73.9v-18.5h18.5V81.9h-73.9v18.5h37v55.4h-37v18.5H238
		C243.1,174.3,247.3,170.2,247.3,165.1z"/>
	<path d="M265.7,155.9h55.4v18.5h-55.4V155.9z"/>
	<path d="M450.6,340.7H506v18.5h-55.4V340.7z"/>
	<path d="M432.1,340.7h-18.5v46.2c0,5.1,4.1,9.2,9.2,9.2H469v37h18.5v-37H506v-18.5h-73.9V340.7z"/>
	<path d="M376.6,451.6h18.5V470h-18.5V451.6z"/>
	<path d="M432.1,433.1h18.5v-18.5h-73.9v18.5h37v55.4h-37V507h46.2c5.1,0,9.2-4.1,9.2-9.2V470H506v-18.5h-73.9V433.1z"/>
	<path d="M450.6,488.5H506V507h-55.4V488.5z"/>
	<path d="M80.9,414.6h18.5v18.5H80.9V414.6z"/>
	<path d="M80.9,81.9h18.5v18.5H80.9V81.9z"/>
	<path d="M413.6,81.9h18.5v18.5h-18.5V81.9z"/>
	<path d="M321.2,433.1v-18.5h-55.4v-64.7c0-5.1-4.1-9.2-9.2-9.2h-64.7v18.5h18.5v27.7c0,5.1,4.1,9.2,9.2,9.2h27.7v18.5h-55.4v18.5
		h55.4v18.5h-27.7c-5.1,0-9.2,4.1-9.2,9.2v27.7h-18.5V507h64.7c5.1,0,9.2-4.1,9.2-9.2v-64.7H321.2z M228.8,377.6v-18.5h18.5v18.5
		H228.8z M228.8,488.5V470h18.5v18.5H228.8z"/>
	<path d="M284.2,460.8V507h18.5v-37h18.5v37h18.5v-37h18.5v-18.5h-64.7C288.4,451.6,284.2,455.7,284.2,460.8z"/>
	<path d="M348.9,359.1h-46.2v-18.5h-18.5v55.4h18.5v-18.5h37v55.4h18.5v-64.7C358.1,363.3,354,359.1,348.9,359.1z"/>
	<path d="M376.6,340.7h18.5v55.4h-18.5V340.7z"/>
	<path d="M450.6,192.8H506v18.5h-55.4V192.8z"/>
	<path d="M432.1,192.8h-18.5V239c0,5.1,4.1,9.2,9.2,9.2h9.2v18.5h-73.9v18.5h18.5v18.5h-18.5v18.5h27.7c5.1,0,9.2-4.1,9.2-9.2v-27.7
		h18.5v27.7c0,5.1,4.1,9.2,9.2,9.2H506v-18.5h-73.9v-18.5h9.2c5.1,0,9.2-4.1,9.2-9.2v-27.7H469v37h18.5v-37H506v-18.5h-73.9V192.8z"
		/>
	<path d="M376.6,192.8h18.5v55.4h-18.5V192.8z"/>
	<path d="M265.7,192.8h55.4v18.5h-55.4V192.8z"/>
	<path d="M228.8,192.8V239c0,5.1,4.1,9.2,9.2,9.2h9.2v73.9h18.5v-73.9h18.5v37h18.5v-37h18.5v-18.5h-73.9v-37H228.8z"/>
	<path d="M80.9,312.9V202.1c0-5.1-4.1-9.2-9.2-9.2H7v18.5h18.5V239c0,5.1,4.1,9.2,9.2,9.2h27.7v55.4H7v18.5h64.7
		C76.8,322.2,80.9,318,80.9,312.9z M44,229.8v-18.5h18.5v18.5H44z"/>
	<path d="M99.4,192.8v55.4h18.5v-18.5h37v55.4h18.5v-64.7c0-5.1-4.1-9.2-9.2-9.2h-46.2v-18.5H99.4z"/>
	<path d="M191.8,192.8h18.5v55.4h-18.5V192.8z"/>
	<path d="M117.9,266.7H99.4v46.2c0,5.1,4.1,9.2,9.2,9.2h92.4c5.1,0,9.2-4.1,9.2-9.2v-46.2h-18.5v37h-73.9V266.7z"/>
	<path d="M127.1,239h18.5v55.4h-18.5V239z"/>
	<path d="M219.5,257.5H238v64.7h-18.5V257.5z"/>
	<path d="M321.2,303.7h-37v18.5h46.2c5.1,0,9.2-4.1,9.2-9.2v-46.2h-18.5V303.7z"/>
	<path d="M339.7,229.8h18.5v18.5h-18.5V229.8z"/>
	<path d="M339.7,192.8h18.5v18.5h-18.5V192.8z"/>
</g>
</svg>
