<svg xmlns="http://www.w3.org/2000/svg" width="27.999" height="27.999" viewBox="0 0 27.999 27.999"><defs><style>.a{fill:#007c3d;fill-rule:evenodd;}</style></defs><path class="a" d="M-.379,2.246a.82.82,0,0,1-.82.82.82.82,0,0,1-.82-.82V-1.2a.82.82,0,0,1,.82-.82H2.246a.82.82,0,0,1,.82.82.82.82,0,0,1-.82.82H-.379Zm11.32,17.609a.82.82,0,1,1,0-1.641h.711a.82.82,0,1,1,0,1.641Zm.6-10.937a.82.82,0,1,1-1.641,0V8.206a.82.82,0,0,1,1.641,0ZM16.573,18.1a.82.82,0,0,1,0-1.641h.711a.82.82,0,0,1,0,1.641ZM-.352,12.8H3.465a.811.811,0,0,0-.016.164v2.461a.82.82,0,1,0,1.641,0V12.964a.811.811,0,0,0-.016-.164h7.235v.93H7.988a.82.82,0,1,0,0,1.641h5.14a.82.82,0,0,0,.82-.82V12.8h3.062v2.406a.82.82,0,1,0,1.641,0V12.8h5.66a.82.82,0,0,0,0-1.641H20.565V9.573h.82a.82.82,0,0,0,0-1.641h-4.1a.82.82,0,0,0,0,1.641h1.641v1.586H13.949V9.027a.82.82,0,0,0-1.641,0v2.133H-.352a.82.82,0,0,0-.82.82.82.82,0,0,0,.82.82ZM13.839,2.738a.82.82,0,1,1,1.641,0v4.32a.82.82,0,1,1-1.641,0Zm-4.867.328h1.859V2.738a.82.82,0,0,1,1.641,0V5.472a.82.82,0,0,1-1.641,0V4.706H8.972v.383a.82.82,0,0,1-1.641,0V2.738a.82.82,0,0,1,1.641,0ZM2.41,9.519a.82.82,0,1,1,0-1.641H8.48a.82.82,0,1,1,0,1.641ZM20.292,20.4v.82a.82.82,0,0,0,1.641,0V16.3a.82.82,0,1,0-1.641,0v2.461H17.558a.82.82,0,1,0,0,1.641Zm-8.367,1.641h2.461a.82.82,0,0,0,.82-.82V17.011a.82.82,0,0,0-1.641,0V20.4H11.925a.82.82,0,1,0,0,1.641ZM7.386,17.065a.82.82,0,0,1,1.641,0v2.406a.82.82,0,0,1-1.641,0ZM2.41,16.956H5.855a.82.82,0,0,1,.82.82v3.445a.82.82,0,0,1-.82.82H2.41a.82.82,0,0,1-.82-.82V17.776a.82.82,0,0,1,.82-.82ZM5.035,18.6H3.23v1.8h1.8ZM18.1,1.917H21.55a.82.82,0,0,1,.82.82V6.183a.82.82,0,0,1-.82.82H18.1a.82.82,0,0,1-.82-.82V2.738A.82.82,0,0,1,18.1,1.917ZM20.73,3.558h-1.8v1.8h1.8ZM2.41,1.917a.82.82,0,0,0-.82.82V6.183A.82.82,0,0,0,2.41,7H5.855a.82.82,0,0,0,.82-.82V2.738a.82.82,0,0,0-.82-.82ZM5.035,3.558v1.8H3.23v-1.8Zm19.3,18.156a.82.82,0,0,1,1.641,0v3.445a.82.82,0,0,1-.82.82H21.714a.82.82,0,0,1,0-1.641h2.625Zm-26.358,0v3.445a.82.82,0,0,0,.82.82H2.246a.82.82,0,1,0,0-1.641H-.379V21.714a.82.82,0,0,0-.82-.82.82.82,0,0,0-.82.82Zm28-19.468V-1.2a.82.82,0,0,0-.82-.82H21.714a.82.82,0,0,0-.82.82.82.82,0,0,0,.82.82h2.625V2.246a.82.82,0,1,0,1.641,0Zm0,0" transform="translate(2.02 2.02)"/></svg>