<svg id="Group_40290" data-name="Group 40290" xmlns="http://www.w3.org/2000/svg" width="36.378" height="36.377" viewBox="0 0 36.378 36.377">
  <path id="Path_44152" data-name="Path 44152" d="M16.834,28.419a1.066,1.066,0,0,1-.065-2.131h.989a1.066,1.066,0,1,1,.065,2.131h-.989Zm.782-14.21a1.066,1.066,0,1,1-2.131.065c0-.021,0-.043,0-.065v-.928a1.066,1.066,0,0,1,2.131,0Zm6.536,11.936a1.066,1.066,0,0,1,0-2.131h.924a1.066,1.066,0,0,1,.065,2.131h-.989ZM2.167,19.254H7.126a1.083,1.083,0,0,0-.021.213v3.2a1.066,1.066,0,0,0,2.131.065c0-.021,0-.043,0-.065v-3.2a1.083,1.083,0,0,0-.021-.213h9.4v1.208H13a1.066,1.066,0,0,0-.065,2.131h6.744a1.066,1.066,0,0,0,1.066-1.066V19.254h3.979v3.127a1.066,1.066,0,0,0,2.131,0V19.254H34.21a1.066,1.066,0,0,0,0-2.131H29.343v-2.06h1.066a1.066,1.066,0,0,0,0-2.131H25.08a1.066,1.066,0,0,0-.065,2.131c.021,0,.043,0,.065,0h2.131v2.06H20.746V14.351a1.066,1.066,0,0,0-2.131-.065c0,.021,0,.043,0,.065v2.771H2.167A1.066,1.066,0,0,0,1.1,18.188h0a1.066,1.066,0,0,0,1.066,1.066ZM20.6,6.181a1.066,1.066,0,0,1,2.131,0v5.613a1.066,1.066,0,0,1-2.131.065c0-.021,0-.043,0-.065Zm-6.323.426H16.7V6.181a1.066,1.066,0,0,1,2.131,0V9.733a1.066,1.066,0,0,1-2.131,0V8.739H14.28v.5a1.066,1.066,0,0,1-2.131.065c0-.021,0-.043,0-.065V6.181a1.066,1.066,0,0,1,2.131,0ZM5.754,14.991a1.066,1.066,0,0,1,0-2.131h7.887a1.066,1.066,0,0,1,0,2.131ZM28.987,29.129v1.066a1.066,1.066,0,0,0,2.131,0V23.8a1.066,1.066,0,1,0-2.131-.065c0,.021,0,.043,0,.065V27H25.434a1.066,1.066,0,0,0-.065,2.131h.065Zm-10.87,2.132h3.2a1.066,1.066,0,0,0,1.066-1.066V24.724a1.066,1.066,0,0,0-2.131,0v4.4H18.117a1.066,1.066,0,1,0-.065,2.131c.021,0,.043,0,.065,0Zm-5.9-6.465a1.066,1.066,0,0,1,2.131,0v3.126a1.066,1.066,0,0,1-2.131,0Zm-6.465-.142h4.482A1.066,1.066,0,0,1,11.3,25.72V30.2a1.067,1.067,0,0,1-1.066,1.065H5.755a1.066,1.066,0,0,1-1.066-1.066V25.719a1.066,1.066,0,0,1,1.066-1.066Zm3.413,2.127H6.82v2.345H9.165Zm16.98-21.67h4.476a1.066,1.066,0,0,1,1.066,1.066v4.48a1.066,1.066,0,0,1-1.066,1.066H26.146a1.066,1.066,0,0,1-1.066-1.066V6.181a1.066,1.066,0,0,1,1.066-1.066h0Zm3.41,2.131H27.211V9.591h2.345ZM5.755,5.115A1.066,1.066,0,0,0,4.689,6.181h0v4.476a1.066,1.066,0,0,0,1.066,1.066h4.479A1.066,1.066,0,0,0,11.3,10.657V6.181a1.066,1.066,0,0,0-1.062-1.066Zm3.41,2.131V9.591H6.82V7.247Z" fill="#fff" fill-rule="evenodd"/>
  <path id="Path_44153" data-name="Path 44153" d="M2.132,5.542A1.066,1.066,0,0,1,0,5.542V1.066A1.066,1.066,0,0,1,1.066,0H5.542a1.066,1.066,0,0,1,0,2.132H2.132ZM34.246,30.835a1.066,1.066,0,1,1,2.131-.065c0,.021,0,.043,0,.065v4.476a1.066,1.066,0,0,1-1.066,1.066H30.835a1.066,1.066,0,0,1,0-2.131h3.41ZM0,30.835v4.476a1.067,1.067,0,0,0,1.065,1.066H5.542a1.066,1.066,0,0,0,0-2.131H2.132v-3.41a1.066,1.066,0,0,0-1.065-1.067h0A1.066,1.066,0,0,0,0,30.835ZM36.377,5.542V1.066A1.066,1.066,0,0,0,35.311,0H30.835a1.066,1.066,0,0,0,0,2.132h3.41v3.41a1.066,1.066,0,0,0,2.131,0Z" fill="#fff" fill-rule="evenodd"/>
</svg>
