<svg xmlns="http://www.w3.org/2000/svg" width="18" height="18" viewBox="0 0 18 18"><defs><style>.a{fill:#fff;}</style></defs><path class="a" d="M236.165,363.417a.749.749,0,1,1-.749-.749A.749.749,0,0,1,236.165,363.417Zm0,0" transform="translate(-226.417 -349.916)"/><path class="a" d="M9,18a9,9,0,1,1,9-9A9.01,9.01,0,0,1,9,18ZM9,1.125A7.875,7.875,0,1,0,16.875,9,7.884,7.884,0,0,0,9,1.125Zm0,0"/><path class="a" d="M168.514,93.381a.562.562,0,0,1-.562-.562v-.756a1.688,1.688,0,0,1,1.125-1.589,2.323,2.323,0,0,0,1.5-1.96,2.059,2.059,0,1,0-4.118,0,.562.562,0,1,1-1.123,0,3.182,3.182,0,1,1,6.364,0,3.445,3.445,0,0,1-2.245,3.02.562.562,0,0,0-.375.53v.756A.562.562,0,0,1,168.514,93.381Zm0,0" transform="translate(-159.514 -82.328)"/></svg>