<svg xmlns="http://www.w3.org/2000/svg" xmlns:xlink="http://www.w3.org/1999/xlink" x="0px" y="0px" viewBox="0 0 24 24"
  style="enable-background:new 0 0 24 24;" xml:space="preserve">
  <g transform="translate(643 1998)">
    <rect style="opacity:0" x="-647.6" y="-2004.1" />
    <path style="opacity:0" d="M-644.8-2001.3h27.7v27.7h-27.7V-2001.3z" />
    <g transform="translate(-639.339 -1993.339)">
      <path d="M19-4.3H-2.3c-0.5,0-0.9,0.4-0.9,0.9v17.7c0,0.5,0.4,0.9,0.9,0.9h6.7l3.3,3.3c0.4,0.4,0.9,0.4,1.3,0
													c0,0,0,0,0,0l3.3-3.3H19c0.5,0,0.9-0.4,0.9-0.9V-3.4C19.9-3.9,19.5-4.3,19-4.3z M18.1,13.4h-6.1c-0.2,0-0.5,0.1-0.6,0.3l-3,3l-3-3
													c-0.2-0.2-0.4-0.3-0.6-0.3h-6.1V-2.5h19.5L18.1,13.4z M4.9,7.1L4.4,10c-0.1,0.5,0.3,1,0.7,1c0.2,0,0.4,0,0.6-0.1l2.6-1.4l2.6,1.4
													c0.4,0.2,1,0.1,1.2-0.4c0.1-0.2,0.1-0.4,0.1-0.6l-0.5-2.9L13.9,5c0.4-0.3,0.4-0.9,0-1.3c-0.1-0.1-0.3-0.2-0.5-0.3L10.5,3L9.1,0.4
													C8.9-0.1,8.4-0.3,7.9,0C7.8,0,7.6,0.2,7.5,0.4L6.2,3L3.3,3.5C2.8,3.5,2.5,4,2.5,4.5c0,0.2,0.1,0.4,0.3,0.5L4.9,7.1z M6.9,4.7
													c0.3,0,0.5-0.2,0.7-0.5l0.7-1.4l0.7,1.4c0.1,0.3,0.4,0.5,0.7,0.5L11.3,5l-1.2,1.1C10,6.3,9.9,6.6,9.9,6.9l0.3,1.6L8.8,7.7
													c-0.3-0.1-0.6-0.1-0.8,0L6.5,8.5l0.3-1.6c0.1-0.3,0-0.6-0.3-0.8L5.3,5L6.9,4.7z" />
    </g>
  </g>
</svg>