<svg xmlns="http://www.w3.org/2000/svg" width="33.857" height="22.572" viewBox="0 0 33.857 22.572">
  <g id="Group_39329" data-name="Group 39329" transform="translate(0 0)">
    <g id="valid" transform="translate(0 0)">
      <path id="Path_43224" data-name="Path 43224" d="M.5,7.3A3.769,3.769,0,0,1,4.237,3.5H30.62a3.769,3.769,0,0,1,3.738,3.8v8.292a.806.806,0,0,1-1.612,0V7.3A2.157,2.157,0,0,0,30.62,5.112H4.237A2.157,2.157,0,0,0,2.112,7.3V22.271a2.157,2.157,0,0,0,2.125,2.188H29.252a.806.806,0,1,1,0,1.612H4.237A3.769,3.769,0,0,1,.5,22.271Z" transform="translate(-0.5 -3.5)" fill="#007c3d" fill-rule="evenodd"/>
      <path id="Path_43225" data-name="Path 43225" d="M.5,7.306A.806.806,0,0,1,1.306,6.5H33.551a.806.806,0,1,1,0,1.612H1.306A.806.806,0,0,1,.5,7.306Z" transform="translate(-0.5 -1.663)" fill="#007c3d" fill-rule="evenodd"/>
    </g>
    <g id="valid-2" data-name="valid" transform="translate(33.857 22.571) rotate(180)">
      <path id="Path_43224-2" data-name="Path 43224" d="M0,3.8A3.769,3.769,0,0,1,3.737,0H30.12a3.769,3.769,0,0,1,3.738,3.8v8.292a.806.806,0,0,1-1.612,0V3.8A2.157,2.157,0,0,0,30.12,1.612H3.737A2.157,2.157,0,0,0,1.612,3.8V18.771a2.157,2.157,0,0,0,2.125,2.188h19.64a.806.806,0,0,1,0,1.612H3.737A3.769,3.769,0,0,1,0,18.771Z" fill="#007c3d" fill-rule="evenodd"/>
    </g>
    <path id="XMLID_168_" d="M216.984,357.607a.639.639,0,0,0-.873-.234l-1.256.725v-1.45a.639.639,0,0,0-1.279,0v1.45l-1.256-.725a.639.639,0,1,0-.639,1.107l1.256.725-1.256.725a.639.639,0,1,0,.639,1.107l1.256-.725v1.45a.639.639,0,0,0,1.279,0v-1.45l1.256.725a.639.639,0,1,0,.639-1.107l-1.256-.725,1.256-.725A.639.639,0,0,0,216.984,357.607Z" transform="translate(-197.287 -346.418)" fill="#007c3d"/>
    <path id="XMLID_195_" d="M79.984,357.607a.639.639,0,0,0-.873-.234l-1.256.725v-1.45a.639.639,0,0,0-1.279,0v1.45l-1.256-.725a.639.639,0,0,0-.639,1.107l1.256.725-1.256.725a.639.639,0,1,0,.639,1.107l1.256-.725v1.45a.639.639,0,1,0,1.279,0v-1.45l1.256.725a.639.639,0,0,0,.639-1.107l-1.256-.725,1.256-.725A.639.639,0,0,0,79.984,357.607Z" transform="translate(-69.047 -346.418)" fill="#007c3d"/>
    <path id="XMLID_859_" d="M348.447,360.8a.639.639,0,0,0,.873.234l1.256-.725v1.45a.639.639,0,1,0,1.279,0v-1.45l1.256.725a.639.639,0,0,0,.639-1.107l-1.256-.725,1.256-.725a.639.639,0,0,0-.639-1.107l-1.256.725v-1.45a.639.639,0,0,0-1.279,0v1.45l-1.256-.725a.639.639,0,0,0-.639,1.107l1.256.725-1.256.725A.639.639,0,0,0,348.447,360.8Z" transform="translate(-325.527 -346.418)" fill="#007c3d"/>
  </g>
</svg>
