<?xml version="1.0" encoding="utf-8"?>
<!-- Generator: Adobe Illustrator 23.0.1, SVG Export Plug-In . SVG Version: 6.00 Build 0)  -->
<svg version="1.1" id="Layer_1" xmlns="http://www.w3.org/2000/svg" xmlns:xlink="http://www.w3.org/1999/xlink" x="0px" y="0px"
	 viewBox="0 0 16 16" style="enable-background:new 0 0 16 16;" xml:space="preserve">
<style type="text/css">
	.st0{fill:#50BD59;}
</style>
<g id="receive-money" transform="translate(-12.613 -8.996)">
	<g id="right-arrow_1_" transform="translate(28.797 8.996) rotate(90)">
		<g id="Group_37754_1_">
			<path id="Path_43227_1_" class="st0" d="M7,5.6L7,5.6L4,8.5c-0.2,0.2-0.6,0.2-0.8,0C3,8.3,3,7.9,3.2,7.7l0,0l2-2l-4.4,0
				c-0.3,0-0.6-0.3-0.6-0.6c0-0.3,0.3-0.6,0.6-0.6l4.4,0l-2-2C3,2.4,3,2.1,3.2,1.9s0.6-0.2,0.8,0L7,4.8l0,0C7.2,5,7.2,5.4,7,5.6z"/>
		</g>
	</g>
	<path id="Path_43235_1_" class="st0" d="M14.3,15.1v1.1h2.2c0.8-0.1,1.6,0.5,1.8,1.3h-4v1.1h4c-0.2,0.8-0.9,1.3-1.7,1.3h-2.3v1.1
		h1.6l2.6,3.8h1.4l-2.8-3.9c1.3-0.1,2.3-1,2.5-2.3h1.4v-1.1h-1.4c-0.1-0.5-0.3-0.9-0.7-1.3h2.1v-1.1H14.3z"/>
</g>
</svg>
