<svg id="recent-transaction" xmlns="http://www.w3.org/2000/svg" width="68.323" height="48" viewBox="0 0 68.323 48">
  <g id="Group_10274" data-name="Group 10274">
    <path id="Union_22" data-name="Union 22" d="M13176.751-12854.574a.752.752,0,0,1-.75-.751v-28.926a.75.75,0,0,1,.75-.75h49.172a.75.75,0,0,1,.75.75v28.926a.752.752,0,0,1-.75.751Zm.751-1.5h47.67v-27.425h-47.67Zm39.328-2.311a6.208,6.208,0,0,1,6.2-6.2.754.754,0,0,1,.75.75.751.751,0,0,1-.75.75,4.7,4.7,0,0,0-4.7,4.7.75.75,0,0,1-.75.751A.751.751,0,0,1,13216.83-12858.386Zm-32.487,0a4.7,4.7,0,0,0-4.7-4.7.749.749,0,0,1-.75-.75.751.751,0,0,1,.75-.75,6.207,6.207,0,0,1,6.2,6.2.751.751,0,0,1-.751.751A.75.75,0,0,1,13184.343-12858.386Zm8.6-11.8a8.184,8.184,0,0,1,8.182-8.183,8.184,8.184,0,0,1,8.183,8.183,8.184,8.184,0,0,1-8.183,8.183A8.184,8.184,0,0,1,13192.947-12870.189Zm1.5,0a6.69,6.69,0,0,0,6.682,6.683,6.69,6.69,0,0,0,6.683-6.683,6.689,6.689,0,0,0-6.683-6.682A6.689,6.689,0,0,0,13194.447-12870.189Zm22.217-11.336a.75.75,0,0,1,.751-.75.75.75,0,0,1,.75.75,4.874,4.874,0,0,0,4.866,4.87.749.749,0,0,1,.75.75.749.749,0,0,1-.75.75A6.376,6.376,0,0,1,13216.664-12881.525Zm-37.769,5.62a.749.749,0,0,1,.75-.75,4.874,4.874,0,0,0,4.866-4.87.75.75,0,0,1,.751-.75.749.749,0,0,1,.75.75,6.378,6.378,0,0,1-6.367,6.37A.749.749,0,0,1,13178.9-12875.905Z" transform="translate(-13168.81 12893.849)" fill="#007c3d"/>
    <path id="Union_22_-_Outline" data-name="Union 22 - Outline" d="M13225.923-12854.074h-49.172a1.252,1.252,0,0,1-1.25-1.251v-28.926a1.251,1.251,0,0,1,1.25-1.25h49.172a1.251,1.251,0,0,1,1.25,1.25v28.926A1.252,1.252,0,0,1,13225.923-12854.074Zm-49.172-30.427a.25.25,0,0,0-.25.25v28.926a.251.251,0,0,0,.25.251h49.172a.254.254,0,0,0,.25-.251v-28.926a.25.25,0,0,0-.25-.25Zm48.921,28.926H13177V-12884h48.67Zm-47.67-1h46.67V-12883H13178Zm39.579-.56a1.253,1.253,0,0,1-1.251-1.251,6.708,6.708,0,0,1,6.7-6.7,1.251,1.251,0,0,1,1.25,1.25,1.251,1.251,0,0,1-1.25,1.25,4.2,4.2,0,0,0-4.2,4.2A1.252,1.252,0,0,1,13217.581-12857.135Zm5.45-6.951a5.707,5.707,0,0,0-5.7,5.7.251.251,0,0,0,.251.251.251.251,0,0,0,.25-.251,5.206,5.206,0,0,1,5.2-5.2.25.25,0,0,0,.25-.25A.253.253,0,0,0,13223.031-12864.086Zm-37.938,6.951a1.252,1.252,0,0,1-1.25-1.251,4.2,4.2,0,0,0-4.2-4.2,1.251,1.251,0,0,1-1.25-1.25,1.251,1.251,0,0,1,1.25-1.25,6.707,6.707,0,0,1,6.7,6.7A1.253,1.253,0,0,1,13185.093-12857.135Zm-5.447-6.951a.25.25,0,0,0-.25.25.25.25,0,0,0,.25.25,5.2,5.2,0,0,1,5.2,5.2.251.251,0,0,0,.25.251.251.251,0,0,0,.251-.251A5.706,5.706,0,0,0,13179.646-12864.086Zm21.483,2.579a8.692,8.692,0,0,1-8.682-8.683,8.692,8.692,0,0,1,8.682-8.683,8.692,8.692,0,0,1,8.683,8.683A8.692,8.692,0,0,1,13201.129-12861.507Zm0-16.365a7.691,7.691,0,0,0-7.682,7.683,7.691,7.691,0,0,0,7.682,7.683,7.691,7.691,0,0,0,7.683-7.683A7.691,7.691,0,0,0,13201.129-12877.872Zm0,14.865a7.19,7.19,0,0,1-7.182-7.183,7.19,7.19,0,0,1,7.182-7.182,7.19,7.19,0,0,1,7.183,7.182A7.19,7.19,0,0,1,13201.129-12863.007Zm0-13.364a6.189,6.189,0,0,0-6.182,6.182,6.189,6.189,0,0,0,6.182,6.183,6.19,6.19,0,0,0,6.183-6.183A6.189,6.189,0,0,0,13201.129-12876.371Zm21.9,1.716a6.877,6.877,0,0,1-6.867-6.87,1.252,1.252,0,0,1,1.251-1.25,1.251,1.251,0,0,1,1.25,1.25,4.373,4.373,0,0,0,4.366,4.37,1.251,1.251,0,0,1,1.25,1.25A1.251,1.251,0,0,1,13223.031-12874.655Zm-5.616-7.12a.251.251,0,0,0-.251.25,5.875,5.875,0,0,0,5.867,5.87.25.25,0,0,0,.25-.25.25.25,0,0,0-.25-.25,5.374,5.374,0,0,1-5.366-5.37A.25.25,0,0,0,13217.415-12881.775Zm-37.77,7.12a1.251,1.251,0,0,1-1.25-1.25,1.251,1.251,0,0,1,1.25-1.25,4.373,4.373,0,0,0,4.366-4.37,1.252,1.252,0,0,1,1.251-1.25,1.251,1.251,0,0,1,1.25,1.25A6.877,6.877,0,0,1,13179.646-12874.655Zm5.617-7.12a.251.251,0,0,0-.251.25,5.374,5.374,0,0,1-5.366,5.37.25.25,0,0,0-.25.25.25.25,0,0,0,.25.25,5.875,5.875,0,0,0,5.867-5.87A.25.25,0,0,0,13185.263-12881.775Z" transform="translate(-13168.81 12893.849)" fill="#007c3d"/>
    <path id="Op_component_9" data-name="Op component 9" d="M536.406,247.139a.976.976,0,0,0-.312-.744l-3.118-3.191-1.455,1.489,1.351,1.382H518.735V248.2h14.137l-1.351,1.383,1.455,1.489,3.118-3.191A.976.976,0,0,0,536.406,247.139Z" transform="translate(-468.082 -203.074)" fill="#007c3d"/>
    <path id="Op_component_10" data-name="Op component 10" d="M483.372,212.931a.976.976,0,0,0,.312.745l3.118,3.191,1.455-1.489-1.351-1.383h14.137v-2.127H486.906l1.351-1.383L486.8,209l-3.118,3.191A.976.976,0,0,0,483.372,212.931Z" transform="translate(-483.372 -208.996)" fill="#007c3d"/>
    <rect id="Op_component_11" data-name="Op component 11" width="2.081" height="2.133" transform="translate(21.249 2.867)" fill="#007c3d"/>
    <rect id="Op_component_12" data-name="Op component 12" width="2.081" height="2.133" transform="translate(25.711 2.867)" fill="#007c3d"/>
    <rect id="Op_component_13" data-name="Op component 13" width="2.081" height="2.133" transform="translate(45.004 43)" fill="#007c3d"/>
    <rect id="Op_component_14" data-name="Op component 14" width="2.081" height="2.133" transform="translate(40.528 43)" fill="#007c3d"/>
  </g>
</svg>
