<svg xmlns="http://www.w3.org/2000/svg" width="50" height="48.195" viewBox="0 0 50 48.195">
  <g id="recharge" transform="translate(-2.5 -3.402)">
    <g id="Group_39931" data-name="Group 39931">
      <path id="Path_43906" data-name="Path 43906" d="M35.423,36.431v12.2A1.907,1.907,0,0,1,33.569,50.6H5.354A1.913,1.913,0,0,1,3.5,48.634V6.356A1.911,1.911,0,0,1,5.354,4.4H33.569a1.9,1.9,0,0,1,1.854,1.954V17.385" fill="none" stroke="#007c3d" stroke-linecap="round" stroke-linejoin="round" stroke-miterlimit="10" stroke-width="2"/>
      <line id="Line_1521" data-name="Line 1521" x2="31.916" transform="translate(3.504 11.55)" fill="none" stroke="#007c3d" stroke-linecap="round" stroke-linejoin="round" stroke-miterlimit="10" stroke-width="2"/>
      <line id="Line_1522" data-name="Line 1522" x2="31.916" transform="translate(3.504 42.267)" fill="none" stroke="#007c3d" stroke-linecap="round" stroke-linejoin="round" stroke-miterlimit="10" stroke-width="2"/>
      <path id="Path_43907" data-name="Path 43907" d="M49.4,36.427H25.037a2.1,2.1,0,0,1-2.1-2.1V19.491a2.1,2.1,0,0,1,2.1-2.1H49.4a2.1,2.1,0,0,1,2.1,2.1V34.325A2.1,2.1,0,0,1,49.4,36.427Z" fill="none" stroke="#007c3d" stroke-linecap="round" stroke-linejoin="round" stroke-miterlimit="10" stroke-width="2"/>
      <rect id="Rectangle_18666" data-name="Rectangle 18666" width="28.565" height="4.166" transform="translate(22.935 20.96)" fill="none" stroke="#007c3d" stroke-linecap="round" stroke-linejoin="round" stroke-miterlimit="10" stroke-width="2"/>
      <circle id="Ellipse_2642" data-name="Ellipse 2642" cx="2.194" cy="2.194" r="2.194" transform="translate(44.233 28.813)" fill="none" stroke="#007c3d" stroke-linecap="round" stroke-linejoin="round" stroke-miterlimit="10" stroke-width="2"/>
      <path id="Path_43908" data-name="Path 43908" d="M44.852,32.528a2.193,2.193,0,1,1,0-3.041" fill="none" stroke="#007c3d" stroke-linecap="round" stroke-linejoin="round" stroke-miterlimit="10" stroke-width="2"/>
      <line id="Line_1523" data-name="Line 1523" x2="9.227" transform="translate(25.813 29.748)" fill="none" stroke="#007c3d" stroke-linecap="round" stroke-linejoin="round" stroke-miterlimit="10" stroke-width="2"/>
      <line id="Line_1524" data-name="Line 1524" x2="9.227" transform="translate(25.813 33.202)" fill="none" stroke="#007c3d" stroke-linecap="round" stroke-linejoin="round" stroke-miterlimit="10" stroke-width="2"/>
      <line id="Line_1525" data-name="Line 1525" x2="4.652" transform="translate(17.136 46.216)" fill="none" stroke="#007c3d" stroke-linecap="round" stroke-linejoin="round" stroke-miterlimit="10" stroke-width="2"/>
      <g id="Group_39930" data-name="Group 39930">
        <line id="Line_1526" data-name="Line 1526" transform="translate(14.77 7.84)" fill="none" stroke="#007c3d" stroke-linecap="round" stroke-linejoin="round" stroke-miterlimit="10" stroke-width="2"/>
        <line id="Line_1527" data-name="Line 1527" x2="5.955" transform="translate(18.199 7.84)" fill="none" stroke="#007c3d" stroke-linecap="round" stroke-linejoin="round" stroke-miterlimit="10" stroke-width="2"/>
      </g>
    </g>
  </g>
</svg>
