<svg xmlns="http://www.w3.org/2000/svg" width="41.272" height="49.279" viewBox="0 0 41.272 49.279">
  <g id="Group_39932" data-name="Group 39932" transform="translate(-344.4 -190.764)">
    <path id="Path_43244" data-name="Path 43244" d="M367.9,199.184h8.614a15.744,15.744,0,0,1,2.8.242,7.018,7.018,0,0,1,2.381.862,4.6,4.6,0,0,1,1.656,1.726,5.725,5.725,0,0,1,.622,2.829,5.219,5.219,0,0,1-1.863,4.489,30.994,30.994,0,0,1,8.076,2.486,10.016,10.016,0,0,0,4.277-8.838,13.233,13.233,0,0,0-1.139-5.8,9.481,9.481,0,0,0-3.21-3.761,13.9,13.9,0,0,0-4.968-2.035,30.772,30.772,0,0,0-6.42-.621H367.9Z" transform="translate(-11.138)" fill="#fdb933"/>
    <path id="Path_43245" data-name="Path 43245" d="M366.21,210.71H355.236V199.184h0v-8.42H344.4v49.279h23.881a25.189,25.189,0,0,0,6.454-.828,17.236,17.236,0,0,0,5.589-2.553,12.6,12.6,0,0,0,3.9-4.451,13.577,13.577,0,0,0,1.449-6.456,14.2,14.2,0,0,0-2.243-7.9c-2.777-4.3-8.8-7.142-17.22-7.142m7.972,17.6a5.192,5.192,0,0,1-1.76,1.968,7.488,7.488,0,0,1-2.554,1.036,14.6,14.6,0,0,1-3.037.309h-11.6V218.095h11.8a9.154,9.154,0,0,1,5.661,1.622q2.137,1.622,2.137,5.419a6.768,6.768,0,0,1-.654,3.173" fill="#f47920"/>
  </g>
</svg>
