<svg xmlns="http://www.w3.org/2000/svg" xmlns:xlink="http://www.w3.org/1999/xlink" width="35" height="105" viewBox="0 0 35 105">
  <defs>
    <clipPath id="clip-recharge-bills">
      <rect width="35" height="105"/>
    </clipPath>
  </defs>
  <g id="recharge-bills" clip-path="url(#clip-recharge-bills)">
    <g id="Group_39971" data-name="Group 39971" opacity="0">
      <rect id="Rectangle_18669" data-name="Rectangle 18669" width="35" height="35" fill="#e3e3e3"/>
      <rect id="Rectangle_18672" data-name="Rectangle 18672" width="35" height="35" transform="translate(0 35)" fill="#d5d5d5"/>
      <rect id="Rectangle_18673" data-name="Rectangle 18673" width="35" height="35" transform="translate(0 70)" fill="#c6c6c6"/>
      <rect id="Rectangle_18670" data-name="Rectangle 18670" width="31" height="31" transform="translate(2 2)" fill="#b5b5b5"/>
      <rect id="Rectangle_18676" data-name="Rectangle 18676" width="31" height="31" transform="translate(2 37)" fill="#b5b5b5"/>
      <rect id="Rectangle_18677" data-name="Rectangle 18677" width="31" height="31" transform="translate(2 72)" fill="#b5b5b5"/>
    </g>
    <g id="Group_39933" data-name="Group 39933" transform="translate(-237.668 -140.233)">
      <path id="Path_25640" data-name="Path 25640" d="M355.813,234.547h4.556a8.335,8.335,0,0,1,1.478.128,3.711,3.711,0,0,1,1.26.456,2.427,2.427,0,0,1,.876.913,3.029,3.029,0,0,1,.329,1.5,2.759,2.759,0,0,1-.985,2.374,16.4,16.4,0,0,1,4.271,1.315,5.3,5.3,0,0,0,2.262-4.674,7,7,0,0,0-.6-3.066,5.014,5.014,0,0,0-1.7-1.989,7.343,7.343,0,0,0-2.628-1.076,16.259,16.259,0,0,0-3.395-.329h-5.724Z" transform="translate(-104.603 -85.391)" fill="#fdb933"/>
      <path id="Path_25641" data-name="Path 25641" d="M350.323,240.643h-5.8v-6.1h0v-4.453h-5.734v26.062h12.63a13.306,13.306,0,0,0,3.413-.438,9.119,9.119,0,0,0,2.956-1.35,6.661,6.661,0,0,0,2.063-2.354,7.186,7.186,0,0,0,.766-3.415,7.507,7.507,0,0,0-1.186-4.179c-1.468-2.274-4.653-3.777-9.107-3.777m4.216,9.307a2.74,2.74,0,0,1-.931,1.041,3.952,3.952,0,0,1-1.35.548,7.715,7.715,0,0,1-1.607.164h-6.132v-7.154h6.241a4.84,4.84,0,0,1,2.994.858,3.371,3.371,0,0,1,1.131,2.866,3.572,3.572,0,0,1-.346,1.678" transform="translate(-94.12 -85.391)" fill="#f47920"/>
    </g>
    <g id="Group_39934" data-name="Group 39934" transform="translate(-237.668 -105.233)">
      <path id="Path_25640-2" data-name="Path 25640" d="M355.813,234.547h4.556a8.335,8.335,0,0,1,1.478.128,3.711,3.711,0,0,1,1.26.456,2.427,2.427,0,0,1,.876.913,3.029,3.029,0,0,1,.329,1.5,2.759,2.759,0,0,1-.985,2.374,16.4,16.4,0,0,1,4.271,1.315,5.3,5.3,0,0,0,2.262-4.674,7,7,0,0,0-.6-3.066,5.014,5.014,0,0,0-1.7-1.989,7.343,7.343,0,0,0-2.628-1.076,16.259,16.259,0,0,0-3.395-.329h-5.724Z" transform="translate(-104.603 -85.391)" fill="#fdb933"/>
      <path id="Path_25641-2" data-name="Path 25641" d="M350.323,240.643h-5.8v-6.1h0v-4.453h-5.734v26.062h12.63a13.306,13.306,0,0,0,3.413-.438,9.119,9.119,0,0,0,2.956-1.35,6.661,6.661,0,0,0,2.063-2.354,7.186,7.186,0,0,0,.766-3.415,7.507,7.507,0,0,0-1.186-4.179c-1.468-2.274-4.653-3.777-9.107-3.777m4.216,9.307a2.74,2.74,0,0,1-.931,1.041,3.952,3.952,0,0,1-1.35.548,7.715,7.715,0,0,1-1.607.164h-6.132v-7.154h6.241a4.84,4.84,0,0,1,2.994.858,3.371,3.371,0,0,1,1.131,2.866,3.572,3.572,0,0,1-.346,1.678" transform="translate(-94.12 -85.391)" fill="#f47920"/>
    </g>
    <g id="Group_39935" data-name="Group 39935" transform="translate(-237.668 -70.233)">
      <path id="Path_25640-3" data-name="Path 25640" d="M355.813,234.547h4.556a8.335,8.335,0,0,1,1.478.128,3.711,3.711,0,0,1,1.26.456,2.427,2.427,0,0,1,.876.913,3.029,3.029,0,0,1,.329,1.5,2.759,2.759,0,0,1-.985,2.374,16.4,16.4,0,0,1,4.271,1.315,5.3,5.3,0,0,0,2.262-4.674,7,7,0,0,0-.6-3.066,5.014,5.014,0,0,0-1.7-1.989,7.343,7.343,0,0,0-2.628-1.076,16.259,16.259,0,0,0-3.395-.329h-5.724Z" transform="translate(-104.603 -85.391)" fill="#fdb933"/>
      <path id="Path_25641-3" data-name="Path 25641" d="M350.323,240.643h-5.8v-6.1h0v-4.453h-5.734v26.062h12.63a13.306,13.306,0,0,0,3.413-.438,9.119,9.119,0,0,0,2.956-1.35,6.661,6.661,0,0,0,2.063-2.354,7.186,7.186,0,0,0,.766-3.415,7.507,7.507,0,0,0-1.186-4.179c-1.468-2.274-4.653-3.777-9.107-3.777m4.216,9.307a2.74,2.74,0,0,1-.931,1.041,3.952,3.952,0,0,1-1.35.548,7.715,7.715,0,0,1-1.607.164h-6.132v-7.154h6.241a4.84,4.84,0,0,1,2.994.858,3.371,3.371,0,0,1,1.131,2.866,3.572,3.572,0,0,1-.346,1.678" transform="translate(-94.12 -85.391)" fill="#f47920"/>
    </g>
  </g>
</svg>
