<svg xmlns="http://www.w3.org/2000/svg" width="58.301" height="42.512" viewBox="0 0 58.301 42.512">
  <g id="recommended-cards" transform="translate(-5.082 -17.246)">
    <path id="Path_43876" data-name="Path 43876" d="M23.731,47.7H46.716V45.22H23.731ZM59.389,27.132H52.111l-1.078-6.54a3.995,3.995,0,0,0-4.59-3.291L8.426,23.567a3.995,3.995,0,0,0-3.29,4.59L8.922,51.128h0l.221,1.341a4,4,0,0,0,3.931,3.345,4.036,4.036,0,0,0,.658-.054l3.133-.517v.522a4,4,0,0,0,3.993,3.993H59.39a4,4,0,0,0,3.993-3.993V31.125A4,4,0,0,0,59.389,27.132Zm-42.523,25.6-3.536.583a1.515,1.515,0,0,1-1.742-1.25l-.221-1.341,5.5-.907Zm0-21.608V45.183l-6.243,1.029L7.58,27.753a1.516,1.516,0,0,1,1.249-1.742l38.018-6.266a1.516,1.516,0,0,1,1.742,1.249L49.6,27.131H20.858A4,4,0,0,0,16.866,31.125Zm44.039,24.64a1.518,1.518,0,0,1-1.517,1.517H20.858a1.518,1.518,0,0,1-1.517-1.517V31.125a1.519,1.519,0,0,1,1.517-1.517h38.53a1.519,1.519,0,0,1,1.517,1.517ZM23.731,53.036H36.537V50.56H23.731Z" fill="#007c3d"/>
  </g>
</svg>
