<svg xmlns="http://www.w3.org/2000/svg" width="250.557" height="132.809" viewBox="0 0 250.557 132.809"><defs><style>.a{opacity:0.87;}.b{fill:#009d4d;opacity:0.93;}.c{opacity:0.5;}.d,.l,.y{fill:#fff;}.e{fill:#c6cbea;}.f{fill:#4aa594;}.g{fill:#02552d;}.h{fill:#fff200;}.i{fill:#41d7ff;}.j{fill:#22a5c4;}.k{fill:#15154f;}.l{fill-rule:evenodd;}.m{fill:#282e47;}.n{fill:#d19a84;}.o{fill:#adadea;}.p{fill:#f7931e;}.q{fill:#fbbe17;}.r{fill:#024e28;}.s{fill:#a8cfef;}.t{fill:#c7e6ff;}.u{fill:#67ce9a;}.v{fill:#fec230;}.w{fill:#f99c00;}.x{fill:#025b32;}.y{font-size:1px;font-family:Calibri-Bold, Calibri;font-weight:700;}.z{fill:#ffc73b;}.aa{fill:#ed8617;}.ab{fill:#779adb;}.ac{fill:#5b75a8;}.ad{fill:#ffe9b3;}.ae{fill:#a01c29;}.af{fill:#ec283c;}</style></defs><g class="a" transform="translate(0.024 -13.155)"><g transform="translate(-0.024 13.155)"><path class="b" d="M228.825,425.736c-7.381-14.727-8.245-33.424-8.245-53.775,0-96.9,65.607-65.609,85.987-28.235,22.737,41.694,68.006-20.88,85.989,28.235,7,19.112-2.868,39.048-11.69,53.775Z" transform="translate(-183.207 -293.36)"/><g class="c" transform="translate(214.469 44.239)"><rect class="d" width="1.349" height="1.349" transform="translate(22.42 8.921) rotate(-45)"/><rect class="d" width="1.349" height="1.349" transform="translate(16.814 8.92) rotate(-45)"/><rect class="d" width="1.349" height="1.349" transform="translate(11.211 8.928) rotate(-45)"/><rect class="d" width="1.349" height="1.349" transform="translate(5.605 8.928) rotate(-45)"/><rect class="d" width="1.349" height="1.349" transform="translate(0.001 8.935) rotate(-45)"/><rect class="d" width="1.349" height="1.349" transform="translate(28.031 8.931) rotate(-45)"/><rect class="d" width="1.349" height="1.349" transform="translate(22.421 16.891) rotate(-45)"/><rect class="d" width="1.349" height="1.349" transform="translate(16.815 16.89) rotate(-45)"/><rect class="d" width="1.349" height="1.349" transform="translate(11.213 16.899) rotate(-45)"/><rect class="d" width="1.349" height="1.349" transform="translate(5.606 16.898) rotate(-45)"/><rect class="d" width="1.349" height="1.349" transform="translate(0.002 16.905) rotate(-45)"/><rect class="d" width="1.349" height="1.349" transform="translate(28.032 16.901) rotate(-45)"/><rect class="d" width="1.349" height="1.349" transform="translate(22.422 24.857) rotate(-45)"/><rect class="d" width="1.349" height="1.349" transform="translate(16.816 24.857) rotate(-45)"/><rect class="d" width="1.349" height="1.349" transform="translate(11.212 24.865) rotate(-45)"/><rect class="d" width="1.349" height="1.349" transform="translate(5.607 24.867) rotate(-45)"/><rect class="d" width="1.349" height="1.349" transform="translate(0.003 24.872) rotate(-45)"/><rect class="d" width="1.349" height="1.349" transform="translate(28.031 24.868) rotate(-45)"/><rect class="d" width="1.349" height="1.349" transform="translate(22.42 32.823) rotate(-45)"/><rect class="d" width="1.349" height="1.349" transform="translate(16.814 32.824) rotate(-45)"/><rect class="d" width="1.349" height="1.349" transform="translate(11.212 32.833) rotate(-45)"/><rect class="d" width="1.349" height="1.349" transform="translate(5.607 32.832) rotate(-45)"/><rect class="d" width="1.349" height="1.349" transform="translate(0.001 32.839) rotate(-45)"/><rect class="d" width="1.349" height="1.349" transform="translate(28.031 32.835) rotate(-45)"/><rect class="d" width="1.349" height="1.349" transform="translate(22.421 40.791) rotate(-45)"/><rect class="d" width="1.349" height="1.349" transform="translate(16.815 40.791) rotate(-45)"/><rect class="d" width="1.349" height="1.349" transform="translate(11.211 40.799) rotate(-45)"/><rect class="d" width="1.349" height="1.349" transform="translate(5.606 40.801) rotate(-45)"/><rect class="d" width="1.349" height="1.349" transform="translate(0.002 40.805) rotate(-45)"/><rect class="d" width="1.349" height="1.349" transform="translate(28.03 40.802) rotate(-45)"/><rect class="d" width="1.349" height="1.349" transform="translate(22.422 48.758) rotate(-45)"/><rect class="d" width="1.349" height="1.349" transform="translate(16.816 48.758) rotate(-45)"/><rect class="d" width="1.349" height="1.349" transform="translate(11.212 48.768) rotate(-45)"/><rect class="d" width="1.349" height="1.349" transform="translate(5.607 48.767) rotate(-45)"/><rect class="d" width="1.349" height="1.349" transform="translate(0.001 48.774) rotate(-45)"/><rect class="d" width="1.349" height="1.349" transform="translate(28.031 48.77) rotate(-45)"/><rect class="d" width="1.349" height="1.349" transform="translate(22.421 56.725) rotate(-45)"/><rect class="d" width="1.349" height="1.349" transform="translate(16.815 56.726) rotate(-45)"/><rect class="d" width="1.349" height="1.349" transform="translate(11.211 56.734) rotate(-45)"/><rect class="d" width="1.349" height="1.349" transform="translate(5.606 56.734) rotate(-45)"/><rect class="d" width="1.349" height="1.349" transform="translate(0.002 56.742) rotate(-45)"/><rect class="d" width="1.349" height="1.349" transform="translate(28.032 56.737) rotate(-45)"/><rect class="d" width="1.349" height="1.349" transform="translate(22.421 64.692) rotate(-45)"/><rect class="d" width="1.349" height="1.349" transform="translate(16.815 64.692) rotate(-45)"/><rect class="d" width="1.349" height="1.349" transform="translate(11.211 64.702) rotate(-45)"/><rect class="d" width="1.349" height="1.349" transform="translate(5.606 64.701) rotate(-45)"/><rect class="d" width="1.349" height="1.349" transform="translate(0 64.708) rotate(-45)"/><rect class="d" width="1.349" height="1.349" transform="translate(28.03 64.704) rotate(-45)"/><rect class="d" width="1.349" height="1.349" transform="translate(22.422 72.659) rotate(-45)"/><rect class="d" width="1.349" height="1.349" transform="translate(16.816 72.659) rotate(-45)"/><rect class="d" width="1.349" height="1.349" transform="translate(11.212 72.668) rotate(-45)"/><rect class="d" width="1.349" height="1.349" transform="translate(5.605 72.668) rotate(-45)"/><rect class="d" width="1.349" height="1.349" transform="translate(0.001 72.676) rotate(-45)"/><rect class="d" width="1.349" height="1.349" transform="translate(28.031 72.671) rotate(-45)"/><rect class="d" width="1.349" height="1.349" transform="translate(22.419 0.954) rotate(-45)"/><rect class="d" width="1.349" height="1.349" transform="translate(16.814 0.954) rotate(-45)"/><rect class="d" width="1.349" height="1.349" transform="translate(11.211 0.962) rotate(-45)"/><rect class="d" width="1.349" height="1.349" transform="translate(5.606 0.961) rotate(-45)"/><rect class="d" width="1.349" height="1.349" transform="translate(0.002 0.968) rotate(-45)"/><rect class="d" width="1.349" height="1.349" transform="translate(28.03 0.964) rotate(-45)"/><rect class="d" width="1.349" height="1.349" transform="translate(22.423 80.626) rotate(-45)"/><rect class="d" width="1.349" height="1.349" transform="translate(16.815 80.627) rotate(-45)"/><rect class="d" width="1.349" height="1.349" transform="translate(11.211 80.637) rotate(-45)"/><rect class="d" width="1.349" height="1.349" transform="translate(5.606 80.637) rotate(-45)"/><rect class="d" width="1.349" height="1.349" transform="translate(0 80.643) rotate(-45)"/><rect class="d" width="1.349" height="1.349" transform="translate(28.03 80.639) rotate(-45)"/></g><g class="c" transform="translate(0 98.875)"><rect class="d" width="1.349" height="1.349" transform="translate(7.973 6.556) rotate(-45)"/><rect class="d" width="1.349" height="1.349" transform="translate(7.974 12.162) rotate(-45)"/><rect class="d" width="1.349" height="1.349" transform="translate(7.971 17.771) rotate(-45)"/><rect class="d" width="1.349" height="1.349" transform="translate(7.97 23.377) rotate(-45)"/><rect class="d" width="1.349" height="1.349" transform="translate(7.967 28.987) rotate(-45)"/><rect class="d" width="1.349" height="1.349" transform="translate(7.97 0.954) rotate(-45)"/><rect class="d" width="1.349" height="1.349" transform="translate(15.939 6.557) rotate(-45)"/><rect class="d" width="1.349" height="1.349" transform="translate(15.94 12.162) rotate(-45)"/><rect class="d" width="1.349" height="1.349" transform="translate(15.936 17.773) rotate(-45)"/><rect class="d" width="1.349" height="1.349" transform="translate(15.938 23.379) rotate(-45)"/><rect class="d" width="1.349" height="1.349" transform="translate(15.934 28.988) rotate(-45)"/><rect class="d" width="1.349" height="1.349" transform="translate(15.935 0.956) rotate(-45)"/><rect class="d" width="1.349" height="1.349" transform="translate(23.907 6.558) rotate(-45)"/><rect class="d" width="1.349" height="1.349" transform="translate(23.908 12.161) rotate(-45)"/><rect class="d" width="1.349" height="1.349" transform="translate(23.905 17.772) rotate(-45)"/><rect class="d" width="1.349" height="1.349" transform="translate(23.904 23.378) rotate(-45)"/><rect class="d" width="1.349" height="1.349" transform="translate(23.902 28.988) rotate(-45)"/><rect class="d" width="1.349" height="1.349" transform="translate(23.904 0.955) rotate(-45)"/><rect class="d" width="1.349" height="1.349" transform="translate(31.874 6.557) rotate(-45)"/><rect class="d" width="1.349" height="1.349" transform="translate(31.875 12.162) rotate(-45)"/><rect class="d" width="1.349" height="1.349" transform="translate(31.871 17.771) rotate(-45)"/><rect class="d" width="1.349" height="1.349" transform="translate(31.871 23.379) rotate(-45)"/><rect class="d" width="1.349" height="1.349" transform="translate(31.869 28.988) rotate(-45)"/><rect class="d" width="1.349" height="1.349" transform="translate(31.871 0.954) rotate(-45)"/><rect class="d" width="1.349" height="1.349" transform="translate(39.842 6.556) rotate(-45)"/><rect class="d" width="1.349" height="1.349" transform="translate(39.842 12.161) rotate(-45)"/><rect class="d" width="1.349" height="1.349" transform="translate(39.84 17.772) rotate(-45)"/><rect class="d" width="1.349" height="1.349" transform="translate(39.84 23.378) rotate(-45)"/><rect class="d" width="1.349" height="1.349" transform="translate(39.838 28.988) rotate(-45)"/><rect class="d" width="1.349" height="1.349" transform="translate(39.839 0.955) rotate(-45)"/><rect class="d" width="1.349" height="1.349" transform="translate(47.808 6.558) rotate(-45)"/><rect class="d" width="1.349" height="1.349" transform="translate(47.809 12.162) rotate(-45)"/><rect class="d" width="1.349" height="1.349" transform="translate(47.805 17.772) rotate(-45)"/><rect class="d" width="1.349" height="1.349" transform="translate(47.805 23.378) rotate(-45)"/><rect class="d" width="1.349" height="1.349" transform="translate(47.803 28.989) rotate(-45)"/><rect class="d" width="1.349" height="1.349" transform="translate(47.805 0.956) rotate(-45)"/><rect class="d" width="1.349" height="1.349" transform="translate(55.774 6.557) rotate(-45)"/><rect class="d" width="1.349" height="1.349" transform="translate(55.776 12.161) rotate(-45)"/><rect class="d" width="1.349" height="1.349" transform="translate(55.774 17.773) rotate(-45)"/><rect class="d" width="1.349" height="1.349" transform="translate(55.774 23.379) rotate(-45)"/><rect class="d" width="1.349" height="1.349" transform="translate(55.772 28.989) rotate(-45)"/><rect class="d" width="1.349" height="1.349" transform="translate(55.773 0.956) rotate(-45)"/><rect class="d" width="1.349" height="1.349" transform="translate(63.743 6.556) rotate(-45)"/><rect class="d" width="1.349" height="1.349" transform="translate(63.743 12.161) rotate(-45)"/><rect class="d" width="1.349" height="1.349" transform="translate(63.741 17.772) rotate(-45)"/><rect class="d" width="1.349" height="1.349" transform="translate(63.74 23.378) rotate(-45)"/><rect class="d" width="1.349" height="1.349" transform="translate(63.738 28.988) rotate(-45)"/><rect class="d" width="1.349" height="1.349" transform="translate(63.741 0.954) rotate(-45)"/><rect class="d" width="1.349" height="1.349" transform="translate(71.71 6.557) rotate(-45)"/><rect class="d" width="1.349" height="1.349" transform="translate(71.711 12.161) rotate(-45)"/><rect class="d" width="1.349" height="1.349" transform="translate(71.709 17.773) rotate(-45)"/><rect class="d" width="1.349" height="1.349" transform="translate(71.709 23.379) rotate(-45)"/><rect class="d" width="1.349" height="1.349" transform="translate(71.707 28.989) rotate(-45)"/><rect class="d" width="1.349" height="1.349" transform="translate(71.708 0.954) rotate(-45)"/><rect class="d" width="1.349" height="1.349" transform="translate(0.006 6.557) rotate(-45)"/><rect class="d" width="1.349" height="1.349" transform="translate(0.006 12.161) rotate(-45)"/><rect class="d" width="1.349" height="1.349" transform="translate(0.002 17.772) rotate(-45)"/><rect class="d" width="1.349" height="1.349" transform="translate(0.004 23.378) rotate(-45)"/><rect class="d" width="1.349" height="1.349" transform="translate(0 28.987) rotate(-45)"/><rect class="d" width="1.349" height="1.349" transform="translate(0.001 0.955) rotate(-45)"/><rect class="d" width="1.349" height="1.349" transform="translate(79.678 6.554) rotate(-45)"/><rect class="d" width="1.349" height="1.349" transform="translate(79.678 12.158) rotate(-45)"/><rect class="d" width="1.349" height="1.349" transform="translate(79.676 17.77) rotate(-45)"/><rect class="d" width="1.349" height="1.349" transform="translate(79.677 23.376) rotate(-45)"/><rect class="d" width="1.349" height="1.349" transform="translate(79.675 28.987) rotate(-45)"/><rect class="d" width="1.349" height="1.349" transform="translate(79.677 0.954) rotate(-45)"/></g><path class="e" d="M181.241,743.151a7.33,7.33,0,0,1-1.186-1.694,4.206,4.206,0,0,1,.034-2.833c.283-.922.718-1.792.966-2.724a7.249,7.249,0,0,0-1.621-6.624,9.971,9.971,0,0,1-1.047-1.186,5.085,5.085,0,0,1-.508-3.539,18.418,18.418,0,0,0,.449-3.624,5.43,5.43,0,0,0-1.943-3.817,6.475,6.475,0,0,0-4.054-1.26h-.09a6.444,6.444,0,0,0-4.066,1.213,5.436,5.436,0,0,0-1.991,3.8,17.567,17.567,0,0,0,.408,3.629,5.018,5.018,0,0,1-.542,3.534,10.427,10.427,0,0,1-1.059,1.166A7.251,7.251,0,0,0,163.3,735.8c.237.934.661,1.811.935,2.734a4.171,4.171,0,0,1,0,2.832,7.685,7.685,0,0,1-1.208,1.672c-1.606,1.987-2.3,4.967-.908,7.115a7.363,7.363,0,0,0,2.241,2.052,13.355,13.355,0,0,0,4.352,1.882,4.511,4.511,0,0,0,2.07.11,4.787,4.787,0,0,1,1.289-.047,4.573,4.573,0,0,1,1.288.063,4.537,4.537,0,0,0,2.07-.086,13.414,13.414,0,0,0,4.376-1.83,7.383,7.383,0,0,0,2.263-2.033C183.482,748.137,182.821,745.15,181.241,743.151Z" transform="translate(-134.026 -632.544)"/><path class="d" d="M197.145,748.662l-6.68,7.162-.237-14.071,5.01-6.673-5.032,5.389-.144-8.55c.437-.579,3.619-4.817,3.619-4.817l-3.634,3.9-.1-6.009-.12,7.708-3.476-3.81,3.468,4.717-.137,8.689-4.977-5.443,4.945,6.743-.222,14.253L182.64,750.4l6.763,9.218-.032,2.1h1.186l-.063-4.2Z" transform="translate(-151.694 -640.136)"/><rect class="f" width="1.199" height="2.299" transform="translate(37.688 121.588)"/><path class="g" d="M194.66,955.56h10.612l-1.987,8.391h-6.609Z" transform="translate(-161.678 -831.644)"/><rect class="f" width="10.614" height="0.637" transform="translate(32.98 123.279)"/><path class="h" d="M775.749,343.314h-1.967a1.05,1.05,0,0,1-1-.727,7.813,7.813,0,0,0-.508-1.227,1.05,1.05,0,0,1,.193-1.228l1.393-1.393a1.064,1.064,0,0,0,0-1.5l-.847-.847a1.064,1.064,0,0,0-1.5,0l-1.392,1.392a1.055,1.055,0,0,1-1.23.195,7.72,7.72,0,0,0-1.225-.508,1.052,1.052,0,0,1-.729-1v-1.969a1.064,1.064,0,0,0-1.064-1.064h-1.2a1.064,1.064,0,0,0-1.064,1.064v1.967a1.052,1.052,0,0,1-.729,1,7.716,7.716,0,0,0-1.225.508,1.055,1.055,0,0,1-1.23-.195l-1.393-1.392a1.062,1.062,0,0,0-1.5,0l-.847.847a1.064,1.064,0,0,0,0,1.5l1.393,1.4a1.05,1.05,0,0,1,.193,1.228,7.826,7.826,0,0,0-.508,1.227,1.05,1.05,0,0,1-1,.727h-1.967a1.064,1.064,0,0,0-1.063,1.064v1.2a1.064,1.064,0,0,0,1.063,1.062h1.966a1.05,1.05,0,0,1,1,.727,7.815,7.815,0,0,0,.508,1.227,1.05,1.05,0,0,1-.193,1.228l-1.393,1.393a1.064,1.064,0,0,0,0,1.5l.847.847a1.062,1.062,0,0,0,1.5,0l1.392-1.393a1.052,1.052,0,0,1,1.23-.193,8.122,8.122,0,0,0,1.225.508,1.048,1.048,0,0,1,.728,1v1.967a1.064,1.064,0,0,0,1.064,1.064h1.2a1.064,1.064,0,0,0,1.064-1.064v-1.965a1.052,1.052,0,0,1,.728-1,7.856,7.856,0,0,0,1.225-.508,1.053,1.053,0,0,1,1.23.193l1.392,1.393a1.064,1.064,0,0,0,1.5,0l.847-.847a1.064,1.064,0,0,0,0-1.5l-1.393-1.393a1.05,1.05,0,0,1-.193-1.228,7.746,7.746,0,0,0,.508-1.227,1.051,1.051,0,0,1,1.005-.727h1.967a1.064,1.064,0,0,0,1.064-1.064v-1.2A1.064,1.064,0,0,0,775.749,343.314Zm-6.473,2.462a4.093,4.093,0,1,1-1.122-3.687A4.088,4.088,0,0,1,769.275,345.775Z" transform="translate(-626.025 -314.911)"/><path class="e" d="M1229.381,787.228s-5.965-13.463-1.648-25.972a26.541,26.541,0,0,1,14.739-16.166s-6.185,7.163-2.6,18.334c3.389,10.565-3.079,23.8-3.079,23.8Z" transform="translate(-1018.432 -656.831)"/><path class="d" d="M1256.831,824.222s-1.525-27.389,4.935-34.592c-5.879,9.08-3.431,34.592-3.431,34.592Z" transform="translate(-1043.773 -693.825)"/><path class="i" d="M1286.8,945.283h-6.379a16.8,16.8,0,0,1,3.461-7.081,8.124,8.124,0,0,1,6.29-2.811,10.393,10.393,0,0,0-2.2,5.858A11.454,11.454,0,0,1,1286.8,945.283Z" transform="translate(-1063.495 -814.885)"/><path class="j" d="M1290.279,954.873h-.48c.91-2.08,3.219-6.946,5.394-7.944C1293.073,948.353,1291.121,952.761,1290.279,954.873Z" transform="translate(-1071.286 -824.476)"/><rect class="k" width="13.961" height="1.067" transform="translate(224.387 131.465) rotate(180)"/><path class="d" d="M839.908,560.038,812.87,553.77l20.3,21.448,2.306-7.18,5.148-1.383-19.879-9.677,17.742,6.516,1.586-1.047,2.672-1.765Z" transform="translate(-675.155 -497.923)"/><path class="l" d="M1008.964,644.839l-.4.713q-.592-.336-1.186-.652l.386-.72Q1008.368,644.5,1008.964,644.839Z" transform="translate(-836.712 -573.016)"/><path class="l" d="M994.913,637.5l1.225.623-.374.725-1.213-.617Z" transform="translate(-826.055 -567.468)"/><path class="l" d="M981.924,631.28l1.25.581-.353.737-1.231-.572Z" transform="translate(-815.291 -562.301)"/><path class="l" d="M1044.33,667.454l.463-.674,1.125.8-.479.661Z" transform="translate(-867.402 -591.788)"/><path class="l" d="M1032.734,658.8c.385.249.778.486,1.157.744l-.449.678c-.374-.256-.762-.49-1.142-.735Z" transform="translate(-857.41 -585.159)"/><path class="l" d="M1021.6,652.01l-.424.7c-.385-.239-.776-.468-1.169-.693l.408-.706C1020.816,651.539,1021.211,651.766,1021.6,652.01Z" transform="translate(-847.202 -578.938)"/><path class="l" d="M1078.134,694.7c.315.339.643.669.947,1.016l-.615.539c-.292-.339-.612-.659-.917-.989Z" transform="translate(-894.994 -614.977)"/><path class="l" d="M1068.673,685.582l-.56.593c-.319-.318-.663-.61-1-.908l.537-.617C1067.994,684.955,1068.345,685.255,1068.673,685.582Z" transform="translate(-886.323 -606.63)"/><path class="l" d="M1056,676.079l.5-.649c.371.273.723.571,1.084.859l-.518.632C1056.715,676.638,1056.369,676.347,1056,676.079Z" transform="translate(-877.095 -598.972)"/><path class="l" d="M1100.5,732.322l.782-.232c.127.463.224.94.305,1.414l-.812.1C1100.7,733.179,1100.615,732.752,1100.5,732.322Z" transform="translate(-914.056 -646.033)"/><path class="l" d="M1095,718.6l.712-.4c.235.41.422.847.632,1.277l-.752.315C1095.383,719.4,1095.213,718.984,1095,718.6Z" transform="translate(-909.488 -634.496)"/><path class="l" d="M1087.08,706.355l.642-.505.827,1.138-.681.453Z" transform="translate(-902.909 -624.238)"/><path class="l" d="M1090.316,773.733c-.283.38-.586.747-.879,1.12l-.617-.536c.273-.35.558-.693.823-1.047Z" transform="translate(-904.355 -680.237)"/><path class="l" d="M1097.419,760.88l.771.268-.279.669a3.784,3.784,0,0,1-.312.652l-.718-.388a3.243,3.243,0,0,0,.283-.595Z" transform="translate(-911.049 -669.946)"/><path class="l" d="M1101.725,747.954l.056-.654.817.01-.061.729a3.4,3.4,0,0,1-.1.722l-.8-.159A2.981,2.981,0,0,0,1101.725,747.954Z" transform="translate(-914.995 -658.666)"/><path class="l" d="M1056.414,801.825c-.4.232-.794.483-1.213.678l-.381-.722c.41-.193.788-.435,1.186-.661Z" transform="translate(-876.115 -703.368)"/><path class="l" d="M1068.766,793.974l-1.15.8-.446-.684,1.108-.766Z" transform="translate(-886.373 -696.89)"/><path class="l" d="M1079.551,784.07l.574.579-.5.5-.542.447-.525-.625.519-.429Z" transform="translate(-895.833 -689.207)"/><path class="l" d="M1016.46,819.384l-1.31.432-.241-.781,1.288-.425Z" transform="translate(-842.966 -717.895)"/><path class="l" d="M1030.09,814.437l-1.291.491-.279-.768,1.267-.481Z" transform="translate(-854.271 -713.801)"/><path class="l" d="M1043.387,808.665c-.41.217-.847.379-1.262.571l-.325-.749c.41-.188.833-.347,1.234-.557Z" transform="translate(-865.301 -709.025)"/><path class="l" d="M974.293,829.9l.171.8-1.349.271-.156-.8Z" transform="translate(-808.123 -727.273)"/><path class="l" d="M988.525,827.451c-.442.12-.891.217-1.337.317l-.188-.8c.442-.1.886-.195,1.323-.312Z" transform="translate(-819.785 -724.582)"/><path class="l" d="M1002.475,823.716c-.44.129-.881.261-1.326.369l-.209-.79c.441-.107.873-.239,1.308-.366Z" transform="translate(-831.363 -721.483)"/><path class="l" d="M931.558,837.19l.11.81-1.36.178-.1-.81Z" transform="translate(-772.616 -733.328)"/><path class="l" d="M945.837,835.12l.127.806-1.357.207-.117-.81Z" transform="translate(-784.477 -731.608)"/><path class="l" d="M960.022,832.72l.147.8-1.352.235-.137-.8Z" transform="translate(-796.263 -729.615)"/><path class="l" d="M888.439,841.72l.063.815-1.366.1-.056-.815Z" transform="translate(-736.792 -737.09)"/><path class="l" d="M902.817,840.47l.076.813-1.364.122-.07-.813Z" transform="translate(-748.736 -736.052)"/><path class="l" d="M917.124,838.98l.093.811-1.362.147-.085-.811Z" transform="translate(-760.622 -734.814)"/><path class="l" d="M845.152,844.05l.026.815-1.369.037-.019-.817Z" transform="translate(-700.836 -739.025)"/><path class="l" d="M859.572,843.48l.037.815-1.369.058-.031-.815Z" transform="translate(-712.813 -738.552)"/><path class="l" d="M873.94,842.71l.049.816-1.367.078-.042-.815Z" transform="translate(-724.749 -737.912)"/><path class="l" d="M800.354,844.25l1.36.029-.012.816-1.372-.029Z" transform="translate(-664.739 -739.192)"/><path class="l" d="M816.219,844.493v.816l-1.369,0,.005-.816Z" transform="translate(-676.799 -739.391)"/><path class="l" d="M830.624,844.38l.012.817-1.369.017-.007-.817Z" transform="translate(-688.768 -739.3)"/><path class="d" d="M607.658,226.993l2.875,1.572-2.875,1.572-1.57,2.873-1.572-2.873-2.875-1.572,2.875-1.572,1.572-2.873Z" transform="translate(-499.71 -224.12)"/><path class="d" d="M661.193,263.074l1.665.91-1.665.91-.91,1.665-.91-1.665-1.664-.91,1.664-.91.91-1.664Z" transform="translate(-546.281 -255.093)"/><path class="d" d="M1196.493,395.693l-2.873,1.572,2.873,1.572,1.572,2.873,1.572-2.873,2.873-1.572-2.873-1.572-1.572-2.873Z" transform="translate(-991.4 -364.24)"/><path class="d" d="M1161.314,431.774l-1.664.91,1.664.91.911,1.665.91-1.665,1.663-.91-1.663-.91-.91-1.664Z" transform="translate(-963.185 -395.212)"/><path class="m" d="M1122.915,504.611a2.944,2.944,0,0,1,.65-2.434,2.5,2.5,0,0,1,2.352-.8,1.111,1.111,0,0,1,.535.251,1.8,1.8,0,0,1,.273.4,5.08,5.08,0,0,0,1.5,1.632,22.044,22.044,0,0,0,2.455,1.276,1.949,1.949,0,0,1,.949,3c-.28.613-.422,1.266-.678,1.889-.2.483-.169.508-.4,1.086a4.1,4.1,0,0,1-.832,1.311c-.207.246-.491,1.238-.81,1.2-.215-.025.015-.808-.075-1a1.618,1.618,0,0,1-.114-.635,7.014,7.014,0,0,0-.339-3.17,2.37,2.37,0,0,0-1.345-1.1c-.612-.2-1.264.1-1.841-.105A3.941,3.941,0,0,1,1122.915,504.611Z" transform="translate(-932.634 -454.366)"/><rect class="n" width="3.437" height="4.535" transform="translate(193.198 56.318)"/><path class="n" d="M1129.724,529.7s-1.164,4.469.042,5.465,3.273.254,4-.091a4.031,4.031,0,0,0,1.327-1.288,2.873,2.873,0,0,0,.728-1.167c.1-.546.22-1.252-.354-1.017-.911.374-.451.047-.451.047a1.114,1.114,0,0,0-.041-1.284C1134.52,529.573,1130.27,527.252,1129.724,529.7Z" transform="translate(-937.91 -477.024)"/><path class="n" d="M1030.45,490.8a6.51,6.51,0,0,1-.616-1.43c-.048-.413.285-2.323-.068-2.335s-.415.789-.628.927-1.356-1.864-1.823-1.864a1.411,1.411,0,0,0-1.416,1.543c.159,1.176,1.475,2.033,1.711,2.219s1.5,2.046,1.5,2.046Z" transform="translate(-852.08 -441.717)"/><path class="n" d="M1284.67,510.468a6.288,6.288,0,0,0,1.144-1.055c.213-.366.677-2.24,1.016-2.106s.059.889.2,1.1,1.985-1.152,2.421-.959a1.41,1.41,0,0,1,.667,1.984,3.929,3.929,0,0,1-2.463,1.335c-.292.076-2.2,1.262-2.2,1.262Z" transform="translate(-1067.025 -459.325)"/><path class="n" d="M1174.906,966.385l-.034,1.8c-.169-.015-2.412-.046-2.412-.046l.034-1.8Z" transform="translate(-973.825 -840.598)"/><path class="g" d="M1172.939,973.55s5.164,2.71,5.271,2.763c.047.022.3.088.577.154a.908.908,0,0,1,.716.884.971.971,0,0,1-.029.288c-.056.075-10.051-.191-10.051-.191s-.17-3.219.359-3.331S1172.114,974.463,1172.939,973.55Z" transform="translate(-971.282 -846.586)"/><path class="n" d="M1123.55,966.836l.033,1.8c.17-.015,2.411-.046,2.411-.046l-.034-1.8Z" transform="translate(-933.201 -840.972)"/><path class="g" d="M1087.95,974s-5.166,2.71-5.272,2.763c-.047.022-.305.088-.578.154a.91.91,0,0,0-.717.886.9.9,0,0,0,.031.286c.054.074,10.049-.191,10.049-.191s.169-3.219-.359-3.331S1088.771,974.913,1087.95,974Z" transform="translate(-898.177 -846.96)"/><path class="g" d="M1106.979,716.15l12.337.13s.115,7.793.115,10.009,1.037,33.022,1.037,33.022l-3.245.085-4.02-30.078-.823,29.942h-3.474S1105.049,730.809,1106.979,716.15Z" transform="translate(-918.989 -632.793)"/><path class="o" d="M1054.288,547.549s.114-17,.425-18.5-6.482-5.733-6.482-5.733L1043,514.405l1.745-1.245,6.1,7.353,7.354,3.178a25.94,25.94,0,0,0,6.294.872c2.555-.125,19.692-9.656,19.692-9.656l.936,2.18-11.031,9.036-6.854,3.988-.615,17.57Z" transform="translate(-866.298 -464.193)"/><path class="i" d="M309,577.67s-.737.739-1.911,1.88c-.456.444-.978.949-1.55,1.5l-1,.95c-.508.474-1.027.969-1.57,1.476-.339.322-.7.649-1.059.979-.525.481-1.057.966-1.594,1.448-.278.247-.556.5-.833.742l-.029-.017c-.691-.406-1.376-.794-2.033-1.164l-.378-.2c-.662-.364-1.3-.7-1.892-1.017-.678-.357-1.3-.678-1.846-.947-.923-.463-1.609-.791-1.933-.946l-.214-.1c-4.786-1.542-2.931,4.515-2.931,4.515l1.633.677,2.185.893,1.84.739,2.223.91,1.25.508,2.3.942.732.3,2.5-3.061,1.355-1.665.95-1.164,1.355-1.665.9-1.1,1.355-1.667,1.508-1.847Z" transform="translate(-239.098 -517.774)"/><path class="n" d="M410.3,563.246s1.982-3.519,2.829-3.94a1.932,1.932,0,0,1,1.45-.195l-4.247,4.235Z" transform="translate(-340.786 -502.308)"/><circle class="p" cx="27.457" cy="27.457" r="27.457" transform="translate(60.349 18.185)"/><path class="q" d="M23.059,0A23.059,23.059,0,1,1,0,23.059,23.059,23.059,0,0,1,23.059,0Z" transform="translate(64.747 22.583)"/><path class="m" d="M266.127,525.886a3.027,3.027,0,0,0-1.394-2.25,2.7,2.7,0,0,0-2.655-.073,1.2,1.2,0,0,0-.474.422,1.837,1.837,0,0,0-.169.484,5.479,5.479,0,0,1-1.049,2.113,25.836,25.836,0,0,1-2.14,2.053,2.614,2.614,0,0,0-.876,1.425,2.5,2.5,0,0,0,.8,1.9c.469.53.811,1.143,1.26,1.694.347.424.339.449.732.969a4.277,4.277,0,0,0,1.245,1.062c.286.181.874,1.093,1.186.954.213-.093-.259-.808-.225-1.035a1.668,1.668,0,0,0-.071-.677c-.29-1.093-.847-2.187-.6-3.3a2.554,2.554,0,0,1,1.054-1.525c.569-.39,1.327-.3,1.863-.678A4.224,4.224,0,0,0,266.127,525.886Z" transform="translate(-213.752 -472.573)"/><rect class="n" width="4.02" height="5.172" transform="translate(52.995 64.571) rotate(157.03)"/><path class="n" d="M273.751,552.179s2.1,4.42,1.017,5.711-3.429.942-4.271.734a3.246,3.246,0,0,1-1.525-1.323s-.927-.264-1.137-.813-.476-1.26.18-1.133c1.04.2.488-.044.488-.044a1.166,1.166,0,0,1-.2-1.356C268.634,553.024,272.7,549.736,273.751,552.179Z" transform="translate(-222.26 -495.866)"/><path class="n" d="M517.882,902l.966,1.758c-.169.068-2.372,1.1-2.372,1.1l-.9-1.789Z" transform="translate(-428.23 -787.158)"/><path class="g" d="M522.485,906.88s6.253.312,6.379.31c.056,0,.339-.056.632-.117a.96.96,0,0,1,1.1.559,1.037,1.037,0,0,1,.1.3c-.02.1-9.877,4.574-9.877,4.574s-1.615-3.185-1.148-3.557S522.092,908.2,522.485,906.88Z" transform="translate(-431.553 -791.211)"/><path class="n" d="M288.6,947.688l-.74,1.958c-.169-.1-2.372-1.276-2.372-1.276l.808-1.921Z" transform="translate(-237.12 -824.078)"/><path class="g" d="M278.354,958.3s3.766,5.452,3.847,5.557c.035.047.259.247.495.456a1.078,1.078,0,0,1,.271,1.284,1.106,1.106,0,0,1-.169.285c-.092.049-9.858-5.311-9.858-5.311s1.426-3.434,2.011-3.285S277.084,958.832,278.354,958.3Z" transform="translate(-226.696 -833.074)"/><path class="r" d="M304.161,733.29l11.8,6.1,11.854,22.092-3.717,1.777L312.36,745.647,299.9,742.021l-2.782,14.81-8.5,14.561-3.31-1.672,6.336-17.05-.425-16.138Z" transform="translate(-236.971 -647.03)"/><path class="s" d="M297.646,620.572l-.944-1.928c-.452-.927-.917-1.882-1.374-2.822-.319-.658-.632-1.3-.934-1.93-.435-.9-.847-1.758-1.2-2.516-.21-.444-.4-.857-.576-1.225-.114-.244-.234-.481-.358-.715a16.123,16.123,0,0,0-2.319-3.3,14.192,14.192,0,0,0-1.765-1.647,5.837,5.837,0,0,0-2.8-1.4c-3.478,1.506-4.495-.315-4.495-.315a4.29,4.29,0,0,0-.932,2.219,10.438,10.438,0,0,0-.095,2.163,23.868,23.868,0,0,0,.595,4.008c.169.713.347,1.443.554,2.182.324,1.15.693,2.316,1.091,3.466.249.724.508,1.438.769,2.138.369.981.744,1.93,1.11,2.824.308.749.607,1.457.891,2.114,1.144,2.638,2.033,4.423,2.033,4.423l13.092-3.01S298.968,623.253,297.646,620.572Z" transform="translate(-232.418 -538.63)"/><path class="n" d="M415.216,568.292a5.8,5.8,0,0,1,1.066-1.3c.354-.181,3.139-1.545,3.319-2.47s-.169-2.351-1.083-2.111-1.24.458-1.543,1.1a12.828,12.828,0,0,1-1.694,2.055l-1.281,1.4Z" transform="translate(-343.859 -505.075)"/><path class="t" d="M311.649,587.22s-.737.737-1.911,1.879c-.456.444-.978.948-1.55,1.5-.319.307-.649.622-1,.951-.508.474-1.027.969-1.57,1.476-.339.322-.7.651-1.059.979-.525.481-1.057.966-1.594,1.448q-.417.375-.833.742a.167.167,0,0,1-.029-.017c-.691-.407-1.376-.794-2.033-1.164l-.371-.205c-.662-.364-1.3-.7-1.892-1.016-.678-.357-1.3-.678-1.847-.947-.922-.462-1.609-.791-1.933-.944l-.213-.1c-4.786-1.542-2.931,4.515-2.931,4.515l1.635.678,2.185.894,1.835.745,2.223.91,1.25.508,2.3.942.732.3,2.5-3.061,1.355-1.665.95-1.164,1.355-1.666.9-1.1,1.355-1.667,1.508-1.847Z" transform="translate(-241.308 -525.706)"/><path class="f" d="M938.905,750.07s-4.356-4.913-3.331-6.306,3.258,1.355,5.565.578,3.331-3.153,5.308-1.345,4.467-1.769,5.75-.078-1.831,5.806-1.942,7.227S938.905,750.07,938.905,750.07Z" transform="translate(-776.941 -654.541)"/><path class="u" d="M948.831,831.456c-.7-6.294-5.5-19.708-9.148-24.046l-.042.113H927.564s-5.07,14.788-5.975,19.4c-.893,4.526.279,9.929,3.69,11.1,2.429.835,11.583.408,16.647.847a8.962,8.962,0,0,0,1.755-.422C945.934,837.665,949.307,835.744,948.831,831.456Z" transform="translate(-765.216 -708.593)"/><path class="f" d="M899.86,820.9c.7-3.557,3.868-13.129,5.289-17.351a3,3,0,0,1,2.843-2.046h9.919l.042-.114c-.049-.058-.1-.115-.144-.17-1-1.135-5.7-1.072-6.59-1.048h-.147c-.268,0-.881-.017-1.633,0-1.75.046-4.259.252-4.959,1.047-3.665,4.151-8.584,17.838-9.294,24.214-.478,4.288,2.9,6.2,5.157,7a9.037,9.037,0,0,0,3,.508H918.95a9.312,9.312,0,0,0,1.241-.087c-5.064-.444-14.217-.017-16.646-.847C900.133,830.832,898.96,825.43,899.86,820.9Z" transform="translate(-743.487 -702.575)"/><path class="h" d="M964.93,787.14H954.018a.781.781,0,0,0-.688.847v1.162a.781.781,0,0,0,.688.847H964.93a.779.779,0,0,0,.688-.847v-1.155A.782.782,0,0,0,964.93,787.14Z" transform="translate(-791.819 -691.757)"/><ellipse class="v" cx="12.388" cy="4.088" rx="12.388" ry="4.088" transform="translate(125.972 118.932)"/><path class="w" d="M755.939,954.324c-6.841,0-12.388-1.824-12.389-4.081v3.542h0c.035,2.248,5.569,4.066,12.389,4.066s12.35-1.825,12.384-4.066h0V950.23C768.327,952.488,762.782,954.321,755.939,954.324Z" transform="translate(-617.579 -827.217)"/><ellipse class="v" cx="12.388" cy="4.088" rx="12.388" ry="4.088" transform="translate(125.968 113.272)"/><path class="w" d="M755.921,920.916c-6.843,0-12.389-1.825-12.391-4.081v3.542h0c.035,2.248,5.569,4.066,12.389,4.066s12.35-1.826,12.384-4.066h0V916.82C768.308,919.078,762.762,920.916,755.921,920.916Z" transform="translate(-617.562 -799.467)"/><ellipse class="v" cx="12.388" cy="4.088" rx="12.388" ry="4.088" transform="translate(100.144 118.693)"/><path class="w" d="M603.489,952.925c-6.841,0-12.389-1.823-12.389-4.081v3.542h0c.036,2.248,5.569,4.066,12.388,4.066s12.352-1.825,12.385-4.066h0V948.83C615.877,951.087,610.332,952.925,603.489,952.925Z" transform="translate(-490.955 -826.054)"/><ellipse class="v" cx="12.388" cy="4.088" rx="12.388" ry="4.088" transform="translate(100.141 113.033)"/><path class="w" d="M603.471,919.5c-6.843,0-12.389-1.824-12.391-4.081v3.542h0c.035,2.248,5.569,4.066,12.389,4.066s12.35-1.825,12.384-4.066h0V915.41C615.857,917.668,610.312,919.5,603.471,919.5Z" transform="translate(-490.939 -798.296)"/><ellipse class="v" cx="12.388" cy="4.088" rx="12.388" ry="4.088" transform="translate(100.139 107.373)"/><path class="w" d="M603.451,886.095c-6.843,0-12.389-1.824-12.391-4.081v3.544h0c.036,2.248,5.569,4.066,12.389,4.066s12.352-1.826,12.384-4.074h0V882C615.838,884.258,610.292,886.091,603.451,886.095Z" transform="translate(-490.922 -770.546)"/><ellipse class="v" cx="12.388" cy="4.088" rx="12.388" ry="4.088" transform="translate(100.39 101.712)"/><path class="w" d="M604.939,852.685c-6.841,0-12.39-1.824-12.39-4.083v3.545h0c.036,2.248,5.567,4.066,12.388,4.066s12.352-1.826,12.384-4.066h0V848.59C617.327,850.848,611.782,852.681,604.939,852.685Z" transform="translate(-492.16 -742.796)"/><ellipse class="w" cx="11.097" cy="10.985" rx="11.097" ry="10.985" transform="translate(126.719 94.824)"/><path class="v" d="M9.319,0a9.273,9.273,0,0,1,9.319,9.226A9.32,9.32,0,0,1,0,9.226,9.273,9.273,0,0,1,9.319,0Z" transform="translate(128.496 96.583)"/><path class="x" d="M669.837,597.15l-11.127,7.042,11.127,7.5,11.127-7.5Z" transform="translate(-547.112 -533.954)"/><rect class="h" width="14.171" height="13.895" transform="translate(115.37 65.61)"/><path class="i" d="M830,648.56Z" transform="translate(-689.383 -576.654)"/><path class="i" d="M652.73,648.56Z" transform="translate(-542.145 -576.654)"/><path class="x" d="M664.87,650.9l-12.14-8.179V656.7a1.709,1.709,0,0,0,1.726,1.694h20.838a1.71,1.71,0,0,0,1.727-1.694V642.725Z" transform="translate(-542.145 -571.803)"/><text class="y" transform="translate(115.669 88.785)"><tspan x="0" y="0">$</tspan></text><path class="d" d="M-3.952-14.58H8.375v.026a19.118,19.118,0,0,1-1.23,1.794H3.851a4.3,4.3,0,0,1,.923,1.935H8.285q.064.013.064.051Q7.17-9.006,7.144-9.006H4.864a5.231,5.231,0,0,1-.871,2.191A5.354,5.354,0,0,1,1.98-5.136a7.955,7.955,0,0,1-3.434.859v.026A4.749,4.749,0,0,0-.646-3.189L5.44,4.154V4.5q0,.051-.064.051H2.7Q-4.529-3.868-4.529-3.906v-1.7l.026-.064a10.956,10.956,0,0,0,1.5.09q4.049,0,5.036-2.627a2.12,2.12,0,0,0,.154-.794h-7.33A.045.045,0,0,1-5.2-9.057q1.217-1.768,1.243-1.768H1.865v-.026A3.411,3.411,0,0,0-.07-12.427a6.039,6.039,0,0,0-1.845-.333H-5.17v-.064Q-3.991-14.58-3.952-14.58Z" transform="translate(86.142 52.421)"/><path class="d" d="M-4.719-14.58H0v.01a7.321,7.321,0,0,1-.471.687H-1.731a1.647,1.647,0,0,1,.353.741H-.033q.025,0,.025.02-.451.677-.461.677h-.873a2,2,0,0,1-.334.839,2.05,2.05,0,0,1-.77.643,3.046,3.046,0,0,1-1.315.329v.01a1.818,1.818,0,0,0,.309.407l2.331,2.812v.132q0,.02-.025.02H-2.173Q-4.94-10.478-4.94-10.493v-.653l.01-.025a4.2,4.2,0,0,0,.574.034q1.551,0,1.928-1.006a.812.812,0,0,0,.059-.3H-5.176a.017.017,0,0,1-.02-.02q.466-.677.476-.677h2.228v-.01a1.306,1.306,0,0,0-.741-.6,2.313,2.313,0,0,0-.707-.128H-5.185v-.025Q-4.734-14.58-4.719-14.58Z" transform="translate(140.512 117.208)"/><path class="d" d="M-4.719-14.58H0v.01a7.321,7.321,0,0,1-.471.687H-1.731a1.647,1.647,0,0,1,.353.741H-.033q.025,0,.025.02-.451.677-.461.677h-.873a2,2,0,0,1-.334.839,2.05,2.05,0,0,1-.77.643,3.046,3.046,0,0,1-1.315.329v.01a1.818,1.818,0,0,0,.309.407l2.331,2.812v.132q0,.02-.025.02H-2.173Q-4.94-10.478-4.94-10.493v-.653l.01-.025a4.2,4.2,0,0,0,.574.034q1.551,0,1.928-1.006a.812.812,0,0,0,.059-.3H-5.176a.017.017,0,0,1-.02-.02q.466-.677.476-.677h2.228v-.01a1.306,1.306,0,0,0-.741-.6,2.313,2.313,0,0,0-.707-.128H-5.185v-.025Q-4.734-14.58-4.719-14.58Z" transform="translate(172.322 125.69)"/><g transform="translate(103.534 88.661)"><g transform="translate(0 0)"><path class="z" d="M72.652,12.29A2.281,2.281,0,0,0,71.56,11.3a3.419,3.419,0,0,0-1.146-.32,2.772,2.772,0,0,0-1.285.2,3.054,3.054,0,0,0-1,.7,3.985,3.985,0,0,0-.638.864,5.2,5.2,0,0,0-.409.905,6.665,6.665,0,0,0-.252.915c-.032.153-.055.307-.076.461-.011.078-.018.155-.024.234l-.008.121v.068h0c-.012.03-.027.058-.038.09a1.444,1.444,0,0,0-.058.2.986.986,0,0,0,.053.563.955.955,0,0,0,.442.473,1.419,1.419,0,0,0,.428.14,3.276,3.276,0,0,0,1.11-.066,5.973,5.973,0,0,0,1.831-.728,6.647,6.647,0,0,0,1.551-1.225,3.551,3.551,0,0,0,.642-.977,2.243,2.243,0,0,0,.172-.739A1.873,1.873,0,0,0,72.652,12.29Zm-2.026,1.39a5.562,5.562,0,0,1-1.074.988,5.315,5.315,0,0,1-1.284.716c-.059.023-.121.044-.177.062l-.109.033-.032.07-.041.091-.019.045-.008.021v.011a.81.81,0,0,1-.027.09v.007c.008.055,0,.079-.01.086s-.008,0-.01-.008a.037.037,0,0,1,0-.012h0l.024-.059a.439.439,0,0,0-.013-.055.354.354,0,0,0-.1-.149.56.56,0,0,0-.046-.039c-.041-.023-.022-.027-.015-.029l.066-.012c.063-.013.146-.033.237-.057l.051-.113L68.207,15c.114-.243.243-.471.364-.693a4.343,4.343,0,0,1,.849-1.092,1.4,1.4,0,0,1,.425-.254.849.849,0,0,1,.4-.047,1.914,1.914,0,0,1,.5.141.8.8,0,0,1,.182.1c0-.01,0-.019,0-.027v-.023a.119.119,0,0,1,0,.023.122.122,0,0,0,.01.029c.01.017,0,.013-.015,0a.339.339,0,0,1-.012.047.1.1,0,0,1-.012.034A1.808,1.808,0,0,1,70.625,13.68Z" transform="translate(-58.523 -9.641)"/><path class="aa" d="M79.128,19.638a.114.114,0,0,1,.012-.034.341.341,0,0,0,.012-.047.8.8,0,0,0-.182-.1,1.915,1.915,0,0,0-.5-.146.849.849,0,0,0-.4.045,1.4,1.4,0,0,0-.425.254,4.343,4.343,0,0,0-.849,1.092c-.121.222-.251.454-.364.693l-.171.364-.051.113.109-.033c-.066.263-.317,1.127-.343.457a2.841,2.841,0,0,1,0-.285v-.08A5.632,5.632,0,0,1,77.3,18.67a1.455,1.455,0,0,1,2.27.355C79.647,19.22,79.371,19.465,79.128,19.638Z" transform="translate(-66.753 -16.033)"/><path class="z" d="M28.876,5.5,28.8,4.89c-.028-.17-.061-.338-.1-.507a9.717,9.717,0,0,0-.281-1,6.666,6.666,0,0,0-1.034-1.941,3.956,3.956,0,0,0-.9-.849A3.163,3.163,0,0,0,23.822.118a3.621,3.621,0,0,0-.645.22,2.4,2.4,0,0,0-.713.485,1.82,1.82,0,0,0-.516,1.025,2.075,2.075,0,0,0,.121.995A3.584,3.584,0,0,0,22.8,3.976a8.934,8.934,0,0,0,1.662,1.365,12.606,12.606,0,0,0,1.8.985c.161.068.323.133.5.2.087.032.183.064.3.1a1.8,1.8,0,0,0,.375.064,1.542,1.542,0,0,0,.882-.171,1.124,1.124,0,0,0,.4-.4,1.2,1.2,0,0,0,.138-.364l.01-.068V5.628A.665.665,0,0,0,28.876,5.5Zm-1.182.081a.408.408,0,0,0,.007.076v-.01l-.011-.024-.022-.05-.05-.1-.1-.209-.062-.133-.121-.08h0c-.089-.057-.184-.121-.273-.186-.494-.336-.983-.716-1.445-1.092A8.141,8.141,0,0,1,24.4,2.586a3,3,0,0,1-.233-.324,1.29,1.29,0,0,0-.148.073.022.022,0,0,1-.008.01c-.013,0-.008,0,.008-.01a.027.027,0,0,0,0-.012.121.121,0,0,0,.032-.046c.007-.034.038-.083.033-.121a.183.183,0,0,0,0-.024.3.3,0,0,0,0-.03c-.007-.022,0-.024,0,0a.14.14,0,0,0,.007.025.862.862,0,0,0,.068.131,1.065,1.065,0,0,1,.2-.064,1.478,1.478,0,0,1,.224-.046h0a1.411,1.411,0,0,1,.3-.007,1.787,1.787,0,0,1,1.045.58A6.43,6.43,0,0,1,26.9,4.054h0l.006.01c.15.25.284.514.417.783.032.061.061.121.091.183h0l.044.093c.092.057.166.1.2.121C27.858,5.309,27.612,5.266,27.694,5.577Z" transform="translate(-19.271 -0.01)"/><path class="z" d="M31.485,38.579l.023.015c.012.006.015.006.011.006h-.033l-.045-.008-.089-.016-.182-.039-.354-.064c-.235-.041-.471-.083-.7-.121a12.926,12.926,0,0,0-1.383-.154,4.792,4.792,0,0,0-.65.011,1.428,1.428,0,0,0-.507.121.349.349,0,0,0-.108.087.2.2,0,0,0-.036.1.633.633,0,0,0,0,.188,1.681,1.681,0,0,0,.059.257,1.225,1.225,0,0,0,.227.44.8.8,0,0,0,.357.243,1.486,1.486,0,0,0,.528.069,3.033,3.033,0,0,0,.614-.081,5.834,5.834,0,0,0,1.253-.472,5.181,5.181,0,0,0,.587-.341,2.293,2.293,0,0,0,.256-.2,1.091,1.091,0,0,0,.092-.093l.012-.016h.008v.016h0a.011.011,0,0,0,.006.01A.1.1,0,0,0,31.485,38.579Zm.2-.279a.3.3,0,0,1,.066.074.179.179,0,0,1,.011.021v.013l.011.028a.344.344,0,0,1,.012.055.364.364,0,0,1,0,.05.345.345,0,0,1-.01.084.458.458,0,0,1-.018.068,1.017,1.017,0,0,1-.093.209,2.183,2.183,0,0,1-.243.323,4.332,4.332,0,0,1-.58.527,5.173,5.173,0,0,1-1.362.756,3.611,3.611,0,0,1-.8.194,2.34,2.34,0,0,1-.905-.063,1.8,1.8,0,0,1-.849-.523,2.224,2.224,0,0,1-.455-.826,2.413,2.413,0,0,1-.1-.451,1.627,1.627,0,0,1,.021-.531,1.242,1.242,0,0,1,.272-.552,1.366,1.366,0,0,1,.467-.345,1.951,1.951,0,0,1,.467-.14,2.72,2.72,0,0,1,.433-.039c.14,0,.274,0,.408.013s.262.029.389.049a8.333,8.333,0,0,1,1.462.383c.234.084.463.175.69.275.113.049.224.1.336.155l.166.084.083.044Z" transform="translate(-23.157 -32.714)"/><rect class="ab" width="7.305" height="11.02" transform="translate(0 6.137)"/><rect class="ac" width="11.02" height="11.02" transform="translate(7.305 6.137)"/><rect class="z" width="1.532" height="11.054" transform="translate(2.549 6.104)"/><rect class="z" width="1.532" height="11.056" transform="translate(12.568 6.101)"/><path class="aa" d="M37.711,20.344a5.162,5.162,0,0,1-1.93-.426c-1.6-.562-2.212-1.548-2-2.1a.737.737,0,0,1,.679-.394h.01a2.038,2.038,0,0,1,.485.021,1.478,1.478,0,0,0-.224.046,1.066,1.066,0,0,0-.19.064,3,3,0,0,0,.233.324A9.511,9.511,0,0,0,36,19.064a15.6,15.6,0,0,0,1.445,1.092C37.532,20.223,37.622,20.287,37.711,20.344Z" transform="translate(-29.646 -15.308)"/><path class="ad" d="M26.1,5.685a2.111,2.111,0,0,1-.135-.557,1.976,1.976,0,0,1,.021-.585,1.666,1.666,0,0,1,.081-.29A1.48,1.48,0,0,1,26.2,3.98a1.577,1.577,0,0,1,.426-.443,2.054,2.054,0,0,1,.545-.269c.047-.017.1-.028.143-.041l.073-.019.073-.016.146-.029.146-.018c.1-.015.194-.017.292-.024h.3l.149.013a.689.689,0,0,1,.149.019,2.153,2.153,0,0,1,.3.074c.049.015.1.027.144.045l.14.056a1.173,1.173,0,0,1,.133.059c.044.023.09.045.132.07a2.688,2.688,0,0,1,.249.166l.061.045a.693.693,0,0,1,.058.046l.112.1a3.263,3.263,0,0,1,.392.438l.045.058.041.059.081.121c.05.084.1.165.147.25a5.055,5.055,0,0,1,.243.519A5.433,5.433,0,0,1,31.1,5.8c.053.182.1.364.135.551a4.869,4.869,0,0,1,.08.561.019.019,0,0,1-.038,0h0a8.154,8.154,0,0,0-.346-1.053c-.07-.17-.146-.338-.229-.5l-.025-.066-.033-.061c-.022-.04-.042-.08-.066-.121-.046-.079-.091-.158-.141-.233s-.1-.15-.153-.224l-.081-.1-.041-.053-.044-.053a3.139,3.139,0,0,0-.372-.379l-.1-.084L29.6,3.941,29.547,3.9a2.2,2.2,0,0,0-.7-.331,2.245,2.245,0,0,0-.254-.055,1.092,1.092,0,0,0-.129-.016l-.129-.012h-.269c-.089.007-.178.007-.266.021l-.132.015-.131.024-.066.011-.056.016c-.042.011-.085.021-.121.033a1.9,1.9,0,0,0-.468.2,1.381,1.381,0,0,0-.607.786l-.021.063-.016.064c-.011.042-.018.087-.028.131a2.416,2.416,0,0,0-.029.268,2.71,2.71,0,0,0,.023.551h0a.024.024,0,0,1-.047.01Z" transform="translate(-22.806 -2.743)"/><path class="ad" d="M85.668,13.58a1.941,1.941,0,0,1,.44.14,2.271,2.271,0,0,1,.408.232,1.837,1.837,0,0,1,.622.741,1.624,1.624,0,0,1,.084.243c.01.041.019.083.028.121l.017.121a1.858,1.858,0,0,1-.025.5,2.15,2.15,0,0,1-.059.243,2.333,2.333,0,0,1-.082.229c-.013.038-.034.074-.051.11s-.034.073-.053.109l-.061.106c-.011.017-.021.035-.032.051l-.035.051c-.023.033-.046.067-.07.1l-.076.095c-.013.016-.025.032-.039.046l-.041.045c-.028.029-.055.059-.084.087-.059.053-.121.109-.18.158-.032.025-.062.051-.093.074l-.1.069a3.388,3.388,0,0,1-.842.406c-.073.025-.147.045-.221.067s-.148.038-.223.053a4.4,4.4,0,0,1-.45.073c-.075.01-.152.017-.227.022s-.153.007-.227.007h-.226a2.012,2.012,0,0,1-.226-.015.018.018,0,0,1,0-.036h0a6.166,6.166,0,0,0,1.7-.445c.067-.028.131-.061.2-.091l.095-.05c.032-.016.063-.034.093-.052a3,3,0,0,0,.352-.234,2.57,2.57,0,0,0,.307-.278l.068-.078.034-.039a.5.5,0,0,0,.03-.04l.062-.081c.019-.029.036-.058.056-.086.039-.056.067-.121.1-.176.016-.03.029-.062.044-.092a.8.8,0,0,0,.04-.093c.023-.064.049-.129.066-.193a1.882,1.882,0,0,0,.047-.194,1.687,1.687,0,0,0,.021-.389,1.392,1.392,0,0,0-.083-.376,1.964,1.964,0,0,0-.44-.675,4.027,4.027,0,0,0-.673-.552h0a.019.019,0,0,1,0-.025.018.018,0,0,1,.011-.006Z" transform="translate(-73.395 -11.934)"/></g></g><g transform="translate(224.408 97.24)"><g transform="translate(0 0)"><path class="z" d="M75.234,12.853a3.255,3.255,0,0,0-1.558-1.411,4.878,4.878,0,0,0-1.636-.457,3.956,3.956,0,0,0-1.833.284,4.357,4.357,0,0,0-1.428.992,5.686,5.686,0,0,0-.911,1.233,7.42,7.42,0,0,0-.583,1.292,9.514,9.514,0,0,0-.36,1.305c-.045.218-.078.438-.109.658-.016.111-.026.222-.035.334l-.012.173v.1h0c-.017.043-.038.083-.054.128a2.059,2.059,0,0,0-.083.286,1.407,1.407,0,0,0,.076.8,1.362,1.362,0,0,0,.63.675,2.026,2.026,0,0,0,.611.2,4.674,4.674,0,0,0,1.584-.093,8.523,8.523,0,0,0,2.612-1.039,9.485,9.485,0,0,0,2.213-1.749,5.067,5.067,0,0,0,.916-1.394,3.2,3.2,0,0,0,.246-1.054A2.673,2.673,0,0,0,75.234,12.853Zm-2.891,1.984a7.935,7.935,0,0,1-1.532,1.409,7.584,7.584,0,0,1-1.832,1.021c-.085.033-.173.062-.253.088l-.156.047-.045.1-.059.13-.028.064-.012.029v.016a1.152,1.152,0,0,1-.038.128v.01c.012.078,0,.113-.014.123s-.012,0-.014-.012a.053.053,0,0,1,0-.017h0l.035-.085a.627.627,0,0,0-.019-.078.506.506,0,0,0-.145-.213.8.8,0,0,0-.066-.055c-.059-.033-.031-.038-.021-.042l.093-.017c.09-.019.208-.047.338-.081l.073-.161.244-.519c.163-.346.346-.672.519-.989a6.2,6.2,0,0,1,1.212-1.558,1.994,1.994,0,0,1,.606-.362,1.212,1.212,0,0,1,.564-.068,2.732,2.732,0,0,1,.712.2,1.139,1.139,0,0,1,.26.149c0-.014,0-.028,0-.038v-.033a.172.172,0,0,1,0,.033.173.173,0,0,0,.014.042c.014.024,0,.019-.021,0a.488.488,0,0,1-.017.068.15.15,0,0,1-.017.048A2.581,2.581,0,0,1,72.342,14.837Z" transform="translate(-55.073 -9.074)"/><path class="aa" d="M80.477,20.233a.162.162,0,0,1,.017-.048.49.49,0,0,0,.017-.068,1.14,1.14,0,0,0-.26-.149,2.732,2.732,0,0,0-.713-.208,1.212,1.212,0,0,0-.575.064,1.994,1.994,0,0,0-.606.362,6.2,6.2,0,0,0-1.212,1.558c-.173.317-.358.647-.519.989l-.244.519-.073.161.156-.047c-.093.376-.452,1.608-.49.653a4.052,4.052,0,0,1,0-.407V23.5a8.036,8.036,0,0,1,1.887-4.647,2.076,2.076,0,0,1,3.239.507C81.216,19.636,80.823,19.986,80.477,20.233Z" transform="translate(-62.818 -15.088)"/><path class="z" d="M31.841,7.839l-.109-.866c-.04-.242-.087-.483-.138-.724a13.868,13.868,0,0,0-.4-1.43,9.512,9.512,0,0,0-1.475-2.77A5.646,5.646,0,0,0,28.427.837a4.513,4.513,0,0,0-3.8-.673,5.168,5.168,0,0,0-.921.313,3.421,3.421,0,0,0-1.018.692,2.6,2.6,0,0,0-.736,1.463,2.96,2.96,0,0,0,.173,1.42,5.114,5.114,0,0,0,1.039,1.617,12.749,12.749,0,0,0,2.372,1.948A17.987,17.987,0,0,0,28.1,9.023c.23.1.461.19.715.282.125.045.261.092.422.138a2.566,2.566,0,0,0,.535.092,2.2,2.2,0,0,0,1.259-.244,1.6,1.6,0,0,0,.575-.564,1.707,1.707,0,0,0,.2-.519l.014-.1V8.027A.949.949,0,0,0,31.841,7.839Zm-1.686.116a.582.582,0,0,0,.01.109V8.05l-.016-.035-.031-.071L30.047,7.8l-.14-.3-.088-.19L29.646,7.2h0c-.126-.081-.263-.173-.39-.265-.7-.48-1.4-1.021-2.062-1.558a11.616,11.616,0,0,1-1.745-1.688,4.274,4.274,0,0,1-.332-.462,1.842,1.842,0,0,0-.211.1.031.031,0,0,1-.012.014c-.019,0-.012,0,.012-.014a.038.038,0,0,0,0-.017.173.173,0,0,0,.045-.066c.01-.048.054-.118.047-.173a.258.258,0,0,0,0-.035.419.419,0,0,0,0-.043c-.01-.031,0-.035,0,0a.2.2,0,0,0,.01.036,1.229,1.229,0,0,0,.1.187,1.52,1.52,0,0,1,.28-.092,2.109,2.109,0,0,1,.32-.066h0a2.013,2.013,0,0,1,.431-.01,2.55,2.55,0,0,1,1.491.828,9.176,9.176,0,0,1,1.4,1.9h0l.009.014c.215.357.405.734.6,1.117.045.087.087.173.13.261h0l.062.133c.132.081.237.144.286.173C30.388,7.572,30.037,7.51,30.155,7.955Z" transform="translate(-18.135 -0.01)"/><path class="z" d="M33.675,39.155a.212.212,0,0,0,.033.021c.017.009.021.009.016.009h-.047l-.064-.012-.126-.023-.26-.055L32.721,39c-.336-.059-.672-.118-1.006-.173a18.445,18.445,0,0,0-1.974-.22,6.837,6.837,0,0,0-.928.016,2.037,2.037,0,0,0-.724.173.5.5,0,0,0-.154.125.279.279,0,0,0-.052.137.9.9,0,0,0,0,.268,2.4,2.4,0,0,0,.085.367,1.749,1.749,0,0,0,.324.628,1.146,1.146,0,0,0,.509.346,2.121,2.121,0,0,0,.753.1,4.328,4.328,0,0,0,.876-.116,8.325,8.325,0,0,0,1.788-.673,7.394,7.394,0,0,0,.838-.486,3.271,3.271,0,0,0,.365-.28,1.557,1.557,0,0,0,.132-.133l.017-.023a.019.019,0,0,1,.012,0h0v.023h0a.016.016,0,0,0,.009.014A.137.137,0,0,0,33.675,39.155Zm.284-.4a.423.423,0,0,1,.093.106.254.254,0,0,1,.016.029v.019l.016.04a.492.492,0,0,1,.017.078.521.521,0,0,1,0,.071.492.492,0,0,1-.014.119.652.652,0,0,1-.026.1,1.451,1.451,0,0,1-.133.3,3.115,3.115,0,0,1-.346.461,6.182,6.182,0,0,1-.828.751A7.382,7.382,0,0,1,30.81,41.9a5.152,5.152,0,0,1-1.148.277,3.34,3.34,0,0,1-1.292-.09,2.574,2.574,0,0,1-1.212-.746,3.173,3.173,0,0,1-.649-1.179,3.444,3.444,0,0,1-.137-.644,2.322,2.322,0,0,1,.029-.758,1.773,1.773,0,0,1,.388-.788,1.949,1.949,0,0,1,.667-.492,2.784,2.784,0,0,1,.667-.2,3.883,3.883,0,0,1,.618-.055c.2,0,.391,0,.582.019s.374.042.556.069a11.891,11.891,0,0,1,2.086.547c.334.119.661.249.985.393.161.069.32.144.48.222l.237.119.118.062Z" transform="translate(-21.792 -30.786)"/><rect class="ae" width="10.424" height="15.725" transform="translate(0 8.757)"/><rect class="af" width="15.725" height="15.725" transform="translate(10.424 8.757)"/><rect class="z" width="2.187" height="15.773" transform="translate(3.637 8.71)"/><rect class="z" width="2.187" height="15.777" transform="translate(17.934 8.706)"/><path class="aa" d="M39.406,21.593a7.367,7.367,0,0,1-2.754-.608c-2.277-.8-3.156-2.209-2.855-2.993a1.051,1.051,0,0,1,.969-.563h.014a2.909,2.909,0,0,1,.693.029,2.109,2.109,0,0,0-.32.066,1.521,1.521,0,0,0-.272.092,4.275,4.275,0,0,0,.332.462,13.572,13.572,0,0,0,1.745,1.688,22.266,22.266,0,0,0,2.062,1.558C39.152,21.419,39.28,21.511,39.406,21.593Z" transform="translate(-27.898 -14.406)"/><path class="ad" d="M26.166,6.78a3.012,3.012,0,0,1-.192-.795A2.82,2.82,0,0,1,26,5.151a2.377,2.377,0,0,1,.116-.414,2.112,2.112,0,0,1,.19-.39,2.251,2.251,0,0,1,.608-.632,2.931,2.931,0,0,1,.777-.384c.068-.024.137-.04.2-.059l.1-.028.1-.023.208-.042.208-.026c.138-.021.277-.024.417-.035h.424l.213.019a.984.984,0,0,1,.213.028,3.073,3.073,0,0,1,.426.106c.069.021.138.038.206.064l.2.08a1.674,1.674,0,0,1,.19.085c.062.033.128.064.189.1a3.835,3.835,0,0,1,.355.237l.087.064a.989.989,0,0,1,.083.066l.159.14a4.655,4.655,0,0,1,.559.625l.064.083.059.085.116.173c.071.119.145.235.209.357a7.213,7.213,0,0,1,.346.741,7.752,7.752,0,0,1,.265.769c.076.26.142.519.192.786a6.95,6.95,0,0,1,.114.8.028.028,0,0,1-.054,0h0a11.635,11.635,0,0,0-.493-1.5c-.1-.242-.208-.483-.327-.715L32.7,6.215l-.047-.087c-.031-.057-.061-.114-.093-.173-.066-.113-.13-.225-.2-.332s-.144-.215-.218-.32l-.116-.147-.059-.076L31.9,5a4.479,4.479,0,0,0-.531-.54l-.145-.119-.068-.052-.076-.054a3.141,3.141,0,0,0-1-.473,3.2,3.2,0,0,0-.362-.078,1.558,1.558,0,0,0-.184-.023l-.184-.017h-.384c-.126.01-.254.01-.379.029L28.4,3.7l-.187.035-.093.016-.08.023c-.061.016-.121.029-.173.047a2.711,2.711,0,0,0-.668.289,1.97,1.97,0,0,0-.866,1.122l-.029.09-.023.092c-.016.061-.026.125-.04.187a3.448,3.448,0,0,0-.042.383,3.867,3.867,0,0,0,.033.786h0a.035.035,0,0,1-.068.014Z" transform="translate(-21.462 -2.582)"/><path class="ad" d="M86.581,13.58a2.769,2.769,0,0,1,.628.2,3.239,3.239,0,0,1,.582.331,2.621,2.621,0,0,1,.888,1.058,2.315,2.315,0,0,1,.119.346c.014.059.028.118.04.173l.024.173a2.652,2.652,0,0,1-.036.713,3.067,3.067,0,0,1-.085.346,3.324,3.324,0,0,1-.118.327c-.019.054-.048.106-.073.158s-.048.1-.076.156l-.087.151c-.016.024-.029.05-.045.073l-.05.073c-.033.047-.066.1-.1.14l-.109.135c-.019.023-.036.045-.055.066l-.059.064c-.04.042-.078.085-.119.125-.085.076-.173.156-.256.225-.045.036-.088.073-.133.106l-.138.1a4.836,4.836,0,0,1-1.2.58c-.1.036-.209.064-.315.1s-.211.054-.319.076a6.277,6.277,0,0,1-.642.1c-.107.014-.216.024-.324.031s-.218.01-.324.01h-.322a2.872,2.872,0,0,1-.322-.021.026.026,0,0,1,0-.052h0A8.8,8.8,0,0,0,85.975,19c.1-.04.187-.087.279-.13l.135-.071c.045-.023.09-.048.133-.074a4.284,4.284,0,0,0,.5-.334,3.666,3.666,0,0,0,.438-.4l.1-.111.048-.055a.706.706,0,0,0,.043-.057l.088-.116c.028-.042.052-.083.08-.123.055-.08.1-.173.144-.251.023-.043.042-.088.062-.132a1.147,1.147,0,0,0,.057-.133c.033-.092.069-.184.093-.275a2.687,2.687,0,0,0,.068-.277,2.406,2.406,0,0,0,.029-.556,1.987,1.987,0,0,0-.118-.537,2.8,2.8,0,0,0-.628-.963,5.747,5.747,0,0,0-.961-.788h0a.028.028,0,0,1,0-.036A.026.026,0,0,1,86.581,13.58Z" transform="translate(-69.068 -11.231)"/></g></g></g></g></svg>