<?xml version="1.0" encoding="utf-8"?>
<!-- Generator: Adobe Illustrator 23.0.1, SVG Export Plug-In . SVG Version: 6.00 Build 0)  -->
<svg version="1.1" id="Layer_1" xmlns="http://www.w3.org/2000/svg" xmlns:xlink="http://www.w3.org/1999/xlink" x="0px" y="0px"
	 viewBox="0 0 16 16" style="enable-background:new 0 0 16 16;" xml:space="preserve">
<style type="text/css">
	.st0{fill:#007C3D;fill-opacity:0;}
	.st1{fill:#007C3D;}
</style>
<g transform="translate(0 -0.118)">
	<rect x="-1.3" y="-0.3" class="st0" width="18.7" height="18.7"/>
	<g transform="translate(3.013 2.367)">
		<path class="st1" d="M5.1,0.4C3.6,0.4,2.1,1,1,2.1V0.4C1,0.2,0.8,0,0.6,0C0.3,0,0.1,0.1,0.1,0.4c0,0,0,0,0,0v2.7
			c0,0.2,0.1,0.4,0.3,0.4l2.7,0.9c0.2,0.1,0.5,0,0.6-0.3c0.1-0.2,0-0.5-0.3-0.6c0,0,0,0,0,0L1.4,3c1.9-2,5-2.2,7.1-0.3
			s2.2,5,0.3,7.1s-5,2.2-7.1,0.3C0.5,8.9-0.1,7.2,0.2,5.5C0.2,5.3,0.1,5.1-0.2,5c-0.2-0.1-0.5,0.1-0.5,0.3c0,0,0,0,0,0v0
			c-0.1,0.3-0.1,0.7-0.1,1c0,3.3,2.7,6,5.9,6s6-2.7,6-5.9C11.1,3.1,8.4,0.5,5.1,0.4z"/>
	</g>
</g>
</svg>
