<svg xmlns="http://www.w3.org/2000/svg" width="32" height="32" viewBox="0 0 32 32">
  <g id="Group_40238" data-name="Group 40238" transform="translate(-124 -404)">
    <g id="Group_40224" data-name="Group 40224" transform="translate(79 -2)">
      <rect id="Rectangle_18707" data-name="Rectangle 18707" width="32" height="32" transform="translate(45 406)" fill="#fff" opacity="0"/>
    </g>
    <g id="noun_register_3194805" transform="translate(118 404.5)">
      <g id="Group_40237" data-name="Group 40237" transform="translate(12 2.5)">
        <path id="Path_44114" data-name="Path 44114" d="M55.949,53H50.312a.707.707,0,0,0-.712.712.725.725,0,0,0,.712.712h5.638a.712.712,0,0,0,0-1.423Z" transform="translate(-39.309 -39.179)" fill="#007c3d"/>
        <path id="Path_44115" data-name="Path 44115" d="M55.949,66.1H50.312a.707.707,0,0,0-.712.712.725.725,0,0,0,.712.712h5.638a.712.712,0,1,0,0-1.423Z" transform="translate(-39.309 -48.694)" fill="#007c3d"/>
        <path id="Path_44116" data-name="Path 44116" d="M55.949,79.2H50.312a.707.707,0,0,0-.712.712.725.725,0,0,0,.712.712h5.638a.712.712,0,0,0,0-1.423Z" transform="translate(-39.309 -58.208)" fill="#007c3d"/>
        <path id="Path_44117" data-name="Path 44117" d="M39.268,53h-.657a.707.707,0,0,0-.712.712.725.725,0,0,0,.712.712h.657a.712.712,0,0,0,0-1.423Z" transform="translate(-30.812 -39.179)" fill="#007c3d"/>
        <path id="Path_44118" data-name="Path 44118" d="M39.268,66.1h-.657a.707.707,0,0,0-.712.712.725.725,0,0,0,.712.712h.657a.712.712,0,1,0,0-1.423Z" transform="translate(-30.812 -48.694)" fill="#007c3d"/>
        <path id="Path_44119" data-name="Path 44119" d="M39.268,79.2h-.657a.707.707,0,0,0-.712.712.725.725,0,0,0,.712.712h.657a.712.712,0,0,0,0-1.423Z" transform="translate(-30.812 -58.208)" fill="#007c3d"/>
        <path id="Path_44120" data-name="Path 44120" d="M32.581,12.353l-4.9-4.9a.748.748,0,0,0-.52-.219H23.851a5.991,5.991,0,1,0-8.211,6.76V27.788a.707.707,0,0,0,.712.712H32.034a.707.707,0,0,0,.712-.712V12.873A.535.535,0,0,0,32.581,12.353ZM27.3,9.1l3.64,3.64H27.3Zm-13.848-.6a4.543,4.543,0,1,1,4.543,4.543A4.532,4.532,0,0,1,13.451,8.494Zm3.667,18.556V14.405a4.82,4.82,0,0,0,.9.082,5.979,5.979,0,0,0,5.966-5.775h1.888V13.5a.707.707,0,0,0,.712.712h4.789V27.077H17.118Z" transform="translate(-12 -2.5)" fill="#007c3d"/>
        <path id="Path_44121" data-name="Path 44121" d="M29.264,17.155a.727.727,0,0,0-1.013,0l-2.107,2.107-.876-.876A.716.716,0,1,0,24.255,19.4l1.368,1.368a.727.727,0,0,0,1.04,0l2.627-2.627A.721.721,0,0,0,29.264,17.155Z" transform="translate(-20.752 -12.995)" fill="#007c3d"/>
      </g>
    </g>
  </g>
</svg>
