<svg xmlns="http://www.w3.org/2000/svg" xmlns:xlink="http://www.w3.org/1999/xlink" width="387.557" height="512" viewBox="0 0 387.557 512">
  <defs>
    <linearGradient id="linear-gradient" x1="0.11" y1="1.16" x2="0.934" y2="-0.236" gradientUnits="objectBoundingBox">
      <stop offset="0" stop-color="#e6f2f2"/>
      <stop offset="1" stop-color="#fff"/>
    </linearGradient>
    <linearGradient id="linear-gradient-2" x1="0.152" y1="-0.029" x2="0.924" y2="1.144" gradientUnits="objectBoundingBox">
      <stop offset="0" stop-color="#ffb8aa"/>
      <stop offset="1" stop-color="#ff65bd"/>
    </linearGradient>
    <linearGradient id="linear-gradient-3" x1="0.152" y1="-0.029" x2="0.924" y2="1.144" xlink:href="#linear-gradient-2"/>
    <linearGradient id="linear-gradient-4" x1="0.152" y1="-0.029" x2="0.924" y2="1.144" gradientUnits="objectBoundingBox">
      <stop offset="0" stop-color="#fe89dd"/>
      <stop offset="0.109" stop-color="#e180e6"/>
      <stop offset="0.242" stop-color="#c578ee"/>
      <stop offset="0.386" stop-color="#b072f5"/>
      <stop offset="0.545" stop-color="#a06efa"/>
      <stop offset="0.729" stop-color="#976bfd"/>
      <stop offset="1" stop-color="#956bfe"/>
    </linearGradient>
    <linearGradient id="linear-gradient-5" x1="0.5" x2="0.5" y2="1" gradientUnits="objectBoundingBox">
      <stop offset="0" stop-color="#c0e9b4"/>
      <stop offset="1" stop-color="#74c85c"/>
    </linearGradient>
    <linearGradient id="linear-gradient-6" x1="0.5" x2="0.5" y2="1" gradientUnits="objectBoundingBox">
      <stop offset="0" stop-color="#e3606b"/>
      <stop offset="1" stop-color="#ffb2f5"/>
    </linearGradient>
    <linearGradient id="linear-gradient-7" x1="0.017" y1="1.583" x2="1.356" y2="-1.418" gradientUnits="objectBoundingBox">
      <stop offset="0" stop-color="#ffab57"/>
      <stop offset="1" stop-color="#fff870"/>
    </linearGradient>
    <linearGradient id="linear-gradient-8" x1="1.628" y1="-0.15" x2="-0.387" y2="0.859" gradientUnits="objectBoundingBox">
      <stop offset="0" stop-color="#f9d0c2"/>
      <stop offset="1" stop-color="#ff9992"/>
    </linearGradient>
    <linearGradient id="linear-gradient-9" x1="2.997" y1="1.048" x2="0.351" y2="2.701" xlink:href="#linear-gradient-8"/>
    <linearGradient id="linear-gradient-10" y1="0.5" x2="1" y2="0.5" gradientUnits="objectBoundingBox">
      <stop offset="0" stop-color="#3b234c"/>
      <stop offset="0.337" stop-color="#402450"/>
      <stop offset="0.75" stop-color="#4f2a5c"/>
      <stop offset="1" stop-color="#5c2f67"/>
    </linearGradient>
    <linearGradient id="linear-gradient-11" x1="0.503" y1="1.052" x2="0.493" y2="0.023" xlink:href="#linear-gradient-8"/>
    <linearGradient id="linear-gradient-12" x1="-0.131" y1="-0.045" x2="1.905" y2="1.707" gradientUnits="objectBoundingBox">
      <stop offset="0" stop-color="#93e69a"/>
      <stop offset="1" stop-color="#1daec4"/>
    </linearGradient>
    <linearGradient id="linear-gradient-13" x1="1.262" y1="-0.037" x2="-0.092" y2="1.447" xlink:href="#linear-gradient-12"/>
    <linearGradient id="linear-gradient-14" x1="0.336" y1="-0.081" x2="0.558" y2="1.018" xlink:href="#linear-gradient-12"/>
    <linearGradient id="linear-gradient-15" y1="0.5" x2="1" y2="0.5" gradientUnits="objectBoundingBox">
      <stop offset="0" stop-color="#3f4485"/>
      <stop offset="0.388" stop-color="#3d427f"/>
      <stop offset="0.864" stop-color="#393e70"/>
      <stop offset="1" stop-color="#383d6b"/>
    </linearGradient>
  </defs>
  <g id="Account_Details" data-name="Account Details" transform="translate(-1140.631 -209)">
    <g id="Group_36453" data-name="Group 36453" transform="translate(782.393 4.172)">
      <circle id="Ellipse_2689" data-name="Ellipse 2689" cx="89.862" cy="89.862" r="89.862" transform="translate(539.538 232.465)" fill="url(#linear-gradient)"/>
      <circle id="Ellipse_2690" data-name="Ellipse 2690" cx="18.534" cy="18.534" r="18.534" transform="translate(664.632 375.121)" opacity="0.25" fill="url(#linear-gradient-2)"/>
      <circle id="Ellipse_2691" data-name="Ellipse 2691" cx="14.503" cy="14.503" r="14.503" transform="translate(506.387 204.828)" opacity="0.25" fill="url(#linear-gradient-3)"/>
      <circle id="Ellipse_2692" data-name="Ellipse 2692" cx="7.24" cy="7.24" r="7.24" transform="translate(605.076 379.255)" opacity="0.35" fill="url(#linear-gradient-4)"/>
      <g id="Group_36447" data-name="Group 36447" transform="translate(586.523 213.368)">
        <path id="Path_28497" data-name="Path 28497" d="M663.93,239.745v28.909a26.751,26.751,0,0,1-26.745,26.755H608.266a26.747,26.747,0,0,1-26.746-26.755V239.745A26.74,26.74,0,0,1,608.266,213h28.918A26.744,26.744,0,0,1,663.93,239.745Z" transform="translate(-581.52 -212.999)" fill="url(#linear-gradient-5)"/>
      </g>
      <g id="Group_36449" data-name="Group 36449" transform="translate(680.566 253.485)" opacity="0.8">
        <path id="Path_28500" data-name="Path 28500" d="M727.088,270.054v18.233a18.669,18.669,0,0,1-18.67,18.67H690.173a18.66,18.66,0,0,1-18.669-18.67V270.054a18.659,18.659,0,0,1,18.669-18.669h18.246A18.668,18.668,0,0,1,727.088,270.054Z" transform="translate(-671.504 -251.385)" fill="url(#linear-gradient-6)"/>
      </g>
      <g id="Group_36450" data-name="Group 36450" transform="translate(636.927 310.322)" opacity="0.8">
        <path id="Path_28503" data-name="Path 28503" d="M676.412,321.446v15.321a15.676,15.676,0,0,1-15.677,15.677H645.425a15.676,15.676,0,0,1-15.677-15.677V321.446a15.676,15.676,0,0,1,15.677-15.677h15.311A15.676,15.676,0,0,1,676.412,321.446Z" transform="translate(-629.748 -305.769)" fill="url(#linear-gradient-7)"/>
      </g>
    </g>
    <path id="Path_28670" data-name="Path 28670" d="M-1506.775-2547c80.366-5.75,192.157,0,192.157,0s49.123,6,37.565,17-47.678,2.5-57.069,6,47.317,10.25,70.795,17,11.558,21,11.558,21-36.3,19-111.971,19-110.165-7.5-189.267-19-84.7-23.75-83.075-38S-1587.141-2541.25-1506.775-2547Z" transform="translate(2776.932 3188)" fill="#efefef"/>
    <g id="Group_36510" data-name="Group 36510" transform="translate(-355.38 104.465)">
      <path id="Path_28656" data-name="Path 28656" d="M1619.611,370.342c-3.492,64.828-7.167,222.008-7.167,222.008h13.814s23.749-176.618,28.872-198.039c0,0,16.142,89.806,33.738,198.039H1703.3s-2.976-135.871-16.832-223.7C1654.05,368.776,1619.611,370.342,1619.611,370.342Z" transform="translate(-3.327 -46.621)" fill="#3068ab"/>
      <path id="Path_28657" data-name="Path 28657" d="M1610.168,655.754s-14.895,7.912-11.328,11.8h26.2c.074.15.753-7.835-2.808-11.8Z" transform="translate(-0.201 -110.025)" fill="#7a90bc"/>
      <path id="Path_28658" data-name="Path 28658" d="M1723.177,655.754s14.894,7.912,11.327,11.8h-26.2c-.074.15-.753-7.835,2.808-11.8Z" transform="translate(-24.474 -110.025)" fill="#7a90bc"/>
      <path id="Path_28659" data-name="Path 28659" d="M1689.657,361.8c-32.422.13-68.724,2.659-68.724,2.659l-.065,1.187c-.86,15.978-1.615,37.438-2.264,60.7,5.81-4.592,10.346-21.591,12.958-33.875a15.286,15.286,0,0,1,14.492-12.165c20.221-.475,44.807-10.461,44.821-10.466Q1690.281,365.756,1689.657,361.8Z" transform="translate(-4.687 -45.108)" fill="#231f20" opacity="0.1" style="mix-blend-mode: darken;isolation: isolate"/>
      <g id="Group_36509" data-name="Group 36509" transform="translate(1619.571 157.535)">
        <path id="Path_28660" data-name="Path 28660" d="M1648.24,211.613s.96,14.312-1.083,16.808,3.745,6.355,9.3,6.355,10.1-7.716,10.1-7.716-2.723.1-2.723-3.865v-7.709Z" transform="translate(-1630.471 -169.477)" fill="url(#linear-gradient-8)"/>
        <path id="Path_28661" data-name="Path 28661" d="M1649.661,206.027s22.8,10.5,23.387-3.173a168.466,168.466,0,0,0-1.453-27.59l-32.382,4.392S1635.837,203.169,1649.661,206.027Z" transform="translate(-1628.729 -161.45)" fill="url(#linear-gradient-9)"/>
        <path id="Path_28662" data-name="Path 28662" d="M1669.356,228.6c-.806-.284-1.962-1.137-1.962-3.722v-5.6a18.623,18.623,0,0,1-3.811-.584c-1.971-.53.482,10.065,4.414,10.569A1.189,1.189,0,0,0,1669.356,228.6Z" transform="translate(-1634.038 -171.038)" fill="#fa8579" opacity="0.34" style="mix-blend-mode: darken;isolation: isolate"/>
        <path id="Path_28663" data-name="Path 28663" d="M1665.975,159.5c-9.877-5.285-20.76,1.759-20.76,1.759-15.334-3.683-19.129,16.482-19.129,16.484-1.541,7.571,4.871,21.871,18.581,27.237a10.359,10.359,0,0,0,3.512.67,12.515,12.515,0,0,0,11.735-7.969l.714-1.766a.515.515,0,0,0-.422-.425c-1.246-.2-5.361-1.292-6.218-6.862,0,0-.585-5.02,3.46-5.269a5.55,5.55,0,0,1,5.479,2.916s3.049-3.416,3.049-10.505v-4.049c.869,2.313,7.333,5.365,7.333,5.365S1675.452,164.571,1665.975,159.5Z" transform="translate(-1625.861 -157.535)" fill="url(#linear-gradient-10)"/>
      </g>
      <path id="Path_28664" data-name="Path 28664" d="M1763.848,197.518s-.436-10.023,3.16-10.9c0,0,5.606-9.816,7.023-9.271s-1.767,8.319-1.767,8.319,2.63-.086,2.917,2.3c0,0,2.179,1.1,2.179,2.409a2.717,2.717,0,0,1,.545,3.214c-.98,1.8-5.829,7.464-5.829,7.464Z" transform="translate(-36.759 -4.371)" fill="url(#linear-gradient-11)"/>
      <path id="Path_28665" data-name="Path 28665" d="M1689.362,224.1s15.508,1.263,37.162,8.481c0,0,13.737-18.627,19.559-30.5l10.71,3.492s-11.06,27-20.061,42.3a10.223,10.223,0,0,1-8.354,5.009c-9.507.437-28.979,1.113-36.081-.273C1682.751,250.746,1689.362,224.1,1689.362,224.1Z" transform="translate(-19.821 -9.838)" fill="url(#linear-gradient-12)"/>
      <path id="Path_28666" data-name="Path 28666" d="M1617.344,236.859s-8.665,3.871-11.226,15.513-16.334,51-3.026,57.164,17.928,3.219,17.928,3.219Z" transform="translate(0 -17.518)" fill="url(#linear-gradient-13)"/>
      <path id="Path_28667" data-name="Path 28667" d="M1676.022,230.463c6.746.781,13.927,100.15,12.259,107.612-2.284,10.212-61.273,8.233-64.869,5.312-4.967-4.036-2.073-6.875-2.073-46.3s-2.449-54.52-2.449-54.52a8.155,8.155,0,0,1,6.734-8.713C1629.928,233.105,1665.124,229.2,1676.022,230.463Z" transform="translate(-4.744 -16.05)" fill="url(#linear-gradient-14)"/>
      <path id="Path_28668" data-name="Path 28668" d="M1620.847,267.992h0c.5,8.657.932,20.9.932,37.435,0,39.427-2.895,42.266,2.073,46.3,1.889,1.535,19.077,2.809,35.294,2.191C1629.951,346.262,1620.847,267.992,1620.847,267.992Z" transform="translate(-5.182 -24.393)" opacity="0.16" fill="url(#linear-gradient-15)" style="mix-blend-mode: darken;isolation: isolate"/>
      <path id="Path_28669" data-name="Path 28669" d="M1647.276,231.362l.39-5.188a65.3,65.3,0,0,1,17.516-1.014l.726,4.254S1657.58,236.507,1647.276,231.362Z" transform="translate(-11.019 -14.883)" fill="#9cfbb1"/>
    </g>
  </g>
</svg>
