<svg id="Remarks" xmlns="http://www.w3.org/2000/svg" width="36" height="36" viewBox="0 0 36 36">
  <path id="Path_28502" data-name="Path 28502" d="M18,36A18,18,0,1,1,36,18,18.02,18.02,0,0,1,18,36ZM18,2.25A15.75,15.75,0,1,0,33.75,18,15.767,15.767,0,0,0,18,2.25Zm0,0" fill="#007c3d"/>
  <g id="Group_36549" data-name="Group 36549" transform="translate(1 2.851)">
    <path id="Path_28501" data-name="Path 28501" d="M237.154,363.911a1.243,1.243,0,1,1-1.243-1.243A1.243,1.243,0,0,1,237.154,363.911Zm0,0" transform="translate(-219.002 -340.506)" fill="#007c3d"/>
    <path id="Path_28503" data-name="Path 28503" d="M170.616,98.7a.933.933,0,0,1-.932-.932V96.509a2.8,2.8,0,0,1,1.867-2.638,3.857,3.857,0,0,0,2.484-3.255,3.419,3.419,0,1,0-6.838,0,.932.932,0,0,1-1.865,0,5.284,5.284,0,0,1,10.568,0,5.721,5.721,0,0,1-3.729,5.014.933.933,0,0,0-.623.88v1.255A.933.933,0,0,1,170.616,98.7Zm0,0" transform="translate(-153.707 -79.332)" fill="#007c3d"/>
  </g>
</svg>
