<svg xmlns="http://www.w3.org/2000/svg" width="19.369" height="22.437" viewBox="0 0 19.369 22.437"><defs><style>.a{fill:#007c3d;}</style></defs><g transform="translate(-2.642)"><g transform="translate(2.642)"><path class="a" d="M57.288,18.074l-1.171-1.2A9.706,9.706,0,0,1,54,10.574V9a5.832,5.832,0,0,0-4.15-5.544,2.183,2.183,0,1,0-3.534,0A5.832,5.832,0,0,0,42.17,9v1.521a10.09,10.09,0,0,1-1.469,5.42,15.461,15.461,0,0,1-1.827,2.14.58.58,0,0,0,.422.967h4.841a4,4,0,0,0,7.9,0h4.841A.58.58,0,0,0,57.288,18.074Zm-9.2-16.924a1.033,1.033,0,0,1,1.032,1.031,1.032,1.032,0,0,1-2.064,0A1.033,1.033,0,0,1,48.086,1.151Zm0,20.136A2.822,2.822,0,0,1,45.3,19.052h5.569A2.821,2.821,0,0,1,48.086,21.287ZM40.614,17.9a9.437,9.437,0,0,0,1.537-2.182h2.3a.575.575,0,0,0,0-1.151H42.645a11.919,11.919,0,0,0,.675-4.043V9a4.768,4.768,0,0,1,9.533,0v1.571a11.909,11.909,0,0,0,.66,3.994H50.275a.575.575,0,1,0,0,1.151H54A8.542,8.542,0,0,0,55.508,17.9H40.614Z" transform="translate(-38.402)"/><g transform="translate(17.491 5.52)"><path class="a" d="M397.578,122.943a.583.583,0,0,1-.54-.775,8.46,8.46,0,0,0-.162-6.239.575.575,0,1,1,1.057-.454,9.611,9.611,0,0,1,.185,7.091A.576.576,0,0,1,397.578,122.943Z" transform="translate(-396.829 -115.127)"/></g><g transform="translate(0 5.435)"><path class="a" d="M33.129,121.273a.575.575,0,0,1-.54-.376,9.61,9.61,0,0,1,.224-7.181.575.575,0,0,1,1.053.465,8.459,8.459,0,0,0-.2,6.318A.583.583,0,0,1,33.129,121.273Z" transform="translate(-32 -113.373)"/></g><g transform="translate(8.956 14.473)"><circle class="a" cx="0.671" cy="0.671" r="0.671"/></g></g></g></svg>