<svg xmlns="http://www.w3.org/2000/svg" width="15.26" height="15.26" viewBox="0 0 15.26 15.26"><defs><style>.a{fill:#007c3d;}</style></defs><g transform="translate(-43.37 -576.524)"><path class="a" d="M2.044,9.5A4.689,4.689,0,0,0,2.86,6.974V6.08a3.465,3.465,0,0,1,3.4-3.457h.113A3.471,3.471,0,0,1,9.775,6.08v.894a3.96,3.96,0,0,0,.422,1.81.6.6,0,1,0,1.073-.519,2.788,2.788,0,0,1-.3-1.29V6.08A4.671,4.671,0,0,0,6.884,1.466V.6A.6.6,0,1,0,5.692.6v.875A4.656,4.656,0,0,0,1.668,6.08v.894a3.57,3.57,0,0,1-.657,1.933A7.187,7.187,0,0,0,.03,11.353a1.789,1.789,0,0,0,1.758,2.119H4.529a1.788,1.788,0,0,0,3.576,0c0-.013,0-.025,0-.038A.6.6,0,0,0,7.9,12.279H1.788a.6.6,0,0,1-.586-.707A6.1,6.1,0,0,1,2.044,9.5Zm4.87,3.969a.6.6,0,0,1-1.192,0Zm8.345-1.043a.6.6,0,0,1-.6.6H13.024v1.639a.6.6,0,0,1-1.192,0V13.024H10.192a.6.6,0,1,1,0-1.192h1.639V10.193a.6.6,0,0,1,1.192,0v1.639h1.639A.6.6,0,0,1,15.259,12.428Zm0,0" transform="translate(43.371 576.524)"/></g></svg>