<svg xmlns="http://www.w3.org/2000/svg" width="21.087" height="20.952" viewBox="0 0 21.087 20.952"><defs><style>.a{fill:#007c3d;}</style></defs><g transform="translate(-11 -11.24)"><path class="a" d="M32.812,24.209l2.1,2.1.392-.392-2.1-2.1c-.081-.081,0-.365,0-.365L31.782,22.23l-.562.562,1.225,1.417S32.742,24.141,32.812,24.209Z" transform="translate(-14.754 -8.019)"/><path class="a" d="M52.271,41.89,50.89,43.271l3,3a.622.622,0,0,0,.881,0l.489-.489a.622.622,0,0,0,0-.881Z" transform="translate(-29.106 -22.364)"/><path class="a" d="M39.845,23.916a.841.841,0,0,1-1.19-1.19l1.317-1.3a2.314,2.314,0,0,0-.933-.214A2.355,2.355,0,0,0,36.7,23.546a2.314,2.314,0,0,0,.214.933l-5.472,5.461a.841.841,0,0,0,1.19,1.19L38.1,25.654a2.314,2.314,0,0,0,.933.214,2.355,2.355,0,0,0,2.336-2.336,2.314,2.314,0,0,0-.224-.933Z" transform="translate(-14.738 -7.275)"/><path class="a" d="M28.843,11.24h-14.6A3.244,3.244,0,0,0,11,14.484v9.732a3.244,3.244,0,0,0,3.244,3.244h5.185l4.526,4.461a.925.925,0,0,0,.646.27.762.762,0,0,0,.36-.089.7.7,0,0,0,.368-.714l-.1-3.925h3.617a3.244,3.244,0,0,0,3.244-3.244V14.487a3.244,3.244,0,0,0-3.244-3.247Zm2.163,12.977a2.163,2.163,0,0,1-2.163,2.163h-4.18a.541.541,0,0,0-.541.554l.1,3.728-4.19-4.125a.541.541,0,0,0-.378-.157H14.244a2.163,2.163,0,0,1-2.163-2.163V14.484a2.163,2.163,0,0,1,2.163-2.163h14.6a2.163,2.163,0,0,1,2.163,2.163Z" transform="translate(0 0)"/></g></svg>