<svg xmlns="http://www.w3.org/2000/svg" width="31.703" height="31.702" viewBox="0 0 31.703 31.702"><defs><style>.a{fill:#37474f;}</style></defs><g transform="translate(10.19 19.248)"><path class="a" d="M163.789,290.132a1.132,1.132,0,0,0-1.132,1.132,3.4,3.4,0,0,1-6.793,0,1.132,1.132,0,0,0-2.265,0,5.661,5.661,0,1,0,11.322,0A1.132,1.132,0,0,0,163.789,290.132Z" transform="translate(-153.599 -290.132)"/></g><g transform="translate(10.204 0)"><path class="a" d="M164.786,15.522l-4.529,4.529a1.132,1.132,0,0,1-1.6,0l-4.529-4.529a1.132,1.132,0,0,1,1.6-1.6l2.6,2.6V1.134a1.132,1.132,0,1,1,2.264,0V16.517l2.6-2.6a1.132,1.132,0,0,1,1.6,1.6Z" transform="translate(-153.809 -0.002)"/></g><g transform="translate(0 9.057)"><path class="a" d="M30.571,136.531H20.38a1.132,1.132,0,0,0,0,2.265h3.5a6.8,6.8,0,0,0,5.559,5.559v7a6.8,6.8,0,0,0-5.559,5.559H7.824a6.8,6.8,0,0,0-5.559-5.559v-7A6.8,6.8,0,0,0,7.824,138.8h3.5a1.132,1.132,0,1,0,0-2.265H1.132A1.132,1.132,0,0,0,0,137.663v20.38a1.132,1.132,0,0,0,1.132,1.132H30.571a1.132,1.132,0,0,0,1.132-1.132v-20.38A1.132,1.132,0,0,0,30.571,136.531ZM2.264,138.8H5.5a4.529,4.529,0,0,1-3.236,3.236V138.8Zm0,18.116v-3.236A4.529,4.529,0,0,1,5.5,156.911Zm27.174,0H26.2a4.529,4.529,0,0,1,3.236-3.236Zm0-14.88A4.529,4.529,0,0,1,26.2,138.8h3.236Z" transform="translate(0 -136.531)"/></g></svg>