<svg xmlns="http://www.w3.org/2000/svg" width="31.703" height="34.202" viewBox="0 0 31.703 34.202"><defs><style>.a,.b{fill:#37474f;}.b{stroke:#37474f;stroke-linecap:round;stroke-linejoin:round;}</style></defs><g transform="translate(0 0.5)"><g transform="translate(10.19 21.248)"><path class="a" d="M163.789,290.132a1.132,1.132,0,0,0-1.132,1.132,3.4,3.4,0,0,1-6.793,0,1.132,1.132,0,0,0-2.265,0,5.661,5.661,0,1,0,11.322,0A1.132,1.132,0,0,0,163.789,290.132Z" transform="translate(-153.599 -290.132)"/></g><g transform="translate(0 11.058)"><path class="a" d="M30.571,136.531H20.38a1.132,1.132,0,0,0,0,2.265h3.5a6.8,6.8,0,0,0,5.559,5.559v7a6.8,6.8,0,0,0-5.559,5.559H7.824a6.8,6.8,0,0,0-5.559-5.559v-7A6.8,6.8,0,0,0,7.824,138.8h3.5a1.132,1.132,0,1,0,0-2.265H1.132A1.132,1.132,0,0,0,0,137.663v20.38a1.132,1.132,0,0,0,1.132,1.132H30.571a1.132,1.132,0,0,0,1.132-1.132v-20.38A1.132,1.132,0,0,0,30.571,136.531ZM2.264,138.8H5.5a4.529,4.529,0,0,1-3.236,3.236V138.8Zm0,18.116v-3.236A4.529,4.529,0,0,1,5.5,156.911Zm27.174,0H26.2a4.529,4.529,0,0,1,3.236-3.236Zm0-14.88A4.529,4.529,0,0,1,26.2,138.8h3.236Z" transform="translate(0 -136.531)"/></g><path class="b" d="M6.17-8.048H7.438v5.386h5.386v1.269H7.438V3.992H6.17V-1.394H.784V-2.662H6.17Z" transform="translate(9.047 8.048)"/></g></svg>