<svg xmlns="http://www.w3.org/2000/svg" width="41.078" height="41" viewBox="0 0 41.078 41"><path d="M7.9,6.5a1.563,1.563,0,1,1,1.265.643A1.562,1.562,0,0,1,7.9,6.5Zm-5.92,9.781a1.562,1.562,0,1,0-1-1.97A1.573,1.573,0,0,0,1.979,16.284ZM14.3,4.524a1.563,1.563,0,1,0-1.486-1.08A1.551,1.551,0,0,0,14.3,4.524Zm-10.137,6.4a1.563,1.563,0,1,0-.344-2.183A1.554,1.554,0,0,0,4.164,10.924ZM.031,20.806c.01.049.023.1.038.148s.032.1.051.144a1.472,1.472,0,0,0,.066.138,1.489,1.489,0,0,0,.078.131,1.279,1.279,0,0,0,.091.123,1.523,1.523,0,0,0,.217.217A1.439,1.439,0,0,0,.7,21.8a1.636,1.636,0,0,0,.27.144c.047.02.1.037.144.052s.1.027.148.037.1.017.151.023a1.521,1.521,0,0,0,.308,0c.05-.005.1-.013.152-.023s.1-.023.148-.037.1-.032.144-.052a1.627,1.627,0,0,0,.27-.144,1.44,1.44,0,0,0,.123-.091,1.558,1.558,0,0,0,.309-.341,1.63,1.63,0,0,0,.144-.27c.02-.047.037-.1.052-.144s.027-.1.037-.148.017-.1.023-.152.008-.1.008-.154,0-.1-.008-.154-.012-.1-.023-.152-.023-.1-.037-.148-.032-.1-.052-.144a1.63,1.63,0,0,0-.144-.27,1.543,1.543,0,0,0-.309-.341A1.292,1.292,0,0,0,2.43,19.2a1.627,1.627,0,0,0-.27-.144c-.047-.02-.1-.037-.144-.052s-.1-.027-.148-.038-.1-.017-.152-.023a1.559,1.559,0,0,0-.308,0c-.05.005-.1.012-.151.023s-.1.023-.148.038-.1.032-.144.052A1.635,1.635,0,0,0,.7,19.2a1.292,1.292,0,0,0-.123.091,1.523,1.523,0,0,0-.217.217,1.279,1.279,0,0,0-.091.123,1.489,1.489,0,0,0-.078.131A1.472,1.472,0,0,0,.12,19.9c-.02.047-.037.1-.051.144s-.027.1-.038.148A1.574,1.574,0,0,0,0,20.5a1.582,1.582,0,0,0,.03.305ZM38.516,4.095a1.562,1.562,0,0,0-1.563,1.563V9.884A20,20,0,0,0,20,.5a1.578,1.578,0,0,0-.174.01c-.042,0-.084.011-.126.019a1.548,1.548,0,0,0-.477.179c-.026.015-.052.031-.078.047a1.552,1.552,0,0,0-.152.113c-.032.027-.063.055-.092.084L18.89.965c-.029.029-.057.06-.083.092a1.566,1.566,0,0,0-.115.155c-.016.024-.031.049-.045.075a1.549,1.549,0,0,0-.179.478c-.008.042-.015.084-.019.126,0,.007,0,.014,0,.021a1.528,1.528,0,0,0,0,.307c0,.007,0,.014,0,.021,0,.042.011.084.019.125a1.55,1.55,0,0,0,.179.478c.014.025.029.05.045.074a1.574,1.574,0,0,0,.116.156c.026.031.054.062.082.09l.013.013c.029.029.06.057.091.083l.025.021c.029.023.058.045.089.067l.039.027q.037.024.076.046a1.551,1.551,0,0,0,.48.179c.041.008.082.014.123.019l.023,0A1.472,1.472,0,0,0,20,3.626a16.961,16.961,0,0,1,14.429,8.12l-3.571.005a1.563,1.563,0,0,0,0,3.125h0l4.571-.007h.015a4.579,4.579,0,0,0,3.262-1.345,4.676,4.676,0,0,0,1.369-3.349V5.657A1.563,1.563,0,0,0,38.516,4.095ZM38.1,24.719a1.562,1.562,0,1,0-.966,2.972,1.579,1.579,0,0,0,.484.077,1.562,1.562,0,0,0,.482-3.048Zm-12.8,11.836a1.562,1.562,0,1,0,1.969,1A1.562,1.562,0,0,0,25.295,36.555Zm10.62-6.477a1.563,1.563,0,1,0,.344,2.183A1.563,1.563,0,0,0,35.915,30.077ZM30,34.156a1.563,1.563,0,1,0,2.183.344A1.563,1.563,0,0,0,30,34.156ZM40.048,20.2c-.01-.049-.023-.1-.037-.148s-.032-.1-.052-.144a1.492,1.492,0,0,0-.066-.138c-.024-.045-.05-.089-.078-.131a1.558,1.558,0,0,0-.432-.432,1.627,1.627,0,0,0-.27-.144c-.047-.02-.1-.037-.144-.052s-.1-.027-.148-.038-.1-.017-.152-.023a1.559,1.559,0,0,0-.308,0c-.05.005-.1.012-.151.023s-.1.023-.148.038-.1.032-.144.052a1.636,1.636,0,0,0-.27.144,1.539,1.539,0,0,0-.341.309,1.278,1.278,0,0,0-.091.123,1.49,1.49,0,0,0-.078.131,1.472,1.472,0,0,0-.066.138c-.02.047-.037.1-.051.144s-.027.1-.038.148a1.573,1.573,0,0,0-.03.305,1.571,1.571,0,0,0,.458,1.1,1.574,1.574,0,0,0,.237.195,1.636,1.636,0,0,0,.27.144c.047.02.1.037.144.052s.1.027.148.038a1.556,1.556,0,0,0,.611,0c.049-.01.1-.023.148-.038s.1-.032.144-.052a1.627,1.627,0,0,0,.27-.144,1.574,1.574,0,0,0,.237-.195,1.573,1.573,0,0,0,.458-1.1c0-.051,0-.1-.008-.154S40.058,20.245,40.048,20.2ZM21.641,38.938a1.441,1.441,0,0,0-.008-.151c0-.009,0-.017,0-.026,0-.04-.01-.08-.018-.12a1.549,1.549,0,0,0-.18-.481q-.021-.037-.045-.074l-.029-.042c-.021-.03-.042-.059-.065-.086l-.023-.028c-.026-.031-.052-.06-.08-.088l-.016-.016c-.028-.028-.057-.054-.088-.08l-.029-.024q-.041-.033-.085-.064l-.043-.029-.073-.044a1.549,1.549,0,0,0-.482-.18c-.039-.008-.079-.013-.118-.018a1.569,1.569,0,0,0-.179-.011A16.96,16.96,0,0,1,5.65,29.256l3.571-.005a1.562,1.562,0,0,0,0-3.125h0l-4.571.007H4.631a4.578,4.578,0,0,0-3.262,1.345A4.675,4.675,0,0,0,0,30.827v4.517a1.562,1.562,0,1,0,3.125,0V31.118A20,20,0,0,0,20.076,40.5h0a1.455,1.455,0,0,0,.154-.008l.021,0c.042,0,.084-.011.126-.019a1.55,1.55,0,0,0,.478-.179q.038-.022.076-.046a1.56,1.56,0,0,0,.154-.115c.031-.026.061-.053.09-.082l.015-.015c.028-.029.056-.059.082-.09l.022-.026c.023-.028.045-.058.066-.088l.027-.041c.016-.025.031-.05.046-.075a1.547,1.547,0,0,0,.179-.481c.008-.04.014-.081.018-.121,0-.008,0-.017,0-.025a1.489,1.489,0,0,0,.008-.151Zm1.8-14.862L22.02,25.489a14.7,14.7,0,0,1-3.926-2.9l-.1-.1a14.7,14.7,0,0,1-2.9-3.926L16.5,17.135c1.61-1.648.648-3.307-.952-4.965a2.136,2.136,0,0,0-2.964-.107l-.022.02a5.438,5.438,0,0,0-1.471,3.983c.014,2.816,1.559,6.219,4.374,9.036s6.22,4.36,9.036,4.374l.01.01A5.437,5.437,0,0,0,28.5,28.014l.02-.022a2.136,2.136,0,0,0-.107-2.964C26.751,23.429,25.093,22.466,23.444,24.076Z" transform="translate(0.5 -0.001)" fill="#fff" stroke="#2c8e45" stroke-width="1"/></svg>