<?xml version="1.0" encoding="utf-8"?>
<!-- Generator: Adobe Illustrator 23.0.1, SVG Export Plug-In . SVG Version: 6.00 Build 0)  -->
<svg version="1.1" id="Layer_1" xmlns="http://www.w3.org/2000/svg" xmlns:xlink="http://www.w3.org/1999/xlink" x="0px" y="0px"
	 viewBox="0 0 16 16" style="enable-background:new 0 0 16 16;" xml:space="preserve">
<style type="text/css">
	.st0{fill:#757575;}
</style>
<g id="Group_4141">
	<g id="Group_4140">
		<path id="Path_9573" class="st0" d="M13.2,3.2h-0.4V2.8c0-0.6-0.5-1.1-1.1-1.1s-1.1,0.5-1.1,1.1v0.4H5.4V2.8
			c0-0.6-0.5-1.1-1.1-1.1c-0.6,0-1.1,0.5-1.1,1.1v0.4H2.8c-0.6,0-1.1,0.5-1.1,1.1v8.9c0,0.6,0.5,1.1,1.1,1.1h10.4
			c0.6,0,1.1-0.5,1.1-1.1V4.3C14.3,3.7,13.8,3.2,13.2,3.2z M11.3,2.8c0-0.2,0.2-0.4,0.4-0.4c0.2,0,0.4,0.2,0.4,0.4v1.5
			c0,0.2-0.2,0.4-0.4,0.4c-0.2,0-0.3-0.2-0.4-0.4L11.3,2.8z M3.9,2.8c0-0.2,0.2-0.4,0.4-0.4c0.2,0,0.4,0.2,0.4,0.4v1.5
			c0,0.2-0.2,0.4-0.4,0.4c-0.2,0-0.3-0.2-0.4-0.4L3.9,2.8z M13.6,13.2c0,0.2-0.2,0.4-0.4,0.4H2.8c-0.2,0-0.4-0.2-0.4-0.4V6.9h11.1
			V13.2z M13.6,6.2H2.4V4.3c0-0.2,0.2-0.4,0.4-0.4h0h0.4v0.4c0,0.6,0.5,1.1,1.1,1.1s1.1-0.5,1.1-1.1V3.9h5.2v0.4
			c0,0.6,0.5,1.1,1.1,1.1c0.6,0,1.1-0.5,1.1-1.1V3.9h0.4c0.2,0,0.4,0.2,0.4,0.4L13.6,6.2z"/>
	</g>
</g>
<g id="Group_4143" transform="translate(2.844 7.563)">
	<g id="Group_4142">
		<path id="Path_9574" class="st0" d="M2.8,0.1H1.4C1.2,0.1,1,0.3,1,0.5v1.5c0,0.2,0.2,0.4,0.4,0.4h1.5c0.2,0,0.4-0.2,0.4-0.4V0.5
			C3.2,0.3,3,0.1,2.8,0.1z M2.5,1.6H1.7V0.8h0.7L2.5,1.6z"/>
	</g>
</g>
<g id="Group_4145" transform="translate(2.844 11.313)">
	<g id="Group_4144">
		<path id="Path_9575" class="st0" d="M2.8-0.7H1.4C1.2-0.7,1-0.5,1-0.3v1.5c0,0.2,0.2,0.4,0.4,0.4h1.5c0.2,0,0.4-0.2,0.4-0.4v-1.5
			C3.2-0.5,3-0.7,2.8-0.7z M2.5,0.8H1.7V0h0.7L2.5,0.8z"/>
	</g>
</g>
<g id="Group_4147" transform="translate(6.594 11.313)">
	<g id="Group_4146">
		<path id="Path_9576" class="st0" d="M2-0.7H0.6c-0.2,0-0.4,0.2-0.4,0.4v1.5c0,0.2,0.2,0.4,0.4,0.4H2c0.2,0,0.4-0.2,0.4-0.4v-1.5
			C2.4-0.5,2.2-0.7,2-0.7z M1.7,0.8H0.9V0h0.7L1.7,0.8z"/>
	</g>
</g>
<g id="Group_4149" transform="translate(6.594 7.563)">
	<g id="Group_4148">
		<path id="Path_9577" class="st0" d="M2,0.1H0.6c-0.2,0-0.4,0.2-0.4,0.4v1.5c0,0.2,0.2,0.4,0.4,0.4H2c0.2,0,0.4-0.2,0.4-0.4V0.5
			C2.4,0.3,2.2,0.1,2,0.1z M1.7,1.6H0.9V0.8h0.7L1.7,1.6z"/>
	</g>
</g>
<g id="Group_4151" transform="translate(10.344 7.563)">
	<g id="Group_4150">
		<path id="Path_9578" class="st0" d="M1.2,0.1h-1.5c-0.2,0-0.4,0.2-0.4,0.4v1.5c0,0.2,0.2,0.4,0.4,0.4h1.5c0.2,0,0.4-0.2,0.4-0.4
			V0.5C1.6,0.3,1.4,0.1,1.2,0.1z M0.9,1.6H0.1V0.8h0.7L0.9,1.6z"/>
	</g>
</g>
<g id="Group_4153" transform="translate(10.344 11.313)">
	<g id="Group_4152">
		<path id="Path_9579" class="st0" d="M1.2-0.7h-1.5c-0.2,0-0.4,0.2-0.4,0.4v1.5c0,0.2,0.2,0.4,0.4,0.4h1.5c0.2,0,0.4-0.2,0.4-0.4
			v-1.5C1.6-0.5,1.4-0.7,1.2-0.7z M0.9,0.8H0.1V0h0.7L0.9,0.8z"/>
	</g>
</g>
</svg>
