<svg xmlns="http://www.w3.org/2000/svg" width="42" height="42" viewBox="0 0 42 42">
  <g id="Group_39996" data-name="Group 39996" transform="translate(-163 -416)">
    <g id="Group_39986" data-name="Group 39986" transform="translate(163 416)" opacity="0">
      <rect id="Rectangle_18669" data-name="Rectangle 18669" width="42" height="42" fill="#444" opacity="0"/>
    </g>
    <g id="noun_Government_4146735" transform="translate(166 419)">
      <path id="Path_43292" data-name="Path 43292" d="M23.726,5.252l-17.634,8.1v4.058H41.363V13.357Zm0,1.125,16.61,7.638v2.367H7.119V14.015Z" transform="translate(-6.092 -5.252)" fill="#007c3d" stroke="#357a44" stroke-width="0.3"/>
      <path id="Path_43293" data-name="Path 43293" d="M14.973,34.293H16V51.885H14.973Z" transform="translate(-10.948 -21.13)" fill="#007c3d" stroke="#357a44" stroke-width="0.3"/>
      <path id="Path_43294" data-name="Path 43294" d="M22.654,34.293h1.027V51.885H22.654Z" transform="translate(-15.147 -21.13)" fill="#007c3d" stroke="#357a44" stroke-width="0.3"/>
      <path id="Path_43295" data-name="Path 43295" d="M65.076,34.293H66.1V51.885H65.076Z" transform="translate(-38.341 -21.13)" fill="#007c3d" stroke="#357a44" stroke-width="0.3"/>
      <path id="Path_43296" data-name="Path 43296" d="M72.764,34.293h1.027V51.885H72.764Z" transform="translate(-42.545 -21.13)" fill="#007c3d" stroke="#357a44" stroke-width="0.3"/>
      <path id="Path_43297" data-name="Path 43297" d="M6.092,79.562H41.363V75.32H6.092Zm1.027-3.214H40.336v2.188H7.119Z" transform="translate(-6.092 -43.562)" fill="#007c3d" stroke="#357a44" stroke-width="0.3"/>
      <path id="Path_43298" data-name="Path 43298" d="M36.525,40.362a3.843,3.843,0,1,0,3.84-3.829A3.841,3.841,0,0,0,36.525,40.362Zm6.655,0a2.814,2.814,0,1,1-2.814-2.8A2.8,2.8,0,0,1,43.18,40.362Z" transform="translate(-22.731 -22.355)" fill="#007c3d" stroke="#357a44" stroke-width="0.3"/>
      <path id="Path_43299" data-name="Path 43299" d="M31.572,62.354v-.515A6.642,6.642,0,0,1,34.6,56.181a5.736,5.736,0,0,1,6.116,0,6.647,6.647,0,0,1,3.027,5.658v.515Zm1.154-1.027h9.863a5.536,5.536,0,0,0-2.418-4.273,4.685,4.685,0,0,0-5.026,0,5.545,5.545,0,0,0-2.419,4.273" transform="translate(-20.023 -32.614)" fill="#007c3d" stroke="#357a44" stroke-width="0.3"/>
      <path id="Path_43300" data-name="Path 43300" d="M38.322,16.172a3.028,3.028,0,1,0,3.026-3.029A3.035,3.035,0,0,0,38.322,16.172Zm5.028,0a2,2,0,1,1-2-2A1.992,1.992,0,0,1,43.35,16.171Z" transform="translate(-23.714 -9.566)" fill="#007c3d" stroke="#357a44" stroke-width="0.3"/>
    </g>
  </g>
</svg>
