<svg xmlns="http://www.w3.org/2000/svg" width="62.696" height="26.668" viewBox="0 0 62.696 26.668">
  <g id="Group_39476" data-name="Group 39476" transform="translate(-1242 -361.938)">
    <g id="Group_39454" data-name="Group 39454" transform="translate(1239.025 357.542)">
      <path id="Path_43248" data-name="Path 43248" d="M272.049,319.36l3.377,6.71-7.1,6.719Z" transform="translate(-210.545 -313.809)" fill="#007239"/>
      <path id="Path_43249" data-name="Path 43249" d="M269.708,319.36l3.374,6.71-7.1,6.719Z" transform="translate(-210.545 -313.809)" fill="#ec5c25"/>
      <path id="Path_43250" data-name="Path 43250" d="M215.52,330.348h0l3.368-12.144h5.388c1.683,0,2.811.267,3.38.814s.68,1.44.336,2.683a4.572,4.572,0,0,1-.954,1.844,4.4,4.4,0,0,1-1.69,1.162,1.484,1.484,0,0,1,1.132.848,3.127,3.127,0,0,1-.054,1.849l-.41,1.694c0,.01,0,.021,0,.045-.118.478-.082.732.11.756l-.125.449h-3.644c.013-.287.034-.541.06-.76a3.636,3.636,0,0,1,.092-.506l.34-1.211a1.8,1.8,0,0,0,.023-1.326c-.16-.258-.521-.385-1.086-.385h-1.534l-1.166,4.188Zm5.488-6.924h1.642a2.419,2.419,0,0,0,1.26-.254,1.43,1.43,0,0,0,.575-.879c.118-.425.09-.724-.083-.892a1.9,1.9,0,0,0-1.213-.254h-1.548Z" transform="translate(-210.545 -313.809)" fill="#1c2e78"/>
      <path id="Path_43251" data-name="Path 43251" d="M238,321.387l-2.486,8.961h-3.018l.368-1.314a6.116,6.116,0,0,1-1.62,1.175,4.042,4.042,0,0,1-1.722.381,2.751,2.751,0,0,1-1.276-.27,1.758,1.758,0,0,1-.784-.814,2.322,2.322,0,0,1-.2-1.164,12.994,12.994,0,0,1,.487-2.31l1.288-4.645h3.3l-1.285,4.625a2.72,2.72,0,0,0-.14,1.414c.095.262.351.394.763.394a1.409,1.409,0,0,0,1.054-.454,3.2,3.2,0,0,0,.689-1.37l1.276-4.609Z" transform="translate(-210.545 -313.809)" fill="#1c2e78"/>
      <path id="Path_43252" data-name="Path 43252" d="M236.8,330.348h0l3.366-12.144h4.631a11.123,11.123,0,0,1,2.378.193,2.961,2.961,0,0,1,1.332.621,2.487,2.487,0,0,1,.766,1.414,4.635,4.635,0,0,1-.172,2,5.752,5.752,0,0,1-1.983,3.121,5.612,5.612,0,0,1-3.511,1.08h-2.166l-1.03,3.719Zm5.466-6.686h1.161a3.3,3.3,0,0,0,1.59-.275,1.55,1.55,0,0,0,.648-.959c.127-.467.1-.8-.1-.976a2.4,2.4,0,0,0-1.449-.274h-1.162Z" transform="translate(-210.545 -313.809)" fill="#1c2e78"/>
      <path id="Path_43253" data-name="Path 43253" d="M252.983,330.348h0l.033-.858a5.961,5.961,0,0,1-1.614.893,5.1,5.1,0,0,1-1.73.291,2.322,2.322,0,0,1-1.965-.748,2.346,2.346,0,0,1-.183-2.106,3.358,3.358,0,0,1,1.3-1.966,7.556,7.556,0,0,1,3.111-.922c.187-.027.434-.057.745-.09,1.073-.121,1.677-.412,1.806-.877a.48.48,0,0,0-.131-.564,1.931,1.931,0,0,0-1.7.043,1.317,1.317,0,0,0-.509.673h-3.22a3.73,3.73,0,0,1,1.776-2.281,6.984,6.984,0,0,1,3.512-.769,7.552,7.552,0,0,1,1.836.2,2.8,2.8,0,0,1,1.191.552,1.626,1.626,0,0,1,.557.971,3.836,3.836,0,0,1-.194,1.545l-1.382,5a.91.91,0,0,0-.03.442.519.519,0,0,0,.18.312l-.072.256Zm.8-4a12.871,12.871,0,0,1-1.373.424c-.889.238-1.391.552-1.5.949a.6.6,0,0,0,.076.6.811.811,0,0,0,.635.21,1.993,1.993,0,0,0,1.315-.41,2.592,2.592,0,0,0,.747-1.312c.03-.129.057-.221.073-.291A.682.682,0,0,0,253.785,326.348Z" transform="translate(-210.545 -313.809)" fill="#1c2e78"/>
      <path id="Path_43254" data-name="Path 43254" d="M256.322,333.879l.735-2.654H258a1.35,1.35,0,0,0,.74-.176.952.952,0,0,0,.374-.584,2.131,2.131,0,0,0,.07-.385,3.3,3.3,0,0,0,0-.488l-.5-8.205h3.343l-.053,5.433,2.92-5.433H268l-5.16,8.916q-.876,1.5-1.28,2.057a4.442,4.442,0,0,1-.763.847,2.886,2.886,0,0,1-1.061.57,6.538,6.538,0,0,1-1.757.173c-.229,0-.487-.006-.768-.02s-.578-.027-.885-.051" transform="translate(-210.545 -313.809)" fill="#1c2e78"/>
    </g>
    <path id="Path_43255" data-name="Path 43255" d="M394.019,264.512a2.018,2.018,0,0,1-1.415.548h-.318l1.011-3.035h.319a1.01,1.01,0,0,1,1.049.547,1.359,1.359,0,0,1-.012.969,2.327,2.327,0,0,1-.634.971m2.192-2.138a1.706,1.706,0,0,0-.607-1.091,1.89,1.89,0,0,0-1.255-.42h-2.058l-1.786,5.359h2.056a3.025,3.025,0,0,0,.9-.145,4.12,4.12,0,0,0,1.619-.988,3.856,3.856,0,0,0,1.022-1.548,2.485,2.485,0,0,0,.112-1.167m-4.931-1.511h-1.392l-1.787,5.359h1.393Zm-6.528,3.364,1.154-1.707.009,1.707Zm2.475-3.364h-1.518l-3.847,5.359h1.472l.681-.934h1.923l.034.934h1.488Zm-6.162,2.261a1.047,1.047,0,0,1-.688.2h-.464l.445-1.335h.468c.28,0,.46.059.536.179a.544.544,0,0,1,.017.478,1.043,1.043,0,0,1-.314.481m1.745-1.708a1.308,1.308,0,0,0-1.254-.553h-2.218l-1.786,5.359h1.394l.593-1.779h.871a2.335,2.335,0,0,0,1.677-.615,2.88,2.88,0,0,0,.742-1.2,1.481,1.481,0,0,0-.019-1.211m-5.776,3.644h-1.657l.319-.958h1.567l.386-1.162h-1.565l.306-.915h1.655l.388-1.162h-3.05l-1.786,5.359h3.05Zm-5.006-1.986a1.157,1.157,0,0,1-.7.183h-.259l.445-1.334h.259a.691.691,0,0,1,.574.184.506.506,0,0,1,.047.481.967.967,0,0,1-.371.486m.168.949a2.126,2.126,0,0,0,.871-.378,2.268,2.268,0,0,0,.8-1.133,1.416,1.416,0,0,0-.01-1.08c-.175-.379-.582-.569-1.215-.569h-2.168l-1.785,5.359h1.394l.684-2.057.646,2.057h1.731Zm-4.806-.9a1.051,1.051,0,0,1-.688.2h-.465l.446-1.335h.466c.282,0,.461.059.537.179a.538.538,0,0,1,.017.478,1.042,1.042,0,0,1-.313.481m1.743-1.708a1.3,1.3,0,0,0-1.253-.553h-2.218l-1.786,5.359h1.394l.592-1.779h.871a2.341,2.341,0,0,0,1.679-.615,2.878,2.878,0,0,0,.741-1.2,1.472,1.472,0,0,0-.02-1.211m-10.753,4a.365.365,0,0,1-.3-.168.389.389,0,0,1-.057-.366,1.2,1.2,0,0,1,.654-.714l.623.922a1.53,1.53,0,0,1-.917.326m1.368-2.489-.312.169-.146-.256a.423.423,0,0,1-.02-.357.487.487,0,0,1,.234-.274.578.578,0,0,1,.289-.079.3.3,0,0,1,.254.116.306.306,0,0,1,.029.3.669.669,0,0,1-.328.384m.919,2.069a4.263,4.263,0,0,0,.693-.9l-.834-.3a2.8,2.8,0,0,1-.347.495l-.41-.613a2.34,2.34,0,0,0,1.346-1.2.739.739,0,0,0-.159-.832,1.307,1.307,0,0,0-.93-.294,2.15,2.15,0,0,0-1.11.314,1.535,1.535,0,0,0-.717.82,1.036,1.036,0,0,0-.046.585,3.138,3.138,0,0,0,.217.483,2.539,2.539,0,0,0-1.505,1.382.968.968,0,0,0,.166,1.079,1.47,1.47,0,0,0,1.073.35,2.79,2.79,0,0,0,1.616-.526,2.562,2.562,0,0,0,.543.518l.814-1a2.168,2.168,0,0,1-.41-.36m-5.255-4.13h-3.683l-.387,1.162h1.135l-1.4,4.2h1.394l1.4-4.2h1.154Zm-4.186,0h-1.4l-1.786,5.359h1.393Zm-5.259,4.173a1.854,1.854,0,0,1-.786.126h-.309l.377-1.131h.286a3.91,3.91,0,0,1,.516.023c.3.056.4.238.3.549a.729.729,0,0,1-.384.433m.464-2.242a.869.869,0,0,1-.575.177H345.6l.35-1.048h.254a.893.893,0,0,1,.3.039q.289.118.167.483a.744.744,0,0,1-.241.349m1.339,1.092q-.106-.381-.7-.514a1.838,1.838,0,0,0,.561-.409,1.907,1.907,0,0,0,.4-.7q.465-1.4-1.043-1.4h-2.072l-1.786,5.359h2.229a2.6,2.6,0,0,0,1.69-.546,2.069,2.069,0,0,0,.668-.977,1.412,1.412,0,0,0,.058-.813m-5.164,1.174H340.95l.319-.958h1.567l.388-1.162h-1.567l.3-.915h1.657l.387-1.162h-3.05l-1.787,5.359h3.051Zm-5.55-.548a2.017,2.017,0,0,1-1.414.548h-.321l1.013-3.035h.317a1.012,1.012,0,0,1,1.051.547,1.35,1.35,0,0,1-.014.969,2.3,2.3,0,0,1-.632.971m2.192-2.138a1.705,1.705,0,0,0-.606-1.091,1.9,1.9,0,0,0-1.257-.42h-2.058l-1.786,5.359H335.6a3.029,3.029,0,0,0,.9-.145,4.113,4.113,0,0,0,1.619-.988,3.84,3.84,0,0,0,1.02-1.548,2.449,2.449,0,0,0,.114-1.167" transform="translate(908.459 122.246)"/>
  </g>
</svg>
