<svg xmlns="http://www.w3.org/2000/svg" width="59.906" height="15.754" viewBox="0 0 59.906 15.754">
  <g id="Group_39477" data-name="Group 39477" transform="translate(-1244 -361.933)">
    <g id="Group_39454" data-name="Group 39454" transform="translate(1239.025 357.542)">
      <path id="Path_43248" data-name="Path 43248" d="M272.049,319.36l3.377,6.71-7.1,6.719Z" transform="translate(-210.545 -313.809)" fill="#007239"/>
      <path id="Path_43249" data-name="Path 43249" d="M269.708,319.36l3.374,6.71-7.1,6.719Z" transform="translate(-210.545 -313.809)" fill="#ec5c25"/>
      <path id="Path_43250" data-name="Path 43250" d="M215.52,330.348h0l3.368-12.144h5.388c1.683,0,2.811.267,3.38.814s.68,1.44.336,2.683a4.572,4.572,0,0,1-.954,1.844,4.4,4.4,0,0,1-1.69,1.162,1.484,1.484,0,0,1,1.132.848,3.127,3.127,0,0,1-.054,1.849l-.41,1.694v.045c-.118.478-.082.732.11.756l-.125.449h-3.644c.013-.287.034-.541.06-.76a3.637,3.637,0,0,1,.092-.506l.34-1.211a1.8,1.8,0,0,0,.023-1.326c-.16-.258-.521-.385-1.086-.385h-1.534l-1.166,4.188Zm5.488-6.924h1.642a2.419,2.419,0,0,0,1.26-.254,1.43,1.43,0,0,0,.575-.879c.118-.425.09-.724-.083-.892a1.9,1.9,0,0,0-1.213-.254h-1.548Z" transform="translate(-210.545 -313.809)" fill="#fff"/>
      <path id="Path_43251" data-name="Path 43251" d="M238,321.387l-2.486,8.961H232.5l.368-1.314a6.117,6.117,0,0,1-1.62,1.175,4.042,4.042,0,0,1-1.722.381,2.751,2.751,0,0,1-1.276-.27,1.758,1.758,0,0,1-.784-.814,2.322,2.322,0,0,1-.2-1.164,13,13,0,0,1,.487-2.31l1.288-4.645h3.3l-1.285,4.625a2.72,2.72,0,0,0-.14,1.414c.1.262.351.394.763.394a1.409,1.409,0,0,0,1.054-.454,3.2,3.2,0,0,0,.689-1.37l1.276-4.609Z" transform="translate(-210.545 -313.809)" fill="#fff"/>
      <path id="Path_43252" data-name="Path 43252" d="M236.8,330.348h0l3.366-12.144H244.8a11.124,11.124,0,0,1,2.378.193,2.961,2.961,0,0,1,1.332.621,2.487,2.487,0,0,1,.766,1.414,4.635,4.635,0,0,1-.172,2,5.752,5.752,0,0,1-1.983,3.121,5.612,5.612,0,0,1-3.511,1.08h-2.166l-1.03,3.719Zm5.466-6.686h1.161a3.3,3.3,0,0,0,1.59-.275,1.55,1.55,0,0,0,.648-.959c.127-.467.1-.8-.1-.976a2.4,2.4,0,0,0-1.449-.274h-1.162Z" transform="translate(-210.545 -313.809)" fill="#fff"/>
      <path id="Path_43253" data-name="Path 43253" d="M252.983,330.348h0l.033-.858a5.959,5.959,0,0,1-1.614.893,5.1,5.1,0,0,1-1.73.291,2.322,2.322,0,0,1-1.965-.748,2.346,2.346,0,0,1-.183-2.106,3.358,3.358,0,0,1,1.3-1.966,7.556,7.556,0,0,1,3.111-.922c.187-.027.434-.057.745-.09,1.073-.121,1.677-.412,1.806-.877a.48.48,0,0,0-.131-.564,1.931,1.931,0,0,0-1.7.043,1.317,1.317,0,0,0-.509.673h-3.22a3.73,3.73,0,0,1,1.776-2.281,6.984,6.984,0,0,1,3.512-.769,7.55,7.55,0,0,1,1.836.2,2.8,2.8,0,0,1,1.191.552,1.626,1.626,0,0,1,.557.971,3.836,3.836,0,0,1-.194,1.545l-1.382,5a.91.91,0,0,0-.03.442.519.519,0,0,0,.18.312l-.072.256Zm.8-4a12.875,12.875,0,0,1-1.373.424c-.889.238-1.391.552-1.5.949a.6.6,0,0,0,.076.6.811.811,0,0,0,.635.21,1.993,1.993,0,0,0,1.315-.41,2.592,2.592,0,0,0,.747-1.312c.03-.129.057-.221.073-.291a.681.681,0,0,0,.029-.17Z" transform="translate(-210.545 -313.809)" fill="#fff"/>
      <path id="Path_43254" data-name="Path 43254" d="M256.322,333.879l.735-2.654H258a1.35,1.35,0,0,0,.74-.176.952.952,0,0,0,.374-.584,2.131,2.131,0,0,0,.07-.385,3.3,3.3,0,0,0,0-.488l-.5-8.2h3.343l-.053,5.433,2.92-5.433H268l-5.16,8.916q-.876,1.5-1.28,2.057a4.443,4.443,0,0,1-.763.847,2.886,2.886,0,0,1-1.061.57,6.538,6.538,0,0,1-1.757.173c-.229,0-.487-.006-.768-.02s-.578-.027-.885-.051" transform="translate(-210.545 -313.809)" fill="#fff"/>
    </g>
  </g>
</svg>
