<?xml version="1.0" encoding="utf-8"?>
<!-- Generator: Adobe Illustrator 23.0.1, SVG Export Plug-In . SVG Version: 6.00 Build 0)  -->
<svg version="1.1" id="Layer_1" xmlns="http://www.w3.org/2000/svg" xmlns:xlink="http://www.w3.org/1999/xlink" x="0px" y="0px"
	 viewBox="0 0 18.3 21.8" style="enable-background:new 0 0 18.3 21.8;" xml:space="preserve">
<style type="text/css">
	.st0{fill:#007C3D;stroke:#007C3E;stroke-width:0.5;}
	.st1{fill:#007C3D;}
</style>
<g transform="translate(0.26)">
	<g transform="translate(0 0)">
		<path class="st0" d="M8.3,9.9c0-0.3-0.2-0.5-0.5-0.5l0,0H0.5C0.2,9.4,0,9.6,0,9.9c0,0.3,0.2,0.5,0.5,0.5c0,0,0,0,0,0h2.1
			c1.2,0,2.3,0.9,2.5,2.1H0.5C0.2,12.5,0,12.7,0,13c0,0.3,0.2,0.5,0.5,0.5c0,0,0,0,0,0h4.6c-0.2,1.2-1.3,2.1-2.5,2.1H0.5
			c-0.3,0-0.5,0.2-0.5,0.5c0,0.1,0.1,0.3,0.2,0.4l5.2,4.9c0.2,0.2,0.5,0.2,0.7,0c0.2-0.2,0.2-0.5,0-0.7c0,0,0,0-0.1-0.1l-4.2-4h0.8
			c1.8,0,3.3-1.3,3.6-3.1h1.6c0.3,0,0.5-0.2,0.5-0.5c0-0.3-0.2-0.5-0.5-0.5c0,0,0,0,0,0H6.2c-0.1-0.8-0.5-1.5-1.1-2.1h2.7
			C8,10.5,8.3,10.2,8.3,9.9C8.3,9.9,8.3,9.9,8.3,9.9z"/>
		<g transform="translate(9.456 0)">
			<path class="st1" d="M8.4,3.7L4.9,0.2C4.6-0.1,4-0.1,3.7,0.2c0,0,0,0,0,0L0.2,3.7c-0.3,0.3-0.3,0.9,0,1.2c0.3,0.3,0.9,0.3,1.2,0
				l2-2v7.4c0,0.5,0.4,0.9,0.9,0.9s0.9-0.4,0.9-0.9V2.9l2,2c0.3,0.3,0.9,0.3,1.2,0C8.7,4.6,8.7,4,8.4,3.7L8.4,3.7z"/>
		</g>
	</g>
</g>
</svg>
