<?xml version="1.0" encoding="utf-8"?>
<!-- Generator: Adobe Illustrator 23.0.1, SVG Export Plug-In . SVG Version: 6.00 Build 0)  -->
<svg version="1.1" id="Layer_1" xmlns="http://www.w3.org/2000/svg" xmlns:xlink="http://www.w3.org/1999/xlink" x="0px" y="0px"
	 viewBox="0 0 18.3 21.8" style="enable-background:new 0 0 18.3 21.8;" xml:space="preserve">
<style type="text/css">
	.st0{fill:#007C3D;stroke:#007C3E;stroke-width:0.5;}
	.st1{fill:#007C3D;}
</style>
<g transform="translate(-82.47 -162)">
	<g transform="translate(82.73 162)">
		<path class="st0" d="M8.3,9.9c0-0.3-0.2-0.5-0.5-0.5l0,0H0.5C0.2,9.4,0,9.6,0,9.9c0,0.3,0.2,0.5,0.5,0.5c0,0,0,0,0,0h2.1
			c1.2,0,2.3,0.9,2.5,2.1H0.5C0.2,12.5,0,12.7,0,13c0,0.3,0.2,0.5,0.5,0.5c0,0,0,0,0,0h4.6c-0.2,1.2-1.3,2.1-2.5,2.1H0.5
			c-0.3,0-0.5,0.2-0.5,0.5c0,0.1,0.1,0.3,0.2,0.4l5.2,4.9c0.2,0.2,0.5,0.2,0.7,0c0.2-0.2,0.2-0.5,0-0.7c0,0,0,0-0.1-0.1l-4.2-4h0.8
			c1.8,0,3.3-1.3,3.6-3.1h1.6c0.3,0,0.5-0.2,0.5-0.5c0-0.3-0.2-0.5-0.5-0.5c0,0,0,0,0,0H6.2c-0.1-0.8-0.5-1.5-1.1-2.1h2.7
			C8,10.5,8.3,10.2,8.3,9.9C8.3,9.9,8.3,9.9,8.3,9.9z"/>
		<g transform="translate(9.456)">
			<g transform="translate(0)">
				<path class="st1" d="M8.4,7.5L4.9,11c-0.3,0.3-0.9,0.3-1.2,0c0,0,0,0,0,0L0.2,7.5c-0.3-0.3-0.3-0.9,0-1.2C0.6,6,1.1,6,1.5,6.3
					l0,0l2,2V0.9C3.5,0.4,3.9,0,4.3,0c0.5,0,0.8,0.4,0.8,0.8v7.4l2-2C7.5,6,8,6,8.4,6.3C8.7,6.6,8.7,7.2,8.4,7.5L8.4,7.5z"/>
			</g>
		</g>
	</g>
</g>
</svg>
