<svg xmlns="http://www.w3.org/2000/svg" width="23.147" height="27.576" viewBox="0 0 23.147 27.576"><defs><style>.a,.b{fill:#fff;}.a{stroke:#fff;stroke-width:0.5px;}</style></defs><g transform="translate(-82.468 -162)"><g transform="translate(82.73 162)"><path class="a" d="M131.011,94.778a.649.649,0,0,0-.649-.649h-9.174a.649.649,0,1,0,0,1.3h2.625a3.291,3.291,0,0,1,3.222,2.638h-5.847a.649.649,0,1,0,0,1.3h5.847A3.292,3.292,0,0,1,123.813,102h-2.625a.649.649,0,0,0-.446,1.121l6.561,6.2a.649.649,0,1,0,.892-.944L122.82,103.3h.993a4.592,4.592,0,0,0,4.539-3.936h2.01a.649.649,0,1,0,0-1.3h-2.01a4.579,4.579,0,0,0-1.346-2.638h3.356A.649.649,0,0,0,131.011,94.778Zm0,0" transform="translate(-120.539 -82.181)"/><g transform="translate(11.976)"><g transform="translate(0 0)"><path class="b" d="M164.4,9.512l-4.369,4.369a1.092,1.092,0,0,1-1.545,0l-4.369-4.369a1.092,1.092,0,0,1,1.545-1.544l2.5,2.5V1.094a1.092,1.092,0,0,1,2.185,0v9.378l2.5-2.5A1.092,1.092,0,0,1,164.4,9.512Z" transform="translate(-153.809 -0.002)"/></g></g></g></g></svg>