<svg xmlns="http://www.w3.org/2000/svg" xmlns:xlink="http://www.w3.org/1999/xlink" width="28.028" height="32.913" viewBox="0 0 28.028 32.913">
  <defs>
    <linearGradient id="linear-gradient" x1="0.5" x2="0.5" y2="1" gradientUnits="objectBoundingBox">
      <stop offset="0" stop-color="#629a04"/>
      <stop offset="1" stop-color="#007c3d"/>
    </linearGradient>
  </defs>
  <g id="surface1" transform="translate(-0.5 0)">
    <path id="Path_43199" data-name="Path 43199" d="M27.047,21.979a16.6,16.6,0,0,1-3.977,6.2A20.817,20.817,0,0,1,15.3,32.78a2.377,2.377,0,0,1-.755.133h-.028a2.413,2.413,0,0,1-.464-.046,2.5,2.5,0,0,1-.319-.087,20.816,20.816,0,0,1-7.781-4.6,16.574,16.574,0,0,1-3.976-6.194C.368,17.625.459,12.822.533,8.963V8.9c.015-.319.024-.653.03-1.023A3.488,3.488,0,0,1,3.849,4.464,13.536,13.536,0,0,0,13.061.581l.022-.02a2.108,2.108,0,0,1,2.862,0l.021.02A13.538,13.538,0,0,0,25.18,4.464a3.488,3.488,0,0,1,3.285,3.417c.005.372.015.706.03,1.023v.025C28.569,12.8,28.66,17.607,27.047,21.979Zm0,0" transform="translate(0 0)" fill="url(#linear-gradient)"/>
    <path id="Path_43201" data-name="Path 43201" d="M107.3,136.6a8.213,8.213,0,0,1-8.174,8.2H99.1a8.2,8.2,0,1,1,0-16.405h.029A8.213,8.213,0,0,1,107.3,136.6Zm0,0" transform="translate(-84.584 -120.144)" fill="#fff"/>
    <path id="Path_43203" data-name="Path 43203" d="M162.036,213.628l-3.694,3.695-.8.8a.967.967,0,0,1-1.366,0l-1.716-1.717a.966.966,0,0,1,1.366-1.366l1.034,1.034,3.81-3.81a.966.966,0,0,1,1.366,1.366Zm0,0" transform="translate(-143.799 -198.353)" fill="#b4d2d7"/>
  </g>
</svg>
