<svg xmlns="http://www.w3.org/2000/svg" width="52.667" height="50" viewBox="0 0 52.667 50"><defs><style>.a{fill:none;stroke:#007c3d;stroke-linecap:round;stroke-linejoin:round;stroke-width:2px;}</style></defs><g transform="translate(1 1)"><path class="a" d="M46.8,180.054C39.5,181.8,35,188.485,35,196.51h0c0,6.452,2.571,12.174,6.664,15.043A3.138,3.138,0,0,1,43,214.129v5.732h6.667v-4.088a1.386,1.386,0,0,1,1.364-1.407l13.268-.008a1.386,1.386,0,0,1,1.367,1.407v4.1h6.668v-6.207a2.61,2.61,0,0,1,1-2.062c2.279-1.773,4.667-3.527,6.052-6.671a2.512,2.512,0,0,1,2.276-1.542h.1a2.7,2.7,0,0,0,2.608-2.122l1.3-7.493c0-1.374-.6-2.747-2.332-2.747H81.753a2.5,2.5,0,0,1-2.287-1.423c-.993-2.148-2.535-3.281-4.467-5.066v-7.4a.854.854,0,0,0-1.463-.625l-3.416,3.52H68.333" transform="translate(-35 -171.861)"/><path class="a" d="M41.971,184a10.178,10.178,0,0,0-2.961,6.972" transform="translate(-34.868 -167.169)"/><path class="a" d="M46,183" transform="translate(-31.333 -168.333)"/><path class="a" d="M58,183" transform="translate(-27.333 -168.333)"/><circle class="a" cx="5.681" cy="5.681" r="5.681" transform="translate(16.013)"/><line class="a" y2="2.066" transform="translate(40 18.914)"/></g></svg>