<?xml version="1.0" encoding="utf-8"?>
<!-- Generator: Adobe Illustrator 23.0.1, SVG Export Plug-In . SVG Version: 6.00 Build 0)  -->
<svg version="1.1" id="Layer_1" xmlns:svgjs="http://svgjs.com/svgjs"
	 xmlns="http://www.w3.org/2000/svg" xmlns:xlink="http://www.w3.org/1999/xlink" x="0px" y="0px" viewBox="0 0 512 512"
	 style="enable-background:new 0 0 512 512;" xml:space="preserve">
<style type="text/css">
	.st0{fill:#FFFFFF;fill-opacity:0;}
	.st1{fill:#FFFFFF;}
</style>
<g id="star-deactive" transform="translate(643 1998)">
	<path id="Path_15441" class="st0" d="M-758.3-2112.5h733.2v733.2h-733.2V-2112.5z"/>
	<g id="qr-code-3" transform="translate(-638.485 -1993.431)">
		<g id="Group_33936" transform="translate(0 -0.319)">
			<g id="Group_33935">
				<path id="Path_25500" class="st1" d="M159.6,24.9H15.3v144.3h144.3V24.9z M130.7,140.4H44.2V53.8h86.6V140.4z"/>
				<rect id="Rectangle_17250" x="60.7" y="72.4" class="st1" width="30.6" height="30.6"/>
				<path id="Path_25501" class="st1" d="M332.7,24.9v144.3H477V24.9H332.7z M448.1,140.4h-86.6V53.8h86.6V140.4z"/>
				<rect id="Rectangle_17251" x="396.8" y="72.4" class="st1" width="30.6" height="30.6"/>
				<path id="Path_25502" class="st1" d="M15.3,486.6h144.3V342.3H15.3V486.6z M44.2,371.2h86.6v86.6H44.2V371.2z"/>
				<rect id="Rectangle_17252" x="60.7" y="408.5" class="st1" width="30.6" height="30.6"/>
				<rect id="Rectangle_17253" x="244" y="11.3" class="st1" width="61.1" height="30.6"/>
				<path id="Path_25503" class="st1" d="M246.1,140.4H275v-28.8h28.8V82.7h-86.6V53.8h-28.8v57.7h57.7V140.4z"/>
				<rect id="Rectangle_17254" x="213.4" y="133.5" class="st1" width="0" height="61.1"/>
				<path id="Path_25504" class="st1" d="M303.8,169.2H275V198h-86.6v28.8h115.4V169.2z"/>
				<path id="Path_25505" class="st1" d="M44.2,284.6H73v-28.8H44.2v-57.7H15.3v115.4h28.8V284.6z"/>
				<rect id="Rectangle_17255" x="60.7" y="194.6" class="st1" width="30.6" height="30.6"/>
				<path id="Path_25506" class="st1" d="M188.4,313.5h57.7v-28.8h-28.8v-28.8h-57.7v-57.7h-28.8v57.7h-28.9v57.7h28.8v-28.8h57.7
					V313.5z"/>
				<rect id="Rectangle_17256" x="274.6" y="255.8" class="st1" width="30.6" height="61.1"/>
				<path id="Path_25507" class="st1" d="M275,342.3h-86.6v28.8h57.7v86.6h-57.7v28.8H275v-28.8h57.7v-28.8H275V342.3z"/>
				<rect id="Rectangle_17257" x="213.4" y="408.5" class="st1" width="0" height="30.6"/>
				<rect id="Rectangle_17258" x="305.1" y="316.9" class="st1" width="30.6" height="91.7"/>
				<path id="Path_25508" class="st1" d="M448.1,400h-86.6v86.6h28.8v-57.7h57.7V400z"/>
				<rect id="Rectangle_17259" x="427.3" y="469.6" class="st1" width="61.1" height="30.6"/>
				<rect id="Rectangle_17260" x="457.9" y="316.9" class="st1" width="30.6" height="61.1"/>
				<path id="Path_25509" class="st1" d="M361.6,371.2h28.8v-86.6h-57.7v28.8h28.8V371.2z"/>
				<path id="Path_25510" class="st1" d="M419.3,226.9h-28.8v-28.8h-28.8v28.8h-28.9v28.8h115.4v-28.8H477v-28.8h-57.7V226.9z"/>
				<rect id="Rectangle_17261" x="427.3" y="286.3" class="st1" width="61.1" height="30.6"/>
			</g>
		</g>
	</g>
</g>
</svg>
