<svg xmlns="http://www.w3.org/2000/svg" width="21.677" height="15.897" viewBox="0 0 21.677 15.897"><defs><style>.a{fill:#fff;}</style></defs><path class="a" d="M5.723,10.781a.723.723,0,0,0,.723-.723V6.445h3.613a.723.723,0,1,0,0-1.445H5.723A.723.723,0,0,0,5,5.723v4.335A.723.723,0,0,0,5.723,10.781Z" transform="translate(-2.11 -5)"/><path class="a" d="M19.723,6.445h3.613v3.613a.723.723,0,1,0,1.445,0V5.723A.723.723,0,0,0,24.058,5H19.723a.723.723,0,0,0,0,1.445Z" transform="translate(-5.994 -5)"/><path class="a" d="M10.058,23.335H6.445V19.723a.723.723,0,0,0-1.445,0v4.335a.723.723,0,0,0,.723.723h4.335a.723.723,0,1,0,0-1.445Z" transform="translate(-2.11 -8.884)"/><path class="a" d="M24.058,19a.723.723,0,0,0-.723.723v3.613H19.723a.723.723,0,0,0,0,1.445h4.335a.723.723,0,0,0,.723-.723V19.723A.723.723,0,0,0,24.058,19Z" transform="translate(-5.994 -8.884)"/><path class="a" d="M21.955,15H1.723a.723.723,0,0,0,0,1.445H21.955a.723.723,0,1,0,0-1.445Z" transform="translate(-1 -7.774)"/></svg>