<svg xmlns="http://www.w3.org/2000/svg" width="32" height="47" viewBox="0 0 32 47"><defs><style>.a,.b,.c{fill:#007c3d;}.a{opacity:0;}.c{font-size:8px;font-family:Heebo-Medium, Heebo;font-weight:500;}</style></defs><g transform="translate(-315 -99)"><g transform="translate(958 2104)"><rect class="a" width="32" height="32" transform="translate(-643 -1998)"/><g transform="translate(-638.396 -1993.395)"><path class="b" d="M9.579,0H.668A.668.668,0,0,0,0,.668V9.579a.668.668,0,0,0,.668.668H9.579a.668.668,0,0,0,.668-.668V.668A.668.668,0,0,0,9.579,0ZM8.911,8.911H1.337V1.337H8.911Z"/><g transform="translate(3.119 3.119)"><path class="b" d="M73.342,70H70.668a.668.668,0,0,0-.668.668v2.673a.668.668,0,0,0,.668.668h2.673a.668.668,0,0,0,.668-.668V70.668A.668.668,0,0,0,73.342,70Zm-.668,2.673H71.337V71.337h1.337Z" transform="translate(-70 -70)"/></g><g transform="translate(12.565)"><path class="b" d="M291.579,0h-8.911A.668.668,0,0,0,282,.668V9.579a.668.668,0,0,0,.668.668h8.911a.668.668,0,0,0,.668-.668V.668A.668.668,0,0,0,291.579,0Zm-.668,8.911h-7.574V1.337h7.574Z" transform="translate(-282)"/></g><g transform="translate(15.684 3.119)"><path class="b" d="M355.342,70h-2.673a.668.668,0,0,0-.668.668v2.673a.668.668,0,0,0,.668.668h2.673a.668.668,0,0,0,.668-.668V70.668A.668.668,0,0,0,355.342,70Zm-.668,2.673h-1.337V71.337h1.337Z" transform="translate(-352 -70)"/></g><g transform="translate(0 12.565)"><path class="b" d="M9.579,282H.668a.668.668,0,0,0-.668.668v8.911a.668.668,0,0,0,.668.668H9.579a.668.668,0,0,0,.668-.668v-8.911A.668.668,0,0,0,9.579,282Zm-.668,8.911H1.337v-7.574H8.911Z" transform="translate(0 -282)"/></g><g transform="translate(3.119 15.684)"><path class="b" d="M73.342,352H70.668a.668.668,0,0,0-.668.668v2.673a.668.668,0,0,0,.668.668h2.673a.668.668,0,0,0,.668-.668v-2.673A.668.668,0,0,0,73.342,352Zm-.668,2.673H71.337v-1.337h1.337Z" transform="translate(-70 -352)"/></g><g transform="translate(17.02 15.684)"><path class="b" d="M387.124,355.147h-3.787v-2.479a.668.668,0,0,0-1.337,0v3.147a.668.668,0,0,0,.668.668h3.787v1.308h-3.787a.668.668,0,1,0,0,1.337h4.456a.668.668,0,0,0,.668-.668v-2.645A.668.668,0,0,0,387.124,355.147Z" transform="translate(-382 -352)"/></g><g transform="translate(21.476 12.565)"><path class="b" d="M482.668,282a.668.668,0,0,0-.668.668v3.119a.668.668,0,0,0,1.337,0v-3.119A.668.668,0,0,0,482.668,282Z" transform="translate(-482 -282)"/></g><g transform="translate(12.565 12.565)"><path class="b" d="M285.787,282h-3.119a.668.668,0,0,0-.668.668v3.119a.668.668,0,0,0,1.337,0v-2.451h2.451a.668.668,0,0,0,0-1.337Z" transform="translate(-282 -282)"/></g><g transform="translate(12.565 18.831)"><path class="b" d="M282.668,422.637a.668.668,0,0,0-.668.668v2.645a.668.668,0,0,0,1.337,0v-2.645A.668.668,0,0,0,282.668,422.637Z" transform="translate(-282 -422.637)"/></g></g></g><text class="c" transform="translate(320 107)"><tspan x="0" y="0">SCAN</tspan></text><text class="c" transform="translate(331 143)"><tspan x="-5.268" y="0">QR</tspan></text></g></svg>