<svg xmlns="http://www.w3.org/2000/svg" width="60" height="60" viewBox="0 0 60 60">
  <g id="favorites" transform="translate(11559.851 -13098)">
    <g id="fd-rd" transform="translate(1733.149 35)" opacity="0">
      <g id="Group_39998" data-name="Group 39998" transform="translate(-445 184)" opacity="0.36">
        <rect id="Rectangle_18667" data-name="Rectangle 18667" width="60" height="60" transform="translate(-12848 12879)" fill="#adadad"/>
      </g>
    </g>
    <rect id="Rectangle_18707" data-name="Rectangle 18707" width="52" height="52" transform="translate(-11555.851 13102)" fill="#7c0000" opacity="0"/>
    <g id="noun_payment_window_2564323" data-name="noun_payment window_2564323" transform="translate(-11553.851 13111)">
      <path id="Path_43223" data-name="Path 43223" d="M52.571,58.971A6.178,6.178,0,0,0,58.743,52.8V49.371a1.371,1.371,0,1,0-2.743,0V52.8a3.433,3.433,0,0,1-3.429,3.429h-19.2a1.371,1.371,0,0,0,0,2.743Z" transform="translate(-13.486 -23.314)" fill="#007c3d"/>
      <path id="Path_43224" data-name="Path 43224" d="M10.371,31.886a1.371,1.371,0,0,0,1.371-1.371V22.971a8.238,8.238,0,0,1,8.229-8.229H45.343a3.433,3.433,0,0,1,3.429,3.429v6.171H46.029a5.486,5.486,0,1,0,0,10.971h4.114A4.119,4.119,0,0,0,54.257,31.2V28.457a4.114,4.114,0,0,0-2.743-3.874V18.171A6.178,6.178,0,0,0,45.343,12H19.971A10.984,10.984,0,0,0,9,22.971v7.543A1.371,1.371,0,0,0,10.371,31.886ZM51.514,31.2a1.371,1.371,0,0,1-1.371,1.371H46.029a2.743,2.743,0,1,1,0-5.486h4.114a1.371,1.371,0,0,1,1.371,1.371Z" transform="translate(-6.257 -12)" fill="#007c3d"/>
      <circle id="Ellipse_2637" data-name="Ellipse 2637" cx="1.018" cy="1.018" r="1.018" transform="translate(38.255 16.634)" fill="#007c3d"/>
      <path id="Path_43225" data-name="Path 43225" d="M13.914,59.829A8.914,8.914,0,1,0,5,50.914a8.914,8.914,0,0,0,8.914,8.914Zm0-15.086a6.171,6.171,0,1,1-6.171,6.171,6.171,6.171,0,0,1,6.171-6.171Z" transform="translate(-5 -21.429)" fill="#007c3d"/>
      <path id="Path_43226" data-name="Path 43226" d="M18.459,55.827A1.371,1.371,0,1,0,20.4,53.887l-1.655-1.656v-2.86a1.371,1.371,0,1,0-2.743,0V52.8a1.371,1.371,0,0,0,.4.969Z" transform="translate(-8.457 -23.314)" fill="#007c3d"/>
      <path id="Path_43227" data-name="Path 43227" d="M10.928-9.57h-2.7a4.651,4.651,0,0,1,.925,2.262h2.3l-.525,1.8H9.192A4.1,4.1,0,0,1,7.582-2.442,6.508,6.508,0,0,1,3.675-1.414L9.306,5.119v.137H6.713L.659-1.791.648-3.219H3.492a4.08,4.08,0,0,0,2.319-.623A2.67,2.67,0,0,0,6.942-5.5H.328l.525-1.8H6.919Q6.371-9.479,3.561-9.57H.351l.537-1.8H11.454Z" transform="translate(18.963 21.041)" fill="#007c3d"/>
    </g>
  </g>
</svg>
