<svg xmlns="http://www.w3.org/2000/svg" width="27.46" height="23.062" viewBox="0 0 27.46 23.062"><defs><style>.a{fill:#9c9c9c;}</style></defs><g transform="translate(0 -41)"><path class="a" d="M23.85,41H3.609A3.613,3.613,0,0,0,0,44.609V56.162a3.613,3.613,0,0,0,3.486,3.606v2.891a1.4,1.4,0,0,0,1.4,1.4h6.527a1.4,1.4,0,0,0,1.4-1.4V59.771H23.85a3.613,3.613,0,0,0,3.609-3.609V44.609A3.613,3.613,0,0,0,23.85,41ZM3.609,42.609H23.85a2,2,0,0,1,2,2v.681H1.609v-.681a2,2,0,0,1,2-2ZM9.922,56.017H6.382v-.912a1.342,1.342,0,0,1,1.341-1.341h.858a1.342,1.342,0,0,1,1.341,1.341Zm1.287,6.436H5.1V57.626h6.114ZM23.85,58.162H12.818v-.743a1.4,1.4,0,0,0-1.287-1.4v-.917a2.953,2.953,0,0,0-2.95-2.95H7.723a2.953,2.953,0,0,0-2.95,2.95v.917a1.4,1.4,0,0,0-1.287,1.4v.739a2,2,0,0,1-1.877-2V46.9H25.851v9.262a2,2,0,0,1-2,2Z"/><path class="a" d="M74.386,185H65.8a.8.8,0,1,0,0,1.609h8.581a.8.8,0,0,0,0-1.609Z" transform="translate(-61.514 -136.277)"/><path class="a" d="M295.507,185h-4.539A1.969,1.969,0,0,0,289,186.967v1.107a1.969,1.969,0,0,0,1.967,1.967h4.539a1.969,1.969,0,0,0,1.967-1.967v-1.107A1.969,1.969,0,0,0,295.507,185Zm.358,3.074a.359.359,0,0,1-.358.358h-4.539a.359.359,0,0,1-.358-.358v-1.107a.359.359,0,0,1,.358-.358h4.539a.359.359,0,0,1,.358.358Z" transform="translate(-273.5 -136.277)"/></g></svg>