<svg xmlns="http://www.w3.org/2000/svg" viewBox="0 0 37 36" width="37" height="36">
	<style>
		tspan { white-space:pre }
		.shp0 { fill: #007c3d;stroke: #007c3d;stroke-width: 0.2 } 
	</style>
	<g id="Layer">
		<g id="Layer">
		</g>
		<g id="Layer">
			<g id="Layer">
				<g id="Folder 1">
					<path id="Layer" fill-rule="evenodd" class="shp0" d="M25.26 2.45C26.07 2.81 26.85 3.23 27.59 3.72C28.32 4.2 29.02 4.75 29.67 5.35C30.32 5.95 30.92 6.6 31.47 7.29L31.84 5.89C31.92 5.62 32.09 5.4 32.33 5.26C32.57 5.12 32.85 5.08 33.12 5.15C33.39 5.23 33.61 5.4 33.75 5.64C33.89 5.88 33.93 6.16 33.86 6.43L32.89 10.04C32.85 10.17 32.79 10.3 32.71 10.41C32.63 10.52 32.52 10.61 32.4 10.68C32.29 10.74 32.15 10.79 32.02 10.81C31.88 10.82 31.74 10.82 31.61 10.78L28 9.81C27.73 9.74 27.51 9.56 27.37 9.32C27.23 9.08 27.19 8.8 27.26 8.53C27.34 8.27 27.51 8.04 27.75 7.9C27.99 7.76 28.27 7.73 28.54 7.8L29.35 8.01C24.6 2.59 16.58 1.52 10.57 5.49C4.57 9.47 2.43 17.27 5.56 23.76C8.69 30.24 16.14 33.41 22.99 31.18C29.83 28.94 33.97 21.99 32.68 14.91C32.63 14.63 32.69 14.35 32.85 14.13C33.01 13.9 33.25 13.75 33.52 13.7C33.79 13.65 34.07 13.71 34.3 13.86C34.52 14.02 34.68 14.26 34.73 14.53C36.06 21.76 32.44 28.99 25.87 32.27C19.3 35.55 11.35 34.09 6.37 28.69C1.39 23.29 0.58 15.25 4.38 8.97C8.18 2.68 15.67 -0.34 22.77 1.56C23.62 1.79 24.46 2.08 25.26 2.45ZM23.8 18.79C24.15 19.14 24.47 19.52 24.74 19.93C25.01 20.34 25.24 20.77 25.43 21.23C25.62 21.68 25.76 22.15 25.86 22.63C25.95 23.12 26 23.61 26 24.1L24.83 24.1C24.83 22.42 24.16 20.81 22.97 19.62C21.79 18.44 20.18 17.77 18.5 17.77C16.82 17.77 15.21 18.44 14.02 19.62C12.84 20.81 12.17 22.42 12.17 24.1L11 24.1C11 23.32 11.12 22.55 11.36 21.81C11.59 21.08 11.94 20.38 12.39 19.75C12.84 19.11 13.38 18.56 14 18.09C14.63 17.63 15.31 17.26 16.05 17.01C14.48 15.93 13.79 13.96 14.36 12.15C14.92 10.33 16.6 9.09 18.5 9.09C20.4 9.09 22.08 10.33 22.64 12.15C23.21 13.96 22.52 15.93 20.95 17.01C21.22 17.1 21.48 17.21 21.74 17.33C21.99 17.45 22.24 17.59 22.48 17.74C22.72 17.89 22.95 18.05 23.17 18.23C23.39 18.4 23.6 18.59 23.8 18.79ZM18.5 16.6C18.91 16.6 19.33 16.51 19.71 16.35C20.09 16.19 20.44 15.96 20.74 15.67C21.03 15.37 21.26 15.03 21.42 14.64C21.58 14.26 21.66 13.85 21.66 13.43C21.66 12.15 20.89 11 19.71 10.51C18.53 10.02 17.17 10.29 16.26 11.19C15.36 12.1 15.09 13.46 15.58 14.64C16.07 15.83 17.22 16.6 18.5 16.6Z" />
				</g>
			</g>
		</g>
	</g>
</svg>