<svg xmlns="http://www.w3.org/2000/svg" width="47.141" height="47.141" viewBox="0 0 47.141 47.141">
  <path id="Union_32" data-name="Union 32" d="M36.351,45.941V42.946H10.789v2.994a1.2,1.2,0,0,1-2.4,0V40.546h.979a13.051,13.051,0,0,1-.979-4.992V27.566H1.2a1.2,1.2,0,0,1-1.2-1.2V1.2A1.2,1.2,0,0,1,1.2,0h44.74a1.2,1.2,0,0,1,1.2,1.2V26.366a1.2,1.2,0,0,1-1.2,1.2H38.751v5.747a16.393,16.393,0,0,1-1.675,7.232h1.675v5.395a1.2,1.2,0,0,1-2.4,0Zm-2.007-5.395a13.968,13.968,0,0,0,2.007-7.232V16.493a4.156,4.156,0,0,0-3.192,4.037v9.905l-1.983-1.706a4.336,4.336,0,0,0-3.412-1.162,7.621,7.621,0,0,0-4.89,1.8,5.751,5.751,0,0,0-2.122,4.386,1.2,1.2,0,0,1-2.4,0,8.106,8.106,0,0,1,2.935-6.186h-10.5v7.987a10.67,10.67,0,0,0,1.12,4.789,1.205,1.205,0,0,1,.079.2Zm10.4-15.379V2.4H2.4V25.167H30.758V20.53a6.556,6.556,0,0,1,6.548-6.548h1.444v5.595a5.768,5.768,0,0,1,4.208-1.815,1.2,1.2,0,0,1,0,2.4,3.332,3.332,0,0,0-3.357,3.3,1.2,1.2,0,0,1-.851,1.148v.557ZM7.353,23.461A3.332,3.332,0,0,0,4,20.162a1.2,1.2,0,0,1,0-2.4,5.735,5.735,0,0,1,5.756,5.7,1.2,1.2,0,0,1-2.4,0Zm6.629-8.978a8.89,8.89,0,1,1,8.89,8.889A8.9,8.9,0,0,1,13.982,14.483Zm2.4,0a6.489,6.489,0,1,0,6.49-6.49A6.5,6.5,0,0,0,16.382,14.483ZM37.238,4a1.2,1.2,0,0,1,2.4,0,3.3,3.3,0,0,0,3.32,3.263,1.2,1.2,0,0,1,0,2.4A5.7,5.7,0,0,1,37.238,4ZM2.8,8.459A1.2,1.2,0,0,1,4,7.259,3.3,3.3,0,0,0,7.316,4a1.2,1.2,0,0,1,2.4,0A5.7,5.7,0,0,1,4,9.659,1.2,1.2,0,0,1,2.8,8.459Z" fill="#007c3d"/>
</svg>
