<?xml version="1.0" encoding="utf-8"?>
<!-- Generator: Adobe Illustrator 23.0.1, SVG Export Plug-In . SVG Version: 6.00 Build 0)  -->
<svg version="1.1" id="Layer_1" xmlns="http://www.w3.org/2000/svg" xmlns:xlink="http://www.w3.org/1999/xlink" x="0px" y="0px"
	 viewBox="0 0 16 16" style="enable-background:new 0 0 16 16;" xml:space="preserve">
<style type="text/css">
	.st0{fill:#FC0000;}
	.st1{fill:#50BD59;}
</style>
<g id="send-money" transform="translate(-12.613 -8.996)">
	<g id="right-arrow" transform="translate(-112 28) rotate(-90)">
		<g id="Group_37754" transform="translate(7 132)">
			<path id="Path_43227" class="st0" d="M11.5,3.1L11.5,3.1L8.6,0.2C8.4,0,8,0,7.8,0.2C7.6,0.4,7.6,0.8,7.8,1l2,2L5.4,3
				C5.1,3,4.9,3.2,4.9,3.5s0.3,0.6,0.6,0.6l4.4,0l-2,2c-0.2,0.2-0.2,0.6,0,0.8c0.2,0.2,0.6,0.2,0.8,0l2.9-2.9l0,0
				C11.8,3.7,11.8,3.4,11.5,3.1C11.6,3.1,11.6,3.1,11.5,3.1z"/>
		</g>
	</g>
	<path id="Path_43235" class="st1" d="M14.2,15.1v1.1h2.2c0.8-0.1,1.6,0.5,1.8,1.3h-4v1.1h4c-0.2,0.8-0.9,1.3-1.7,1.3h-2.3v1.1h1.6
		l2.6,3.8h1.4L17,20.8c1.3-0.1,2.3-1,2.5-2.3h1.4v-1.1h-1.4c-0.1-0.5-0.3-0.9-0.7-1.3h2.1v-1.1H14.2z"/>
</g>
</svg>
