<svg xmlns="http://www.w3.org/2000/svg" width="60" height="60" viewBox="0 0 60 60">
  <g id="send-money" transform="translate(12848 -12879)">
    <g id="Group_39984" data-name="Group 39984">
      <g id="Group_39998" data-name="Group 39998" opacity="0">
        <rect id="Rectangle_18667" data-name="Rectangle 18667" width="60" height="60" transform="translate(-12848 12879)" fill="#e6e6e6"/>
        <rect id="Rectangle_18668" data-name="Rectangle 18668" width="52" height="52" transform="translate(-12844 12883)" fill="#7c0000" opacity="0.134"/>
      </g>
    </g>
    <path id="sent-money" d="M40.043,50.606v-3.3H11.885v3.3a1.322,1.322,0,0,1-2.644,0V44.664h1.079a14.376,14.376,0,0,1-1.079-5.5v-8.8H1.323A1.322,1.322,0,0,1,0,29.044V1.323A1.322,1.322,0,0,1,1.323,0H50.606a1.322,1.322,0,0,1,1.322,1.323V29.044a1.322,1.322,0,0,1-1.322,1.322H42.687V36.7a18.058,18.058,0,0,1-1.845,7.967h1.845v5.942a1.322,1.322,0,0,1-2.644,0Zm-2.21-5.942a15.387,15.387,0,0,0,2.21-7.967V18.167a4.578,4.578,0,0,0-3.517,4.447V33.526l-2.184-1.88a4.776,4.776,0,0,0-3.758-1.28A8.4,8.4,0,0,0,25.2,32.349,6.335,6.335,0,0,0,22.86,37.18a1.322,1.322,0,0,1-2.644,0,8.929,8.929,0,0,1,3.233-6.814H11.885v8.8a11.754,11.754,0,0,0,1.233,5.275,1.327,1.327,0,0,1,.087.224ZM49.284,27.723V2.644H2.644V27.723H33.882V22.615A7.222,7.222,0,0,1,41.1,15.4h1.591v6.163a6.354,6.354,0,0,1,4.636-2,1.322,1.322,0,0,1,0,2.644,3.671,3.671,0,0,0-3.7,3.634,1.322,1.322,0,0,1-.938,1.265v.614ZM8.1,25.844a3.671,3.671,0,0,0-3.7-3.634,1.322,1.322,0,0,1,0-2.644,6.317,6.317,0,0,1,6.341,6.279,1.322,1.322,0,0,1-2.643,0Zm7.3-9.89a9.793,9.793,0,1,1,9.793,9.792A9.8,9.8,0,0,1,15.4,15.954Zm2.644,0A7.149,7.149,0,1,0,25.195,8.8,7.157,7.157,0,0,0,18.046,15.954ZM41.02,4.4a1.322,1.322,0,0,1,2.644,0A3.63,3.63,0,0,0,47.322,8a1.322,1.322,0,0,1,0,2.644A6.277,6.277,0,0,1,41.02,4.4ZM3.08,9.318A1.322,1.322,0,0,1,4.4,8,3.63,3.63,0,0,0,8.059,4.4a1.322,1.322,0,0,1,2.644,0A6.276,6.276,0,0,1,4.4,10.64,1.322,1.322,0,0,1,3.08,9.318Z" transform="translate(-12843.969 12883.038)" fill="#007c3d"/>
  </g>
</svg>
