<svg xmlns="http://www.w3.org/2000/svg" xmlns:xlink="http://www.w3.org/1999/xlink" width="35" height="105" viewBox="0 0 35 105">
  <defs>
    <clipPath id="clip-services">
      <rect width="35" height="105"/>
    </clipPath>
  </defs>
  <g id="services" clip-path="url(#clip-services)">
    <g id="Group_39952" data-name="Group 39952" transform="translate(2.1 3.101)">
      <path id="Union_36" data-name="Union 36" d="M9.384,28.148a27.338,27.338,0,0,1-2.912-1.635c-.72-.455-1.468-.962-2.255-1.494-.9-.612-1.834-1.244-2.808-1.853-.1-.067-.189-.125-.273-.18-.2-.128-.368-.24-.513-.353a1.477,1.477,0,0,1-.558-.689A1.341,1.341,0,0,1,.12,21c.088-.2.174-.359.285-.561l.042-.08a.556.556,0,0,1,.036-.045c.022-.038.045-.074.067-.109a4.477,4.477,0,0,1,.263-.388,1.466,1.466,0,0,1,.657-.5,1.406,1.406,0,0,1,.448-.08l.1,0v0a1.639,1.639,0,0,1,.343.058,4.364,4.364,0,0,1,.907.4c.467.237.949.487,1.455.753,1.327.689,2.7,1.4,4.1,2.022a.8.8,0,0,1-.349,1.522.719.719,0,0,1-.3-.061c-1.166-.519-2.423-1.17-3.756-1.856-.616-.317-1.254-.647-1.9-.968a2.884,2.884,0,0,0-.505-.228c-.032.051-.078.119-.126.192l-.039.061c-.038.074-.07.131-.1.183s-.046.087-.064.122c.092.067.224.154.391.266l.179.119c.791.487,1.587,1.035,2.355,1.564.879.6,1.786,1.228,2.71,1.779A25.546,25.546,0,0,0,10.069,26.7,5.63,5.63,0,0,0,12,27.3c2.365,0,4.122-.08,5.978-.163,1.98-.093,4.032-.186,6.975-.186a25.483,25.483,0,0,1,3.856.263c.25.038.446.064.6.074V23.9a.8.8,0,0,1,1.6,0v3.5a1.583,1.583,0,0,1-1.5,1.49,8.217,8.217,0,0,1-1.154-.109,22.63,22.63,0,0,0-3.4-.231c-2.894,0-4.924.093-6.888.183-1.875.087-3.647.167-6.064.167A6.512,6.512,0,0,1,9.384,28.148ZM1.973,20.763ZM17.595,24.7h-4.9a3.118,3.118,0,0,1-1.568-.442,1.633,1.633,0,0,1-.98-1.407V21.8a1.637,1.637,0,0,1,.98-1.42,3.114,3.114,0,0,1,1.568-.43h4.792c.319-.087.691-.2,1.086-.321a19.361,19.361,0,0,1,5.676-1.08h.1a13.78,13.78,0,0,1,5.737,1.615c.148.067.3.131.439.2a.8.8,0,0,1-.346,1.522.727.727,0,0,1-.3-.061c-.13-.058-.26-.115-.385-.173a12.511,12.511,0,0,0-5.244-1.5,18.288,18.288,0,0,0-5.142,1c-.467.141-.91.276-1.31.378a.842.842,0,0,1-.2.026h-4.9a1.752,1.752,0,0,0-.756.215.726.726,0,0,0-.18.151.053.053,0,0,0-.013.013v.8c.007,0,.01.01.016.013a.82.82,0,0,0,.177.135,1.765,1.765,0,0,0,.756.228h4.913a.8.8,0,1,1,0,1.6Zm-5.869-1.859.007-.01-.025-.006ZM8.467,21.1,3.919,18.651a.8.8,0,0,1,.288-1.51.539.539,0,0,1,.071,0,.81.81,0,0,1,.393.1L9.22,19.69a.833.833,0,0,1,.352,1.093.82.82,0,0,1-.726.417A.765.765,0,0,1,8.467,21.1ZM9.857,19l-3.15-1.75a.819.819,0,0,1-.42-.872.828.828,0,0,1,.737-.638h.048a.815.815,0,0,1,.414.112l3.148,1.75a.794.794,0,0,1-.408,1.49A.765.765,0,0,1,9.857,19Zm3.889-2.7a.832.832,0,0,1-.8-.8V14.106c-.029-.006-.058-.01-.09-.019-.109-.026-.222-.061-.32-.09l-1.37,1.365a.8.8,0,0,1-.567.228.808.808,0,0,1-.57-.228l-2.1-2.1a.828.828,0,0,1,0-1.135l1.31-1.311c0-.006-.01-.013-.013-.019-.024-.035-.054-.074-.08-.119-.038-.08-.067-.16-.1-.237-.013-.032-.022-.064-.035-.093H7.444a.828.828,0,0,1-.8-.8V6.75a.828.828,0,0,1,.8-.8H9.008c.01-.029.022-.055.032-.083.032-.083.067-.17.109-.256a1.321,1.321,0,0,1,.08-.122.072.072,0,0,1,.013-.016L7.932,4.164a.832.832,0,0,1,0-1.138l2.1-2.1a.829.829,0,0,1,1.134,0L12.548,2.3c.1-.032.2-.067.311-.093.031-.006.06-.013.09-.016V.8a.826.826,0,0,1,.724-.8h2.875a.832.832,0,0,1,.8.8V2.192l.1.019c.108.029.211.061.311.093L19.137.926A.8.8,0,0,1,19.7.705a.809.809,0,0,1,.565.221l2.1,2.1a.824.824,0,0,1,0,1.138l-1.3,1.3a.11.11,0,0,1,.017.022.782.782,0,0,1,.077.125,2.081,2.081,0,0,1,.1.24,1.018,1.018,0,0,0,.036.1h1.56a.831.831,0,0,1,.8.8v2.8a.831.831,0,0,1-.8.8H21.284c-.01.029-.022.061-.032.093a2.306,2.306,0,0,1-.1.237.91.91,0,0,1-.077.122.127.127,0,0,1-.017.026l1.3,1.3a.82.82,0,0,1,0,1.135l-2.1,2.1a.809.809,0,0,1-.565.221.8.8,0,0,1-.561-.221l-1.381-1.378c-.018.01-.042.016-.064.026a1.884,1.884,0,0,1-.246.077.54.54,0,0,1-.1.019V15.5a.832.832,0,0,1-.8.8Zm-1-3.955a.522.522,0,0,1,.064.042.231.231,0,0,0,.089.042l.007,0c.08.029.2.064.327.1s.235.048.327.061l.134.013h.046a.837.837,0,0,1,.807.8v1.3h1.2V13.4a.831.831,0,0,1,.8-.8h.063a.684.684,0,0,0,.119-.01c.11-.016.235-.039.341-.064.128-.032.249-.067.33-.1a.789.789,0,0,0,.08-.035.821.821,0,0,1,1.029.08L19.7,13.667l.974-.968-1.186-1.186a.831.831,0,0,1-.029-1.1.684.684,0,0,0,.042-.071c.055-.087.147-.237.221-.381a4.453,4.453,0,0,0,.253-.612.827.827,0,0,1,.777-.6h1.3v-1.2h-1.3a.817.817,0,0,1-.777-.609,4.315,4.315,0,0,0-.253-.6c-.074-.147-.165-.295-.221-.381a.689.689,0,0,0-.042-.071.826.826,0,0,1,.029-1.109L20.672,3.6,19.7,2.625,18.509,3.814a.8.8,0,0,1-.565.221.827.827,0,0,1-.394-.1l-.045-.026a.99.99,0,0,0-.109-.055c-.077-.029-.2-.061-.326-.093l-.093-.019a1.192,1.192,0,0,0-.334-.045.808.808,0,0,1-.657-.244.779.779,0,0,1-.237-.554V1.6h-1.2V2.9a.8.8,0,0,1-.24.554.809.809,0,0,1-.647.244h0a.9.9,0,0,0-.093,0,3.32,3.32,0,0,0-.33.064,2.866,2.866,0,0,0-.327.1.237.237,0,0,0-.06.032l-.017.01a.785.785,0,0,1-.465.147.8.8,0,0,1-.579-.237L10.6,2.625,9.64,3.6l1.179,1.176a.823.823,0,0,1,.022,1.112.379.379,0,0,1-.032.051,4.07,4.07,0,0,0-.234.4,4.227,4.227,0,0,0-.256.6.822.822,0,0,1-.773.612h-1.3v.622c0,.2,0,.388,0,.577h1.3a.824.824,0,0,1,.776.6,4.112,4.112,0,0,0,.49,1.013.354.354,0,0,1,.036.051.831.831,0,0,1-.026,1.1L9.643,12.7l.952.952,1.19-1.176a.809.809,0,0,1,.57-.228A.824.824,0,0,1,12.746,12.347Zm-.85-4.2a3.25,3.25,0,1,1,3.25,3.25A3.254,3.254,0,0,1,11.9,8.151Zm1.6,0A1.65,1.65,0,1,0,15.147,6.5,1.631,1.631,0,0,0,13.5,8.151Z" transform="translate(-0.1 -0.101)" fill="#007c3d"/>
    </g>
    <g id="Group_39953" data-name="Group 39953" transform="translate(2.1 38.101)">
      <path id="Union_36-2" data-name="Union 36" d="M9.384,28.148a27.338,27.338,0,0,1-2.912-1.635c-.72-.455-1.468-.962-2.255-1.494-.9-.612-1.834-1.244-2.808-1.853-.1-.067-.189-.125-.273-.18-.2-.128-.368-.24-.513-.353a1.477,1.477,0,0,1-.558-.689A1.341,1.341,0,0,1,.12,21c.088-.2.174-.359.285-.561l.042-.08a.556.556,0,0,1,.036-.045c.022-.038.045-.074.067-.109a4.477,4.477,0,0,1,.263-.388,1.466,1.466,0,0,1,.657-.5,1.406,1.406,0,0,1,.448-.08l.1,0v0a1.639,1.639,0,0,1,.343.058,4.364,4.364,0,0,1,.907.4c.467.237.949.487,1.455.753,1.327.689,2.7,1.4,4.1,2.022a.8.8,0,0,1-.349,1.522.719.719,0,0,1-.3-.061c-1.166-.519-2.423-1.17-3.756-1.856-.616-.317-1.254-.647-1.9-.968a2.884,2.884,0,0,0-.505-.228c-.032.051-.078.119-.126.192l-.039.061c-.038.074-.07.131-.1.183s-.046.087-.064.122c.092.067.224.154.391.266l.179.119c.791.487,1.587,1.035,2.355,1.564.879.6,1.786,1.228,2.71,1.779A25.546,25.546,0,0,0,10.069,26.7,5.63,5.63,0,0,0,12,27.3c2.365,0,4.122-.08,5.978-.163,1.98-.093,4.032-.186,6.975-.186a25.483,25.483,0,0,1,3.856.263c.25.038.446.064.6.074V23.9a.8.8,0,0,1,1.6,0v3.5a1.583,1.583,0,0,1-1.5,1.49,8.217,8.217,0,0,1-1.154-.109,22.63,22.63,0,0,0-3.4-.231c-2.894,0-4.924.093-6.888.183-1.875.087-3.647.167-6.064.167A6.512,6.512,0,0,1,9.384,28.148ZM1.973,20.763ZM17.595,24.7h-4.9a3.118,3.118,0,0,1-1.568-.442,1.633,1.633,0,0,1-.98-1.407V21.8a1.637,1.637,0,0,1,.98-1.42,3.114,3.114,0,0,1,1.568-.43h4.792c.319-.087.691-.2,1.086-.321a19.361,19.361,0,0,1,5.676-1.08h.1a13.78,13.78,0,0,1,5.737,1.615c.148.067.3.131.439.2a.8.8,0,0,1-.346,1.522.727.727,0,0,1-.3-.061c-.13-.058-.26-.115-.385-.173a12.511,12.511,0,0,0-5.244-1.5,18.288,18.288,0,0,0-5.142,1c-.467.141-.91.276-1.31.378a.842.842,0,0,1-.2.026h-4.9a1.752,1.752,0,0,0-.756.215.726.726,0,0,0-.18.151.053.053,0,0,0-.013.013v.8c.007,0,.01.01.016.013a.82.82,0,0,0,.177.135,1.765,1.765,0,0,0,.756.228h4.913a.8.8,0,1,1,0,1.6Zm-5.869-1.859.007-.01-.025-.006ZM8.467,21.1,3.919,18.651a.8.8,0,0,1,.288-1.51.539.539,0,0,1,.071,0,.81.81,0,0,1,.393.1L9.22,19.69a.833.833,0,0,1,.352,1.093.82.82,0,0,1-.726.417A.765.765,0,0,1,8.467,21.1ZM9.857,19l-3.15-1.75a.819.819,0,0,1-.42-.872.828.828,0,0,1,.737-.638h.048a.815.815,0,0,1,.414.112l3.148,1.75a.794.794,0,0,1-.408,1.49A.765.765,0,0,1,9.857,19Zm3.889-2.7a.832.832,0,0,1-.8-.8V14.106c-.029-.006-.058-.01-.09-.019-.109-.026-.222-.061-.32-.09l-1.37,1.365a.8.8,0,0,1-.567.228.808.808,0,0,1-.57-.228l-2.1-2.1a.828.828,0,0,1,0-1.135l1.31-1.311c0-.006-.01-.013-.013-.019-.024-.035-.054-.074-.08-.119-.038-.08-.067-.16-.1-.237-.013-.032-.022-.064-.035-.093H7.444a.828.828,0,0,1-.8-.8V6.75a.828.828,0,0,1,.8-.8H9.008c.01-.029.022-.055.032-.083.032-.083.067-.17.109-.256a1.321,1.321,0,0,1,.08-.122.072.072,0,0,1,.013-.016L7.932,4.164a.832.832,0,0,1,0-1.138l2.1-2.1a.829.829,0,0,1,1.134,0L12.548,2.3c.1-.032.2-.067.311-.093.031-.006.06-.013.09-.016V.8a.826.826,0,0,1,.724-.8h2.875a.832.832,0,0,1,.8.8V2.192l.1.019c.108.029.211.061.311.093L19.137.926A.8.8,0,0,1,19.7.705a.809.809,0,0,1,.565.221l2.1,2.1a.824.824,0,0,1,0,1.138l-1.3,1.3a.11.11,0,0,1,.017.022.782.782,0,0,1,.077.125,2.081,2.081,0,0,1,.1.24,1.018,1.018,0,0,0,.036.1h1.56a.831.831,0,0,1,.8.8v2.8a.831.831,0,0,1-.8.8H21.284c-.01.029-.022.061-.032.093a2.306,2.306,0,0,1-.1.237.91.91,0,0,1-.077.122.127.127,0,0,1-.017.026l1.3,1.3a.82.82,0,0,1,0,1.135l-2.1,2.1a.809.809,0,0,1-.565.221.8.8,0,0,1-.561-.221l-1.381-1.378c-.018.01-.042.016-.064.026a1.884,1.884,0,0,1-.246.077.54.54,0,0,1-.1.019V15.5a.832.832,0,0,1-.8.8Zm-1-3.955a.522.522,0,0,1,.064.042.231.231,0,0,0,.089.042l.007,0c.08.029.2.064.327.1s.235.048.327.061l.134.013h.046a.837.837,0,0,1,.807.8v1.3h1.2V13.4a.831.831,0,0,1,.8-.8h.063a.684.684,0,0,0,.119-.01c.11-.016.235-.039.341-.064.128-.032.249-.067.33-.1a.789.789,0,0,0,.08-.035.821.821,0,0,1,1.029.08L19.7,13.667l.974-.968-1.186-1.186a.831.831,0,0,1-.029-1.1.684.684,0,0,0,.042-.071c.055-.087.147-.237.221-.381a4.453,4.453,0,0,0,.253-.612.827.827,0,0,1,.777-.6h1.3v-1.2h-1.3a.817.817,0,0,1-.777-.609,4.315,4.315,0,0,0-.253-.6c-.074-.147-.165-.295-.221-.381a.689.689,0,0,0-.042-.071.826.826,0,0,1,.029-1.109L20.672,3.6,19.7,2.625,18.509,3.814a.8.8,0,0,1-.565.221.827.827,0,0,1-.394-.1l-.045-.026a.99.99,0,0,0-.109-.055c-.077-.029-.2-.061-.326-.093l-.093-.019a1.192,1.192,0,0,0-.334-.045.808.808,0,0,1-.657-.244.779.779,0,0,1-.237-.554V1.6h-1.2V2.9a.8.8,0,0,1-.24.554.809.809,0,0,1-.647.244h0a.9.9,0,0,0-.093,0,3.32,3.32,0,0,0-.33.064,2.866,2.866,0,0,0-.327.1.237.237,0,0,0-.06.032l-.017.01a.785.785,0,0,1-.465.147.8.8,0,0,1-.579-.237L10.6,2.625,9.64,3.6l1.179,1.176a.823.823,0,0,1,.022,1.112.379.379,0,0,1-.032.051,4.07,4.07,0,0,0-.234.4,4.227,4.227,0,0,0-.256.6.822.822,0,0,1-.773.612h-1.3v.622c0,.2,0,.388,0,.577h1.3a.824.824,0,0,1,.776.6,4.112,4.112,0,0,0,.49,1.013.354.354,0,0,1,.036.051.831.831,0,0,1-.026,1.1L9.643,12.7l.952.952,1.19-1.176a.809.809,0,0,1,.57-.228A.824.824,0,0,1,12.746,12.347Zm-.85-4.2a3.25,3.25,0,1,1,3.25,3.25A3.254,3.254,0,0,1,11.9,8.151Zm1.6,0A1.65,1.65,0,1,0,15.147,6.5,1.631,1.631,0,0,0,13.5,8.151Z" transform="translate(-0.1 -0.101)" fill="#fff200"/>
    </g>
    <g id="Group_39976" data-name="Group 39976" opacity="0">
      <rect id="Rectangle_18669" data-name="Rectangle 18669" width="35" height="35" fill="#e3e3e3"/>
      <rect id="Rectangle_18672" data-name="Rectangle 18672" width="35" height="35" transform="translate(0 35)" fill="#d5d5d5"/>
      <rect id="Rectangle_18673" data-name="Rectangle 18673" width="35" height="35" transform="translate(0 70)" fill="#c6c6c6"/>
      <rect id="Rectangle_18670" data-name="Rectangle 18670" width="31" height="31" transform="translate(2 2)" fill="#b5b5b5"/>
      <rect id="Rectangle_18682" data-name="Rectangle 18682" width="31" height="31" transform="translate(2 37)" fill="#b5b5b5"/>
      <rect id="Rectangle_18683" data-name="Rectangle 18683" width="31" height="31" transform="translate(2 72)" fill="#b5b5b5"/>
    </g>
    <g id="Group_39954" data-name="Group 39954" transform="translate(2.1 73.101)">
      <path id="Union_36-3" data-name="Union 36" d="M9.384,28.148a27.338,27.338,0,0,1-2.912-1.635c-.72-.455-1.468-.962-2.255-1.494-.9-.612-1.834-1.244-2.808-1.853-.1-.067-.189-.125-.273-.18-.2-.128-.368-.24-.513-.353a1.477,1.477,0,0,1-.558-.689A1.341,1.341,0,0,1,.12,21c.088-.2.174-.359.285-.561l.042-.08a.556.556,0,0,1,.036-.045c.022-.038.045-.074.067-.109a4.477,4.477,0,0,1,.263-.388,1.466,1.466,0,0,1,.657-.5,1.406,1.406,0,0,1,.448-.08l.1,0v0a1.639,1.639,0,0,1,.343.058,4.364,4.364,0,0,1,.907.4c.467.237.949.487,1.455.753,1.327.689,2.7,1.4,4.1,2.022a.8.8,0,0,1-.349,1.522.719.719,0,0,1-.3-.061c-1.166-.519-2.423-1.17-3.756-1.856-.616-.317-1.254-.647-1.9-.968a2.884,2.884,0,0,0-.505-.228c-.032.051-.078.119-.126.192l-.039.061c-.038.074-.07.131-.1.183s-.046.087-.064.122c.092.067.224.154.391.266l.179.119c.791.487,1.587,1.035,2.355,1.564.879.6,1.786,1.228,2.71,1.779A25.546,25.546,0,0,0,10.069,26.7,5.63,5.63,0,0,0,12,27.3c2.365,0,4.122-.08,5.978-.163,1.98-.093,4.032-.186,6.975-.186a25.483,25.483,0,0,1,3.856.263c.25.038.446.064.6.074V23.9a.8.8,0,0,1,1.6,0v3.5a1.583,1.583,0,0,1-1.5,1.49,8.217,8.217,0,0,1-1.154-.109,22.63,22.63,0,0,0-3.4-.231c-2.894,0-4.924.093-6.888.183-1.875.087-3.647.167-6.064.167A6.512,6.512,0,0,1,9.384,28.148ZM1.973,20.763ZM17.595,24.7h-4.9a3.118,3.118,0,0,1-1.568-.442,1.633,1.633,0,0,1-.98-1.407V21.8a1.637,1.637,0,0,1,.98-1.42,3.114,3.114,0,0,1,1.568-.43h4.792c.319-.087.691-.2,1.086-.321a19.361,19.361,0,0,1,5.676-1.08h.1a13.78,13.78,0,0,1,5.737,1.615c.148.067.3.131.439.2a.8.8,0,0,1-.346,1.522.727.727,0,0,1-.3-.061c-.13-.058-.26-.115-.385-.173a12.511,12.511,0,0,0-5.244-1.5,18.288,18.288,0,0,0-5.142,1c-.467.141-.91.276-1.31.378a.842.842,0,0,1-.2.026h-4.9a1.752,1.752,0,0,0-.756.215.726.726,0,0,0-.18.151.053.053,0,0,0-.013.013v.8c.007,0,.01.01.016.013a.82.82,0,0,0,.177.135,1.765,1.765,0,0,0,.756.228h4.913a.8.8,0,1,1,0,1.6Zm-5.869-1.859.007-.01-.025-.006ZM8.467,21.1,3.919,18.651a.8.8,0,0,1,.288-1.51.539.539,0,0,1,.071,0,.81.81,0,0,1,.393.1L9.22,19.69a.833.833,0,0,1,.352,1.093.82.82,0,0,1-.726.417A.765.765,0,0,1,8.467,21.1ZM9.857,19l-3.15-1.75a.819.819,0,0,1-.42-.872.828.828,0,0,1,.737-.638h.048a.815.815,0,0,1,.414.112l3.148,1.75a.794.794,0,0,1-.408,1.49A.765.765,0,0,1,9.857,19Zm3.889-2.7a.832.832,0,0,1-.8-.8V14.106c-.029-.006-.058-.01-.09-.019-.109-.026-.222-.061-.32-.09l-1.37,1.365a.8.8,0,0,1-.567.228.808.808,0,0,1-.57-.228l-2.1-2.1a.828.828,0,0,1,0-1.135l1.31-1.311c0-.006-.01-.013-.013-.019-.024-.035-.054-.074-.08-.119-.038-.08-.067-.16-.1-.237-.013-.032-.022-.064-.035-.093H7.444a.828.828,0,0,1-.8-.8V6.75a.828.828,0,0,1,.8-.8H9.008c.01-.029.022-.055.032-.083.032-.083.067-.17.109-.256a1.321,1.321,0,0,1,.08-.122.072.072,0,0,1,.013-.016L7.932,4.164a.832.832,0,0,1,0-1.138l2.1-2.1a.829.829,0,0,1,1.134,0L12.548,2.3c.1-.032.2-.067.311-.093.031-.006.06-.013.09-.016V.8a.826.826,0,0,1,.724-.8h2.875a.832.832,0,0,1,.8.8V2.192l.1.019c.108.029.211.061.311.093L19.137.926A.8.8,0,0,1,19.7.705a.809.809,0,0,1,.565.221l2.1,2.1a.824.824,0,0,1,0,1.138l-1.3,1.3a.11.11,0,0,1,.017.022.782.782,0,0,1,.077.125,2.081,2.081,0,0,1,.1.24,1.018,1.018,0,0,0,.036.1h1.56a.831.831,0,0,1,.8.8v2.8a.831.831,0,0,1-.8.8H21.284c-.01.029-.022.061-.032.093a2.306,2.306,0,0,1-.1.237.91.91,0,0,1-.077.122.127.127,0,0,1-.017.026l1.3,1.3a.82.82,0,0,1,0,1.135l-2.1,2.1a.809.809,0,0,1-.565.221.8.8,0,0,1-.561-.221l-1.381-1.378c-.018.01-.042.016-.064.026a1.884,1.884,0,0,1-.246.077.54.54,0,0,1-.1.019V15.5a.832.832,0,0,1-.8.8Zm-1-3.955a.522.522,0,0,1,.064.042.231.231,0,0,0,.089.042l.007,0c.08.029.2.064.327.1s.235.048.327.061l.134.013h.046a.837.837,0,0,1,.807.8v1.3h1.2V13.4a.831.831,0,0,1,.8-.8h.063a.684.684,0,0,0,.119-.01c.11-.016.235-.039.341-.064.128-.032.249-.067.33-.1a.789.789,0,0,0,.08-.035.821.821,0,0,1,1.029.08L19.7,13.667l.974-.968-1.186-1.186a.831.831,0,0,1-.029-1.1.684.684,0,0,0,.042-.071c.055-.087.147-.237.221-.381a4.453,4.453,0,0,0,.253-.612.827.827,0,0,1,.777-.6h1.3v-1.2h-1.3a.817.817,0,0,1-.777-.609,4.315,4.315,0,0,0-.253-.6c-.074-.147-.165-.295-.221-.381a.689.689,0,0,0-.042-.071.826.826,0,0,1,.029-1.109L20.672,3.6,19.7,2.625,18.509,3.814a.8.8,0,0,1-.565.221.827.827,0,0,1-.394-.1l-.045-.026a.99.99,0,0,0-.109-.055c-.077-.029-.2-.061-.326-.093l-.093-.019a1.192,1.192,0,0,0-.334-.045.808.808,0,0,1-.657-.244.779.779,0,0,1-.237-.554V1.6h-1.2V2.9a.8.8,0,0,1-.24.554.809.809,0,0,1-.647.244h0a.9.9,0,0,0-.093,0,3.32,3.32,0,0,0-.33.064,2.866,2.866,0,0,0-.327.1.237.237,0,0,0-.06.032l-.017.01a.785.785,0,0,1-.465.147.8.8,0,0,1-.579-.237L10.6,2.625,9.64,3.6l1.179,1.176a.823.823,0,0,1,.022,1.112.379.379,0,0,1-.032.051,4.07,4.07,0,0,0-.234.4,4.227,4.227,0,0,0-.256.6.822.822,0,0,1-.773.612h-1.3v.622c0,.2,0,.388,0,.577h1.3a.824.824,0,0,1,.776.6,4.112,4.112,0,0,0,.49,1.013.354.354,0,0,1,.036.051.831.831,0,0,1-.026,1.1L9.643,12.7l.952.952,1.19-1.176a.809.809,0,0,1,.57-.228A.824.824,0,0,1,12.746,12.347Zm-.85-4.2a3.25,3.25,0,1,1,3.25,3.25A3.254,3.254,0,0,1,11.9,8.151Zm1.6,0A1.65,1.65,0,1,0,15.147,6.5,1.631,1.631,0,0,0,13.5,8.151Z" transform="translate(-0.1 -0.101)" fill="#fff"/>
    </g>
  </g>
</svg>
