<svg xmlns="http://www.w3.org/2000/svg"  viewBox="0 0 22 17.875"><defs><style>.a{fill:#fff;}</style></defs><g transform="translate(0 -3)"><path class="a" d="M20.625,11H19.25v1.375h1.375V22H1.375V12.375H11V11H1.375A1.375,1.375,0,0,0,0,12.375V22a1.375,1.375,0,0,0,1.375,1.375h19.25A1.375,1.375,0,0,0,22,22V12.375A1.375,1.375,0,0,0,20.625,11Z" transform="translate(0 -2.5)"/><path class="a" d="M20.574,16.551a.688.688,0,0,0,.969,0l1.375-1.375a.687.687,0,0,0,.206-.488v-11A.687.687,0,0,0,22.437,3h-2.75A.687.687,0,0,0,19,3.688v11a.688.688,0,0,0,.2.488Zm-.2-8.738H21.75v6.593l-.687.688-.687-.687Z" transform="translate(-5.937)"/><path class="a" d="M7.375,22.375h6.188V21H6A1.375,1.375,0,0,0,7.375,22.375Z" transform="translate(-1.875 -5.625)"/><path class="a" d="M14.125,18.375V17H10a1.375,1.375,0,0,0,1.375,1.375Z" transform="translate(-3.125 -4.375)"/></g></svg>