<svg xmlns="http://www.w3.org/2000/svg" width="47.387" height="47.082" viewBox="0 0 47.387 47.082">
  <g id="service-request" transform="translate(-11 -11.24)">
    <path id="Path_43899" data-name="Path 43899" d="M34.8,26.677l4.708,4.708.881-.881L35.673,25.8c-.182-.182,0-.82,0-.82L32.484,22.23,31.22,23.494l2.752,3.183S34.64,26.525,34.8,26.677Z" transform="translate(-7.936 -4.313)" fill="#007c3d"/>
    <path id="Path_43900" data-name="Path 43900" d="M53.994,41.89l-3.1,3.1,6.75,6.737a1.4,1.4,0,0,0,1.981,0l1.1-1.1a1.4,1.4,0,0,0,0-1.98Z" transform="translate(-15.656 -12.03)" fill="#007c3d"/>
    <path id="Path_43901" data-name="Path 43901" d="M50.628,27.291a1.89,1.89,0,0,1-2.673-2.673l2.959-2.928a5.2,5.2,0,0,0-2.1-.48,5.291,5.291,0,0,0-5.249,5.249,5.2,5.2,0,0,0,.48,2.1l-12.3,12.272A1.89,1.89,0,0,0,34.425,43.5l12.29-12.3a5.2,5.2,0,0,0,2.1.48,5.291,5.291,0,0,0,5.249-5.249,5.2,5.2,0,0,0-.5-2.1Z" transform="translate(-7.928 -3.913)" fill="#007c3d"/>
    <path id="Path_43902" data-name="Path 43902" d="M51.1,11.24H18.29A7.29,7.29,0,0,0,11,18.53V40.4a7.29,7.29,0,0,0,7.29,7.29H29.942l10.17,10.024a2.078,2.078,0,0,0,1.452.608,1.713,1.713,0,0,0,.808-.2,1.567,1.567,0,0,0,.826-1.6L42.967,47.7H51.1a7.29,7.29,0,0,0,7.29-7.29V18.536a7.29,7.29,0,0,0-7.29-7.3ZM55.956,40.4a4.86,4.86,0,0,1-4.86,4.86H41.7a1.215,1.215,0,0,0-1.215,1.245l.219,8.378-9.417-9.271a1.215,1.215,0,0,0-.851-.352H18.29a4.86,4.86,0,0,1-4.86-4.86V18.53a4.86,4.86,0,0,1,4.86-4.86H51.1a4.86,4.86,0,0,1,4.86,4.86Z" transform="translate(0 0)" fill="#007c3d"/>
  </g>
</svg>
