<svg xmlns="http://www.w3.org/2000/svg" width="17.961" height="17.961" viewBox="0 0 17.961 17.961"><defs><style>.a{fill:#fff;}</style></defs><path class="a" d="M9.544,17.961H8.417a1.655,1.655,0,0,1-1.653-1.653v-.381a7.251,7.251,0,0,1-1.126-.467l-.27.27a1.653,1.653,0,0,1-2.339,0l-.8-.8a1.653,1.653,0,0,1,0-2.339l.27-.27A7.252,7.252,0,0,1,2.035,11.2H1.653A1.655,1.655,0,0,1,0,9.544V8.417A1.655,1.655,0,0,1,1.653,6.763h.381A7.253,7.253,0,0,1,2.5,5.637l-.27-.27a1.653,1.653,0,0,1,0-2.339l.8-.8a1.653,1.653,0,0,1,2.339,0l.27.27a7.258,7.258,0,0,1,1.126-.467V1.653A1.655,1.655,0,0,1,8.417,0H9.544A1.655,1.655,0,0,1,11.2,1.653v.381a7.251,7.251,0,0,1,1.126.467l.27-.27a1.653,1.653,0,0,1,2.339,0l.8.8a1.653,1.653,0,0,1,0,2.339l-.27.27a7.251,7.251,0,0,1,.467,1.126h.381a1.655,1.655,0,0,1,1.653,1.653V9.544A1.655,1.655,0,0,1,16.307,11.2h-.381a7.253,7.253,0,0,1-.467,1.126l.27.27a1.653,1.653,0,0,1,0,2.339l-.8.8a1.653,1.653,0,0,1-2.339,0l-.27-.27a7.258,7.258,0,0,1-1.126.467v.381A1.655,1.655,0,0,1,9.544,17.961ZM5.813,14.354a6.2,6.2,0,0,0,1.608.667.526.526,0,0,1,.395.51v.777a.6.6,0,0,0,.6.6H9.544a.6.6,0,0,0,.6-.6v-.777a.526.526,0,0,1,.395-.51,6.2,6.2,0,0,0,1.608-.667.526.526,0,0,1,.64.081l.55.55a.6.6,0,0,0,.85,0l.8-.8a.6.6,0,0,0,0-.85l-.551-.551a.526.526,0,0,1-.081-.64,6.2,6.2,0,0,0,.667-1.608.526.526,0,0,1,.51-.395h.777a.6.6,0,0,0,.6-.6V8.417a.6.6,0,0,0-.6-.6h-.777a.526.526,0,0,1-.51-.395,6.2,6.2,0,0,0-.667-1.608.526.526,0,0,1,.081-.64l.55-.55a.6.6,0,0,0,0-.85l-.8-.8a.6.6,0,0,0-.85,0l-.551.551a.526.526,0,0,1-.64.081A6.2,6.2,0,0,0,10.54,2.94a.526.526,0,0,1-.395-.51V1.653a.6.6,0,0,0-.6-.6H8.417a.6.6,0,0,0-.6.6V2.43a.526.526,0,0,1-.395.51,6.2,6.2,0,0,0-1.608.667.526.526,0,0,1-.64-.081l-.55-.55a.6.6,0,0,0-.85,0l-.8.8a.6.6,0,0,0,0,.85l.551.551a.526.526,0,0,1,.081.64A6.2,6.2,0,0,0,2.94,7.421a.526.526,0,0,1-.51.395H1.653a.6.6,0,0,0-.6.6V9.544a.6.6,0,0,0,.6.6H2.43a.526.526,0,0,1,.51.395,6.2,6.2,0,0,0,.667,1.608.526.526,0,0,1-.081.64l-.55.55a.6.6,0,0,0,0,.85l.8.8a.6.6,0,0,0,.85,0l.551-.551a.529.529,0,0,1,.64-.081Z"/><path class="a" d="M148.508,152.416a3.908,3.908,0,1,1,3.908-3.908A3.912,3.912,0,0,1,148.508,152.416Zm0-6.763a2.856,2.856,0,1,0,2.856,2.856A2.859,2.859,0,0,0,148.508,145.652Z" transform="translate(-139.527 -139.527)"/></svg>