<svg xmlns="http://www.w3.org/2000/svg" width="24" height="24" viewBox="0 0 24 24"><defs><style>.a,.b{fill:#fff;}.a{opacity:0;}</style></defs><g transform="translate(643 1998)"><rect class="a" width="24" height="24" transform="translate(-643 -1998)"/><g transform="translate(-639.707 -1993.884)"><path class="b" d="M16.1,0H3.61a.486.486,0,0,0-.486.486V6.671a5.17,5.17,0,1,0,7.107,3.673H16.1a.486.486,0,0,0,.486-.486V.486A.486.486,0,0,0,16.1,0ZM14.69.972,9.857,4.566,5.024.972ZM5.172,15.619a4.2,4.2,0,1,1,4.2-4.2A4.2,4.2,0,0,1,5.172,15.619ZM15.619,9.371H9.92A5.173,5.173,0,0,0,4.1,6.36V1.493L9.567,5.562a.486.486,0,0,0,.58,0l5.471-4.068Z"/><g transform="translate(3.905 9.371)"><path class="b" d="M122.891,290.9l-1.562-1.562a.486.486,0,1,0-.687.687l1.218,1.218-1.218,1.218a.486.486,0,1,0,.687.687l1.562-1.562a.486.486,0,0,0,0-.687Z" transform="translate(-120.499 -289.2)"/></g></g></g></svg>