<?xml version="1.0" encoding="utf-8"?>
<!-- Generator: Adobe Illustrator 23.0.1, SVG Export Plug-In . SVG Version: 6.00 Build 0)  -->
<svg version="1.1" id="Layer_1" xmlns="http://www.w3.org/2000/svg" xmlns:xlink="http://www.w3.org/1999/xlink" x="0px" y="0px"
	 viewBox="0 0 16 16" style="enable-background:new 0 0 16 16;" xml:space="preserve">
<style type="text/css">
	.st0{fill:#FFFFFF;}
</style>
<g>
	<path class="st0" d="M12.8,5c-1.4,0-2.5-1.1-2.5-2.5s1.1-2.5,2.5-2.5c1.4,0,2.5,1.1,2.5,2.5c0,0,0,0,0,0C15.3,3.9,14.2,5,12.8,5z
		 M12.8,1.1c-0.8,0-1.5,0.7-1.5,1.5C11.3,3.4,12,4,12.8,4c0.8,0,1.5-0.7,1.5-1.5c0,0,0,0,0,0C14.3,1.7,13.6,1.1,12.8,1.1L12.8,1.1z"
		/>
	<path class="st0" d="M12.8,15.9c-1.4,0-2.5-1.1-2.5-2.5s1.1-2.5,2.5-2.5c1.4,0,2.5,1.1,2.5,2.5l0,0C15.3,14.8,14.2,15.9,12.8,15.9z
		 M12.8,12c-0.8,0-1.5,0.7-1.5,1.5c0,0.8,0.7,1.5,1.5,1.5c0.8,0,1.5-0.7,1.5-1.5c0,0,0,0,0,0C14.3,12.6,13.6,12,12.8,12L12.8,12z"/>
	<path class="st0" d="M3.2,10.5c-1.4,0-2.5-1.1-2.5-2.5c0-1.4,1.1-2.5,2.5-2.5S5.7,6.6,5.7,8l0,0C5.7,9.4,4.6,10.5,3.2,10.5z
		 M3.2,6.5C2.4,6.5,1.7,7.2,1.7,8c0,0.8,0.7,1.5,1.5,1.5C4,9.5,4.7,8.8,4.7,8C4.7,7.2,4,6.5,3.2,6.5L3.2,6.5z"/>
	<path class="st0" d="M4.9,7.5C4.7,7.5,4.4,7.3,4.4,7c0-0.2,0.1-0.3,0.3-0.4l6.1-3.5C11,3,11.4,3.1,11.5,3.3
		c0.1,0.2,0.1,0.5-0.2,0.7L5.2,7.5C5.1,7.5,5,7.5,4.9,7.5L4.9,7.5z"/>
	<path class="st0" d="M11.1,13c-0.1,0-0.2,0-0.2-0.1L4.7,9.4C4.5,9.3,4.4,9,4.5,8.7c0.1-0.2,0.4-0.3,0.7-0.2l6.1,3.5
		c0.2,0.1,0.3,0.4,0.2,0.7C11.4,12.9,11.2,13,11.1,13L11.1,13z"/>
</g>
</svg>
