<svg xmlns="http://www.w3.org/2000/svg" width="29.803" height="28.261" viewBox="0 0 29.803 28.261">
  <g id="_16" data-name="16" transform="translate(-3 -3.999)">
    <path id="Path_25567" data-name="Path 25567" d="M32.206,28a.514.514,0,0,0-.514.514V41.36A1.542,1.542,0,0,1,30.15,42.9H8.569A1.542,1.542,0,0,1,7.028,41.36V28.514a.514.514,0,0,0-1.028,0V41.36a2.569,2.569,0,0,0,2.569,2.569H30.15a2.569,2.569,0,0,0,2.569-2.569V28.514A.514.514,0,0,0,32.206,28Z" transform="translate(-1.458 -11.668)" fill="#007c3d"/>
    <path id="Path_25568" data-name="Path 25568" d="M30.716,4.344A.514.514,0,0,0,30.233,4H5.055a.514.514,0,0,0-.514.385C4.3,5.387,3,10.428,3,11.193a4.111,4.111,0,0,0,7.708,1.989,4.111,4.111,0,0,0,7.194,0,4.111,4.111,0,0,0,7.194,0A4.111,4.111,0,0,0,32.8,11.193,56.76,56.76,0,0,0,30.716,4.344Zm-.848.683c.118.339.236.683.349,1.028H5.194l.257-1.028Zm-1.177,9.249a3.083,3.083,0,0,1-3.083-3.083.514.514,0,1,0-1.028,0,3.083,3.083,0,0,1-6.166,0,.514.514,0,1,0-1.028,0,3.083,3.083,0,1,1-6.166,0,.514.514,0,1,0-1.028,0,3.083,3.083,0,0,1-6.166,0c0-.324.432-2.184.909-4.111H30.562a33.96,33.96,0,0,1,1.213,4.111,3.083,3.083,0,0,1-3.083,3.083Z" transform="translate(0 0)" fill="#007c3d"/>
    <path id="Path_25569" data-name="Path 25569" d="M13.514,28a.514.514,0,0,0-.514.514v6.68a2.569,2.569,0,0,0,2.569,2.569H29.957a2.569,2.569,0,0,0,2.569-2.569v-6.68a.514.514,0,0,0-1.028,0v6.68a1.542,1.542,0,0,1-1.542,1.542H15.569a1.542,1.542,0,0,1-1.542-1.542v-6.68A.514.514,0,0,0,13.514,28Z" transform="translate(-4.862 -11.668)" fill="#007c3d"/>
  </g>
</svg>
