<svg xmlns="http://www.w3.org/2000/svg" width="15.948" height="19.27" viewBox="0 0 15.948 19.27"><defs><style>.a{fill:red;}</style></defs><path class="a" d="M7.974,110.88A7.975,7.975,0,0,1,5.859,95.215.665.665,0,0,1,6.21,96.5a6.645,6.645,0,1,0,3.671.041.664.664,0,1,1,.381-1.273A7.975,7.975,0,0,1,7.974,110.88Zm0,0" transform="translate(0 -91.609)"/><path class="a" d="M194.871,8.639a.664.664,0,0,1-.665-.664V.665a.664.664,0,1,1,1.329,0V7.974A.664.664,0,0,1,194.871,8.639Zm0,0" transform="translate(-186.897 0)"/></svg>