<svg xmlns="http://www.w3.org/2000/svg" width="36" height="36" viewBox="0 0 36 36"><defs><style>.a{fill:#fff;}</style></defs><g transform="translate(0 -2)"><g transform="translate(0 2)"><path class="a" d="M14.555,181.406A1.406,1.406,0,0,0,13.148,180H7.523a1.406,1.406,0,0,0-1.406,1.406v2.523H0v2.813H6.117v2.4a1.406,1.406,0,0,0,1.406,1.406h5.625a1.406,1.406,0,0,0,1.406-1.406v-2.4H36v-2.812H14.555Zm-2.813,6.328H8.93v-4.922h2.813Z" transform="translate(0 -167.344)"/><path class="a" d="M30.3,363.406A1.406,1.406,0,0,0,28.9,362H23.273a1.406,1.406,0,0,0-1.406,1.406v2.461H0v2.813H21.867v2.461a1.406,1.406,0,0,0,1.406,1.406H28.9a1.406,1.406,0,0,0,1.406-1.406V368.68H36v-2.812H30.3Zm-2.812,6.328H24.68v-4.922h2.813Z" transform="translate(0 -336.547)"/><path class="a" d="M30.445,3.938V1.406A1.406,1.406,0,0,0,29.039,0H23.414a1.406,1.406,0,0,0-1.406,1.406V3.938H0V6.75H22.008V9.141a1.406,1.406,0,0,0,1.406,1.406h5.625a1.406,1.406,0,0,0,1.406-1.406V6.75H36V3.938Zm-2.812,3.8H24.82V2.813h2.813Z"/></g></g></svg>