<svg xmlns="http://www.w3.org/2000/svg" width="32" height="32" viewBox="0 0 32 32">
  <g id="Group_40234" data-name="Group 40234" transform="translate(-283 -652)">
    <g id="Group_40232" data-name="Group 40232" transform="translate(79)" opacity="0">
      <rect id="Rectangle_18711" data-name="Rectangle 18711" width="32" height="32" transform="translate(204 652)" fill="#fff"/>
    </g>
    <g id="noun_health_insurance_732907" data-name="noun_health insurance_732907" transform="translate(276 649)">
      <g id="Group_40227" data-name="Group 40227" transform="translate(12 6)">
        <g id="Group_40226" data-name="Group 40226">
          <path id="Path_44101" data-name="Path 44101" d="M32.462,12a5.209,5.209,0,0,1-5.385-5A1.041,1.041,0,0,0,26,6H19.538a1.041,1.041,0,0,0-1.077,1,5.209,5.209,0,0,1-5.385,5A1.041,1.041,0,0,0,12,13v6c0,5.966,9.726,12.536,10.14,12.812a1.145,1.145,0,0,0,1.258,0c.415-.276,10.14-6.845,10.14-12.812V13A1.041,1.041,0,0,0,32.462,12Zm-1.077,7c0,3.8-5.729,8.687-8.615,10.752C19.881,27.688,14.154,22.808,14.154,19V13.929A7.3,7.3,0,0,0,20.538,8H25a7.3,7.3,0,0,0,6.385,5.929Z" transform="translate(-12 -6)" fill="#007c3d" stroke="#fff" stroke-width="0.5"/>
          <path id="Path_44102" data-name="Path 44102" d="M31.538,27H29.385V25a1.08,1.08,0,0,0-2.154,0v2H25.077a1,1,0,1,0,0,2h2.154v2a1.08,1.08,0,0,0,2.154,0V29h2.154a1,1,0,1,0,0-2Z" transform="translate(-17.538 -15)" fill="#007c3d" stroke="#fff" stroke-width="0.5"/>
        </g>
      </g>
    </g>
  </g>
</svg>
