<svg xmlns="http://www.w3.org/2000/svg" xmlns:xlink="http://www.w3.org/1999/xlink" width="35" height="105" viewBox="0 0 35 105">
  <defs>
    <clipPath id="clip-Standing_Instructions">
      <rect width="35" height="105"/>
    </clipPath>
  </defs>
  <g id="Standing_Instructions" data-name="Standing Instructions" clip-path="url(#clip-Standing_Instructions)">
    <g id="Group_39981" data-name="Group 39981" opacity="0">
      <rect id="Rectangle_18669" data-name="Rectangle 18669" width="35" height="35" fill="#e3e3e3"/>
      <rect id="Rectangle_18672" data-name="Rectangle 18672" width="35" height="35" transform="translate(0 35)" fill="#d5d5d5"/>
      <rect id="Rectangle_18673" data-name="Rectangle 18673" width="35" height="35" transform="translate(0 70)" fill="#c6c6c6"/>
      <rect id="Rectangle_18670" data-name="Rectangle 18670" width="31" height="31" transform="translate(2 2)" fill="#b5b5b5"/>
      <rect id="Rectangle_18682" data-name="Rectangle 18682" width="31" height="31" transform="translate(2 37)" fill="#b5b5b5"/>
      <rect id="Rectangle_18683" data-name="Rectangle 18683" width="31" height="31" transform="translate(2 72)" fill="#b5b5b5"/>
    </g>
    <g id="noun_Download_Calendar_652052" data-name="noun_Download Calendar_652052" transform="translate(2 2)">
      <g id="Group_39965" data-name="Group 39965" transform="translate(0 0)">
        <path id="Path_43919" data-name="Path 43919" d="M16.351,23.844H3.307A1.554,1.554,0,0,1,1.76,22.3V6.7A1.554,1.554,0,0,1,3.307,5.157H6.7V6.371a.88.88,0,1,0,1.76,0V5.157h8.16V6.371a.88.88,0,0,0,1.76,0V5.157h3.4A1.554,1.554,0,0,1,23.329,6.7v9.89a8.571,8.571,0,0,1,.88-.061,8.571,8.571,0,0,1,.88.061V6.7A3.314,3.314,0,0,0,21.781,3.4H18.414V.88a.88.88,0,1,0-1.76,0V3.4H8.464V.88A.88.88,0,1,0,6.7.88V3.4h-3.4A3.314,3.314,0,0,0,0,6.7V22.3A3.314,3.314,0,0,0,3.307,25.6H16.412a7.1,7.1,0,0,1-.091-1.153A3.868,3.868,0,0,1,16.351,23.844Z" transform="translate(0 0)" fill="#007c3d"/>
        <path id="Path_43920" data-name="Path 43920" d="M16.726,64.2H13.48a.88.88,0,1,0,0,1.76h3.246a.88.88,0,0,0,0-1.76Z" transform="translate(-8.778 -44.724)" fill="#007c3d"/>
        <path id="Path_43921" data-name="Path 43921" d="M16.726,50.7H13.48a.88.88,0,1,0,0,1.76h3.246a.88.88,0,0,0,0-1.76Z" transform="translate(-8.778 -35.319)" fill="#007c3d"/>
        <path id="Path_43922" data-name="Path 43922" d="M37.256,37.2H33.98a.88.88,0,1,0,0,1.76h3.246a.88.88,0,0,0,.88-.88A.855.855,0,0,0,37.256,37.2Z" transform="translate(-29.277 -25.915)" fill="#007c3d"/>
        <path id="Path_43923" data-name="Path 43923" d="M37.256,64.2H33.98a.88.88,0,1,0,0,1.76h3.246a.88.88,0,0,0,.88-.88A.855.855,0,0,0,37.256,64.2Z" transform="translate(-23.059 -44.724)" fill="#007c3d"/>
        <path id="Path_43924" data-name="Path 43924" d="M37.256,50.7H33.98a.88.88,0,1,0,0,1.76h3.246a.88.88,0,0,0,.88-.88A.855.855,0,0,0,37.256,50.7Z" transform="translate(-23.059 -35.319)" fill="#007c3d"/>
        <path id="Path_43925" data-name="Path 43925" d="M57.826,37.2H54.58a.88.88,0,1,0,0,1.76h3.246a.88.88,0,1,0,0-1.76Z" transform="translate(-43.659 -25.915)" fill="#007c3d"/>
        <path id="Path_43926" data-name="Path 43926" d="M57.826,50.7H54.58a.88.88,0,1,0,0,1.76h3.246a.88.88,0,0,0,0-1.76Z" transform="translate(-37.409 -35.319)" fill="#007c3d"/>
        <path id="Path_43928" data-name="Path 43928" d="M57.826,50.7H54.58a.88.88,0,1,0,0,1.76h3.246a.88.88,0,0,0,0-1.76Z" transform="translate(-37.409 -39.415)" fill="#007c3d"/>
        <path id="Path_43927" data-name="Path 43927" d="M66.149,60.3A6.549,6.549,0,1,0,72.7,66.849,6.554,6.554,0,0,0,66.149,60.3Zm0,11.227a4.678,4.678,0,1,1,4.678-4.678A4.681,4.681,0,0,1,66.149,71.527Z" transform="translate(-41.91 -42.398)" fill="#007c3d"/>
        <path id="Union_40" data-name="Union 40" d="M2.727,6.665c-.08,0-.08,0-.283-.269q-.155-.2-.46-.615C1.578,5.236.962,4.407.154,3.319L.121,3.274V3.036H.534c.819,0,1.3-.284,1.46-.87C2,2.15,2,2.135,2,2.121H.193A.192.192,0,0,1,0,1.922l0-.408a.193.193,0,0,1,.192-.179H1.919A.982.982,0,0,0,1.642,1,1.593,1.593,0,0,0,.908.785H.193A.192.192,0,0,1,0,.586L0,.178A.192.192,0,0,1,.193,0h3.95a.2.2,0,0,1,.173.2V.586a.191.191,0,0,1-.192.2h-1.1a1.844,1.844,0,0,1,.262.539l0,.011.853,0a.194.194,0,0,1,.173.2v.387a.192.192,0,0,1-.192.2H3.337a1.965,1.965,0,0,1-.819,1.228L2.5,3.362a3.8,3.8,0,0,1-.8.384L3.69,6.409v.255Z" transform="translate(21.889 21.394)" fill="#007c3d"/>
      </g>
    </g>
    <g id="noun_Download_Calendar_652052-2" data-name="noun_Download Calendar_652052" transform="translate(2 72)">
      <g id="Group_39965-2" data-name="Group 39965" transform="translate(0 0)">
        <path id="Path_43919-2" data-name="Path 43919" d="M16.351,23.844H3.307A1.554,1.554,0,0,1,1.76,22.3V6.7A1.554,1.554,0,0,1,3.307,5.157H6.7V6.371a.88.88,0,1,0,1.76,0V5.157h8.16V6.371a.88.88,0,0,0,1.76,0V5.157h3.4A1.554,1.554,0,0,1,23.329,6.7v9.89a8.571,8.571,0,0,1,.88-.061,8.571,8.571,0,0,1,.88.061V6.7A3.314,3.314,0,0,0,21.781,3.4H18.414V.88a.88.88,0,1,0-1.76,0V3.4H8.464V.88A.88.88,0,1,0,6.7.88V3.4h-3.4A3.314,3.314,0,0,0,0,6.7V22.3A3.314,3.314,0,0,0,3.307,25.6H16.412a7.1,7.1,0,0,1-.091-1.153A3.868,3.868,0,0,1,16.351,23.844Z" transform="translate(0 0)" fill="#fff"/>
        <path id="Path_43920-2" data-name="Path 43920" d="M16.726,64.2H13.48a.88.88,0,1,0,0,1.76h3.246a.88.88,0,0,0,0-1.76Z" transform="translate(-8.778 -44.724)" fill="#fff"/>
        <path id="Path_43921-2" data-name="Path 43921" d="M16.726,50.7H13.48a.88.88,0,1,0,0,1.76h3.246a.88.88,0,0,0,0-1.76Z" transform="translate(-8.778 -35.319)" fill="#fff"/>
        <path id="Path_43922-2" data-name="Path 43922" d="M37.256,37.2H33.98a.88.88,0,1,0,0,1.76h3.246a.88.88,0,0,0,.88-.88A.855.855,0,0,0,37.256,37.2Z" transform="translate(-29.277 -25.915)" fill="#fff"/>
        <path id="Path_43923-2" data-name="Path 43923" d="M37.256,64.2H33.98a.88.88,0,1,0,0,1.76h3.246a.88.88,0,0,0,.88-.88A.855.855,0,0,0,37.256,64.2Z" transform="translate(-23.059 -44.724)" fill="#fff"/>
        <path id="Path_43924-2" data-name="Path 43924" d="M37.256,50.7H33.98a.88.88,0,1,0,0,1.76h3.246a.88.88,0,0,0,.88-.88A.855.855,0,0,0,37.256,50.7Z" transform="translate(-23.059 -35.319)" fill="#fff"/>
        <path id="Path_43925-2" data-name="Path 43925" d="M57.826,37.2H54.58a.88.88,0,1,0,0,1.76h3.246a.88.88,0,1,0,0-1.76Z" transform="translate(-43.659 -25.915)" fill="#fff"/>
        <path id="Path_43926-2" data-name="Path 43926" d="M57.826,50.7H54.58a.88.88,0,1,0,0,1.76h3.246a.88.88,0,0,0,0-1.76Z" transform="translate(-37.409 -35.319)" fill="#fff"/>
        <path id="Path_43928-2" data-name="Path 43928" d="M57.826,50.7H54.58a.88.88,0,1,0,0,1.76h3.246a.88.88,0,0,0,0-1.76Z" transform="translate(-37.409 -39.415)" fill="#fff"/>
        <path id="Path_43927-2" data-name="Path 43927" d="M66.149,60.3A6.549,6.549,0,1,0,72.7,66.849,6.554,6.554,0,0,0,66.149,60.3Zm0,11.227a4.678,4.678,0,1,1,4.678-4.678A4.681,4.681,0,0,1,66.149,71.527Z" transform="translate(-41.91 -42.398)" fill="#fff"/>
        <path id="Union_40-2" data-name="Union 40" d="M2.727,6.665c-.08,0-.08,0-.283-.269q-.155-.2-.46-.615C1.578,5.236.962,4.407.154,3.319L.121,3.274V3.036H.534c.819,0,1.3-.284,1.46-.87C2,2.15,2,2.135,2,2.121H.193A.192.192,0,0,1,0,1.922l0-.408a.193.193,0,0,1,.192-.179H1.919A.982.982,0,0,0,1.642,1,1.593,1.593,0,0,0,.908.785H.193A.192.192,0,0,1,0,.586L0,.178A.192.192,0,0,1,.193,0h3.95a.2.2,0,0,1,.173.2V.586a.191.191,0,0,1-.192.2h-1.1a1.844,1.844,0,0,1,.262.539l0,.011.853,0a.194.194,0,0,1,.173.2v.387a.192.192,0,0,1-.192.2H3.337a1.965,1.965,0,0,1-.819,1.228L2.5,3.362a3.8,3.8,0,0,1-.8.384L3.69,6.409v.255Z" transform="translate(21.889 21.394)" fill="#fff"/>
      </g>
    </g>
    <g id="noun_Download_Calendar_652052-3" data-name="noun_Download Calendar_652052" transform="translate(2 37)">
      <g id="Group_39965-3" data-name="Group 39965" transform="translate(0 0)">
        <path id="Path_43919-3" data-name="Path 43919" d="M16.351,23.844H3.307A1.554,1.554,0,0,1,1.76,22.3V6.7A1.554,1.554,0,0,1,3.307,5.157H6.7V6.371a.88.88,0,1,0,1.76,0V5.157h8.16V6.371a.88.88,0,0,0,1.76,0V5.157h3.4A1.554,1.554,0,0,1,23.329,6.7v9.89a8.571,8.571,0,0,1,.88-.061,8.571,8.571,0,0,1,.88.061V6.7A3.314,3.314,0,0,0,21.781,3.4H18.414V.88a.88.88,0,1,0-1.76,0V3.4H8.464V.88A.88.88,0,1,0,6.7.88V3.4h-3.4A3.314,3.314,0,0,0,0,6.7V22.3A3.314,3.314,0,0,0,3.307,25.6H16.412a7.1,7.1,0,0,1-.091-1.153A3.868,3.868,0,0,1,16.351,23.844Z" transform="translate(0 0)" fill="#fff200"/>
        <path id="Path_43920-3" data-name="Path 43920" d="M16.726,64.2H13.48a.88.88,0,1,0,0,1.76h3.246a.88.88,0,0,0,0-1.76Z" transform="translate(-8.778 -44.724)" fill="#fff200"/>
        <path id="Path_43921-3" data-name="Path 43921" d="M16.726,50.7H13.48a.88.88,0,1,0,0,1.76h3.246a.88.88,0,0,0,0-1.76Z" transform="translate(-8.778 -35.319)" fill="#fff200"/>
        <path id="Path_43922-3" data-name="Path 43922" d="M37.256,37.2H33.98a.88.88,0,1,0,0,1.76h3.246a.88.88,0,0,0,.88-.88A.855.855,0,0,0,37.256,37.2Z" transform="translate(-29.277 -25.915)" fill="#fff200"/>
        <path id="Path_43923-3" data-name="Path 43923" d="M37.256,64.2H33.98a.88.88,0,1,0,0,1.76h3.246a.88.88,0,0,0,.88-.88A.855.855,0,0,0,37.256,64.2Z" transform="translate(-23.059 -44.724)" fill="#fff200"/>
        <path id="Path_43924-3" data-name="Path 43924" d="M37.256,50.7H33.98a.88.88,0,1,0,0,1.76h3.246a.88.88,0,0,0,.88-.88A.855.855,0,0,0,37.256,50.7Z" transform="translate(-23.059 -35.319)" fill="#fff200"/>
        <path id="Path_43925-3" data-name="Path 43925" d="M57.826,37.2H54.58a.88.88,0,1,0,0,1.76h3.246a.88.88,0,1,0,0-1.76Z" transform="translate(-43.659 -25.915)" fill="#fff200"/>
        <path id="Path_43926-3" data-name="Path 43926" d="M57.826,50.7H54.58a.88.88,0,1,0,0,1.76h3.246a.88.88,0,0,0,0-1.76Z" transform="translate(-37.409 -35.319)" fill="#fff200"/>
        <path id="Path_43928-3" data-name="Path 43928" d="M57.826,50.7H54.58a.88.88,0,1,0,0,1.76h3.246a.88.88,0,0,0,0-1.76Z" transform="translate(-37.409 -39.415)" fill="#fff200"/>
        <path id="Path_43927-3" data-name="Path 43927" d="M66.149,60.3A6.549,6.549,0,1,0,72.7,66.849,6.554,6.554,0,0,0,66.149,60.3Zm0,11.227a4.678,4.678,0,1,1,4.678-4.678A4.681,4.681,0,0,1,66.149,71.527Z" transform="translate(-41.91 -42.398)" fill="#fff200"/>
        <path id="Union_40-3" data-name="Union 40" d="M2.727,6.665c-.08,0-.08,0-.283-.269q-.155-.2-.46-.615C1.578,5.236.962,4.407.154,3.319L.121,3.274V3.036H.534c.819,0,1.3-.284,1.46-.87C2,2.15,2,2.135,2,2.121H.193A.192.192,0,0,1,0,1.922l0-.408a.193.193,0,0,1,.192-.179H1.919A.982.982,0,0,0,1.642,1,1.593,1.593,0,0,0,.908.785H.193A.192.192,0,0,1,0,.586L0,.178A.192.192,0,0,1,.193,0h3.95a.2.2,0,0,1,.173.2V.586a.191.191,0,0,1-.192.2h-1.1a1.844,1.844,0,0,1,.262.539l0,.011.853,0a.194.194,0,0,1,.173.2v.387a.192.192,0,0,1-.192.2H3.337a1.965,1.965,0,0,1-.819,1.228L2.5,3.362a3.8,3.8,0,0,1-.8.384L3.69,6.409v.255Z" transform="translate(21.889 21.394)" fill="#fff200"/>
      </g>
    </g>
  </g>
</svg>
