<?xml version="1.0" encoding="utf-8"?>
<!-- Generator: Adobe Illustrator 23.0.1, SVG Export Plug-In . SVG Version: 6.00 Build 0)  -->
<svg version="1.1" id="Layer_1" xmlns:svgjs="http://svgjs.com/svgjs"
	 xmlns="http://www.w3.org/2000/svg" xmlns:xlink="http://www.w3.org/1999/xlink" x="0px" y="0px" viewBox="0 0 512 512"
	 style="enable-background:new 0 0 512 512;" xml:space="preserve">
<style type="text/css">
	.st0{fill:#E0A90E;}
</style>
<g>
	<g>
		<g>
			<path class="st0" d="M494.8,172.5c-7.2-6.3-16-10.4-25.5-11.8l-116.7-17L300.3,38.1c-4.3-8.6-10.9-15.8-19.1-20.7
				c-7.6-4.5-16.4-6.9-25.3-6.9s-17.6,2.4-25.3,6.9c-8.2,4.9-14.8,12-19.1,20.7l-52.2,105.8l-116.7,17c-9.5,1.4-18.4,5.5-25.5,11.8
				c-6.7,5.9-11.6,13.4-14.4,21.9c-2.8,8.5-3.2,17.5-1.2,26.2c2.1,9.3,6.8,17.8,13.7,24.5l84.5,82.3L79.9,443.7
				c-2.5,14.4,1.5,29,10.9,40.2c9.5,11.2,23.2,17.6,37.8,17.6c7.9,0,15.9-2,23-5.7L256,440.9l104.4,54.9c7.1,3.7,15.1,5.7,23,5.7
				c14.6,0,28.4-6.4,37.8-17.6c9.4-11.1,13.3-25.8,10.9-40.2l-19.9-116.2l84.5-82.3c6.9-6.7,11.7-15.2,13.7-24.5
				c1.9-8.6,1.5-17.7-1.2-26.2C506.4,186,501.4,178.4,494.8,172.5z M471.2,219l-93.3,90.9c-3.1,3-4.5,7.3-3.7,11.5l22,128.4
				c1.4,8.4-5.2,15.2-12.8,15.2c-2,0-4.1-0.5-6.1-1.5l-115.3-60.6c-1.9-1-4-1.5-6.1-1.5c-2.1,0-4.2,0.5-6.1,1.5l-115.3,60.6
				c-2,1-4.1,1.5-6.1,1.5c-7.6,0-14.3-6.8-12.8-15.2l22-128.4c0.7-4.2-0.7-8.5-3.7-11.5L40.8,219c-7.7-7.5-3.5-20.6,7.2-22.2
				l128.9-18.7c4.2-0.6,7.9-3.3,9.8-7.1l57.6-116.8c2.4-4.8,7-7.3,11.7-7.3c4.6,0,9.3,2.4,11.7,7.3L325.3,171
				c1.9,3.8,5.6,6.5,9.8,7.1L464,196.8C474.7,198.4,478.9,211.5,471.2,219z"/>
			<path class="st0" d="M383.4,501.9c-8,0-16-2-23.2-5.8L256,441.4l-104.2,54.8c-7.2,3.8-15.2,5.8-23.2,5.8
				c-14.7,0-28.6-6.5-38.2-17.8c-9.5-11.2-13.5-26-11-40.5l19.9-116l-84.3-82.2c-7-6.8-11.8-15.3-13.9-24.7
				c-2-8.7-1.5-17.8,1.2-26.4c2.8-8.5,7.8-16.2,14.5-22.1c7.2-6.4,16.1-10.5,25.8-11.9l116.5-16.9l52.1-105.6
				c4.3-8.7,11-15.9,19.2-20.8c7.7-4.6,16.5-7,25.5-7c9,0,17.8,2.4,25.5,7c8.3,4.9,14.9,12.1,19.2,20.8l52.1,105.6l116.5,16.9
				c9.6,1.4,18.5,5.5,25.8,11.9c6.7,5.9,11.7,13.5,14.5,22.1c2.8,8.5,3.2,17.7,1.2,26.4c-2.1,9.4-6.9,18-13.9,24.7l-84.3,82.2
				l19.9,116c2.5,14.5-1.5,29.3-11,40.5C412,495.4,398.1,501.9,383.4,501.9z M256,440.4l0.2,0.1l104.4,54.9c7,3.7,14.9,5.7,22.8,5.7
				c14.5,0,28.1-6.4,37.5-17.5c9.3-11,13.2-25.6,10.8-39.8l-20-116.5l84.6-82.5c6.8-6.7,11.6-15.1,13.6-24.3
				c1.9-8.6,1.5-17.5-1.2-25.9c-2.7-8.4-7.7-15.9-14.3-21.7c-7.1-6.3-15.9-10.3-25.3-11.7l-116.9-17l-0.1-0.2L300,38.3
				c-4.2-8.6-10.8-15.6-18.9-20.5c-7.6-4.5-16.2-6.8-25-6.8s-17.5,2.4-25,6.8c-8.1,4.8-14.7,11.9-18.9,20.5l-52.3,106l-0.2,0
				l-116.7,17c-9.5,1.4-18.2,5.4-25.3,11.7c-6.6,5.8-11.5,13.3-14.3,21.7C0.5,203,0.1,211.9,2,220.5c2.1,9.2,6.8,17.6,13.6,24.3
				l84.6,82.5l0,0.2L80.3,443.7c-2.4,14.3,1.5,28.8,10.8,39.8c9.4,11.1,23,17.5,37.5,17.5c7.9,0,15.8-2,22.8-5.7L256,440.4z
				 M383.4,465.5c-2.2,0-4.3-0.5-6.3-1.6l-115.3-60.6c-3.6-1.9-8.1-1.9-11.7,0l-115.3,60.6c-2,1-4.1,1.6-6.3,1.6
				c-4,0-7.7-1.8-10.3-4.8c-2.6-3-3.6-6.9-2.9-10.9l22-128.4c0.7-4.1-0.7-8.2-3.6-11.1l-93.3-90.9c-3.7-3.6-5-8.9-3.4-13.8
				c1.6-4.9,5.7-8.4,10.8-9.1l128.9-18.7c4.1-0.6,7.6-3.2,9.5-6.9L244,54c2.3-4.6,6.9-7.5,12-7.5c5.2,0,9.8,2.9,12,7.5l57.6,116.8
				c1.8,3.7,5.4,6.3,9.5,6.9l128.9,18.7c5.1,0.7,9.3,4.2,10.8,9.1c1.6,4.9,0.3,10.2-3.4,13.8l-93.3,90.9c-3,2.9-4.3,7.1-3.6,11.1
				l22,128.4c0.7,4-0.4,7.8-2.9,10.9C391.1,463.7,387.4,465.5,383.4,465.5z"/>
		</g>
	</g>
</g>
</svg>
