<svg xmlns="http://www.w3.org/2000/svg" width="30" height="30" viewBox="0 0 30 30"><defs><style>.a{fill:#fff200;opacity:0;}.b{fill:#ffb70d;}</style></defs><g transform="translate(643 1998)"><path class="a" d="M0,0H30V30H0Z" transform="translate(-643 -1998)"/><path class="b" d="M21.219,10.579a1.587,1.587,0,0,0,.393-1.614,1.56,1.56,0,0,0-1.256-1.071L15.1,7.121a.692.692,0,0,1-.517-.381l-2.35-4.816a1.547,1.547,0,0,0-2.79,0L7.1,6.741a.692.692,0,0,1-.517.381l-5.253.772A1.561,1.561,0,0,0,.075,8.968a1.587,1.587,0,0,0,.4,1.611l3.8,3.748a.7.7,0,0,1,.2.616l-.9,5.293a1.583,1.583,0,0,0,.619,1.539,1.54,1.54,0,0,0,1.638.12l4.7-2.5a.684.684,0,0,1,.639,0l4.7,2.5a1.54,1.54,0,0,0,1.638-.12,1.583,1.583,0,0,0,.619-1.539l-.9-5.293a.7.7,0,0,1,.2-.616Z" transform="translate(-638.949 -1994.392)"/></g></svg>