<svg xmlns="http://www.w3.org/2000/svg" width="55" height="33" viewBox="0 0 55 33"><defs><style>.a{fill:#5b7fad;}.b{fill:#f2f2f2;}.c{fill:#444;}.d{fill:#fff;stroke:#707070;}.e,.f{fill:#ad1c29;}.e{opacity:0.3;}.g{stroke:none;}.h{fill:none;}</style></defs><path class="a" d="M11.429,312.221H51.714v-2.111H14v-.264c0-1.02-1.343-1.847-3-1.847s-3,.827-3,1.847v.264C8,311.276,9.535,312.221,11.429,312.221Z" transform="translate(-7.143 -283.078)"/><path class="b" d="M96,180h36.857v13.714H96Z" transform="translate(-85.714 -171.429)"/><path class="c" d="M50.571,104.286H7.714v-.429a3.857,3.857,0,0,0-7.714,0v21.857A4.291,4.291,0,0,0,4.286,130H44.571a.857.857,0,0,0,.857-.857v-2.571h5.143a.857.857,0,0,0,.857-.857V105.143A.857.857,0,0,0,50.571,104.286ZM3.857,101.714A2.143,2.143,0,0,1,6,103.857v18.235a3.817,3.817,0,0,0-4.286-.01V103.857a2.143,2.143,0,0,1,2.143-2.143Zm39.857,26.571H4.286a2.571,2.571,0,0,1-2.571-2.571v-.429a2.143,2.143,0,0,1,4.286,0v.429a.857.857,0,0,0,.857.857H43.714Zm6-3.429h-42V106h42Z" transform="translate(0 -100)"/><path class="c" d="M120,204h6v1.714h-6Z" transform="translate(-110.143 -192.857)"/><path class="c" d="M120,236h18.857v1.714H120Z" transform="translate(-110.143 -219.429)"/><path class="c" d="M312,236h10.286v1.714H312Z" transform="translate(-278.571 -219.429)"/><g class="d" transform="translate(35.678 14)"><circle class="g" cx="9" cy="9" r="9"/><circle class="h" cx="9" cy="9" r="8.5"/></g><g transform="translate(35 13)"><circle class="e" cx="6" cy="6" r="6" transform="translate(5.678 5)"/><path class="f" d="M10,0A10,10,0,1,0,20,10,10.011,10.011,0,0,0,10,0Zm0,17.5A7.509,7.509,0,0,1,2.5,10,7.4,7.4,0,0,1,3.888,5.656L14.344,16.112A7.4,7.4,0,0,1,10,17.5Zm6.112-3.156L5.656,3.888A7.4,7.4,0,0,1,10,2.5,7.509,7.509,0,0,1,17.5,10,7.4,7.4,0,0,1,16.112,14.344Z"/></g></svg>