<svg xmlns="http://www.w3.org/2000/svg" xmlns:xlink="http://www.w3.org/1999/xlink" width="126.715" height="119.85" viewBox="0 0 126.715 119.85"><defs><style>.a{fill:#e8eefc;}.b{mix-blend-mode:multiply;isolation:isolate;fill:url(#a);}.c{fill:#e6f8ef;}.d{fill:#024d28;}.e{fill:#5278ff;}.f{fill:#048133;}.g{fill:#007c3d;}.h{fill:rgba(0,124,61,0.3);}.i{fill:#00d6d2;}.j{fill:#ff70e9;}.k{fill:#c6d4ff;}</style><linearGradient id="a" y1="0.5" x2="1" y2="0.5" gradientUnits="objectBoundingBox"><stop offset="0.006" stop-color="#dbe0ff"/><stop offset="0.69" stop-color="#f1f4fd"/><stop offset="0.999" stop-color="#fcfdff"/></linearGradient></defs><g transform="translate(-482.696 -36.679)"><path class="a" d="M587.354,87.5c-16.954,0-30.748-7.717-30.748-17.2S570.4,53.1,587.354,53.1,618.1,60.814,618.1,70.3,604.308,87.5,587.354,87.5Zm0-33.564c-16.49,0-29.907,7.34-29.907,16.361s13.416,16.362,29.907,16.362S617.26,79.322,617.26,70.3,603.844,53.939,587.354,53.939Z" transform="translate(-22.786 -5.062)"/><path class="b" d="M644.3,185.488l-11.973,6.3a23.291,23.291,0,0,1-11.642,3.119h-6.874l-4.017-4.322c-4.011-2.254-6.452-5.221-6.452-8.47,0-7.064-.806-20.957,13.385-20.957,0,0,23.057,13.485,27.759,16.483A4.6,4.6,0,0,1,644.3,185.488Z" transform="translate(-37.192 -38.375)"/><path class="c" d="M556.736,41.374a7,7,0,0,1,10.185-3.737l36.761,21.2a8.682,8.682,0,0,1,4.341,7.52v82.9a7.183,7.183,0,0,1-7.256,7.273,5.22,5.22,0,0,1-1.927-.407L564.477,131a6.732,6.732,0,0,1-3.366-5.83L556.5,42.756A4.61,4.61,0,0,1,556.736,41.374Z" transform="translate(-22.754)"/><path class="a" d="M561.553,41.048l38.5,22.227a6.731,6.731,0,0,1,3.366,5.83v85.081a3.366,3.366,0,0,1-5.049,2.915l-38.5-22.226a6.733,6.733,0,0,1-3.366-5.83V43.963A3.366,3.366,0,0,1,561.553,41.048Z" transform="translate(-22.754 -1.206)"/><path class="d" d="M599.306,157.647a2.476,2.476,0,0,1-1.257-.344l-38.5-22.226a5.907,5.907,0,0,1-2.945-5.1V44.9a2.535,2.535,0,0,1,2.529-2.529,2.483,2.483,0,0,1,1.258.343l38.5,22.226a5.906,5.906,0,0,1,2.945,5.1v85.081A2.535,2.535,0,0,1,599.306,157.647Z" transform="translate(-22.786 -1.754)"/><path class="e" d="M563.944,61.451v71.681l35.077,19.98V81.765Z" transform="translate(-25.048 -7.637)"/><path class="f" d="M591.288,69.12a.773.773,0,0,1-.385-.1l-8.972-5.18A.771.771,0,1,1,582.7,62.5l8.972,5.179a.771.771,0,0,1-.386,1.439Z" transform="translate(-30.474 -7.929)"/><g transform="translate(482.696 50.916)"><path class="g" d="M596.221,87.225a8.147,8.147,0,0,0-4.066,7.051v3.362H571.629l-1.343,45.806,30.69,17.481,0-70.956A3.17,3.17,0,0,0,596.221,87.225Z" transform="translate(-509.7 -66.366)"/><path class="d" d="M582.67,128.059V120a3.44,3.44,0,0,0-5.16-2.979c-3.155-.466-8.855,12.039-9.372,13.837l16.83,9.909S582.67,129.522,582.67,128.059Z" transform="translate(-509.037 -75.541)"/><path class="c" d="M519.608,88.1a4.989,4.989,0,0,0-7.418,4.381c.046,10.066.087,25.568-.094,26.523-.332,1.747-1.076,3.846-2.629,4.874-.322.213-17.653,10.225-25.49,14.751a2.562,2.562,0,0,0-.016,4.428c6.324,3.722,19.09,11.161,26.164,15.28a9.964,9.964,0,0,0,10.01.015c6.694-3.873,17.474-10.116,19.69-11.393l4.363-2.514a7.576,7.576,0,0,0,3.32-5.593c.158-1.051,0-24.685,0-24.685a7.42,7.42,0,0,1,2.583-5.353,3.99,3.99,0,0,1,4.275-.886L529.893,93.86C528.17,92.87,523.653,90.348,519.608,88.1Z" transform="translate(-482.696 -66.571)"/><path class="c" d="M550.96,62.267c.011,8.863.017,21.457-.032,22.283L575.4,98.616a3.488,3.488,0,0,1,.816.545,3.3,3.3,0,0,1,1.12,2.172c.178.177.026,16.332.026,17.091a4.217,4.217,0,0,0,3.5,4.437c2.644.4,4.928-1.93,5.271-4.42a14.806,14.806,0,0,0,.051-2.014V86.258a11.375,11.375,0,0,1,.4-3.617c.811-2.487,3.731-6.1,6.694-4.6l-34.836-20.1A4.993,4.993,0,0,0,550.96,62.267Z" transform="translate(-503.732 -57.262)"/><g transform="translate(50.835 14.146)"><g transform="translate(0.218 5.393)"><path class="h" d="M556.877,85.509a.373.373,0,0,0-.182.7l7.466,4.184a.373.373,0,1,0,.364-.651l-7.465-4.184A.379.379,0,0,0,556.877,85.509Z" transform="translate(-556.504 -85.509)"/><path class="h" d="M571.858,93.985a.373.373,0,0,0-.182.7l16.31,9.13a.373.373,0,1,0,.364-.651l-16.31-9.13A.374.374,0,0,0,571.858,93.985Z" transform="translate(-561.123 -88.122)"/></g><path class="h" d="M556.562,77.712a.373.373,0,0,0-.182.7l27.109,15.055a.373.373,0,0,0,.364-.651L556.744,77.76A.368.368,0,0,0,556.562,77.712Z" transform="translate(-556.189 -77.712)"/></g><g transform="translate(31.493 34.374)"><path class="h" d="M558.141,165.835a.373.373,0,0,0,.182-.7l-7.466-4.184a.373.373,0,0,0-.364.651l7.466,4.184A.367.367,0,0,0,558.141,165.835Z" transform="translate(-535.031 -123.588)"/><path class="h" d="M531.239,131.658a.373.373,0,0,0-.182.7l7.466,4.185a.373.373,0,1,0,.364-.652l-7.466-4.184A.373.373,0,0,0,531.239,131.658Z" transform="translate(-529.039 -114.571)"/><g transform="translate(1.801 6.364)"><path class="h" d="M531.2,116.156a.373.373,0,0,0-.182.7l7.466,4.184a.373.373,0,0,0,.364-.651l-7.466-4.184A.369.369,0,0,0,531.2,116.156Z" transform="translate(-530.83 -116.156)"/><path class="h" d="M546.039,124.632a.373.373,0,0,0-.183.7l16.31,9.13a.373.373,0,0,0,.365-.651l-16.31-9.13A.375.375,0,0,0,546.039,124.632Z" transform="translate(-535.403 -118.769)"/></g><path class="h" d="M530.887,123.861a.373.373,0,0,0-.182.7l27.109,15.056a.373.373,0,1,0,.364-.651L531.07,123.909A.371.371,0,0,0,530.887,123.861Z" transform="translate(-528.931 -112.168)"/><path class="h" d="M528.6,140.136a.373.373,0,0,0-.182.7l27.109,15.056a.373.373,0,1,0,.364-.651L528.78,140.184A.367.367,0,0,0,528.6,140.136Z" transform="translate(-528.225 -117.185)"/><g transform="translate(9.275)"><path class="h" d="M558.787,116.156a.373.373,0,0,0-.182.7l7.466,4.184a.373.373,0,1,0,.364-.651L558.97,116.2A.372.372,0,0,0,558.787,116.156Z" transform="translate(-546.808 -109.792)"/><path class="h" d="M542.008,106.956a.373.373,0,0,0-.182.7l7.466,4.184a.373.373,0,0,0,.364-.651L542.19,107A.369.369,0,0,0,542.008,106.956Z" transform="translate(-541.635 -106.956)"/></g><path class="h" d="M530.742,108.36a.373.373,0,0,0-.182.7l27.109,15.056a.373.373,0,1,0,.364-.651l-27.109-15.056A.373.373,0,0,0,530.742,108.36Z" transform="translate(-528.886 -107.389)"/></g></g><g transform="translate(516.679 45.603)"><path class="i" d="M582.1,204.489a1.888,1.888,0,1,0,1.982,1.789A1.888,1.888,0,0,0,582.1,204.489Z" transform="translate(-546.771 -97.337)"/><path class="g" d="M640.385,115.446a.327.327,0,0,0,.271-.374,2.262,2.262,0,0,1,3.033-2.478,2.912,2.912,0,0,0,3.9-3.221.325.325,0,0,0-.376-.264.326.326,0,0,0-.214.136.308.308,0,0,0-.051.239,2.262,2.262,0,0,1-3.029,2.5,2.879,2.879,0,0,0-2.873.468,2.915,2.915,0,0,0-.675.785,2.834,2.834,0,0,0-.221.47,2.934,2.934,0,0,0-.136,1.468A.326.326,0,0,0,640.385,115.446Z" transform="translate(-565.167 -67.931)"/><path class="g" d="M532.749,201.829a.326.326,0,0,0,.271-.374,2.262,2.262,0,0,1,3.033-2.478,2.912,2.912,0,0,0,3.9-3.221.323.323,0,0,0-.135-.211.318.318,0,0,0-.24-.053.328.328,0,0,0-.215.136.308.308,0,0,0-.05.239,2.262,2.262,0,0,1-3.029,2.5,2.881,2.881,0,0,0-2.874.468,2.932,2.932,0,0,0-.675.786,2.855,2.855,0,0,0-.22.469,2.918,2.918,0,0,0-.135,1.468A.325.325,0,0,0,532.749,201.829Z" transform="translate(-531.984 -94.562)"/><path class="j" d="M544.221,49.583a1.888,1.888,0,1,0,1.982,1.79A1.888,1.888,0,0,0,544.221,49.583Z" transform="translate(-535.094 -49.58)"/><path class="g" d="M540.154,69.877a.326.326,0,0,0-.443-.128,2.261,2.261,0,0,1-3.364-2.006,2.912,2.912,0,0,0-4.358-2.567.324.324,0,0,0-.121.443.327.327,0,0,0,.2.154.309.309,0,0,0,.243-.033,2.262,2.262,0,0,1,3.385,1.994,2.88,2.88,0,0,0,1.419,2.541,2.92,2.92,0,0,0,.968.367,2.885,2.885,0,0,0,.517.047,2.93,2.93,0,0,0,1.426-.373A.325.325,0,0,0,540.154,69.877Z" transform="translate(-531.825 -54.268)"/><path class="k" d="M561.525,184.787a.255.255,0,0,1-.026.113.261.261,0,0,1-.234.147h-5.342a.261.261,0,0,1-.2-.422l2.671-3.38a.261.261,0,0,1,.409,0l2.671,3.38A.262.262,0,0,1,561.525,184.787Zm-5.065-.261h4.267l-2.133-2.7Z" transform="translate(-539.173 -90.141)"/><path class="k" d="M635.53,104.981a.252.252,0,0,1-.113-.026.258.258,0,0,1-.146-.234l.019-5.343a.26.26,0,0,1,.423-.2l3.371,2.684a.261.261,0,0,1,0,.409l-3.39,2.658A.254.254,0,0,1,635.53,104.981Zm.279-5.063-.016,4.266,2.707-2.124Z" transform="translate(-563.717 -64.852)"/></g></g></svg>