<svg xmlns="http://www.w3.org/2000/svg" width="113.276" height="94.155" viewBox="0 0 113.276 94.155"><defs><style>.a{fill:#202426;}.b{fill:#3cb446;}</style></defs><path class="a" d="M71.678,64.677a5.7,5.7,0,0,1-.614-.034l-.033,0H61.459a16.029,16.029,0,0,1-10.052-3.557L48.03,58.355H41.764v.737a1.571,1.571,0,0,1-1.571,1.571H29.556v1.694a1.571,1.571,0,0,1-1.571,1.571H1.572A1.571,1.571,0,0,1,0,62.357V36.8a1.571,1.571,0,0,1,3.142,0V60.786h23.27V23.814H3.143v7.749a1.572,1.572,0,0,1-3.143,0v-9.32a1.571,1.571,0,0,1,1.571-1.571H27.985a1.571,1.571,0,0,1,1.571,1.571v1.694H40.192a1.571,1.571,0,0,1,1.571,1.571v1.255h6.482c.672-.3,2.352-1.061,4.421-1.946,4.306-1.841,6.734-4.83,8.657-10.66a46.813,46.813,0,0,0,1.661-6.785l1.031-6.065A1.571,1.571,0,0,1,65.565,0c5.372,0,7.163,4.039,7.719,7.428a17.746,17.746,0,0,1-.145,6.345L70.2,28.581a5.252,5.252,0,0,1,1.039-.1H87.607a5.269,5.269,0,0,1,5.265,5.263v.881a5.234,5.234,0,0,1-.8,2.785,5.263,5.263,0,0,1,2.71,4.6v.881a5.267,5.267,0,0,1-2.86,4.68,5.7,5.7,0,0,1-3.954,8.79A5.7,5.7,0,0,1,82.9,64.677Zm-2.562-5.7a2.565,2.565,0,0,0,2.562,2.562H82.9a2.562,2.562,0,1,0,0-5.123H71.679A2.565,2.565,0,0,0,69.117,58.974ZM41.764,50.709v4.5h6.823a1.571,1.571,0,0,1,.989.35l3.81,3.083A12.877,12.877,0,0,0,61.458,61.5h5.109a5.687,5.687,0,0,1,1.186-6.662,5.688,5.688,0,0,1-.131-8.137,5.246,5.246,0,0,1-1.649-3.819v-.881a5.277,5.277,0,0,1,.067-.836c-2.908,4.771-6.963,7.28-11.827,7.28a1.571,1.571,0,1,1,0-3.141c7.335,0,10.538-7.612,11.783-12.054a5.219,5.219,0,0,1,.4-1.573c.208-.929.292-1.52.3-1.549s.01-.064.016-.1l3.35-16.875a14.612,14.612,0,0,0,.127-5.225c-.455-2.768-1.471-4.229-3.315-4.659L66.083,7.9a50.018,50.018,0,0,1-1.775,7.242c-2.215,6.712-5.23,10.352-10.407,12.565-2.644,1.13-4.639,2.047-4.659,2.056a1.57,1.57,0,0,1-.657.143H41.764V45.474h0a1.571,1.571,0,0,1-3.142,0h0V27.079H29.556V57.521h9.066V50.709a1.571,1.571,0,0,1,3.142,0Zm27.353,0a2.565,2.565,0,0,0,2.562,2.562H87.166a2.562,2.562,0,1,0,0-5.123H71.679A2.565,2.565,0,0,0,69.117,50.709Zm0-8.705v.881a2.124,2.124,0,0,0,2.122,2.121H89.517a2.124,2.124,0,0,0,2.122-2.121V42a2.124,2.124,0,0,0-2.122-2.121H71.238A2.124,2.124,0,0,0,69.116,42Zm.269-9.295c-.077.328-.166.686-.269,1.067v.844a2.124,2.124,0,0,0,2.122,2.121H87.607a2.124,2.124,0,0,0,2.122-2.121V33.74a2.124,2.124,0,0,0-2.122-2.121H71.238A2.124,2.124,0,0,0,69.385,32.71ZM17.141,54.283a2.5,2.5,0,1,1,2.5,2.5A2.5,2.5,0,0,1,17.141,54.283Z" transform="translate(0 29.479)"/><path class="b" d="M73.618,54.292a1.469,1.469,0,1,1,1.469,1.462A1.465,1.465,0,0,1,73.618,54.292Zm-25.207-5.2a1.469,1.469,0,1,1,1.469,1.463A1.466,1.466,0,0,1,48.411,49.094ZM8.9,45.671a1.469,1.469,0,1,1,1.469,1.462A1.465,1.465,0,0,1,8.9,45.671ZM59.664,30.451v-1.46H58.2a1.463,1.463,0,1,1,0-2.925h1.468v-1.46a1.466,1.466,0,0,1,2.931,0v1.46h1.469a1.463,1.463,0,1,1,0,2.925H62.6v1.46a1.466,1.466,0,1,1-2.931,0ZM5.831,20.807a4.316,4.316,0,0,0-4.4-4.388,1.463,1.463,0,0,1,0-2.925,4.316,4.316,0,0,0,4.4-4.388,1.468,1.468,0,0,1,2.934,0,4.316,4.316,0,0,0,4.4,4.388,1.463,1.463,0,0,1,0,2.925,4.316,4.316,0,0,0-4.4,4.388A1.391,1.391,0,0,1,7.3,22.233,1.391,1.391,0,0,1,5.831,20.807Zm0-5.851A6.954,6.954,0,0,1,7.3,16.419a6.954,6.954,0,0,1,1.467-1.463A6.933,6.933,0,0,1,7.3,13.494,6.933,6.933,0,0,1,5.831,14.956ZM32.416,16.6a1.467,1.467,0,1,1,1.467,1.463A1.384,1.384,0,0,1,32.416,16.6ZM47.8,4.385V3.511h-.878a.83.83,0,0,1-.88-.878.83.83,0,0,1,.88-.877H47.8V.881a.881.881,0,1,1,1.761,0v.875h.881a.83.83,0,0,1,.88.877.83.83,0,0,1-.88.878h-.881v.874a.881.881,0,1,1-1.761,0Z" transform="translate(36.72)"/></svg>