<svg xmlns="http://www.w3.org/2000/svg" width="24" height="24" viewBox="0 0 24 24"><defs><style>.a{fill:#007c3d;}.b{fill:#fff;}</style></defs><circle class="a" cx="11.121" cy="11.121" r="11.121" transform="translate(0.879 0.879)"/><path class="a" d="M12,24A12,12,0,1,1,24,12,12.014,12.014,0,0,1,12,24ZM12,1.859A10.141,10.141,0,1,0,22.141,12,10.152,10.152,0,0,0,12,1.859Z"/><path class="b" d="M136.189,170.174a.878.878,0,0,1-.627-.263l-3.243-3.3a.879.879,0,0,1,1.253-1.232l2.591,2.633,5.361-5.9a.879.879,0,1,1,1.3,1.182l-5.985,6.592a.879.879,0,0,1-.633.288Z" transform="translate(-125.56 -153.999)"/></svg>