<?xml version="1.0" encoding="utf-8"?>
<!-- Generator: Adobe Illustrator 23.0.1, SVG Export Plug-In . SVG Version: 6.00 Build 0)  -->
<svg version="1.1" id="Layer_1" xmlns="http://www.w3.org/2000/svg" xmlns:xlink="http://www.w3.org/1999/xlink" x="0px" y="0px"
	 viewBox="0 0 16 16" style="enable-background:new 0 0 16 16;" xml:space="preserve">
<style type="text/css">
	.st0{display:none;fill:#EB283B;}
	.st1{display:none;}
	.st2{display:inline;fill:#EB283B;}
	.st3{fill:#27BF27;}
</style>
<path class="st0" d="M8,0C3.6,0,0,3.6,0,8s3.6,8,8,8s8-3.6,8-8S12.4,0,8,0z M8,14.8c-3.7,0-6.8-3-6.8-6.8s3-6.8,6.8-6.8
	s6.8,3,6.8,6.8C14.8,11.7,11.7,14.7,8,14.8C8,14.8,8,14.8,8,14.8z"/>
<g transform="translate(7.375 4.027)" class="st1">
	<path class="st2" d="M0.6,0C0.3,0,0,0.3,0,0.6v4C0,5,0.3,5.3,0.6,5.3S1.3,5,1.3,4.6v-4C1.2,0.3,1,0,0.6,0z"/>
</g>
<g transform="translate(7.156 10.068)" class="st1">
	<circle class="st2" cx="0.8" cy="0.8" r="0.8"/>
</g>
<g transform="translate(-26 -256.621)">
	<g transform="translate(29.94 261.911)">
		<path class="st3" d="M8,0.1c-0.2-0.3-0.6-0.3-0.9,0c0,0,0,0,0,0L3,4L1.1,2C0.8,1.7,0.4,1.7,0.2,2c-0.2,0.2-0.2,0.6,0,0.9l2.4,2.5
			c0.2,0.3,0.6,0.3,0.9,0L8,1C8.2,0.8,8.2,0.4,8,0.1z"/>
	</g>
	<path class="st3" d="M34,256.7c-4.4,0-7.9,3.5-7.9,7.9s3.5,7.9,7.9,7.9s7.9-3.5,7.9-7.9C41.9,260.3,38.4,256.7,34,256.7z M34,271.2
		c-3.7,0-6.6-3-6.6-6.6c0-3.7,3-6.6,6.6-6.6c3.7,0,6.6,3,6.6,6.6l0,0C40.6,268.3,37.6,271.2,34,271.2z"/>
</g>
</svg>
