<svg xmlns="http://www.w3.org/2000/svg" width="32" height="32" viewBox="0 0 32 32">
  <g id="Group_40070" data-name="Group 40070" transform="translate(-10178 -500)">
    <g id="Group_40041" data-name="Group 40041" transform="translate(10178 500)" opacity="0">
      <rect id="Rectangle_18695" data-name="Rectangle 18695" width="32" height="32" fill="#e3e3e3"/>
      <rect id="Rectangle_18696" data-name="Rectangle 18696" width="28.343" height="28.343" transform="translate(1.829 1.829)" fill="#b5b5b5"/>
    </g>
    <g id="_29-Tax" data-name="29-Tax" transform="translate(10182 504)">
      <path id="Subtraction_11" data-name="Subtraction 11" d="M21.553,24H14.606a.712.712,0,1,1,0-1.424h6.947a1.027,1.027,0,0,0,1.026-1.025V6.634H19.815a2.45,2.45,0,0,1-2.447-2.449V1.424H7.658A1.027,1.027,0,0,0,6.632,2.449v5.21a.71.71,0,1,1-1.421,0V2.449A2.451,2.451,0,0,1,7.658,0H18.081a.707.707,0,0,1,.5.206l5.21,5.21A.706.706,0,0,1,24,5.921v15.63A2.451,2.451,0,0,1,21.553,24ZM18.792,2.426h0V4.185A1.025,1.025,0,0,0,19.815,5.21h1.761L18.792,2.426ZM6.79,24a6.79,6.79,0,1,1,6.791-6.791A6.8,6.8,0,0,1,6.79,24Zm0-12.156a5.366,5.366,0,1,0,5.368,5.365A5.372,5.372,0,0,0,6.79,11.844ZM5.053,19.663a.709.709,0,0,1-.5-.211.713.713,0,0,1,0-1.013l3.474-3.472a.712.712,0,0,1,.506-.211.722.722,0,0,1,.5.211.71.71,0,0,1,0,1.01L5.559,19.452A.713.713,0,0,1,5.053,19.663Zm14.762-.005H16.343a.712.712,0,0,1,0-1.424h3.472a.712.712,0,1,1,0,1.424Zm-11.286,0a.712.712,0,1,1,.71-.711A.713.713,0,0,1,8.529,19.658ZM5.053,16.184a.711.711,0,1,1,.711-.711A.711.711,0,0,1,5.053,16.184Zm14.762-.868H16.343a.712.712,0,0,1,0-1.424h3.472a.712.712,0,1,1,0,1.424Zm0-4.342H14.606a.711.711,0,1,1,0-1.421h5.209a.711.711,0,1,1,0,1.421Zm-5.209-4.34H9.4a.712.712,0,1,1,0-1.424h5.21a.712.712,0,0,1,0,1.424Z" transform="translate(0 0)" fill="#007c3d"/>
    </g>
  </g>
</svg>
