<svg xmlns="http://www.w3.org/2000/svg" xmlns:xlink="http://www.w3.org/1999/xlink" width="35" height="105" viewBox="0 0 35 105">
  <defs>
    <clipPath id="clip-tax-center">
      <rect width="35" height="105"/>
    </clipPath>
  </defs>
  <g id="tax-center" clip-path="url(#clip-tax-center)">
    <g id="Group_39975" data-name="Group 39975" opacity="0">
      <rect id="Rectangle_18669" data-name="Rectangle 18669" width="35" height="35" fill="#e3e3e3"/>
      <rect id="Rectangle_18672" data-name="Rectangle 18672" width="35" height="35" transform="translate(0 35)" fill="#d5d5d5"/>
      <rect id="Rectangle_18673" data-name="Rectangle 18673" width="35" height="35" transform="translate(0 70)" fill="#c6c6c6"/>
      <rect id="Rectangle_18670" data-name="Rectangle 18670" width="31" height="31" transform="translate(2 2)" fill="#b5b5b5"/>
      <rect id="Rectangle_18680" data-name="Rectangle 18680" width="31" height="31" transform="translate(2 37)" fill="#b5b5b5"/>
      <rect id="Rectangle_18681" data-name="Rectangle 18681" width="31" height="31" transform="translate(2 72)" fill="#b5b5b5"/>
    </g>
    <g id="_29-Tax" data-name="29-Tax" transform="translate(1.8 1.8)">
      <path id="Subtraction_11" data-name="Subtraction 11" d="M27.84,31H18.867a.92.92,0,1,1,0-1.839H27.84a1.326,1.326,0,0,0,1.325-1.324V8.569h-3.57a3.165,3.165,0,0,1-3.16-3.163V1.839H9.891A1.326,1.326,0,0,0,8.566,3.163v6.73a.918.918,0,1,1-1.835,0V3.163A3.166,3.166,0,0,1,9.891,0H23.355A.913.913,0,0,1,24,.266L30.734,7A.911.911,0,0,1,31,7.648V27.837A3.165,3.165,0,0,1,27.84,31ZM24.273,3.133h0V5.405A1.324,1.324,0,0,0,25.594,6.73h2.275l-3.6-3.6ZM8.77,31a8.77,8.77,0,1,1,8.772-8.772A8.781,8.781,0,0,1,8.77,31Zm0-15.7a6.931,6.931,0,1,0,6.933,6.93A6.938,6.938,0,0,0,8.77,15.3ZM6.527,25.4a.916.916,0,0,1-.652-.272.921.921,0,0,1,0-1.308l4.487-4.484a.919.919,0,0,1,.654-.272.932.932,0,0,1,.652.272.918.918,0,0,1,0,1.3L7.18,25.126A.92.92,0,0,1,6.527,25.4Zm19.067-.007H21.11a.92.92,0,0,1,0-1.839h4.484a.92.92,0,1,1,0,1.839Zm-14.578,0a.92.92,0,1,1,.917-.918A.921.921,0,0,1,11.016,25.391ZM6.527,20.9a.918.918,0,1,1,.918-.918A.919.919,0,0,1,6.527,20.9Zm19.067-1.121H21.11a.919.919,0,0,1,0-1.839h4.484a.919.919,0,1,1,0,1.839Zm0-5.609H18.867a.918.918,0,1,1,0-1.836h6.728a.918.918,0,1,1,0,1.836ZM18.867,8.569h-6.73a.919.919,0,1,1,0-1.839h6.73a.919.919,0,0,1,0,1.839Z" transform="translate(0.2 0.2)" fill="#007c3d"/>
    </g>
    <g id="_29-Tax-2" data-name="29-Tax" transform="translate(1.8 36.8)">
      <path id="Subtraction_11-2" data-name="Subtraction 11" d="M27.84,31H18.867a.92.92,0,1,1,0-1.839H27.84a1.326,1.326,0,0,0,1.325-1.324V8.569h-3.57a3.165,3.165,0,0,1-3.16-3.163V1.839H9.891A1.326,1.326,0,0,0,8.566,3.163v6.73a.918.918,0,1,1-1.835,0V3.163A3.166,3.166,0,0,1,9.891,0H23.355A.913.913,0,0,1,24,.266L30.734,7A.911.911,0,0,1,31,7.648V27.837A3.165,3.165,0,0,1,27.84,31ZM24.273,3.133h0V5.405A1.324,1.324,0,0,0,25.594,6.73h2.275l-3.6-3.6ZM8.77,31a8.77,8.77,0,1,1,8.772-8.772A8.781,8.781,0,0,1,8.77,31Zm0-15.7a6.931,6.931,0,1,0,6.933,6.93A6.938,6.938,0,0,0,8.77,15.3ZM6.527,25.4a.916.916,0,0,1-.652-.272.921.921,0,0,1,0-1.308l4.487-4.484a.919.919,0,0,1,.654-.272.932.932,0,0,1,.652.272.918.918,0,0,1,0,1.3L7.18,25.126A.92.92,0,0,1,6.527,25.4Zm19.067-.007H21.11a.92.92,0,0,1,0-1.839h4.484a.92.92,0,1,1,0,1.839Zm-14.578,0a.92.92,0,1,1,.917-.918A.921.921,0,0,1,11.016,25.391ZM6.527,20.9a.918.918,0,1,1,.918-.918A.919.919,0,0,1,6.527,20.9Zm19.067-1.121H21.11a.919.919,0,0,1,0-1.839h4.484a.919.919,0,1,1,0,1.839Zm0-5.609H18.867a.918.918,0,1,1,0-1.836h6.728a.918.918,0,1,1,0,1.836ZM18.867,8.569h-6.73a.919.919,0,1,1,0-1.839h6.73a.919.919,0,0,1,0,1.839Z" transform="translate(0.2 0.2)" fill="#fff200"/>
    </g>
    <g id="_29-Tax-3" data-name="29-Tax" transform="translate(1.8 71.8)">
      <path id="Subtraction_11-3" data-name="Subtraction 11" d="M27.84,31H18.867a.92.92,0,1,1,0-1.839H27.84a1.326,1.326,0,0,0,1.325-1.324V8.569h-3.57a3.165,3.165,0,0,1-3.16-3.163V1.839H9.891A1.326,1.326,0,0,0,8.566,3.163v6.73a.918.918,0,1,1-1.835,0V3.163A3.166,3.166,0,0,1,9.891,0H23.355A.913.913,0,0,1,24,.266L30.734,7A.911.911,0,0,1,31,7.648V27.837A3.165,3.165,0,0,1,27.84,31ZM24.273,3.133h0V5.405A1.324,1.324,0,0,0,25.594,6.73h2.275l-3.6-3.6ZM8.77,31a8.77,8.77,0,1,1,8.772-8.772A8.781,8.781,0,0,1,8.77,31Zm0-15.7a6.931,6.931,0,1,0,6.933,6.93A6.938,6.938,0,0,0,8.77,15.3ZM6.527,25.4a.916.916,0,0,1-.652-.272.921.921,0,0,1,0-1.308l4.487-4.484a.919.919,0,0,1,.654-.272.932.932,0,0,1,.652.272.918.918,0,0,1,0,1.3L7.18,25.126A.92.92,0,0,1,6.527,25.4Zm19.067-.007H21.11a.92.92,0,0,1,0-1.839h4.484a.92.92,0,1,1,0,1.839Zm-14.578,0a.92.92,0,1,1,.917-.918A.921.921,0,0,1,11.016,25.391ZM6.527,20.9a.918.918,0,1,1,.918-.918A.919.919,0,0,1,6.527,20.9Zm19.067-1.121H21.11a.919.919,0,0,1,0-1.839h4.484a.919.919,0,1,1,0,1.839Zm0-5.609H18.867a.918.918,0,1,1,0-1.836h6.728a.918.918,0,1,1,0,1.836ZM18.867,8.569h-6.73a.919.919,0,1,1,0-1.839h6.73a.919.919,0,0,1,0,1.839Z" transform="translate(0.2 0.2)" fill="#fff"/>
    </g>
  </g>
</svg>
