<svg xmlns="http://www.w3.org/2000/svg" width="54.792" height="56" viewBox="0 0 54.792 56"><defs><style>.a{fill:#fff;}</style></defs><path class="a" d="M54.914,24.157H52.386V1.647A1.647,1.647,0,0,0,50.739,0H7.147A1.647,1.647,0,0,0,5.5,1.647v42.19a5.508,5.508,0,0,0,5.428,5.489h9.638v5.027A1.647,1.647,0,0,0,22.213,56H58.645a1.647,1.647,0,0,0,1.647-1.647V29.536A5.385,5.385,0,0,0,54.914,24.157ZM8.794,3.294h40.3V24.157H18.472a5.364,5.364,0,0,0-5.373,5.15q0,.035,0,.069V43.837a2.152,2.152,0,1,1-4.3,0V3.294ZM15.93,46.032a5.492,5.492,0,0,0,.462-2.195V29.415a2.089,2.089,0,0,1,4.175.121v16.5ZM57,52.706H23.86V29.536h0a5.4,5.4,0,0,0-.42-2.085H54.914A2.087,2.087,0,0,1,57,29.536Z" transform="translate(-5.5)"/><path class="a" d="M69.894,75.681h1.832v7.027a1.8,1.8,0,0,0,3.6,0V75.681h1.832a1.8,1.8,0,1,0,0-3.6H69.894a1.8,1.8,0,1,0,0,3.6Z" transform="translate(-60.589 -63.44)"/><path class="a" d="M171.176,84.507a1.8,1.8,0,0,0,1.8-1.8V81.668h3.665v1.041a1.8,1.8,0,1,0,3.6,0V77.515a5.43,5.43,0,1,0-10.86,0v5.194A1.8,1.8,0,0,0,171.176,84.507Zm3.631-8.825a1.835,1.835,0,0,1,1.832,1.832v.556h-3.665v-.556A1.835,1.835,0,0,1,174.807,75.682Z" transform="translate(-151.75 -63.441)"/><path class="a" d="M280,84.1a1.8,1.8,0,0,0,2.532-.246l2.242-2.725,2.242,2.725a1.8,1.8,0,1,0,2.778-2.286l-2.691-3.27,2.691-3.27a1.8,1.8,0,1,0-2.778-2.286l-2.242,2.725-2.242-2.725a1.8,1.8,0,0,0-2.778,2.286l2.691,3.27-2.691,3.27A1.8,1.8,0,0,0,280,84.1Z" transform="translate(-249.885 -63.439)"/><path class="a" d="M220.03,315H207.64a1.8,1.8,0,1,0,0,3.6h12.39a1.8,1.8,0,0,0,0-3.6Z" transform="translate(-184.581 -280.611)"/><path class="a" d="M220.03,387H207.64a1.8,1.8,0,1,0,0,3.6h12.39a1.8,1.8,0,0,0,0-3.6Z" transform="translate(-184.581 -344.75)"/><path class="a" d="M378.707,315h-6.076a1.8,1.8,0,0,0,0,3.6h6.076a1.8,1.8,0,1,0,0-3.6Z" transform="translate(-332.069 -280.611)"/><path class="a" d="M378.707,387h-6.076a1.8,1.8,0,0,0,0,3.6h6.076a1.8,1.8,0,1,0,0-3.6Z" transform="translate(-332.069 -344.75)"/></svg>