<svg xmlns="http://www.w3.org/2000/svg" width="60" height="60" viewBox="0 0 60 60">
  <g id="Group_40097" data-name="Group 40097" transform="translate(-31 -31)">
    <g id="recent-transactions" transform="translate(13324 -13032)">
      <g id="Group_39998" data-name="Group 39998" transform="translate(-445 184)" opacity="0">
        <g id="Rectangle_18667" data-name="Rectangle 18667" transform="translate(-12848 12879)" fill="#357a44" stroke="#357a44" stroke-width="1">
          <rect width="60" height="60" stroke="none"/>
          <rect x="0.5" y="0.5" width="59" height="59" fill="none"/>
        </g>
      </g>
    </g>
    <g id="policy" transform="translate(38 40)">
      <path id="Path_44004" data-name="Path 44004" d="M41.614,0H11.533A4.716,4.716,0,0,0,6.8,4.682L6.6,31.17H.734A.764.764,0,0,0,0,31.954V35.6a6.387,6.387,0,0,0,6.027,6.356V42H31.359v-.049c.188.008.3.049.432.049h.018a6.368,6.368,0,0,0,6.33-6.4V12.43h7.647a.772.772,0,0,0,.734-.792V4.949A4.941,4.941,0,0,0,41.614,0ZM6.357,40.493H6.351A4.882,4.882,0,0,1,1.507,35.6V32.677H25.426v2.909a6.376,6.376,0,0,0,1.861,4.525,2.705,2.705,0,0,1,.4.382Zm30.276-4.9a4.865,4.865,0,0,1-4.825,4.9h-.015a4.895,4.895,0,0,1-4.859-4.906V31.954a.78.78,0,0,0-.753-.784H8.111L8.305,4.687a3.209,3.209,0,0,1,3.228-3.18H38.058A5.141,5.141,0,0,0,36.632,4.97ZM45.013,4.963v5.961H38.139V4.968a3.489,3.489,0,0,1,3.453-3.461h.021a3.434,3.434,0,0,1,3.4,3.45Zm0,0" fill="#357a44" stroke="#357a44" stroke-width="1"/>
      <path id="Path_44005" data-name="Path 44005" d="M165.337,67.073l3.884,2.656a.742.742,0,0,0,.842,0l3.872-2.655a5.851,5.851,0,0,0,2.339-4.464V57.237a.737.737,0,0,0-.4-.676l-5.914-2.909a.74.74,0,0,0-.658,0l-5.9,2.9a.735.735,0,0,0-.4.676V62.61A5.852,5.852,0,0,0,165.337,67.073ZM164.5,57.7l5.132-2.532,5.132,2.539v4.9a4.341,4.341,0,0,1-1.682,3.218l-3.459,2.366-3.445-2.365A4.339,4.339,0,0,1,164.5,62.61Zm0,0" transform="translate(-147.647 -48.529)" fill="#357a44" stroke="#357a44" stroke-width="1"/>
      <path id="Path_44006" data-name="Path 44006" d="M203.276,120.412a.752.752,0,0,0,.533.226h0a.754.754,0,0,0,.533-.223l3-3a.754.754,0,1,0-1.065-1.066l-2.462,2.461-.984-.994a.754.754,0,0,0-1.071,1.061Zm0,0" transform="translate(-182.562 -105.193)" fill="#357a44" stroke="#357a44" stroke-width="1"/>
      <path id="Path_44007" data-name="Path 44007" d="M151.834,248H133.753a.753.753,0,1,0,0,1.507h18.081a.753.753,0,1,0,0-1.507Zm0,0" transform="translate(-120.475 -224.646)" fill="#357a44" stroke="#357a44" stroke-width="1"/>
      <path id="Path_44008" data-name="Path 44008" d="M151.834,285H133.753a.753.753,0,1,0,0,1.507h18.081a.753.753,0,1,0,0-1.507Zm0,0" transform="translate(-120.475 -258.161)" fill="#357a44" stroke="#357a44" stroke-width="1"/>
    </g>
  </g>
</svg>
