<svg xmlns="http://www.w3.org/2000/svg" width="48" height="56" viewBox="0 0 48 56"><defs><style>.a{fill:#fff;}</style></defs><path class="a" d="M85,64.11l3.122-2.8a1.509,1.509,0,0,0,0-2.3,1.963,1.963,0,0,0-2.563,0l-3.122,2.8L68.681,49.477a1.963,1.963,0,0,0-2.563,0c-7.429,6.662-8.622,16.6-3.88,24.4a5.559,5.559,0,0,0-1.37,3.459L57.025,97.263a1.69,1.69,0,0,0,1.786,1.9h17.4a1.69,1.69,0,0,0,1.786-1.9L75.379,83.711A24.738,24.738,0,0,0,98.75,78.743a1.51,1.51,0,0,0,0-2.3ZM67.509,80.2a2.725,2.725,0,1,1,3.02-2.709A2.88,2.88,0,0,1,67.509,80.2Zm-6.546,15.71L63.588,82.3a7.247,7.247,0,0,0,7.841,0l2.625,13.612H60.963Zm13.7-15.927-.513-2.656c-.123-4.067-4.7-6.855-8.967-5.417a15.8,15.8,0,0,1,2.278-18.938L94.847,77.541A20.944,20.944,0,0,1,74.661,79.988Z" transform="translate(-56.998 -43.165)"/><path class="a" d="M304.625,74.41a1.787,1.787,0,1,0,3.573,0,9.42,9.42,0,0,0-9.41-9.41,1.787,1.787,0,0,0,0,3.573A5.843,5.843,0,0,1,304.625,74.41Z" transform="translate(-267.946 -57.258)"/><path class="a" d="M298.789,0a1.787,1.787,0,0,0,0,3.573,13.535,13.535,0,0,1,13.459,13.578,1.787,1.787,0,1,0,3.573,0A17.112,17.112,0,0,0,298.789,0Z" transform="translate(-267.821)"/></svg>