<svg xmlns="http://www.w3.org/2000/svg" viewBox="0 0 20.544 20.542">
  <g transform="translate(0 -0.021)">
    <g transform="translate(0 0.021)">
      <g transform="translate(0 0)">
        <path
          d="M19.087.021a1.452,1.452,0,0,0-1.342.893l-1.31,3.129a2.127,2.127,0,0,0-1.455-.6H2.14A2.143,2.143,0,0,0,0,5.583v12.84a2.143,2.143,0,0,0,2.14,2.14H14.98a2.143,2.143,0,0,0,2.14-2.14V9.054L20.407,2.12a1.486,1.486,0,0,0,.137-.644A1.458,1.458,0,0,0,19.087.021Zm-2.823,18.4a1.286,1.286,0,0,1-1.284,1.284H2.14A1.286,1.286,0,0,1,.856,18.423V5.583A1.286,1.286,0,0,1,2.14,4.3H14.98a1.274,1.274,0,0,1,1.086.625L14.552,8.543v-2.1a.428.428,0,0,0-.428-.428H3a.428.428,0,0,0-.428.428V9.863A.428.428,0,0,0,3,10.291H13.82l-.359.856H9.844a.428.428,0,0,0-.428.428v5.136c0,.011.005.021.006.032a2.678,2.678,0,0,1-.583.423.428.428,0,0,0-.154.7A3.208,3.208,0,0,0,11,18.726a3.929,3.929,0,0,0,2.573-.856,3.143,3.143,0,0,0,.793-3l1.9-4.009v7.563Zm-5.4-2.452a2.361,2.361,0,0,1,.571-1.1,1.288,1.288,0,0,1,1.963,0c.542.542.128,1.834-.428,2.391a3.334,3.334,0,0,1-3.22.331,5.544,5.544,0,0,0,.508-.455A2.574,2.574,0,0,0,10.859,15.971Zm-.587-.89V12H13.1l-.657,1.568a2.229,2.229,0,0,0-1.623.7A2.657,2.657,0,0,0,10.272,15.08Zm3.02-1.308,1.152-2.754.647.318-1.306,2.755A2.439,2.439,0,0,0,13.292,13.772Zm.4-6.905V9.435H3.424V6.867Zm5.936-5.112-4.176,8.808-.682-.335,2.17-5.186,1.59-3.8a.6.6,0,0,1,.554-.367.607.607,0,0,1,.6.628A.6.6,0,0,1,19.632,1.755Z"
          transform="translate(0 -0.021)" />
      </g>
    </g>
    <g transform="translate(2.568 11.147)">
      <path
        d="M68.708,277.312h-4.28a.428.428,0,0,0-.428.428v5.992a.428.428,0,0,0,.428.428h4.28a.428.428,0,0,0,.428-.428V277.74A.428.428,0,0,0,68.708,277.312ZM68.28,283.3H64.856v-5.136H68.28V283.3Z"
        transform="translate(-64 -277.312)" />
    </g>
  </g>
</svg>