<svg xmlns="http://www.w3.org/2000/svg" width="60" height="60" viewBox="0 0 60 60">
  <g id="favorites" transform="translate(11559.851 -13098)">
    <g id="fd-rd" transform="translate(1733.149 35)" opacity="0">
      <g id="Group_39998" data-name="Group 39998" transform="translate(-445 184)" opacity="0.36">
        <rect id="Rectangle_18667" data-name="Rectangle 18667" width="60" height="60" transform="translate(-12848 12879)" fill="#adadad"/>
      </g>
    </g>
    <path id="Path_43977" data-name="Path 43977" d="M0,0H52V52H0Z" transform="translate(-11555.851 13102)" fill="#7c0000" opacity="0"/>
    <g id="noun_statement_1239492" transform="translate(-11550.701 13107.15)">
      <g id="Group_39587" data-name="Group 39587" transform="translate(-0.149 -0.15)">
        <path id="Union_15" data-name="Union 15" d="M1.317,2.642A1.321,1.321,0,0,1,1.317,0H18.65a1.321,1.321,0,1,1,0,2.642Z" transform="translate(5.506 7.645)" fill="#007c3d"/>
        <path id="Union_14" data-name="Union 14" d="M1.317,2.642A1.321,1.321,0,0,1,1.317,0H7.829a1.321,1.321,0,0,1,0,2.642Z" transform="translate(5.506 12.713)" fill="#007c3d"/>
        <path id="Union_13" data-name="Union 13" d="M1.317,2.642A1.321,1.321,0,0,1,1.317,0H5.785a1.321,1.321,0,1,1,0,2.642Z" transform="translate(5.506 17.78)" fill="#007c3d"/>
        <path id="Union_12" data-name="Union 12" d="M27.474,41.994a.153.153,0,0,1-.054.006H1.318A1.323,1.323,0,0,1,0,40.682V1.322A1.322,1.322,0,0,1,1.318,0H29.494a1.319,1.319,0,0,1,1.318,1.322V13.616A14.37,14.37,0,0,1,27.626,42,1.346,1.346,0,0,1,27.474,41.994ZM15.9,27.631A11.731,11.731,0,1,0,27.626,15.9,11.739,11.739,0,0,0,15.9,27.631ZM2.641,39.359H19.334a14.368,14.368,0,0,1,8.292-26.1c.174,0,.354.006.544.016V2.639H2.641Z" fill="#007c3d"/>
        <path id="Union_11" data-name="Union 11" d="M5.294,13.744.34,7.97.327,6.521h2.5A3.054,3.054,0,0,0,4.55,6.062a1.891,1.891,0,0,0,.731-.921H0l.55-1.89H5.257A2.317,2.317,0,0,0,2.875,1.89H.016L.577,0h8.9L8.93,1.89H7.036a4.028,4.028,0,0,1,.5,1.361H9.48l-.55,1.89H7.574a3.433,3.433,0,0,1-1.353,2.4A5.075,5.075,0,0,1,3.447,8.4l4.244,4.93v.416Z" transform="translate(22.571 21.534)" fill="#007c3d"/>
      </g>
    </g>
  </g>
</svg>
