<svg xmlns="http://www.w3.org/2000/svg" width="21.086" height="21.086" viewBox="0 0 21.086 21.086"><defs><style>.a,.b{fill:#707273;}.a{stroke:#fff;stroke-width:0.2px;}</style></defs><g transform="translate(0.1 0.1)"><path class="a" d="M19.052,4.936H10.08L8.578.419A.612.612,0,0,0,8,0H1.838A1.838,1.838,0,0,0,0,1.836V14.114A1.838,1.838,0,0,0,1.838,15.95H8.581l1.489,4.505a.614.614,0,0,0,.585.431h8.4a1.838,1.838,0,0,0,1.836-1.836V6.772a1.838,1.838,0,0,0-1.836-1.836ZM1.838,14.726a.613.613,0,0,1-.612-.612V1.836a.613.613,0,0,1,.612-.612H7.556l4.488,13.5ZM11.943,15.95l-1.2,2.645L9.87,15.95Zm7.721,3.1a.613.613,0,0,1-.612.612H11.6l1.846-4.071a.616.616,0,0,0,.023-.446L10.486,6.16h8.566a.613.613,0,0,1,.612.612Z" transform="translate(-0.002 0)"/><path class="b" d="M306.509,212.224h-1.836v-.612a.612.612,0,1,0-1.224,0v.612h-1.836a.612.612,0,1,0,0,1.224h3.555a7.689,7.689,0,0,1-1.1,1.924c-.1-.141-.208-.286-.308-.433a.612.612,0,0,0-1.012.688c.172.252.352.5.531.731-.306.355-.607.676-.872.936a.612.612,0,0,0,.857.873c.021-.021.355-.349.8-.854.435.5.761.825.786.85a.612.612,0,0,0,.865-.865c-.006-.006-.381-.383-.859-.941a7.96,7.96,0,0,0,1.577-2.91h.073a.612.612,0,0,0,0-1.224Z" transform="translate(-288.723 -202.393)"/><path class="b" d="M6.005-3.319a.691.691,0,0,0-.05-.242L3.9-8.68a.59.59,0,0,0-.584-.392.59.59,0,0,0-.584.392L.686-3.561a.691.691,0,0,0-.05.242.581.581,0,0,0,.609.584c.292,0,.459-.192.584-.484l.292-.675c.008-.033.033-.042.067-.042H4.446c.042,0,.058.017.067.042l.3.675c.125.283.292.484.584.484A.581.581,0,0,0,6.005-3.319ZM3.321-6.9c.017,0,.025.033.025.033L4.038-5.1a.031.031,0,0,1,.008.025.036.036,0,0,1-.033.033H2.62c-.017,0-.033-.008-.033-.025A.05.05,0,0,1,2.6-5.1l.7-1.759S3.3-6.9,3.321-6.9Z" transform="translate(2.335 14.159)"/></g></svg>