<?xml version="1.0" encoding="utf-8"?>
<!-- Generator: Adobe Illustrator 23.0.1, SVG Export Plug-In . SVG Version: 6.00 Build 0)  -->
<svg version="1.1" id="Layer_1" xmlns="http://www.w3.org/2000/svg" xmlns:xlink="http://www.w3.org/1999/xlink" x="0px" y="0px"
	 viewBox="0 0 28.8 28.2" style="enable-background:new 0 0 28.8 28.2;" xml:space="preserve">
<style type="text/css">
	.st0{fill:#007C3D;}
	.st1{fill:#007C3D;stroke:#007C3D;stroke-width:0.5;}
</style>
<g transform="translate(-116.008 -581.327)">
	<g transform="translate(134.757 581.327) rotate(60)">
		<path class="st0" d="M0.6,1.4c2-2,4.7-3.4,7.5-3.8L7.3-3.3c-0.3-0.3-0.3-0.9,0-1.2c0.3-0.3,0.9-0.3,1.2,0c0,0,0,0,0,0l2.1,2.1
			c0.3,0.3,0.3,0.9,0,1.2c0,0,0,0,0,0L8.5,1C8.1,1.4,7.6,1.4,7.3,1c-0.3-0.3-0.3-0.9,0-1.2l0,0l0.5-0.5C1.4,0.6-2.7,6.8-1.4,13.1
			S6,23.5,12.3,22.3c6.3-1.3,10.4-7.4,9.2-13.7c-0.8-4-3.7-7.3-7.5-8.7c-0.4-0.2-0.7-0.6-0.5-1.1c0.2-0.4,0.6-0.7,1.1-0.5
			c7,2.5,10.6,10.1,8.1,17.1S12.5,25.9,5.5,23.4S-5.1,13.3-2.6,6.3C-1.9,4.5-0.8,2.8,0.6,1.4z"/>
	</g>
	<g transform="translate(125.141 590.715)">
		<g transform="translate(0)">
			<path class="st1" d="M9.6,5.8C8.9,5.1,8.1,4.6,7.2,4.3c1.6-1.1,2-3.3,0.9-4.9s-3.3-2-4.9-0.9s-2,3.3-0.9,4.9
				c0.2,0.4,0.6,0.7,0.9,0.9C0.8,5.2-0.8,7.5-0.8,10h1c0-2.8,2.3-5.1,5.1-5.1s5.1,2.3,5.1,5.1h1C11.3,8.4,10.7,6.9,9.6,5.8z M5.3,4
				C3.8,4,2.7,2.8,2.7,1.4s1.1-2.6,2.6-2.6c1.4,0,2.6,1.1,2.6,2.6c0,0,0,0,0,0C7.8,2.8,6.7,4,5.3,4z"/>
		</g>
	</g>
</g>
</svg>
