<?xml version="1.0" encoding="utf-8"?>
<!-- Generator: Adobe Illustrator 23.0.1, SVG Export Plug-In . SVG Version: 6.00 Build 0)  -->
<svg version="1.1" id="Layer_1" xmlns="http://www.w3.org/2000/svg" xmlns:xlink="http://www.w3.org/1999/xlink" x="0px" y="0px"
	 viewBox="0 0 24 24" style="enable-background:new 0 0 24 24;" xml:space="preserve">
<style type="text/css">
	.st0{fill:#ffffff;stroke:#FFFFFF;stroke-width:0.3;}
	.st1{fill:#ffffff;}
</style>
<g transform="translate(0.15 0.15)">
	<path class="st0" d="M21.3,5.8h-9.9l-1.6-5C9.7,0.6,9.5,0.4,9.2,0.4H2.4c-1.1,0-2,0.9-2,2c0,0,0,0,0,0v13.5c0,1.1,0.9,2,2,2
		c0,0,0,0,0,0h7.4l1.6,4.9c0.1,0.3,0.3,0.5,0.6,0.5h9.2c1.1,0,2-0.9,2-2V7.8C23.3,6.7,22.4,5.8,21.3,5.8L21.3,5.8z M2.4,16.6
		c-0.4,0-0.7-0.3-0.7-0.7V2.4C1.7,2,2,1.7,2.4,1.7c0,0,0,0,0,0h6.3l4.9,14.8H2.4z M13.5,17.9l-1.3,2.9l-1-2.9H13.5z M22,21.3
		c0,0.4-0.3,0.7-0.7,0.7h-8.2l2-4.5c0.1-0.2,0.1-0.3,0-0.5l-3.3-9.9h9.4c0.4,0,0.7,0.3,0.7,0.7L22,21.3z"/>
	<path class="st1" d="M19.9,11.2h-2v-0.7c0-0.4-0.3-0.7-0.7-0.7s-0.7,0.3-0.7,0.7v0.7h-2c-0.4,0-0.7,0.3-0.7,0.7
		c0,0.4,0.3,0.7,0.7,0.7h3.9c-0.3,0.8-0.7,1.5-1.2,2.1c-0.1-0.2-0.2-0.3-0.3-0.5c-0.2-0.3-0.6-0.4-0.9-0.1c-0.3,0.2-0.4,0.6-0.2,0.9
		c0.2,0.3,0.4,0.5,0.6,0.8c-0.3,0.4-0.7,0.7-1,1c-0.2,0.3-0.2,0.7,0.1,0.9c0.3,0.2,0.6,0.2,0.9,0c0,0,0.4-0.4,0.9-0.9
		c0.5,0.5,0.8,0.9,0.9,0.9c0.3,0.3,0.7,0.3,1,0c0.3-0.3,0.3-0.7,0-1l0,0c0,0-0.4-0.4-0.9-1c0.8-0.9,1.4-2,1.7-3.2h0.1
		c0.4,0,0.7-0.3,0.7-0.7C20.6,11.5,20.3,11.2,19.9,11.2L19.9,11.2z"/>
	<path class="st1" d="M9.6,12.3c0-0.1,0-0.2-0.1-0.3L7.2,6.4C7.2,6.1,6.9,6,6.6,6C6.3,6,6.1,6.1,6,6.4L3.7,12c0,0.1-0.1,0.2-0.1,0.3
		c0,0.4,0.3,0.6,0.6,0.6c0,0,0,0,0,0c0.3,0,0.5-0.2,0.6-0.5l0.3-0.7c0,0,0,0,0.1,0h2.5c0,0,0.1,0,0.1,0l0.3,0.7
		c0.1,0.3,0.3,0.5,0.6,0.5C9.2,12.9,9.5,12.7,9.6,12.3C9.6,12.3,9.6,12.3,9.6,12.3z M6.6,8.4C6.6,8.4,6.6,8.4,6.6,8.4l0.8,2
		c0,0,0,0,0,0c0,0,0,0,0,0H5.8c0,0,0,0,0,0c0,0,0,0,0,0L6.6,8.4C6.6,8.4,6.6,8.4,6.6,8.4L6.6,8.4z"/>
</g>
</svg>
