<svg xmlns="http://www.w3.org/2000/svg" width="20.278" height="16.48" viewBox="0 0 20.278 16.48"><defs><style>.a{fill:#777;}</style></defs><path class="a" d="M44.444,153.907a11.833,11.833,0,0,0,18.2-10.507,8.433,8.433,0,0,0,2.075-2.154,8.3,8.3,0,0,1-2.389.655,4.166,4.166,0,0,0,1.829-2.3,8.347,8.347,0,0,1-2.641,1.01,4.164,4.164,0,0,0-7.09,3.8,11.807,11.807,0,0,1-8.575-4.347,4.165,4.165,0,0,0,1.287,5.555,4.147,4.147,0,0,1-1.885-.521,4.166,4.166,0,0,0,3.337,4.133,4.165,4.165,0,0,1-1.878.07,4.162,4.162,0,0,0,3.886,2.89A8.366,8.366,0,0,1,44.444,153.907Z" transform="translate(-44.444 -139.296)"/></svg>