<svg xmlns="http://www.w3.org/2000/svg" width="16.379" height="16.379" viewBox="0 0 16.379 16.379">
  <g id="completed" transform="translate(-26 -256.621)">
    <g id="Group_2036" data-name="Group 2036" transform="translate(29.94 261.911)">
      <g id="Group_802" data-name="Group 802">
        <path id="Path_10661" data-name="Path 10661" d="M131.5,165.571a.664.664,0,0,0-.939-.025l-4.239,4.02L124.3,167.49a.664.664,0,0,0-.951.926l2.479,2.545a.664.664,0,0,0,.933.019l4.714-4.471A.664.664,0,0,0,131.5,165.571Z" transform="translate(-123.158 -165.364)" fill="#006aa6"/>
      </g>
    </g>
    <path id="Path_12680" data-name="Path 12680" d="M8.189,0a8.189,8.189,0,1,0,8.189,8.189A8.2,8.2,0,0,0,8.189,0Zm0,15.051a6.861,6.861,0,1,1,6.861-6.861A6.869,6.869,0,0,1,8.189,15.051Z" transform="translate(26 256.621)" fill="#006aa6"/>
  </g>
</svg>
