<?xml version="1.0" encoding="utf-8"?>
<!-- Generator: Adobe Illustrator 23.0.1, SVG Export Plug-In . SVG Version: 6.00 Build 0)  -->
<svg version="1.1" id="Layer_1" xmlns="http://www.w3.org/2000/svg" xmlns:xlink="http://www.w3.org/1999/xlink" x="0px" y="0px"
	 viewBox="0 0 512 512" style="enable-background:new 0 0 512 512;" xml:space="preserve">
<style type="text/css">
	.st0{fill:#E50019;}
</style>
<g id="Group_37802" transform="translate(0 0)">
	<g id="right-arrow_1_" transform="translate(0 11.646) rotate(-90)">
		<g id="Group_37754_1_">
			<path id="Path_43227_1_" class="st0" d="M-52.3,231.8L-52.3,231.8l-178.9-178c-13.8-13-35.4-12.3-48.4,1.4
				c-12.5,13.2-12.4,33.9,0.1,47.1l120.1,119.5l-265.7-2c-18.9,0-34.2,15.3-34.3,34.2s15.3,34.2,34.2,34.3c0,0,0,0,0,0l265.7,2
				l-120.1,119.5c-13,13.7-12.5,35.4,1.2,48.4c13.2,12.6,33.9,12.6,47.1,0.1l178.8-178.1l0,0C-39,266.8-39,245.2-52.3,231.8z"/>
		</g>
	</g>
</g>
</svg>
