<?xml version="1.0" encoding="utf-8"?>
<!-- Generator: Adobe Illustrator 23.0.1, SVG Export Plug-In . SVG Version: 6.00 Build 0)  -->
<svg version="1.1" id="Layer_2" xmlns="http://www.w3.org/2000/svg" xmlns:xlink="http://www.w3.org/1999/xlink" x="0px" y="0px"
	 viewBox="0 0 512 512" style="enable-background:new 0 0 512 512;" xml:space="preserve">
<style type="text/css">
	.st0{fill:#F4F4F4;}
	.st1{display:none;fill:#3CB446;}
	.st2{fill:#3CB446;}
</style>
<circle class="st0" cx="256.9" cy="256" r="235.8"/>
<g id="Capa_1">
	<g>
		<g>
			<g>
				<g>
					<path class="st1" d="M256.9,454.9c109.9,0,198.9-89.1,198.9-198.9S366.8,57,256.9,57S58,146.1,58,256S147.1,454.9,256.9,454.9z
						 M256.9,81.9C353.1,81.9,431,159.8,431,256S353.1,430,256.9,430S82.9,352.1,82.9,256S160.8,81.9,256.9,81.9z"/>
					<path class="st2" d="M244.5,161.6v231.1h24.9V161.6l65.8,65.9l17.7-17.7l-87-87c-4.8-4.8-12.7-4.8-17.5,0l-87,87l17.5,17.5
						L244.5,161.6z"/>
				</g>
			</g>
		</g>
	</g>
</g>
</svg>
