<?xml version="1.0"?>
<svg xmlns="http://www.w3.org/2000/svg" xmlns:xlink="http://www.w3.org/1999/xlink" version="1.1" id="Capa_1" x="0px" y="0px" viewBox="0 0 54 54" style="enable-background:new 0 0 54 54;" xml:space="preserve" width="512px" height="512px"><g transform="matrix(-1, 1.22465e-16, -1.22465e-16, -1, 54, 54)"><g>
	<path d="M27,0C12.112,0,0,12.112,0,27s12.112,27,27,27s27-12.112,27-27S41.888,0,27,0z M27,52C13.215,52,2,40.785,2,27   S13.215,2,27,2s25,11.215,25,25S40.785,52,27,52z" data-original="#000000" class="active-path" data-old_color="#000000" fill="#069E40"/>
	<path d="M28,38.086V13.5c0-0.553-0.448-1-1-1s-1,0.447-1,1v24.586l-8.293-8.293l-1.414,1.414L27,41.914l10.707-10.707l-1.414-1.414   L28,38.086z" data-original="#000000" class="active-path" data-old_color="#000000" fill="#069E40"/>
</g></g> </svg>
