<svg id="Group_39340" data-name="Group 39340" xmlns="http://www.w3.org/2000/svg" width="33.857" height="27.55" viewBox="0 0 33.857 27.55">
  <g id="valid">
    <path id="Path_43224" data-name="Path 43224" d="M.5,7.3A3.769,3.769,0,0,1,4.237,3.5H30.62a3.769,3.769,0,0,1,3.738,3.8v8.292a.806.806,0,0,1-1.612,0V7.3A2.157,2.157,0,0,0,30.62,5.112H4.237A2.157,2.157,0,0,0,2.112,7.3V22.271a2.157,2.157,0,0,0,2.125,2.188H15.816a.806.806,0,0,1,0,1.612H4.237A3.769,3.769,0,0,1,.5,22.271Z" transform="translate(-0.5 -3.5)" fill="#007c3d" fill-rule="evenodd"/>
    <path id="Path_43225" data-name="Path 43225" d="M.5,7.306A.806.806,0,0,1,1.306,6.5H33.551a.806.806,0,1,1,0,1.612H1.306A.806.806,0,0,1,.5,7.306Z" transform="translate(-0.5 -1.663)" fill="#007c3d" fill-rule="evenodd"/>
    <path id="Path_43233" data-name="Path 43233" d="M2.5,12.306a.806.806,0,0,1,.806-.806H6.531a.806.806,0,0,1,0,1.612H3.306A.806.806,0,0,1,2.5,12.306Z" transform="translate(0.725 1.219)" fill="#007c3d" fill-rule="evenodd"/>
    <path id="Path_43234" data-name="Path 43234" d="M2.5,12.306a.806.806,0,0,1,.806-.806h6.807a.806.806,0,0,1,0,1.612H3.306A.806.806,0,0,1,2.5,12.306Z" transform="translate(6.099 1.219)" fill="#007c3d" fill-rule="evenodd"/>
    <path id="Path_43235" data-name="Path 43235" d="M2.5,14.806A.806.806,0,0,1,3.306,14H13.338a.806.806,0,1,1,0,1.612H3.306A.806.806,0,0,1,2.5,14.806Z" transform="translate(0.725 2.749)" fill="#007c3d" fill-rule="evenodd"/>
  </g>
  <path id="down-arrow" d="M6.094,0a.61.61,0,0,0-.609.609V12.767L1.051,8.112a.609.609,0,0,0-.883.84l5.064,5.317a1.218,1.218,0,0,0,1.734-.011L12.02,8.952a.609.609,0,0,0-.882-.84L6.7,12.786V.609A.61.61,0,0,0,6.094,0Z" transform="translate(32.766 27.25) rotate(180)" fill="#007c3d" stroke="#007c3d" stroke-width="0.6"/>
</svg>
