<svg xmlns="http://www.w3.org/2000/svg" width="209.3" height="30" viewBox="0 0 209.3 30">
  <g id="Group_36667" data-name="Group 36667" transform="translate(-1089 -4380)">
    <g id="Group_36666" data-name="Group 36666" transform="translate(1089 4380)">
      <path id="Path_43169" data-name="Path 43169" d="M367.519,415.28h.6l-.557,2.327a.994.994,0,0,0,.047.778.7.7,0,0,0,.635.26,1.1,1.1,0,0,0,.757-.26,1.448,1.448,0,0,0,.42-.778l.558-2.327h.607l-.57,2.384a2.057,2.057,0,0,1-.662,1.163,1.911,1.911,0,0,1-1.245.386,1.249,1.249,0,0,1-1.059-.385,1.384,1.384,0,0,1-.1-1.164Z" transform="translate(-366.874 -389.288)" fill="#424143"/>
      <path id="Path_43170" data-name="Path 43170" d="M373.446,419.009,374.4,415l1.822,2.356c.05.066.1.137.147.213s.1.16.149.255l.64-2.672h.564l-.958,4-1.86-2.4a2.261,2.261,0,0,1-.141-.206,2.189,2.189,0,0,1-.119-.226l-.641,2.68Z" transform="translate(-369.828 -389.163)" fill="#424143"/>
      <path id="Path_43171" data-name="Path 43171" d="M381.1,419.133l.922-3.853h.611l-.922,3.853Z" transform="translate(-373.27 -389.288)" fill="#424143"/>
      <path id="Path_43172" data-name="Path 43172" d="M383.794,419.133l.922-3.853H386.8l-.131.55h-1.475l-.228,1.1h1.478l-.133.551h-1.494l-.395,1.651Z" transform="translate(-374.48 -389.288)" fill="#424143"/>
      <path id="Path_43173" data-name="Path 43173" d="M388.792,419.133l.922-3.853h.611l-.922,3.853Z" transform="translate(-376.726 -389.288)" fill="#424143"/>
      <path id="Path_43174" data-name="Path 43174" d="M391.482,419.133l.922-3.853h2.084l-.131.55h-1.475l-.229,1.1h1.477l-.132.551h-1.477l-.3,1.1H393.7l-.132.55Z" transform="translate(-377.936 -389.288)" fill="#424143"/>
      <path id="Path_43175" data-name="Path 43175" d="M396.519,419.133l.923-3.853h.824a4.939,4.939,0,0,1,1.11.083,1.137,1.137,0,0,1,.508.278,1.178,1.178,0,0,1,.337.655,2.232,2.232,0,0,1-.051.914,2.808,2.808,0,0,1-.386.909,2.3,2.3,0,0,1-.651.654,1.981,1.981,0,0,1-.627.278,4.45,4.45,0,0,1-1,.083h-.988Zm.735-.551h.519a2.8,2.8,0,0,0,.655-.058,1.248,1.248,0,0,0,.419-.2,1.656,1.656,0,0,0,.435-.469,2.227,2.227,0,0,0,.264-.652,1.788,1.788,0,0,0,.048-.652.869.869,0,0,0-.21-.47.719.719,0,0,0-.338-.2,2.87,2.87,0,0,0-.686-.058h-.446Z" transform="translate(-380.2 -389.288)" fill="#424143"/>
      <path id="Path_43176" data-name="Path 43176" d="M407.4,417.482l-.4,1.651h-.584l.923-3.853h.9a2.8,2.8,0,0,1,.615.047.73.73,0,0,1,.312.157.674.674,0,0,1,.2.375,1.208,1.208,0,0,1-.02.52,1.637,1.637,0,0,1-.23.524,1.269,1.269,0,0,1-.378.377,1.227,1.227,0,0,1-.386.156,3.2,3.2,0,0,1-.637.046H407.4Zm.146-.55h.161a1.57,1.57,0,0,0,.722-.116.608.608,0,0,0,.272-.41.42.42,0,0,0-.079-.445,1.1,1.1,0,0,0-.652-.129h-.161Z" transform="translate(-384.653 -389.288)" fill="#424143"/>
      <path id="Path_43177" data-name="Path 43177" d="M413.015,418.943l-.188-1.1h-1.48l-.67,1.1h-.637l2.762-4.087.853,4.087Zm-1.318-1.651h1.041l-.174-.874c-.009-.056-.016-.12-.023-.193s-.01-.153-.014-.242c-.04.083-.081.161-.121.234s-.079.139-.119.2Z" transform="translate(-386.278 -389.097)" fill="#424143"/>
      <path id="Path_43178" data-name="Path 43178" d="M417.894,419.133l.422-1.763-.765-2.09h.641l.475,1.308c.011.034.024.077.039.132s.03.113.043.176c.039-.061.078-.119.118-.174a1.909,1.909,0,0,1,.119-.15l1.117-1.292h.611l-1.795,2.09-.421,1.763Z" transform="translate(-389.655 -389.288)" fill="#424143"/>
      <path id="Path_43179" data-name="Path 43179" d="M425.8,417.126c0-.029.009-.111.026-.246.013-.112.023-.2.031-.278a2.66,2.66,0,0,1-.128.262,3.076,3.076,0,0,1-.169.267l-1.466,2.042-.478-2.084c-.02-.086-.036-.168-.047-.249s-.017-.16-.02-.238q-.031.121-.08.253t-.116.276l-.852,1.887h-.559l1.839-3.994.523,2.419c.008.039.019.1.033.19s.029.2.047.33q.092-.165.269-.419l.07-.1,1.655-2.416-.053,3.994h-.564Z" transform="translate(-391.628 -389.173)" fill="#424143"/>
      <path id="Path_43180" data-name="Path 43180" d="M430.538,419.133l.922-3.853h2.084l-.132.55h-1.474l-.231,1.1h1.479l-.133.551h-1.476l-.3,1.1h1.476l-.132.55Z" transform="translate(-395.492 -389.288)" fill="#424143"/>
      <path id="Path_43181" data-name="Path 43181" d="M435.571,419.009,436.53,415l1.823,2.356q.074.1.146.213c.048.075.1.16.15.255l.64-2.672h.564l-.958,4-1.86-2.4a2.145,2.145,0,0,1-.14-.206,2.192,2.192,0,0,1-.119-.226l-.641,2.68Z" transform="translate(-397.754 -389.163)" fill="#424143"/>
      <path id="Path_43182" data-name="Path 43182" d="M445.494,415.831l-.791,3.3H444.1l.79-3.3h-1.048l.131-.55h2.695l-.131.55Z" transform="translate(-401.47 -389.288)" fill="#424143"/>
      <path id="Path_43183" data-name="Path 43183" d="M447.99,418.127l.539-.23a.518.518,0,0,0,.16.391.633.633,0,0,0,.437.135.727.727,0,0,0,.466-.155.718.718,0,0,0,.259-.413q.08-.338-.4-.6c-.045-.026-.079-.045-.1-.057a1.88,1.88,0,0,1-.689-.559.806.806,0,0,1-.059-.611,1.312,1.312,0,0,1,.492-.759,1.408,1.408,0,0,1,.882-.291,1.139,1.139,0,0,1,.652.163.62.62,0,0,1,.272.47l-.533.25a.588.588,0,0,0-.183-.265.478.478,0,0,0-.288-.083.686.686,0,0,0-.421.131.6.6,0,0,0-.228.351q-.083.346.479.643l.068.037a1.61,1.61,0,0,1,.638.512.825.825,0,0,1,.057.624,1.5,1.5,0,0,1-.541.865,1.545,1.545,0,0,1-.98.321,1.057,1.057,0,0,1-.729-.226.806.806,0,0,1-.245-.643" transform="translate(-403.337 -389.151)" fill="#424143"/>
      <path id="Path_43184" data-name="Path 43184" d="M456.131,419.133l.922-3.853h.611l-.923,3.853Z" transform="translate(-406.996 -389.288)" fill="#424143"/>
      <path id="Path_43185" data-name="Path 43185" d="M458.8,419.009l.959-4.006,1.823,2.356c.048.066.1.137.146.213s.1.16.149.255l.639-2.672h.565l-.958,4-1.861-2.4a2.235,2.235,0,0,1-.139-.206,2.195,2.195,0,0,1-.12-.226l-.641,2.68Z" transform="translate(-408.198 -389.163)" fill="#424143"/>
      <path id="Path_43186" data-name="Path 43186" d="M468.726,415.831l-.791,3.3h-.607l.79-3.3H467.07l.131-.55h2.7l-.131.55Z" transform="translate(-411.914 -389.288)" fill="#424143"/>
      <path id="Path_43187" data-name="Path 43187" d="M471.273,419.133l.923-3.853h2.084l-.132.55h-1.474l-.231,1.1h1.478l-.132.551h-1.476l-.3,1.1h1.476l-.132.55Z" transform="translate(-413.803 -389.288)" fill="#424143"/>
      <path id="Path_43188" data-name="Path 43188" d="M477.311,417.482l-.4,1.651h-.6l.923-3.853h.852a2.4,2.4,0,0,1,.569.05.681.681,0,0,1,.313.165.669.669,0,0,1,.183.361,1.143,1.143,0,0,1-.021.484,1.4,1.4,0,0,1-.391.726,1.236,1.236,0,0,1-.719.314l.875,1.753h-.718l-.8-1.651Zm.145-.55h.11a1.366,1.366,0,0,0,.668-.115.621.621,0,0,0,.256-.409.442.442,0,0,0-.063-.447.939.939,0,0,0-.6-.13h-.11Z" transform="translate(-416.069 -389.288)" fill="#424143"/>
      <path id="Path_43189" data-name="Path 43189" d="M481.642,419.133l.922-3.853h2.084l-.131.55h-1.475l-.228,1.1h1.477l-.132.551h-1.494l-.4,1.651Z" transform="translate(-418.464 -389.288)" fill="#424143"/>
      <path id="Path_43190" data-name="Path 43190" d="M488.343,418.943l-.188-1.1h-1.48l-.67,1.1h-.637l2.762-4.087.853,4.087Zm-1.318-1.651h1.041l-.174-.874c-.008-.056-.016-.12-.023-.193s-.01-.153-.013-.242c-.041.083-.081.161-.122.234s-.079.139-.118.2Z" transform="translate(-420.139 -389.097)" fill="#424143"/>
      <path id="Path_43191" data-name="Path 43191" d="M496.286,415.989a1.331,1.331,0,0,0-.464-.337,1.418,1.418,0,0,0-.576-.113,1.652,1.652,0,0,0-1.092.4,1.9,1.9,0,0,0-.634,1.044,1.228,1.228,0,0,0,.129,1.023.958.958,0,0,0,.846.4,1.907,1.907,0,0,0,.66-.121,2.7,2.7,0,0,0,.662-.364l-.168.7a2.289,2.289,0,0,1-1.244.359,1.868,1.868,0,0,1-.757-.144,1.3,1.3,0,0,1-.537-.424,1.4,1.4,0,0,1-.265-.648,2.039,2.039,0,0,1,.044-.794,2.57,2.57,0,0,1,.336-.791,2.677,2.677,0,0,1,.58-.651,2.561,2.561,0,0,1,.74-.428,2.327,2.327,0,0,1,.813-.145,1.787,1.787,0,0,1,.6.1,1.6,1.6,0,0,1,.508.3Z" transform="translate(-423.49 -389.147)" fill="#424143"/>
      <path id="Path_43192" data-name="Path 43192" d="M499.216,419.133l.922-3.853h2.084l-.131.55h-1.475l-.229,1.1h1.477l-.132.551h-1.477l-.3,1.1h1.476l-.132.55Z" transform="translate(-426.364 -389.288)" fill="#424143"/>
      <path id="Path_43193" data-name="Path 43193" d="M475.708,392.2h-4.165l5.792-20.918H481.5Z" transform="translate(-413.924 -369.509)" fill="#6e6f71"/>
      <path id="Path_43194" data-name="Path 43194" d="M450.632,371.88a1.547,1.547,0,0,0-1.342-.6H426.767l-1.067,3.853h20.683l-1.219,4.4h-17v.551h-4.229L420.582,392.2h4.141l2.287-8.257H445.8a2.669,2.669,0,0,0,1.656-.6,2.789,2.789,0,0,0,1.022-1.484l2.324-8.4a1.7,1.7,0,0,0-.174-1.514" transform="translate(-391.017 -369.509)" fill="#6e6f71"/>
      <path id="Path_43195" data-name="Path 43195" d="M395.692,390.794a1.918,1.918,0,0,1-1.848,1.4H372.4a1.5,1.5,0,0,1-1.3-.6,1.662,1.662,0,0,1-.184-1.478l5.235-18.843h4.079l-4.74,17.065h16.88L397.1,371.28h4.01Z" transform="translate(-368.648 -369.509)" fill="#6e6f71"/>
      <path id="Path_43196" data-name="Path 43196" d="M497.987,371.059l5.285,10.508-11.108,10.506Z" transform="translate(-423.194 -369.41)" fill="#018c45"/>
      <path id="Path_43197" data-name="Path 43197" d="M491.251,371.059l5.28,10.508L485.42,392.073Z" transform="translate(-420.162 -369.41)" fill="#f47920"/>
      <text id="AUTOPAY" transform="translate(82.3 22)" fill="#6e6f71" font-size="29" font-family="Helvetica-Bold, Helvetica" font-weight="700"><tspan x="0" y="0" letter-spacing="-0.025em">AU</tspan><tspan y="0" letter-spacing="-0.042em">T</tspan><tspan y="0" letter-spacing="-0.024em">O</tspan><tspan y="0" letter-spacing="-0.098em">P</tspan><tspan y="0" letter-spacing="-0.116em">A</tspan><tspan y="0">Y</tspan></text>
    </g>
  </g>
</svg>
