<?xml version="1.0" encoding="utf-8"?>
<!-- Generator: Adobe Illustrator 23.0.1, SVG Export Plug-In . SVG Version: 6.00 Build 0)  -->
<svg version="1.1" id="Layer_1" xmlns="http://www.w3.org/2000/svg" xmlns:xlink="http://www.w3.org/1999/xlink" x="0px" y="0px"
	 viewBox="0 0 24.5 24.5" style="enable-background:new 0 0 24.5 24.5;" xml:space="preserve">
<style type="text/css">
	.st0{fill:#0B7432;}
</style>
<g transform="translate(-61.75 -368.75)">
	<g transform="translate(62 369)">
		<path class="st0" d="M18,12c-3.3,0-6-2.7-6-6s2.7-6,6-6s6,2.7,6,6C24,9.3,21.3,12,18,12z M18,1c-2.7,0-5,2.2-5,4.9
			c0,0,0,0.1,0,0.1c0,2.8,2.2,5,5,5s5-2.2,5-5C23,3.3,20.8,1,18,1C18.1,1,18,1,18,1z"/>
		<path class="st0" d="M11,24h-0.4c-3.2-0.1-6.1-1.5-8.1-4C0.9,18,0,15.5,0,13c0-2.6,0.9-5,2.5-7c1.9-2.3,4.7-3.8,7.7-4
			c0.3,0,0.5,0.2,0.5,0.4c0,0,0,0,0,0.1c0,0.3-0.2,0.5-0.4,0.5c0,0,0,0-0.1,0C7.5,3.2,5,4.5,3.2,6.6C1.8,8.4,1,10.7,1,13
			c0,2.3,0.8,4.6,2.3,6.4c1.8,2.2,4.5,3.5,7.4,3.6h0.6c2.9-0.1,5.6-1.4,7.4-3.6c1.3-1.6,2.1-3.6,2.3-5.7c0-0.3,0.2-0.5,0.5-0.5
			s0.5,0.2,0.5,0.5c-0.1,2.3-1,4.5-2.5,6.2c-2,2.4-5,3.9-8.1,4C11.3,24,11.1,24,11,24z"/>
		<path class="st0" d="M9.9,9L9.9,9C8.3,8.8,6.8,8.5,5.3,8C4.4,7.6,3.5,7.2,2.7,6.7C2.4,6.6,2.4,6.3,2.5,6C2.7,5.8,3,5.7,3.2,5.9
			c0,0,0,0,0,0c0.7,0.5,1.6,0.9,2.4,1.2C7,7.6,8.4,7.9,9.9,8c0.3,0,0.5,0.2,0.5,0.5C10.3,8.8,10.1,9,9.9,9z"/>
		<path class="st0" d="M19.1,20.2c-0.1,0-0.2,0-0.3-0.1c-0.7-0.5-1.6-0.9-2.4-1.2c-3.4-1.3-7.3-1.3-10.7,0c-0.9,0.3-1.7,0.7-2.4,1.2
			C3,20.3,2.7,20.2,2.5,20c-0.1-0.2,0-0.6,0.2-0.7c0.8-0.5,1.7-0.9,2.6-1.3c3.7-1.3,7.7-1.3,11.4,0c0.9,0.3,1.8,0.8,2.6,1.3
			c0.2,0.2,0.3,0.4,0.2,0.7C19.4,20.1,19.3,20.2,19.1,20.2z"/>
		<path class="st0" d="M11,24h-0.4c-2.3-0.2-4.4-2.2-5.6-5.3c-0.7-1.8-1-3.8-1-5.7c0-1.9,0.3-3.9,1-5.7C6.1,4.4,8,2.5,10.1,2
			c0.3-0.1,0.5,0.1,0.6,0.4S10.6,2.9,10.3,3C8.5,3.4,6.9,5.1,5.9,7.7C5.3,9.4,5,11.2,5,13c0,1.8,0.3,3.6,0.9,5.3
			c1,2.8,2.8,4.5,4.8,4.7h0.6c1.9-0.2,3.7-1.9,4.8-4.7c0.5-1.3,0.8-2.6,0.9-3.9c0-0.3,0.2-0.5,0.5-0.5s0.5,0.2,0.5,0.5
			c-0.1,1.4-0.4,2.8-0.9,4.1c-1.2,3.1-3.3,5.1-5.6,5.3C11.2,24,11.1,24,11,24z"/>
		<path class="st0" d="M11,24c-0.3,0-0.5-0.2-0.5-0.4c0,0,0,0,0-0.1V10.8c0-0.3,0.2-0.5,0.5-0.5s0.5,0.2,0.5,0.5v12.7
			C11.5,23.8,11.3,24,11,24C11,24,11,24,11,24z"/>
		<path class="st0" d="M13.2,13.5H0.5C0.2,13.5,0,13.3,0,13s0.2-0.5,0.5-0.5h12.7c0.3,0,0.5,0.2,0.5,0.5S13.5,13.5,13.2,13.5z"/>
	</g>
	<path class="st0" d="M78.3,372.6h3.1c0,0,0,0,0,0v0.3c0,0,0,0,0,0c0,0,0,0,0,0h-1.2v0c0.2,0.1,0.3,0.3,0.4,0.6l0,0.1h0.8
		c0,0,0,0,0,0v0.3c0,0,0,0,0,0c0,0,0,0,0,0h-0.7c0,0.4-0.3,0.8-0.6,1c-0.2,0.2-0.5,0.3-0.8,0.3c0,0,0,0,0,0l1.7,2.2v0h-0.6
		c0,0-0.7-0.8-2-2.5v0h0.2c0.7,0,1.1-0.3,1.3-0.8c0,0,0-0.1,0-0.1v0h-1.6c0,0,0,0,0,0c0,0,0,0,0,0v-0.3c0,0,0,0,0,0h1.6
		c-0.1-0.2-0.2-0.4-0.3-0.5c-0.2-0.1-0.4-0.2-0.7-0.2h-0.6c0,0,0,0,0,0c0,0,0,0,0,0L78.3,372.6C78.3,372.7,78.3,372.6,78.3,372.6z"
		/>
</g>
</svg>
