<svg xmlns="http://www.w3.org/2000/svg" viewBox="0 0 24.5 24.5">
    <defs>
        <style>g{fill:rgba(0, 0, 0, 0.5);}</style>
    </defs>
    <g transform="translate(-61.75 -368.75)">
        <g transform="translate(62 369)">
            <path class="a" d="M18,12a6,6,0,1,1,6-6A6.018,6.018,0,0,1,18,12ZM18,1a4.951,4.951,0,0,0-5,5A5,5,0,0,0,23,6,4.951,4.951,0,0,0,18,1Z" />
            <path
                class="a"
                d="M11,24h-.4a10.8,10.8,0,0,1-8.1-4A11.309,11.309,0,0,1,0,13,11.1,11.1,0,0,1,2.5,6a10.851,10.851,0,0,1,7.7-4,.472.472,0,0,1,.5.5.472.472,0,0,1-.5.5,10.223,10.223,0,0,0-7,3.6A10.334,10.334,0,0,0,1,13a9.851,9.851,0,0,0,2.3,6.4A9.97,9.97,0,0,0,10.7,23h.6a9.97,9.97,0,0,0,7.4-3.6A10.658,10.658,0,0,0,21,13.7a.5.5,0,1,1,1,0,10.684,10.684,0,0,1-2.5,6.2,11.149,11.149,0,0,1-8.1,4A.756.756,0,0,1,11,24Z"
            />
            <path class="a" d="M9.9,9h0A20.737,20.737,0,0,1,5.3,8,21.017,21.017,0,0,1,2.7,6.7c-.3-.1-.3-.4-.2-.7a.483.483,0,0,1,.7-.1A10.775,10.775,0,0,0,5.6,7.1,20.538,20.538,0,0,0,9.9,8a.536.536,0,0,1,.5.5C10.3,8.8,10.1,9,9.9,9Z" />
            <path
                class="a"
                d="M19.1,20.2a.367.367,0,0,1-.3-.1,10.775,10.775,0,0,0-2.4-1.2,15.166,15.166,0,0,0-10.7,0,8.989,8.989,0,0,0-2.4,1.2.586.586,0,0,1-.8-.1.527.527,0,0,1,.2-.7A21.016,21.016,0,0,1,5.3,18a17.149,17.149,0,0,1,11.4,0,12.638,12.638,0,0,1,2.6,1.3.618.618,0,0,1,.2.7.758.758,0,0,1-.4.2Z"
            />
            <path
                class="a"
                d="M11,24h-.4c-2.3-.2-4.4-2.2-5.6-5.3A15.19,15.19,0,0,1,4,13,15.19,15.19,0,0,1,5,7.3C6.1,4.4,8,2.5,10.1,2c.3-.1.5.1.6.4s-.1.5-.4.6c-1.8.4-3.4,2.1-4.4,4.7A15.12,15.12,0,0,0,5,13a15.12,15.12,0,0,0,.9,5.3c1,2.8,2.8,4.5,4.8,4.7h.6c1.9-.2,3.7-1.9,4.8-4.7a15.886,15.886,0,0,0,.9-3.9.5.5,0,0,1,1,0,12.976,12.976,0,0,1-.9,4.1c-1.2,3.1-3.3,5.1-5.6,5.3-.3.2-.4.2-.5.2Z"
            />
            <path class="a" d="M11,24a.472.472,0,0,1-.5-.5V10.8a.5.5,0,0,1,1,0V23.5A.472.472,0,0,1,11,24Z" />
            <path class="a" d="M13.2,13.5H.5a.5.5,0,0,1,0-1H13.2a.5.5,0,0,1,0,1Z" />
        </g>
        <path
            class="b"
            d="M.329-14.355H3.465q.027,0,.027.027v.3A.023.023,0,0,1,3.465-14H2.285v.027a.923.923,0,0,1,.391.557l.013.1h.776q.027,0,.027.027v.3a.023.023,0,0,1-.027.027H2.719A1.291,1.291,0,0,1,2.106-12a1.929,1.929,0,0,1-.772.312q0,.013-.027.013L2.991-9.492v.027h-.64Q2.341-9.466.4-12v-.013H.6q1.074,0,1.29-.772a1.107,1.107,0,0,0,.013-.149v-.04H.329A.023.023,0,0,1,.3-13v-.3q0-.027.027-.027H1.891a.866.866,0,0,0-.338-.491A1.42,1.42,0,0,0,.9-14H.329A.023.023,0,0,1,.3-14.031v-.3Q.306-14.355.329-14.355Z"
            transform="translate(78 387)"
        />
    </g>
</svg>
