<svg xmlns="http://www.w3.org/2000/svg" width="59.661" height="8.625" viewBox="0 0 59.661 8.625">
  <g id="Group_36682" data-name="Group 36682" transform="translate(-1089 -4380)">
    <g id="Group_36666" data-name="Group 36666" transform="translate(1089 4380)">
      <path id="Path_43169" data-name="Path 43169" d="M367.059,415.28h.172l-.16.669a.286.286,0,0,0,.013.224.2.2,0,0,0,.183.075.317.317,0,0,0,.218-.075.416.416,0,0,0,.121-.224l.16-.669h.174l-.164.685a.591.591,0,0,1-.19.334.549.549,0,0,1-.358.111.359.359,0,0,1-.3-.111.4.4,0,0,1-.029-.335Z" transform="translate(-366.874 -407.807)" fill="#424143"/>
      <path id="Path_43170" data-name="Path 43170" d="M373.446,416.155l.276-1.152.524.677c.014.019.028.039.042.061s.028.046.043.073l.184-.768h.162L374.4,416.2l-.535-.689a.655.655,0,0,1-.041-.059.618.618,0,0,1-.034-.065l-.184.77Z" transform="translate(-372.406 -407.574)" fill="#424143"/>
      <path id="Path_43171" data-name="Path 43171" d="M381.1,416.388l.265-1.108h.176l-.265,1.108Z" transform="translate(-378.851 -407.807)" fill="#424143"/>
      <path id="Path_43172" data-name="Path 43172" d="M383.794,416.388l.265-1.108h.6l-.038.158H384.2l-.066.317h.425l-.038.158h-.43l-.114.475Z" transform="translate(-381.116 -407.807)" fill="#424143"/>
      <path id="Path_43173" data-name="Path 43173" d="M388.792,416.388l.265-1.108h.176l-.265,1.108Z" transform="translate(-385.323 -407.807)" fill="#424143"/>
      <path id="Path_43174" data-name="Path 43174" d="M391.482,416.388l.265-1.108h.6l-.038.158h-.424l-.066.317h.425l-.038.158h-.424l-.085.317h.424l-.038.158Z" transform="translate(-387.588 -407.807)" fill="#424143"/>
      <path id="Path_43175" data-name="Path 43175" d="M396.519,416.388l.265-1.108h.237a1.419,1.419,0,0,1,.319.024.327.327,0,0,1,.146.08.339.339,0,0,1,.1.188.643.643,0,0,1-.015.263.808.808,0,0,1-.111.261.662.662,0,0,1-.187.188.571.571,0,0,1-.18.08,1.279,1.279,0,0,1-.287.024h-.284Zm.211-.158h.149a.8.8,0,0,0,.188-.017.359.359,0,0,0,.12-.056.477.477,0,0,0,.125-.135.642.642,0,0,0,.076-.188.514.514,0,0,0,.014-.188.249.249,0,0,0-.06-.135.206.206,0,0,0-.1-.057.826.826,0,0,0-.2-.017h-.128Z" transform="translate(-391.827 -407.807)" fill="#424143"/>
      <path id="Path_43176" data-name="Path 43176" d="M406.706,415.913l-.114.475h-.168l.265-1.108h.259a.806.806,0,0,1,.177.014.21.21,0,0,1,.09.045.194.194,0,0,1,.057.108.348.348,0,0,1-.006.149.473.473,0,0,1-.066.151.365.365,0,0,1-.109.108.352.352,0,0,1-.111.045.919.919,0,0,1-.183.013h-.092Zm.042-.158h.046a.452.452,0,0,0,.208-.033.175.175,0,0,0,.078-.118.121.121,0,0,0-.023-.128.318.318,0,0,0-.187-.037h-.046Z" transform="translate(-400.165 -407.807)" fill="#424143"/>
      <path id="Path_43177" data-name="Path 43177" d="M410.9,416.031l-.054-.317h-.425l-.193.317h-.183l.794-1.175.245,1.175Zm-.379-.475h.3l-.05-.251c0-.016,0-.034-.006-.055s0-.044,0-.069c-.012.024-.023.046-.035.067s-.023.04-.034.058Z" transform="translate(-403.208 -407.45)" fill="#424143"/>
      <path id="Path_43178" data-name="Path 43178" d="M417.65,416.388l.121-.507-.22-.6h.184l.136.376.011.038c0,.016.009.032.013.051.011-.018.022-.034.034-.05a.545.545,0,0,1,.034-.043l.321-.371h.176l-.516.6-.121.507Z" transform="translate(-409.531 -407.807)" fill="#424143"/>
      <path id="Path_43179" data-name="Path 43179" d="M423.051,415.628c0-.008,0-.032.007-.071l.009-.08a.772.772,0,0,1-.037.075.891.891,0,0,1-.049.077l-.422.587-.138-.6c-.006-.025-.01-.048-.013-.072s0-.046-.006-.069q-.009.035-.023.073t-.033.079l-.245.543h-.161l.529-1.148.15.7c0,.011.005.029.009.055s.008.057.014.095q.027-.048.077-.12l.02-.03.476-.695-.015,1.148h-.162Z" transform="translate(-413.227 -407.592)" fill="#424143"/>
      <path id="Path_43180" data-name="Path 43180" d="M430.538,416.388l.265-1.108h.6l-.038.158h-.424l-.066.317h.425l-.038.158h-.424l-.085.317h.424l-.038.158Z" transform="translate(-420.462 -407.807)" fill="#424143"/>
      <path id="Path_43181" data-name="Path 43181" d="M435.571,416.155l.276-1.152.524.677c.014.019.028.039.042.061s.028.046.043.073l.184-.768h.162l-.276,1.151-.535-.689a.643.643,0,0,1-.075-.124l-.184.77Z" transform="translate(-424.699 -407.574)" fill="#424143"/>
      <path id="Path_43182" data-name="Path 43182" d="M444.314,415.438l-.227.95h-.174l.227-.95h-.3l.038-.158h.775l-.038.158Z" transform="translate(-431.657 -407.807)" fill="#424143"/>
      <path id="Path_43183" data-name="Path 43183" d="M447.99,415.882l.155-.066a.149.149,0,0,0,.046.112.182.182,0,0,0,.126.039.209.209,0,0,0,.134-.044.207.207,0,0,0,.075-.119q.023-.1-.116-.173l-.03-.016a.541.541,0,0,1-.2-.161.232.232,0,0,1-.017-.176.377.377,0,0,1,.142-.218.4.4,0,0,1,.254-.084.327.327,0,0,1,.187.047.178.178,0,0,1,.078.135l-.153.072a.169.169,0,0,0-.053-.076.137.137,0,0,0-.083-.024.2.2,0,0,0-.121.038.172.172,0,0,0-.066.1q-.024.1.138.185l.019.011a.463.463,0,0,1,.183.147.237.237,0,0,1,.016.179.432.432,0,0,1-.155.249.444.444,0,0,1-.282.092.3.3,0,0,1-.21-.065.232.232,0,0,1-.07-.185" transform="translate(-435.152 -407.551)" fill="#424143"/>
      <path id="Path_43184" data-name="Path 43184" d="M456.131,416.388l.265-1.108h.176l-.265,1.108Z" transform="translate(-442.005 -407.807)" fill="#424143"/>
      <path id="Path_43185" data-name="Path 43185" d="M458.8,416.155,459.08,415l.524.677c.014.019.028.039.042.061s.028.046.043.073l.184-.768h.162l-.276,1.151-.535-.689a.657.657,0,0,1-.04-.059.638.638,0,0,1-.034-.065l-.184.77Z" transform="translate(-444.255 -407.574)" fill="#424143"/>
      <path id="Path_43186" data-name="Path 43186" d="M467.546,415.438l-.227.95h-.174l.227-.95h-.3l.038-.158h.775l-.038.158Z" transform="translate(-451.213 -407.807)" fill="#424143"/>
      <path id="Path_43187" data-name="Path 43187" d="M471.273,416.388l.265-1.108h.6l-.038.158h-.424l-.066.317h.425l-.038.158h-.424l-.085.317h.424l-.038.158Z" transform="translate(-454.751 -407.807)" fill="#424143"/>
      <path id="Path_43188" data-name="Path 43188" d="M476.6,415.913l-.114.475h-.173l.265-1.108h.245a.692.692,0,0,1,.164.014.2.2,0,0,1,.09.047.192.192,0,0,1,.053.1.329.329,0,0,1-.006.139.4.4,0,0,1-.112.209.355.355,0,0,1-.207.09l.251.5h-.206l-.23-.475Zm.042-.158h.031a.393.393,0,0,0,.192-.033.179.179,0,0,0,.074-.118c.015-.061.009-.1-.018-.128a.27.27,0,0,0-.172-.037h-.032Z" transform="translate(-458.994 -407.807)" fill="#424143"/>
      <path id="Path_43189" data-name="Path 43189" d="M481.642,416.388l.265-1.108h.6l-.038.158h-.424l-.066.317h.425l-.038.158h-.43l-.114.475Z" transform="translate(-463.478 -407.807)" fill="#424143"/>
      <path id="Path_43190" data-name="Path 43190" d="M486.223,416.031l-.054-.317h-.425l-.193.317h-.183l.794-1.175.245,1.175Zm-.379-.475h.3l-.05-.251c0-.016,0-.034-.007-.055s0-.044,0-.069c-.012.024-.023.046-.035.067s-.023.04-.034.058Z" transform="translate(-466.615 -407.45)" fill="#424143"/>
      <path id="Path_43191" data-name="Path 43191" d="M493.819,415.26a.382.382,0,0,0-.133-.1.408.408,0,0,0-.166-.032.475.475,0,0,0-.314.116.545.545,0,0,0-.182.3.353.353,0,0,0,.037.294.275.275,0,0,0,.243.116.548.548,0,0,0,.19-.035.776.776,0,0,0,.19-.1l-.048.2a.658.658,0,0,1-.358.1.537.537,0,0,1-.218-.041.375.375,0,0,1-.154-.122.4.4,0,0,1-.076-.186.586.586,0,0,1,.013-.228.739.739,0,0,1,.1-.227.77.77,0,0,1,.167-.187.734.734,0,0,1,.213-.123.668.668,0,0,1,.234-.042.513.513,0,0,1,.174.028.459.459,0,0,1,.146.085Z" transform="translate(-472.89 -407.543)" fill="#424143"/>
      <path id="Path_43192" data-name="Path 43192" d="M499.216,416.388l.265-1.108h.6l-.038.158h-.424l-.066.317h.425l-.038.158h-.424l-.085.317h.424l-.038.158Z" transform="translate(-478.271 -407.807)" fill="#424143"/>
      <path id="Path_43193" data-name="Path 43193" d="M472.741,377.294h-1.2l1.665-6.014h1.2Z" transform="translate(-454.978 -370.771)" fill="#6e6f71"/>
      <path id="Path_43194" data-name="Path 43194" d="M429.221,371.453a.445.445,0,0,0-.386-.172H422.36l-.307,1.108H428l-.351,1.266h-4.887v.158h-1.216l-.964,3.482h1.19l.657-2.374h5.4a.768.768,0,0,0,.476-.172.8.8,0,0,0,.294-.427l.668-2.414a.49.49,0,0,0-.05-.435" transform="translate(-412.082 -370.771)" fill="#6e6f71"/>
      <path id="Path_43195" data-name="Path 43195" d="M377.971,376.89a.551.551,0,0,1-.531.4h-6.166a.431.431,0,0,1-.375-.172.478.478,0,0,1-.053-.425l1.5-5.417h1.173l-1.363,4.906h4.853l1.363-4.906h1.153Z" transform="translate(-370.195 -370.771)" fill="#6e6f71"/>
      <path id="Path_43196" data-name="Path 43196" d="M493.838,371.059l1.519,3.021-3.193,3.02Z" transform="translate(-472.335 -370.585)" fill="#018c45"/>
      <path id="Path_43197" data-name="Path 43197" d="M487.1,371.059l1.518,3.021-3.195,3.02Z" transform="translate(-466.658 -370.585)" fill="#f47920"/>
      <text id="AUTOPAY" transform="translate(23.661 6)" fill="#6e6f71" font-size="8" font-family="Helvetica-Bold, Helvetica" font-weight="700"><tspan x="0" y="0" letter-spacing="-0.025em">AU</tspan><tspan y="0" letter-spacing="-0.042em">T</tspan><tspan y="0" letter-spacing="-0.024em">O</tspan><tspan y="0" letter-spacing="-0.098em">P</tspan><tspan y="0" letter-spacing="-0.116em">A</tspan><tspan y="0">Y</tspan></text>
    </g>
  </g>
</svg>
