<?xml version="1.0" encoding="utf-8"?>
<!-- Generator: Adobe Illustrator 23.0.1, SVG Export Plug-In . SVG Version: 6.00 Build 0)  -->
<svg version="1.1" id="Layer_1" xmlns:svgjs="http://svgjs.com/svgjs"
	 xmlns="http://www.w3.org/2000/svg" xmlns:xlink="http://www.w3.org/1999/xlink" x="0px" y="0px" viewBox="0 0 512 512"
	 style="enable-background:new 0 0 512 512;" xml:space="preserve">
<style type="text/css">
	.st0{fill:#007C3D;}
</style>
<g>
	<g>
		<g>
			<path class="st0" d="M844.2,354.4c-152.3,0-236.2,72.1-236.2,202.9c0,10.2,8.3,18.5,18.5,18.5H1062c10.2,0,18.5-8.3,18.5-18.5
				C1080.4,426.4,996.5,354.4,844.2,354.4z M645.7,538.8c7.3-97.8,74-147.4,198.5-147.4s191.3,49.6,198.6,147.4H645.7z"/>
		</g>
	</g>
	<g>
		<g>
			<path class="st0" d="M844.2,68.8c-70,0-122.7,53.8-122.7,125.2c0,73.5,55.1,133.2,122.7,133.2S966.9,267.4,966.9,194
				C966.9,122.6,914.2,68.8,844.2,68.8z M844.2,290.2c-47.3,0-85.7-43.2-85.7-96.2c0-51.1,36.1-88.2,85.7-88.2
				c48.9,0,85.7,37.9,85.7,88.2C929.9,247.1,891.5,290.2,844.2,290.2z"/>
		</g>
	</g>
</g>
<g transform="translate(0)">
	<g transform="translate(0)">
		<path class="st0" d="M411.8,324.5c-23.6-23.7-52.2-41.6-83.7-52.5c58-39.8,72.7-119.1,32.9-177s-119-72.7-177-32.9
			S111.3,181.2,151,239.2c8.9,12.8,20,24,32.9,32.9C95.2,302.9,35.8,386.5,35.8,480.3h34.4c0-102.6,83.2-185.8,185.9-185.8
			c102.6,0,185.8,83.2,185.8,185.8h34.4C476.5,421.9,453.3,365.8,411.8,324.5z M256,260c-51.3,0-93-41.6-93-92.9s41.5-93,92.8-93
			s93,41.6,93,92.9v0.1C348.8,218.4,307.3,259.9,256,260z"/>
	</g>
</g>
</svg>
