<svg id="username" xmlns="http://www.w3.org/2000/svg" width="16.696" height="16" viewBox="0 0 16.696 16">
  <path id="Path_28096" data-name="Path 28096" d="M88.81,6.956a3.478,3.478,0,1,1,3.478-3.478A3.482,3.482,0,0,1,88.81,6.956Zm0-5.913a2.435,2.435,0,1,0,2.435,2.435A2.438,2.438,0,0,0,88.81,1.043Zm0,0" transform="translate(-82.549)" fill="#37474f"/>
  <path id="Path_28097" data-name="Path 28097" d="M325.044,346.2h-3.826A1.219,1.219,0,0,1,320,344.984V342.55a1.219,1.219,0,0,1,1.217-1.217h3.826a1.219,1.219,0,0,1,1.217,1.217v2.435A1.219,1.219,0,0,1,325.044,346.2Zm-3.826-3.826a.174.174,0,0,0-.174.174v2.435a.174.174,0,0,0,.174.174h3.826a.174.174,0,0,0,.174-.174V342.55a.174.174,0,0,0-.174-.174Zm0,0" transform="translate(-309.565 -330.202)" fill="#37474f"/>
  <path id="Path_28098" data-name="Path 28098" d="M365.624,259.826H363.19a.522.522,0,0,1-.522-.522v-1.565a1.739,1.739,0,0,1,3.478,0V259.3A.522.522,0,0,1,365.624,259.826Zm-1.913-1.044H365.1v-1.043a.7.7,0,1,0-1.391,0Zm0,0" transform="translate(-350.842 -247.652)" fill="#37474f"/>
  <path id="Path_28099" data-name="Path 28099" d="M8.7,262.261H.522A.522.522,0,0,1,0,261.739V259.3A3.308,3.308,0,0,1,3.3,256H9.391a3.3,3.3,0,0,1,1.655.445.522.522,0,1,1-.525.9,2.254,2.254,0,0,0-1.13-.3H3.3A2.264,2.264,0,0,0,1.043,259.3v1.913H8.7a.522.522,0,0,1,0,1.043Zm0,0" transform="translate(0 -247.652)" fill="#37474f"/>
</svg>
