<svg xmlns="http://www.w3.org/2000/svg" xmlns:xlink="http://www.w3.org/1999/xlink" width="183.561" height="209.162" viewBox="0 0 183.561 209.162"><defs><style>.a{fill:none;}.b{clip-path:url(#a);}.c{opacity:0.032;}.d{clip-path:url(#c);}.e,.r{fill:#3c415e;}.e,.f{fill-rule:evenodd;}.f{fill:#52298a;}.g{fill:#ffd844;}.h{fill:#f6af00;}.i{fill:#007c3d;}.j{fill:#015f2f;}.k{fill:#fff8d3;}.l{fill:#ffd800;}.m{fill:#ffda32;}.n{fill:#00b256;}.o{fill:#00663e;}.p{fill:#aaff6e;}.q{fill:#faf9f9;}.s{fill:#ff666a;}.t{fill:#fcc072;}.u{fill:#fb7668;}.v{fill:#fccb95;}.w{fill:#ffe1bd;}.x{fill:#ffd200;}.y{opacity:0.1;}.z{clip-path:url(#d);}.aa{fill:#738598;}.ab{clip-path:url(#e);}.ac{fill:#fff;}.ad{clip-path:url(#f);}.ae{clip-path:url(#g);}.af{clip-path:url(#h);}.ag{clip-path:url(#i);}.ah{clip-path:url(#j);}.ai{fill:#04659b;}</style><clipPath id="a"><rect class="a" width="183.561" height="209.162"/></clipPath><clipPath id="c"><rect class="a" width="183.561" height="10.712"/></clipPath><clipPath id="d"><rect class="a" width="17.969" height="17.969"/></clipPath><clipPath id="e"><rect class="a" width="21.377" height="21.572"/></clipPath><clipPath id="f"><rect class="a" width="16.427" height="16.427"/></clipPath><clipPath id="g"><rect class="a" width="21.492" height="27.29"/></clipPath><clipPath id="h"><rect class="a" width="12.546" height="7.822"/></clipPath><clipPath id="i"><rect class="a" width="19.209" height="27.505"/></clipPath><clipPath id="j"><rect class="a" width="20.994" height="18.232"/></clipPath></defs><g class="b"><g transform="translate(0 0.001)"><g class="b"><g class="c" transform="translate(0 198.449)"><g class="d"><path d="M183.561,1287.554c0,2.958-41.092,5.356-91.781,5.356S0,1290.512,0,1287.554s41.092-5.356,91.781-5.356,91.781,2.4,91.781,5.356" transform="translate(0 -1282.198)"/></g></g><path class="e" d="M227.858,686.811l-1.327.828c-.464-.751-.92-1.508-1.355-2.277l1.359-.773c.425.75.87,1.489,1.323,2.222" transform="translate(-190.325 -578.633)"/><path class="e" d="M244.084,712.2l-1.265.92c-.521-.713-1.023-1.439-1.515-2.172l1.3-.869c.481.716.971,1.426,1.48,2.121" transform="translate(-203.957 -600.18)"/><path class="e" d="M262.055,736.313l-1.186,1.019c-.58-.675-1.136-1.363-1.68-2.06l1.235-.96c.53.679,1.072,1.35,1.631,2" transform="translate(-219.073 -620.662)"/><path class="e" d="M192.214,604.271l-1.491.473c-.143-.42-.256-.851-.384-1.277s-.237-.857-.347-1.288l1.516-.385c.106.416.209.833.335,1.243s.232.827.371,1.234" transform="translate(-160.586 -508.653)"/><path class="e" d="M201.54,632.711l-1.44.61c-.172-.408-.347-.815-.5-1.23s-.328-.824-.473-1.243l1.469-.536c.14.406.3.8.458,1.206s.322.8.489,1.194" transform="translate(-168.305 -532.756)"/><path class="e" d="M213.488,660.138l-1.385.726-.6-1.181-.577-1.2,1.416-.664.561,1.163Z" transform="translate(-178.278 -556.011)"/><path class="e" d="M185.994,513.9l-1.537-.291.059-.342.085-.339.173-.677a6.378,6.378,0,0,1,.211-.668l.232-.663,1.456.571-.205.59a5.28,5.28,0,0,0-.189.6l-.155.607-.077.3Z" transform="translate(-155.908 -431.842)"/><path class="e" d="M184.023,544.983l-1.561.092c-.015-.454-.042-.906-.044-1.361.013-.457.016-.913.041-1.37l1.561.1c-.023.421-.024.845-.037,1.267,0,.423.029.848.042,1.272" transform="translate(-154.184 -458.405)"/><path class="e" d="M186.019,574.877l-1.533.308-.24-1.316c-.078-.439-.13-.883-.2-1.324l1.551-.205c.064.424.113.85.188,1.271Z" transform="translate(-155.564 -483.758)"/><path class="e" d="M244.765,452.549l-.676-1.41c.813-.4,1.647-.732,2.483-1.054l.548,1.465c-.8.307-1.591.624-2.355,1" transform="translate(-206.311 -380.424)"/><path class="e" d="M218.142,466.223l-.987-1.213a6.76,6.76,0,0,1,.547-.423l.558-.407c.183-.142.383-.252.575-.377l.581-.365.8,1.344-.536.337c-.177.115-.364.217-.529.347l-.51.372a5.78,5.78,0,0,0-.5.385" transform="translate(-183.545 -391.711)"/><path class="e" d="M197.215,486.312l-1.34-.807a5.715,5.715,0,0,1,.382-.592l.4-.578c.14-.188.3-.362.445-.544s.3-.365.457-.533l1.148,1.062c-.144.151-.27.317-.406.475s-.273.315-.4.482l-.355.512a4.689,4.689,0,0,0-.338.523" transform="translate(-165.559 -408.463)"/><path class="e" d="M333.414,431.935l-.238-1.546c.868-.142,1.738-.252,2.607-.369l.2,1.551c-.857.115-1.716.224-2.569.363" transform="translate(-281.609 -363.466)"/><path class="e" d="M303.388,436.647l-.329-1.529,1.3-.266c.432-.092.866-.159,1.3-.24l.275,1.54c-.424.079-.852.144-1.274.235Z" transform="translate(-256.154 -367.347)"/><path class="e" d="M273.808,443.14l-.466-1.493c.848-.277,1.707-.492,2.564-.725l.382,1.517c-.829.226-1.665.434-2.48.7" transform="translate(-231.036 -372.68)"/><path class="e" d="M424.194,424.128l-.094-1.561,1.307-.078,1.307-.066.079,1.562-1.3.066Z" transform="translate(-358.46 -357.043)"/><path class="e" d="M393.933,425.973l-.128-1.559c.871-.079,1.743-.132,2.614-.2l.108,1.56c-.865.065-1.731.118-2.594.2" transform="translate(-332.854 -358.56)"/><path class="e" d="M363.8,428.477l-.174-1.554c.87-.107,1.742-.178,2.612-.269l.146,1.557c-.861.09-1.726.16-2.585.267" transform="translate(-307.345 -360.619)"/><path class="e" d="M514.762,418.535l-.119-1.559,2.588-.212.138,1.558Z" transform="translate(-434.99 -352.261)"/><path class="e" d="M484.684,420.815l-.093-1.561,2.595-.165.106,1.56Z" transform="translate(-409.589 -354.225)"/><path class="e" d="M454.655,422.589l-.074-1.562c.866-.044,1.733-.081,2.6-.131l.084,1.562c-.87.051-1.739.088-2.609.132" transform="translate(-384.224 -355.752)"/><path class="e" d="M604.312,405.965l-.291-1.537c.424-.072.239-.11.659-.194l1.228-.189.622-.147.357,1.523-.642.151-.644.134c-.43.086-.858.186-1.289.259" transform="translate(-510.535 -341.387)"/><path class="e" d="M574.725,411.517l-.209-1.55,1.28-.178,1.274-.2.251,1.544-1.9.262Z" transform="translate(-485.596 -346.196)"/><path class="e" d="M544.972,415.52l-.155-1.556c.858-.094,1.719-.177,2.575-.282l.183,1.553c-.867.107-1.735.19-2.6.285" transform="translate(-460.494 -349.656)"/><path class="e" d="M684.581,367.132l-.459-1.21a9.8,9.8,0,0,0,.822-.842c.127-.148.235-.308.354-.461l.176-.232c.052-.081.1-.165.15-.247l1.325.832c-.061.1-.119.2-.181.295l-.207.276c-.141.182-.272.373-.421.547-.313.335-1.208.748-1.557,1.042" transform="translate(-578.238 -307.782)"/><path class="e" d="M661.128,385.754l-.656-1.42c.37-.183.155-.287.505-.5l1.137-.357c.176-.1.341-.219.512-.328l.857,1.308c-.19.121-.376.251-.57.364l-.588.327c-.387.23-.8.4-1.2.6" transform="translate(-558.249 -323.852)"/><path class="e" d="M633.539,397.881l-.425-1.505c.413-.1.81-.243,1.215-.366s.8-.267,1.195-.408l.538,1.469c-.417.149-1.432.363-1.855.488s-.241.215-.667.323" transform="translate(-535.125 -334.374)"/><path class="e" d="M685.9,282.868l-1.378.74c-.348-.673-1.423-1.218-1.978-1.732l1.661-1.209a8.08,8.08,0,0,1,1.7,2.2" transform="translate(-576.904 -237.228)"/><path class="e" d="M701.545,310.769l-1.561.1a9.993,9.993,0,0,0-.365-2.378l1.51-.406a13.35,13.35,0,0,1,.415,2.681" transform="translate(-591.337 -260.405)"/><path class="e" d="M700.464,341.192l-1.481-.5.1-.273.07-.284c.045-.19.1-.378.14-.569l.089-.585c.014-.1.034-.194.042-.293l.02-.3,1.559.124-.023.34c-.01.113-.032.226-.048.339l-.7.735c-.049.224.492.387.437.61l-.084.334Z" transform="translate(-590.799 -286.012)"/><path class="e" d="M606.07,263.758l.117,1.56c-1.444.108-2.282.239-2.531.273l-.214-1.549c.871-.12,1.747-.217,2.627-.284" transform="translate(-510.046 -222.936)"/><path class="e" d="M633.407,263.561l-.169,1.555a21.111,21.111,0,0,0-2.486-.115l-.614-1.506c.887-.008,2.378-.031,3.269.066" transform="translate(-532.609 -222.706)"/><path class="e" d="M665.334,267.235l-.723,1.387a10.123,10.123,0,0,0-2.215-.812l.371-1.519a10.292,10.292,0,0,1,2.567.945" transform="translate(-559.875 -225.076)"/><path class="e" d="M516.058,281.44l-.192,1.568-2.508.689.18-1.565Z" transform="translate(-433.904 -237.881)"/><path class="e" d="M545.714,274.316l.96,1.464q-1.258.3-2.512.623l-.391-1.514c.845-.218,1.092-.371,1.943-.572" transform="translate(-459.61 -231.86)"/><path class="e" d="M575.8,267.732l-.328,1.6c-.843.148-1.084.256-1.924.436l-.327-1.529q1.283-.275,2.579-.506" transform="translate(-484.505 -226.295)"/><path class="e" d="M427.535,291.014l-.371,1.519c-.231-.05-.454-.129-.681-.193s-1.054-.073-1.271-.164l-.059-.313c-.214-.1-.425-.2-.637-.3l.688-1.4c.188.088.375.18.564.265l.581.224a5.348,5.348,0,0,0,.59.195c.2.055.395.127.6.17" transform="translate(-358.811 -245.252)"/><path class="e" d="M458.57,296.775l.233,1.547-.7.1c-.233.025-.469.029-.7.044l-.352.018-.176.008-.177-.006-.707-.025.1-1.561.621.022.155.006-.444.05.911-.075c.207-.013.415-.015.622-.038Z" transform="translate(-385.416 -250.843)"/><path class="e" d="M486.672,289.569l-.18,1.565-2.524.7.193-1.569Z" transform="translate(-409.064 -244.752)"/><path class="f" d="M362.124,227.086l-1.358.775c-.446-.782-1.457-1.524-1.831-2.349l2.026-.7c.351.774.741,1.535,1.163,2.275" transform="translate(-303.381 -190.017)"/><path class="e" d="M380.912,252.668l-1.193,1.011a24.1,24.1,0,0,1-1.637-2.168l1.3-.875a17.641,17.641,0,0,0,1.535,2.033" transform="translate(-319.564 -211.844)"/><path class="e" d="M401.2,274.8l-.894,1.283a18.985,18.985,0,0,1-2.132-1.761l1.084-1.127a14.356,14.356,0,0,0,1.941,1.6" transform="translate(-336.548 -230.914)"/><path class="g" d="M243.1,141.912l-4.348,4.965-27.1-7.89Z" transform="translate(-178.894 -117.476)"/><path class="h" d="M237.567,157.245l1.184-10.368-27.1-7.89,23.094,12.227Z" transform="translate(-178.894 -117.476)"/><path class="g" d="M227.424,158.631l7.322-7.418-23.095-12.227Z" transform="translate(-178.893 -117.476)"/><path class="i" d="M316.5,847.295a5.34,5.34,0,0,1-1.567,3.939,5.689,5.689,0,0,1-3.671,1.319l-115.454.213a6.272,6.272,0,0,1-3.676-1.305,5.34,5.34,0,0,1-1.582-3.933l-.142-76.882,125.95-.233Z" transform="translate(-160.939 -651.174)"/><path class="j" d="M324.348,1005.2a5.689,5.689,0,0,1-3.671,1.319l-115.454.213a6.27,6.27,0,0,1-3.676-1.3l61.3-52.855Z" transform="translate(-170.353 -805.137)"/><path class="j" d="M316.359,531.027l-17.819,12.89-41.665,29.99a5.9,5.9,0,0,1-7.085.013l-41.514-29.837L190.409,531.26l17.819-12.89,38.783-27.886,2.882-2.1a5.9,5.9,0,0,1,7.085-.013l2.89,2.094,18.655,13.348,9.2,6.543,10.773,7.852Z" transform="translate(-160.939 -411.789)"/><path class="k" d="M395.555,524.281l.069,37.26-41.665,29.99a5.9,5.9,0,0,1-7.085.013L305.36,561.708l-.089-48.28a5.263,5.263,0,0,1,5.238-5.258l68.485-.127Z" transform="translate(-258.023 -429.412)"/><path class="l" d="M783.318,520.111a4.144,4.144,0,0,0,4.206,4.19l12.07-.022-16.3-16.238Z" transform="translate(-662.062 -429.41)"/><path class="m" d="M180.935,1087.395a6.34,6.34,0,0,0-3.228.885c-.1.045-.32.164-.544.283q.576-.659,1.161-1.312c.259-.289.522-.575.784-.863.281.044.871-.057,1.544.019.8.089,1.132.4,1.859-.2.685-.57.975-1.564-.108-1.727a3.5,3.5,0,0,0-2.535,1.069,16.463,16.463,0,0,0,2.128-2.884c2.861-1.45,4.221-5.7,3.813-8.667a1.341,1.341,0,0,0-.3-.79c-.442-.44-1.218-.131-1.632.335a4.267,4.267,0,0,0-.93,2.4c-.093.869-.039,1.746-.083,2.618a9.835,9.835,0,0,1-.367,2.091.173.173,0,0,0-.023.036,11.9,11.9,0,0,1-1.873,3.05,9.455,9.455,0,0,0,.466-2.1,5.139,5.139,0,0,0-.577-3.253.713.713,0,0,0-.458-.394c-.26-.036-.477.191-.62.411a3.7,3.7,0,0,0-.529,2.652c.213,1.162.831,2.227,1.091,3.38a.367.367,0,0,0,.043-.006c-.473.536-.967,1.057-1.46,1.571a7.913,7.913,0,0,0,.082-2.638,2.177,2.177,0,0,0-.519-1.143,1.026,1.026,0,0,0-1.162-.25,1.075,1.075,0,0,0-.465.56,3.341,3.341,0,0,0,.227,2.314c.263.747.5,1.523.789,2.261l-.175.188q-1.256,1.369-2.476,2.773a13.592,13.592,0,0,0,.621-1.994,8.03,8.03,0,0,0-.066-4.148,2.924,2.924,0,0,0-.841-1.4.628.628,0,0,0-.61-.171.662.662,0,0,0-.268.24,3.092,3.092,0,0,0-.4,2.195,23.056,23.056,0,0,0,.943,3.459,6.724,6.724,0,0,1,.353,2.137q-1.255,1.46-2.446,2.971a14.181,14.181,0,0,0,.96-3.907,3.314,3.314,0,0,0-.85-3.058,1.04,1.04,0,0,0-.428-.217c-.5-.1-.947.35-1.117.826a3.142,3.142,0,0,0,.037,1.907c.179.621.457,1.21.651,1.826a8.081,8.081,0,0,1,.228,3.289q-.908,1.182-1.772,2.4a11.265,11.265,0,0,0,.251-1.617,7.785,7.785,0,0,0-.425-3.306c-.129-.356-.334-.746-.7-.83a1.016,1.016,0,0,0-.88.35,2.693,2.693,0,0,0-.771,2.315,5.312,5.312,0,0,0,.583,1.529l.766,1.517a3.616,3.616,0,0,1,.375,1.2q-.924,1.366-1.776,2.777a9.605,9.605,0,0,0,.262-1.347,5.173,5.173,0,0,0-.464-3,1.3,1.3,0,0,0-.744-.715,1.015,1.015,0,0,0-1.135.748,2.148,2.148,0,0,0,.193,1.459,5.155,5.155,0,0,0,.732,1.189,4.115,4.115,0,0,1,.594.8,2.946,2.946,0,0,1,.2,1.21c0,.085,0,.171.006.256-.437.74-.871,1.494-1.283,2.262a5.223,5.223,0,0,0-.7-2.672c-.274-.471-.761-.945-1.287-.8a.83.83,0,0,0-.422.283,1.472,1.472,0,0,0,.138,1.731c.366.5.895.866,1.3,1.342a8.972,8.972,0,0,1,.506,1.012,25.033,25.033,0,0,0-1.574,3.792.3.3,0,0,0,.568.214c.479-.927.942-1.859,1.409-2.788a26.677,26.677,0,0,0,2.741.7,1.233,1.233,0,0,0,1.356-.352,1.024,1.024,0,0,0-.28-1.29,2,2,0,0,0-1.366-.364,6.926,6.926,0,0,0-2.117.647c.483-.951.977-1.9,1.5-2.828a3.963,3.963,0,0,1,.937,0c.494.09.954.323,1.449.4a1.261,1.261,0,0,0,1.325-.484,1.1,1.1,0,0,0-.669-1.437,2.414,2.414,0,0,0-1.746.164c-.175.072-.427.17-.679.293.045-.075.088-.151.134-.225.249-.406.5-.807.762-1.207a14.284,14.284,0,0,0,2.26-.052,4.22,4.22,0,0,0,1.92-.205,1.229,1.229,0,0,0,.688-1.592,1.472,1.472,0,0,0-1.587-.472,7.1,7.1,0,0,0-2.513,1.156q.848-1.258,1.745-2.482c1.13-.134,2.594.738,3.807.3.49-.176,1.165-.739.918-1.365-.194-.492-1.036-.529-1.477-.57a4.676,4.676,0,0,0-2.462.57q.36-.478.725-.952.47-.609.951-1.21a8.876,8.876,0,0,1,1.868.072c.893.147,1.828.494,2.546-.324.656-.748.955-2.3-.42-2.222a6.917,6.917,0,0,0-2.91,1.135q.941-1.14,1.911-2.256a8.092,8.092,0,0,1,2.229.3c.784.268,1.729,1.012,2.454.344a1.188,1.188,0,0,0-.632-2.128" transform="translate(-137.765 -906.922)"/><path class="m" d="M149.808,1062.965a6.336,6.336,0,0,0-2.538,2.182c-.074.085-.219.285-.37.489q.238-.843.487-1.683c.11-.372.225-.743.339-1.115.273-.081.762-.424,1.4-.644.757-.26,1.2-.123,1.592-.98.375-.808.211-1.83-.837-1.514a3.5,3.5,0,0,0-1.833,2.052,16.444,16.444,0,0,0,.689-3.517c1.965-2.536,1.372-6.96-.266-9.465a1.341,1.341,0,0,0-.614-.583c-.588-.209-1.157.4-1.332,1a4.268,4.268,0,0,0,.189,2.572c.288.825.713,1.594,1.046,2.4a9.868,9.868,0,0,1,.564,2.047.171.171,0,0,0-.005.042,11.9,11.9,0,0,1-.387,3.559,9.449,9.449,0,0,0-.479-2.1,5.138,5.138,0,0,0-1.914-2.692.713.713,0,0,0-.583-.16c-.25.079-.35.377-.384.637a3.7,3.7,0,0,0,.658,2.623c.69.959,1.7,1.656,2.433,2.587a.319.319,0,0,0,.037-.024c-.2.687-.421,1.369-.646,2.045A7.909,7.909,0,0,0,146,1060.3a2.177,2.177,0,0,0-.959-.811,1.026,1.026,0,0,0-1.157.272,1.075,1.075,0,0,0-.18.706,3.34,3.34,0,0,0,1.2,1.993c.557.563,1.1,1.164,1.681,1.705-.026.082-.052.163-.077.245q-.548,1.775-1.05,3.566a13.535,13.535,0,0,0-.292-2.067,8.026,8.026,0,0,0-1.836-3.72,2.922,2.922,0,0,0-1.361-.908.628.628,0,0,0-.625.107.66.66,0,0,0-.139.332,3.091,3.091,0,0,0,.574,2.157,23.047,23.047,0,0,0,2.334,2.722,6.721,6.721,0,0,1,1.234,1.78q-.509,1.857-.938,3.732a14.177,14.177,0,0,0-.806-3.942,3.314,3.314,0,0,0-2.078-2.4,1.041,1.041,0,0,0-.479-.012,1.1,1.1,0,0,0-.656,1.225,3.14,3.14,0,0,0,.85,1.708c.428.485.931.9,1.371,1.371a8.081,8.081,0,0,1,1.614,2.875q-.314,1.458-.573,2.928a11.219,11.219,0,0,0-.465-1.569,7.78,7.78,0,0,0-1.8-2.805,1.163,1.163,0,0,0-.991-.448,1.017,1.017,0,0,0-.646.693,2.694,2.694,0,0,0,.294,2.423,5.312,5.312,0,0,0,1.182,1.132l1.342,1.043a3.614,3.614,0,0,1,.855.927q-.251,1.63-.415,3.27a9.632,9.632,0,0,0-.34-1.329,5.176,5.176,0,0,0-1.706-2.517,1.306,1.306,0,0,0-.979-.327,1.016,1.016,0,0,0-.705,1.162,2.15,2.15,0,0,0,.8,1.235,5.15,5.15,0,0,0,1.171.761,4.109,4.109,0,0,1,.879.468,2.944,2.944,0,0,1,.7,1.008l.115.229c-.078.856-.147,1.723-.191,2.593a5.226,5.226,0,0,0-1.775-2.115c-.45-.308-1.092-.528-1.507-.175a.831.831,0,0,0-.26.437,1.472,1.472,0,0,0,.866,1.505c.547.3,1.18.4,1.747.657.325.147.6.516.891.7a25.048,25.048,0,0,0,.2,4.1.3.3,0,0,0,.605-.05c.036-1.043.055-2.084.079-3.123a26.718,26.718,0,0,0,2.777-.541,1.234,1.234,0,0,0,1.075-.9,1.024,1.024,0,0,0-.806-1.046,2,2,0,0,0-1.39.256,6.918,6.918,0,0,0-1.636,1.491c.029-1.066.071-2.132.148-3.2a3.934,3.934,0,0,1,.849-.4c.485-.13,1-.117,1.482-.257a1.261,1.261,0,0,0,.99-1.005,1.1,1.1,0,0,0-1.22-1.012,2.412,2.412,0,0,0-1.508.9c-.127.14-.313.336-.488.555.009-.087.015-.174.025-.261.051-.473.11-.946.172-1.417a14.278,14.278,0,0,0,2.02-1.015,4.221,4.221,0,0,0,1.648-1.008,1.229,1.229,0,0,0-.06-1.733,1.472,1.472,0,0,0-1.636.253,7.1,7.1,0,0,0-1.776,2.12q.227-1.5.514-2.991c.964-.605,2.66-.444,3.57-1.356.368-.368.736-1.167.245-1.626-.386-.362-1.163-.035-1.579.118a4.676,4.676,0,0,0-1.98,1.569q.121-.586.247-1.17c.109-.5.224-1,.341-1.5a8.888,8.888,0,0,1,1.719-.735c.87-.25,1.864-.337,2.162-1.383.273-.957-.124-2.491-1.331-1.828a6.918,6.918,0,0,0-2.143,2.271q.361-1.433.76-2.857a8.083,8.083,0,0,1,2.141-.686c.823-.094,2,.174,2.365-.74a1.188,1.188,0,0,0-1.482-1.652" transform="translate(-117.637 -885.92)"/><path class="n" d="M125.442,1221a22.4,22.4,0,0,1-1.913-16.715s7.25,1.611,9.666,16.715Z" transform="translate(-103.756 -1017.891)"/><path class="o" d="M145.342,1252.889s-1.893-9.062-2.95-10.875c0,0,3.181,5.74,3.655,10.875Z" transform="translate(-120.354 -1049.784)"/><path class="n" d="M176.912,1221.839a22.4,22.4,0,0,0,1.913-16.715s-7.25,1.611-9.666,16.715Z" transform="translate(-142.978 -1018.604)"/><path class="o" d="M194.067,1253.732s1.893-9.062,2.95-10.875c0,0-3.181,5.739-3.655,10.875Z" transform="translate(-163.435 -1050.497)"/><path class="p" d="M218.807,1195.453s5.711-8.891,2.466-21.547c0,0-9.345,2.077-12.461,21.547Z" transform="translate(-176.494 -992.217)"/><path class="o" d="M240.922,1236.565s2.44-11.682,3.8-14.018c0,0-4.1,7.4-4.711,14.018Z" transform="translate(-202.866 -1033.33)"/><path class="p" d="M56.1,1195.453s-5.711-8.891-2.466-21.547c0,0,9.346,2.077,12.461,21.547Z" transform="translate(-44.487 -992.217)"/><path class="o" d="M81.75,1236.565s-2.44-11.682-3.8-14.018c0,0,4.1,7.4,4.711,14.018Z" transform="translate(-65.883 -1033.33)"/><path class="q" d="M902.1,1059.373a18.8,18.8,0,1,1-18.8,18.8,18.8,18.8,0,0,1,18.8-18.8" transform="translate(-746.589 -895.411)"/><path class="r" d="M945.53,1110.758a10.845,10.845,0,1,1-10.845,10.845,10.845,10.845,0,0,1,10.845-10.845" transform="translate(-790.021 -938.843)"/><path class="s" d="M926.063,1288.2a.723.723,0,0,1-.511-1.234l2.844-2.844a.723.723,0,0,1,1.022,1.022l-2.844,2.844a.721.721,0,0,1-.511.212" transform="translate(-782.122 -1085.196)"/><path class="s" d="M1059.9,1288.082a.721.721,0,0,1-.511-.212l-2.865-2.865a.723.723,0,1,1,1.022-1.022l2.865,2.865a.723.723,0,0,1-.511,1.234" transform="translate(-892.823 -1085.078)"/><path class="t" d="M1085.33,1078a.723.723,0,0,1-.511-1.234l2.169-2.169a.723.723,0,0,1,1.022,1.022l-2.169,2.169a.721.721,0,0,1-.511.212" transform="translate(-916.738 -908.1)"/><path class="t" d="M904.441,1078a.722.722,0,0,1-.511-.212l-2.169-2.169a.723.723,0,0,1,1.022-1.022l2.169,2.169a.723.723,0,0,1-.511,1.234" transform="translate(-762.013 -908.1)"/><path class="m" d="M894.2,1090.518a20.244,20.244,0,1,1,20.244-20.244,20.267,20.267,0,0,1-20.244,20.244m0-37.6a17.352,17.352,0,1,0,17.352,17.352,17.372,17.372,0,0,0-17.352-17.352" transform="translate(-738.692 -887.514)"/><path class="u" d="M1000.807,1072.821a.723.723,0,0,0-.723.723v.723a.723.723,0,1,0,1.446,0v-.723a.722.722,0,0,0-.723-.723" transform="translate(-845.298 -906.778)"/><path class="u" d="M1000.807,1273.691a.723.723,0,0,0-.723.723v.723a.723.723,0,1,0,1.446,0v-.723a.722.722,0,0,0-.723-.723" transform="translate(-845.298 -1076.558)"/><path class="u" d="M1099.628,1175.592h-.723a.723.723,0,1,0,0,1.446h.723a.723.723,0,1,0,0-1.446" transform="translate(-928.213 -993.642)"/><path class="u" d="M898.759,1175.592h-.723a.723.723,0,1,0,0,1.446h.723a.723.723,0,1,0,0-1.446" transform="translate(-758.433 -993.642)"/><path class="u" d="M1070.171,1103.13l-.511.511a.723.723,0,0,0,1.022,1.022l.511-.511a.723.723,0,0,0-1.022-1.022" transform="translate(-903.926 -932.217)"/><path class="u" d="M928.138,1245.169l-.511.511a.723.723,0,1,0,1.022,1.022l.511-.511a.723.723,0,0,0-1.022-1.022" transform="translate(-783.876 -1052.272)"/><path class="u" d="M1070.682,1245.168a.723.723,0,0,0-1.022,1.022l.511.511a.723.723,0,0,0,1.022-1.022Z" transform="translate(-903.926 -1052.271)"/><path class="u" d="M928.648,1103.13a.723.723,0,0,0-1.022,1.022l.511.511a.723.723,0,0,0,1.022-1.022Z" transform="translate(-783.875 -932.217)"/><path class="u" d="M948.7,1121.6a.722.722,0,0,0,.723.723h5.164a2.886,2.886,0,1,0,3.512-3.512v-7.333a.723.723,0,1,0-1.446,0v7.333a2.887,2.887,0,0,0-2.066,2.066h-5.164a.723.723,0,0,0-.723.723m7.23,0a1.446,1.446,0,1,1,1.446,1.446,1.447,1.447,0,0,1-1.446-1.446" transform="translate(-801.867 -938.843)"/><path class="s" d="M1086.045,1046.135a5.149,5.149,0,0,1,0,7.281l-7.282-7.281a5.15,5.15,0,0,1,7.282,0" transform="translate(-911.799 -882.947)"/><path class="s" d="M875.466,1046.135a5.149,5.149,0,0,0,0,7.281l7.281-7.281a5.149,5.149,0,0,0-7.281,0" transform="translate(-738.692 -882.947)"/><path class="v" d="M994.1,789.253a11.689,11.689,0,0,1-.346-1.721h-2.373v1.758Z" transform="translate(-837.943 -665.644)"/><path class="t" d="M931.537,719.944a4.326,4.326,0,0,0-1.494,2.9s1.934.44,1.494-2.9" transform="translate(-786.097 -608.516)"/><path class="r" d="M964.152,885.22l-1.055,9.23,4.747,13.889h-2.373l-5.5-11.827a3.268,3.268,0,0,1-.3-1.377l-.44-3.585-.967,4.044.527,12.746h-2.11l-2.549-13.9a3.75,3.75,0,0,1,.138-1.884l2.5-7.339Z" transform="translate(-806.405 -748.212)"/><path class="u" d="M961.613,806.49h-8.878l.967-9.67-3.78-1.67,2.373-3.077,6.052.839a3.388,3.388,0,0,1,2.921,3.243Z" transform="translate(-802.899 -669.483)"/><path class="w" d="M986.246,760.351a6.9,6.9,0,0,1-1.67-1.143c-.44-.527.615-3.077,1.67-3.692s2.813-.7,2.813.352.879,2.813,0,3.253-1.143,1.318-2.813,1.231" transform="translate(-832.103 -638.199)"/><path class="r" d="M995.443,742.2a3.562,3.562,0,0,1-.527-3.516,2.121,2.121,0,0,0,1.494,1.143c1.143.264,2.449.516,2.9,1.758.7,1.934.745,4.138-3.077,4.659,0,0,1.582-1.407,1.231-2.373s-1.406-1.143-2.022-1.67" transform="translate(-840.685 -624.358)"/><path class="x" d="M940.064,725.833l-8.527-5.89s-.44,2.373-1.494,2.9Z" transform="translate(-786.097 -608.516)"/><path class="w" d="M936.769,741.384l.684-8.29h0l.007-.039,0-.055,0,0c.24-1.385.815-1.7,1.073-1.7a1.031,1.031,0,0,1,.791.879c.082.494-.493,1.347-.567,1.454l.039,6.633,2.373.44-2.11,2.725-1.177-.392a1.642,1.642,0,0,1-1.12-1.658" transform="translate(-791.78 -618.117)"/><path class="w" d="M966.927,750.113l.394,6.527-2.064-.286.324-6.541Z" transform="translate(-815.861 -633.763)"/><path class="r" d="M1016.443,1034.593h-2.373l-2.349,1.841a.4.4,0,0,0,.245.708h4.082a.4.4,0,0,0,.4-.4Z" transform="translate(-855.004 -874.466)"/><path class="r" d="M958,1034.593h-2.11l-2.587,1.829a.4.4,0,0,0,.229.72h4.071a.4.4,0,0,0,.4-.4Z" transform="translate(-805.617 -874.466)"/><g class="y" transform="translate(3.165 91.642)"><g class="z"><path class="aa" d="M35.563,597.37l1.454-1.083a9.016,9.016,0,0,0-2.775-2.775l-1.083,1.454a7.115,7.115,0,0,0-2.024-.839l.263-1.8a8.806,8.806,0,0,0-3.925,0l.263,1.8a7.117,7.117,0,0,0-2.024.839l-1.083-1.454a9.017,9.017,0,0,0-2.775,2.775l1.454,1.083a7.123,7.123,0,0,0-.839,2.024l-1.8-.263a8.8,8.8,0,0,0,0,3.925l1.8-.263a7.125,7.125,0,0,0,.839,2.024L21.854,605.9a9.02,9.02,0,0,0,2.775,2.775l1.083-1.454a7.124,7.124,0,0,0,2.024.839l-.263,1.8a8.806,8.806,0,0,0,3.925,0l-.263-1.8a7.124,7.124,0,0,0,2.024-.839l1.083,1.454a9.017,9.017,0,0,0,2.775-2.775l-1.454-1.083a7.128,7.128,0,0,0,.839-2.024l1.8.263a8.8,8.8,0,0,0,0-3.925l-1.8.263a7.127,7.127,0,0,0-.839-2.024m-6.128,8.492a4.769,4.769,0,1,1,4.769-4.769,4.769,4.769,0,0,1-4.769,4.769" transform="translate(-20.451 -592.11)"/></g></g><g class="y" transform="translate(23.287 41.675)"><g class="ab"><rect class="r" width="12.041" height="18.52" transform="matrix(0.316, -0.949, 0.949, 0.316, 0, 15.717)"/><path class="r" d="M192.628,279.416l-17.57-5.856,11.192-4.295Z" transform="translate(-171.252 -269.267)"/><rect class="ac" width="12.523" height="14.825" transform="translate(1.848 15.856) rotate(-71.568)"/><path class="aa" d="M154.268,297.014l-3.807,11.423,10.554-2.38Z" transform="translate(-150.461 -292.72)"/><path class="aa" d="M229.473,334.848l-3.807,11.423-7.016-8.236Z" transform="translate(-208.096 -324.698)"/><path class="r" d="M168.031,353.22l-17.57-5.856,11.192-4.295Z" transform="translate(-150.461 -331.647)"/><path class="r" d="M150.462,346.721l2.781-1.117,2.788-1.1,2.793-1.087,2.795-1.082.074-.029.042.067,1.587,2.542c.528.848,1.061,1.693,1.583,2.545l1.572,2.552,1.555,2.563-1.634-2.513-1.617-2.523c-.541-.84-1.071-1.687-1.606-2.53l-1.6-2.533.115.038-2.8,1.066-2.8,1.061-2.807,1.049Z" transform="translate(-150.462 -331.004)"/></g></g><g class="y" transform="translate(127.094 41.426)"><g class="ad"><path class="aa" d="M823.7,358.672a1.269,1.269,0,1,1-1.267-1.268,1.268,1.268,0,0,1,1.267,1.268" transform="translate(-821.163 -343.514)"/><path class="aa" d="M821.164,330.064a5.308,5.308,0,0,1,5.3,5.3H828.2a7.045,7.045,0,0,0-7.037-7.037Z" transform="translate(-821.164 -318.939)"/><path class="aa" d="M821.164,299.5a9.833,9.833,0,0,1,9.822,9.821h1.984a11.818,11.818,0,0,0-11.805-11.8Z" transform="translate(-821.164 -292.898)"/><path class="aa" d="M821.164,269.8a14.307,14.307,0,0,1,14.292,14.291h2.136a16.445,16.445,0,0,0-16.427-16.426Z" transform="translate(-821.164 -267.66)"/></g></g><g class="y" transform="translate(154.807 73.135)"><g class="ae"><path class="aa" d="M1045.8,548.915v-3.749h-1.709a7.03,7.03,0,0,0-.677-1.629l1.21-1.21-2.651-2.651-1.21,1.211a7.041,7.041,0,0,0-1.629-.677V538.5h-3.749v1.709a7.026,7.026,0,0,0-1.629.677l-1.21-1.211-2.651,2.651,1.21,1.21a7.046,7.046,0,0,0-.677,1.629h-1.709v3.749h1.709a7.043,7.043,0,0,0,.677,1.629l-1.21,1.21,2.651,2.651,1.21-1.21a7.038,7.038,0,0,0,1.629.677v1.709h3.749v-1.709a7.052,7.052,0,0,0,1.629-.677l1.21,1.21,2.651-2.651-1.21-1.21a7.026,7.026,0,0,0,.677-1.629Zm-8.54,1.462a3.336,3.336,0,1,1,3.336-3.336,3.34,3.34,0,0,1-3.336,3.336" transform="translate(-1024.306 -528.291)"/><path class="aa" d="M1007.033,483.707v-1.118a4.627,4.627,0,0,0,1.066-.443l.791.791,1.734-1.734-.792-.791a4.62,4.62,0,0,0,.443-1.065h1.118v-2.453h-1.118a4.611,4.611,0,0,0-.443-1.065l.792-.792-1.734-1.733-.792.791a4.608,4.608,0,0,0-1.065-.443v-1.118h-2.452v1.118a4.616,4.616,0,0,0-1.065.443l-.792-.791-1.734,1.733.792.791a4.62,4.62,0,0,0-.443,1.066h-1.118v2.453h1.118a4.617,4.617,0,0,0,.443,1.065l-.792.791,1.734,1.734.792-.791a4.617,4.617,0,0,0,1.065.443v1.118Zm-3.408-5.586a2.182,2.182,0,1,1,2.182,2.182,2.185,2.185,0,0,1-2.182-2.182" transform="translate(-1000.221 -472.535)"/></g></g><g class="y" transform="translate(158.754 38.855)"><g class="af"><path class="aa" d="M1025.716,263.474l1.892,5.9h10.655l-1.892-5.9Z" transform="translate(-1025.716 -261.551)"/><path class="aa" d="M1046.7,252.618h.257l.078.245,1.557,4.854v-5.9h-8.419l-.455-.768h-1.781v1.571Z" transform="translate(-1036.047 -251.047)"/></g></g><g class="y" transform="translate(75.018 -0.001)"><g class="ag"><path class="aa" d="M503.906,15.058,494.216,0,484.7,15.058h5.366v12.45h8.479V15.058Z" transform="translate(-484.696 -0.003)"/></g></g><g class="y" transform="translate(117.856 8.721)"><g class="ah"><path class="aa" d="M761.475,66.077l11.261,5.713,9.733-15.438Z" transform="translate(-761.475 -56.352)"/><path class="ai" d="M806.151,56.351,789.494,68.277v6.306l2.868-4.851Z" transform="translate(-785.157 -56.351)"/><path class="r" d="M806.151,56.351,789.494,68.277v6.306l2.868-4.851Z" transform="translate(-785.157 -56.351)"/></g></g></g></g></g></svg>