<?xml version="1.0" encoding="utf-8"?>
<!-- Generator: Adobe Illustrator 23.0.1, SVG Export Plug-In . SVG Version: 6.00 Build 0)  -->
<svg version="1.1" id="Capa_1" xmlns="http://www.w3.org/2000/svg" xmlns:xlink="http://www.w3.org/1999/xlink" x="0px" y="0px"
	 viewBox="0 0 512 512" style="enable-background:new 0 0 512 512;" xml:space="preserve">
<style type="text/css">
	.st0{fill:#0B7432;}
</style>
<g>
	<g>
		<g>
			<path class="st0" d="M512,256c0-5.2-2.7-10-7.1-12.7l-52-32.1l52.1-32.4c4.4-2.7,7.1-7.5,7.1-12.7c0-5.2-2.7-10-7-12.7L264,2.3
				c-4.9-3.1-11.1-3.1-15.9,0L7,153.3c-4.4,2.7-7,7.6-7,12.7c0,5.2,2.7,10,7.1,12.7l51.7,32.2L7.1,243.3C2.7,246,0,250.8,0,256
				c0,5.2,2.7,10,7.1,12.7l51.7,32.2L7.1,333.3C2.7,336,0,340.8,0,346s2.7,10,7,12.7l241,151c2.4,1.5,5.2,2.3,8,2.3s5.5-0.8,8-2.3
				l241-151c4.4-2.8,7.1-7.6,7-12.8c0-5.2-2.7-10-7.1-12.7l-52-32.1l52.1-32.4C509.3,266,512,261.2,512,256z M43.3,166L256,32.7
				L468.7,166c-2,1.3-206.6,128.6-212.7,132.4L43.3,166z M468.6,346.1L256,479.3L43.3,346l43.9-27.4l160.9,100.1
				c2.4,1.5,5.2,2.3,7.9,2.3s5.5-0.8,7.9-2.3l160.5-99.9L468.6,346.1z M256,388.3L43.3,256l43.8-27.4l160.9,100.1
				c2.4,1.5,5.2,2.3,7.9,2.3s5.5-0.8,7.9-2.3l160.5-99.9l44.1,27.2C467.3,256.8,261.6,384.8,256,388.3z"/>
		</g>
	</g>
</g>
</svg>
