<svg xmlns="http://www.w3.org/2000/svg" width="18.282" height="16.855" viewBox="0 0 18.282 16.855">
  <g id="view-invoice" transform="translate(0.15 0.045)">
    <path id="Path_43218" data-name="Path 43218" d="M16.358.164a.392.392,0,0,0-.206-.059H4.414a1.823,1.823,0,0,0-1.83,1.809L2.515,12.023H.394A.394.394,0,0,0,0,12.417v1.821A2.425,2.425,0,0,0,2.422,16.66a.4.4,0,0,0,.081-.008H12.3c.058,0,.117.007.176.007A2.462,2.462,0,0,0,14.931,14.2V8.288h2.657a.394.394,0,0,0,.394-.394V2.043A1.91,1.91,0,0,0,16.358.164ZM.788,14.238V12.811h9.226V14.2a2.453,2.453,0,0,0,.651,1.666h-8.3a.392.392,0,0,0-.055,0A1.636,1.636,0,0,1,.788,14.238ZM14.143,2.043V14.2a1.683,1.683,0,0,1-1.616,1.672.393.393,0,0,0-.065-.006h-.139A1.685,1.685,0,0,1,10.8,14.2V12.417a.394.394,0,0,0-.394-.394H3.3L3.373,1.918A1.034,1.034,0,0,1,4.414.894h10.12A1.882,1.882,0,0,0,14.143,2.043ZM17.194,7.5H14.931V2.043a1.132,1.132,0,0,1,2.263,0Zm0,0" transform="translate(0)" fill="#007c3d" stroke="#007c3d" stroke-width="0.3"/>
    <path id="Path_43219" data-name="Path 43219" d="M118.781,89.23h3.733a.394.394,0,0,0,0-.788h-3.733a.394.394,0,1,0,0,.788Zm0,0" transform="translate(-113.72 -84.854)" fill="#007c3d" stroke="#007c3d" stroke-width="0.3"/>
    <path id="Path_43220" data-name="Path 43220" d="M125.745,159.941h-6.964a.394.394,0,0,0,0,.788h6.964a.394.394,0,0,0,0-.788Zm0,0" transform="translate(-113.72 -153.536)" fill="#007c3d" stroke="#007c3d" stroke-width="0.3"/>
    <path id="Path_43221" data-name="Path 43221" d="M125.745,231.438h-6.964a.394.394,0,0,0,0,.788h6.964a.394.394,0,0,0,0-.788Zm0,0" transform="translate(-113.72 -222.214)" fill="#007c3d" stroke="#007c3d" stroke-width="0.3"/>
  </g>
</svg>
