<svg xmlns="http://www.w3.org/2000/svg" width="16" height="16" viewBox="0 0 16 16"><defs><style>.a{fill:#eb283b;}</style></defs><path class="a" d="M8,0a8,8,0,1,0,8,8A8,8,0,0,0,8,0ZM8,14.75A6.75,6.75,0,1,1,14.75,8,6.746,6.746,0,0,1,8,14.75Z"/><g transform="translate(7.375 4.027)"><path class="a" d="M236.625,128.877a.625.625,0,0,0-.625.625v4.025a.625.625,0,0,0,1.25,0V129.5A.625.625,0,0,0,236.625,128.877Z" transform="translate(-236 -128.877)"/></g><g transform="translate(7.156 10.068)"><circle class="a" cx="0.844" cy="0.844" r="0.844"/></g></svg>