<?xml version="1.0" encoding="utf-8"?>
<!-- Generator: Adobe Illustrator 23.0.1, SVG Export Plug-In . SVG Version: 6.00 Build 0)  -->
<svg version="1.1" id="Layer_1" xmlns="http://www.w3.org/2000/svg" xmlns:xlink="http://www.w3.org/1999/xlink" x="0px" y="0px"
	 viewBox="0 0 16 16" style="enable-background:new 0 0 16 16;" xml:space="preserve">
<style type="text/css">
	.st0{fill:#007C3D;fill-opacity:0;}
	.st1{fill:#007C3D;}
</style>
<g transform="translate(-154 -112)">
	<g transform="translate(156.522 114)">
		<rect x="-5.6" y="-5.9" class="st0" width="24.3" height="24.3"/>
		<g transform="translate(-51.674 5.603)">
			<g transform="translate(58.605)">
				<path class="st1" d="M3.9-0.4C3.9-0.4,3.9-0.4,3.9-0.4L-1-7.1c-0.2-0.3-0.6-0.3-0.8-0.1c0,0-0.1,0.1-0.1,0.1l-4.9,6.6
					c0,0,0,0,0,0c-1,1.7-1,3.8,0,5.4C-5,8-1.2,9,1.8,7.2c0.9-0.5,1.6-1.2,2.1-2.1C4.9,3.4,4.9,1.3,3.9-0.4z M2.9,4.5
					c-1.5,2.4-4.6,3.2-7,1.7c-0.7-0.4-1.3-1-1.7-1.7c-0.8-1.3-0.9-3-0.1-4.3l4.4-6l4.4,6C3.8,1.5,3.8,3.2,2.9,4.5L2.9,4.5z"/>
			</g>
			<g transform="translate(65.889 11.581)">
				<path class="st1" d="M-5.8-10.1c-0.3,0-0.6,0.3-0.6,0.6l0,0c0,1.3-1.1,2.4-2.4,2.4c-0.3,0-0.6,0.3-0.6,0.6
					c0,0.3,0.3,0.6,0.6,0.6c0,0,0,0,0,0c2,0,3.5-1.6,3.5-3.5C-5.2-9.8-5.5-10.1-5.8-10.1C-5.8-10.1-5.8-10.1-5.8-10.1z"/>
			</g>
		</g>
	</g>
</g>
</svg>
