<svg xmlns="http://www.w3.org/2000/svg" width="38.877" height="54" viewBox="0 0 38.877 54"><defs><style>.a{fill:#fff;}</style></defs><g transform="translate(0 0)"><path class="a" d="M65.659,5.954C64.412,4.12,63.311,2.433,62.284.892A2.232,2.232,0,0,0,61.7.305a1.911,1.911,0,0,0-2.641.587C58.1,2.433,57,4.046,55.683,5.954,49.888,14.463,41.232,27.3,41.232,34.635a19.351,19.351,0,0,0,5.722,13.717A19.6,19.6,0,0,0,60.671,54,19.535,19.535,0,0,0,80.109,34.562C80.109,27.226,71.454,14.463,65.659,5.954Zm6.088,39.684a15.514,15.514,0,0,1-11.076,4.548,15.823,15.823,0,0,1-11.076-4.548,15.514,15.514,0,0,1-4.548-11.076c0-6.162,8.289-18.412,13.79-26.554.66-.954,1.247-1.907,1.834-2.714.587.807,1.174,1.76,1.834,2.714,5.5,8.216,13.79,20.392,13.79,26.554A15.823,15.823,0,0,1,71.747,45.638Z" transform="translate(-41.232 0)"/></g><g transform="translate(23.605 34.666)"><g transform="translate(0)"><path class="a" d="M174.337,181.244a1.751,1.751,0,0,0-1.844,1.639,8.792,8.792,0,0,1-1.3,4.166,8.3,8.3,0,0,1-3.142,3.005,1.8,1.8,0,0,0,1.776,3.142,11.836,11.836,0,0,0,4.371-4.235,11.624,11.624,0,0,0,1.776-5.874A1.751,1.751,0,0,0,174.337,181.244Z" transform="translate(-167.152 -181.24)"/></g></g></svg>