<svg xmlns="http://www.w3.org/2000/svg" width="20.912" height="14.733" viewBox="0 0 20.912 14.733"><defs><style>.a{fill:#777;}.b{fill:#222221;}</style></defs><g transform="translate(-94.747 -298.58)"><path class="a" d="M115.223,300.881a2.628,2.628,0,0,0-1.849-1.86c-1.631-.44-8.17-.44-8.17-.44s-6.54,0-8.17.44a2.628,2.628,0,0,0-1.849,1.86,29.61,29.61,0,0,0,0,10.132,2.63,2.63,0,0,0,1.849,1.861c1.63.439,8.17.439,8.17.439s6.539,0,8.17-.439a2.63,2.63,0,0,0,1.849-1.861,29.61,29.61,0,0,0,0-10.132Z"/><path class="b" d="M106.862,311v-6.219l5.466,3.109Z" transform="translate(-3.798 -1.944)"/></g></svg>