<svg xmlns="http://www.w3.org/2000/svg" width="14" height="14" viewBox="0 0 14 14"><defs><style>.a,.b{fill:#ad1c29;}.b{stroke:#ad1c29;stroke-width:0.1px;}</style></defs><path class="a" d="M13.59,5.2a.41.41,0,0,0,.41-.41V3.145a.41.41,0,0,0-.253-.379L7.157.032a.41.41,0,0,0-.314,0L.253,2.766A.41.41,0,0,0,0,3.145V4.786a.41.41,0,0,0,.41.41h.711V9.844H.984a.41.41,0,0,0-.41.41v1.23H.41A.41.41,0,0,0,0,11.9v1.7A.41.41,0,0,0,.41,14H13.59a.41.41,0,0,0,.41-.41V11.9a.41.41,0,0,0-.41-.41h-.164v-1.23a.41.41,0,0,0-.41-.41h-.137V5.2Zm-.41,7.109v.875H.82v-.875ZM3.309,10.665v.82H1.395v-.82Zm-1.367-.82V5.2h.82V9.844Zm1.777,0H3.582V5.2h6.836V9.844h-.137a.41.41,0,0,0-.41.41v1.23H4.129v-1.23A.41.41,0,0,0,3.719,9.844Zm8.887.82v.82H10.691v-.82Zm-1.367-.82V5.2h.82V9.844ZM.82,4.376V3.419L7,.855l6.18,2.564v.957Z" transform="translate(0 -0.001)"/><path class="a" d="M156.332,100H151.41a.41.41,0,0,0,0,.82h4.922a.41.41,0,0,0,0-.82Z" transform="translate(-146.871 -97.266)"/><path class="b" d="M.114-4.307H2.886q.023,0,.023.023v.264A.021.021,0,0,1,2.886-4H1.843v.023a.816.816,0,0,1,.346.492L2.2-3.4h.686q.023,0,.023.023v.264a.021.021,0,0,1-.023.023H2.227a1.141,1.141,0,0,1-.542.861A1.7,1.7,0,0,1,1-1.948q0,.012-.023.012L2.467-.009V.015H1.9Q1.893.015.176-2.224v-.012H.354q.949,0,1.14-.683a.979.979,0,0,0,.012-.132v-.035H.114a.021.021,0,0,1-.023-.023v-.264q0-.023.023-.023h1.38a.766.766,0,0,0-.3-.434A1.255,1.255,0,0,0,.618-4h-.5A.021.021,0,0,1,.091-4.02v-.264Q.094-4.307.114-4.307Z" transform="translate(5.648 10.425)"/></svg>