<svg xmlns="http://www.w3.org/2000/svg" xmlns:xlink="http://www.w3.org/1999/xlink" width="295.835" height="190.582" viewBox="0 0 295.835 190.582"><defs><linearGradient id="a" x1="1" y1="0.5" x2="0" y2="0.5" gradientUnits="objectBoundingBox"><stop offset="0" stop-color="#ebffe2"/><stop offset="1" stop-color="#fcfcfc"/></linearGradient><linearGradient id="b" x1="1.921" y1="-0.124" x2="0.369" y2="0.848" gradientUnits="objectBoundingBox"><stop offset="0" stop-color="#76c854"/><stop offset="1" stop-color="#e5fff5"/></linearGradient><linearGradient id="c" x1="0.5" y1="0" x2="0.5" y2="1" xlink:href="#b"/><linearGradient id="d" x1="1" y1="0.5" x2="0" y2="0.5" xlink:href="#b"/><linearGradient id="e" x1="1.078" y1="1.002" x2="-1.694" y2="-0.867" xlink:href="#b"/><linearGradient id="k" x1="0.138" y1="-0.212" x2="0.652" y2="0.986" xlink:href="#b"/><linearGradient id="m" x1="0.5" x2="0.5" y2="1" gradientUnits="objectBoundingBox"><stop offset="0" stop-color="#f9d0c2"/><stop offset="1" stop-color="#ff9992"/></linearGradient><linearGradient id="o" x1="0.5" x2="0.5" y2="1" gradientUnits="objectBoundingBox"><stop offset="0" stop-color="#3b234c"/><stop offset="0.337" stop-color="#402450"/><stop offset="0.75" stop-color="#4f2a5c"/><stop offset="1" stop-color="#5c2f67"/></linearGradient><linearGradient id="r" x1="0.5" x2="0.5" y2="1" gradientUnits="objectBoundingBox"><stop offset="0" stop-color="#93e69a"/><stop offset="1" stop-color="#1daec4"/></linearGradient></defs><g transform="translate(-312.772 -102.361)"><g transform="translate(227 66.783)"><path d="M301.658,115.1s-49.225-11.77-86.894,20.09c-52.09,44.058-17.515,108.61-77.854,103.361C73.095,233,60.787,303.555,60.787,303.555H301.658Z" transform="translate(79.95 -77.395)" fill="url(#a)"/><g transform="translate(351.32 137.101)"><path d="M60.787,363.8c.065,0,3.268-67.141,30.288-84.976V363.8Z" transform="translate(-60.787 -278.824)" fill="url(#b)" style="mix-blend-mode:multiply;isolation:isolate"/><path d="M79.571,329.78s-8.775,20.244-12.2,53.784" transform="translate(-53.314 -298.588)" stroke="#fff" stroke-linecap="round" stroke-miterlimit="10" stroke-width="1" fill="url(#c)"/></g><path d="M303.236,247.533h0a1.916,1.916,0,0,0,.315-2.691l-1.636-2.068c-.656-.83-1.521-1.311-2.351-.654,0,0-1.543,1.524-2.566,1.054-1.164-.536-3.415-3.031-4.531-4.834-.785-1.269,1.719-3.2,1.719-3.2.829-.656.55-1.44-.106-2.27l-1.636-2.068a1.916,1.916,0,0,0-2.691-.314h0C283.271,235.626,294.592,252.084,303.236,247.533Z" transform="translate(-61.341 -122.813)" fill="#007c3d" opacity="0.2"/><rect width="53.112" height="9.805" transform="translate(104.81 212.272)" fill="#007c3d" opacity="0.6"/><rect width="41.357" height="5.733" transform="translate(110.687 206.54)" fill="#007c3d" opacity="0.2"/><g transform="translate(123.192 135.181)"><path d="M339.145,337.709h76.2a1.563,1.563,0,0,0,1.508-1.973l-15.34-56.442a4.892,4.892,0,0,0-4.72-3.609h-76.2a1.563,1.563,0,0,0-1.508,1.974l15.34,56.441A4.891,4.891,0,0,0,339.145,337.709Z" transform="translate(-316.575 -275.686)" fill="#007c3d" opacity="0.8"/><path d="M343.155,337.709h76.2a1.563,1.563,0,0,0,1.508-1.973l-15.34-56.442a4.892,4.892,0,0,0-4.72-3.609H324.6a1.563,1.563,0,0,0-1.508,1.974l15.34,56.441A4.891,4.891,0,0,0,343.155,337.709Z" transform="translate(-323.04 -275.686)" fill="url(#d)"/><path d="M358.224,327.625,369.541,373.4a7.3,7.3,0,0,0,7.086,5.548h9.3a1.641,1.641,0,0,1,1.641,1.641h0a1.641,1.641,0,0,1-1.641,1.641H361.446a6.418,6.418,0,0,1-6.241-4.921L343.479,328.42a1.681,1.681,0,0,1,1.634-2.072h11.479A1.681,1.681,0,0,1,358.224,327.625Z" transform="translate(-302.172 -295.336)" fill="url(#e)"/></g><path d="M62.807,421.682H356.622v-4.04H62.807a2.02,2.02,0,0,0-2.02,2.02h0A2.02,2.02,0,0,0,62.807,421.682Z" transform="translate(24.985 -195.565)" fill="#007c3d"/><path d="M94.493,241.917a10.186,10.186,0,0,1,2.991,18.308l.027,4.59-3.206-3.169a10.2,10.2,0,1,1,.188-19.729Zm.556,11.65a.911.911,0,1,0-.638-1.113A.911.911,0,0,0,95.05,253.566Zm-3.465-.941a.911.911,0,1,0-.638-1.113A.908.908,0,0,0,91.585,252.625Zm-3.464-.941a.911.911,0,1,0-.638-1.113A.907.907,0,0,0,88.121,251.684Z" transform="translate(266.833 -127.268)" fill="url(#c)"/><g transform="translate(234.598 57.828)" opacity="0.2"><path d="M287.582,172.034a1.366,1.366,0,0,0,1.023-1.637l-.535-2.319a7.556,7.556,0,0,0-3.378-4.739l-1.121-.7a7.261,7.261,0,0,1-3.643-5.076h0a4.5,4.5,0,0,1,8.769-2.023l.3,1.293a1.365,1.365,0,1,0,2.66-.613l-.3-1.293a7.229,7.229,0,0,0-14.1,3.184h0a9.952,9.952,0,0,0,4.871,6.844l1.121.7a4.841,4.841,0,0,1,2.165,3.037l.535,2.319A1.365,1.365,0,0,0,287.582,172.034Z" transform="translate(-277.082 -149.321)" fill="#007c3d"/><path d="M280.318,190.968a1.5,1.5,0,1,0,1.123-1.8A1.5,1.5,0,0,0,280.318,190.968Z" transform="translate(-270.626 -164.763)" fill="#007c3d"/></g><g transform="translate(313.835 65.716)"><path d="M157.265,166.472l-.01.035a5.775,5.775,0,0,0,.531,4.848l.423.777a4.171,4.171,0,0,1,.335,3.172l-.45,1.528,1.41-1.587a5.019,5.019,0,0,0-.5-3.548l-.422-.777a4.866,4.866,0,0,1-.455-4.155,3.01,3.01,0,0,1,5.774,1.7l-.25.85a.9.9,0,0,0,.27.941l.606-.683.25-.849a3.923,3.923,0,0,0-7.515-2.253Z" transform="translate(-156.035 -162.782)" fill="#007c3d"/><g transform="translate(0)"><path d="M155.818,165.63l-.031.105a6.642,6.642,0,0,0,.621,5.479l.423.777a3.24,3.24,0,0,1,.263,2.48L156.644,176a.913.913,0,0,0,1.751.516l.451-1.528c.031-.105.058-.211.084-.318a5.019,5.019,0,0,0-.5-3.548l-.422-.777a4.866,4.866,0,0,1-.455-4.155,3.01,3.01,0,0,1,5.774,1.7l-.25.85a.913.913,0,0,0,1.751.516l.25-.849a4.836,4.836,0,0,0-9.263-2.778Z" transform="translate(-155.461 -162.207)" fill="#007c3d"/><path d="M168.033,189.027a1,1,0,1,0,1.244-.678A1,1,0,0,0,168.033,189.027Z" transform="translate(-167.848 -172.33)" fill="#007c3d"/></g></g><g transform="translate(344.038 78.128)"><path d="M100.571,198.316l12.363-3.358-2.2-8.1-5.082,5.727-7.281-2.369Z" transform="translate(-98.371 -184.182)" fill="url(#c)"/><path d="M109.149,183.733l4.6-1.249.845,3.109-3.778,4.269-5.419-1.771-.845-3.109Z" transform="translate(-103.812 -182.484)" fill="url(#c)"/><rect width="7.247" height="0.263" transform="translate(9.283 1.862) rotate(164.803)" fill="url(#c)"/><rect width="7.247" height="0.263" transform="translate(9.634 3.154) rotate(164.803)" fill="url(#c)"/></g><path d="M93,147.886a1.616,1.616,0,1,0,1.616-1.616A1.616,1.616,0,0,0,93,147.886Z" transform="translate(265.652 -90.31)" fill="none" stroke="#007c3d" stroke-linecap="round" stroke-miterlimit="10" stroke-width="1"/><path d="M203.563,185.845a1.616,1.616,0,1,0,1.616-1.615A1.616,1.616,0,0,0,203.563,185.845Z" transform="translate(87.413 -105.033)" fill="#007c3d" stroke="#fff" stroke-linecap="round" stroke-miterlimit="10" stroke-width="1"/><path d="M271.8,220.143a1.616,1.616,0,1,0,1.616-1.615A1.616,1.616,0,0,0,271.8,220.143Z" transform="translate(-22.597 -118.336)" fill="none" stroke="#007c3d" stroke-linecap="round" stroke-miterlimit="10" stroke-width="1" opacity="0.6"/><g transform="translate(351.32 140.659)"><path d="M252.093,369.525s1.069-54.926-20.977-75.939c0,0-10.269,25.9,5.273,75.939Z" transform="translate(-227.789 -293.586)" fill="url(#k)" style="mix-blend-mode:multiply;isolation:isolate"/><path d="M243.716,320.685s-1.612,22.005,6.209,54.8" transform="translate(-235.278 -304.097)" stroke="#fff" stroke-linecap="round" stroke-miterlimit="10" stroke-width="1" fill="url(#c)"/></g><g transform="translate(197.633 90.904)"><path d="M185.321,266.733l.423,5.521.143,1.809.444,5.821,12.2.218-1.385-12.059-.717-6.217-.348-3Z" transform="translate(-90.785 -224.869)" fill="url(#m)"/><path d="M188.458,274.826l.136,1.925c6.766,0,9.862-10.5,10.108-11.344l-.171-1.678A21.493,21.493,0,0,1,188.458,274.826Z" transform="translate(-93.499 -227.558)" fill="#f6897e"/><path d="M343.39,304.449s-5.694-6.329-10.264-6.806c-1.686-.176,1.175,3.389,1.175,3.389H315.074a7.714,7.714,0,0,0,2.145,3.417c1.429,1.058,17.081,5.681,17.081,5.681Z" transform="translate(-315.074 -239.924)" fill="#fac88f"/><path d="M193.724,234.03c-1.658,1.264-4.421,2.7-4.816,4.75-.353,1.829,3.342,7.914,1.593,10.262-3.251,4.365,3.438,10.521,5.812,12.158,5.7,3.932,20.343-7.648,15.388-22.656C207.936,227.141,198.536,230.359,193.724,234.03Z" transform="translate(-107.146 -213.932)" fill="url(#m)"/><path d="M218.126,228.278s-15.359,10.635-22.936,6.109-.385-13.453-.385-13.453,1.682,3.131,7.2,1.314S217.725,219.292,218.126,228.278Z" transform="translate(-114.301 -210.174)" fill="url(#o)"/><path d="M184.665,229.13s3.622-5.21,8.481-2.157c3.7,2.324,2.9,15.233-.44,20.145C192.707,247.118,192.623,231.952,184.665,229.13Z" transform="translate(-87.442 -212.144)" fill="url(#o)"/><path d="M189.47,234.407s3.034,7.321,6.506,9.151c0,0-.311,3.964,3.265,3.976,0,0-1.083-1.246.075-4.021a9.176,9.176,0,0,0,.567-1.883c.7-3.793-2.61-10.816-6.315-10.41S189.47,234.407,189.47,234.407Z" transform="translate(-94.774 -214.156)" fill="url(#o)"/><path d="M183.924,256.788s2.617.291,3.679-1.857c1.9-3.834-2.263-6.14-3.568-4.1Z" transform="translate(-79.493 -221.475)" fill="#fa8fa4"/><path d="M191.263,368.193s17.109-54.612-.557-66.748-29.336-14.439-47.412-7.158-8.638,73.906-8.638,73.906Z" transform="translate(-58.44 -237.021)" fill="url(#r)"/><path d="M258.48,318.874l-28.186,25.577a15.922,15.922,0,0,1-24.612-4.049l-18.461-33.175,9.09-5.681s18.18,21.3,21.3,19.6,16.512-31.072,51.522-30.994C285.925,290.189,258.48,318.874,258.48,318.874Z" transform="translate(-167.996 -237.021)" fill="url(#r)"/><path d="M125.08,308.6s17.721,13.793,28.474,40.725a18.962,18.962,0,0,1-17.581,26.023H96.5l.749-12.246,27.557-14.06S95.98,323.947,125.08,308.6Z" transform="translate(7.186 -244.177)" fill="url(#r)"/><path d="M199.9,238.434s-1.639-14.479-11.021-17.278a5.274,5.274,0,0,1,5.891-.443s7.416,3.994,8.692,18.007Z" transform="translate(-97.905 -209.811)" fill="#6970fb"/><g transform="translate(91.218 33.164)"><path d="M193.359,269.7a19.6,19.6,0,0,0,6.537-4.215,12.184,12.184,0,0,0,3.443-7.9l-1.364-.059a11.8,11.8,0,0,1-3.175,7.12,16.52,16.52,0,0,1-6.3,3.9l.368,1.314C192.9,269.857,193.074,269.806,193.359,269.7Z" transform="translate(-191.21 -257.533)" fill="#0a0a0f"/><path d="M210.537,274.278a1.535,1.535,0,0,1-.922,1.792,1.29,1.29,0,0,1-.87-2.428A1.39,1.39,0,0,1,210.537,274.278Z" transform="translate(-207.89 -263.743)" fill="#0a0a0f"/></g><ellipse cx="6.05" cy="6.75" rx="6.05" ry="6.75" transform="translate(99.193 24.557)" fill="#173796"/><ellipse cx="5.387" cy="6.01" rx="5.387" ry="6.01" transform="translate(101.805 25.297)" fill="#8885f7"/><path d="M199.6,287.634l-4.421-6.41-7.679,5.465-4.092-3.937-3.883,4.751,4.259,4.96,3.717-4.171,3.347,4.856S196.3,291.377,199.6,287.634Z" transform="translate(-88.303 -233.558)" fill="#9cfbb1"/><path d="M164.9,350.989l9.352,14.757a3.968,3.968,0,0,1-1.995,5.852l-27.295,9.93" transform="translate(-42.422 -260.617)" fill="#44c0b6" stroke="#31b7bc" stroke-miterlimit="10" stroke-width="1"/><path d="M211.509,412.424l-1.142-8.236S196.312,408.245,195.41,409s-3.456,3.427-3.456,3.427Z" transform="translate(-107.827 -281.251)" fill="#fa8fa4"/><line x2="0.715" y2="4.645" transform="translate(132.099)" fill="none" stroke="#007c3d" stroke-linecap="round" stroke-miterlimit="10" stroke-width="1"/></g><line y1="0.744" x2="4.641" transform="translate(327.753 92.855)" fill="none" stroke="#007c3d" stroke-linecap="round" stroke-miterlimit="10" stroke-width="1"/><line x2="0.715" y2="4.645" transform="translate(212.085 115.803)" fill="none" stroke="#007c3d" stroke-linecap="round" stroke-miterlimit="10" stroke-width="1" opacity="0.5"/><line y1="0.744" x2="4.641" transform="translate(210.106 117.753)" fill="none" stroke="#007c3d" stroke-linecap="round" stroke-miterlimit="10" stroke-width="1" opacity="0.5"/><rect width="3.739" height="3.739" transform="translate(368.001 99.514)" fill="none" stroke="#007c3d" stroke-linecap="round" stroke-miterlimit="10" stroke-width="1"/><rect width="3.739" height="3.739" transform="matrix(-0.757, 0.654, -0.654, -0.757, 274.819, 58.021)" fill="none" stroke="#9da5fe" stroke-linecap="round" stroke-miterlimit="10" stroke-width="1"/><path d="M282.618,378.669h16.541a1.848,1.848,0,0,1,1.848,1.847v10.818a12.012,12.012,0,0,1-2.112,6.8l-2.022,2.945a3.328,3.328,0,0,1-2.742,1.443h-6.466a3.326,3.326,0,0,1-2.757-1.465l-2.377-3.52a10.285,10.285,0,0,1-1.76-5.752V380.516A1.848,1.848,0,0,1,282.618,378.669Z" transform="translate(-54.059 -180.449)" fill="#05cb66"/><path d="M269.575,397.154h9.215a5.648,5.648,0,0,0,0-11.3h-9.215Zm9.215-8.8a3.157,3.157,0,0,1,0,6.314h-6.724v-6.314Z" transform="translate(-30.637 -183.237)" fill="#05cb66"/><path d="M297.874,356.46a6.705,6.705,0,0,0,2.109-6.957c-1.295-4.245-4.064-7.046-2.109-10.054,0,0-4.915.726-3.139,5.7S299.383,353.237,297.874,356.46Z" transform="translate(-61.64 -165.237)" fill="url(#d)"/><path d="M287.283,353.343s3.332,4.854,0,8.506c-3.948,4.325-2.2,6.311-2.2,6.311a15.638,15.638,0,0,1,4.474-4.052C292.4,362.246,294.54,356.15,287.283,353.343Z" transform="translate(-47.664 -170.626)" fill="url(#d)"/></g></g></svg>