<?xml version="1.0"?>
<svg xmlns="http://www.w3.org/2000/svg" xmlns:xlink="http://www.w3.org/1999/xlink" xmlns:svgjs="http://svgjs.com/svgjs" version="1.1" width="512" height="512" x="0" y="0" viewBox="0 0 512 512" style="enable-background:new 0 0 512 512" xml:space="preserve"><g><g xmlns="http://www.w3.org/2000/svg"><path d="m512 241h-28.165c-2.245-34.845-12.287-68.181-29.301-97.972 10.054-11.901 16.132-27.265 16.132-44.028 0-37.679-30.654-68.333-68.333-68.333-18.48 0-35.258 7.386-47.571 19.346-26.031-12.506-54.358-19.954-83.762-21.849v-28.164h-30v28.164c-55.344 3.566-106.884 26.808-146.456 66.38-39.571 39.571-62.814 91.112-66.379 146.456h-28.165v30h28.165c2.213 34.348 12.003 67.23 28.578 96.695-7.75 9.437-12.409 21.503-12.409 34.639 0 30.143 24.523 54.666 54.666 54.666 11.771 0 22.676-3.752 31.608-10.106 32.814 21.65 70.618 34.38 110.392 36.942v28.164h30v-28.164c55.344-3.566 106.884-26.809 146.456-66.38 39.571-39.571 62.813-91.112 66.379-146.456h28.165zm-109.667-180.333c21.137 0 38.333 17.196 38.333 38.333s-17.196 38.333-38.333 38.333-38.333-17.196-38.333-38.333 17.196-38.333 38.333-38.333zm-64.169 14.836c-2.693 7.33-4.164 15.245-4.164 23.497 0 37.679 30.654 68.333 68.333 68.333 9.943 0 19.388-2.152 27.918-5.988 13.089 24 21.363 50.987 23.517 79.654h-87.786c-6.68-49.229-45.753-88.303-94.983-94.983v-87.785c23.797 1.788 46.432 7.796 67.165 17.272zm-97.164 165.497h-64.585c6.142-32.654 31.931-58.443 64.585-64.585zm0 30v64.585c-32.654-6.142-58.443-31.931-64.585-64.585zm30 0h64.585c-6.142 32.654-31.931 58.443-64.585 64.585zm0-30v-64.585c32.654 6.142 58.443 31.931 64.585 64.585zm-30-182.769v87.786c-49.23 6.68-88.303 45.754-94.983 94.983h-87.786c7.32-97.429 85.34-175.449 182.769-182.769zm-142 368.769c-13.601 0-24.666-11.065-24.666-24.667s11.065-24.666 24.666-24.666c13.602 0 24.667 11.065 24.667 24.667s-11.065 24.666-24.667 24.666zm50.501-3.754c2.68-6.446 4.166-13.508 4.166-20.913 0-30.143-24.523-54.667-54.667-54.667-6.059 0-11.885 1.006-17.337 2.835-13.041-23.961-21.282-50.895-23.432-79.501h87.786c6.68 49.229 45.753 88.303 94.983 94.983v87.786c-33.487-2.516-64.68-13.385-91.499-30.523zm121.499 30.523v-87.786c49.229-6.68 88.303-45.754 94.983-94.983h87.786c-7.321 97.429-85.34 175.449-182.769 182.769z" fill="#007c3d" data-original="#000000" style=""/></g></g></svg>
