<svg xmlns="http://www.w3.org/2000/svg" width="40" height="40" viewBox="0 0 40 40"><path d="M39.771,13.041l-3.99-3.99V.781A.781.781,0,0,0,35,0H23.49a.781.781,0,0,0,0,1.563H34.219V17.489L19.965,31.743,5.781,17.559v-16H16.459a.781.781,0,0,0,0-1.563H5a.781.781,0,0,0-.781.781v8.27l-3.99,3.99A.781.781,0,0,0,0,13.594v22.5A3.911,3.911,0,0,0,3.906,40H36.094A3.911,3.911,0,0,0,40,36.094v-22.5A.781.781,0,0,0,39.771,13.041ZM38.438,36.094a2.33,2.33,0,0,1-.229,1.01l-10.7-10.7L38.438,15.48ZM35.781,11.261l2.333,2.333-2.333,2.333ZM1.792,37.1a2.329,2.329,0,0,1-.229-1.01V15.55L12.454,26.441ZM4.219,16,1.851,13.629l2.368-2.368ZM3.906,38.437a2.329,2.329,0,0,1-1.01-.229L13.559,27.546,19.412,33.4a.781.781,0,0,0,1.1,0l5.889-5.889,10.7,10.7a2.33,2.33,0,0,1-1.01.229H3.906Z" transform="translate(0 0)" fill="#fff"/><path d="M246.461,1.562a.781.781,0,0,0,.781-.781.781.781,0,1,0-.781.781Z" transform="translate(-226.486 0)" fill="#fff"/><path d="M148.859,69.069a8.487,8.487,0,0,0,2.21,10.8,8.576,8.576,0,0,0,5,1.8h.022a.781.781,0,0,0,.021-1.562,6.945,6.945,0,0,1-1.916-13.559,6.944,6.944,0,0,1,8.753,4.6,6.083,6.083,0,0,1-.375,4.049,2.133,2.133,0,0,1-1.965,1.451.809.809,0,0,1-.565-.259,1.227,1.227,0,0,1-.348-.871V69.058a.781.781,0,1,0-1.562,0v.249a3.411,3.411,0,0,0-2.216-.8,4.265,4.265,0,0,0-4.014,4.573,5.233,5.233,0,0,0,1.126,3.327,3.669,3.669,0,0,0,2.806,1.41,3.45,3.45,0,0,0,2.539-1.156,2.74,2.74,0,0,0,.562.827,2.357,2.357,0,0,0,1.672.719,3.694,3.694,0,0,0,3.417-2.436,7.62,7.62,0,0,0,.429-5.042l-.007-.024a8.5,8.5,0,0,0-15.587-1.637Zm6.975,7.186c-1.306,0-2.369-1.424-2.369-3.175a2.733,2.733,0,0,1,2.452-3.011c1.3,0,2.205,1.228,2.205,2.987s-1.026,3.2-2.287,3.2Z" transform="translate(-136.249 -59.602)" fill="#fff"/></svg>