<svg xmlns="http://www.w3.org/2000/svg" width="63.449" height="57.98" viewBox="0 0 63.449 57.98"><g transform="translate(0 -22.066)" opacity="0.5"><g transform="translate(0 22.066)"><path d="M54.258,22.068H41.921a1.242,1.242,0,1,0,0,2.484H54.258a6.714,6.714,0,0,1,6.707,6.707V52.124a6.714,6.714,0,0,1-6.707,6.707H46.975a1.243,1.243,0,0,0-.876.361l-5.007,4.975V60.072a1.242,1.242,0,0,0-1.242-1.242H20.476a6.714,6.714,0,0,1-6.707-6.707V31.259a6.714,6.714,0,0,1,6.707-6.707h11.84a1.242,1.242,0,0,0,0-2.484H20.476a9.2,9.2,0,0,0-9.191,9.191v1.223h-2.1A9.2,9.2,0,0,0,0,41.672V63.778a9.2,9.2,0,0,0,9.191,9.191h6.77l6.761,6.718a1.242,1.242,0,0,0,2.118-.881V72.968H42.972a9.2,9.2,0,0,0,9.191-9.191V61.314h2.1a9.2,9.2,0,0,0,9.191-9.191V31.259A9.2,9.2,0,0,0,54.258,22.068Zm-4.579,41.71a6.714,6.714,0,0,1-6.707,6.707H23.6a1.242,1.242,0,0,0-1.242,1.242V75.82l-5.007-4.975a1.242,1.242,0,0,0-.876-.361H9.191a6.725,6.725,0,0,1-.745-.042V63.051a1.242,1.242,0,0,0-2.484,0v6.6a6.711,6.711,0,0,1-3.478-5.876V41.672a6.714,6.714,0,0,1,6.707-6.707h2.095V52.124a9.2,9.2,0,0,0,9.191,9.191H38.609v5.837a1.242,1.242,0,0,0,2.118.881l6.761-6.718h2.191v2.463Z" transform="translate(0 -22.068)"/></g><g transform="translate(36.125 22.066)"><path d="M293.632,22.43a1.241,1.241,0,1,0,.364.878A1.249,1.249,0,0,0,293.632,22.43Z" transform="translate(-291.512 -22.066)"/></g><g transform="translate(28.828 33.451)"><path d="M245.449,128.656l-5.208-13.91a1.242,1.242,0,0,0-2.326,0l-5.208,13.91a1.242,1.242,0,1,0,2.326.871l1.837-4.907h4.416l1.837,4.907a1.242,1.242,0,1,0,2.326-.871Zm-7.649-6.52,1.278-3.413,1.278,3.413Z" transform="translate(-232.627 -113.94)"/></g><g transform="translate(44.213 33.451)"><path d="M366.8,128.214l-.582-.583a4.97,4.97,0,0,0,.562-2.3v-6.391h0a5,5,0,1,0-10,0v6.391a5,5,0,0,0,7.784,4.154l.482.483a1.242,1.242,0,1,0,1.758-1.755Zm-2.5-2.882a2.517,2.517,0,0,1-.027.347l-.845-.847a1.242,1.242,0,0,0-1.758,1.755l1.07,1.072a2.515,2.515,0,0,1-3.476-2.327v-6.391a2.518,2.518,0,0,1,5.035,0v6.391Z" transform="translate(-356.778 -113.94)"/></g><g transform="translate(19.141 33.451)"><path d="M161.226,122.136h-4.282v-5.153a.558.558,0,0,1,.556-.56h3.726a1.242,1.242,0,1,0,0-2.484H157.5a3.045,3.045,0,0,0-3.04,3.043v12.109a1.242,1.242,0,0,0,2.484,0V124.62h4.282a1.242,1.242,0,0,0,0-2.484Z" transform="translate(-154.46 -113.939)"/></g><g transform="translate(5.961 57.149)"><path d="M50.225,305.535a1.241,1.241,0,1,0,.364.878A1.251,1.251,0,0,0,50.225,305.535Z" transform="translate(-48.105 -305.171)"/></g></g></svg>