<svg xmlns="http://www.w3.org/2000/svg" width="170.275" height="171.651" viewBox="0 0 170.275 171.651">
  <g id="feed" transform="translate(0 4.751)" opacity="0.92" style="isolation: isolate">
    <g id="Layer_2" data-name="Layer 2" transform="translate(0 -4.751)">
      <g id="Object" transform="translate(0 0)">
        <g id="Positive_Feedback" data-name="Positive Feedback">
          <path id="Path_12135" data-name="Path 12135" d="M121.581,332.685c.174-.055.342-.127.5-.188a11.826,11.826,0,0,0,1.368-.684,5.813,5.813,0,0,0,1.026-1.71c.981-2.435,1.45-7.409-5.471-14.436-4.715-4.787-5.32-4.647-5.248-10.175v-.684c.127-6.247-8.719-7.895-10.671-15.253s-10.528-3.665-5.365,2.41-2.346,14.655,6.035,20.095,4.763,6.667,6.975,14.053C112.691,332.524,117.307,334.206,121.581,332.685Z" transform="translate(-63.236 -186.241)" fill="#dae7ea"/>
          <path id="Path_12136" data-name="Path 12136" d="M127.963,338.836c-.15-.342-15.044-34.534-22.536-43.8l-.427.328c7.464,9.2,22.32,43.342,22.467,43.683Z" transform="translate(-69.099 -192.536)" fill="#adadea"/>
          <path id="Path_12137" data-name="Path 12137" d="M141.86,327.632c.841.486,1.908-.479,3.1-2.445,3.761-6.254,8.852-22.669,12.494-35.077,2.452-8.36,4.253-14.887,4.575-15.28a82.238,82.238,0,0,0-10.066,11.441c-5.324,7.276-10.941,17.366-11.683,28.342a33.637,33.637,0,0,0,1.583,13.02Z" transform="translate(-92.251 -179.236)" fill="#e6e9f8"/>
          <path id="Path_12138" data-name="Path 12138" d="M132.129,345.889c-3.57-.92-2.558-13.749-7.864-22.286s5.693-4.787,9.375-6.647.578-11.584,4.2-12.545,7.1,2.978,5.758,8.206,3.682-1.874,5.84.116-5.594,13.044-2.144,13.714,9.84-2.735,4.7,6.466S139.805,347.876,132.129,345.889Z" transform="translate(-80.842 -198.608)" fill="#c6cbea"/>
          <path id="Path_12139" data-name="Path 12139" d="M148.1,335.258l.8-.127c.65,4.161,3.935,8.264,5.047,9.553,1.542-2.865,2.8-5.867,2.886-8.151a40.766,40.766,0,0,0-.595-7.215c-.168-1.183-.342-2.376-.451-3.58-.684-.53-2.735-2.219-2.564-3.385l.8.123c-.062.4.725,1.316,1.665,2.13a21.376,21.376,0,0,1,.636-7.608l.776.226c-1.176,4.069-.609,8.09-.061,11.967.027.181.051.366.075.547a3.36,3.36,0,0,0,3.553-1.881l.684.424a4.183,4.183,0,0,1-4.127,2.284,35.306,35.306,0,0,1,.414,5.987,12.9,12.9,0,0,1-.752,3.566c1.193.414,5.218,1.556,7.994-.684l.506.633c-2.629,2.113-6.12,1.569-7.946,1.067-.342-.1-.622-.185-.831-.26-2.308,6.055-7.693,13.109-7.98,13.482l-.626-.475a80.653,80.653,0,0,0,5.539-8.442C152.616,344.418,148.834,339.967,148.1,335.258Z" transform="translate(-97.396 -206.988)" fill="#e6e9f8"/>
          <path id="Path_12140" data-name="Path 12140" d="M71.251,425.952C50.811,427.32,51,431.8,41.2,431.8c-14.969,0-45.2,13.082-10.548,17.038,46.9,5.354,49.168-6.155,74.6-5.7s48.422,5.4,65.99,2.5c15.728-2.6,6.346-16.682-24.926-15.656S86.1,424.947,71.251,425.952Z" transform="translate(-9.647 -278.613)" opacity="0.05"/>
          <path id="Path_12141" data-name="Path 12141" d="M139.224,105.394c14.282,9.345,36.766,41.03,47.5,17.072s-.886-35.86,15.978-39.471S236.688,58.8,227.542,54.52s-29.4,14.644-31.641,1.9,27.466-28.509,5.283-29.7S164.967,56.4,125.507,45.4c-34.917-9.738-48.06,77.988-17.479,58.194C136.407,85.258,139.224,105.394,139.224,105.394Z" transform="translate(-59.817 -15.934)" fill="#059049"/>
          <circle id="Ellipse_1668" data-name="Ellipse 1668" cx="7.536" cy="7.536" r="7.536" transform="translate(80.43 19.894) rotate(-45)" fill="#f3f5f8"/>
          <circle id="Ellipse_1669" data-name="Ellipse 1669" cx="5.368" cy="5.368" r="5.368" transform="translate(103.246 4.069) rotate(-22.27)" fill="#f3f5f8"/>
          <circle id="Ellipse_1670" data-name="Ellipse 1670" cx="4.53" cy="4.53" r="4.53" transform="translate(65.19 13.598)" fill="#f3f5f8"/>
          <path id="Path_12142" data-name="Path 12142" d="M167.9,402.249v8.907a2.482,2.482,0,0,1-2.472,2.472H128.908a2.469,2.469,0,0,1-2.455-2.472v-2.366l-3.573-2.1,3.573-2.1v-2.349a2.459,2.459,0,0,1,2.455-2.469h36.517A2.472,2.472,0,0,1,167.9,402.249Z" transform="translate(-80.865 -261.464)" fill="#67ce9a"/>
          <rect id="Rectangle_784" data-name="Rectangle 784" width="13.061" height="3.252" transform="translate(51.465 140.977)" fill="#96f5c5"/>
          <rect id="Rectangle_785" data-name="Rectangle 785" width="29.764" height="3.829" transform="translate(50.86 146.437)" fill="#96f5c5"/>
          <path id="Path_12143" data-name="Path 12143" d="M222.952,402.249v8.907a2.482,2.482,0,0,1-2.472,2.472H206.629a2.393,2.393,0,0,1-.089-.646v-13.2h13.94a2.472,2.472,0,0,1,2.472,2.469Z" transform="translate(-135.92 -261.464)" opacity="0.1"/>
          <path id="Path_12144" data-name="Path 12144" d="M253.82,358.387v25.5A2.821,2.821,0,0,1,251,386.705H212.707a2.811,2.811,0,0,1-2.26-1.145,2.777,2.777,0,0,1-.557-1.672v-25.5a2.821,2.821,0,0,1,2.817-2.817H251A2.821,2.821,0,0,1,253.82,358.387Z" transform="translate(-138.125 -232.37)" fill="#393768"/>
          <rect id="Rectangle_786" data-name="Rectangle 786" width="13.376" height="4.332" transform="translate(80.347 128.972)" fill="#e6e9f8"/>
          <rect id="Rectangle_787" data-name="Rectangle 787" width="27.565" height="11.964" transform="translate(80.347 136.6)" fill="#e6e9f8"/>
          <path id="Path_12145" data-name="Path 12145" d="M212.667,420.089a5.813,5.813,0,0,1-2.26,4.626,2.777,2.777,0,0,1-.557-1.672V415.07A5.874,5.874,0,0,1,212.667,420.089Z" transform="translate(-138.099 -271.526)" opacity="0.1"/>
          <circle id="Ellipse_1671" data-name="Ellipse 1671" cx="5.871" cy="5.871" r="5.871" transform="matrix(0.231, -0.973, 0.973, 0.231, 60.939, 152.909)" fill="#e6e9f8"/>
          <path id="Path_12146" data-name="Path 12146" d="M191.893,427.091a.763.763,0,0,1-.571-.263l-2.151-2.486a.756.756,0,0,1,1.142-.988l1.5,1.734,2.91-4.445a.753.753,0,0,1,1.262.824l-3.457,5.283a.759.759,0,0,1-.581.342Z" transform="translate(-124.381 -274.968)" fill="#393768"/>
          <path id="Path_12147" data-name="Path 12147" d="M70.581,455.807s-.1,1.6.342,2.11-4.1.554-4.1.554,1.292-2.373.732-3.419S70.581,455.807,70.581,455.807Z" transform="translate(-43.973 -297.622)" fill="#edb6a4"/>
          <path id="Path_12148" data-name="Path 12148" d="M75.3,467.238l-10.09-.766a2.881,2.881,0,0,1,.25-3.31,9.054,9.054,0,0,0,4.612-.342,17.841,17.841,0,0,0,5.334,3.108C76.1,466.3,75.929,466.735,75.3,467.238Z" transform="translate(-42.64 -302.949)" fill="#adadea"/>
          <rect id="Rectangle_788" data-name="Rectangle 788" width="10.141" height="0.434" transform="translate(32.63 164.723) rotate(-175.66)" fill="#a8cfef"/>
          <path id="Path_12149" data-name="Path 12149" d="M21.842,453.961s-.5,1.518-.209,2.13-4.1-.52-4.1-.52,1.857-1.959,1.58-3.108S21.842,453.961,21.842,453.961Z" transform="translate(-11.536 -295.944)" fill="#edb6a4"/>
          <path id="Path_12150" data-name="Path 12150" d="M24.029,466.759l-9.574-3.327a2.878,2.878,0,0,1,1.091-3.132,8.928,8.928,0,0,0,4.548.848,17.735,17.735,0,0,0,4.359,4.37C25.044,466.041,24.767,466.434,24.029,466.759Z" transform="translate(-9.435 -301.291)" fill="#adadea"/>
          <rect id="Rectangle_789" data-name="Rectangle 789" width="10.141" height="0.434" transform="translate(14.458 165.879) rotate(-160.83)" fill="#a8cfef"/>
          <path id="Path_12151" data-name="Path 12151" d="M19.43,370.3l3.99.451,8.059-22.3v-23.2l-9.916,1.207a181.822,181.822,0,0,0,3.166,22.074Z" transform="translate(-12.787 -212.417)" fill="#e6e9f8"/>
          <path id="Path_12152" data-name="Path 12152" d="M47.93,323.33l10.746.657,1.792,22.088-1.915,23.408-4.353-.3-.468-23.428C50.576,337.13,48.029,328.657,47.93,323.33Z" transform="translate(-31.542 -211.153)" fill="#e6e9f8"/>
          <path id="Path_12153" data-name="Path 12153" d="M23.64,265.64c2.311-11.509,2.093-22.549,2.438-32.164,5.97-.981,11.454-1.286,15.5.427q1.5,15.728,1.484,31.456C40.356,267.589,32.243,267.339,23.64,265.64Z" transform="translate(-15.557 -151.497)" fill="#a8cfef"/>
          <path id="Path_12154" data-name="Path 12154" d="M72.48,189.086l5.023-6.12-2.3-16.911,3.132-.824c1.405,7.693,4.2,16.669,4.021,19.27,0,1.946-4.6,8.384-8,12.719Z" transform="translate(-47.698 -107.11)" fill="#a8cfef"/>
          <path id="Path_12155" data-name="Path 12155" d="M10.87,185.951l-.5,9.628C6.264,190.943.154,182.99,0,181.643c.089-1.987,5.7-13.065,9.464-21.093l2.493,1.71L5.59,180.747Z" transform="translate(0 -104.031)" fill="#a8cfef"/>
          <path id="Path_12156" data-name="Path 12156" d="M44.944,217.28a10.517,10.517,0,0,1,.12,5.269c-1.812,2.913,8.746,2.958,5.006-.178-.725-1.4-.592-2.9-.5-5.074Z" transform="translate(-29.517 -141.364)" fill="#e0a494"/>
          <path id="Path_12157" data-name="Path 12157" d="M38.432,202.344c.684,1.33,4.6,2.582,6.3,2.393,1.863-.222,2.424-10.056,1.744-10.21l-6.92-2.578-3.2,3.761a39.266,39.266,0,0,0,2.082,6.633Z" transform="translate(-23.921 -124.694)" fill="#edb6a4"/>
          <path id="Path_12158" data-name="Path 12158" d="M21.19,113.834l4.869,6.585a.537.537,0,0,0,.605.191l7.762-2.6a.54.54,0,0,1,.612.827l-4.756,6.664a.544.544,0,0,0,0,.636l4.869,6.582a.54.54,0,0,1-.6.838L26.743,131.1a.537.537,0,0,0-.6.2l-4.749,6.664a.54.54,0,0,1-.981-.308l-.068-8.206a.54.54,0,0,0-.376-.513l-7.809-2.462a.54.54,0,0,1,0-1.026l7.768-2.6a.544.544,0,0,0,.369-.516l-.068-8.189a.54.54,0,0,1,.964-.315Z" transform="translate(-7.756 -73.152)" fill="#ffb90c"/>
          <path id="Path_12159" data-name="Path 12159" d="M40.461,193.179a15.628,15.628,0,0,0,6.028,1.091c1.21-1.145-.321-2.052-.766-3.535-1.819-2.233-3.19-2.65-6.113-2.267-2.735.838-2.369,1-3.6,2.51-.725,1.563-1.405,2.882-1.176,4.575.342,2.513,1.337,3.631,3.276,5.163,1.108-.814,1.183-.845,1.026-2.171a2.88,2.88,0,0,1-1.5-2.51,1.214,1.214,0,0,1,.992-.971,1.477,1.477,0,0,1,.684,1.258A3.3,3.3,0,0,0,40.461,193.179Z" transform="translate(-22.893 -122.32)" fill="#393768"/>
          <path id="Path_12160" data-name="Path 12160" d="M27.68,155.835l1.333-1.894c1.227-.506,2.311-.9,3.094-.089a3.023,3.023,0,0,1,.684,2.5l-2.609,1.19Z" transform="translate(-18.216 -99.316)" fill="#edb6a4"/>
          <path id="Path_12161" data-name="Path 12161" d="M74.008,160.226c-1.074-.383-2.219-.376-2.687-.824a2.569,2.569,0,0,1-.612-1.922c.161-.615.9-.728,1.877-1.08a5.418,5.418,0,0,1,4.554,3Z" transform="translate(-46.507 -101.3)" fill="#edb6a4"/>
          <path id="Path_12162" data-name="Path 12162" d="M217.784,154.606v25.928a8.6,8.6,0,0,1-8.206,8.589l2.41,6.859a1.132,1.132,0,0,1-1.747,1.3l-12.395-8.131h-31.74a8.616,8.616,0,0,1-8.575-7.912c0-.226-.031-.451-.031-.684V154.606A8.616,8.616,0,0,1,166.106,146h43.082A8.613,8.613,0,0,1,217.784,154.606Z" transform="translate(-103.648 -94.456)" fill="#e6e9f8"/>
          <path id="Path_12163" data-name="Path 12163" d="M194.712,132.95H153.839a8.616,8.616,0,0,0-8.606,8.606v24.505a8,8,0,0,1-6.373-7.809V134.157a8,8,0,0,1,7.987-7.987h39.98A7.994,7.994,0,0,1,194.712,132.95Z" transform="translate(-91.381 -81.406)" fill="#fff"/>
          <path id="Path_12164" data-name="Path 12164" d="M248.936,177.842l-1.6,8.688a7.974,7.974,0,0,1-7.864,6.555h-8.175a3.44,3.44,0,0,1-3.453-3.419v-11.56a3.44,3.44,0,0,1,1.368-2.735c1.518-2.8,3.279-5.259,4.336-7.5.417-1.125,4.421-1.98,4.883,1.474a13.162,13.162,0,0,1-1.891,5.344h9.745a2.684,2.684,0,0,1,2.657,3.156Z" transform="translate(-149.937 -108.196)" fill="#adadea"/>
          <rect id="Rectangle_790" data-name="Rectangle 790" width="7.081" height="14.162" rx="2.82" transform="translate(70.835 68.596)" fill="#393768"/>
          <path id="Path_12165" data-name="Path 12165" d="M185.05,161.534h-8.206a1.744,1.744,0,0,1-1.744-1.744h0a1.744,1.744,0,0,1,1.744-1.74h8.206a1.74,1.74,0,0,1,1.74,1.74h0a1.74,1.74,0,0,1-1.74,1.744Z" transform="translate(-115.23 -102.385)" fill="#adadea"/>
          <path id="Path_12166" data-name="Path 12166" d="M217.784,154.606v25.928a8.6,8.6,0,0,1-8.206,8.589l2.41,6.859a1.132,1.132,0,0,1-1.747,1.3l-12.395-8.131h-31.74a8.616,8.616,0,0,1-8.575-7.912c0-.226-.031-.451-.031-.684V154.606A8.616,8.616,0,0,1,166.106,146h43.082A8.613,8.613,0,0,1,217.784,154.606Z" transform="translate(-103.648 -94.456)" fill="#b7e8ff"/>
          <path id="Path_12167" data-name="Path 12167" d="M444.736,356.9l-4.366.212L438.345,334.5l-2.472-14.265-1.217-7.013L434.106,310l-.226-1.275,13.246-.438-2.8,23.654Z" transform="translate(-285.529 -201.256)" fill="#e6e9f8"/>
          <path id="Path_12168" data-name="Path 12168" d="M420.956,309.59l-.031.092-1.009,2.735-.075.212-.8,2.185-2.3,6.271a.109.109,0,0,1,0,.044l-5.187,14.142-.766,15.205-.41,8.018h-4.322L404.8,335.815l2.366-21.671.058-.513.048-.451.075-.711,7.625-1.61,5.228-1.128h.031Z" transform="translate(-266.392 -202.111)" fill="#e6e9f8"/>
          <path id="Path_12169" data-name="Path 12169" d="M432.436,247.124a2.393,2.393,0,0,1-.588.468,7.18,7.18,0,0,1-1.5.739,22.457,22.457,0,0,1-3.241.858h-.075c-.981.2-2.034.376-3.118.513-1.525.226-3.077.393-4.6.513a58.967,58.967,0,0,1-8.045.243,1.838,1.838,0,0,1-.424-.079c.3-2.093.574-4.325.8-6.705h0c0-.075.017-.15.017-.226.075-.769.15-1.552.226-2.366.044-.421.075-.827.106-1.265V239.8c.027-.39.058-.8.089-1.2.164-2.158.3-4.373.393-6.678h0c.075-1.884.12-3.8.151-5.772.027-3.029,0-6.155-.106-9.375l6.073-1.463,4.219-1.009,2.157.287,5.378.684a37.87,37.87,0,0,0-.089,8.045v.017q.113,2.168.315,4.657c.031.342.062.721.092,1.1a1.282,1.282,0,0,1,0,.229h0c.044.438.089.889.12,1.34.031.318.062.65.092.964s.058.684.106,1.026c.359,3.874.783,8.035,1.19,12.1C432.254,245.558,432.343,246.355,432.436,247.124Z" transform="translate(-270.367 -139.402)" fill="#adadea"/>
          <path id="Path_12170" data-name="Path 12170" d="M434.764,209.3c-.208,1.3.127,2.359-1.255,2.629-.034,1.71,1.805,2.448,3.3,2.629,2.8-.229,4.1-1.631,3.652-3-1.751-.636-1.026-1.241-1.446-2.257Z" transform="translate(-285.284 -136.112)" fill="#e0a494"/>
          <path id="Path_12171" data-name="Path 12171" d="M438.922,184.493a6.984,6.984,0,0,1-.291,2.841c-.834,2.093-2.431,4.1-4.271,4.1a2.839,2.839,0,0,1-1.368-.38,4.172,4.172,0,0,1-.684-.468,2.748,2.748,0,0,1-.215-.195,8.84,8.84,0,0,1-2.356-5.9,4.6,4.6,0,0,1,4.633-4.708C438.47,179.744,438.922,181.912,438.922,184.493Z" transform="translate(-282.802 -116.691)" fill="#edb6a4"/>
          <path id="Path_12172" data-name="Path 12172" d="M439.875,241.729h-2.882a.66.66,0,0,1-.656-.5l-.862-5.536a.451.451,0,0,1,.5-.5h2.882a.66.66,0,0,1,.656.5l.865,5.536a.451.451,0,0,1-.5.5Z" transform="translate(-286.576 -153.152)" fill="#e6e9f8"/>
          <path id="Path_12173" data-name="Path 12173" d="M441.133,236.846a.3.3,0,0,1-.342.342.438.438,0,0,1-.438-.342.3.3,0,0,1,.342-.342.438.438,0,0,1,.438.342Z" transform="translate(-289.787 -154.012)" fill="#393768"/>
          <path id="Path_12174" data-name="Path 12174" d="M441.7,239.349a.116.116,0,0,1-.13.126.174.174,0,0,1-.168-.126.12.12,0,0,1,.13-.13.174.174,0,0,1,.168.13Z" transform="translate(-290.477 -155.801)" fill="#393768"/>
          <path id="Path_12175" data-name="Path 12175" d="M439.526,247.628a2.82,2.82,0,0,1-1.672.1,3.867,3.867,0,0,1-1.552-1.2,4.223,4.223,0,0,1-.267-1.98c.154-.465,3.761.684,4.318.376.13-.017.342.407.25.629Z" transform="translate(-286.932 -159.231)" fill="#edb6a4"/>
          <path id="Path_12176" data-name="Path 12176" d="M400.878,457.055c.085.92-2.431,2.558-4.1,3.782-1.091.769-1.108,1.087-.147,1.73a6.05,6.05,0,0,0,3.761-.133c.571-.151,4.39-3.077,4.445-4.185-.038-.441-.26-1.679-.725-1.559A4.688,4.688,0,0,0,400.878,457.055Z" transform="translate(-260.555 -298.832)" fill="#393768"/>
          <path id="Path_12177" data-name="Path 12177" d="M410.336,452.65l-.236,2.281a3.864,3.864,0,0,0,3.111.191.643.643,0,0,0,.4-.684l-.233-1.785Z" transform="translate(-269.879 -296.256)" fill="#edb6a4"/>
          <path id="Path_12178" data-name="Path 12178" d="M457.216,455.5c-.086.92,2.431,2.561,4.1,3.785,1.091.766,1.1,1.087.147,1.73a6.047,6.047,0,0,1-3.761-.137c-.571-.147-4.394-3.06-4.445-4.185.034-.438.256-1.679.721-1.559A4.562,4.562,0,0,1,457.216,455.5Z" transform="translate(-298.282 -297.802)" fill="#393768"/>
          <path id="Path_12179" data-name="Path 12179" d="M458.118,451.08l.236,2.281a3.863,3.863,0,0,1-3.111.191.643.643,0,0,1-.4-.684l.236-1.785Z" transform="translate(-299.318 -295.223)" fill="#edb6a4"/>
          <path id="Path_12180" data-name="Path 12180" d="M474.7,234.649a3.787,3.787,0,0,1-.434.574,2.266,2.266,0,0,1-2.171.752,58.328,58.328,0,0,1-5.471-2.229c-.151-.062-.3-.137-.451-.212-.243-.089-.482-.209-.708-.315s-.342-.168-.5-.243l.075-.15.27-.557.393-.783.243-.5.451-.9.106-.226,3.419,1.433-4.37-6.059v-.017l-1.043-1.429c-.12-2.246-.1-4.811,1.132-6.616,2.277,2.3,5.758,9.16,9.208,15.944A1.556,1.556,0,0,1,474.7,234.649Z" transform="translate(-305.653 -141.291)" fill="#393768"/>
          <path id="Path_12181" data-name="Path 12181" d="M447.367,247.7l-1.077,2.079c2.219.889,4.589,2.052,6.893,3.2l1.368-2.776Z" transform="translate(-293.695 -161.382)" fill="#edb6a4"/>
          <path id="Path_12182" data-name="Path 12182" d="M438.149,180.436l.287-1.1s.021-2.212.161-3.761a2.287,2.287,0,0,0-.9-1.945c-.537-.427-.2-.475-.7-.995-.612-.636-.981-.78-.992-1.142,0,0-.421.414-.7.4s.14-.181.154-.458a1.237,1.237,0,0,0-.024-.38s-.291.475-.646.53-.188-.051-.188-.051.089-.486-.031-.633a3.611,3.611,0,0,1-2.339,1c-1.71.215-1.573,1.18-1.573,1.18s-2.376.147-1.426,5.447c.2,1.71.185,1.286.185,1.286l.362.79s-.239-2.441.2-3.077-.15-2.445,1.583-2.393,3.053.615,5.727-.109c.161.133.1,1.71.455,2.246A11.948,11.948,0,0,1,438.149,180.436Z" transform="translate(-282.32 -110.842)" fill="#393768"/>
          <path id="Path_12183" data-name="Path 12183" d="M456.466,191.643s.479-.267.629.2-.267.968-.263,1.368-.448,1.658-.472,1.2C456.356,194.365,456.466,191.643,456.466,191.643Z" transform="translate(-300.322 -124.443)" fill="#e0a494"/>
          <path id="Path_12184" data-name="Path 12184" d="M428.539,193.107s-.506-.215-.605.263.369.933.4,1.34.636,1.532.612,1.077C428.949,195.733,428.539,193.107,428.539,193.107Z" transform="translate(-281.606 -125.424)" fill="#e0a494"/>
          <path id="Path_12185" data-name="Path 12185" d="M394.713,266.921l-3.211,2.151-.068.985a1.4,1.4,0,0,1-1.894,1.269l-29.282-8.4a2.359,2.359,0,0,1-1.658-2.287l.54-7.987a1.405,1.405,0,0,1,1.894-1.269l29.282,8.4a2.339,2.339,0,0,1,1.658,2.287l-.068.985Z" transform="translate(-235.988 -163.746)" fill="#e6e9f8"/>
          <path id="Path_12186" data-name="Path 12186" d="M388.716,268.927l-10.866-3.118.168-2.489,10.866,3.118Z" transform="translate(-248.656 -171.662)" fill="#adadea"/>
          <path id="Path_12187" data-name="Path 12187" d="M397.6,283.207l-20.518-5.888.167-2.489,20.519,5.888Z" transform="translate(-248.15 -179.236)" fill="#adadea"/>
          <path id="Path_12188" data-name="Path 12188" d="M408.22,291.045c-.044-.041-6.589-5.16-8.456-7.392l-.044-.041.708-.609,1.822-1.583,7.085,7.55Z" transform="translate(-263.049 -183.573)" fill="#edb6a4"/>
          <path id="Path_12189" data-name="Path 12189" d="M425.027,305.216a2.422,2.422,0,0,1-.609.5,1.952,1.952,0,0,1-1.2.41A1.709,1.709,0,0,1,422,304.6a1.034,1.034,0,0,1,0-.2c.113-.058.243-.113.342-.171h0a16.094,16.094,0,0,0,1.611-.865c.342-.256,1.415.236,1.8.609C426.1,304.4,425.478,304.752,425.027,305.216Z" transform="translate(-277.708 -197.967)" fill="#edb6a4"/>
          <path id="Path_12190" data-name="Path 12190" d="M393.677,238.929l2.106,2.913-.212.185-1.8,1.61-.684.622-.113.1c-.964-1.06-1.754-2.205-2.448-3.077a4.445,4.445,0,0,1-.537-4.654.084.084,0,0,1,.027-.072c3.2-6.517,6.435-13.246,8.5-15,1.279,2.14,1.409,4.845,1.34,7.361Z" transform="translate(-256.37 -144.18)" fill="#393768"/>
          <path id="Path_12191" data-name="Path 12191" d="M429.055,297l-1.611,4.007-.393.981v1.628h-.075l-3.194.725-2.7.6-1.733.226-2.759.376s-4.13-.164-5.426-.209l.048-.451a1.842,1.842,0,0,1-.424-.079c.3-2.093.574-4.325.8-6.7h0l1.853,1.084s.927,1.439,1.98,1.665c.181.031.927.4,1.094.444.482.092,1.231-.667,1.262-.653a2.213,2.213,0,0,0,.629-.821c.137,0,.311.133.462.133h0c6.213,2.24,6.784.629,6.951-.821Z" transform="translate(-270.334 -193.826)" opacity="0.05"/>
          <path id="Path_12192" data-name="Path 12192" d="M456.087,257.181a2.266,2.266,0,0,1-2.171.752,58.314,58.314,0,0,1-5.471-2.229c-.151-.062-.3-.137-.451-.212.031.342.058.684.106,1.026a2.329,2.329,0,0,1-1.026-.571,40.851,40.851,0,0,0-5.064-2.835,28.424,28.424,0,0,0-3.618-1.1,3.254,3.254,0,0,1-.451-.2,2.414,2.414,0,0,1-.739-.646,2.793,2.793,0,0,1-.362-.65s.106.045.287.106a17.6,17.6,0,0,0,2.653.858,2.365,2.365,0,0,1,.342.075c.226.048.527.123.858.226h0a23.184,23.184,0,0,1,4.011,1.494,22.374,22.374,0,0,0,2.137.933c.048,0,.079.031.123.044.209.092.421.168.646.256,1.764.684,3.761,1.433,4.506,1.734A26.512,26.512,0,0,0,456.087,257.181Z" transform="translate(-287.477 -163.238)" opacity="0.05"/>
          <path id="Path_12193" data-name="Path 12193" d="M70.18,110.034l-1.06-1.08c.564-.557,1.118-1.084,1.655-1.583l1.026,1.108C71.271,108.97,70.734,109.486,70.18,110.034Z" transform="translate(-45.487 -69.034)" fill="#cce9f1"/>
          <path id="Path_12194" data-name="Path 12194" d="M193.925,67.11l-4.346-1.368.455-1.436,4.342,1.368ZM185.261,63.6a9.642,9.642,0,0,1-2.657-4.1l1.419-.513a8.175,8.175,0,0,0,2.233,3.47Zm-3.648-8.712c-.147-1.33-.222-2.841-.239-4.623h1.508a44.653,44.653,0,0,0,.229,4.476Zm1.32-9.17-1.508-.034.024-1.026c.031-1.159.058-2.335.075-3.515l1.508.021c0,1.186-.048,2.366-.075,3.532Zm-68.914-1.6a21.435,21.435,0,0,1-3.788-.342l.263-1.484a19.8,19.8,0,0,0,4.37.294l.065,1.508C114.621,44.116,114.316,44.119,114.019,44.119ZM85.236,43.8l-.916-1.2a29.273,29.273,0,0,1,3.912-2.554l.711,1.327A27.819,27.819,0,0,0,85.236,43.8Zm34.349-.342-.342-1.467c.458-.109.93-.233,1.409-.369a23.879,23.879,0,0,0,2.787-1l.595,1.368a24.982,24.982,0,0,1-2.961,1.063q-.773.229-1.5.4Zm-13.851-.9c-.892-.315-1.751-.653-2.592-.985-.564-.222-1.121-.441-1.675-.65l.523-1.419c.561.209,1.125.431,1.71.656.827.325,1.672.656,2.547.968ZM92.991,39.848l-.315-1.474a12.921,12.921,0,0,1,2.735-.291h0a13.725,13.725,0,0,1,2.052.161l-.229,1.491a12.064,12.064,0,0,0-1.836-.144h0a11.523,11.523,0,0,0-2.421.246Zm35.17,0-.8-1.279a41.03,41.03,0,0,0,3.652-2.581l.93,1.186a42.81,42.81,0,0,1-3.8,2.65ZM181.5,36.641c-.055-1.655-.164-3.118-.342-4.476l1.494-.185c.174,1.4.287,2.91.342,4.609Zm-46.056-2.462-1.026-1.118c1.115-1.026,2.209-2.052,3.289-3.111l1.057,1.077C137.683,32.09,136.575,33.154,135.444,34.179Zm6.578-6.363-1.053-1.08c1.094-1.084,2.181-2.161,3.272-3.2l1.026,1.091c-1.08,1.033-2.161,2.1-3.245,3.176Zm38.295-.027a20.225,20.225,0,0,0-1.59-4.079l1.33-.708a21.7,21.7,0,0,1,1.71,4.387Zm-31.7-6.189-.974-1.149a44.473,44.473,0,0,1,3.672-2.828l.848,1.245a43.349,43.349,0,0,0-3.546,2.732ZM176.186,20.2a15.557,15.557,0,0,0-3.419-2.643l.745-1.306a16.994,16.994,0,0,1,3.761,2.9ZM156.013,16.66l-.633-1.368A20.3,20.3,0,0,1,159.85,13.8l.3,1.477A18.805,18.805,0,0,0,156.013,16.66Zm12.747-.838a18.334,18.334,0,0,0-4.284-.831l.1-1.5a19.671,19.671,0,0,1,4.636.892Z" transform="translate(-55.489 -7.253)" fill="#cce9f1"/>
          <path id="Path_12195" data-name="Path 12195" d="M419.993,172.078a9.231,9.231,0,0,1-1.993-.486l.434-1.443c.578.174.961.284,1.2.342l.034-.085c.465.171,1.173.427.933,1.149C420.486,171.921,420.342,172.078,419.993,172.078Z" transform="translate(-275.078 -110.348)" fill="#cce9f1"/>
        </g>
      </g>
    </g>
  </g>
</svg>
