<svg xmlns="http://www.w3.org/2000/svg" width="16" height="16" viewBox="0 0 16 16">
  <g id="gps_1_" data-name="gps (1)" transform="translate(0 0)">
    <path id="Path_28102" data-name="Path 28102" d="M15.6,7.6H14.4c-.007,0-.013,0-.02,0A6.4,6.4,0,0,0,8.4,1.62c0-.007,0-.013,0-.02V.4a.4.4,0,1,0-.8,0V1.6c0,.007,0,.013,0,.02A6.4,6.4,0,0,0,1.62,7.6c-.007,0-.013,0-.02,0H.4a.4.4,0,1,0,0,.8H1.6c.007,0,.013,0,.02,0A6.4,6.4,0,0,0,7.6,14.38c0,.007,0,.013,0,.02v1.2a.4.4,0,1,0,.8,0V14.4c0-.007,0-.013,0-.02A6.4,6.4,0,0,0,14.38,8.4c.007,0,.013,0,.02,0h1.2a.4.4,0,1,0,0-.8ZM8,13.6A5.6,5.6,0,1,1,13.6,8,5.6,5.6,0,0,1,8,13.6Zm0,0" transform="translate(0)" fill="#007c3d"/>
    <path id="Path_28103" data-name="Path 28103" d="M131.213,128a3.214,3.214,0,1,0,3.214,3.213A3.213,3.213,0,0,0,131.213,128Zm0,5.624a2.41,2.41,0,1,1,2.41-2.41A2.41,2.41,0,0,1,131.213,133.624Zm0,0" transform="translate(-123.213 -123.213)" fill="#007c3d"/>
  </g>
</svg>
