<svg xmlns="http://www.w3.org/2000/svg" xmlns:xlink="http://www.w3.org/1999/xlink" width="48" height="48" viewBox="0 0 48 48"><defs><linearGradient id="a" x1="2.371" y1="1" x2="1" y2="2.353" gradientUnits="objectBoundingBox"><stop offset="0" stop-color="#e1088a"/><stop offset="1" stop-color="#f5bc36"/></linearGradient></defs><path d="M42.206,23.88H27.9a4.146,4.146,0,0,0-4.141,4.141V42.327A4.146,4.146,0,0,0,27.9,46.469H42.206a4.147,4.147,0,0,0,4.142-4.142V28.021A4.146,4.146,0,0,0,42.206,23.88ZM35.053,42.611a7.436,7.436,0,1,1,7.437-7.437A7.445,7.445,0,0,1,35.053,42.611Zm7.676-13.335a1.759,1.759,0,1,1,1.759-1.759A1.762,1.762,0,0,1,42.729,29.276Z" transform="translate(-11.053 -11.11)" fill="url(#a)"/><path d="M41.143,36.971a4.294,4.294,0,1,0,4.294,4.293A4.3,4.3,0,0,0,41.143,36.971Z" transform="translate(-17.143 -17.2)" fill="url(#a)"/><path d="M24,0A24,24,0,1,0,48,24,24,24,0,0,0,24,0ZM38.437,31.218A7.291,7.291,0,0,1,31.153,38.5H16.847a7.292,7.292,0,0,1-7.284-7.284V16.912a7.292,7.292,0,0,1,7.284-7.284H31.153a7.292,7.292,0,0,1,7.284,7.284Z" fill="url(#a)"/></svg>