<svg xmlns="http://www.w3.org/2000/svg" xmlns:xlink="http://www.w3.org/1999/xlink" width="923.507" height="277.779" viewBox="0 0 923.507 277.779"><defs><linearGradient id="a" x1="0.5" x2="0.5" y2="1" gradientUnits="objectBoundingBox"><stop offset="0" stop-color="#93e69a"/><stop offset="1" stop-color="#1daec4"/></linearGradient><linearGradient id="b" x1="0.5" x2="0.5" y2="1" gradientUnits="objectBoundingBox"><stop offset="0" stop-color="#629a04"/><stop offset="1" stop-color="#007c3d"/></linearGradient><linearGradient id="d" x1="0.5" x2="0.5" y2="1" gradientUnits="objectBoundingBox"><stop offset="0" stop-color="#3b234c"/><stop offset="0.337" stop-color="#402450"/><stop offset="0.75" stop-color="#4f2a5c"/><stop offset="1" stop-color="#5c2f67"/></linearGradient><linearGradient id="f" x1="0.5" x2="0.5" y2="1" gradientUnits="objectBoundingBox"><stop offset="0" stop-color="#f9d0c2"/><stop offset="1" stop-color="#ff9992"/></linearGradient><linearGradient id="g" x1="0.5" x2="0.5" y2="1" gradientUnits="objectBoundingBox"><stop offset="0" stop-color="#f9d0c2"/><stop offset="1" stop-color="#fcaea9"/></linearGradient><linearGradient id="i" x1="0.5" x2="0.5" y2="1" gradientUnits="objectBoundingBox"><stop offset="0" stop-color="#3b234c"/><stop offset="0.337" stop-color="#681f91"/><stop offset="0.75" stop-color="#4f2a5c"/><stop offset="1" stop-color="#5c2f67"/></linearGradient><linearGradient id="l" x1="0.5" x2="0.5" y2="1" gradientUnits="objectBoundingBox"><stop offset="0" stop-color="#2ea8d5"/><stop offset="1" stop-color="#213d65"/></linearGradient><linearGradient id="m" x1="0.5" x2="0.5" y2="1" gradientUnits="objectBoundingBox"><stop offset="0" stop-color="#72dc7b"/><stop offset="1" stop-color="#00987e"/></linearGradient><linearGradient id="t" x1="0.5" x2="0.5" y2="1" gradientUnits="objectBoundingBox"><stop offset="0" stop-color="#af07bb"/><stop offset="1" stop-color="#5b068b"/></linearGradient></defs><g transform="translate(-382.209 -58)"><g transform="translate(353.708 58)"><g transform="translate(92.143)"><path d="M954.147,763.359l-756.212,10.6c-6.484-67.786-5.288-170.6,33.618-196.356,62-41.047,115.982-53.712,162.116-33.737,112.453,48.688,208.52-100.072,272.064-27.2s111.208,2.7,210.739,9.8C939.97,531,962.96,595.395,975.717,664.7,976.481,712.073,954.147,763.359,954.147,763.359Z" transform="translate(-194.558 -496.182)" opacity="0.2" fill="url(#a)"/><g transform="translate(502.272 81.946)"><g transform="translate(0)"><path d="M2157.343,954.748,2170.6,979.9l6.8-2.473-2.208,6.711,13.292,40.039S2195.834,973.307,2157.343,954.748Z" transform="translate(-2121.94 -905.085)" fill="#007c3d"/><path d="M2182.188,1032.235s14.278,39.495,9.586,107.049c0,0-5.673,2.8-24.775-.551C2147.8,1135.361,2182.188,1032.235,2182.188,1032.235Z" transform="translate(-2124.669 -960.333)" fill="#046734"/><g transform="translate(4.873 150.074)"><path d="M2139.553,1334.2s-.058.722-.167,2.062c-.242,3.058-.743,9.327-1.387,17.474-.215,2.69-.443,5.587-.689,8.641h-39.7c-.146-2.6-.29-5.11-.423-7.5q-.128-2.22-.245-4.289v0c-.42-7.5-.743-13.394-.917-16.55-.01-.242-.024-.47-.034-.678-.068-1.21-.1-1.865-.1-1.865l1.728.106,2.761.174,10.979.678,3.45.215,5.157.317h.007l10.441.647Z" transform="translate(-2082.994 -1323.781)" fill="#f99746"/><path d="M2139.553,1334.2s-.058.722-.167,2.062c-.242,3.058-.743,9.327-1.387,17.474-.215,2.69-.443,5.587-.689,8.641h-39.7c-.146-2.6-.29-5.11-.423-7.5q-.128-2.22-.245-4.289v0c-.42-7.5-.743-13.394-.917-16.55-.01-.242-.024-.47-.034-.678-.068-1.21-.1-1.865-.1-1.865l1.728.106,2.761.174,10.979.678,3.45.215,5.157.317h.007l10.441.647Z" transform="translate(-2082.994 -1323.781)" fill="#ed7d2b"/><path d="M2100.387,1317.343s-.051.123-.143.365c-.327.815-1.189,2.956-2.474,6.119-.55,1.347-1.176,2.88-1.872,4.575-.672,1.64-1.408,3.433-2.206,5.355l-1.3,3.15c-.829,1.994-1.708,4.1-2.632,6.3h-38.789a60.74,60.74,0,0,0,1.956-11.007c.018-.378.034-.774.055-1.179.32-6.075,1.223-15.108,1.841-20.879.354-3.3.614-5.533.614-5.533l12.528,3.549,10.116,2.867,4.786,1.353,5.072,1.439h.007l10.315,2.924Z" transform="translate(-2050.966 -1304.608)" fill="#f99746"/></g><path d="M2124.064,917.354c-11.008,3.474-30.055-5.9-30.055-5.9s10.15-7.617,9.618-23.455l8.511,6.859,5.782,4.659a69.258,69.258,0,0,1-.656,7.56q-.174,1.317-.41,2.838a2.038,2.038,0,0,0,.924,2.054A26.016,26.016,0,0,1,2124.064,917.354Z" transform="translate(-2076.783 -857.492)" fill="#ffb27d"/><path d="M2114.5,1067.2a1.781,1.781,0,0,1-1.157.441c-4.134-.056-16.188,2.24-26.388,1.193-8.6-.826-16.209-3.373-24.382-7.036-1.085-.487-3.583-1.82-3.527-3.033.037-1.329.169-3.255.334-5.681a303.789,303.789,0,0,0,.6-39.687c-.177-3.117-.269-6.209-.281-9.253-.084-22.688,4.415-42.644,13.455-49.4a74.759,74.759,0,0,0,10.666,4.931c4.274,1.367,6.478,1.092,8.693-.379,0,0,4.317,2.145,6.163,4.157,4.271,4.656,7.606,10.838,9.811,19.712a168.924,168.924,0,0,1,4.239,32.674C2113,1022.236,2114.771,1066.98,2114.5,1067.2Z" transform="translate(-2051.85 -905.085)" fill="#fff"/><path d="M2085.205,1079.53c-.225,2.284-.479,4.551-.764,6.783,0,0-22.666,8.832-50.453-8.6l5.4-50.231,3.787-35.25,12.12-37.485s29.09,10.972,30.438,52.047C2086.219,1015.5,2088.2,1049.279,2085.205,1079.53Z" transform="translate(-2033.988 -905.087)" fill="url(#b)"/><path d="M2085.205,1213.65c-.225,2.284-.479,4.551-.764,6.783,0,0-22.666,8.832-50.453-8.6l5.4-50.231,19.283-18.748s-.081.648-.191,1.82C2057.565,1154.587,2054.859,1202.059,2085.205,1213.65Z" transform="translate(-2033.988 -1039.207)" fill="#046734"/><path d="M2141.725,916.146a69.308,69.308,0,0,1-.656,7.56c-6.406-1.1-13.673-11.454-13.673-11.454a20.412,20.412,0,0,1,8.547-.765Z" transform="translate(-2100.588 -874.122)" fill="#ed975d"/><path d="M2135.017,845.616s-19.827,3.294-21.689-9.085-5.674-20.291,6.907-22.917,15.756,1.726,17.382,5.707S2140.126,844.44,2135.017,845.616Z" transform="translate(-2089.112 -803.886)" fill="#ffb27d"/><path d="M2085.808,1326.926s-.171,3.537.394,4.521c3.829,6.669,7.326,5.582,2.2,14.2,0,0-2.378,3.4-4.119.944s.511-4.038-2.268-7.241c-3.2-3.694-3.181-3.764-1.966-7.652l-.209-4.071Z" transform="translate(-2066.292 -1170.448)" fill="#ffb27d"/><path d="M2053.5,1066.047a31.128,31.128,0,0,0,6.713-2.417s-2.9-32.821-2.817-35.967,13.393-45.609,13.393-45.609l-11.568-27.307s-16.277,9.187-18.066,23.539c-2.21,17.729-1.555,44.493-1.586,48.9-.093,13.18,8.827,38.856,8.827,38.856A13.063,13.063,0,0,0,2053.5,1066.047Z" transform="translate(-2037.919 -905.085)" fill="url(#b)"/><path d="M2106.325,813.159s2.034-.34,1.706-3.143-.324-6.466,1.955-5.783,2.392,2.507,3.328,1.442.953-5.554,7.733-5.866,9.536,2.047,12.688.661,3.32-6.158,3.32-6.158a5.427,5.427,0,0,1-2.251,2.246s5.26-7.194-.83-12.127-12.3-1.7-15.824-1.49c-7.764.47-12.781.936-15.317,6.039S2101.342,808.248,2106.325,813.159Z" transform="translate(-2082.124 -781.706)" fill="url(#d)"/><path d="M2098.907,1343.209s2.892.618,3.5,1.281c1.942,2.127,3.421,2.612,3.2,3.136-.459,1.09-2.73.079-4.311-1.137A8.659,8.659,0,0,1,2098.907,1343.209Z" transform="translate(-2080.275 -1182.057)" fill="#ffb27d"/><path d="M2108.212,954.748l13.256,25.153,6.8-2.473-2.208,6.711,13.292,40.039S2146.7,973.307,2108.212,954.748Z" transform="translate(-2086.909 -905.085)" fill="#046734"/></g><path d="M2183.445,903.391a3.288,3.288,0,0,1-2.7,2.1,4.9,4.9,0,0,1-3.419-1.82S2181.513,902.7,2183.445,903.391Z" transform="translate(-2136.185 -868.289)" fill="#fff"/></g><g transform="translate(609.423 108.754)"><path d="M2527.581,887.246a12.788,12.788,0,0,0-10.113-1.084c-17.181-2.018-22.192,18.019-21.96,24.912s1.02,14.3-6.65,23.255c-8.935,10.427-6.726,16.839-.9,20.777a28.234,28.234,0,0,0,7.141,3.3c.917.3,1.848.563,2.782.8,2.151.553,4.306.961,6.285,1.265a78.3,78.3,0,0,0,8.949.873c.262-13.792,11.375-15.026,18.424-13.693a19.3,19.3,0,0,1,3.716,1.06c1.385.576,2.154,1.19,1.943,1.6q1.2.286,2.277.436c4.657.668,7.782-.457,9.7-2.829C2558.823,936,2537.965,892.632,2527.581,887.246Z" transform="translate(-2443.135 -885.595)" fill="#163560"/><path d="M2362.619,1178.021s-3.021-4.6-5.456-4.69-6.944-1.353-6.583-.451,3.156.992,3.427,1.533-4.148,1.353-5.411,1.443-4.239,0-4.148.632,5.364,3.246,9.085,2.886a25.233,25.233,0,0,1,8.321,1.082Z" transform="translate(-2344.445 -1090.199)" fill="#ffb27d"/><path d="M2446.908,1105.536a45.278,45.278,0,0,1-4.621,6.989c-3.591,4.5-9.126,9.691-16.076,10.717a17.252,17.252,0,0,1-9.551-1.55l-.01,0c-8.442-3.747-14.789-12.364-14.789-12.364a6.94,6.94,0,0,1,.947-6.81s17.045,3.833,18.668,3.022,11.093-28.092,13.347-31.52,9.94-5.208,9.94-5.208Z" transform="translate(-2385.039 -1016.226)" fill="url(#a)"/><path d="M2480.249,1198.689c-3.591,4.5-9.126,9.691-16.076,10.716a17.251,17.251,0,0,1-9.551-1.55c.331.043,8.76,1.085,12.121-4.927,3.429-6.134,7.135-15.874,12.227-12.627C2481.167,1191.7,2481.069,1195.185,2480.249,1198.689Z" transform="translate(-2423.001 -1102.39)" fill="#007c3d" opacity="0.2"/><path d="M2568.027,1020.934c-.714-.221-2.144-.419-2.926-.593a7.338,7.338,0,0,1-5.358-4.66,37.393,37.393,0,0,1-1.818-12.4l-.77.152L2544.2,1006s.295,4.076.3,7.916c0,.032,0,.064,0,.1a7.452,7.452,0,0,1-5.376,7.2c-1.636.472-3.06.876-3.06.876s0-1.99-.907,11.959S2568.027,1020.934,2568.027,1020.934Z" transform="translate(-2476.346 -969.504)" fill="url(#f)"/><path d="M2580.88,1006.373s.294,4.076.3,7.916c7.247-.2,11.079-6.816,12.649-10.481Z" transform="translate(-2513.023 -969.882)" fill="#f9988e"/><path d="M2558.257,953.528s17.148.283,17.16-10.4,2.233-17.839-8.715-18.472-13.08,3.441-13.951,7.006S2553.8,953.179,2558.257,953.528Z" transform="translate(-2492.82 -913.4)" fill="url(#g)"/><path d="M2574.657,918.515s4.7,12.532,11.9,14.385,10.331-.078,10.331-.078a20.4,20.4,0,0,1-6.674-12.055S2578.2,912.55,2574.657,918.515Z" transform="translate(-2508.586 -907.519)" fill="#163560"/><path d="M2557.142,922.377s-3.482,1.3-4.915,3.841a17.266,17.266,0,0,0-2.317,9.807s-3.538-8.518.437-13.336C2554.563,917.578,2557.142,922.377,2557.142,922.377Z" transform="translate(-2489.907 -910.363)" fill="#163560"/><path d="M2570.061,1000.836a4.309,4.309,0,0,1-3.551,1.445,3.152,3.152,0,0,1-2.642-1.744A11.521,11.521,0,0,1,2570.061,1000.836Z" transform="translate(-2500.894 -967.335)" fill="#ebf3fa"/><path d="M2571.376,1089.11s-.065,8.133-.5,15.5c-.29,4.884-.739,9.432-1.44,11.05-1.759,4.058-3.742,4.719-3.742,4.719l-15.344,3.761-5.395,1.32-17.013-5.081s-7.749-21.628-4.637-33.8a93.588,93.588,0,0,1,7.865-20.63s13.883,13.593,31.959-1.153Z" transform="translate(-2471.448 -1013.362)" fill="url(#a)"/><path d="M2623.339,1191.255c-.29,4.884-.739,9.432-1.44,11.05-1.758,4.058-3.741,4.719-3.741,4.719l-15.344,3.761-6.664-1.959s22.246-3.371,19.78-22.51Z" transform="translate(-2523.91 -1100.008)" fill="#007c3d" opacity="0.2"/><path d="M2548.723,1318.462H2514.9a131.352,131.352,0,0,1-1.1-13.4c.437-7.183,5.969-25.546,8.12-32.466.522-1.684.846-2.69.846-2.69h22.8v.12c0,.055,0,.13,0,.218,0,.593.017,1.95.061,3.947.123,5.317.463,15.2,1.442,27.359C2547.485,1306.817,2548.027,1312.517,2548.723,1318.462Z" transform="translate(-2465.18 -1159.606)" fill="#4c2859"/><path d="M2602.868,1316.523H2564.42a123.128,123.128,0,0,0-6.968-15.793q-.793-1.488-1.633-2.9c-2.526-4.265-.058-18.138,1.3-24.642.072-.351.143-.682.208-.989.02-.1.041-.2.061-.293.293-1.34.484-2.14.484-2.14l3.365-.293,1.21-.1,3.191-.276h0l7.6-.661h0l.136-.01h.007l1.373-.119,12.9-1.118s.713.958,1.82,2.573c3.59,5.243,11.314,17.419,12.228,26.326C2602.118,1300.157,2602.473,1307.81,2602.868,1316.523Z" transform="translate(-2494.377 -1157.668)" fill="url(#i)"/><path d="M2569.265,1001.321s-.3,1.259-3.428,1.065c0,0-2.629-.162-2.549-1.546A8.458,8.458,0,0,1,2569.265,1001.321Z" transform="translate(-2500.479 -967.534)" fill="#fff"/><path d="M2539.188,1255.8s3.382,2.675,10.1,2.811c8.026.162,27.912-2.046,27.912-2.046a16.427,16.427,0,0,1,.848,5.076s-24.288,6.126-38.361.895A8.894,8.894,0,0,1,2539.188,1255.8Z" transform="translate(-2482.956 -1149.553)" fill="#233862"/><g transform="translate(60.744 107.686)"><path d="M2563.419,1264.821a4.578,4.578,0,0,0-.218-1.3c-.013-.037-.024-.075-.037-.109a4.224,4.224,0,0,0-.675-1.227,3.488,3.488,0,0,0-2.727-1.384,3.378,3.378,0,0,0-2.294.92h0a.564.564,0,0,0-.068.065,4.134,4.134,0,0,0-1.036,1.626,4.6,4.6,0,0,0,.443,3.978,3.878,3.878,0,0,0,1.288,1.244,3.3,3.3,0,0,0,1.67.456,3.41,3.41,0,0,0,2.4-1.022,4.369,4.369,0,0,0,1.258-3.123C2563.422,1264.906,2563.422,1264.862,2563.419,1264.821Zm-1.21.129a2.774,2.774,0,0,1-2.246,2.921h-.006a1.74,1.74,0,0,1-.195.01,2.034,2.034,0,0,1-.688-.119h0l0,0a2.2,2.2,0,0,1-.706-.4,3.145,3.145,0,0,1-1.047-2.407,3.336,3.336,0,0,1,.365-1.534,2.626,2.626,0,0,1,1.18-1.189,2.282,2.282,0,0,1,.634-.188,2.446,2.446,0,0,1,.27-.017,2.08,2.08,0,0,1,.62.1,2.409,2.409,0,0,1,1.238.934,0,0,0,0,1,0,0,2.043,2.043,0,0,1,.221.361,3.3,3.3,0,0,1,.365,1.507Z" transform="translate(-2556.097 -1260.805)" fill="#fff"/></g><path d="M2758.77,1363.221a17.377,17.377,0,0,0,.6,4.6c.589,1.5,2.356,3.495,2.945,3.495s-.54-3.12-.246-3.058,1.715,5.193,2.746,5.318,1.965-5.755,1.426-8.063a15.714,15.714,0,0,0-2.87-5.078Z" transform="translate(-2639.858 -1224.156)" fill="#ffb27d"/><path d="M2643.848,1064.8a20.882,20.882,0,0,1,14.591,11.346c3.946,7.774,6.653,32.226,9.437,39.926,2.664,7.368,6.341,21.612,8.392,33.025a1.889,1.889,0,0,1-1.165,2.09l-3.488,1.383a1.648,1.648,0,0,1-2.025-.687c-3.1-5.205-15.322-26.048-19.566-38.108a63,63,0,0,0-14.244-22.853Z" transform="translate(-2552.166 -1013.365)" fill="url(#a)"/></g><g transform="translate(135.823 83.056)"><path d="M1270.489,1104.938s3.166-3.842,4.869-4.382,5-3.09,5.428-2.038-2.215,2.672-2.075,3.873,8.407,3.13,8.356,4.4a4.885,4.885,0,0,1-5.1,3.991c-3.154-.353-11.152-2.251-12.794-1.431S1270.489,1104.938,1270.489,1104.938Z" transform="translate(-1121.873 -1008.523)" fill="#ffb27d"/><path d="M964.854,994.673A67.644,67.644,0,0,0,980.6,1009.8a87.008,87.008,0,0,0,37.214,14.268c4.64-1.485,18.895-3.037,27.318-4.394h0c3.672-.59,6.233-1.145,6.407-1.638l-.212-7.337s-30.917-1.635-36.037-4.009a116.068,116.068,0,0,1-19.853-23.042c-3.925-5.959-8.319-10.36-15.563-12.942C969.408,966.973,950.361,975.2,964.854,994.673Z" transform="translate(-901.51 -916.948)" fill="#2b95c1"/><path d="M1027.27,1080.456l1.576,4.616a87.006,87.006,0,0,0,37.213,14.268c3.727,0,18.895-3.037,27.318-4.394-.333.028-22.935,1.795-27.929,1.277-5.032-.521-28.46-20.825-28.46-20.825Z" transform="translate(-949.75 -992.219)" fill="#093371"/><path d="M958.971,1319.64a.218.218,0,0,1,0,.031.09.09,0,0,0,0,.03c-.007.071-.014.147-.017.218s-.013.14-.017.211-.01.14-.017.208c-.01.13-.02.263-.031.4-.065.781-.13,1.612-.2,2.489l-.031.368c-.037.471-.075.951-.116,1.446-.013.17-.027.341-.038.511,0,.041-.007.078-.01.119-.01.136-.024.273-.034.413s-.02.256-.031.385-.02.249-.027.378c-.048.549-.092,1.111-.136,1.684-.007.089-.014.174-.02.263s-.017.191-.024.286c-.014.2-.031.4-.048.6-.14,1.78-.29,3.661-.443,5.611-.028.328-.051.655-.079.982-.037.443-.071.89-.106,1.336q-.1,1.207-.2,2.475c-.058.76-.119,1.531-.181,2.3-.051.617-.1,1.241-.147,1.871q-.1,1.176-.187,2.369-.148,1.867-.3,3.757c-.041.552-.085,1.1-.13,1.653H918.024c-.883-15.377-1.592-28.276-1.851-33.059-.072-1.288-.109-1.988-.109-1.988l25.515,1.578h.007l5.747.358,11.634.719Z" transform="translate(-870.461 -1164.469)" fill="#2b478b"/><path d="M959.5,1303.172s-.031.368-.085,1.053c-.085,1.1-.239,3.023-.443,5.566v.031a.09.09,0,0,0,0,.03c-.007.071-.014.147-.017.218s-.013.14-.017.211-.01.14-.017.208c-.01.13-.02.262-.031.4-.065.781-.13,1.612-.2,2.489l-.031.368c-.037.471-.075.951-.116,1.445-.013.171-.027.341-.038.512,0,.041-.007.078-.01.119-.01.137-.024.273-.034.413s-.02.256-.031.385-.02.249-.027.378c-.048.549-.092,1.111-.136,1.684-.007.089-.014.174-.02.263s-.017.191-.024.286c-.014.2-.031.4-.048.6-.14,1.78-.29,3.661-.443,5.611-.028.328-.051.655-.079.982-.037.443-.071.89-.106,1.336q-.1,1.206-.2,2.474c-.058.76-.119,1.531-.181,2.3-.048.62-.1,1.244-.147,1.871q-.1,1.177-.187,2.369-.148,1.866-.3,3.756c-.041.553-.085,1.1-.13,1.654H918.024c-.883-15.377-1.592-28.276-1.851-33.059-.072-1.289-.109-1.988-.109-1.988l33.256-3.034Z" transform="translate(-870.461 -1154.621)" fill="#234f62"/><path d="M897.542,1274.018l-.371.93c-.3.733-.757,1.889-1.36,3.392-.194.491-.405,1.016-.627,1.578-2.826,7.077-7.834,19.676-13.069,33.11H842.923c1.384-13.233,3.429-26.936,7.275-36.757,3.235-8.263,7.741-13.778,14.208-13.959C889.736,1261.6,897.542,1274.018,897.542,1274.018Z" transform="translate(-818.311 -1125.467)" fill="#2b748b"/><path d="M944.312,931.93a15.23,15.23,0,0,1-10.511,1.415,21.805,21.805,0,0,1-7.121-3.006,20.994,20.994,0,0,1-2.873-2.164s.126-.182.338-.54c1.1-1.882,4.437-8.649,2.953-19.522-.02-.143,1.057.06,2.684.444,4.842,1.147,14.574,3.907,15.005,4.029h.016s.12,2.286.521,6.386c.033.361.07.739.109,1.13.05.481.1.991.159,1.515C946.042,925.88,944.312,931.93,944.312,931.93Z" transform="translate(-875.981 -872.912)" fill="#fac88f"/><path d="M954.024,920.19c-7.227,1.657-18.014-9.013-18.014-9.013a11.4,11.4,0,0,1,2.472-1.4c4.842,1.147,14.574,3.907,15.005,4.03h.017S953.623,916.091,954.024,920.19Z" transform="translate(-884.682 -874.129)" fill="#ed975d"/><path d="M941.927,848.08a36.762,36.762,0,0,1-6.761,1.576c-5.541.748-12.827.307-15.116-6.4-3.855-11.284-8.78-18.049,2.565-22.657,6.073-2.466,9.959-2.6,12.6-1.656a9.128,9.128,0,0,1,4.668,4.041C942.084,826.441,946.516,846.105,941.927,848.08Z" transform="translate(-870.129 -808.983)" fill="#fac88f"/><path d="M925.8,800.47c-6.569,4.721-15.656.08-18.481,1.336s-3.328,5.986-3.379,7.488-.249,2.774-4.08,1.874a1.862,1.862,0,0,0-1.392.083c-1.589.943.442,5.514,1.054,6.5,0,0,.882,3.274-1.075,4.868-.237.19-4.08,1.87-13.343-12.3a13.165,13.165,0,0,1-.6-12.063c2.245-4.826,11.633-9.491,19.593-11.963,2.983-.927,5.195-.893,6.925-.258,2.886,1.055,4.425,3.782,5.952,6.522C919.534,797.158,925.8,800.47,925.8,800.47Z" transform="translate(-847.114 -785.574)" fill="url(#d)"/><path d="M923.084,1047.3c-.528,6.961-2,11.946-5.222,11.946a108.359,108.359,0,0,1-31.468,5.18,78.977,78.977,0,0,1-12.024-1.286c-4.017-.681-7.2-1.367-7.2-1.367-3.444-.794-7.245-2.923-6.736-6.85.288-2.224.489-5.12.626-8.487.378-9.1.315-21.635.363-33.635.033-7.371.105-14.536.351-20.58,0,0-3.381-23.742.375-27.636,4.4-4.557,17.315-5.957,18.124-5.783.243-.051.486-.111.734-.153,0,0,11,6.2,19.174,1.61,0,0,.078.015.231.036,1.99.315,11.925,2.611,15.355,6.239,1.184,1.247,5.909,8.912,6.037,17.33.18,11.734-.279,25.065-.279,25.068.123,1.906.327,4.362.552,7.167.24,2.989.5,6.365.729,9.884.111,1.775.216,3.586.3,5.4A137.795,137.795,0,0,1,923.084,1047.3Z" transform="translate(-830.757 -908.977)" fill="url(#l)"/><path d="M929.9,959.228s12.174,12.556,20.877,9.984c0,0,1.16-1.7-2.76-2.24S939.862,966.651,929.9,959.228Z" transform="translate(-880.323 -909.389)" fill="#1d55a8"/><path d="M991.407,896.417s.238,1.461-3.159,2.627c0,0-2.851.979-3.372-.519A9.682,9.682,0,0,1,991.407,896.417Z" transform="translate(-919.523 -864.604)" fill="#fff"/><path d="M874.313,1112.987s.024,33.959-11.55,43.492c.378-9.1.315-21.635.363-33.635Z" transform="translate(-832.457 -1019.019)" fill="#093371"/><path d="M763.441,1334.481s-5.893,9.253-6.224,12.794c-.225,2.408.316,11.9,1.517,11.933,1.7.046,3.393-5.858,4.05-7.391s1.423-2.736,2.079-2.736-1.423,5.91,0,5.254,3.831-6.125,4.05-7.441-1.284-5.522-.551-7.178S763.441,1334.481,763.441,1334.481Z" transform="translate(-757.167 -1176.944)" fill="#ffb27d"/><path d="M797.656,974.851s-7.963,3.762-14.64,31.61c-5.034,20.995-14.667,74.6-14.667,74.6l8.149,3.352s29.843-68.516,34.112-78.151S797.656,974.851,797.656,974.851Z" transform="translate(-765.14 -920.529)" fill="#2b92be"/></g><g transform="translate(0 111.092)"><path d="M538.759,1150.6c16.473-4.192,34.582-29.748,34.582-29.748l-4.639-4.024c-4.8,5.662-24.77,15.413-24.77,15.413.107-5.181-.029-9.907-.356-14.208-2.215-29.234-13.236-38.974-16.244-41.111a7.229,7.229,0,0,0-.764-.491s-.012.212-.029.615c-.044.868-.124,2.619-.205,5.02C525.724,1099.963,524.994,1154.112,538.759,1150.6Z" transform="translate(-456.572 -1020.994)" fill="#ffb27d"/><path d="M674.615,1175.061c.069-.691-.3-9.74,2.685-11.578,2.353-1.448,5.778-5.584,6.91-5.374s4.243,6.844,2.428,11.249-7.385,9.727-7.385,9.727Z" transform="translate(-562.484 -1079.222)" fill="#ffb27d"/><path d="M431,906.394s-8.858,7.543-.736,16.225c0,0-6.769.664-9.059-1.211a6.311,6.311,0,0,0,.868,1.325s-7.567.272-10.691-2.088-1.117-41.076,19.886-36.748c0,0,17.8-1.344,16.143,19.254s5.063,20.6,5.063,20.6a9.567,9.567,0,0,1-2.772.922s-1.319-.5-1.579-1.232a4.69,4.69,0,0,0,.6,1.51s-7.255.687-10.878-2.051S429.968,910.644,431,906.394Z" transform="translate(-373.965 -883.474)" fill="#233862"/><path d="M455.047,1032.832H406.513c3.472-8.7,8.446-14.99,12.221-15.761,2.012-.533,5.428-7.808,5.387-19.528l.9.179,15.243,3.018s-.344,4.8-.358,9.318c-.009,3.766.193,7.6,1.047,8.046,1.1.1,2.094.3,2.094.3S451.323,1024.208,455.047,1032.832Z" transform="translate(-371.328 -964.744)" fill="#ffb27d"/><path d="M486.261,1001.185s-.347,4.8-.357,9.316c-8.529-.24-13.038-8.021-14.885-12.334Z" transform="translate(-417.321 -965.188)" fill="#e8945b"/><path d="M451.439,914.579s-4.47-7.063-5.543-13.1c-.766-4.311,1.43-20.293,17.49-17.991a21.822,21.822,0,0,1,9.049,3.421c3.487,2.355,8.519,7.439,2.893,21.385L473.866,913Z" transform="translate(-399.315 -883.261)" fill="#233862"/><path d="M483.321,939s-20.18.333-20.194-12.238-2.628-20.994,10.256-21.738,15.393,4.05,16.418,8.245S488.57,938.585,483.321,939Z" transform="translate(-411.532 -898.72)" fill="#ffb27d"/><path d="M466.454,897.791s-5.525,14.748-14.005,16.928-12.158-.091-12.158-.091a24.014,24.014,0,0,0,7.854-14.187S462.286,890.771,466.454,897.791Z" transform="translate(-395.412 -891.799)" fill="#233862"/><path d="M526.679,902.336s4.126,3.292,5.132,6.493,1.458,9.791,3.379,9.567c0,0,4.163-10.024-.515-15.695C529.714,896.689,526.679,902.336,526.679,902.336Z" transform="translate(-457.006 -895.146)" fill="#233862"/><path d="M342.14,1064.272l-3.729,16.137-1.36,5.894-1.49,6.46s-3.4,11.975-6.589,23.657a.012.012,0,0,0,0,.01c-.494,1.8-.978,3.593-1.449,5.335-1.694,6.3-3.146,11.921-3.739,14.729-.788,3.733-4.97,12.05-9.466,20.293-3.013,5.526-6.167,11.014-8.532,15.06h-8.123c1.762-5.025,3.555-11.109,5.171-16.792,2.318-8.144,4.261-15.459,5.2-17.654.651-1.517,1.9-8.686,3.538-17.92,2.935-16.571,7.114-39.8,11.3-49,.5-1.1,1.943-2.042,3.828-2.829,5-2.09,13.1-3.112,15.022-3.33h0C341.994,1064.285,342.14,1064.272,342.14,1064.272Z" transform="translate(-293.715 -1012.321)" fill="#ffb27d"/><path d="M492.989,900.07s-3.937,15.444-14.636,20.39c0,0,10.7-9.488,11.608-19.683S492.989,900.07,492.989,900.07Z" transform="translate(-422.55 -892.383)" fill="#233862"/><path d="M524.138,1109.694c.854,20.855,3.974,41.506,13.054,40.177,11.129-1.624,14.028-12.012,14.62-19.734a44.348,44.348,0,0,0-.162-8.58s-5.477-.025-6.365-.841c-4.207-3.886-2.957-42-5.04-45.955s-15.594-6.5-15.594-6.5S523.288,1089.081,524.138,1109.694Z" transform="translate(-454.995 -1015.167)" fill="#a665c1"/><path d="M435.5,1342.953H370.823c.164-.641.324-1.251.477-1.831,2.635-9.855,11.46-31.412,13.352-36q.133-.317.215-.521c.048-.106.082-.188.106-.246l.041-.1a51.98,51.98,0,0,0,7.315,2.137q1.831.394,3.654.668a79.029,79.029,0,0,0,22.641-.119c.61-.085,1.193-.177,1.745-.266a65.859,65.859,0,0,0,6.572-1.377s.014.048.038.14.054.2.092.358c.252.951.869,3.266,1.868,7q.573,2.132,1.309,4.881,1.248,4.638,2.982,11.065A86.2,86.2,0,0,1,435.5,1342.953Z" transform="translate(-345.881 -1183.427)" fill="#2b358b"/><path d="M283.918,1124.163c0,5.24,5.344,8.46,11.079,10.026,5.515,1.507,11.388,1.487,13.224.258,3.17-2.124,8.335-25.741,9.842-32.93.271-1.3.425-2.066.425-2.066s4.119,9.829,4.248,10.746c.058.413.108.979.146,1.479.042.6.067,1.1.067,1.1s22.355,11.284,41.923.921c0,0,7.955-45.975,4.5-53.889-1.716-3.932-10.667-12.046-14.249-15.544-.8-.788-.725-2.345-.412-3.769a1.647,1.647,0,0,0-2.016-1.954c-2.3.6-6.448.5-10.888-.962a26.288,26.288,0,0,1-6.656-3.253,1.016,1.016,0,0,0-1.579.72c-.337,2.741-1.166,7.748-2.678,7.748-2.083-.012-16.294,1.733-17.335,3.491-.362.612-4.057,8.971-8.722,20.047a.127.127,0,0,0-.008.029C296.076,1087.138,283.918,1117.461,283.918,1124.163Z" transform="translate(-283.918 -990.846)" fill="#a665c1"/><path d="M404.374,1191.694s4.119,9.83,4.249,10.746c.058.413.108.979.146,1.479a20.294,20.294,0,0,0,6.852,3.6c6.968,2.112,10-11.246,9.58-17.91s-10.272-25.687-13.554-26.083S404.374,1191.694,404.374,1191.694Z" transform="translate(-369.803 -1083.089)" fill="#8a36a4"/><path d="M402.894,1263.741c.271-1.3.425-2.066.425-2.066A10.535,10.535,0,0,0,402.894,1263.741Z" transform="translate(-368.748 -1153.07)" fill="#e58638"/><g transform="translate(38.29 117.256)"><path d="M441.762,1302.482c12.72,0,17.963-4.377,18.352-4.676l.823-5.991c-.122.09-17.19,10.339-43.6.524l.56,4.538C428.049,1300.652,435.155,1302.482,441.762,1302.482Z" transform="translate(-417.331 -1291.815)" fill="#233862"/></g><g transform="translate(112.13 72.664)"><path d="M689.793,1143.473l-.3,5.934-.394,7.807-.325,6.466H678l-.346-6.466-.423-7.807-.317-5.934Z" transform="translate(-676.256 -1141.455)" fill="#233862"/><path d="M688.9,1141.326H674.615l.407-2.181h13.621Z" transform="translate(-674.615 -1138.37)" fill="#fff"/><path d="M704.365,1137.219l3.329-.776.457.776Z" transform="translate(-695.826 -1136.443)" fill="#fff"/><path d="M690.285,1164.147l-.394,7.807H678.445l-.423-7.807Z" transform="translate(-677.044 -1156.196)" fill="#fff"/></g><path d="M712.326,1162.193s-2.918-2.209-3.379.776c-.225,1.452,3.026,6.224,3.026,6.224C713.088,1168.187,713.93,1162.911,712.326,1162.193Z" transform="translate(-586.955 -1081.578)" fill="#ffb27d"/><path d="M515.535,993.512s.413,1.666,4.567,1.36c0,0,3.488-.257,3.359-2.092A11.229,11.229,0,0,0,515.535,993.512Z" transform="translate(-449.061 -961.065)" fill="#fff"/></g><g transform="translate(229.502 100.655)"><path d="M1189.526,846.963s-13.115-1.6-19.708,10.607-6.06,29.884-12.452,38.223,1.065,16.245,1.065,16.245l49.806,1.682a34.619,34.619,0,0,0,0-20.508C1204.774,882.026,1221.687,848.654,1189.526,846.963Z" transform="translate(-1134.341 -846.894)"/><path d="M1336.439,1175c-.512,1.947-2.181,6.344-3.477,6.343-1.056,0-1.435-5.384-2.794-6.527a16.462,16.462,0,0,1-3.834-5.977c-.527-1.736-1.024-2.1-1.024-2.1l0,0h-.006s-15.748-28.792-16.979-36.162c-.405-2.4-1.435-7.213-2.647-12.6-1.316-5.862-2.842-12.41-3.995-17.315a91.4,91.4,0,0,1,15.123-1.413c.923,5.966,1.749,12.061,2.462,17.359,1.058,7.879,1.862,13.992,2.358,15.3,1.369,3.6,5.144,22.973,8.7,33.034.408.989,1.564,3.567,2.829,4.443C1334.744,1170.472,1336.948,1173.046,1336.439,1175Z" transform="translate(-1239.088 -1026.817)" fill="#ffb27d"/><path d="M1168.236,1046.611c-8.7-27.806,8.811-27.444,7.905-41.358s-11.679-28.875-11.679-28.875-.386-.039-1.059-.1a.958.958,0,0,1-.814-.623,22.512,22.512,0,0,1-.512-6.014c.009-3.83.3-7.9.3-7.9l-12.92-2.559-.768-.151c.023,6.5-1.207,11.385-2.538,14.113a4.331,4.331,0,0,1-3.3,2.387,50.2,50.2,0,0,0-10.951,2.6c-1.6.668-2.819,1.464-3.245,2.4-3.548,7.8-7.09,27.49-9.579,41.535-1.388,7.827-2.446,13.9-3,15.19-1.54,3.592-6.246,23.357-10.268,33.11l5.135,1.54s16.94-28.107,18.48-35.42c.5-2.381,1.734-7.146,3.172-12.484.217-.808.439-1.629.664-2.457,2.538,6.883,3.834,10.069,3.764,13.043-.1,4.232-2.97,8.036-8.968,21.489C1124.744,1063.508,1177.117,1075.009,1168.236,1046.611Z" transform="translate(-1099.429 -926.849)" fill="#fac88f"/><path d="M1270.814,962.119s-.294,4.066-.3,7.9c-7.23-.2-11.051-6.8-12.617-10.455Z" transform="translate(-1207.864 -927.225)" fill="#e8945b"/><path d="M1268.322,909.406s-17.105.282-17.117-10.373-2.228-17.795,8.693-18.425,13.047,3.433,13.917,6.988S1272.772,909.058,1268.322,909.406Z" transform="translate(-1202.957 -870.885)" fill="#fac88f"/><path d="M1259.642,876.268c-2.64-3.2-4.635-2.5-5.756-1.543-9.172-5.087-15.38,2.464-15.38,2.464a20.354,20.354,0,0,1-6.657,12.025s3.046,1.619,10.305.077c8.617-1.829,10.988-11.539,11.331-12.8,1.044.938,3.1,2.975,3.731,4.971.852,2.713,1.236,8.3,2.864,8.109C1260.079,889.571,1263.608,881.074,1259.642,876.268Z" transform="translate(-1189.293 -865.481)"/><path d="M1090.319,1343.961s-1.562,3.679-3.187,4.706-3.935,3.508-3.508,5.476.856,5.048,2.909,5.048,6.845-9.069,7.444-10.78,1.112-2.054,1.112-2.054Z" transform="translate(-1083.572 -1201.302)" fill="#ffb27d"/><path d="M1211.3,1138.328H1181.9c-.13.041-.256.085-.385.126,0-.041-.01-.085-.017-.126h-34.051c1.517-9.068,3.2-18.725,4.967-28.252,2.778-15.043,8.969-23.139,11.385-26.872,0,0,0-.007.007-.01a.017.017,0,0,0,.007-.014.592.592,0,0,0,.055-.085c.658-1.022,1.012-1.7.906-2.1a.438.438,0,0,0-.153-.239.12.12,0,0,0-.024-.024c-6.19-4.394-3.515-11.938-3.109-14.638-.03.007-.061.017-.092.024a20.336,20.336,0,0,1-13.543-1.5q-.706-.327-1.425-.726c.423-2.059.87-4.237,1.34-6.48.229-1.091.46-2.2.7-3.317.9-4.234,1.878-8.6,2.9-12.762.665-2.72,1.35-5.349,2.048-7.793a65,65,0,0,1,4.162-11.477,2.349,2.349,0,0,1,.235-.362s0,0,0,0a3.771,3.771,0,0,1,.777-.705.255.255,0,0,1-.041-.048,12.791,12.791,0,0,1,2.485-1.37.136.136,0,0,1,.037-.017,38.077,38.077,0,0,1,9.248-2.3s0,0,.007.01c.143.358,4.275,10.448,5.553,12.047a16.3,16.3,0,0,0,7.159,5.222l0,0a14.944,14.944,0,0,0,9.555.321c3.467-1.108,5.666-3.555,4.793-6.327a114.375,114.375,0,0,0-5.035-10.745v0a8.092,8.092,0,0,1,1.019.1c.013,0,.024,0,.031,0h.021c2.543.338,4.339.593,5.635.815,2.54.433,3.17.736,3.8,1.223a9.074,9.074,0,0,1,.709.8c2.093,2.621,4.442,7.99,4.65,16.85.041,1.746.927,11.8.518,21.82v.01c-.423,10.407-2.24,20.76-7.854,21.666a4.925,4.925,0,0,1-1.132.058.1.1,0,0,0-.082.027l0,0c-.126.136.113.781.58,1.871.126.29.269.61.426.961,2.018,4.524,6.388,14.072,7.724,26.077C1209.477,1119.77,1210.445,1129.343,1211.3,1138.328Z" transform="translate(-1128.385 -968.365)" fill="url(#m)"/><path d="M1294.2,956.985s.325,1.312,3.6,1.07c0,0,2.745-.2,2.644-1.647A8.84,8.84,0,0,0,1294.2,956.985Z" transform="translate(-1233.749 -924.756)" fill="#fff"/><path d="M1109.438,1359.463s-.562,4.141-1.653,5.1-1.25,2.674-2.369,1.749S1109.438,1359.463,1109.438,1359.463Z" transform="translate(-1099.033 -1212.355)" fill="#ffb27d"/><path d="M1213.836,1296.08h-63.86c1.517-9.067,3.2-18.725,4.967-28.252,2.778-15.043,8.969-23.139,11.385-26.872,0,0,0-.006.007-.01a.017.017,0,0,0,.007-.014.592.592,0,0,0,.055-.085c.658-1.023,1.012-1.7.907-2.1a.44.44,0,0,0-.153-.239c.031.024.1.075.191.146,1.135.866,6.855,4.813,16.7,4.224,5.935-.358,11.021-.955,14.46-1.432,2.1-.293,3.593-.539,4.278-.661.126.29.269.61.426.961,2.018,4.524,6.388,14.071,7.724,26.077C1212.009,1277.522,1212.978,1287.094,1213.836,1296.08Z" transform="translate(-1130.918 -1126.117)" fill="#542c60"/><path d="M1207.916,1238.427s16.913,7.058,35.157.4l.926,2.859s-18.768,6.519-36.814-.9Z" transform="translate(-1171.708 -1126.057)"/></g><g transform="translate(384.634 103.191)"><g transform="translate(0 59.706)"><path d="M1603.788,1141.323l4.927.912s13.484-20.789,13.872-27.127c.374-6.053,12.525-32.543-1.7-49.083a26.37,26.37,0,0,0-2.095-2.183.807.807,0,0,0-.081-.078s-.025.039-.071.116a31.815,31.815,0,0,0-2.743,7.039c-2.074,7.057-4.637,20.156-5.243,42.78C1610.654,1113.7,1607.345,1133.069,1603.788,1141.323Z" transform="translate(-1598.337 -1063.764)" fill="url(#f)"/><path d="M1590.246,1320.913s-5.281,5.957-5.442,8.372,1.927,5.456,4.275,5.975.881-3.206,1.233-4.7,1.886-3.766,1.793-3.089-1.031,3.338-.74,3.764,1.046.494,1.333-.928,2.652-3.08,2.188-4.6-.084-2.7.557-4.745,1.712-4.5,1.712-4.5l-3.805-.812Z" transform="translate(-1584.796 -1243.354)" fill="#fe9e96"/></g><path d="M1695.395,959.1s.117,2.514-1.391,3.006,1.554,5.918,1.313,9.582-1.861,5.135-1.861,5.135a6.016,6.016,0,0,0,.343-3.262,4.959,4.959,0,0,1-1.824,3.9c-1.893,1.308-1.384,2.439-1.384,2.439s-4.279-1.281-4.4-4.49a8.482,8.482,0,0,0-.036,2.052s-3.694-2.774-3.87-5.971,2.908-5.893,4.313-5.942,4.54-2.807,4.455-3.85S1695.395,959.1,1695.395,959.1Z" transform="translate(-1654.301 -929.432)" fill="#2c3a64"/><path d="M1685.354,891.851c2.49-3.781,12.374-1.665,22.078,4.726s15.552,14.636,13.062,18.416-12.374,1.665-22.078-4.726S1682.865,895.632,1685.354,891.851Z" transform="translate(-1656.085 -880.147)" fill="url(#d)"/><path d="M1670.084,1320.277c-1.179,6.272-2.516,13.536-3.862,21h-33.267c.02-.273.041-.546.061-.815.286-3.681.668-7.073,1.084-10.148,1.435-14.825,2.976-22.263,3.917-25.726a16.066,16.066,0,0,1,.89-2.686l4.9,1.289s.007,0,.014,0l6.446,1.7,1.6,5.083,1.555,4.933,15.254,4.919Z" transform="translate(-1619.133 -1173.849)" fill="#5b068b"/><path d="M1702.6,1309.694c-.194,3.143-.443,9.657-.729,17.406h-35.39c-.375-2.451-.726-4.83-1.053-7.111-.283,0-2.966-18.121-9.531-28.45v0a24.289,24.289,0,0,0-1.864-2.58c-.6-.719,3.211-.184,4.759.058,0,0,.007,0,.014,0,.378.061.617.1.617.1,3.763,1,10,.116,16.182-1.33h0c5.2-1.21,10.363-2.819,13.979-4.029,3.017-1.009,4.963-1.742,4.963-1.742a11.223,11.223,0,0,1,.958,1.009,27.958,27.958,0,0,1,4.994,9.074A44.817,44.817,0,0,1,1702.6,1309.694Z" transform="translate(-1634.118 -1159.673)" fill="#5b068b"/><path d="M1705.816,874.56l17.443,26.465s1.995-3.908,4.209-2.506c3.456,2.184,10.879-5.29,9.331-15.842-.1-.69-.223-1.345-.357-1.968-3.48-5.014-7.345-10.6-10.119-14.522C1718.313,861.349,1705.816,874.56,1705.816,874.56Z" transform="translate(-1671.083 -862.426)" fill="#2c3a64"/><path d="M1679.106,1011.353a29.787,29.787,0,0,0,9.72,5.794c15.4,5.837,23.326-6.775,26.869-15.69a13.792,13.792,0,0,0-5.163-2.388c-1.131-.292-2.328-.546-3.322-.732-1.6-1.611-3.5-7.57-2.906-16.342l-.775.1-13,1.726s.032,4.062-.2,7.866c-.183,2.976-.532,5.8-1.184,6.41-1.007.079-1.612.138-1.612.138a.034.034,0,0,1-.008.011A81.448,81.448,0,0,0,1679.106,1011.353Z" transform="translate(-1652.039 -945.757)" fill="url(#f)"/><path d="M1654.007,1060.729c.018.349.052.7.094,1.057,1.255,9.812,3.073,41.49,3.073,41.49-3.07,6.038,42.539,20.022,44.509,14.263,2.953-4.5.006-13.13-2.546-19.741-.626-1.614-.763-3.333-1.32-4.582a14.955,14.955,0,0,1-.849-2.468,14.613,14.613,0,0,1-.147-6.483,146.052,146.052,0,0,1,4.194-15.323c.671-2.089,1.276-3.936,1.739-5.478-.659-.915-1.307-1.771-1.908-2.578a23.028,23.028,0,0,1-2.217-3.456,4.774,4.774,0,0,1-.542-3.305,16.12,16.12,0,0,1,.818-2.368c.158-.367.327-.727.5-1.088a33.93,33.93,0,0,1,4.682-6.866c-3.668-3.038-11.468-4.4-11.468-4.4s-.125.418-.338,1.1c-.841,2.74-3.1,9.746-4.393,10.8-1.619,1.3-23.955,2.187-24.3-.4-.34-2.535,5.8-11.969,6.027-12.325a.051.051,0,0,0,.008-.012c-.241.016-.476.034-.707.049-1.153.092-2.186.288-3.133.328-6.083.259-7.172,1.909-7.172,1.909C1661.823,1044.761,1653.513,1051.443,1654.007,1060.729Z" transform="translate(-1634.128 -986.095)" fill="#87026c"/><path d="M1718.413,984.074s.035,4.059-.2,7.866c7.2.255,11.412-6.058,13.2-9.591Z" transform="translate(-1679.923 -946.009)" fill="#f6897e"/><path d="M1698.518,929.963s16.981,1.362,17.666-9.226,3.339-17.542-7.474-18.86-13.183,2.586-14.272,6.065S1694.118,929.336,1698.518,929.963Z" transform="translate(-1662.657 -888.446)" fill="url(#f)"/><path d="M1692.925,896.912c2.83-3.018,4.771-2.192,5.823-1.164a11.906,11.906,0,0,1,15.122,3.417,20.267,20.267,0,0,0,5.855,12.371s-3.22,1.717-10.246-.575a12.167,12.167,0,0,1-5.531-4.361,39.733,39.733,0,0,0,6.294,8.771c-8.281-4.487-10.951-16.571-11.213-17.848-1.1.866-3.271,2.76-4.021,4.7-1.02,2.642-1.754,8.169-3.359,7.877C1691.649,910.1,1688.68,901.438,1692.925,896.912Z" transform="translate(-1660.262 -883.271)" fill="#2c3a64"/><path d="M1744.674,881.191s7.9-15.719-3.138-21.933-19.113-3.773-25.184,3.826Z" transform="translate(-1678.595 -855.73)" fill="#a21185"/><path d="M1703.876,887.132q-.5-.511-1.022-1.029l0,0a75.649,75.649,0,0,0-12.729-9.834,78.458,78.458,0,0,0-11.754-6.078c-.743-.3-1.476-.59-2.2-.849-8.59-3.146-15.517-3.385-17.613-.028-2.212,3.542,1.531,10.141,8.86,16.836l0,0c-.017-.157-.031-.313-.044-.47-.014-.177-.027-.355-.037-.535-.007-.136-.01-.276-.017-.416-.007-.245-.01-.491,0-.74,0-.075,0-.15,0-.228,0-.113.007-.221.014-.334s.01-.232.02-.348c0-.061.007-.126.014-.187,0-.038.007-.078.01-.116s.01-.106.017-.157.01-.092.014-.14c0-.027.007-.058.013-.089.007-.075.017-.15.031-.229s.02-.15.034-.229.024-.146.034-.218c.02-.109.044-.218.065-.324,0-.01,0-.024.007-.034.024-.112.051-.221.078-.334,0-.01,0-.017.007-.027-.784-1.65-.927-3.075-.286-4.1.736-1.186,2.423-1.667,4.708-1.517h0c.065,0,.12.01.184.017h.007a18.078,18.078,0,0,1,2.747.44h0c.232.051.463.109.706.174.866.225,1.776.511,2.717.849h.007a48.261,48.261,0,0,1,9.016,4.465c1.292.8,2.516,1.643,3.661,2.5.116.085.232.17.344.259,5.284,4.009,8.775,8.314,9.173,11.29v0a3.023,3.023,0,0,1-.361,2.056c-.031.048-.061.1-.1.14a.043.043,0,0,1-.01.013,2.769,2.769,0,0,1-.924.794.064.064,0,0,0-.035.017.784.784,0,0,1-.1.048s-.007,0-.01.007a4.853,4.853,0,0,1-1.364.419h0q-.148.117-.3.225c-.092.068-.187.133-.28.194l-.017.01c-.061.041-.123.082-.184.116s-.126.075-.188.109-.126.068-.187.1l-.184.092c-.082.037-.164.075-.245.109a4.287,4.287,0,0,1-1.142.31c-.044.007-.088.01-.129.014s-.085,0-.13,0c-.1,0-.191,0-.286,0a2.556,2.556,0,0,1-.327-.041c-.051-.01-.106-.02-.157-.034-.071-.02-.14-.048-.208-.071a2.638,2.638,0,0,1-.375-.16c-.037-.021-.078-.045-.116-.068a1.8,1.8,0,0,0-1.135-.3c-.037,0-.075.007-.113.014-.058.01-.112.02-.17.034h0a1.105,1.105,0,0,0-.14.041,1.167,1.167,0,0,0-.116.041.021.021,0,0,0-.014,0,.452.452,0,0,0-.041.02h0a1.717,1.717,0,0,0-.181.085.819.819,0,0,0-.089.048.76.76,0,0,0-.088.052c-.051.03-.1.061-.15.1a.762.762,0,0,0-.106.078c-.047.034-.1.072-.143.109s-.092.075-.136.116c-.1.079-.184.167-.273.256-.021.017-.037.038-.058.058s-.044.051-.068.075l-.017.017q1.242.511,2.451.951a44.431,44.431,0,0,0,7.193,2h0c5.069.91,8.86.317,10.319-2.022C1712.187,898.442,1709.528,892.964,1703.876,887.132Z" transform="translate(-1636.938 -863.683)" fill="#a21185"/><path d="M1758.057,1042.114a33.721,33.721,0,0,0-13.32,21.069l-3.208-1.019s1.242-10.2,13.511-20.679Z" transform="translate(-1696.547 -988.174)" fill="url(#d)"/><path d="M1668.449,1061.592l3.358.22a34.071,34.071,0,0,1,7.384-23.066c-1.153.092-2.2.2-3.134.328C1667.261,1051.8,1668.449,1061.592,1668.449,1061.592Z" transform="translate(-1644.402 -986.22)" fill="url(#d)"/><path d="M1679.581,1111.032c.208-.882,2.263-9.461,2.263-9.461s.474-2.682-4.24-2.947-21.434-1.146-21.434-1.146a5.21,5.21,0,0,0-2.312,4.2c-.034,2.822-2.309,18.966-2.309,18.966l-.952,38.194,49.6,19.283s3.5-17.945-.419-30.453c-2.283-7.295-5.227-14.912-5.227-14.912S1676.408,1124.514,1679.581,1111.032Z" transform="translate(-1631.712 -1028.095)" fill="url(#t)"/><g transform="translate(45.33 71.851)"><path d="M1746.331,1108.183a1.408,1.408,0,1,0-1.769.917A1.408,1.408,0,0,0,1746.331,1108.183Z" transform="translate(-1743.339 -1106.272)" fill="url(#d)"/><path d="M1745.491,1107.917a1.408,1.408,0,1,0-1.769.916A1.409,1.409,0,0,0,1745.491,1107.917Z" transform="translate(-1742.739 -1106.081)" fill="url(#d)"/><path d="M1749.673,1110.477a.2.2,0,1,0-.2.205A.2.2,0,0,0,1749.673,1110.477Z" transform="translate(-1747.392 -1109.07)" fill="url(#d)"/><path d="M1745.015,1110.485a.2.2,0,1,0-.2.2A.2.2,0,0,0,1745.015,1110.485Z" transform="translate(-1744.07 -1109.076)" fill="url(#d)"/></g><g transform="translate(24.598 70.062)"><path d="M1674.092,1101.949a1.409,1.409,0,1,0-1.769.916A1.408,1.408,0,0,0,1674.092,1101.949Z" transform="translate(-1671.1 -1100.036)" fill="url(#d)"/><path d="M1673.252,1101.682a1.408,1.408,0,1,0-1.768.916A1.408,1.408,0,0,0,1673.252,1101.682Z" transform="translate(-1670.501 -1099.847)" fill="url(#d)"/><path d="M1677.434,1104.242a.2.2,0,1,0-.2.205A.2.2,0,0,0,1677.434,1104.242Z" transform="translate(-1675.153 -1102.835)" fill="url(#d)"/><path d="M1672.777,1104.251a.2.2,0,1,0-.2.2A.2.2,0,0,0,1672.777,1104.251Z" transform="translate(-1671.832 -1102.841)" fill="url(#d)"/></g><path d="M1774.278,966.127s.117,2.514-1.391,3.006,1.553,5.918,1.313,9.582-1.862,5.135-1.862,5.135a6.012,6.012,0,0,0,.343-3.262,4.959,4.959,0,0,1-1.824,3.9c-1.893,1.308-1.385,2.438-1.385,2.438s-4.278-1.281-4.4-4.49a8.457,8.457,0,0,0-.036,2.052s-3.695-2.774-3.871-5.97,2.909-5.894,4.314-5.943,4.54-2.807,4.455-3.85S1774.278,966.127,1774.278,966.127Z" transform="translate(-1710.544 -934.443)" fill="#2c3a64"/><path d="M1760.187,1259.571s-5.082,3.207-5.827,3.179c-1.744-.065-5.186-3.874-8.052-2.113s-5.673,4.7-4.68,5.87,4.358-.211,5.972.023,5.594,2.214,8.4,1.283c2.7-.9,8.534-4.577,8.534-4.577Z" transform="translate(-1696.472 -1143.668)" fill="#fe9e96"/><path d="M1802.343,1056.062s18.919,22.344,25.18,34.933c0,0-7.529,16.39-31.931,29.7a8.454,8.454,0,0,1-2.74-1.42c-2.582-1.844.279-3.195.844-3.561,6.191-4.011,17.009-21.285,17.322-22.784s-13.559-14.942-17.775-19.913S1795.789,1053.5,1802.343,1056.062Z" transform="translate(-1732.381 -998.352)" fill="url(#f)"/><path d="M1710.383,977.144s-2.53,1.534-4.331,1.355c-1.783-.177-2.755-2.328-2.755-2.328A14.954,14.954,0,0,1,1710.383,977.144Z" transform="translate(-1669.287 -941.544)" fill="#fff2e9"/><path d="M1797.982,1054.67l8.5,8.3s.223,15.055-12.64,16.657c0,0-12.721-11.248-6.413-20.053S1797.982,1054.67,1797.982,1054.67Z" transform="translate(-1728.021 -996.961)" fill="#87026c"/><path d="M1648.587,1045.615s-6.548,3.028-8.661,13.6c0,0,.121,3.359,5.167,5.087,0,0,6.628-17.855,5.685-18.688A1.912,1.912,0,0,0,1648.587,1045.615Z" transform="translate(-1624.104 -990.854)" fill="#87026c"/><path d="M1777.465,1263.161a2.7,2.7,0,0,0-1.379-1.721c-1.091-.486-2.108-1.546-2.2-1.237a1.428,1.428,0,0,0,.408,1.451A3.645,3.645,0,0,0,1777.465,1263.161Z" transform="translate(-1719.577 -1144.079)" fill="#ffb27d"/></g><g transform="translate(-11 -12)"><path d="M2256.483,816.7c-.623-14.046,12.3-20.287,25.507-20.287,7.5,0,33.481-3.927,50.664,0,12.645,2.889,18.19,12.218,18.729,20.287.328,4.926-4.392,9.672-15.3,13.212-15.244,4.95-39.792,7.707-51.735,7.707-6.826,0-12.132-.981-16.2-2.731l-10.117,8.193,4.972-11.324C2258.608,828.029,2256.752,822.765,2256.483,816.7Z" transform="translate(-1690.339 -710.084)" fill="#fff"/><text transform="translate(575.159 99.487)" fill="#007c3d" stroke="rgba(0,0,0,0)" stroke-width="1" font-size="13" font-family="HelveticaNeue-Bold, Helvetica Neue" font-weight="700"><tspan x="0" y="0"></tspan><tspan font-family="MuktaMahee-Bold, Mukta Mahee"><tspan x="0" y="12">ਸਤ</tspan><tspan y="12" font-family="HelveticaNeue-Bold, Helvetica Neue"> </tspan><tspan y="12">ਸ੍ਰੀ</tspan><tspan y="12" font-family="HelveticaNeue-Bold, Helvetica Neue"> </tspan><tspan y="12">ਅਕਾਲ</tspan></tspan></text></g></g><g transform="translate(29 -115.969)"><path d="M1473.252,789.109c1-20.2-19.778-29.169-41.024-29.169s-44.368,4.485-46.372,31.34c-1.288,17.277,10.017,27.908,42.571,27.908,10.979,0,19.512-1.411,26.048-3.927l16.273,11.78-8-16.283C1469.835,805.393,1472.82,797.825,1473.252,789.109Z" transform="translate(-1385.759 -572.183)" fill="#fefefe" stroke="#e4f1ea" stroke-width="1"/><text transform="translate(15.764 222.562)" fill="#a665c1" stroke="rgba(0,0,0,0)" stroke-width="1" font-size="12" font-family="TamilSangamMN-Bold, Tamil Sangam MN" font-weight="700"><tspan x="0" y="0">நமஸ்தே</tspan></text></g><g transform="translate(-59 -4)"><path d="M2256.49,824.78c-.818-19.2,16.178-27.724,33.558-27.724,9.872,0,44.048-5.366,66.654,0,16.636,3.948,23.932,16.7,24.64,27.724.432,6.732-5.778,13.218-20.123,18.056-20.056,6.764-52.352,10.532-68.063,10.532-8.981,0-15.961-1.341-21.307-3.732l-13.311,11.2,6.541-15.475C2259.285,840.257,2256.844,833.063,2256.49,824.78Z" transform="translate(-1370.355 -618.332)" fill="#f7f8fa"/><text transform="translate(909.467 198.76)" fill="#9e079e" stroke="rgba(0,0,0,0)" stroke-width="1" font-size="13" font-family="HelveticaNeue-Bold, Helvetica Neue" font-weight="700"><tspan x="0" y="0"></tspan><tspan font-family="MalayalamSangamMN-Bold, Malayalam Sangam MN"><tspan x="0" y="12">നമസ്‌തേ</tspan></tspan></text></g></g><path d="M1385.784,785c-.7-17.35,13.841-25.058,28.71-25.058s31.05,3.853,32.453,26.923c.9,14.842-7.01,23.974-29.793,23.974-7.684,0-13.655-1.212-18.229-3.373l-11.388,10.12,5.6-13.988C1388.175,798.987,1386.086,792.485,1385.784,785Z" transform="translate(-623.679 -626.241)" fill="#fff"/><text transform="translate(776.208 164.504)" fill="#5ecdac" stroke="rgba(0,0,0,0)" stroke-width="1" font-size="12" font-family="KohinoorGujarati-Bold, Kohinoor Gujarati" font-weight="700"><tspan x="0" y="0">નમસ્તે</tspan></text><g transform="translate(553.286 120.909)"><path d="M666.131,819.954c.649-16.054-12.807-23.186-26.565-23.186s-28.731,3.565-30.028,24.912c-.834,13.733,6.486,22.183,27.567,22.183,7.11,0,12.635-1.121,16.867-3.121l10.538,9.364-5.178-12.943C663.919,832.9,665.852,826.881,666.131,819.954Z" transform="translate(-609.474 -796.768)" fill="#fff"/><text transform="translate(13.939 28.012)" fill="#2b478b" stroke="rgba(0,0,0,0)" stroke-width="1" font-size="12" font-family="HelveticaNeue-Bold, Helvetica Neue" font-weight="700"><tspan x="0" y="0">Hello</tspan></text></g><path d="M1652.049,627.852c.72-17.809-14.208-25.722-29.471-25.722s-31.872,3.955-33.312,27.636c-.926,15.235,7.2,24.61,30.582,24.61,7.887,0,14.017-1.244,18.712-3.463l11.69,10.388-5.744-14.358C1649.594,642.211,1651.738,635.537,1652.049,627.852Z" transform="translate(-768.729 -513.723)" fill="#fff"/><text transform="translate(831.233 109.595)" fill="#432553" stroke="rgba(0,0,0,0)" stroke-width="1" font-size="12" font-family="HelveticaNeue-Bold, Helvetica Neue" font-weight="700"><tspan x="0" y="0"></tspan><tspan font-family="KohinoorDevanagari-Bold, Kohinoor Devanagari"><tspan x="0" y="11">नमस्कार</tspan></tspan></text><path d="M2521.054,697.769c.593-14.694-11.722-21.222-24.315-21.222s-26.3,3.263-27.484,22.8c-.764,12.57,5.937,20.3,25.231,20.3,6.507,0,11.564-1.026,15.438-2.856l9.645,8.57-4.74-11.846C2519.029,709.616,2520.8,704.109,2521.054,697.769Z" transform="translate(-1366.087 -560.765)" fill="#fff"/><text transform="translate(1112.549 143.446)" fill="#5f227d" stroke="rgba(0,0,0,0)" stroke-width="1" font-size="13" font-family="KohinoorDevanagari-Bold, Kohinoor Devanagari" font-weight="700"><tspan x="0" y="0">नमस्ते</tspan></text></g></svg>