<svg xmlns="http://www.w3.org/2000/svg" width="48" height="48" viewBox="0 0 48 48"><circle cx="24" cy="24" r="24" transform="translate(0 0)" fill="#007ab9"/><g transform="translate(11.58 10.255)"><path d="M53.827,39.645V49.54H48.091V40.308c0-2.318-.828-3.9-2.905-3.9a3.138,3.138,0,0,0-2.943,2.1,3.926,3.926,0,0,0-.19,1.4V49.54H36.316s.077-15.635,0-17.254h5.738v2.445c-.012.019-.028.038-.038.056h.038v-.056a5.7,5.7,0,0,1,5.17-2.85c3.774,0,6.6,2.466,6.6,7.765ZM30.314,23.969a2.99,2.99,0,1,0-.075,5.963h.037a2.991,2.991,0,1,0,.038-5.963ZM27.409,49.54h5.735V32.286H27.409Z" transform="translate(-27.068 -23.969)" fill="#f1f2f2"/></g></svg>