<svg xmlns="http://www.w3.org/2000/svg" width="83.722" height="69.238" viewBox="0 0 83.722 69.238"><g transform="translate(0 -44.289)" opacity="0.5"><path d="M379.58,44.289H358.726a2.3,2.3,0,0,0-2.292,2.292V60.442a2.3,2.3,0,0,0,2.292,2.292h1.264v3.492a1.943,1.943,0,0,0,1.243,1.821,1.967,1.967,0,0,0,.718.136,1.944,1.944,0,0,0,1.431-.63l4.1-4.44a1.183,1.183,0,0,1,.867-.379H379.58a2.3,2.3,0,0,0,2.292-2.292V46.581A2.294,2.294,0,0,0,379.58,44.289Zm-.161,15.992H368.352a3.643,3.643,0,0,0-2.668,1.167l-3.241,3.507V62.061a1.782,1.782,0,0,0-1.78-1.779h-1.777V46.742h20.532Z" transform="translate(-298.15)"/><path d="M395.72,95.144h.26a1.226,1.226,0,0,0,0-2.453h-.26a1.226,1.226,0,0,0,0,2.453Z" transform="translate(-329.986 -40.487)"/><path d="M427.148,95.144h.26a1.226,1.226,0,0,0,0-2.453h-.26a1.226,1.226,0,0,0,0,2.453Z" transform="translate(-356.275 -40.487)"/><path d="M458.576,95.144h.26a1.226,1.226,0,1,0,0-2.453h-.26a1.226,1.226,0,1,0,0,2.453Z" transform="translate(-382.564 -40.487)"/><path d="M55.059,134.062c-.814-.04-1.628-.123-2.439-.245v-4.143a3.261,3.261,0,0,0,2.507-5.305l-2.205-2.742a7.423,7.423,0,0,1-1.631-4.634v-4.973a7.791,7.791,0,0,0,3.164-6.359c0-4.161-3.073-7.546-6.85-7.546h-.755a1.226,1.226,0,1,0,0,2.453H47.6c2.425,0,4.4,2.285,4.4,5.094a5.111,5.111,0,0,1-2.948,4.807c-4.054,1.458-6.556,3.252-11.069,3.252H37.35V100.567h3.776a1.226,1.226,0,0,0,0-2.453H37.337A2.551,2.551,0,0,0,34.8,95.82H31.465a2.551,2.551,0,0,0-2.535,2.294H26.552a1.2,1.2,0,0,0-.129.007,16.547,16.547,0,0,0-10.578,4.148l-.049.044A10.223,10.223,0,1,0,9.17,121.051,21.351,21.351,0,0,0,11.5,128.2,23.192,23.192,0,0,0,22.45,138.553v5.237a1.226,1.226,0,0,0,2.453,0v-4.357a6.232,6.232,0,0,0,7.556-5.426l.257-2.434h1a6.776,6.776,0,0,0,4.416-1.633,28.853,28.853,0,0,0,12.032,5.921v.949a3.47,3.47,0,0,1-3.7,3.461l-6.969-.469a3.245,3.245,0,0,0-3.462,3.238V153.9a.277.277,0,0,1-.276.276H25.179a.277.277,0,0,1-.276-.276v-4.389a1.226,1.226,0,1,0-2.453,0V153.9a2.732,2.732,0,0,0,2.729,2.729H35.755a2.732,2.732,0,0,0,2.729-2.729V143.04a.792.792,0,0,1,.845-.791l6.969.469a5.922,5.922,0,0,0,6.321-5.908v-.51q1.153.154,2.319.213H55a1.226,1.226,0,0,0,.059-2.451ZM31.37,98.368a.094.094,0,0,1,.095-.095H34.8a.094.094,0,0,1,.095.095v15.458a6.817,6.817,0,0,0-1.179-.1H32.549a6.811,6.811,0,0,0-1.18.1ZM2.453,110.882a7.779,7.779,0,0,1,7.77-7.77,7.689,7.689,0,0,1,3.787.981,20.311,20.311,0,0,0-4.422,8.582,21.96,21.96,0,0,0-.628,5.875A7.782,7.782,0,0,1,2.453,110.882ZM28.31,136.527a3.776,3.776,0,0,1-3.254.408q-.452-.151-.9-.325l-.02-.008a20.619,20.619,0,0,1-10.486-9.568,19.464,19.464,0,0,1-1.684-13.771,17.493,17.493,0,0,1,5.478-9.138c5.184-4.474,10.3-3.39,11.469-3.559v14.209a6.807,6.807,0,0,0-3.175,5.753v4.236a6.818,6.818,0,0,0,4.548,6.42l-.271,2.564a3.754,3.754,0,0,1-1.709,2.777Zm5.408-7.407H32.549a4.36,4.36,0,0,1-4.355-4.355v-4.236a4.36,4.36,0,0,1,4.355-4.355h1.169a4.36,4.36,0,0,1,4.355,4.355v4.236A4.36,4.36,0,0,1,33.718,129.12Zm5.967-1.082a6.766,6.766,0,0,0,.84-3.273v-4.236a6.776,6.776,0,0,0-1.6-4.38,18.131,18.131,0,0,0,5.907-1.321l4.006-1.625v3.79a9.885,9.885,0,0,0,2.173,6.171l2.2,2.741a.815.815,0,0,1,.123.807.852.852,0,0,1-.811.51h-.45a1.912,1.912,0,0,0-1.91,1.91v4.194a26.882,26.882,0,0,1-10.481-5.288Z" transform="translate(0 -43.105)"/><path d="M437.724,264.354a1.227,1.227,0,0,0-.279,1.712,13.26,13.26,0,0,1,.01,15.461,1.226,1.226,0,1,0,1.991,1.432,15.713,15.713,0,0,0-.01-18.325A1.226,1.226,0,0,0,437.724,264.354Z" transform="translate(-365.721 -183.887)"/><path d="M406.525,281.032a1.226,1.226,0,0,0-.131,1.729,7.583,7.583,0,0,1-.01,9.889,1.226,1.226,0,1,0,1.856,1.6,10.035,10.035,0,0,0,.014-13.091A1.226,1.226,0,0,0,406.525,281.032Z" transform="translate(-339.682 -197.783)"/><path d="M372.623,299.428a1.226,1.226,0,0,0-.845,2.3,1.644,1.644,0,0,1-.041,3.1,1.226,1.226,0,1,0,.783,2.324,4.1,4.1,0,0,0,.1-7.728Z" transform="translate(-310.252 -213.356)"/></g></svg>