<svg xmlns="http://www.w3.org/2000/svg" width="141.066" height="139.989" viewBox="0 0 141.066 139.989"><defs><style>.a{fill:#37474f;}.b{fill:#007c3d;}</style></defs><g transform="translate(0)"><path class="a" d="M8.453,139.033A8.464,8.464,0,0,1,0,130.607V8.427A8.464,8.464,0,0,1,8.453,0H73.968a8.465,8.465,0,0,1,8.454,8.427V34.5H94.848a7.653,7.653,0,0,1,7.651,7.627V73.1a7.647,7.647,0,0,1-7.646,7.626l-12.432.015v49.865a8.465,8.465,0,0,1-8.453,8.427ZM6.34,130.607a2.138,2.138,0,0,0,2.113,2.106H73.968a2.138,2.138,0,0,0,2.114-2.106V119.021H6.34Zm0-17.906H76.078V80.75l-5.86.006-11.607,10.1a3.171,3.171,0,0,1-5.254-2.38V80.757l-6.626-.031h.017A7.649,7.649,0,0,1,39.1,73.1V42.131A7.649,7.649,0,0,1,46.749,34.5H76.081V26.331H6.34Zm39.483-71.49a1.278,1.278,0,0,0-.389.921V73.1a1.327,1.327,0,0,0,1.314,1.308h.015l9.778.046a3.17,3.17,0,0,1,3.156,3.16v3.91l7.249-6.307a3.186,3.186,0,0,1,2.079-.78l25.822-.034a1.3,1.3,0,0,0,.923-.387,1.285,1.285,0,0,0,.389-.921V42.131a1.322,1.322,0,0,0-1.311-1.308h-48.1A1.307,1.307,0,0,0,45.822,41.211ZM6.34,8.427V20.013H76.081V8.427A2.139,2.139,0,0,0,73.968,6.32H8.453A2.138,2.138,0,0,0,6.34,8.427ZM38.046,125.343a3.167,3.167,0,1,1,3.167,3.157A3.161,3.161,0,0,1,38.046,125.343ZM78.2,64.249a3.166,3.166,0,1,1,3.167,3.157A3.161,3.161,0,0,1,78.2,64.249Zm-10.575,0A3.167,3.167,0,1,1,70.8,67.406,3.161,3.161,0,0,1,67.629,64.249Zm-10.564,0a3.166,3.166,0,1,1,3.166,3.157A3.161,3.161,0,0,1,57.065,64.249Z" transform="translate(30.448 0.955)"/><path class="b" d="M136.276,135.879a2.395,2.395,0,1,1,2.395,2.384A2.389,2.389,0,0,1,136.276,135.879Zm-121.99-31a2.269,2.269,0,0,1,2.4-2.389,2.387,2.387,0,1,1,0,4.774A2.266,2.266,0,0,1,14.286,104.877ZM120.546,92.9a2.395,2.395,0,1,1,2.395,2.385A2.389,2.389,0,0,1,120.546,92.9ZM2.326,61.947a2.395,2.395,0,1,1,2.395,2.385A2.389,2.389,0,0,1,2.326,61.947ZM131.1,28.356a2.35,2.35,0,0,1-2.35-2.35v-2.42h-2.4A2.248,2.248,0,0,1,123.96,21.2a2.246,2.246,0,0,1,2.385-2.384h2.4V16.4a2.35,2.35,0,0,1,2.35-2.35h.08a2.35,2.35,0,0,1,2.35,2.35v2.42h2.389A2.254,2.254,0,0,1,138.3,21.2a2.255,2.255,0,0,1-2.385,2.385h-2.389v2.42a2.35,2.35,0,0,1-2.35,2.35ZM9.5,21.406A7.031,7.031,0,0,0,2.336,14.25c-3.114,0-3.114-4.77,0-4.77A7.028,7.028,0,0,0,9.5,2.326c0-3.1,4.785-3.1,4.785,0A7.04,7.04,0,0,0,21.475,9.48c3.114,0,3.114,4.77,0,4.77a7.043,7.043,0,0,0-7.185,7.156A2.268,2.268,0,0,1,11.9,23.73,2.268,2.268,0,0,1,9.5,21.406Zm0-9.539a11.307,11.307,0,0,1,2.4,2.383,11.214,11.214,0,0,1,2.385-2.383A11.148,11.148,0,0,1,11.905,9.48,11.24,11.24,0,0,1,9.5,11.866Z" transform="translate(0 0)"/></g></svg>