<svg xmlns="http://www.w3.org/2000/svg" xmlns:xlink="http://www.w3.org/1999/xlink" width="600" height="270.182" viewBox="0 0 600 270.182"><defs><linearGradient id="a" x1="0.5" x2="0.5" y2="1" gradientUnits="objectBoundingBox"><stop offset="0" stop-color="#f9d0c2"/><stop offset="1" stop-color="#ff9992"/></linearGradient><linearGradient id="d" x1="0.5" x2="0.5" y2="1" gradientUnits="objectBoundingBox"><stop offset="0" stop-color="#629a04"/><stop offset="1" stop-color="#007c3d"/></linearGradient><linearGradient id="e" x1="0.5" x2="0.5" y2="1" gradientUnits="objectBoundingBox"><stop offset="0" stop-color="#76c854"/><stop offset="1" stop-color="#e5fff5"/></linearGradient><linearGradient id="f" x1="0.5" x2="0.5" y2="1" gradientUnits="objectBoundingBox"><stop offset="0" stop-color="#93e69a"/><stop offset="1" stop-color="#1daec4"/></linearGradient><linearGradient id="i" x1="0.5" x2="0.5" y2="1" gradientUnits="objectBoundingBox"><stop offset="0" stop-color="#93e69a"/><stop offset="1" stop-color="#0c7f91"/></linearGradient><linearGradient id="j" x1="0.5" x2="0.5" y2="1" gradientUnits="objectBoundingBox"><stop offset="0" stop-color="#72dc7b"/><stop offset="1" stop-color="#00987e"/></linearGradient><linearGradient id="o" x1="0.5" x2="0.5" y2="1" gradientUnits="objectBoundingBox"><stop offset="0" stop-color="#3b234c"/><stop offset="0.337" stop-color="#402450"/><stop offset="0.75" stop-color="#4f2a5c"/><stop offset="1" stop-color="#5c2f67"/></linearGradient><linearGradient id="s" x1="0.5" x2="0.5" y2="1" gradientUnits="objectBoundingBox"><stop offset="0" stop-color="#3b234c"/><stop offset="0.337" stop-color="#351248"/><stop offset="0.75" stop-color="#4f2a5c"/><stop offset="1" stop-color="#5c2f67"/></linearGradient><linearGradient id="x" x1="0.5" x2="0.5" y2="1" gradientUnits="objectBoundingBox"><stop offset="0" stop-color="#b5d8a7"/><stop offset="1" stop-color="#e5fff5"/></linearGradient></defs><g transform="translate(0 0.004)"><g transform="translate(0 -0.004)"><path d="M67.361,270.023s-106.172-72.34-51.928-153.867c45.976-69.1,128.391-51.492,171.61-22.808,18.407,12.217,71.71,31.8,116.941-40.082,55.886-88.818,266.921-69.739,227.989,81.166-18.84,73.027,86.624,62.747,47.808,135.745Z" transform="translate(0 0.004)" fill="#007c3d" opacity="0.1"/><path d="M1878.349,89.733c.017-.449.364-5.284,7.729-5.536,0,0-3.622.432-4.247,2.024,0,0,2.466-1.967,4.474-1.335s3.188,4.151,3.2,5.308-1.1,4.888-2.379,5.2a3.893,3.893,0,0,1-1.544,0,17.311,17.311,0,0,1,.989,1.766c2.939,6.033-.092,11.928-2.58,11.277-1.6-.418-2.047,2.305-2.047,2.305l-15.5-12.55s5.694-11.782,11.907-8.466" transform="translate(-1435.794 -64.769)" fill="#335664"/><path d="M1582.673,510.941l-.358,2.276a22.779,22.779,0,0,0-.955,2.6h-2.988c2.434-2.981,4.3-4.873,4.3-4.873" transform="translate(-1214.191 -393.05)" fill="#bff3fb"/><path d="M1894.654,537.313l3.293,1.226s14.3-19.836,16.063-37.288a26.521,26.521,0,0,0-.47-8.922s.14-.8.385-2.21c.113-.659.253-1.452.411-2.36.465-2.664,1.105-6.309,1.836-10.46,1.683-9.551,3.863-21.761,5.556-30.737l-.887-.285-9.6-3.1-1.984-6.3L1902.109,435s-1.6,3.124-3.025,17.879c-.263,1.935-.5,4.07-.683,6.385a126.308,126.308,0,0,0,.68,25.847q.491,3.847,1.255,7.933a35.371,35.371,0,0,1,.274,7.833c-.721,14.267-5.958,36.438-5.958,36.438" transform="translate(-1457.497 -334.628)" fill="#1e6a82"/><path d="M1910.9,459.26l15.521,30.858c.113-.659.252-1.452.411-2.36.465-2.664,1.105-6.309,1.836-10.46,1.683-9.552,3.863-21.761,5.556-30.737l-.887-.285-9.6-3.1-1.984-6.3L1914.6,435s-1.6,3.124-3.024,17.879c-.264,1.936-.5,4.07-.683,6.385" transform="translate(-1469.992 -334.628)" fill="#2a5762"/><path d="M1940.49,426.989l.36-3.081c6.02,1.6,22.1-4.468,22.1-4.468s5.832,5.126,5.066,17.414c-.374,6-1.056,31.484-1.769,39.026-.258,2.733-.484,4.679-.576,5.456a.014.014,0,0,0,0,.007,1.074,1.074,0,0,0,.175.668,35.435,35.435,0,0,1,2.632,5.535c7,18.649-1.078,41.615-1.078,41.615l-2.1-.845s-4.6-25.558-8.33-36.85a22.4,22.4,0,0,0-1.8-4.319c-1.624-2.621-3.131-6.9-4.5-11.995-2.584-9.628-4.665-22.153-6.05-31.821-.191.009-4.14-16.343-4.14-16.343" transform="translate(-1492.757 -322.661)" fill="#1e6a82"/><path d="M1753.192,294.085l.448,3.015s.2,0,.548-.025c1.1-.075,3.763-.224,6.778-.548,4.536-.448,9.918-1.246,12.061-2.566,3.264-1.993,8.622-8.1,12.11-14.2a3.939,3.939,0,0,0,.249-.448c1.819-3.239,3.09-6.454,3.19-9.02a12.864,12.864,0,0,0-.424-4.087,10.418,10.418,0,0,0-1.844-3.688,1.862,1.862,0,0,0-.348-.424,8.608,8.608,0,0,0-2.367-2.018c-.6-.249-1.246.05-1.919.772v.025a11.42,11.42,0,0,0-1.719,2.541c-.025.025-.05.05-.05.075-.125.224-.249.473-.4.747a.638.638,0,0,0-.1.174q-.411.86-.822,1.794c-3.065,6.678-6.33,16.795-9.046,19.81-1.171,1.3-6.528,3.838-10.789,5.731-3.065,1.346-5.557,2.342-5.557,2.342" transform="translate(-1348.675 -199.997)" fill="url(#a)"/><path d="M1890.646,215.471a18.748,18.748,0,0,0,6.933,1.624c10.35.567,12.7-8.506,13.126-14.527a8.675,8.675,0,0,0-3.551-.449c-.734.04-1.5.116-2.132.194-1.266-.661-3.541-3.874-4.855-9.248l-.447.207-7.468,3.511s.793,2.43,1.379,4.755c.457,1.82.785,3.578.511,4.07-.589.239-.941.39-.941.39a.022.022,0,0,1,0,.008,51.2,51.2,0,0,0-2.554,9.465" transform="translate(-1454.414 -148.518)" fill="url(#a)"/><path d="M1876.532,251.788c.078.207.164.409.258.616,2.621,5.645,7.473,29.03,7.473,29.03-.691,4.2,31.6-.825,31.681-4.653,1.137-4.059-4.035-10.581-6.951-13.853a9.311,9.311,0,0,1-2.3-5.177,133.29,133.29,0,0,1-.4-13.6h0c-.57-.422-1.121-.812-1.634-1.183a14.551,14.551,0,0,1-1.989-1.65,3.008,3.008,0,0,1-.954-1.879,9.974,9.974,0,0,1,.04-1.575c.024-.25.056-.5.094-.75a21.344,21.344,0,0,1,1.5-5.008c-2.777-1.124-7.716-.454-7.716-.454s.005.274.008.723c.016,1.8,0,6.435-.578,7.312-.723,1.091-13.952,5.874-14.651,4.392-.688-1.457,1.2-8.282,1.266-8.541a.019.019,0,0,0,0-.008c-4.43,1.739-6.014,3.2-6.014,3.2,2.67,1.731-1.2,7.589.869,13.065" transform="translate(-1442.888 -178.044)" fill="#9942ae"/><path d="M1897.612,197.48s.794,2.428,1.379,4.755c4.365-1.218,5.69-5.806,6.089-8.266Z" transform="translate(-1459.772 -149.213)" fill="#ed8c70"/><path d="M1871.491,157s10.444-2.417,8.838-8.9-1.338-11.157-8.074-9.888-7.414,4.062-7.4,6.355,3.882,12.892,6.64,12.43" transform="translate(-1434.57 -106.163)" fill="url(#a)"/><path d="M1860.755,136.953c1.123-2.349,2.444-2.224,3.271-1.807a7.492,7.492,0,0,1,9.721-.831,12.752,12.752,0,0,0,5.867,6.3s-1.6,1.643-6.253,1.607a7.655,7.655,0,0,1-4.148-1.562,25.014,25.014,0,0,0,5.445,4.061c-5.821-1.114-9.724-7.853-10.124-8.569a8.387,8.387,0,0,0-1.515,3.587c-.108,1.779.5,5.233-.515,5.364,0,0-3.431-4.632-1.748-8.155" transform="translate(-1431.062 -102.225)" fill="#335664"/><path d="M1866.021,262.978s-2.514,4.386-2.891,5.515c0,0,3.261-.126,4.578,2.383,0,0,.316-7.307-1.687-7.9" transform="translate(-1433.247 -202.3)" fill="#9942ae"/><path d="M1941.053,306.466c6.368-.067,11.761-6.68,15.057-11.965a9.181,9.181,0,0,1-1.323-3.86,133.289,133.289,0,0,1-.4-13.6h0c-.57-.422-1.121-.812-1.634-1.183a14.535,14.535,0,0,1-1.99-1.65c-5.215,8.815-18.342,32.356-9.707,32.264" transform="translate(-1490.985 -210.934)" fill="#512b5e" opacity="0.5"/><path d="M2004.32,871.229H2020.9a9.107,9.107,0,0,0-.469-4.445c-.83-1.84-2.13-2.676-1.819-4.9a5.973,5.973,0,0,1-5.169,1.978,18.213,18.213,0,0,1-2.878,3.73c-1.083.779-5.917.5-6.25,3.64" transform="translate(-1541.86 -663.017)" fill="#2a5762"/><path d="M1849.993,873.709h16.584a6.9,6.9,0,0,0-.469-4.445c-.964-1.592-.594-2.5.119-3.817a6.441,6.441,0,0,1-2.793.526,5.836,5.836,0,0,1-2.466-.868,59.64,59.64,0,0,1-4.725,4.964c-1.083.779-5.917.5-6.25,3.64" transform="translate(-1423.141 -665.497)" fill="#2a5762"/><path d="M1727.01,406.6s-3.072-.6-3.774,0-4.034,3.984-3.321,5.1,4.133-.92,4.844-1.112,2.7-.968,2.7-.968Z" transform="translate(-1323 -312.576)" fill="#ffa88f"/><path d="M1642.529,374.927a6.593,6.593,0,0,0-.87-1.382h0l0,0a6.68,6.68,0,0,0-.846-.857l-1.277-1.295-.336.248c-6.536-3.2-20.034.192-33.688,9.106-16.5,10.774-27.1,25.608-24.041,33.493l-.466.344,1.835,1.829q.132.138.271.27l.052.052.016.011a7.493,7.493,0,0,0,1.587,1.1l.009.006h0c6.452,3.381,20.095.015,33.9-9,16.811-10.975,27.492-26.165,23.857-33.928" transform="translate(-1216.168 -284.98)" opacity="0.5" fill="url(#d)"/><path d="M1596.994,372.235c16.811-10.975,33.386-13.579,37.021-5.816s-7.046,22.953-23.856,33.928-33.386,13.579-37.021,5.817,7.046-22.953,23.856-33.928" transform="translate(-1209.619 -278.434)" fill="url(#e)"/><path d="M1597.855,416.75a13.4,13.4,0,0,1-3.7-.469,6.4,6.4,0,0,1-4.324-3.449c-1.516-3.3-.112-8.212,3.954-13.818a66.223,66.223,0,0,1,17.072-15.639c10.807-7.077,21.8-10.495,28-8.708a6.405,6.405,0,0,1,4.324,3.449c1.516,3.305.112,8.213-3.954,13.818a66.226,66.226,0,0,1-17.071,15.639c-8.9,5.829-17.929,9.176-24.3,9.176m37.344-41.313c-6.1,0-15.049,3.327-23.667,8.97a64.978,64.978,0,0,0-16.749,15.331c-3.738,5.154-5.134,9.739-3.831,12.581a5.23,5.23,0,0,0,3.544,2.778,12.063,12.063,0,0,0,3.319.416c6.1,0,15.049-3.327,23.667-8.97a64.97,64.97,0,0,0,16.748-15.331c3.738-5.154,5.134-9.739,3.831-12.58a5.23,5.23,0,0,0-3.544-2.778,12.056,12.056,0,0,0-3.319-.416" transform="translate(-1222.549 -287.858)" fill="url(#f)"/><path d="M1846.747,279.271l.766,2.8s1.1-.2,2.841-.523c.523-.1.822-.174.822-.174,1.4-.274,3.065-.648,4.884-1.047h.025c3.115-.748,6.6-1.644,9.543-2.641a26.2,26.2,0,0,0,5.083-2.267,2.956,2.956,0,0,0,.349-.249c2.916-2.118,6.38-8.347,9.071-15.026.374-.922.723-1.844,1.071-2.741a68.1,68.1,0,0,0,2.841-9.469,26.739,26.739,0,0,0,.673-4.51,11.086,11.086,0,0,0,.025-1.271c-.05-7.226-3.638-8.223-3.638-8.223-.075-.025-.15-.05-.249-.075-.623-.1-1.271.324-1.943,1.146a22.6,22.6,0,0,0-2.667,4.71c-1.42,3.215-2.916,7.376-4.311,11.513-.772,2.267-1.52,4.535-2.268,6.628-.423,1.271-.847,2.467-1.246,3.563a34.309,34.309,0,0,1-2.094,4.859,12.055,12.055,0,0,1-3.065,2.766,111.459,111.459,0,0,1-9.867,6.13c-1.4.8-2.429,1.751-3.525,2.349-1.769.972-3.121,1.753-3.121,1.753" transform="translate(-1420.643 -179.884)" fill="url(#a)"/><path d="M1974.624,239.763c4.8-1.323,8.5,2.423,8.5,2.423-.06-7.214-3.652-8.2-3.652-8.2-1.445-.6-3.12,1.9-4.846,5.779" transform="translate(-1519.015 -179.928)" fill="#9942ae"/><path d="M1822.968,433.539s-2.625,4.143-3.83,4.946-2.954,2.358-3.566,1.982,2.321-4.272,2.281-5.035-.12-1.366-.12-1.366-1.858,1.091-2.892.482c0,0,.8-.4,1.446-.8s1.179-1.767,2.618-1.888a10.634,10.634,0,0,0,3.3-1.119Z" transform="translate(-1396.099 -331.353)" fill="#ffa88f"/><path d="M1183.426,90.046s-9.362,15.86-17.944,16.081-21.64-7.351-21.64-7.351-7.88-21.135-2.535-29.4c0,0,5.361-2.83,10.966,2.168a18.694,18.694,0,0,1,2.9,3.345,9.309,9.309,0,0,0,4.5,3.676c6.124,2.242,13.393-3.032,16.112,2.058a33.73,33.73,0,0,0,4.735,6.745,22.468,22.468,0,0,0,2.9,2.683" transform="translate(-876.54 -52.75)" fill="url(#f)"/><path d="M742.7,447.163S719.71,245.5,847.583,231.335c0,0,99.226,23.629,74.48,215.828Z" transform="translate(-570.096 -177.958)" fill="url(#i)"/><path d="M1131.534,202.471s23.873,6.389,31.239,2.634c0,0,1.113-12.013-8.941-10.328-6.881,1.153-11.363-2.826-14-4.441-3.731-2.285-9.29,7.11-8.3,12.135" transform="translate(-870.363 -146.148)" fill="#9cfbb1"/><path d="M1201.244,100.857c-1.528,1.378-6.216-19.426-6.216-19.426a18.684,18.684,0,0,1,2.9,3.345,9.312,9.312,0,0,0,4.505,3.676c.015.606.29,11.064-1.191,12.405" transform="translate(-919.297 -62.641)" fill="#9cfbb1"/><path d="M1274.007,127.523c-.336.239-11.377,8.2-12.874,8.2-1.527,0,8.14-14.942,8.14-14.942a33.718,33.718,0,0,0,4.734,6.745" transform="translate(-970.024 -92.91)" fill="#9cfbb1"/><path d="M1039.027,338.357s33.387,68.274,69.931,58.177,16.077,42.087,16.077,42.087-81.466-.473-81.827-1.929-4.181-98.335-4.181-98.335" transform="translate(-799.29 -260.286)" fill="#007c3d" opacity="0.4"/><path d="M1543.952,1130.55v5.242a2,2,0,0,1-.346,1.128,2.037,2.037,0,0,1-.948.756,1.889,1.889,0,0,1-.37.1,2,2,0,0,1-.356.032h-83.506a2.028,2.028,0,0,1-2.018-1.917c0-.034,0-.069,0-.1v-5.242c0-.035,0-.07,0-.1a2.028,2.028,0,0,1,2.018-1.917h83.506a1.935,1.935,0,0,1,.356.033,1.807,1.807,0,0,1,.37.1,2.038,2.038,0,0,1,.948.755,2,2,0,0,1,.346,1.128" transform="translate(-1120.366 -868.14)" fill="#007c3d" opacity="0.2"/><path d="M1497.454,1128.529H1458.21a1.915,1.915,0,0,0-1.8,1.917c0,.034,0,.069,0,.1v5.242c0,.035,0,.07,0,.1a1.915,1.915,0,0,0,1.8,1.917h44.738a16.627,16.627,0,0,1-5.494-9.283" transform="translate(-1120.367 -868.14)" fill="#007c3d" opacity="0.2"/><path d="M1527.465,1090.314v5.243a2,2,0,0,1-.346,1.128,2.034,2.034,0,0,1-.948.756,1.849,1.849,0,0,1-.369.1,1.958,1.958,0,0,1-.356.033h-83.506a2.028,2.028,0,0,1-2.018-1.917c0-.035,0-.069,0-.1v-5.243c0-.035,0-.07,0-.1a2.027,2.027,0,0,1,2.018-1.917h83.506a2,2,0,0,1,.356.032,1.881,1.881,0,0,1,.369.1,2.035,2.035,0,0,1,.948.756,2,2,0,0,1,.346,1.128" transform="translate(-1107.683 -837.189)" fill="#007c3d" opacity="0.2"/><rect width="0.949" height="9.283" transform="translate(408.671 251.105)" fill="#a8e1ea"/><rect width="0.949" height="9.283" transform="translate(411.73 251.105)" fill="#a8e1ea"/><rect width="0.949" height="9.283" transform="translate(413.75 251.105)" fill="#a8e1ea"/><rect width="0.949" height="9.283" transform="translate(415.701 251.105)" fill="#a8e1ea"/><path d="M1808.021,1088.294v9.283h.593a1.947,1.947,0,0,0,.356-.032v-9.219a1.991,1.991,0,0,0-.356-.032Z" transform="translate(-1390.853 -837.189)" fill="#a8e1ea"/><path d="M1813.739,1088.884v9.011a2.041,2.041,0,0,0,.948-.756v-7.5a2.04,2.04,0,0,0-.948-.756" transform="translate(-1395.251 -837.643)" fill="#a8e1ea"/><path d="M1546.316,1049.889v5.243a2,2,0,0,1-.346,1.128,2.035,2.035,0,0,1-.949.756,1.893,1.893,0,0,1-.37.1,1.981,1.981,0,0,1-.356.032h-83.506a2.028,2.028,0,0,1-2.018-1.917c0-.035,0-.07,0-.1v-5.243c0-.035,0-.069,0-.1a2.028,2.028,0,0,1,2.018-1.917H1544.3a1.948,1.948,0,0,1,.356.033,1.827,1.827,0,0,1,.37.1,2.035,2.035,0,0,1,.949.756,2,2,0,0,1,.346,1.128" transform="translate(-1122.185 -806.09)" fill="#007c3d" opacity="0.2"/><path d="M1499.817,1047.868h-39.243a1.915,1.915,0,0,0-1.8,1.917c0,.035,0,.069,0,.1v5.243c0,.034,0,.069,0,.1a1.915,1.915,0,0,0,1.8,1.916h44.738a16.634,16.634,0,0,1-5.494-9.283" transform="translate(-1122.185 -806.09)" fill="#007c3d" opacity="0.2"/><rect width="0.949" height="9.283" transform="translate(413.021 241.778)" fill="#a8e1ea"/><rect width="0.949" height="9.283" transform="translate(409.809 241.778)" fill="#a8e1ea"/><rect width="0.949" height="9.283" transform="translate(405.956 241.778)" fill="#a8e1ea"/><rect width="0.949" height="9.283" transform="translate(400.051 241.778)" fill="#a8e1ea"/><rect width="0.949" height="9.283" transform="translate(416.079 241.778)" fill="#a8e1ea"/><rect width="0.949" height="9.283" transform="translate(418.1 241.778)" fill="#a8e1ea"/><rect width="0.949" height="9.283" transform="translate(420.05 241.778)" fill="#a8e1ea"/><path d="M1826.874,1047.868v9.283h.593a1.985,1.985,0,0,0,.356-.032V1047.9a1.952,1.952,0,0,0-.356-.033Z" transform="translate(-1405.356 -806.09)" fill="#a8e1ea"/><path d="M1832.59,1048.459v9.011a2.034,2.034,0,0,0,.948-.756v-7.5a2.034,2.034,0,0,0-.948-.756" transform="translate(-1409.753 -806.545)" fill="#a8e1ea"/><path d="M1527.465,1009.654v5.243a2,2,0,0,1-.346,1.128,2.036,2.036,0,0,1-.948.756,1.873,1.873,0,0,1-.369.1,1.969,1.969,0,0,1-.356.032h-83.506a2.027,2.027,0,0,1-2.018-1.916c0-.035,0-.069,0-.1v-5.243c0-.035,0-.069,0-.1a2.027,2.027,0,0,1,2.018-1.917h83.506a1.991,1.991,0,0,1,.356.032,1.882,1.882,0,0,1,.369.1,2.036,2.036,0,0,1,.948.756,2,2,0,0,1,.346,1.128" transform="translate(-1107.683 -775.14)" fill="#007c3d" opacity="0.2"/><path d="M1480.965,1007.634h-39.243a1.915,1.915,0,0,0-1.8,1.917c0,.035,0,.069,0,.1v5.243c0,.035,0,.069,0,.1a1.915,1.915,0,0,0,1.8,1.916h44.737a16.632,16.632,0,0,1-5.494-9.283" transform="translate(-1107.683 -775.14)" fill="#007c3d" opacity="0.2"/><rect width="0.949" height="9.283" transform="translate(408.671 232.495)" fill="#a8e1ea"/><rect width="0.949" height="9.283" transform="translate(405.459 232.495)" fill="#a8e1ea"/><rect width="0.949" height="9.283" transform="translate(401.607 232.495)" fill="#a8e1ea"/><rect width="0.949" height="9.283" transform="translate(395.701 232.495)" fill="#a8e1ea"/><rect width="0.949" height="9.283" transform="translate(411.73 232.495)" fill="#a8e1ea"/><rect width="0.949" height="9.283" transform="translate(413.75 232.495)" fill="#a8e1ea"/><rect width="0.949" height="9.283" transform="translate(415.701 232.495)" fill="#a8e1ea"/><path d="M1808.021,1007.634v9.283h.593a1.958,1.958,0,0,0,.356-.032v-9.219a1.98,1.98,0,0,0-.356-.032Z" transform="translate(-1390.853 -775.14)" fill="#a8e1ea"/><path d="M1813.739,1008.225v9.011a2.038,2.038,0,0,0,.948-.756v-7.5a2.036,2.036,0,0,0-.948-.756" transform="translate(-1395.251 -775.594)" fill="#a8e1ea"/><path d="M1527.465,969.228v5.243a2,2,0,0,1-.346,1.128,2.036,2.036,0,0,1-.948.756,1.881,1.881,0,0,1-.369.1,1.969,1.969,0,0,1-.356.033h-83.506a2.028,2.028,0,0,1-2.018-1.917c0-.035,0-.069,0-.1v-5.243c0-.035,0-.069,0-.1a2.027,2.027,0,0,1,2.018-1.917h83.506a2,2,0,0,1,.356.032,1.882,1.882,0,0,1,.369.1,2.034,2.034,0,0,1,.948.756,2,2,0,0,1,.346,1.128" transform="translate(-1107.683 -744.041)" fill="#007c3d" opacity="0.2"/><path d="M1480.965,967.207h-39.243a1.915,1.915,0,0,0-1.8,1.917c0,.035,0,.069,0,.1v5.243c0,.035,0,.069,0,.1a1.915,1.915,0,0,0,1.8,1.917h44.737a16.632,16.632,0,0,1-5.494-9.284" transform="translate(-1107.683 -744.041)" fill="#007c3d" opacity="0.2"/><rect width="0.949" height="9.283" transform="translate(408.671 223.167)" fill="#a8e1ea"/><rect width="0.949" height="9.283" transform="translate(405.459 223.167)" fill="#a8e1ea"/><rect width="0.949" height="9.283" transform="translate(401.607 223.167)" fill="#a8e1ea"/><rect width="0.949" height="9.283" transform="translate(395.701 223.167)" fill="#a8e1ea"/><rect width="0.949" height="9.283" transform="translate(411.73 223.167)" fill="#a8e1ea"/><rect width="0.949" height="9.283" transform="translate(413.75 223.167)" fill="#a8e1ea"/><rect width="0.949" height="9.283" transform="translate(415.701 223.167)" fill="#a8e1ea"/><path d="M1808.021,967.207v9.284h.593a1.958,1.958,0,0,0,.356-.032V967.24a1.991,1.991,0,0,0-.356-.032Z" transform="translate(-1390.853 -744.041)" fill="#a8e1ea"/><path d="M1813.739,967.8v9.011a2.038,2.038,0,0,0,.948-.756v-7.5a2.038,2.038,0,0,0-.948-.756" transform="translate(-1395.251 -744.495)" fill="#a8e1ea"/><path d="M1505.435,928.8v5.243a2,2,0,0,1-.346,1.128,2.036,2.036,0,0,1-.948.756,1.919,1.919,0,0,1-.37.1,1.973,1.973,0,0,1-.356.033h-83.506a2.028,2.028,0,0,1-2.018-1.917c0-.035,0-.069,0-.1V928.8c0-.034,0-.069,0-.1a2.028,2.028,0,0,1,2.018-1.917h83.506a1.962,1.962,0,0,1,.356.032,1.919,1.919,0,0,1,.37.1,2.036,2.036,0,0,1,.948.756,2,2,0,0,1,.346,1.128" transform="translate(-1090.736 -712.942)" fill="#007c3d" opacity="0.2"/><path d="M1458.937,926.781h-39.243a1.916,1.916,0,0,0-1.8,1.917c0,.035,0,.069,0,.1v5.243c0,.035,0,.069,0,.1a1.916,1.916,0,0,0,1.8,1.917h44.737a16.633,16.633,0,0,1-5.493-9.283" transform="translate(-1090.737 -712.942)" fill="#a8e1ea"/><rect width="0.949" height="9.283" transform="translate(403.589 213.839)" fill="#a8e1ea"/><rect width="0.949" height="9.283" transform="translate(400.376 213.839)" fill="#a8e1ea"/><rect width="0.949" height="9.283" transform="translate(396.524 213.839)" fill="#a8e1ea"/><rect width="0.949" height="9.283" transform="translate(406.647 213.839)" fill="#a8e1ea"/><rect width="0.949" height="9.283" transform="translate(408.667 213.839)" fill="#a8e1ea"/><rect width="0.949" height="9.283" transform="translate(410.618 213.839)" fill="#a8e1ea"/><path d="M1785.993,926.781v9.283h.593a1.979,1.979,0,0,0,.356-.032v-9.219a1.968,1.968,0,0,0-.356-.032Z" transform="translate(-1373.907 -712.942)" fill="#a8e1ea"/><path d="M1791.71,927.371v9.011a2.032,2.032,0,0,0,.948-.756v-7.5a2.032,2.032,0,0,0-.948-.756" transform="translate(-1378.305 -713.396)" fill="#a8e1ea"/><path d="M1517.43,888.374v5.243a2,2,0,0,1-.346,1.128,2.037,2.037,0,0,1-.948.756,1.905,1.905,0,0,1-.369.1,1.979,1.979,0,0,1-.356.033H1431.9a2.027,2.027,0,0,1-2.018-1.917c0-.035,0-.069,0-.1v-5.243c0-.034,0-.069,0-.1a2.027,2.027,0,0,1,2.018-1.917h83.506a1.979,1.979,0,0,1,.356.032,1.9,1.9,0,0,1,.369.1,2.038,2.038,0,0,1,.948.756,2,2,0,0,1,.346,1.128" transform="translate(-1099.963 -681.843)" fill="#007c3d" opacity="0.2"/><path d="M1470.931,886.354h-39.243a1.915,1.915,0,0,0-1.8,1.917c0,.035,0,.069,0,.1v5.243c0,.035,0,.069,0,.1a1.915,1.915,0,0,0,1.8,1.916h44.738a16.633,16.633,0,0,1-5.494-9.283" transform="translate(-1099.964 -681.843)" fill="#007c3d" opacity="0.2"/><rect width="0.949" height="9.283" transform="translate(406.356 204.512)" fill="#a8e1ea"/><rect width="0.949" height="9.283" transform="translate(403.144 204.512)" fill="#a8e1ea"/><rect width="0.949" height="9.283" transform="translate(399.291 204.512)" fill="#a8e1ea"/><rect width="0.949" height="9.283" transform="translate(409.414 204.512)" fill="#a8e1ea"/><rect width="0.949" height="9.283" transform="translate(411.435 204.512)" fill="#a8e1ea"/><rect width="0.949" height="9.283" transform="translate(413.386 204.512)" fill="#a8e1ea"/><path d="M1797.987,886.354v9.283h.593a1.978,1.978,0,0,0,.357-.032v-9.219a1.978,1.978,0,0,0-.357-.032Z" transform="translate(-1383.134 -681.843)" fill="#a8e1ea"/><path d="M1803.7,886.944v9.011a2.031,2.031,0,0,0,.948-.756v-7.5a2.032,2.032,0,0,0-.948-.756" transform="translate(-1387.532 -682.297)" fill="#a8e1ea"/><path d="M1543.952,848.14v5.243a2,2,0,0,1-.346,1.128,2.038,2.038,0,0,1-.948.756,1.872,1.872,0,0,1-.37.1,1.979,1.979,0,0,1-.356.032h-83.506a2.028,2.028,0,0,1-2.018-1.917c0-.035,0-.069,0-.1V848.14c0-.034,0-.069,0-.1a2.027,2.027,0,0,1,2.018-1.917h83.506a1.946,1.946,0,0,1,.356.033,1.879,1.879,0,0,1,.37.1,2.039,2.039,0,0,1,.948.756,2,2,0,0,1,.346,1.128" transform="translate(-1120.366 -650.892)" fill="#007c3d" opacity="0.2"/><path d="M1497.454,846.12H1458.21a1.915,1.915,0,0,0-1.8,1.917c0,.034,0,.069,0,.1v5.243c0,.035,0,.069,0,.1a1.915,1.915,0,0,0,1.8,1.916h44.738a16.627,16.627,0,0,1-5.494-9.283" transform="translate(-1120.367 -650.892)" fill="#007c3d" opacity="0.2"/><rect width="0.949" height="9.283" transform="translate(412.476 195.228)" fill="#a8e1ea"/><rect width="0.949" height="9.283" transform="translate(409.263 195.228)" fill="#a8e1ea"/><g transform="translate(342.135 207.72)" opacity="0.2"><rect width="0.791" height="7.736" transform="translate(66.867 54.301)" fill="#049d4f"/><rect width="0.791" height="7.736" transform="translate(64.19 54.301)" fill="#049d4f"/><rect width="0.791" height="7.736" transform="translate(60.979 54.301)" fill="#049d4f"/><rect width="0.791" height="7.736" transform="translate(56.059 54.301)" fill="#049d4f"/><rect width="0.791" height="7.736" transform="translate(50.854 54.301)" fill="#049d4f"/><rect width="0.791" height="7.736" transform="translate(42.877 54.301)" fill="#049d4f"/><rect width="0.791" height="7.736" transform="translate(69.416 54.301)" fill="#049d4f"/><rect width="0.791" height="7.736" transform="translate(71.1 54.301)" fill="#049d4f"/><rect width="0.791" height="7.736" transform="translate(72.725 54.301)" fill="#049d4f"/><path d="M1824.51,1128.529v7.736H1825a1.655,1.655,0,0,0,.3-.027v-7.682a1.612,1.612,0,0,0-.3-.027Z" transform="translate(-1750.562 -1074.229)" fill="#049d4f"/><path d="M1830.227,1129.12v7.509a1.7,1.7,0,0,0,.79-.63v-6.249a1.694,1.694,0,0,0-.79-.63" transform="translate(-1755.18 -1074.706)" fill="#049d4f"/><path d="M1474.124,1088.294h-32.7a1.6,1.6,0,0,0-1.5,1.6c0,.029,0,.058,0,.087v4.369c0,.029,0,.057,0,.086a1.6,1.6,0,0,0,1.5,1.6H1478.7a13.86,13.86,0,0,1-4.578-7.736" transform="translate(-1439.918 -1041.73)" fill="#049d4f"/><rect width="0.791" height="7.736" transform="translate(61.02 46.564)" fill="#049d4f"/><rect width="0.791" height="7.736" transform="translate(57.81 46.564)" fill="#049d4f"/><rect width="0.791" height="7.736" transform="translate(52.889 46.564)" fill="#049d4f"/><rect width="0.791" height="7.736" transform="translate(47.685 46.564)" fill="#049d4f"/><rect width="0.791" height="7.736" transform="translate(39.707 46.564)" fill="#049d4f"/><rect width="0.791" height="7.736" transform="translate(51.31 38.792)" fill="#049d4f"/><rect width="0.791" height="7.736" transform="translate(43.332 38.792)" fill="#049d4f"/><rect width="0.791" height="7.736" transform="translate(47.685 31.055)" fill="#049d4f"/><rect width="0.791" height="7.736" transform="translate(39.707 31.055)" fill="#049d4f"/><rect width="0.791" height="7.736" transform="translate(47.685 23.282)" fill="#049d4f"/><rect width="0.791" height="7.736" transform="translate(39.707 23.282)" fill="#049d4f"/><rect width="0.791" height="7.736" transform="translate(48.652 15.509)" fill="#049d4f"/><rect width="0.791" height="7.736" transform="translate(43.449 15.509)" fill="#049d4f"/><rect width="0.791" height="7.736" transform="translate(35.472 15.509)" fill="#049d4f"/><rect width="0.791" height="7.736" transform="translate(50.959 7.736)" fill="#049d4f"/><rect width="0.791" height="7.736" transform="translate(45.755 7.736)" fill="#049d4f"/><rect width="0.791" height="7.736" transform="translate(37.777 7.736)" fill="#049d4f"/><rect width="0.791" height="7.736" transform="translate(60.979)" fill="#049d4f"/><rect width="0.791" height="7.736" transform="translate(56.059)" fill="#049d4f"/><rect width="0.791" height="7.736" transform="translate(50.854)" fill="#049d4f"/><rect width="0.791" height="7.736" transform="translate(42.877)" fill="#049d4f"/></g><rect width="0.949" height="9.283" transform="translate(415.534 195.228)" fill="#a8e1ea"/><rect width="0.949" height="9.283" transform="translate(417.554 195.228)" fill="#a8e1ea"/><rect width="0.949" height="9.283" transform="translate(419.505 195.228)" fill="#a8e1ea"/><path d="M1824.51,846.12V855.4h.593a1.97,1.97,0,0,0,.356-.032v-9.219a1.938,1.938,0,0,0-.356-.033Z" transform="translate(-1403.537 -650.892)" fill="#a8e1ea"/><path d="M1830.227,846.71v9.011a2.034,2.034,0,0,0,.948-.756v-7.5a2.036,2.036,0,0,0-.948-.756" transform="translate(-1407.935 -651.346)" fill="#a8e1ea"/><path d="M1527.465,807.9v5.242a2,2,0,0,1-.346,1.128,2.036,2.036,0,0,1-.948.756,1.881,1.881,0,0,1-.369.1,1.958,1.958,0,0,1-.356.033h-83.506a2.028,2.028,0,0,1-2.018-1.917c0-.035,0-.069,0-.1V807.9c0-.035,0-.069,0-.1a2.027,2.027,0,0,1,2.018-1.917h83.506a1.98,1.98,0,0,1,.356.033,1.873,1.873,0,0,1,.369.1,2.036,2.036,0,0,1,.948.756,2,2,0,0,1,.346,1.128" transform="translate(-1107.683 -619.94)" fill="#007c3d" opacity="0.2"/><path d="M1480.965,805.884h-39.243a1.915,1.915,0,0,0-1.8,1.917c0,.035,0,.069,0,.1v5.242c0,.035,0,.069,0,.1a1.915,1.915,0,0,0,1.8,1.917h44.737a16.633,16.633,0,0,1-5.494-9.284" transform="translate(-1107.683 -619.94)" fill="#007c3d" opacity="0.2"/><rect width="0.949" height="9.283" transform="translate(379.884 185.945)" fill="#a8e1ea"/><path d="M1546.316,767.48v5.242a2,2,0,0,1-.346,1.128,2.036,2.036,0,0,1-.949.756,1.876,1.876,0,0,1-.37.1,1.981,1.981,0,0,1-.356.032h-83.506a2.028,2.028,0,0,1-2.018-1.917c0-.035,0-.069,0-.1V767.48c0-.035,0-.07,0-.1a2.028,2.028,0,0,1,2.018-1.917H1544.3a1.97,1.97,0,0,1,.356.032,1.876,1.876,0,0,1,.37.1,2.036,2.036,0,0,1,.949.756,2,2,0,0,1,.346,1.128" transform="translate(-1122.185 -588.842)" fill="#007c3d" opacity="0.2"/><path d="M1499.817,765.459h-39.243a1.915,1.915,0,0,0-1.8,1.917c0,.034,0,.069,0,.1v5.242c0,.035,0,.069,0,.1a1.915,1.915,0,0,0,1.8,1.916h44.738a16.634,16.634,0,0,1-5.494-9.283" transform="translate(-1122.185 -588.842)" fill="#007c3d" opacity="0.2"/><path d="M1527.465,727.245v5.243a2,2,0,0,1-.346,1.128,2.037,2.037,0,0,1-.948.756,1.89,1.89,0,0,1-.369.1,1.969,1.969,0,0,1-.356.033h-83.506a2.028,2.028,0,0,1-2.018-1.917c0-.035,0-.07,0-.1v-5.243c0-.035,0-.07,0-.1a2.027,2.027,0,0,1,2.018-1.917h83.506a1.98,1.98,0,0,1,.356.033,1.874,1.874,0,0,1,.369.1,2.035,2.035,0,0,1,.948.756,2,2,0,0,1,.346,1.128" transform="translate(-1107.683 -557.891)" fill="#007c3d" opacity="0.2"/><path d="M1527.465,686.819v5.243a2,2,0,0,1-.346,1.128,2.037,2.037,0,0,1-.948.756,1.89,1.89,0,0,1-.369.1,1.98,1.98,0,0,1-.356.032h-83.506a2.027,2.027,0,0,1-2.018-1.917c0-.035,0-.069,0-.1v-5.243c0-.035,0-.069,0-.1a2.027,2.027,0,0,1,2.018-1.917h83.506a1.98,1.98,0,0,1,.356.033,1.882,1.882,0,0,1,.369.1,2.035,2.035,0,0,1,.948.756,2,2,0,0,1,.346,1.128" transform="translate(-1107.683 -526.792)" fill="#007c3d" opacity="0.2"/><path d="M1480.965,684.8h-39.243a1.915,1.915,0,0,0-1.8,1.917c0,.035,0,.069,0,.1v5.243c0,.035,0,.069,0,.1a1.915,1.915,0,0,0,1.8,1.916h44.737a16.632,16.632,0,0,1-5.494-9.283" transform="translate(-1107.683 -526.792)" fill="#007c3d" opacity="0.2"/><path d="M1505.435,646.392v5.243a2,2,0,0,1-.346,1.128,2.036,2.036,0,0,1-.948.756,1.906,1.906,0,0,1-.37.1,1.973,1.973,0,0,1-.356.033h-83.506a2.028,2.028,0,0,1-2.018-1.917c0-.035,0-.07,0-.1v-5.243c0-.035,0-.069,0-.1a2.028,2.028,0,0,1,2.018-1.917h83.506a1.962,1.962,0,0,1,.356.033,1.885,1.885,0,0,1,.37.1,2.036,2.036,0,0,1,.948.756,2,2,0,0,1,.346,1.128" transform="translate(-1090.736 -495.693)" fill="#007c3d" opacity="0.2"/><path d="M1458.937,644.371h-39.243a1.916,1.916,0,0,0-1.8,1.917c0,.035,0,.069,0,.1v5.243c0,.035,0,.069,0,.1a1.916,1.916,0,0,0,1.8,1.916h44.737a16.633,16.633,0,0,1-5.493-9.284" transform="translate(-1090.737 -495.693)" fill="#007c3d" opacity="0.2"/><path d="M1517.43,605.965v5.243a2,2,0,0,1-.346,1.128,2.038,2.038,0,0,1-.948.756,1.892,1.892,0,0,1-.369.1,1.979,1.979,0,0,1-.356.033H1431.9a2.027,2.027,0,0,1-2.018-1.917c0-.035,0-.069,0-.1v-5.243c0-.034,0-.069,0-.1a2.027,2.027,0,0,1,2.018-1.917h83.506a1.979,1.979,0,0,1,.356.033,1.872,1.872,0,0,1,.369.1,2.036,2.036,0,0,1,.948.756,2,2,0,0,1,.346,1.128" transform="translate(-1099.963 -464.594)" fill="#007c3d" opacity="0.2"/><path d="M1470.931,603.944h-39.243a1.916,1.916,0,0,0-1.8,1.917c0,.034,0,.069,0,.1v5.243c0,.035,0,.069,0,.1a1.915,1.915,0,0,0,1.8,1.917h44.738a16.634,16.634,0,0,1-5.494-9.284" transform="translate(-1099.964 -464.594)" fill="#007c3d" opacity="0.2"/><g transform="translate(342.205 145.406)" opacity="0.2"><rect width="0.791" height="7.736" transform="translate(63.697 38.829)" fill="#049d4f"/><rect width="0.791" height="7.736" transform="translate(61.02 38.829)" fill="#049d4f"/><rect width="0.791" height="7.736" transform="translate(57.81 38.829)" fill="#049d4f"/><rect width="0.791" height="7.736" transform="translate(52.889 38.829)" fill="#049d4f"/><rect width="0.791" height="7.736" transform="translate(47.685 38.829)" fill="#049d4f"/><rect width="0.791" height="7.736" transform="translate(66.245 38.829)" fill="#049d4f"/><rect width="0.791" height="7.736" transform="translate(67.929 38.829)" fill="#049d4f"/><rect width="0.791" height="7.736" transform="translate(69.555 38.829)" fill="#049d4f"/><path d="M1808.021,805.884v7.736h.494a1.63,1.63,0,0,0,.3-.027v-7.682a1.641,1.641,0,0,0-.3-.027Z" transform="translate(-1737.243 -767.056)" fill="#049d4f"/><path d="M1813.739,806.475v7.509a1.7,1.7,0,0,0,.79-.63v-6.249a1.7,1.7,0,0,0-.79-.63" transform="translate(-1741.862 -767.533)" fill="#049d4f"/><rect width="0.791" height="7.736" transform="translate(67.321 31.056)" fill="#049d4f"/><rect width="0.791" height="7.736" transform="translate(64.645 31.056)" fill="#049d4f"/><rect width="0.791" height="7.736" transform="translate(61.435 31.056)" fill="#049d4f"/><rect width="0.791" height="7.736" transform="translate(56.513 31.056)" fill="#049d4f"/><rect width="0.791" height="7.736" transform="translate(51.31 31.056)" fill="#049d4f"/><rect width="0.791" height="7.736" transform="translate(43.332 31.056)" fill="#049d4f"/><rect width="0.791" height="7.736" transform="translate(69.87 31.056)" fill="#049d4f"/><rect width="0.791" height="7.736" transform="translate(71.554 31.056)" fill="#049d4f"/><rect width="0.791" height="7.736" transform="translate(73.18 31.056)" fill="#049d4f"/><path d="M1826.874,765.459V773.2h.494a1.634,1.634,0,0,0,.3-.027v-7.682a1.634,1.634,0,0,0-.3-.027Z" transform="translate(-1752.472 -734.403)" fill="#049d4f"/><path d="M1832.59,766.05v7.509a1.694,1.694,0,0,0,.79-.63V766.68a1.7,1.7,0,0,0-.79-.63" transform="translate(-1757.089 -734.881)" fill="#049d4f"/><path d="M1474.124,725.225h-32.7a1.6,1.6,0,0,0-1.5,1.6c0,.029,0,.058,0,.087v4.369c0,.029,0,.057,0,.086a1.6,1.6,0,0,0,1.5,1.6H1478.7a13.86,13.86,0,0,1-4.578-7.736" transform="translate(-1439.918 -701.906)" fill="#049d4f"/><rect width="0.791" height="7.736" transform="translate(63.697 23.32)" fill="#049d4f"/><rect width="0.791" height="7.736" transform="translate(61.02 23.32)" fill="#049d4f"/><rect width="0.791" height="7.736" transform="translate(57.81 23.32)" fill="#049d4f"/><rect width="0.791" height="7.736" transform="translate(52.889 23.32)" fill="#049d4f"/><rect width="0.791" height="7.736" transform="translate(47.685 23.32)" fill="#049d4f"/><rect width="0.791" height="7.736" transform="translate(39.707 23.32)" fill="#049d4f"/><rect width="0.791" height="7.736" transform="translate(66.245 23.32)" fill="#049d4f"/><rect width="0.791" height="7.736" transform="translate(67.929 23.32)" fill="#049d4f"/><rect width="0.791" height="7.736" transform="translate(69.555 23.32)" fill="#049d4f"/><path d="M1808.021,725.225v7.736h.494a1.641,1.641,0,0,0,.3-.027v-7.682a1.641,1.641,0,0,0-.3-.027Z" transform="translate(-1737.243 -701.906)" fill="#049d4f"/><path d="M1813.739,725.815v7.509a1.7,1.7,0,0,0,.79-.63v-6.249a1.7,1.7,0,0,0-.79-.63" transform="translate(-1741.862 -702.382)" fill="#049d4f"/><rect width="0.791" height="7.736" transform="translate(63.697 15.547)" fill="#049d4f"/><rect width="0.791" height="7.736" transform="translate(61.02 15.547)" fill="#049d4f"/><rect width="0.791" height="7.736" transform="translate(57.81 15.547)" fill="#049d4f"/><rect width="0.791" height="7.736" transform="translate(52.889 15.547)" fill="#049d4f"/><rect width="0.791" height="7.736" transform="translate(47.685 15.547)" fill="#049d4f"/><rect width="0.791" height="7.736" transform="translate(39.707 15.547)" fill="#049d4f"/><rect width="0.791" height="7.736" transform="translate(66.245 15.547)" fill="#049d4f"/><rect width="0.791" height="7.736" transform="translate(67.929 15.547)" fill="#049d4f"/><rect width="0.791" height="7.736" transform="translate(69.555 15.547)" fill="#049d4f"/><path d="M1808.021,684.8v7.736h.494a1.641,1.641,0,0,0,.3-.027v-7.682a1.641,1.641,0,0,0-.3-.027Z" transform="translate(-1737.243 -669.252)" fill="#049d4f"/><path d="M1813.739,685.389V692.9a1.7,1.7,0,0,0,.79-.63v-6.249a1.7,1.7,0,0,0-.79-.63" transform="translate(-1741.862 -669.729)" fill="#049d4f"/><rect width="0.791" height="7.736" transform="translate(59.461 7.774)" fill="#049d4f"/><rect width="0.791" height="7.736" transform="translate(56.784 7.774)" fill="#049d4f"/><rect width="0.791" height="7.736" transform="translate(53.574 7.774)" fill="#049d4f"/><rect width="0.791" height="7.736" transform="translate(48.652 7.774)" fill="#049d4f"/><rect width="0.791" height="7.736" transform="translate(43.449 7.774)" fill="#049d4f"/><rect width="0.791" height="7.736" transform="translate(35.472 7.774)" fill="#049d4f"/><rect width="0.791" height="7.736" transform="translate(62.01 7.774)" fill="#049d4f"/><rect width="0.791" height="7.736" transform="translate(63.693 7.774)" fill="#049d4f"/><rect width="0.791" height="7.736" transform="translate(65.319 7.774)" fill="#049d4f"/><path d="M1785.993,644.371v7.736h.494a1.651,1.651,0,0,0,.3-.027V644.4a1.64,1.64,0,0,0-.3-.027Z" transform="translate(-1719.451 -636.598)" fill="#049d4f"/><path d="M1791.71,644.962v7.509a1.694,1.694,0,0,0,.79-.63v-6.249a1.693,1.693,0,0,0-.79-.63" transform="translate(-1724.068 -637.075)" fill="#049d4f"/><rect width="0.791" height="7.736" transform="translate(61.768 0.001)" fill="#049d4f"/><rect width="0.791" height="7.736" transform="translate(59.091 0.001)" fill="#049d4f"/><rect width="0.791" height="7.736" transform="translate(55.88 0.001)" fill="#049d4f"/><rect width="0.791" height="7.736" transform="translate(50.959 0.001)" fill="#049d4f"/><rect width="0.791" height="7.736" transform="translate(45.755 0.001)" fill="#049d4f"/><rect width="0.791" height="7.736" transform="translate(37.777 0.001)" fill="#049d4f"/><rect width="0.791" height="7.736" transform="translate(64.316 0.001)" fill="#049d4f"/><rect width="0.791" height="7.736" transform="translate(66 0.001)" fill="#049d4f"/><rect width="0.791" height="7.736" transform="translate(67.625 0.001)" fill="#049d4f"/><path d="M1797.987,603.944v7.736h.494a1.647,1.647,0,0,0,.3-.027v-7.682a1.647,1.647,0,0,0-.3-.027Z" transform="translate(-1729.139 -603.944)" fill="#049d4f"/><path d="M1803.7,604.535v7.509a1.7,1.7,0,0,0,.79-.63v-6.249a1.694,1.694,0,0,0-.79-.63" transform="translate(-1733.757 -604.421)" fill="#049d4f"/></g><path d="M766.224,417.053l-96.967,31.242L627.609,319.021v0L610.06,264.55l96.965-31.239,32.767,101.7Z" transform="translate(-469.3 -179.477)" fill="url(#j)"/><path d="M824.733,702.815l-96.967,31.242L686.118,604.782s50.133,32.406,112.183,15.992Z" transform="translate(-527.809 -465.238)" fill="url(#j)"/><path d="M796.839,448.643,721.558,472.9,668.35,307.743l75.28-24.254Zm-66.783,18.984,56.772-18.291a7.331,7.331,0,0,0,4.73-9.226L744.364,293.625a7.463,7.463,0,0,0-9.392-4.815l-56.546,18.217a7.4,7.4,0,0,0-4.775,9.314l47.224,146.579a7.294,7.294,0,0,0,9.179,4.706" transform="translate(-514.14 -218.078)" fill="#007c3d" opacity="0.4"/><path d="M855.562,629.5a21.279,21.279,0,1,1,26.779,13.728A21.279,21.279,0,0,1,855.562,629.5" transform="translate(-657.363 -462.861)" fill="#049f50"/><path d="M1149.7,486.382a50.537,50.537,0,0,0-50.451,48.822c0,.046,0,.092,0,.138a14.651,14.651,0,0,1,2.024-.138h5.432a43.033,43.033,0,0,1,86,0h7.449a50.539,50.539,0,0,0-50.451-48.822" transform="translate(-845.612 -374.157)" fill="#04ce67" stroke="#007c3d" stroke-width="1"/><path d="M1113.038,805.977H1011.394a10.494,10.494,0,0,1-10.468-11.228l1.345-19.176.631-9.011,4.121-58.826a10.492,10.492,0,0,1,10.469-9.758h88.533a10.491,10.491,0,0,1,10.459,9.649l7.015,87.012a10.492,10.492,0,0,1-10.459,11.336" transform="translate(-769.96 -536.933)" fill="#007c3d"/><path d="M1208.684,805.974H1107.037a10.493,10.493,0,0,1-10.468-11.227l6.1-87.011a10.493,10.493,0,0,1,10.468-9.759h88.533a10.493,10.493,0,0,1,10.459,9.65l7.016,87.011a10.493,10.493,0,0,1-10.459,11.337" transform="translate(-843.536 -536.93)" fill="#049d4f"/><path d="M1331.865,823.228a15.034,15.034,0,0,1-15.034,15.034,15.258,15.258,0,0,1-2.344-.182,15.037,15.037,0,0,1-2.613-29.047V782.517a3.851,3.851,0,0,1,2.613-3.636,3.759,3.759,0,0,1,1.224-.2h2.24a3.851,3.851,0,0,1,3.837,3.84v26.516a15.039,15.039,0,0,1,10.077,14.2" transform="translate(-1001.43 -599.01)" fill="#007c3d"/><path d="M1327.175,823.908a12.8,12.8,0,1,1-15.3-14.2V783.2a2.756,2.756,0,1,1,5.224,0v26.515a15.039,15.039,0,0,1,10.077,14.2" transform="translate(-1001.43 -599.691)" fill="#04ce67"/><path d="M2011.565,1135.2v4.6a1.569,1.569,0,0,1-.362.991,2.1,2.1,0,0,1-.992.664,2.305,2.305,0,0,1-.387.091,2.426,2.426,0,0,1-.373.028h-87.342A2,2,0,0,1,1920,1139.9c0-.031,0-.061,0-.092v-4.6c0-.031,0-.061,0-.092a2,2,0,0,1,2.111-1.683h87.342a2.489,2.489,0,0,1,.373.028,2.306,2.306,0,0,1,.387.091,2.106,2.106,0,0,1,.992.664,1.571,1.571,0,0,1,.362.991" transform="translate(-1476.992 -871.907)" fill="#007c3d" opacity="0.4"/><rect width="0.993" height="8.154" transform="translate(483.466 261.519)" fill="#ff8625"/><rect width="0.993" height="8.154" transform="translate(475.095 261.519)" fill="#ff8625"/><path d="M1971.092,1099.859v4.6a1.569,1.569,0,0,1-.362.991,2.106,2.106,0,0,1-.991.664,2.347,2.347,0,0,1-.387.091,2.482,2.482,0,0,1-.373.028h-87.342a2,2,0,0,1-2.111-1.683c0-.031,0-.061,0-.091v-4.6c0-.031,0-.061,0-.091a2,2,0,0,1,2.111-1.683h87.342c.056,0,.112,0,.167.006.023,0,.048,0,.072.006s.052,0,.078.008l.057.008a2.287,2.287,0,0,1,.387.091l.055.018.054.02.106.044.061.028.053.027c.034.016.067.034.1.053s.074.044.109.068.055.036.082.056l0,0c.018.013.036.026.053.041a1.762,1.762,0,0,1,.154.132c.015.014.029.027.042.042l.041.042c.026.03.053.06.078.091a1.569,1.569,0,0,1,.362.99" transform="translate(-1445.857 -844.721)" fill="#007c3d" opacity="0.4"/><path d="M1928.2,1106.239h-46.792a1.847,1.847,0,0,1-1.885-1.683c0-.031,0-.061,0-.091v-4.6c0-.031,0-.061,0-.091a1.847,1.847,0,0,1,1.885-1.683h41.045c.018.067.037.134.057.2a14.265,14.265,0,0,0,5.69,7.953" transform="translate(-1445.857 -844.721)" fill="#40a874"/><path d="M1990.65,1065.393v4.6a1.569,1.569,0,0,1-.362.991,2.108,2.108,0,0,1-.992.664,2.262,2.262,0,0,1-.386.091,2.462,2.462,0,0,1-.373.028h-87.342a2.412,2.412,0,0,1-.974-.2,1.811,1.811,0,0,1-1.13-1.4c0-.026-.006-.053-.007-.079s0-.061,0-.091v-4.6c0-.03,0-.061,0-.091a2,2,0,0,1,2.111-1.683h87.342a2.462,2.462,0,0,1,.373.028,2.251,2.251,0,0,1,.386.091,2.1,2.1,0,0,1,.992.664,1.567,1.567,0,0,1,.362.99" transform="translate(-1460.902 -818.207)" fill="#007c3d" opacity="0.4"/><rect width="0.993" height="8.154" transform="translate(478.641 245.412)" fill="#ff8625"/><rect width="0.993" height="8.154" transform="translate(470.27 245.412)" fill="#ff8625"/><path d="M1999.719,1030.054v4.6a1.569,1.569,0,0,1-.362.991,2.109,2.109,0,0,1-.992.664,2.323,2.323,0,0,1-.387.091,2.441,2.441,0,0,1-.373.029h-87.342a2,2,0,0,1-2.111-1.683c0-.031,0-.061,0-.091v-4.6c0-.03,0-.061,0-.091a1.947,1.947,0,0,1,1.861-1.671,2.408,2.408,0,0,1,.25-.013h87.342a2.489,2.489,0,0,1,.373.028,2.335,2.335,0,0,1,.387.091,2.11,2.11,0,0,1,.992.664,1.569,1.569,0,0,1,.362.991" transform="translate(-1467.879 -791.021)" fill="#007c3d" opacity="0.4"/><path d="M1956.828,1036.432h-46.792a1.847,1.847,0,0,1-1.884-1.683c0-.031,0-.061,0-.091v-4.6c0-.031,0-.061,0-.092a1.831,1.831,0,0,1,1.661-1.67,1.885,1.885,0,0,1,.223-.013h41.047s0,.009,0,.013a14.3,14.3,0,0,0,5.743,8.141" transform="translate(-1467.878 -791.02)" fill="#40a874"/><rect width="0.993" height="8.154" transform="translate(472.362 237.258)" fill="#ff8625"/><path d="M1971.888,994.77v4.6a1.57,1.57,0,0,1-.362.991,2.108,2.108,0,0,1-.992.664,2.291,2.291,0,0,1-.387.091c-.04.006-.081.012-.122.016l-.069.006-.069,0-.112,0h-87.342a2,2,0,0,1-2.111-1.683c0-.031,0-.061,0-.092v-4.6c0-.031,0-.061,0-.091s0-.05.006-.075a1.913,1.913,0,0,1,1.584-1.554l.064-.013a2.469,2.469,0,0,1,.457-.042h87.342c.065,0,.127,0,.19.007l.084.007h0l.1.014a2.245,2.245,0,0,1,.387.091,2.1,2.1,0,0,1,.992.664,1.569,1.569,0,0,1,.362.991" transform="translate(-1446.469 -763.878)" fill="#007c3d" opacity="0.4"/><path d="M1929,1001.148H1882.2a1.848,1.848,0,0,1-1.885-1.684c0-.03,0-.061,0-.091v-4.6c0-.031,0-.061,0-.092s0-.05.006-.074a1.823,1.823,0,0,1,1.464-1.565.731.731,0,0,1,.081-.016,1.954,1.954,0,0,1,.334-.029h41.046c.005.02.011.038.017.058a14.289,14.289,0,0,0,5.711,8.083l.019.013" transform="translate(-1446.469 -763.878)" fill="#40a874"/><rect width="0.993" height="8.154" transform="translate(474.312 229.116)" fill="#ff8625"/><rect width="0.993" height="8.154" transform="translate(465.94 229.116)" fill="#ff8625"/><path d="M1971.092,959.681v4.6a1.57,1.57,0,0,1-.362.991,2.108,2.108,0,0,1-.991.664,2.166,2.166,0,0,1-.3.076h0c-.028.006-.055.011-.083.015a2.435,2.435,0,0,1-.373.028h-87.342a2.311,2.311,0,0,1-.273-.016c-.035,0-.07-.008-.1-.014a1.921,1.921,0,0,1-1.734-1.654c0-.03,0-.061,0-.092v-4.6c0-.03,0-.061,0-.091a2,2,0,0,1,2.111-1.683h87.342c.056,0,.112,0,.167.006l.072.006.078.009.057.008a2.275,2.275,0,0,1,.387.091l.055.019.054.019c.036.014.071.028.106.043s.077.035.115.055.067.034.1.053.074.044.109.068.055.037.082.056a.01.01,0,0,1,0,0c.018.013.036.026.053.04a1.762,1.762,0,0,1,.154.132l.042.041.041.043c.026.029.053.06.078.09a1.57,1.57,0,0,1,.362.991" transform="translate(-1445.857 -736.886)" fill="#007c3d" opacity="0.4"/><path d="M1928.2,966.06h-46.792c-.038,0-.075,0-.111,0s-.081-.006-.12-.011a1.829,1.829,0,0,1-1.653-1.67c0-.031,0-.061,0-.091v-4.6c0-.03,0-.061,0-.091a1.847,1.847,0,0,1,1.885-1.683h41.045c.018.067.037.133.057.2a14.27,14.27,0,0,0,5.606,7.9l.084.058" transform="translate(-1445.857 -736.886)" fill="#40a874"/><rect width="0.993" height="8.154" transform="translate(474.128 221.021)" fill="#ff8625"/><rect width="0.993" height="8.154" transform="translate(465.757 221.021)" fill="#ff8625"/><path d="M1990.65,925.214v4.6a1.571,1.571,0,0,1-.362.991,2.107,2.107,0,0,1-.992.664,2.257,2.257,0,0,1-.386.091,2.454,2.454,0,0,1-.373.028h-87.342a2.414,2.414,0,0,1-.974-.2,1.811,1.811,0,0,1-1.13-1.4c0-.026-.006-.053-.007-.079s0-.061,0-.091v-4.6c0-.03,0-.061,0-.091a2,2,0,0,1,2.111-1.683h87.342a2.415,2.415,0,0,1,.373.029,2.228,2.228,0,0,1,.386.091,2.1,2.1,0,0,1,.992.664,1.569,1.569,0,0,1,.362.991" transform="translate(-1460.902 -710.371)" fill="#007c3d" opacity="0.4"/><path d="M1947.761,931.592h-46.792a1.96,1.96,0,0,1-.869-.2,1.783,1.783,0,0,1-1.009-1.4c0-.027-.006-.053-.007-.08s0-.061,0-.091v-4.6c0-.031,0-.061,0-.091a1.847,1.847,0,0,1,1.885-1.683h41.046a14.311,14.311,0,0,0,5.458,7.953c.095.068.19.134.288.2" transform="translate(-1460.902 -710.371)" fill="#40a874"/><rect width="0.993" height="8.154" transform="translate(470.27 213.068)" fill="#ff8625"/><path d="M2021.584,889.873v4.6a1.567,1.567,0,0,1-.362.991,2.108,2.108,0,0,1-.992.664,2.294,2.294,0,0,1-.387.091,2.467,2.467,0,0,1-.373.028H1932.13a2,2,0,0,1-2.111-1.683c0-.031,0-.061,0-.091v-4.6c0-.03,0-.061,0-.091a1.949,1.949,0,0,1,1.861-1.67,2.379,2.379,0,0,1,.25-.012h87.342a2.475,2.475,0,0,1,.373.028,2.277,2.277,0,0,1,.387.091,2.107,2.107,0,0,1,.992.664,1.568,1.568,0,0,1,.362.991" transform="translate(-1484.7 -683.185)" fill="#007c3d" opacity="0.4"/><path d="M1978.694,896.252H1931.9a1.847,1.847,0,0,1-1.884-1.683c0-.03,0-.061,0-.091v-4.6c0-.03,0-.061,0-.091a1.832,1.832,0,0,1,1.661-1.671,1.87,1.87,0,0,1,.223-.013h41.046s0,.009,0,.013a14.294,14.294,0,0,0,5.743,8.141" transform="translate(-1484.699 -683.185)" fill="#40a874"/><path d="M1971.888,854.59v4.6a1.569,1.569,0,0,1-.362.991,2.106,2.106,0,0,1-.992.664,2.245,2.245,0,0,1-.387.091c-.04.006-.081.012-.122.016s-.066.006-.1.008l-.05,0-.1,0h-87.342a2,2,0,0,1-2.111-1.683c0-.03,0-.061,0-.091v-4.6c0-.031,0-.061,0-.091a2,2,0,0,1,2.111-1.683h87.342c.038,0,.075,0,.112,0a2.432,2.432,0,0,1,.26.026,2.257,2.257,0,0,1,.387.091c.063.021.125.043.183.069.038.015.074.031.109.049a.032.032,0,0,1,.011.006c.036.018.071.036.106.056a.088.088,0,0,1,.018.01c.032.018.064.037.094.058a1.813,1.813,0,0,1,.21.154c.021.017.041.035.059.052l.011.01c.013.011.025.021.037.033l.007.007c.021.021.042.042.062.065s.057.063.084.1a1.57,1.57,0,0,1,.362.991" transform="translate(-1446.469 -656.043)" fill="#007c3d" opacity="0.4"/><path d="M1929,860.969H1882.2a1.847,1.847,0,0,1-1.885-1.683c0-.031,0-.061,0-.091v-4.6c0-.03,0-.061,0-.091a1.848,1.848,0,0,1,1.885-1.683h41.046c.017.062.034.124.054.189a14.268,14.268,0,0,0,5.674,7.952l.019.013" transform="translate(-1446.469 -656.042)" fill="#40a874"/><path d="M1999.719,820.067v4.6a1.57,1.57,0,0,1-.362.991,2.11,2.11,0,0,1-.992.664,2.3,2.3,0,0,1-.387.091,2.426,2.426,0,0,1-.373.029h-87.342a2.422,2.422,0,0,1-.944-.188,1.816,1.816,0,0,1-1.161-1.423c0-.024,0-.048-.006-.072s0-.061,0-.091v-4.6c0-.03,0-.061,0-.091a1.947,1.947,0,0,1,1.861-1.67,2.281,2.281,0,0,1,.25-.013h87.342a2.473,2.473,0,0,1,.373.028,2.276,2.276,0,0,1,.387.091,2.108,2.108,0,0,1,.992.664,1.571,1.571,0,0,1,.362.991" transform="translate(-1467.879 -629.485)" fill="#007c3d" opacity="0.4"/><path d="M1956.828,826.446h-46.792a1.96,1.96,0,0,1-.842-.188,1.785,1.785,0,0,1-1.036-1.423c0-.024-.005-.048-.006-.073s0-.061,0-.091v-4.6c0-.031,0-.061,0-.092a1.892,1.892,0,0,1,1.884-1.683h41.047l0,.013a14.308,14.308,0,0,0,5.475,7.953q.132.1.268.188" transform="translate(-1467.878 -629.485)" fill="#40a874"/><path d="M2011.565,784.782v4.6a1.569,1.569,0,0,1-.362.991,2.1,2.1,0,0,1-.992.664,2.282,2.282,0,0,1-.386.091c-.041.006-.082.012-.123.016l-.069.006-.069,0-.112,0h-87.342a2,2,0,0,1-2.111-1.683c0-.03,0-.061,0-.091v-4.6c0-.03,0-.061,0-.091a2,2,0,0,1,2.111-1.683h87.342a2.449,2.449,0,0,1,.373.028,2.259,2.259,0,0,1,.386.091,2.1,2.1,0,0,1,.992.664,1.569,1.569,0,0,1,.362.991" transform="translate(-1476.992 -602.342)" fill="#007c3d" opacity="0.4"/><path d="M1968.675,791.162h-46.792a1.847,1.847,0,0,1-1.884-1.683c0-.03,0-.061,0-.091v-4.6c0-.031,0-.061,0-.091a1.847,1.847,0,0,1,1.884-1.683h41.046a14.3,14.3,0,0,0,5.728,8.141l.019.013" transform="translate(-1476.992 -602.342)" fill="#40a874"/><g transform="translate(465.147 195.585)"><rect width="0.827" height="6.795" transform="translate(70.646 67.377)" fill="#007c3d"/><rect width="0.827" height="6.795" transform="translate(67.846 67.377)" fill="#007c3d"/><rect width="0.827" height="6.795" transform="translate(64.487 67.377)" fill="#007c3d"/><rect width="0.827" height="6.795" transform="translate(59.341 67.377)" fill="#007c3d"/><rect width="0.827" height="6.795" transform="translate(53.898 67.377)" fill="#007c3d"/><rect width="0.827" height="6.795" transform="translate(45.554 67.377)" fill="#007c3d"/><rect width="0.827" height="6.795" transform="translate(73.312 67.377)" fill="#007c3d"/><rect width="0.827" height="6.795" transform="translate(75.072 67.377)" fill="#007c3d"/><rect width="0.827" height="6.795" transform="translate(76.773 67.377)" fill="#007c3d"/><path d="M2305.837,1133.449v6.748a2.042,2.042,0,0,1-.31.024h-.518v-6.8h.518a2.074,2.074,0,0,1,.31.024" transform="translate(-2226.957 -1066.048)" fill="#007c3d"/><path d="M2311.815,1134.5v5.489a1.756,1.756,0,0,1-.826.554v-6.6a1.754,1.754,0,0,1,.826.553" transform="translate(-2231.788 -1066.466)" fill="#007c3d"/><rect width="0.827" height="6.795" transform="translate(62.863 60.582)" fill="#007c3d"/><rect width="0.827" height="6.795" transform="translate(60.064 60.582)" fill="#007c3d"/><rect width="0.827" height="6.795" transform="translate(56.706 60.582)" fill="#007c3d"/><rect width="0.827" height="6.795" transform="translate(51.559 60.582)" fill="#007c3d"/><rect width="0.827" height="6.795" transform="translate(46.116 60.582)" fill="#007c3d"/><rect width="0.827" height="6.795" transform="translate(37.772 60.582)" fill="#007c3d"/><rect width="0.827" height="6.795" transform="translate(22.984 60.582)" fill="#007c3d"/><rect width="0.827" height="6.795" transform="translate(65.529 60.582)" fill="#007c3d"/><rect width="0.827" height="6.795" transform="translate(67.29 60.582)" fill="#007c3d"/><rect width="0.827" height="6.795" transform="translate(68.99 60.582)" fill="#007c3d"/><path d="M2265.363,1098.109v6.748a2.061,2.061,0,0,1-.311.024h-.517v-6.795h.517a2.03,2.03,0,0,1,.311.024" transform="translate(-2194.267 -1037.503)" fill="#007c3d"/><path d="M2271.341,1099.156v5.489a1.755,1.755,0,0,1-.826.554v-6.6a1.754,1.754,0,0,1,.826.553" transform="translate(-2199.096 -1037.921)" fill="#007c3d"/><rect width="0.827" height="6.795" transform="translate(29.959 60.582)" fill="#007c3d"/><rect width="0.827" height="6.795" transform="translate(66.624 53.955)" fill="#007c3d"/><rect width="0.827" height="6.795" transform="translate(63.824 53.955)" fill="#007c3d"/><rect width="0.827" height="6.795" transform="translate(60.467 53.955)" fill="#007c3d"/><rect width="0.827" height="6.795" transform="translate(55.319 53.955)" fill="#007c3d"/><rect width="0.827" height="6.795" transform="translate(49.876 53.955)" fill="#007c3d"/><rect width="0.827" height="6.795" transform="translate(41.532 53.955)" fill="#007c3d"/><rect width="0.827" height="6.795" transform="translate(69.29 53.955)" fill="#007c3d"/><rect width="0.827" height="6.795" transform="translate(71.051 53.955)" fill="#007c3d"/><rect width="0.827" height="6.795" transform="translate(72.751 53.955)" fill="#007c3d"/><path d="M2284.922,1063.641v6.748a2.015,2.015,0,0,1-.311.024h-.517v-6.795h.517a2.03,2.03,0,0,1,.311.024" transform="translate(-2210.063 -1009.662)" fill="#007c3d"/><path d="M2290.9,1064.689v5.489a1.756,1.756,0,0,1-.826.553v-6.6a1.756,1.756,0,0,1,.826.553" transform="translate(-2214.895 -1010.081)" fill="#007c3d"/><rect width="0.827" height="6.795" transform="translate(68.368 47.16)" fill="#007c3d"/><rect width="0.827" height="6.795" transform="translate(65.568 47.16)" fill="#007c3d"/><rect width="0.827" height="6.795" transform="translate(62.21 47.16)" fill="#007c3d"/><rect width="0.827" height="6.795" transform="translate(57.063 47.16)" fill="#007c3d"/><rect width="0.827" height="6.795" transform="translate(51.62 47.16)" fill="#007c3d"/><rect width="0.827" height="6.795" transform="translate(43.276 47.16)" fill="#007c3d"/><rect width="0.827" height="6.795" transform="translate(35.463 47.16)" fill="#007c3d" opacity="0.5"/><rect width="0.827" height="6.795" transform="translate(71.033 47.16)" fill="#007c3d"/><rect width="0.827" height="6.795" transform="translate(72.794 47.16)" fill="#007c3d"/><rect width="0.827" height="6.795" transform="translate(74.495 47.16)" fill="#007c3d"/><path d="M2293.99,1028.3v6.748a2.094,2.094,0,0,1-.311.023h-.517v-6.795h.517a2.03,2.03,0,0,1,.311.024" transform="translate(-2217.389 -981.117)" fill="#007c3d"/><path d="M2299.968,1029.349v5.488a1.756,1.756,0,0,1-.827.554v-6.6a1.759,1.759,0,0,1,.827.553" transform="translate(-2222.218 -981.536)" fill="#007c3d"/><rect width="0.827" height="6.795" transform="translate(63.017 40.376)" fill="#007c3d"/><rect width="0.827" height="6.795" transform="translate(60.217 40.376)" fill="#007c3d"/><rect width="0.827" height="6.795" transform="translate(56.859 40.376)" fill="#007c3d"/><rect width="0.827" height="6.795" transform="translate(51.712 40.376)" fill="#007c3d"/><rect width="0.827" height="6.795" transform="translate(46.269 40.376)" fill="#007c3d"/><rect width="0.827" height="6.795" transform="translate(37.925 40.376)" fill="#007c3d"/><rect width="0.827" height="6.795" transform="translate(65.683 40.376)" fill="#007c3d"/><rect width="0.827" height="6.795" transform="translate(67.443 40.376)" fill="#007c3d"/><rect width="0.827" height="6.795" transform="translate(69.144 40.376)" fill="#007c3d"/><path d="M2266.16,993.016v6.748a2.016,2.016,0,0,1-.31.024h-.518v-6.795h.518a2.047,2.047,0,0,1,.31.023" transform="translate(-2194.909 -952.618)" fill="#007c3d"/><path d="M2272.138,994.065v5.489a1.758,1.758,0,0,1-.827.553v-6.6a1.756,1.756,0,0,1,.827.553" transform="translate(-2199.739 -953.037)" fill="#007c3d"/><rect width="0.827" height="6.795" transform="translate(62.863 33.629)" fill="#007c3d"/><rect width="0.827" height="6.795" transform="translate(60.064 33.629)" fill="#007c3d"/><rect width="0.827" height="6.795" transform="translate(56.706 33.629)" fill="#007c3d"/><rect width="0.827" height="6.795" transform="translate(51.559 33.629)" fill="#007c3d"/><rect width="0.827" height="6.795" transform="translate(46.116 33.629)" fill="#007c3d"/><rect width="0.827" height="6.795" transform="translate(37.772 33.629)" fill="#007c3d"/><rect width="0.827" height="6.795" transform="translate(65.529 33.629)" fill="#007c3d"/><rect width="0.827" height="6.795" transform="translate(67.29 33.629)" fill="#007c3d"/><rect width="0.827" height="6.795" transform="translate(68.99 33.629)" fill="#007c3d"/><path d="M2265.363,957.93v6.748a2.045,2.045,0,0,1-.311.024h-.517v-6.795h.517a2.045,2.045,0,0,1,.311.024" transform="translate(-2194.267 -924.277)" fill="#007c3d"/><path d="M2271.341,958.979v5.489a1.753,1.753,0,0,1-.826.553v-6.6a1.755,1.755,0,0,1,.826.554" transform="translate(-2199.096 -924.696)" fill="#007c3d"/><rect width="0.827" height="6.795" transform="translate(66.624 27.002)" fill="#007c3d"/><rect width="0.827" height="6.795" transform="translate(63.824 27.002)" fill="#007c3d"/><rect width="0.827" height="6.795" transform="translate(60.467 27.002)" fill="#007c3d"/><rect width="0.827" height="6.795" transform="translate(55.319 27.002)" fill="#007c3d"/><rect width="0.827" height="6.795" transform="translate(49.876 27.002)" fill="#007c3d"/><rect width="0.827" height="6.795" transform="translate(41.532 27.002)" fill="#007c3d"/><rect width="0.827" height="6.795" transform="translate(33.72 27.002)" fill="#007c3d"/><rect width="0.827" height="6.795" transform="translate(69.29 27.002)" fill="#007c3d"/><rect width="0.827" height="6.795" transform="translate(71.051 27.002)" fill="#007c3d"/><rect width="0.827" height="6.795" transform="translate(72.751 27.002)" fill="#007c3d"/><path d="M2284.922,923.462v6.748a2.061,2.061,0,0,1-.311.024h-.517v-6.8h.517a2.045,2.045,0,0,1,.311.024" transform="translate(-2210.063 -896.436)" fill="#007c3d"/><path d="M2290.9,924.511V930a1.756,1.756,0,0,1-.826.554v-6.6a1.754,1.754,0,0,1,.826.553" transform="translate(-2214.895 -896.856)" fill="#007c3d"/><rect width="0.827" height="6.795" transform="translate(72.572 20.207)" fill="#007c3d"/><rect width="0.827" height="6.795" transform="translate(69.773 20.207)" fill="#007c3d"/><rect width="0.827" height="6.795" transform="translate(66.415 20.207)" fill="#007c3d"/><rect width="0.827" height="6.795" transform="translate(61.268 20.207)" fill="#007c3d"/><rect width="0.827" height="6.795" transform="translate(55.825 20.207)" fill="#007c3d"/><rect width="0.827" height="6.795" transform="translate(47.481 20.207)" fill="#007c3d"/><rect width="0.827" height="6.795" transform="translate(39.668 20.207)" fill="#007c3d"/><rect width="0.827" height="6.795" transform="translate(32.693 20.207)" fill="#007c3d"/><rect width="0.827" height="6.795" transform="translate(75.238 20.207)" fill="#007c3d"/><rect width="0.827" height="6.795" transform="translate(76.999 20.207)" fill="#007c3d"/><rect width="0.827" height="6.795" transform="translate(78.699 20.207)" fill="#007c3d"/><path d="M2315.858,888.122v6.748a2.045,2.045,0,0,1-.311.024h-.517V888.1h.517a2.094,2.094,0,0,1,.311.023" transform="translate(-2235.052 -867.892)" fill="#007c3d"/><path d="M2321.836,889.17v5.489a1.759,1.759,0,0,1-.826.553v-6.6a1.757,1.757,0,0,1,.826.553" transform="translate(-2239.882 -868.311)" fill="#007c3d"/><rect width="0.827" height="6.795" transform="translate(63.017 13.423)" fill="#007c3d"/><rect width="0.827" height="6.795" transform="translate(60.217 13.423)" fill="#007c3d"/><rect width="0.827" height="6.795" transform="translate(56.859 13.423)" fill="#007c3d"/><rect width="0.827" height="6.795" transform="translate(51.712 13.423)" fill="#007c3d"/><rect width="0.827" height="6.795" transform="translate(46.269 13.423)" fill="#007c3d" opacity="0.4"/><rect width="0.827" height="6.795" transform="translate(37.925 13.423)" fill="#007c3d"/><rect width="0.827" height="6.795" transform="translate(30.112 13.423)" fill="#007c3d"/><rect width="0.827" height="6.795" transform="translate(23.136 13.423)" fill="#007c3d"/><rect width="0.827" height="6.795" transform="translate(65.683 13.423)" fill="#007c3d"/><rect width="0.827" height="6.795" transform="translate(67.443 13.423)" fill="#007c3d"/><rect width="0.827" height="6.795" transform="translate(69.144 13.423)" fill="#007c3d"/><path d="M2266.16,852.839v6.748a2.063,2.063,0,0,1-.31.024h-.518v-6.795h.518a2.031,2.031,0,0,1,.31.024" transform="translate(-2194.909 -839.393)" fill="#007c3d"/><path d="M2272.138,853.887v5.489a1.759,1.759,0,0,1-.827.554v-6.6a1.755,1.755,0,0,1,.827.553" transform="translate(-2199.739 -839.812)" fill="#007c3d"/><rect width="0.827" height="6.795" transform="translate(68.368 6.784)" fill="#007c3d"/><rect width="0.827" height="6.795" transform="translate(65.568 6.784)" fill="#007c3d"/><rect width="0.827" height="6.795" transform="translate(62.21 6.784)" fill="#007c3d"/><rect width="0.827" height="6.795" transform="translate(57.063 6.784)" fill="#007c3d"/><rect width="0.827" height="6.795" transform="translate(51.62 6.784)" fill="#007c3d"/><rect width="0.827" height="6.795" transform="translate(43.276 6.784)" fill="#007c3d"/><rect width="0.827" height="6.795" transform="translate(35.463 6.784)" fill="#007c3d"/><rect width="0.827" height="6.795" transform="translate(28.487 6.784)" fill="#007c3d"/><rect width="0.827" height="6.795" transform="translate(71.033 6.784)" fill="#007c3d"/><rect width="0.827" height="6.795" transform="translate(72.794 6.784)" fill="#007c3d"/><rect width="0.827" height="6.795" transform="translate(74.495 6.784)" fill="#007c3d"/><path d="M2293.99,818.315v6.748a2.045,2.045,0,0,1-.311.024h-.517v-6.795h.517a2.015,2.015,0,0,1,.311.024" transform="translate(-2217.389 -811.507)" fill="#007c3d"/><path d="M2299.968,819.362v5.489a1.757,1.757,0,0,1-.827.553v-6.6a1.757,1.757,0,0,1,.827.553" transform="translate(-2222.218 -811.925)" fill="#007c3d"/><rect width="0.827" height="6.795" transform="translate(70.646 0)" fill="#007c3d"/><rect width="0.827" height="6.795" transform="translate(67.846 0)" fill="#007c3d"/><rect width="0.827" height="6.795" transform="translate(64.488 0)" fill="#007c3d"/><rect width="0.827" height="6.795" transform="translate(59.341 0)" fill="#007c3d"/><rect width="0.827" height="6.795" transform="translate(53.898 0)" fill="#007c3d"/><rect width="0.827" height="6.795" transform="translate(45.554 0)" fill="#007c3d"/><rect width="0.827" height="6.795" transform="translate(37.741 0)" fill="#007c3d"/><rect width="0.828" height="6.795" transform="translate(30.765 0)" fill="#007c3d"/><rect width="0.827" height="6.795" transform="translate(73.312 0)" fill="#007c3d"/><rect width="0.827" height="6.795" transform="translate(75.072 0)" fill="#007c3d"/><rect width="0.827" height="6.795" transform="translate(76.773 0)" fill="#007c3d"/><path d="M2305.837,783.031v6.747a2.058,2.058,0,0,1-.31.024h-.518v-6.8h.518a2.011,2.011,0,0,1,.31.024" transform="translate(-2226.957 -783.007)" fill="#007c3d"/><path d="M2311.816,784.079v5.488a1.756,1.756,0,0,1-.827.554v-6.6a1.755,1.755,0,0,1,.827.553" transform="translate(-2231.788 -783.426)" fill="#007c3d"/><path d="M1960.562,1140.22h-38.993a1.539,1.539,0,0,1-1.57-1.4c0-.026,0-.051,0-.076V1134.9c0-.025,0-.051,0-.076a1.539,1.539,0,0,1,1.57-1.4h34.2a11.916,11.916,0,0,0,4.789,6.8" transform="translate(-1915.974 -1066.048)" fill="#40a874"/><path d="M1939.647,1070.413h-38.994a1.634,1.634,0,0,1-.724-.167,1.486,1.486,0,0,1-.841-1.169c0-.022,0-.044-.006-.066s0-.051,0-.076V1065.1c0-.025,0-.051,0-.076a1.539,1.539,0,0,1,1.571-1.4h34.205a11.926,11.926,0,0,0,4.549,6.627q.118.085.24.167" transform="translate(-1899.081 -1009.663)" fill="#40a874"/></g><path d="M1718.139,850.549a41.51,41.51,0,1,1,41.51,41.51,41.51,41.51,0,0,1-41.51-41.51" transform="translate(-1321.71 -622.367)" fill="#007c3d" opacity="0.6"/><path d="M1702.444,850.549a41.51,41.51,0,1,1,41.51,41.51,41.51,41.51,0,0,1-41.51-41.51" transform="translate(-1309.636 -622.367)" fill="url(#f)"/><path d="M1756.257,902.8A37.821,37.821,0,1,1,1783,891.721a37.572,37.572,0,0,1-26.743,11.077m0-73.385a35.564,35.564,0,1,0,35.565,35.564,35.6,35.6,0,0,0-35.565-35.564" transform="translate(-1321.939 -636.305)" fill="#007c3d"/><path d="M2155.257,558.908s-4.459,6.279-8.548,6.365-10.309-2.91-10.309-2.91-3.753-8.366-1.208-11.64a5.468,5.468,0,0,1,5.224.858,8,8,0,0,1,1.382,1.324,4.385,4.385,0,0,0,2.146,1.455c2.917.887,6.38-1.2,7.675.815a13.712,13.712,0,0,0,2.255,2.67,10.329,10.329,0,0,0,1.382,1.062" transform="translate(-1641.854 -423.41)" fill="url(#f)"/><path d="M1973.126,653.76s15.762-38.194,44.135-38.922c0,0,26.19,2.91,27.645,38.922Z" transform="translate(-1517.863 -472.974)" fill="url(#f)"/><path d="M2130.538,603.412s11.373,2.529,14.881,1.043c0,0,.531-4.756-4.259-4.089-3.278.456-5.413-1.119-6.669-1.758-1.777-.9-4.426,2.815-3.954,4.8" transform="translate(-1638.912 -460.382)" fill="#9cfbb1"/><path d="M2163.745,563.187c-.727.546-2.961-7.69-2.961-7.69a8.009,8.009,0,0,1,1.383,1.324,4.388,4.388,0,0,0,2.146,1.455c.008.24.139,4.38-.567,4.911" transform="translate(-1662.222 -427.325)" fill="#9cfbb1"/><path d="M2198.409,573.743c-.16.094-5.419,3.245-6.133,3.245s3.878-5.915,3.878-5.915a13.711,13.711,0,0,0,2.255,2.67" transform="translate(-1686.388 -439.307)" fill="#9cfbb1"/><path d="M2039.847,680.676c-.292-.249,11.155-16.854,14.308-16.975s10.235,3.637,15.363,4.122,10.1-.97,11.069,2.061,3.638,13.778,2,15.5-36.447.671-42.741-4.707" transform="translate(-1569.185 -510.56)" fill="#007c3d" opacity="0.2"/><path d="M2149.859,598.057c-.951-.672-3.108-2.15-3.22-1.82a1.446,1.446,0,0,0,.292,1.058c-1.3-.487-2.629-.807-5.762-.205a2.346,2.346,0,0,0-1.541,1.014,1.036,1.036,0,0,0,.361,1.616c1.6.994,1.135.4,3.356,1.846s4.942,1.817,6.568.8l2.182-.364.27-3.587s-1.243-.148-2.506-.359" transform="translate(-1645.76 -458.629)" fill="#ffa88f"/><path d="M2388.288,435.594s-5.142,6.1-11.69,3.548a19.845,19.845,0,0,1-1.428-5.918c0-.309-.006-.609-.011-.894-.035-2.828-.131-4.415-.131-4.415h.007c.3-.124,10.01-4.112,10-3.781-.166,7.649,3.251,11.461,3.251,11.461" transform="translate(-1827.034 -326.257)" fill="#ffa88f"/><path d="M2384.063,431.865a15.192,15.192,0,0,1-8.9,6.373c-.035-2.828-.13-4.415-.13-4.415h.006c.269-.072,9.306-2.468,9.027-1.957" transform="translate(-1827.035 -332.164)" fill="#ed8a6e"/><path d="M2360.548,379.3s10.922,2.568,12.417-4.258,3.91-11.093-3-13.021-8.841.379-9.894,2.536-2.326,13.9.477,14.743" transform="translate(-1814.587 -277.933)" fill="#ffa88f"/><path d="M2360.407,359.054c.149.1,2.5.818,6.95-8.049a7.723,7.723,0,0,0-.453-7.063c-1.629-2.66-7.4-4.752-12.2-5.663s-5.95,1.79-7.079,4.5c-1.187,2.848-4.612,5.193-4.612,5.193,4.137,2.311,9.12-.994,10.847-.451s2.336,3.264,2.465,4.137.329,1.6,2.5.818.98,3.076.633,3.814c0,0-.295,1.964.95,2.762" transform="translate(-1802.404 -260.087)" fill="url(#o)"/><path d="M2539.656,1112.276h6.614c1.386,0,2.927-1.388,3.313-3.93s3.234-3.93,3.852-6.01-2.543-5.009-2.543-5.009l-.528-.679-.549-.708-5.24,1.232s-.129,1.247-.209,2.837a35.965,35.965,0,0,0-.022,3.637c.155,2.774-.776,5.761-3.241,6.3s-1.446,2.329-1.446,2.329" transform="translate(-1953.514 -843.071)" fill="#335664"/><path d="M2340.807,1134.918h17.531a1.608,1.608,0,0,0,.373-.108c1.17-.586.8-5.067.663-6.452-.027-.257-.047-.407-.047-.407s-6.165-4.931-7.013-1.155c-.027.118-.057.233-.091.347h0c-1.07,3.533-5.854,5.137-8.617,5.584-2.111.344-2.658,1.574-2.8,2.189" transform="translate(-1800.708 -865.713)" fill="#335664"/><path d="M2356.121,723.19s.936,11.681,2.036,25.722c1.5,19.073,3.294,42.5,3.472,46.94.308,7.707,1.542,20.035,1.542,20.035s2.927,2.929,8.784,1.695a201.641,201.641,0,0,0,6.71-36.219c.023-.3.047-.613.07-.92,1.386-18.955,3.543-58.871,3.543-58.871Z" transform="translate(-1812.488 -555.081)" fill="#2c3f81"/><path d="M2356.121,723.19s.936,11.681,2.036,25.722l20.509,32.451c.023-.3.047-.613.07-.92,1.386-18.955,3.543-58.871,3.543-58.871Z" transform="translate(-1812.488 -555.081)" fill="#2c3f81"/><path d="M2374.651,709.163s16.875,42.3,27.971,62.183,14.563,25.428,14.563,25.428,6.357-2.543,6.935-4.276c0,0-4.243-38.38-11.674-47.736-4.2-5.287-9.13-21.151-9.362-26.7s-1.5-16.528-1.5-16.528Z" transform="translate(-1826.743 -539.668)" fill="#35488b"/><path d="M2541,697.968l.178,2.721a5.863,5.863,0,0,0,3.233,7.312s2.152.868,2.239-.807-.187-1.045-.013-3.4-.753-4.589-2.313-5.34l-1.281-1.477Z" transform="translate(-1954.605 -536.157)" fill="#ffa88f"/><path d="M2444.994,530.575c-1.868.6-2.167.464-2.167.464s-9.091-16.551-10.011-18.067-19.3-18.56-19.3-18.56l4.724-17.615s20.906,27.073,23.163,30.957c3.731,6.419,5.917,21.328,5.917,21.328a5.464,5.464,0,0,1-2.323,1.492" transform="translate(-1856.639 -366.784)" fill="#6bb7bf"/><path d="M2340.609,488.2c.066,3.617.275,7.684.559,11.814q.026.367.052.735c.182,2.559.379,5.123.6,7.624.091,1,.187,1.994.288,2.968l.015.131c.008.364.051.76.092,1.12.922,9.367,1.888,16.768,2.067,16.881a1.05,1.05,0,0,0,.719.183c2.457-.309,9.785.249,15.787-1.057a45.5,45.5,0,0,0,14.043-5.823c.613-.363,2.011-1.323,1.9-2.04-.113-.789-.318-1.928-.58-3.361a181.72,181.72,0,0,1-3.018-23.584q-.157-2.8-.453-5.528a84.028,84.028,0,0,0-2.447-13.2c-2.058-7.408-5.081-13.081-8.874-15.3-.5-.278-3.162,1.419-5.611,2.991a10.814,10.814,0,0,1-6.959,1.649l-2.038,2.254a22.761,22.761,0,0,0-5.813,12.119q-.082.6-.139,1.28a79.549,79.549,0,0,0-.191,8.147" transform="translate(-1800.539 -353.652)" fill="#82a9d5"/><path d="M2340.609,542.086c.066,3.617.275,7.684.559,11.814q.026.367.052.735c14.032-8.783,16.193-24.855,16.193-24.855a38.384,38.384,0,0,0-16.613,4.159,79.547,79.547,0,0,0-.191,8.147" transform="translate(-1800.539 -407.542)" fill="#59a7af"/><path d="M2186.982,517.138c-.145-2.081.933-2.428.933-2.428s21.157-3.834,22.955-4.4,17.177-16.563,17.177-16.563,5.894-6.648,10.721-5.18c4.194,1.276,5.833,4.547,6.391,7.664a9.181,9.181,0,0,1-4.263,9.424c-7.219,4.428-21.674,13.153-25.077,14.151-7.577,2.221-27.933.178-27.933.178a6.575,6.575,0,0,1-.9-2.847" transform="translate(-1682.365 -375.676)" fill="#6bb7bf"/><path d="M424.066,758.387l1.728,1.4s4.728-1.7,5.794,3.922c0,0,.284,2.394-1.233,2.4a30.277,30.277,0,0,0-3.038-.2c-2.147.063-3.927-1.069-4.242-2.812l-1.027-1.476Z" transform="translate(-324.668 -583.402)" fill="#ea7f61"/><path d="M258.63,650.9a3.533,3.533,0,0,0,1.268-2.5s-15.965-13.07-17.584-14.135a196.937,196.937,0,0,1-18.357-17.5c-2.726-3.152-6.1-1.929-9.967-.82l-3.182.913c-3.842,1.1-4.841,6.475-1.689,9.087,8.878,7.353,23.646,15.624,26.409,17.363,6.86,4.315,20.287,9.442,20.287,9.442a8.511,8.511,0,0,0,2.813-1.841" transform="translate(-159.428 -472.905)" fill="#266470"/><path d="M491.905,1119.483a12.036,12.036,0,0,0,9.811,1.369s4.787-1.091,5.836,1.3c0,0-7.341,3.729-9.2,4.749a22.255,22.255,0,0,0-3.894,2.92,1.925,1.925,0,0,1-2.788-.215c-.323-.4-.693-.87-1.1-1.419-1.132-1.534-3.769-6.488-3.769-6.488Z" transform="translate(-374.484 -861.182)" fill="#2a5762"/><path d="M319.609,882.294s-2.359,5.44-7.8,4.44c0,0-11.113-9.177-18.735-18.71a42.367,42.367,0,0,1-5.822-9.1c-5.055-11.7-18.7-29.158-27.372-38l21.7-7.851s6.952,13.983,16.2,31.16c6.665,12.376,14.522,26.409,21.831,38.065" transform="translate(-199.914 -625.468)" fill="url(#o)"/><path d="M297.778,844.23l-4.709,23.794a42.353,42.353,0,0,1-5.822-9.1c-5.055-11.7-18.7-29.158-27.372-38l21.7-7.851s6.952,13.983,16.2,31.16" transform="translate(-199.914 -625.468)" fill="#371c47"/><path d="M321.234,1125.232s-.237,4.341,5.026,4.92c0,0,3.007.016,3.016,2.779l-15.294.048a11.9,11.9,0,0,1-.552-3.5c-.083-1.833,1.777-6.625,1.777-6.625Z" transform="translate(-241.109 -863.774)" fill="#2a5762"/><path d="M252.794,809.859s9.668,10.624,15.805,29.763c3.339,10.413-6.12,36.595-7.964,45.692,0,0-6.346.538-10.684-1.139,0,0-.33-18.788,2.208-33.269,1.42-8.1-12.729-17.333-18.912-31.976-4.206-9.962.911-9.793,7.2-10.033Z" transform="translate(-178.248 -622.257)" fill="url(#o)"/><path d="M220.063,563.943c-5.379,3.037-16.391.236-16.391.236s4.472-5.112,2.44-13.346l4.224,2.145,4.536,2.3a37.641,37.641,0,0,1,.5,4.066c.052.673.1,1.424.131,2.245a14.11,14.11,0,0,1,4.563,2.351" transform="translate(-156.678 -423.737)" fill="#ffa68d"/><path d="M226.275,645.906c0,.945-1.089,1.4-1.32,1.444-2.17.4-8.227,2.753-13.684,3.293a43.762,43.762,0,0,1-13.548-.917c-.62-.125-2.078-.517-2.181-1.112-.129-.649-18.079-36.591-4.125-52.03.328-.362,3.082.29,5.6.888a10.339,10.339,0,0,0,6.365-.52l2.362,1.243c2.9,1.617,8.39,7.36,9.032,11.866.326,2.292,1.637,3.989,2.016,6q.211,1.119.431,2.184.429,2.089.884,3.977c.82,3.408,1.687,6.342,2.537,8.877.905,2.691,1.793,4.93,2.587,6.8,1.029,2.428,1.9,4.243,2.441,5.632a6.948,6.948,0,0,1,.6,2.368" transform="translate(-143.167 -458.853)" fill="#6b6bbf"/><path d="M243.851,684.207a70.521,70.521,0,0,1-34.112-34.859s20.586,7.594,25.663,9.571q.429,2.089.884,3.977c.82,3.408,1.687,6.342,2.537,8.877.905,2.691,1.793,4.93,2.587,6.8,1.029,2.428,1.9,4.243,2.441,5.632" transform="translate(-161.346 -499.522)" fill="#5757ac"/><path d="M225.264,566.5c-5.29.3-8.73-4.07-8.73-4.07a42.06,42.06,0,0,0,3.7-2.3l4.536,2.3a37.633,37.633,0,0,1,.5,4.066" transform="translate(-166.573 -430.888)" fill="#ea7f61"/><path d="M210.956,519.211s-8.015,5.752-11.52.705-6.9-7.7-1.931-11.588,7.311-2.658,8.891-1.258,6.554,10.515,4.56,12.141" transform="translate(-150.012 -389.03)" fill="#ffa68d"/><path d="M183.132,480.81a12.905,12.905,0,0,0-.934-3.3s-.5,2.084-4.311,1.8-9.843.374-11.854,4.713c-.128.276-.242.561-.344.851a10.042,10.042,0,0,1-.452-2.4,7.407,7.407,0,0,0,0,4.2h0c-.011.068-.02.137-.03.2a8.479,8.479,0,0,0-1.546,2.919,2.645,2.645,0,0,1,1.423-1.265c-.017,3.376,1.352,6.677,3.755,7.659,3.514,1.437,3.486.341,7.02,2.685,0,0,.948-1.176.3-1.967s-3.089-1.94-1.724-3.089,1.868.144,2.371-.646-2.011-3.089,1.221-5.244,5.388-5.173,5.1-7.112" transform="translate(-125.901 -367.328)" fill="#2a5762"/><path d="M274.1,496a39.079,39.079,0,1,1,47.585,28.108A39.079,39.079,0,0,1,274.1,496" transform="translate(-209.9 -343.998)" fill="url(#f)"/><path d="M332.881,534.25a35.605,35.605,0,1,1,21.784-16.374,35.373,35.373,0,0,1-21.784,16.374m-17.217-66.907a33.481,33.481,0,1,0,40.769,24.081,33.519,33.519,0,0,0-40.769-24.081" transform="translate(-221.847 -357.053)" fill="#007c3d"/><path d="M423.581,773.241s4.289,1.446,6.759,1.386,6.767-2.659,6.775-2.842-1.931-1.3-4.745-.947-3.387-.067-2.512-.416c.984-.393,1.686-.982,1.446-1.357-.132-.207-1.546.241-2.028.4s-1.687-.281-2.691.443a11.888,11.888,0,0,1-3.173.842Z" transform="translate(-325.717 -591.574)" fill="#ffbdaa"/><path d="M248.37,658.733c.756-2.132,1.1-3.1,1.1-3.1s-16.879-13.063-18.594-14.177c-1.168-.759-12.816-9.016-18.558-15.534a11.667,11.667,0,0,0-11.439-3.643l-3.454.816a5.165,5.165,0,0,0-2.076,9.031c9.357,7.621,25.035,16.337,27.963,18.159C230.583,654.809,246.565,661,246.565,661a4.072,4.072,0,0,0,1.806-2.265" transform="translate(-148.811 -478.459)" fill="#6b6bbf"/><path d="M1405.47,659.649a21.819,21.819,0,0,1-7.588,8.107H1380.3s27.736-12.569,25.173-8.107" transform="translate(-1061.818 -506.709)" fill="#361548"/><path d="M1429.464,810.353a1.624,1.624,0,0,0-.29,1.738.012.012,0,0,0,0,.009c.42,1.159,1.8,2.453,3.415,3.746.205.166.388.317.548.457.041.037.083.073.123.11s.064.058.095.085c1.5,1.383.936,1.7,3.632,4.508,3.075,3.2,5.192,3.256,5.793,2.965.51-.248-.526-1.945-1.672-3.852-.055-.092-.11-.185-.167-.278-.153-.254-.3-.511-.456-.766-1.344-2.3-1-3.372-.68-6.788.259-2.776,4.318-15.507,4.318-15.507l-5.892-1.015s-1.775,10.138-3.729,11.7c-1.046.832-2.216.843-3.221,1.46-.071.043-.141.087-.209.132a7.722,7.722,0,0,0-1.612,1.3" transform="translate(-1099.319 -612.157)" fill="#ffa88f"/><path d="M1429.464,854.224a1.624,1.624,0,0,0-.29,1.738.012.012,0,0,0,0,.009,12.517,12.517,0,0,0,3.42,3.734c.2.169.383.324.543.469.041.037.083.073.123.11s.064.058.095.085c1.5,1.384.936,1.7,3.632,4.508,3.075,3.2,5.192,3.257,5.793,2.965.51-.248-.526-1.945-1.672-3.852a13.107,13.107,0,0,1-5.481-4.039c-1.851-2.363-3.086-5.4-4.347-7.156-.071.043-.141.087-.209.132a7.727,7.727,0,0,0-1.612,1.3" transform="translate(-1099.319 -656.028)" fill="#2a5762"/><path d="M1621.062,800.695c.364,1.819,2.956,1.516,5.853.808s2.208.134,6.33-.323,5.371-1.994,5.5-2.606c.112-.544-1.924-.736-4.109-.988-.274-.031-.55-.065-.827-.1-2.467-.31-4.273-1.9-6.513-3.209C1625.17,793.041,1622,788,1622,788l-5.653.448s2.967,4.506,4.114,6.465a6.828,6.828,0,0,1,.555,3.853,7.253,7.253,0,0,0,.043,1.933" transform="translate(-1243.406 -606.179)" fill="#ffa88f"/><path d="M1642.338,833.477c2.9-.708,2.208.134,6.331-.323s5.371-1.993,5.5-2.606c.113-.544-1.924-.736-4.109-.988l-.02.042a11.622,11.622,0,0,1-5.9,1.835c-2.8.068-5.759-.733-7.69-.7a7.264,7.264,0,0,0,.043,1.934c.364,1.819,2.956,1.516,5.853.808" transform="translate(-1258.829 -638.153)" fill="#2a5762"/><path d="M1478.214,656.151l-5.285,14.221-6.9,18.568a11.177,11.177,0,0,1-3.665-.335,15.91,15.91,0,0,1-3.545-1.725s1.916-19.937,5.49-31.382a20.389,20.389,0,0,1,3.075-6.651c5.54-6.548,10.83,7.3,10.83,7.3" transform="translate(-1122.223 -497.784)" fill="url(#s)"/><path d="M1333.685,272.7a8.489,8.489,0,0,0-4.514-1.233,2.149,2.149,0,0,1,1-.384,7.122,7.122,0,0,0-2.586.464c-10.582-5.052-13.546,10.877-13.607,14.626s-.369,8.046-6.075,10.969c-11.227,5.751-3.081,17.95-3.081,17.95.08.056,4.334,8.75,4.334,8.75-.041-3.037,15.111-17.868,22.741-22.069,1.969-2.464,2.955-7.011,3.03-7.369a19.894,19.894,0,0,1-2.018,6.723c6.587-5.179,4.595-25.845.772-28.429" transform="translate(-1001.563 -208.14)" fill="url(#o)"/><path d="M1383.075,363.916c.033.022-3.754,1.315-6.287.193-2.383-1.053-4.188-4.973-4.152-4.975,1.084-.05,2.273-1,3.19-7.215l.462.166,7.76,2.792s-.562,2.49-.926,4.861c-.306,1.99-.471,3.9-.047,4.179" transform="translate(-1055.925 -270.719)" fill="#ffa88f"/><path d="M1396.224,355.428s-.562,2.49-.926,4.86c-4.457-.8-6.206-5.243-6.833-7.653Z" transform="translate(-1068.101 -271.271)" fill="#ed8a6e"/><path d="M1370.31,288.81a23.793,23.793,0,0,1-2.942-6.954c-.406-2.288.759-10.77,9.283-9.549a11.581,11.581,0,0,1,4.8,1.815c1.85,1.25,4.521,3.948,1.535,11.35l-.776,2.5Z" transform="translate(-1051.82 -209.385)" fill="url(#o)"/><path d="M1394.787,313.185s-10.617-1.425-9.628-8.023.285-11.226,7.106-10.595,7.757,3.346,7.962,5.628-2.653,13.19-5.44,12.989" transform="translate(-1065.508 -226.556)" fill="#ffa88f"/><path d="M1386.958,291.215s-4.069,7.3-8.691,7.774-6.373-1.012-6.373-1.012a12.745,12.745,0,0,0,5.246-6.822s8.188-3.954,9.818.06" transform="translate(-1055.354 -222.637)" fill="url(#o)"/><path d="M1433.657,296.141a9.463,9.463,0,0,1,2.178,3.815c.274,1.76-.011,5.254,1.015,5.288,0,0,2.979-4.931.973-8.277-2.127-3.549-4.167-.826-4.167-.826" transform="translate(-1102.867 -227.043)" fill="url(#o)"/><path d="M1297.65,439.228c.578,1.6,2.349,2.017,4.724,1.738,4.527-.529,11.252-3.569,16.1-5.671,7.389-3.2,10.747-.193,13.1-2.232s-2.687-6.571,1.679-27.616c1.481-7.137-7.99-22.488-7.99-22.488s-.723,4.48-9.7-.848c-.317-.188-3.85,5.044-7.254,11.494-3.751,7.116-7.345,15.712-6.289,20.142,2.015,8.445-6.045,20.821-4.366,25.48" transform="translate(-998.062 -293.941)" fill="#5595e9"/><path d="M1297.65,505.1c.578,1.6,2.349,2.017,4.724,1.738,3.134-1.365,16.67-6.609,16.518-10.163-.225-5.261-2.6-5.429-.923-11.923,1.349-5.214-11.159-14.908-13.154-17.016-3.751,7.116-3.855,7.453-2.8,11.883,2.015,8.445-6.045,20.821-4.366,25.48" transform="translate(-998.062 -359.817)" fill="#377ad2"/><path d="M1418.082,385.8s9.235,1.566,10.32,5.542,7.467,27.352,7.467,27.352-4.7.844-6.864-1.325-7.547-20.123-7.547-20.123Z" transform="translate(-1090.885 -296.786)" fill="#5595e9"/><path d="M1305.824,382.128s-8.729.538-11.751,4.753c-4.254,5.933-12.693,31.219-7.856,34.592,5.446,3.8,24.789.993,24.789.993s.644-3.008-.252-4.464-15.449-3.806-16.12-4.478,8.4-13.1,8.4-15.113,2.8-16.283,2.8-16.283" transform="translate(-988.328 -293.958)" fill="#5595e9"/><path d="M1377.6,514.342h37.279l6.72-23.436h-37.221Z" transform="translate(-1059.747 -377.638)" fill="url(#x)"/><rect width="48.736" height="0.913" transform="translate(306.273 135.792)" fill="url(#d)"/><path d="M1477.719,535.071a1.085,1.085,0,0,0-1.064-1.492,2.138,2.138,0,0,0-1.92,1.492,1.086,1.086,0,0,0,1.064,1.492,2.137,2.137,0,0,0,1.919-1.492" transform="translate(-1134.42 -410.464)" fill="url(#d)"/><path d="M1024.189,948.765l-17.349,19.73.631-9.011,3.7-10.719Z" transform="translate(-774.53 -729.853)" fill="#db542d"/><path d="M652.416,702.76l28.369,48.835a4.545,4.545,0,0,1-1.642,6.195l-85.669,49.766a4.546,4.546,0,0,1-6.195-1.642L558.91,757.079a4.546,4.546,0,0,1,1.642-6.195l85.669-49.767a4.546,4.546,0,0,1,6.195,1.642" transform="translate(-429.483 -538.878)" fill="url(#f)"/><path d="M713.616,1037.019l-22.832,13.263a2.037,2.037,0,0,1-2.777-.736l-.128-.219a2.037,2.037,0,0,1,.736-2.777l22.833-13.264a2.036,2.036,0,0,1,2.777.736l.127.219a2.038,2.038,0,0,1-.736,2.777" transform="translate(-528.953 -794.663)" fill="#bff3fb"/><path d="M844.021,961.264l-22.833,13.264a2.038,2.038,0,0,1-2.777-.736l-.127-.219a2.037,2.037,0,0,1,.736-2.777l22.833-13.264a2.037,2.037,0,0,1,2.777.736l.127.219a2.037,2.037,0,0,1-.736,2.776" transform="translate(-629.27 -736.387)" fill="#bff3fb"/><path d="M637.968,995.418a4.916,4.916,0,0,1,.753,2.3,2.226,2.226,0,0,1-3.383,1.965,5.847,5.847,0,0,1-2.381-4.079,2.241,2.241,0,0,1,3.4-1.975,4.936,4.936,0,0,1,1.611,1.79m-1.05.6a4.873,4.873,0,0,0-.941-1.212,1.046,1.046,0,0,0-1.8,1.035,4.7,4.7,0,0,0,.584,1.432q1.238,2.131,2.325,1.5a1.108,1.108,0,0,0,.425-1.327,4.853,4.853,0,0,0-.592-1.427" transform="translate(-486.913 -764.096)" fill="#bff3fb"/><path d="M658.286,983.615a4.914,4.914,0,0,1,.754,2.3,2.225,2.225,0,0,1-3.383,1.965,5.842,5.842,0,0,1-2.381-4.079,2.242,2.242,0,0,1,3.4-1.975,4.935,4.935,0,0,1,1.611,1.79m-1.049.6a4.873,4.873,0,0,0-.942-1.212,1.046,1.046,0,0,0-1.8,1.035,4.707,4.707,0,0,0,.584,1.432q1.238,2.131,2.325,1.5a1.108,1.108,0,0,0,.425-1.326,4.857,4.857,0,0,0-.591-1.427" transform="translate(-502.543 -755.017)" fill="#bff3fb"/><path d="M678.6,971.811a4.91,4.91,0,0,1,.754,2.3,2.226,2.226,0,0,1-3.383,1.965A5.845,5.845,0,0,1,673.594,972a2.242,2.242,0,0,1,3.4-1.975,4.934,4.934,0,0,1,1.611,1.79m-1.049.6a4.875,4.875,0,0,0-.941-1.213,1.047,1.047,0,0,0-1.8,1.035,4.711,4.711,0,0,0,.584,1.431q1.238,2.131,2.325,1.5a1.108,1.108,0,0,0,.425-1.326,4.854,4.854,0,0,0-.591-1.427" transform="translate(-518.174 -745.936)" fill="#bff3fb"/><path d="M698.924,960.009a4.914,4.914,0,0,1,.754,2.3,2.226,2.226,0,0,1-3.383,1.965,5.847,5.847,0,0,1-2.381-4.079,2.241,2.241,0,0,1,3.4-1.975,4.929,4.929,0,0,1,1.611,1.79m-1.05.6a4.862,4.862,0,0,0-.942-1.212,1.046,1.046,0,0,0-1.8,1.035,4.7,4.7,0,0,0,.584,1.431q1.238,2.131,2.325,1.5a1.108,1.108,0,0,0,.425-1.327,4.855,4.855,0,0,0-.592-1.427" transform="translate(-533.804 -736.858)" fill="#bff3fb"/><path d="M729.715,942.121a4.914,4.914,0,0,1,.754,2.3,2.226,2.226,0,0,1-3.383,1.965,5.846,5.846,0,0,1-2.381-4.079,2.241,2.241,0,0,1,3.4-1.975,4.929,4.929,0,0,1,1.611,1.79m-1.05.6a4.866,4.866,0,0,0-.941-1.213,1.046,1.046,0,0,0-1.8,1.035,4.7,4.7,0,0,0,.584,1.431q1.238,2.131,2.325,1.5a1.108,1.108,0,0,0,.425-1.326,4.847,4.847,0,0,0-.592-1.427" transform="translate(-557.492 -723.097)" fill="#bff3fb"/><path d="M750.033,930.317a4.915,4.915,0,0,1,.754,2.3,2.225,2.225,0,0,1-3.383,1.965,5.844,5.844,0,0,1-2.381-4.079,2.241,2.241,0,0,1,3.4-1.975,4.931,4.931,0,0,1,1.611,1.79m-1.05.6a4.856,4.856,0,0,0-.941-1.213,1.046,1.046,0,0,0-1.8,1.035,4.709,4.709,0,0,0,.584,1.432q1.238,2.131,2.325,1.5a1.108,1.108,0,0,0,.425-1.326,4.851,4.851,0,0,0-.592-1.427" transform="translate(-573.122 -714.016)" fill="#bff3fb"/><path d="M770.353,918.514a4.915,4.915,0,0,1,.753,2.3,2.225,2.225,0,0,1-3.383,1.965,5.844,5.844,0,0,1-2.381-4.079,2.241,2.241,0,0,1,3.4-1.975,4.936,4.936,0,0,1,1.611,1.79m-1.05.6a4.871,4.871,0,0,0-.942-1.212,1.046,1.046,0,0,0-1.8,1.035,4.71,4.71,0,0,0,.584,1.431q1.238,2.131,2.325,1.5a1.108,1.108,0,0,0,.425-1.326,4.858,4.858,0,0,0-.591-1.427" transform="translate(-588.752 -704.937)" fill="#bff3fb"/><path d="M790.672,906.711a4.917,4.917,0,0,1,.754,2.3,2.225,2.225,0,0,1-3.383,1.965,5.845,5.845,0,0,1-2.381-4.079,2.241,2.241,0,0,1,3.4-1.975,4.932,4.932,0,0,1,1.611,1.79m-1.05.6a4.868,4.868,0,0,0-.941-1.213,1.047,1.047,0,0,0-1.8,1.035,4.711,4.711,0,0,0,.584,1.431q1.238,2.131,2.325,1.5a1.108,1.108,0,0,0,.425-1.327,4.858,4.858,0,0,0-.592-1.427" transform="translate(-604.383 -695.857)" fill="#bff3fb"/><path d="M821.464,888.823a4.917,4.917,0,0,1,.753,2.3,2.225,2.225,0,0,1-3.383,1.965,5.843,5.843,0,0,1-2.381-4.079,2.241,2.241,0,0,1,3.4-1.975,4.936,4.936,0,0,1,1.611,1.79m-1.05.6a4.874,4.874,0,0,0-.941-1.213,1.047,1.047,0,0,0-1.8,1.036,4.71,4.71,0,0,0,.584,1.431q1.238,2.131,2.325,1.5a1.108,1.108,0,0,0,.425-1.326,4.847,4.847,0,0,0-.592-1.427" transform="translate(-628.071 -682.096)" fill="#bff3fb"/><path d="M841.782,877.019a4.916,4.916,0,0,1,.754,2.3,2.225,2.225,0,0,1-3.383,1.965,5.844,5.844,0,0,1-2.38-4.08,2.241,2.241,0,0,1,3.4-1.975,4.933,4.933,0,0,1,1.611,1.79m-1.049.6a4.865,4.865,0,0,0-.942-1.213,1.046,1.046,0,0,0-1.8,1.035,4.713,4.713,0,0,0,.584,1.431q1.237,2.131,2.325,1.5a1.108,1.108,0,0,0,.425-1.326,4.86,4.86,0,0,0-.591-1.427" transform="translate(-643.701 -673.016)" fill="#bff3fb"/><path d="M862.1,865.217a4.913,4.913,0,0,1,.754,2.3,2.226,2.226,0,0,1-3.383,1.966,5.846,5.846,0,0,1-2.381-4.079,2.241,2.241,0,0,1,3.4-1.975,4.934,4.934,0,0,1,1.611,1.79m-1.05.6a4.872,4.872,0,0,0-.941-1.212,1.046,1.046,0,0,0-1.8,1.035,4.7,4.7,0,0,0,.583,1.431q1.238,2.131,2.325,1.5a1.108,1.108,0,0,0,.425-1.327,4.849,4.849,0,0,0-.592-1.427" transform="translate(-659.331 -663.937)" fill="#bff3fb"/><path d="M882.419,853.413a4.915,4.915,0,0,1,.753,2.3,2.225,2.225,0,0,1-3.383,1.965,5.844,5.844,0,0,1-2.38-4.079,2.241,2.241,0,0,1,3.4-1.975,4.934,4.934,0,0,1,1.611,1.79m-1.05.6a4.855,4.855,0,0,0-.941-1.213,1.046,1.046,0,0,0-1.8,1.035,4.712,4.712,0,0,0,.584,1.432q1.238,2.131,2.325,1.5a1.108,1.108,0,0,0,.425-1.326,4.851,4.851,0,0,0-.592-1.427" transform="translate(-674.961 -654.857)" fill="#bff3fb"/><path d="M913.211,835.525a4.917,4.917,0,0,1,.754,2.3,2.225,2.225,0,0,1-3.383,1.965,5.844,5.844,0,0,1-2.381-4.079,2.242,2.242,0,0,1,3.4-1.975,4.933,4.933,0,0,1,1.611,1.79m-1.05.6a4.865,4.865,0,0,0-.941-1.213,1.047,1.047,0,0,0-1.8,1.035,4.711,4.711,0,0,0,.584,1.432q1.238,2.131,2.325,1.5a1.108,1.108,0,0,0,.425-1.326,4.851,4.851,0,0,0-.592-1.427" transform="translate(-698.648 -641.096)" fill="#bff3fb"/><path d="M933.53,823.722a4.919,4.919,0,0,1,.753,2.3,2.225,2.225,0,0,1-3.383,1.965,5.843,5.843,0,0,1-2.381-4.079,2.241,2.241,0,0,1,3.4-1.975,4.939,4.939,0,0,1,1.611,1.79m-1.05.6a4.859,4.859,0,0,0-.942-1.212,1.046,1.046,0,0,0-1.8,1.035,4.711,4.711,0,0,0,.584,1.432q1.238,2.13,2.325,1.5a1.108,1.108,0,0,0,.425-1.326,4.85,4.85,0,0,0-.591-1.427" transform="translate(-714.279 -632.017)" fill="#bff3fb"/><path d="M953.848,811.919a4.912,4.912,0,0,1,.754,2.3,2.225,2.225,0,0,1-3.383,1.965,5.844,5.844,0,0,1-2.38-4.079,2.242,2.242,0,0,1,3.4-1.975,4.934,4.934,0,0,1,1.611,1.79m-1.049.6a4.871,4.871,0,0,0-.942-1.212,1.046,1.046,0,0,0-1.8,1.035,4.7,4.7,0,0,0,.584,1.431q1.237,2.13,2.325,1.5a1.108,1.108,0,0,0,.425-1.326,4.86,4.86,0,0,0-.591-1.427" transform="translate(-729.91 -622.937)" fill="#bff3fb"/><path d="M974.167,800.115a4.917,4.917,0,0,1,.754,2.3,2.225,2.225,0,0,1-3.383,1.965,5.844,5.844,0,0,1-2.381-4.079,2.241,2.241,0,0,1,3.4-1.975,4.934,4.934,0,0,1,1.611,1.79m-1.05.6a4.875,4.875,0,0,0-.941-1.212,1.047,1.047,0,0,0-1.8,1.035,4.71,4.71,0,0,0,.584,1.431q1.238,2.131,2.325,1.5a1.108,1.108,0,0,0,.425-1.326,4.854,4.854,0,0,0-.592-1.427" transform="translate(-745.54 -613.856)" fill="#bff3fb"/><path d="M616.61,872.1l-22.345,12.98a2.031,2.031,0,0,1-2.041-3.513l22.345-12.98a2.031,2.031,0,0,1,2.041,3.513" transform="translate(-454.803 -667.964)" fill="#bff3fb"/><path d="M933.835,762.74a3.109,3.109,0,0,0-1.573-1.343.333.333,0,0,0-.443.228l-.043.167a.329.329,0,0,0,.2.389,2.282,2.282,0,0,1,1.424,2.452.33.33,0,0,0,.241.364l.167.046a.333.333,0,0,0,.417-.271,3.11,3.11,0,0,0-.387-2.032" transform="translate(-716.778 -585.7)" fill="#bff3fb"/><path d="M936.73,756.47a4.77,4.77,0,0,0-2.626-2.135.331.331,0,0,0-.422.235l-.024.095a.333.333,0,0,0,.219.4,4.025,4.025,0,0,1,2.663,4.585.333.333,0,0,0,.237.388l.094.026a.331.331,0,0,0,.413-.25,4.771,4.771,0,0,0-.554-3.339" transform="translate(-718.226 -580.272)" fill="#bff3fb"/><path d="M939.292,750.984a6.239,6.239,0,0,0-3.533-2.825.332.332,0,0,0-.2.633,5.587,5.587,0,0,1,3.786,6.518.332.332,0,0,0,.649.142,6.242,6.242,0,0,0-.7-4.468" transform="translate(-719.519 -575.523)" fill="#bff3fb"/><path d="M941.838,745.054a7.821,7.821,0,0,0-4.514-3.567.333.333,0,0,0-.419.236l-.042.164a.331.331,0,0,0,.224.4,7.009,7.009,0,0,1,4.8,8.266.331.331,0,0,0,.235.392l.163.045a.334.334,0,0,0,.413-.248,7.821,7.821,0,0,0-.862-5.688" transform="translate(-720.691 -570.39)" fill="#bff3fb"/><path d="M704.748,1121.15a2.373,2.373,0,0,1,.363,1.109,1.073,1.073,0,0,1-1.632.948,2.816,2.816,0,0,1-1.148-1.967,1.081,1.081,0,0,1,1.64-.952,2.384,2.384,0,0,1,.777.863m-.506.292a2.351,2.351,0,0,0-.454-.585.5.5,0,0,0-.868.5,2.266,2.266,0,0,0,.281.69q.6,1.028,1.121.723a.534.534,0,0,0,.205-.64,2.343,2.343,0,0,0-.285-.688" transform="translate(-540.28 -861.671)" fill="#bff3fb"/><path d="M714.548,1115.457a2.367,2.367,0,0,1,.363,1.109,1.073,1.073,0,0,1-1.632.947,2.358,2.358,0,0,1-.783-.865,2.383,2.383,0,0,1-.365-1.1,1.081,1.081,0,0,1,1.64-.952,2.378,2.378,0,0,1,.777.863m-.506.292a2.352,2.352,0,0,0-.454-.585.5.5,0,0,0-.869.5,2.273,2.273,0,0,0,.281.69q.6,1.028,1.122.723a.535.535,0,0,0,.205-.64,2.342,2.342,0,0,0-.285-.688" transform="translate(-547.819 -857.291)" fill="#bff3fb"/><path d="M725.3,1108.7a.358.358,0,0,1,.037.159l.237,3.122a.3.3,0,0,1-.121.309.233.233,0,0,1-.18.027.222.222,0,0,1-.143-.109.356.356,0,0,1-.046-.16l-.228-3.121a.294.294,0,0,1,.12-.3.25.25,0,0,1,.181-.033.211.211,0,0,1,.144.109" transform="translate(-557.608 -852.798)" fill="#bff3fb"/><path d="M731.05,1105.871a2.374,2.374,0,0,1,.364,1.109,1.074,1.074,0,0,1-1.632.948,2.818,2.818,0,0,1-1.148-1.968,1.081,1.081,0,0,1,1.639-.952,2.382,2.382,0,0,1,.777.863m-.506.292a2.358,2.358,0,0,0-.454-.585.5.5,0,0,0-.869.5,2.271,2.271,0,0,0,.281.69q.6,1.028,1.121.723a.534.534,0,0,0,.205-.64,2.338,2.338,0,0,0-.285-.688" transform="translate(-560.514 -849.916)" fill="#bff3fb"/><path d="M740.85,1100.178a2.372,2.372,0,0,1,.363,1.109,1.074,1.074,0,0,1-1.632.948,2.819,2.819,0,0,1-1.148-1.967,1.081,1.081,0,0,1,1.639-.953,2.385,2.385,0,0,1,.777.864m-.506.292a2.343,2.343,0,0,0-.454-.585.5.5,0,0,0-.869.5,2.263,2.263,0,0,0,.282.691q.6,1.028,1.121.723a.534.534,0,0,0,.205-.64,2.349,2.349,0,0,0-.285-.688" transform="translate(-568.053 -845.537)" fill="#bff3fb"/><path d="M750.65,1094.484a2.376,2.376,0,0,1,.364,1.109,1.073,1.073,0,0,1-1.632.948,2.821,2.821,0,0,1-1.148-1.967,1.081,1.081,0,0,1,1.64-.952,2.378,2.378,0,0,1,.777.863m-.506.292a2.345,2.345,0,0,0-.454-.585.5.5,0,0,0-.868.5,2.263,2.263,0,0,0,.281.69q.6,1.028,1.121.723a.535.535,0,0,0,.205-.64,2.357,2.357,0,0,0-.286-.688" transform="translate(-575.591 -841.157)" fill="#bff3fb"/><path d="M760.449,1088.792a2.364,2.364,0,0,1,.363,1.109,1.073,1.073,0,0,1-1.632.948,2.822,2.822,0,0,1-1.148-1.967,1.081,1.081,0,0,1,1.64-.953,2.38,2.38,0,0,1,.777.863m-.506.291a2.35,2.35,0,0,0-.454-.585.5.5,0,0,0-.869.5,2.272,2.272,0,0,0,.281.691q.6,1.028,1.122.723a.535.535,0,0,0,.205-.64,2.356,2.356,0,0,0-.285-.688" transform="translate(-583.13 -836.778)" fill="#bff3fb"/><path d="M0,0V5.011H10.163c4.438,0,7.69,2.259,8.7,5.991H0v5H18.874a8.438,8.438,0,0,1-7.952,6.259H0v5H7.4L19.68,45.185h6.571L13.277,26.759A12.29,12.29,0,0,0,24.834,16h6.533V11H24.715A11.232,11.232,0,0,0,21.464,5h9.9V0Z" transform="translate(83.327 125.042) rotate(-7)" fill="#007c3d"/><path d="M0,0V5.021H10.184c4.447,0,7.706,2.263,8.716,6H0v5.009H18.913a8.455,8.455,0,0,1-7.968,6.272H0v5.009H7.417l12.3,17.963H26.3l-13-18.464a12.315,12.315,0,0,0,11.58-10.781h6.546V11.025H24.766a11.255,11.255,0,0,0-3.258-6.018h9.923V0Z" transform="translate(421.079 206.53) rotate(9)" fill="#007c3d"/><g transform="translate(342.135 207.72)" opacity="0.2"><rect width="0.791" height="7.736" transform="translate(66.867 54.301)" fill="#049d4f"/><rect width="0.791" height="7.736" transform="translate(64.19 54.301)" fill="#049d4f"/><rect width="0.791" height="7.736" transform="translate(60.979 54.301)" fill="#049d4f"/><rect width="0.791" height="7.736" transform="translate(56.059 54.301)" fill="#049d4f"/><rect width="0.791" height="7.736" transform="translate(50.854 54.301)" fill="#049d4f"/><rect width="0.791" height="7.736" transform="translate(42.877 54.301)" fill="#049d4f"/><rect width="0.791" height="7.736" transform="translate(69.416 54.301)" fill="#049d4f"/><rect width="0.791" height="7.736" transform="translate(71.1 54.301)" fill="#049d4f"/><rect width="0.791" height="7.736" transform="translate(72.725 54.301)" fill="#049d4f"/><path d="M1824.51,1128.529v7.736H1825a1.655,1.655,0,0,0,.3-.027v-7.682a1.612,1.612,0,0,0-.3-.027Z" transform="translate(-1750.562 -1074.229)" fill="#049d4f"/><path d="M1830.227,1129.12v7.509a1.7,1.7,0,0,0,.79-.63v-6.249a1.694,1.694,0,0,0-.79-.63" transform="translate(-1755.18 -1074.706)" fill="#049d4f"/><path d="M1474.124,1088.294h-32.7a1.6,1.6,0,0,0-1.5,1.6c0,.029,0,.058,0,.087v4.369c0,.029,0,.057,0,.086a1.6,1.6,0,0,0,1.5,1.6H1478.7a13.86,13.86,0,0,1-4.578-7.736" transform="translate(-1439.918 -1041.73)" fill="#049d4f"/><rect width="0.791" height="7.736" transform="translate(61.02 46.564)" fill="#049d4f"/><rect width="0.791" height="7.736" transform="translate(57.81 46.564)" fill="#049d4f"/><rect width="0.791" height="7.736" transform="translate(52.889 46.564)" fill="#049d4f"/><rect width="0.791" height="7.736" transform="translate(47.685 46.564)" fill="#049d4f"/><rect width="0.791" height="7.736" transform="translate(39.707 46.564)" fill="#049d4f"/><rect width="0.791" height="7.736" transform="translate(51.31 38.792)" fill="#049d4f"/><rect width="0.791" height="7.736" transform="translate(43.332 38.792)" fill="#049d4f"/><rect width="0.791" height="7.736" transform="translate(47.685 31.055)" fill="#049d4f"/><rect width="0.791" height="7.736" transform="translate(39.707 31.055)" fill="#049d4f"/><rect width="0.791" height="7.736" transform="translate(47.685 23.282)" fill="#049d4f"/><rect width="0.791" height="7.736" transform="translate(39.707 23.282)" fill="#049d4f"/><rect width="0.791" height="7.736" transform="translate(48.652 15.509)" fill="#049d4f"/><rect width="0.791" height="7.736" transform="translate(43.449 15.509)" fill="#049d4f"/><rect width="0.791" height="7.736" transform="translate(35.472 15.509)" fill="#049d4f"/><rect width="0.791" height="7.736" transform="translate(50.959 7.736)" fill="#049d4f"/><rect width="0.791" height="7.736" transform="translate(45.755 7.736)" fill="#049d4f"/><rect width="0.791" height="7.736" transform="translate(37.777 7.736)" fill="#049d4f"/><rect width="0.791" height="7.736" transform="translate(60.979)" fill="#049d4f"/><rect width="0.791" height="7.736" transform="translate(56.059)" fill="#049d4f"/><rect width="0.791" height="7.736" transform="translate(50.854)" fill="#049d4f"/><rect width="0.791" height="7.736" transform="translate(42.877)" fill="#049d4f"/></g><g transform="translate(380.354 145.406)" opacity="0.2"><rect width="0.791" height="7.736" transform="translate(28.226 38.829)" fill="#049d4f"/><rect width="0.791" height="7.736" transform="translate(25.548 38.829)" fill="#049d4f"/><rect width="0.791" height="7.736" transform="translate(22.338 38.829)" fill="#049d4f"/><rect width="0.791" height="7.736" transform="translate(17.417 38.829)" fill="#049d4f"/><rect width="0.791" height="7.736" transform="translate(12.213 38.829)" fill="#049d4f"/><rect width="0.791" height="7.736" transform="translate(30.773 38.829)" fill="#049d4f"/><rect width="0.791" height="7.736" transform="translate(32.457 38.829)" fill="#049d4f"/><rect width="0.791" height="7.736" transform="translate(34.083 38.829)" fill="#049d4f"/><path d="M1808.021,805.884v7.736h.494a1.63,1.63,0,0,0,.3-.027v-7.682a1.641,1.641,0,0,0-.3-.027Z" transform="translate(-1772.715 -767.056)" fill="#049d4f"/><path d="M1813.739,806.475v7.509a1.7,1.7,0,0,0,.79-.63v-6.249a1.7,1.7,0,0,0-.79-.63" transform="translate(-1777.334 -767.533)" fill="#049d4f"/><rect width="0.791" height="7.736" transform="translate(31.85 31.056)" fill="#049d4f"/><rect width="0.791" height="7.736" transform="translate(29.173 31.056)" fill="#049d4f"/><rect width="0.791" height="7.736" transform="translate(25.963 31.056)" fill="#049d4f"/><rect width="0.791" height="7.736" transform="translate(21.041 31.056)" fill="#049d4f"/><rect width="0.791" height="7.736" transform="translate(15.838 31.056)" fill="#049d4f"/><rect width="0.791" height="7.736" transform="translate(7.86 31.056)" fill="#049d4f"/><rect width="0.791" height="7.736" transform="translate(34.398 31.056)" fill="#049d4f"/><rect width="0.791" height="7.736" transform="translate(36.082 31.056)" fill="#049d4f"/><rect width="0.791" height="7.736" transform="translate(37.708 31.056)" fill="#049d4f"/><path d="M1826.874,765.459V773.2h.494a1.634,1.634,0,0,0,.3-.027v-7.682a1.634,1.634,0,0,0-.3-.027Z" transform="translate(-1787.943 -734.403)" fill="#049d4f"/><path d="M1832.59,766.05v7.509a1.694,1.694,0,0,0,.79-.63V766.68a1.7,1.7,0,0,0-.79-.63" transform="translate(-1792.561 -734.881)" fill="#049d4f"/><rect width="0.791" height="7.736" transform="translate(28.226 23.32)" fill="#049d4f"/><rect width="0.791" height="7.736" transform="translate(25.548 23.32)" fill="#049d4f"/><rect width="0.791" height="7.736" transform="translate(22.338 23.32)" fill="#049d4f"/><rect width="0.791" height="7.736" transform="translate(17.417 23.32)" fill="#049d4f"/><rect width="0.791" height="7.736" transform="translate(12.213 23.32)" fill="#049d4f"/><rect width="0.791" height="7.736" transform="translate(4.235 23.32)" fill="#049d4f"/><rect width="0.791" height="7.736" transform="translate(30.773 23.32)" fill="#049d4f"/><rect width="0.791" height="7.736" transform="translate(32.457 23.32)" fill="#049d4f"/><rect width="0.791" height="7.736" transform="translate(34.083 23.32)" fill="#049d4f"/><path d="M1808.021,725.225v7.736h.494a1.641,1.641,0,0,0,.3-.027v-7.682a1.641,1.641,0,0,0-.3-.027Z" transform="translate(-1772.715 -701.906)" fill="#049d4f"/><path d="M1813.739,725.815v7.509a1.7,1.7,0,0,0,.79-.63v-6.249a1.7,1.7,0,0,0-.79-.63" transform="translate(-1777.334 -702.382)" fill="#049d4f"/><rect width="0.791" height="7.736" transform="translate(28.226 15.547)" fill="#049d4f"/><rect width="0.791" height="7.736" transform="translate(25.548 15.547)" fill="#049d4f"/><rect width="0.791" height="7.736" transform="translate(22.338 15.547)" fill="#049d4f"/><rect width="0.791" height="7.736" transform="translate(17.417 15.547)" fill="#049d4f"/><rect width="0.791" height="7.736" transform="translate(12.213 15.547)" fill="#049d4f"/><rect width="0.791" height="7.736" transform="translate(4.235 15.547)" fill="#049d4f"/><rect width="0.791" height="7.736" transform="translate(30.773 15.547)" fill="#049d4f"/><rect width="0.791" height="7.736" transform="translate(32.457 15.547)" fill="#049d4f"/><rect width="0.791" height="7.736" transform="translate(34.083 15.547)" fill="#049d4f"/><path d="M1808.021,684.8v7.736h.494a1.641,1.641,0,0,0,.3-.027v-7.682a1.641,1.641,0,0,0-.3-.027Z" transform="translate(-1772.715 -669.252)" fill="#049d4f"/><path d="M1813.739,685.389V692.9a1.7,1.7,0,0,0,.79-.63v-6.249a1.7,1.7,0,0,0-.79-.63" transform="translate(-1777.334 -669.729)" fill="#049d4f"/><rect width="0.791" height="7.736" transform="translate(23.989 7.774)" fill="#049d4f"/><rect width="0.791" height="7.736" transform="translate(21.313 7.774)" fill="#049d4f"/><rect width="0.791" height="7.736" transform="translate(18.103 7.774)" fill="#049d4f"/><rect width="0.791" height="7.736" transform="translate(13.181 7.774)" fill="#049d4f"/><rect width="0.791" height="7.736" transform="translate(7.978 7.774)" fill="#049d4f"/><rect width="0.791" height="7.736" transform="translate(0 7.774)" fill="#049d4f"/><rect width="0.791" height="7.736" transform="translate(26.538 7.774)" fill="#049d4f"/><rect width="0.791" height="7.736" transform="translate(28.222 7.774)" fill="#049d4f"/><rect width="0.791" height="7.736" transform="translate(29.848 7.774)" fill="#049d4f"/><path d="M1785.993,644.371v7.736h.494a1.651,1.651,0,0,0,.3-.027V644.4a1.64,1.64,0,0,0-.3-.027Z" transform="translate(-1754.923 -636.598)" fill="#049d4f"/><path d="M1791.71,644.962v7.509a1.694,1.694,0,0,0,.79-.63v-6.249a1.693,1.693,0,0,0-.79-.63" transform="translate(-1759.54 -637.075)" fill="#049d4f"/><rect width="0.791" height="7.736" transform="translate(26.296 0.001)" fill="#049d4f"/><rect width="0.791" height="7.736" transform="translate(23.619 0.001)" fill="#049d4f"/><rect width="0.791" height="7.736" transform="translate(20.408 0.001)" fill="#049d4f"/><rect width="0.791" height="7.736" transform="translate(15.487 0.001)" fill="#049d4f"/><rect width="0.791" height="7.736" transform="translate(10.283 0.001)" fill="#049d4f"/><rect width="0.791" height="7.736" transform="translate(2.306 0.001)" fill="#049d4f"/><rect width="0.791" height="7.736" transform="translate(28.845 0.001)" fill="#049d4f"/><rect width="0.791" height="7.736" transform="translate(30.528 0.001)" fill="#049d4f"/><rect width="0.791" height="7.736" transform="translate(32.153 0.001)" fill="#049d4f"/><path d="M1797.987,603.944v7.736h.494a1.647,1.647,0,0,0,.3-.027v-7.682a1.647,1.647,0,0,0-.3-.027Z" transform="translate(-1764.61 -603.944)" fill="#049d4f"/><path d="M1803.7,604.535v7.509a1.7,1.7,0,0,0,.79-.63v-6.249a1.694,1.694,0,0,0-.79-.63" transform="translate(-1769.229 -604.421)" fill="#049d4f"/></g><path d="M1311.432,596.63s35.01-11.838,42.818-9.319,31.251,49.161,31.251,49.161a4.522,4.522,0,0,1-1.973,1.245,18.617,18.617,0,0,1-4.6.472s-21.157-18.134-23.676-23.424-3.526-10.327-6.045-9.823c-1.539.308-13.434,7.633-24.089,7.633H1309.7c-6.667-7.179-4.8-18.559-4.8-18.559Z" transform="translate(-1003.632 -451.528)" fill="url(#o)"/><path d="M1472.93,698.409l-6.9,18.568a11.179,11.179,0,0,1-3.666-.335,15.894,15.894,0,0,1-3.545-1.726s1.915-19.937,5.49-31.381Z" transform="translate(-1122.224 -525.821)" fill="url(#o)"/></g></g></svg>