<svg id="photo-camera" xmlns="http://www.w3.org/2000/svg" width="14.36" height="12.957" viewBox="0 0 14.36 12.957">
  <g id="Group_36671" data-name="Group 36671" transform="translate(0 0)">
    <g id="Group_36670" data-name="Group 36670">
      <path id="Path_28901" data-name="Path 28901" d="M134.506,157a3.506,3.506,0,1,0,3.506,3.506A3.51,3.51,0,0,0,134.506,157Zm0,5.89a2.384,2.384,0,1,1,2.384-2.384A2.387,2.387,0,0,1,134.506,162.89Z" transform="translate(-127.326 -153.298)" fill="#fff"/>
      <path id="Path_28902" data-name="Path 28902" d="M12.677,27.019H10.613a.174.174,0,0,1-.154-.093l-.571-1.2,0-.01A1.289,1.289,0,0,0,8.724,25H5.676a1.289,1.289,0,0,0-1.159.717l0,.01-.571,1.2a.174.174,0,0,1-.154.093h-2.1A1.685,1.685,0,0,0,0,28.7v7.573a1.685,1.685,0,0,0,1.683,1.683H12.677a1.685,1.685,0,0,0,1.683-1.683V28.7A1.685,1.685,0,0,0,12.677,27.019Zm.561,9.255a.562.562,0,0,1-.561.561H1.683a.562.562,0,0,1-.561-.561V28.7a.562.562,0,0,1,.561-.561h2.1a1.289,1.289,0,0,0,1.159-.717l0-.01.571-1.2a.173.173,0,0,1,.154-.093H8.724a.174.174,0,0,1,.154.093l.571,1.2,0,.01a1.289,1.289,0,0,0,1.159.717h2.064a.562.562,0,0,1,.561.561Z" transform="translate(0 -25)" fill="#fff"/>
      <rect id="Rectangle_17867" data-name="Rectangle 17867" width="1.093" height="1.093" transform="translate(10.928 4.215)" fill="#fff"/>
    </g>
  </g>
</svg>
