<svg id="layer1" xmlns="http://www.w3.org/2000/svg" width="62.093" height="16.316" viewBox="0 0 62.093 16.316">
  <g id="g234" transform="translate(54.729 1.199)">
    <path id="path236" d="M-.606,0,2.9,6.956l-7.364,6.959Z" transform="translate(4.467)" fill="#008c44"/>
  </g>
  <g id="g238" transform="translate(52.303 1.199)">
    <path id="path240" d="M-.606,0l3.5,6.956-7.359,6.959Z" transform="translate(4.467)" fill="#f47920"/>
  </g>
  <g id="g242" transform="translate(0 0)">
    <path id="path244" d="M0-1.974,3.493-14.558H9.077c1.745,0,2.911.276,3.5.846s.7,1.487.347,2.782a4.789,4.789,0,0,1-.989,1.91,4.594,4.594,0,0,1-1.753,1.2,1.534,1.534,0,0,1,1.177.878,3.275,3.275,0,0,1-.057,1.916l-.425,1.758v.048c-.123.492-.086.756.113.777l-.129.466H7.087c.013-.3.036-.561.061-.783a3.727,3.727,0,0,1,.095-.525L7.6-4.539a1.852,1.852,0,0,0,.024-1.372c-.166-.27-.538-.4-1.126-.4H4.906L3.7-1.974ZM5.691-9.148h1.7A2.489,2.489,0,0,0,8.7-9.41a1.506,1.506,0,0,0,.593-.911c.123-.441.093-.748-.084-.923a1.944,1.944,0,0,0-1.259-.264h-1.6Z" transform="translate(0 14.558)" fill="#fff"/>
  </g>
  <g id="g246" transform="translate(12.168 3.298)">
    <path id="path248" d="M-1.746,0-4.321,9.286H-7.45l.385-1.36A6.109,6.109,0,0,1-8.748,9.14a4.113,4.113,0,0,1-1.784.4,2.844,2.844,0,0,1-1.319-.28,1.8,1.8,0,0,1-.813-.84,2.4,2.4,0,0,1-.2-1.209,13.479,13.479,0,0,1,.506-2.39L-11.028,0H-7.6L-8.937,4.8A2.835,2.835,0,0,0-9.083,6.26c.1.271.363.411.791.411A1.438,1.438,0,0,0-7.2,6.2a3.306,3.306,0,0,0,.714-1.414L-5.164,0Z" transform="translate(12.874)" fill="#fff"/>
  </g>
  <g id="g250" transform="translate(22.054 0)">
    <path id="path252" d="M0-1.974,3.489-14.558h4.8a11.432,11.432,0,0,1,2.463.2,3.05,3.05,0,0,1,1.381.646,2.565,2.565,0,0,1,.794,1.466,4.762,4.762,0,0,1-.18,2.065,5.948,5.948,0,0,1-2.053,3.238A5.842,5.842,0,0,1,7.057-5.827H4.811L3.744-1.974ZM5.662-8.9H6.868a3.509,3.509,0,0,0,1.65-.282,1.617,1.617,0,0,0,.667-1c.135-.482.1-.82-.1-1.008a2.482,2.482,0,0,0-1.5-.282h-1.2Z" transform="translate(0 14.558)" fill="#fff"/>
  </g>
  <g id="g254" transform="translate(33.014 2.971)">
    <path id="path256" d="M-.912-1.508l.035-.882a6.233,6.233,0,0,1-1.673.921,5.31,5.31,0,0,1-1.794.3A2.415,2.415,0,0,1-6.38-1.943a2.43,2.43,0,0,1-.186-2.18A3.423,3.423,0,0,1-5.218-6.16a7.822,7.822,0,0,1,3.226-.956c.191-.031.447-.056.768-.095C-.11-7.34.516-7.637.65-8.121A.5.5,0,0,0,.513-8.7a1.51,1.51,0,0,0-.885-.186,1.557,1.557,0,0,0-.877.227,1.373,1.373,0,0,0-.528.7H-5.114a3.848,3.848,0,0,1,1.841-2.363,7.186,7.186,0,0,1,3.639-.8,7.677,7.677,0,0,1,1.9.21A2.884,2.884,0,0,1,3.5-10.34,1.683,1.683,0,0,1,4.08-9.333a3.962,3.962,0,0,1-.2,1.6L2.443-2.552a1.031,1.031,0,0,0-.03.458A.552.552,0,0,0,2.6-1.77l-.077.262ZM-.08-5.654a12.454,12.454,0,0,1-1.423.44c-.922.247-1.441.577-1.553.986a.629.629,0,0,0,.082.618.834.834,0,0,0,.656.22A2.065,2.065,0,0,0-.953-3.818a2.693,2.693,0,0,0,.774-1.36c.031-.132.059-.227.076-.3Z" transform="translate(6.726 11.121)" fill="#fff"/>
  </g>
  <g id="g258" transform="translate(42.29 3.298)">
    <path id="path260" d="M0-2.031.76-4.779h.979a1.411,1.411,0,0,0,.767-.182.991.991,0,0,0,.384-.606,2.173,2.173,0,0,0,.074-.4,4.406,4.406,0,0,0,0-.508l-.523-8.5H5.905L5.851-9.341l3.024-5.634H12.1L6.751-5.735Q5.841-4.185,5.423-3.6a4.437,4.437,0,0,1-.793.881,2.968,2.968,0,0,1-1.1.591,6.944,6.944,0,0,1-1.821.176c-.235,0-.5,0-.8-.02S.316-2.006,0-2.031" transform="translate(0 14.976)" fill="#fff"/>
  </g>
</svg>
