<svg xmlns="http://www.w3.org/2000/svg" width="40.424" height="40" viewBox="0 0 40.424 40"><path d="M40.424,20.448A17.777,17.777,0,0,0,22.633,2.685,17.835,17.835,0,0,0,9.563,8.4a5.471,5.471,0,0,0-1.9-.339h0A5.442,5.442,0,0,0,3.783,9.668a.786.786,0,0,0-.061.069L2.484,11.305A11.593,11.593,0,0,0,.172,16.462,11.3,11.3,0,0,0,.614,22.1,7.778,7.778,0,0,0,2.3,25.069L17.6,40.4a6.956,6.956,0,0,0,2.207,1.4,11.086,11.086,0,0,0,4.356.887,11.436,11.436,0,0,0,6.956-2.372l1.761-1.351a.806.806,0,0,0,.078-.069,5.5,5.5,0,0,0,1.458-5.139,17.75,17.75,0,0,0,6.006-13.306ZM31.878,37.742,30.161,39.06a9.738,9.738,0,0,1-9.731,1.286,5.425,5.425,0,0,1-1.709-1.064L3.417,23.953a6.274,6.274,0,0,1-1.31-2.371,9.791,9.791,0,0,1,1.617-9.3l1.208-1.531a3.894,3.894,0,0,1,5.486.031l2.528,2.533a3.744,3.744,0,0,1,0,5.282l-2.832,2.839a.79.79,0,0,0,0,1.115l9.984,10a.79.79,0,0,0,.559.232h0a.789.789,0,0,0,.559-.232l2.831-2.838a3.718,3.718,0,0,1,5.268,0l2.528,2.533a3.922,3.922,0,0,1,.035,5.5Zm-1.207-8.906-.239-.239a5.3,5.3,0,0,0-7.5,0l-2.273,2.278-8.868-8.881,2.275-2.28a5.327,5.327,0,0,0,.19-7.313A11.618,11.618,0,1,1,30.671,28.835Zm2.29,2.294-1.174-1.176A13.2,13.2,0,1,0,13.143,11.278l-1.607-1.61a5.578,5.578,0,0,0-.546-.48,16.2,16.2,0,1,1,22.8,23A5.485,5.485,0,0,0,32.961,31.129Z" transform="translate(0 -2.685)" fill="#f7f8fa"/><path d="M297.319,172.631h-.114c.012-2.135.019-4.416-.008-4.733a1.647,1.647,0,0,0-1.1-1.486,1.585,1.585,0,0,0-1.706.624c-.505.622-2.836,4.843-3.539,6.121a1.014,1.014,0,0,0,.889,1.5h3.417c0,.569-.009,1.114-.013,1.607a1.014,1.014,0,0,0,1.006,1.023h.009a1.014,1.014,0,0,0,1.014-1.006c0-.3.008-.893.013-1.625h.127a1.014,1.014,0,0,0,0-2.029Zm-2.143,0h-1.709c.634-1.139,1.252-2.231,1.721-3.037C295.187,170.426,295.183,171.509,295.176,172.631Z" transform="translate(-267.232 -154.422)" fill="#f7f8fa"/><path d="M225.059,176.692c-.892.011-1.838.019-2.623.02.493-.662,1.178-1.6,2.1-2.932a6.784,6.784,0,0,0,1.1-2.286,3.557,3.557,0,0,0,.07-.573,3.284,3.284,0,0,0-6.508-.637,1.014,1.014,0,1,0,1.991.389,1.255,1.255,0,0,1,2.488.192l-.028.217a4.942,4.942,0,0,1-.776,1.538c-1.406,2.017-2.244,3.12-2.695,3.712-.557.732-.811,1.066-.638,1.627a1.055,1.055,0,0,0,.685.694,7.368,7.368,0,0,0,1.991.089c.677,0,1.6-.007,2.866-.023a1.014,1.014,0,0,0-.025-2.029Z" transform="translate(-202.632 -155.628)" fill="#f7f8fa"/></svg>