<svg xmlns="http://www.w3.org/2000/svg" width="141.066" height="138.263" viewBox="0 0 141.066 138.263">
  <g id="Group_36680" data-name="Group 36680" transform="translate(-1260 -237.061)">
    <g id="Group_19" data-name="Group 19" transform="translate(1260 237.061)">
      <path id="Shape_1_copy_6" data-name="Shape 1 copy 6" d="M136.276,135.879a2.395,2.395,0,1,1,2.395,2.384A2.389,2.389,0,0,1,136.276,135.879Zm-120.991-48a2.269,2.269,0,0,1,2.4-2.389,2.387,2.387,0,1,1,0,4.774A2.266,2.266,0,0,1,15.286,87.877ZM120.546,78.9a2.395,2.395,0,1,1,2.395,2.385A2.389,2.389,0,0,1,120.546,78.9ZM2.326,61.947a2.395,2.395,0,1,1,2.395,2.385A2.389,2.389,0,0,1,2.326,61.947ZM131.1,28.356a2.35,2.35,0,0,1-2.35-2.35v-2.42h-2.4A2.248,2.248,0,0,1,123.96,21.2a2.246,2.246,0,0,1,2.385-2.384h2.4V16.4a2.35,2.35,0,0,1,2.35-2.35h.08a2.35,2.35,0,0,1,2.35,2.35v2.42h2.389A2.254,2.254,0,0,1,138.3,21.2a2.255,2.255,0,0,1-2.385,2.385h-2.389v2.42a2.35,2.35,0,0,1-2.35,2.35ZM9.5,21.406A7.031,7.031,0,0,0,2.336,14.25c-3.114,0-3.114-4.77,0-4.77A7.028,7.028,0,0,0,9.5,2.326c0-3.1,4.785-3.1,4.785,0A7.04,7.04,0,0,0,21.475,9.48c3.114,0,3.114,4.77,0,4.77a7.043,7.043,0,0,0-7.185,7.156A2.268,2.268,0,0,1,11.9,23.73,2.268,2.268,0,0,1,9.5,21.406Zm0-9.539a11.307,11.307,0,0,1,2.4,2.383,11.214,11.214,0,0,1,2.385-2.383A11.148,11.148,0,0,1,11.905,9.48,11.24,11.24,0,0,1,9.5,11.866Z" transform="translate(0 0)" fill="#007c3d"/>
    </g>
    <path id="Subtraction_1" data-name="Subtraction 1" d="M-8627.836-501.524h-80.852a9.323,9.323,0,0,1-9.312-9.313v-19.821a9.322,9.322,0,0,1,9.313-9.311h6.956v6.849h-6.956a2.466,2.466,0,0,0-2.464,2.462v19.821a2.466,2.466,0,0,0,2.464,2.462h80.852a2.464,2.464,0,0,0,2.461-2.462v-19.821a2.464,2.464,0,0,0-2.461-2.462h-5.193v-6.849h5.193a9.321,9.321,0,0,1,9.311,9.311v19.821A9.322,9.322,0,0,1-8627.836-501.524Zm-16.878-15.7a3.428,3.428,0,0,1-3.425-3.424,3.428,3.428,0,0,1,3.425-3.424,3.428,3.428,0,0,1,3.425,3.424A3.428,3.428,0,0,1-8644.714-517.225Zm-15.7,0a3.428,3.428,0,0,1-3.425-3.424,3.428,3.428,0,0,1,3.425-3.424,3.429,3.429,0,0,1,3.427,3.424A3.429,3.429,0,0,1-8660.414-517.225Zm-15.7,0a3.428,3.428,0,0,1-3.424-3.424,3.428,3.428,0,0,1,3.424-3.424,3.428,3.428,0,0,1,3.425,3.424A3.428,3.428,0,0,1-8676.112-517.225Zm-15.7,0a3.428,3.428,0,0,1-3.424-3.424,3.428,3.428,0,0,1,3.424-3.424,3.428,3.428,0,0,1,3.425,3.424A3.428,3.428,0,0,1-8691.812-517.225Zm39.444-15.895h-31.79a11.288,11.288,0,0,1-11.275-11.276v-21a11.288,11.288,0,0,1,11.275-11.276h1.083v-9.814A14.682,14.682,0,0,1-8668.268-601a14.682,14.682,0,0,1,14.808,14.519v9.814h1.092a11.288,11.288,0,0,1,11.275,11.276v21A11.288,11.288,0,0,1-8652.368-533.12Zm-31.79-36.7a4.43,4.43,0,0,0-4.424,4.427v21a4.43,4.43,0,0,0,4.424,4.427h31.79a4.432,4.432,0,0,0,4.427-4.427v-21a4.432,4.432,0,0,0-4.427-4.427Zm15.891-24.332a7.826,7.826,0,0,0-7.956,7.669v9.814h15.912v-9.814A7.826,7.826,0,0,0-8668.268-594.15Zm0,42.584a3.428,3.428,0,0,1-3.425-3.424,3.428,3.428,0,0,1,3.425-3.424,3.428,3.428,0,0,1,3.424,3.424A3.428,3.428,0,0,1-8668.263-551.566Z" transform="translate(9998.002 866.001)" fill="#37474f"/>
  </g>
</svg>
