<svg xmlns="http://www.w3.org/2000/svg" width="48" height="48" viewBox="0 0 48 48"><circle cx="24" cy="24" r="24" transform="translate(0 0)" fill="#55acee"/><g transform="translate(10.739 14.558)"><path d="M53.065,36.718a11.446,11.446,0,0,1-3.3.9,5.752,5.752,0,0,0,2.523-3.173,11.484,11.484,0,0,1-3.643,1.392,5.741,5.741,0,0,0-9.776,5.233,16.285,16.285,0,0,1-11.825-5.995,5.743,5.743,0,0,0,1.775,7.659,5.7,5.7,0,0,1-2.6-.718c0,.024,0,.049,0,.073a5.74,5.74,0,0,0,4.6,5.625,5.759,5.759,0,0,1-2.59.1A5.743,5.743,0,0,0,33.6,51.8,11.58,11.58,0,0,1,25.1,54.174,16.227,16.227,0,0,0,33.9,56.752c10.552,0,16.322-8.741,16.322-16.323,0-.249-.006-.5-.017-.742a11.633,11.633,0,0,0,2.863-2.969Z" transform="translate(-25.103 -34.028)" fill="#f1f2f2"/></g></svg>