<svg xmlns="http://www.w3.org/2000/svg" width="46.633" height="14.289" viewBox="0 0 46.633 14.289">
  <g id="Layer_x0020_1" transform="translate(85999.047 28509.523)">
    <g id="_364834240" transform="translate(-85999.047 -28509.523)">
      <path id="Path_43841" data-name="Path 43841" d="M2,0h.022V.014H2V0Zm.02,0H2v.01h.024V0h0Z" transform="translate(23.291 7.136)" fill="gray"/>
      <path id="Path_43842" data-name="Path 43842" d="M82195.477,68344.078l2.352-13.844h3.773l-2.352,13.844Zm17.453-13.5a9.916,9.916,0,0,0-3.383-.578c-3.727,0-6.352,1.875-6.375,4.563-.016,1.992,1.875,3.094,3.3,3.766,1.469.672,1.961,1.109,1.953,1.711-.008.93-1.172,1.359-2.25,1.359a7.831,7.831,0,0,1-3.555-.734l-.484-.219-.531,3.094a11.6,11.6,0,0,0,4.2.75c3.961,0,6.539-1.859,6.57-4.734.016-1.578-.992-2.773-3.172-3.758-1.312-.641-2.125-1.07-2.117-1.719,0-.578.688-1.187,2.156-1.187a6.89,6.89,0,0,1,2.828.531l.344.156.508-3Zm9.672-.328h-2.914a1.872,1.872,0,0,0-1.977,1.148l-5.6,12.688h3.969l.781-2.086,4.836.008c.109.484.461,2.078.461,2.078h3.508l-3.062-13.836Zm-4.648,8.922c.3-.8,1.5-3.867,1.5-3.867-.016.031.3-.8.5-1.328l.25,1.2s.734,3.3.883,3.992Zm-25.641-8.922-3.7,9.438-.4-1.922a10.791,10.791,0,0,0-5.219-5.8l3.375,12.109,3.992-.008,5.938-13.812Z" transform="translate(-82179.031 -68330)" fill="#191e70" fill-rule="evenodd"/>
      <path id="Path_43843" data-name="Path 43843" d="M64998.141,69386.008h-6.086l-.055.289c4.734,1.141,7.867,3.914,9.172,7.242l-1.328-6.359A1.572,1.572,0,0,0,64998.141,69386.008Z" transform="translate(-64992 -69385.875)" fill="#f7b600" fill-rule="evenodd"/>
    </g>
  </g>
</svg>
