<svg xmlns="http://www.w3.org/2000/svg" width="68.296" height="61.09" viewBox="0 0 68.296 61.09"><g opacity="0.5"><path d="M65.223,36.111h6.4a4,4,0,0,0,4-4V14.5a4,4,0,0,0-4-4H14a4,4,0,0,0-4,4V32.109a4,4,0,0,0,4,4Zm0,0" transform="translate(-8.666 -9.166)" fill="none"/><path d="M378.094,329.1l11.083,11.083a3.189,3.189,0,0,0,4.51-4.51L382.6,324.593Zm0,0" transform="translate(-327.66 -281.363)" fill="none"/><path d="M222.018,152.507A16.007,16.007,0,1,1,206.011,136.5,16.007,16.007,0,0,1,222.018,152.507Zm0,0" transform="translate(-164.659 -118.359)" fill="none"/><path d="M252.813,188.9a10.4,10.4,0,1,1-10.4-10.4A10.4,10.4,0,0,1,252.813,188.9Zm0,0" transform="translate(-201.057 -154.757)" fill="none"/><path d="M233.742,168.5a11.738,11.738,0,1,0,11.738,11.738A11.752,11.752,0,0,0,233.742,168.5Zm0,20.809a9.07,9.07,0,1,1,9.07-9.07A9.081,9.081,0,0,1,233.742,189.309Zm0,0" transform="translate(-192.391 -146.091)"/><path d="M301.338,211.5a1.334,1.334,0,0,0,0,2.668,3.338,3.338,0,0,1,3.334,3.334,1.334,1.334,0,0,0,2.668,0A6.009,6.009,0,0,0,301.338,211.5Zm0,0" transform="translate(-259.986 -183.358)"/><path d="M45.28,71.218a1.334,1.334,0,1,0-2.369,1.227L46.5,79.38a1.334,1.334,0,0,0,2.387-.036l2.174-4.526,2.361,4.562a1.335,1.335,0,0,0,1.185.721h.02a1.335,1.335,0,0,0,1.183-.757l3.331-6.936a1.334,1.334,0,1,0-2.4-1.155l-2.174,4.526L52.2,71.218a1.334,1.334,0,0,0-2.387.036l-2.173,4.526Zm0,0" transform="translate(-37.057 -61.16)"/><path d="M117.322,3.168a1.334,1.334,0,0,0,.943-2.277,1.334,1.334,0,1,0-1.886,1.886A1.343,1.343,0,0,0,117.322,3.168Zm0,0" transform="translate(-100.516 -0.5)"/><path d="M68.3,23.443V5.836A5.342,5.342,0,0,0,62.96.5H22.408a1.334,1.334,0,1,0,0,2.668H62.96a2.671,2.671,0,0,1,2.668,2.668V23.443a2.671,2.671,0,0,1-2.668,2.668h-6.4c-.039,0-.076,0-.114.006a17.433,17.433,0,0,0-9.376-7.84l1.977-4.117,2.361,4.561a1.333,1.333,0,0,0,1.184.721h.02a1.334,1.334,0,0,0,1.182-.757l3.331-6.936a1.334,1.334,0,0,0-2.4-1.155L52.546,15.12l-2.361-4.562a1.334,1.334,0,0,0-2.387.036L45.624,15.12l-2.361-4.562a1.334,1.334,0,0,0-2.37,1.227l2.952,5.7a17.367,17.367,0,0,0-7.226.476L39.6,11.749a1.334,1.334,0,0,0-2.4-1.155L35.026,15.12l-2.361-4.562a1.334,1.334,0,0,0-2.387.036L28.1,15.12l-2.361-4.562a1.334,1.334,0,0,0-2.369,1.227l3.591,6.936a1.334,1.334,0,0,0,2.387-.036l2.174-4.525,2.361,4.561a1.3,1.3,0,0,0,.141.212,17.457,17.457,0,0,0-7.764,7.178H5.335a2.671,2.671,0,0,1-2.668-2.668V5.836A2.671,2.671,0,0,1,5.335,3.168H10.8A1.334,1.334,0,0,0,10.8.5H5.335A5.342,5.342,0,0,0,0,5.836V23.443a5.342,5.342,0,0,0,5.336,5.336h19.7a17.337,17.337,0,0,0,24.953,20.9L60.574,60.268a4.523,4.523,0,1,0,6.4-6.4l-4.16-4.16A1.334,1.334,0,0,0,60.924,51.6l4.16,4.16a1.855,1.855,0,0,1-2.624,2.624L52.224,48.145a17.325,17.325,0,0,0,5.444-19.367H62.96A5.342,5.342,0,0,0,68.3,23.443ZM41.351,49.321A14.673,14.673,0,1,1,56.024,34.648,14.69,14.69,0,0,1,41.351,49.321Zm0,0" transform="translate(0 -0.5)"/><path d="M430.481,343.172a1.334,1.334,0,1,0,.943-.391A1.344,1.344,0,0,0,430.481,343.172Zm0,0" transform="translate(-372.721 -297.125)"/></g></svg>