<svg xmlns="http://www.w3.org/2000/svg" width="48" height="48" viewBox="0 0 48 48"><g transform="translate(0 0)" fill="#efefef"><path d="M 23.99996566772461 47.49993515014648 C 20.8272762298584 47.49993515014648 17.74974632263184 46.87866592407227 14.85287570953369 45.65339660644531 C 12.05457592010498 44.46981430053711 9.541345596313477 42.77531433105469 7.382985591888428 40.6169548034668 C 5.224625587463379 38.45859527587891 3.530125617980957 35.94536590576172 2.346545696258545 33.14706420898438 C 1.121275663375854 30.25018501281738 0.5000056624412537 27.17266654968262 0.5000056624412537 23.99996566772461 C 0.5000056624412537 20.8272762298584 1.121275663375854 17.74974632263184 2.346545696258545 14.85287570953369 C 3.530125617980957 12.05457592010498 5.224625587463379 9.541345596313477 7.382985591888428 7.382985591888428 C 9.541345596313477 5.224625587463379 12.05457592010498 3.530125617980957 14.85287570953369 2.346545696258545 C 17.74974632263184 1.121275663375854 20.8272762298584 0.5000056624412537 23.99996566772461 0.5000056624412537 C 27.17266654968262 0.5000056624412537 30.25018501281738 1.121275663375854 33.14706420898438 2.346545696258545 C 35.94536590576172 3.530125617980957 38.45859527587891 5.224625587463379 40.6169548034668 7.382985591888428 C 42.77531433105469 9.541345596313477 44.46981430053711 12.05457592010498 45.65339660644531 14.85287570953369 C 46.87866592407227 17.74974632263184 47.49993515014648 20.8272762298584 47.49993515014648 23.99996566772461 C 47.49993515014648 27.17266654968262 46.87866592407227 30.25018501281738 45.65339660644531 33.14706420898438 C 44.46981430053711 35.94536590576172 42.77531433105469 38.45859527587891 40.6169548034668 40.6169548034668 C 38.45859527587891 42.77531433105469 35.94536590576172 44.46981430053711 33.14706420898438 45.65339660644531 C 30.25018501281738 46.87866592407227 27.17266654968262 47.49993515014648 23.99996566772461 47.49993515014648 Z" stroke="none"/><path d="M 23.99996566772461 0.9999961853027344 C 20.89455604553223 0.9999961853027344 17.88255500793457 1.607975006103516 15.04764556884766 2.807037353515625 C 12.30894470214844 3.965415954589844 9.849136352539062 5.623935699462891 7.736534118652344 7.736534118652344 C 5.623935699462891 9.849136352539062 3.965415954589844 12.30894470214844 2.807037353515625 15.04764556884766 C 1.607975006103516 17.88255500793457 0.9999961853027344 20.89455604553223 0.9999961853027344 23.99996566772461 C 0.9999961853027344 27.10538482666016 1.607975006103516 30.11737632751465 2.807037353515625 32.95228576660156 C 3.965415954589844 35.69098663330078 5.623935699462891 38.15079498291016 7.736534118652344 40.26339721679688 C 9.849136352539062 42.37599563598633 12.30894470214844 44.03451538085938 15.04764556884766 45.19288635253906 C 17.88255500793457 46.39194488525391 20.89454650878906 46.99992370605469 23.99996566772461 46.99992370605469 C 27.10538482666016 46.99992370605469 30.11737632751465 46.39194488525391 32.95228576660156 45.19288635253906 C 35.69098663330078 44.03451538085938 38.15079498291016 42.37599563598633 40.26339721679688 40.26339721679688 C 42.37599563598633 38.15079498291016 44.03451538085938 35.69098663330078 45.19288635253906 32.95228576660156 C 46.39194488525391 30.11737632751465 46.99992370605469 27.10538482666016 46.99992370605469 23.99996566772461 C 46.99992370605469 20.89454650878906 46.39194488525391 17.88255500793457 45.19288635253906 15.04764556884766 C 44.03451538085938 12.30894470214844 42.37599563598633 9.849136352539062 40.26339721679688 7.736534118652344 C 38.15079498291016 5.623935699462891 35.69098663330078 3.965415954589844 32.95228576660156 2.807037353515625 C 30.11737632751465 1.607975006103516 27.10538482666016 0.9999961853027344 23.99996566772461 0.9999961853027344 M 23.99996566772461 -3.814697265625e-06 C 37.25478363037109 -3.814697265625e-06 47.99992752075195 10.74515533447266 47.99992752075195 23.99996566772461 C 47.99992752075195 37.25478363037109 37.25478363037109 47.99992752075195 23.99996566772461 47.99992752075195 C 10.74515533447266 47.99992752075195 -3.814697265625e-06 37.25478363037109 -3.814697265625e-06 23.99996566772461 C -3.814697265625e-06 10.74515533447266 10.74515533447266 -3.814697265625e-06 23.99996566772461 -3.814697265625e-06 Z" stroke="none" fill="#dedede"/></g><path d="M23.307,67.393H6.709A6.708,6.708,0,0,0,0,74.1v9.44A6.709,6.709,0,0,0,6.709,90.25h16.6a6.709,6.709,0,0,0,6.709-6.709V74.1A6.708,6.708,0,0,0,23.307,67.393ZM21.056,79.281l-8.833,4.213a.355.355,0,0,1-.507-.32V74.485a.355.355,0,0,1,.515-.316l8.833,4.476A.355.355,0,0,1,21.056,79.281Z" transform="translate(9.143 -54.821)" fill="#f61c0d"/></svg>